<?xml version="1.0" encoding="UTF-8" standalone="no"?>
<!-- Created with Inkscape (http://www.inkscape.org/) -->

<svg
   xmlns:dc="http://purl.org/dc/elements/1.1/"
   xmlns:cc="http://creativecommons.org/ns#"
   xmlns:rdf="http://www.w3.org/1999/02/22-rdf-syntax-ns#"
   xmlns:svg="http://www.w3.org/2000/svg"
   xmlns="http://www.w3.org/2000/svg"
   xmlns:sodipodi="http://sodipodi.sourceforge.net/DTD/sodipodi-0.dtd"
   xmlns:inkscape="http://www.inkscape.org/namespaces/inkscape"
   width="210mm"
   height="297mm"
   viewBox="0 0 210 297"
   version="1.1"
   id="svg8"
   inkscape:version="0.92.5 (2060ec1f9f, 2020-04-08)"
   sodipodi:docname="cover_FlammeImHerbst.svg">
  <defs
     id="defs2" />
  <sodipodi:namedview
     id="base"
     pagecolor="#ffffff"
     bordercolor="#666666"
     borderopacity="1.0"
     inkscape:pageopacity="0.0"
     inkscape:pageshadow="2"
     inkscape:zoom="0.49497475"
     inkscape:cx="-190.05304"
     inkscape:cy="269.03661"
     inkscape:document-units="mm"
     inkscape:current-layer="layer1"
     showgrid="false"
     inkscape:window-width="1920"
     inkscape:window-height="1015"
     inkscape:window-x="0"
     inkscape:window-y="0"
     inkscape:window-maximized="1"
     inkscape:lockguides="true" />
  <metadata
     id="metadata5">
    <rdf:RDF>
      <cc:Work
         rdf:about="">
        <dc:format>image/svg+xml</dc:format>
        <dc:type
           rdf:resource="http://purl.org/dc/dcmitype/StillImage" />
        <dc:title />
      </cc:Work>
    </rdf:RDF>
  </metadata>
  <g
     inkscape:label="Layer 1"
     inkscape:groupmode="layer"
     id="layer1">
    <rect
       style="opacity:1;vector-effect:none;fill:#ffffff;fill-opacity:1;fill-rule:evenodd;stroke:none;stroke-width:0.26499999;stroke-linecap:square;stroke-linejoin:miter;stroke-miterlimit:4;stroke-dasharray:none;stroke-dashoffset:0;stroke-opacity:1;paint-order:markers stroke fill"
       id="rect937"
       width="210.60838"
       height="297.20374"
       x="0"
       y="-0.20371258" />
    <g
       aria-label="эмиль весна"
       transform="matrix(0.26458333,0,0,0.26458333,-3.2148863,-31.523214)"
       style="font-style:normal;font-weight:normal;font-size:40px;line-height:0;font-family:sans-serif;letter-spacing:0px;word-spacing:0px;fill:#000000;fill-opacity:1;stroke:none"
       id="flowRoot938">
      <path
         d="m 322.9668,1018.4293 q 0,4.2578 -2.40235,7.4218 -2.40234,3.1446 -6.8164,3.1446 -3.55469,0 -5.89844,-2.1875 -2.32422,-2.2071 -2.32422,-5.4688 h 3.45703 q 0,1.9727 1.36719,3.3399 1.38672,1.3476 3.39844,1.3476 2.71484,0 4.04297,-2.0898 1.34765,-2.0899 1.52343,-4.6485 h -7.94922 v -2.9492 h 7.92969 q -0.2539,-2.4609 -1.58203,-4.375 -1.32812,-1.9336 -3.98437,-1.9336 -1.79688,0 -3.28125,1.1719 -1.46485,1.1523 -1.46485,2.9492 h -3.45703 q 0,-2.793 2.5,-4.9414 2.5,-2.1484 5.70313,-2.1484 4.43359,0 6.83593,3.1445 2.40235,3.1445 2.40235,7.4023 z"
         style="font-style:normal;font-variant:normal;font-weight:normal;font-stretch:normal;font-family:Roboto;-inkscape-font-specification:Roboto"
         id="path962" />
      <path
         d="m 339.99805,1023.7808 7.1875,-16.3281 h 4.53125 v 21.1328 h -3.63282 v -15.3516 l -6.83593,15.3516 h -2.5 l -6.95313,-15.6641 v 15.6641 h -3.61328 v -21.1328 h 4.66797 z"
         style="font-style:normal;font-variant:normal;font-weight:normal;font-stretch:normal;font-family:Roboto;-inkscape-font-specification:Roboto"
         id="path964" />
      <path
         d="m 361.42383,1022.8629 9.74609,-15.4102 h 3.63281 v 21.1328 h -3.63281 v -15.4101 l -9.74609,15.4101 h -3.59375 v -21.1328 h 3.59375 z"
         style="font-style:normal;font-variant:normal;font-weight:normal;font-stretch:normal;font-family:Roboto;-inkscape-font-specification:Roboto"
         id="path966" />
      <path
         d="m 383.63086,1007.4527 h 14.27734 v 21.1328 h -3.61328 v -18.1445 h -7.1875 l -0.42969,7.8906 q -0.37109,5.5273 -1.875,7.8711 -1.48437,2.3242 -4.80468,2.3828 h -1.28907 v -3.1836 l 0.80079,-0.059 q 1.89453,-0.1367 2.65625,-1.8359 0.78125,-1.6992 1.03515,-6.1524 z"
         style="font-style:normal;font-variant:normal;font-weight:normal;font-stretch:normal;font-family:Roboto;-inkscape-font-specification:Roboto"
         id="path968" />
      <path
         d="m 420.93555,1021.5738 q 0,2.9492 -2.03125,4.9805 -2.03125,2.0312 -5.85938,2.0312 h -8.98437 v -21.1328 h 3.61328 v 7.2656 h 5.44922 q 3.78906,0.02 5.80078,1.9727 2.01172,1.9531 2.01172,4.8828 z m -13.26172,4.043 h 5.37109 q 2.34375,0 3.30078,-1.211 0.95703,-1.2109 0.95703,-2.6953 0,-1.4258 -0.95703,-2.7148 -0.95703,-1.3086 -3.30078,-1.3086 h -5.37109 z"
         style="font-style:normal;font-variant:normal;font-weight:normal;font-stretch:normal;font-family:Roboto;-inkscape-font-specification:Roboto"
         id="path970" />
      <path
         d="m 453.41602,1022.5699 q 0,2.9883 -2.1875,4.5117 -2.16797,1.5039 -5.9375,1.5039 h -9.58985 v -21.1328 h 8.24219 q 4.02344,0 6.36719,1.4258 2.36328,1.4062 2.36328,4.375 0,3.1445 -3.4375,4.4336 2.03125,0.4883 3.10547,1.8359 1.07422,1.3477 1.07422,3.0469 z m -14.10157,-12.1875 v 6.0156 h 4.66797 q 5.0586,0 5.0586,-2.9687 0,-2.9688 -4.84375,-3.0469 z m 10.46875,12.0898 q 0,-3.1054 -4.27734,-3.1836 h -6.19141 v 6.3672 h 5.97657 q 4.49218,0 4.49218,-3.1836 z"
         style="font-style:normal;font-variant:normal;font-weight:normal;font-stretch:normal;font-family:Roboto;-inkscape-font-specification:Roboto"
         id="path972" />
      <path
         d="m 474.95898,1024.8941 q -1.03515,1.5625 -2.92968,2.832 -1.89453,1.25 -5.01953,1.25 -4.41407,0 -7.07032,-2.8711 -2.63672,-2.8711 -2.63672,-7.3437 v -0.8203 q 0,-3.4571 1.3086,-5.8789 1.32812,-2.4414 3.4375,-3.711 2.10937,-1.289 4.49219,-1.289 4.53125,0 6.60156,2.9687 2.08984,2.9492 2.08984,7.3828 v 1.6211 h -14.29687 q 0.0781,2.9102 1.71875,4.961 1.66015,2.0312 4.55078,2.0312 1.91406,0 3.24219,-0.7812 1.32812,-0.7813 2.32421,-2.0899 z m -8.41796,-14.8633 q -2.14844,0 -3.63282,1.5625 -1.48437,1.5625 -1.85547,4.4922 h 10.56641 v -0.2734 q -0.13672,-2.1094 -1.23047,-3.9453 -1.07422,-1.836 -3.84765,-1.836 z"
         style="font-style:normal;font-variant:normal;font-weight:normal;font-stretch:normal;font-family:Roboto;-inkscape-font-specification:Roboto"
         id="path974" />
      <path
         d="m 487.9082,1026.0074 q 1.9336,0 3.37891,-1.1524 1.46484,-1.1523 1.60156,-2.9492 h 3.4375 q -0.13672,2.8321 -2.59765,4.961 -2.46094,2.1093 -5.82032,2.1093 -4.76562,0 -7.08984,-3.1445 -2.30469,-3.1445 -2.30469,-7.4023 v -0.8204 q 0,-4.2578 2.30469,-7.4023 2.32422,-3.1445 7.08984,-3.1445 3.71094,0 5.9961,2.207 2.28515,2.1875 2.42187,5.4492 h -3.4375 q -0.13672,-1.9531 -1.48437,-3.3203 -1.32813,-1.3672 -3.4961,-1.3672 -2.22656,0 -3.49609,1.1328 -1.25,1.1328 -1.77734,2.8711 -0.50782,1.7383 -0.50782,3.5742 v 0.8204 q 0,1.8554 0.50782,3.5937 0.50781,1.7383 1.75781,2.8711 1.26953,1.1133 3.51562,1.1133 z"
         style="font-style:normal;font-variant:normal;font-weight:normal;font-stretch:normal;font-family:Roboto;-inkscape-font-specification:Roboto"
         id="path976" />
      <path
         d="m 514.02148,1028.5855 v -9.043 h -9.70703 v 9.043 h -3.61328 v -21.1328 h 3.61328 v 9.1602 h 9.70703 v -9.1602 h 3.63282 v 21.1328 z"
         style="font-style:normal;font-variant:normal;font-weight:normal;font-stretch:normal;font-family:Roboto;-inkscape-font-specification:Roboto"
         id="path978" />
      <path
         d="m 536.50195,1028.5855 q -0.35156,-0.7617 -0.50781,-2.2266 -1.01562,1.0743 -2.53906,1.8555 -1.52344,0.7617 -3.47656,0.7617 -3.24219,0 -5.19532,-1.8164 -1.95312,-1.8164 -1.95312,-4.4531 0,-3.3984 2.57812,-5.1562 2.57813,-1.7774 6.9336,-1.7774 h 3.57422 v -1.6797 q 0,-1.875 -1.13282,-2.9883 -1.11328,-1.1328 -3.32031,-1.1328 -2.05078,0 -3.32031,1.0157 -1.25,0.996 -1.25,2.3242 h -3.61328 q 0,-2.2657 2.28515,-4.2578 2.28516,-1.9922 6.11328,-1.9922 3.4375,0 5.64454,1.7578 2.20703,1.7578 2.20703,5.3125 v 9.4922 q 0,2.9297 0.74218,4.6484 v 0.3125 z m -5.99609,-2.7734 q 1.95312,0 3.37891,-0.9766 1.44531,-0.9766 2.03125,-2.168 v -4.3554 h -3.35938 q -6.09375,0.1172 -6.09375,3.9062 0,1.5039 1.01563,2.5586 1.01562,1.0352 3.02734,1.0352 z"
         style="font-style:normal;font-variant:normal;font-weight:normal;font-stretch:normal;font-family:Roboto;-inkscape-font-specification:Roboto"
         id="path980" />
    </g>
    <g
       id="g960"
       transform="translate(0,10.054166)">
      <path
         d="m 43.441192,243.97835 v 15.86096 h -3.278949 v -13.21384 h -6.350919 v 13.21384 h -3.278943 v -15.86096 z"
         style="font-style:normal;font-variant:normal;font-weight:bold;font-stretch:normal;font-size:40px;line-height:1.20000005;font-family:Roboto;-inkscape-font-specification:'Roboto Bold';text-align:center;letter-spacing:0px;word-spacing:0px;text-anchor:middle;fill:#000000;fill-opacity:1;stroke:#000000;stroke-width:1.45677876;stroke-miterlimit:4;stroke-dasharray:none;stroke-opacity:1;paint-order:markers stroke fill"
         id="path1791"
         inkscape:connector-curvature="0" />
      <path
         d="m 48.572038,243.97835 h 10.621175 v 15.86096 h -3.268056 v -13.21384 h -4.226681 l -0.283235,5.79536 q -0.261444,4.16132 -1.459727,5.77355 -1.198288,1.61225 -3.714689,1.64493 h -0.915058 v -2.63624 l 0.446638,-0.0436 q 1.252752,-0.11983 1.797426,-1.32901 0.555573,-1.20918 0.718971,-4.3574 z"
         style="font-style:normal;font-variant:normal;font-weight:bold;font-stretch:normal;font-size:40px;line-height:1.20000005;font-family:Roboto;-inkscape-font-specification:'Roboto Bold';text-align:center;letter-spacing:0px;word-spacing:0px;text-anchor:middle;fill:#782121;fill-opacity:1;stroke:#000000;stroke-width:1.45677876;stroke-miterlimit:4;stroke-dasharray:none;stroke-opacity:1;paint-order:markers stroke fill"
         id="path1793"
         inkscape:connector-curvature="0" />
      <path
         d="m 60.925277,243.97835 5.904285,15.86096 h 3.028398 l 5.936964,-15.86096 H 72.309 l -1.089349,3.26805 H 65.47877 l -1.089354,-3.26805 z m 5.435866,5.91518 h 3.976128 l -1.982614,5.95875 z"
         style="font-style:normal;font-variant:normal;font-weight:bold;font-stretch:normal;font-size:40px;line-height:1.20000005;font-family:Roboto;-inkscape-font-specification:'Roboto Bold';text-align:center;letter-spacing:0px;word-spacing:0px;text-anchor:middle;fill:#c83737;fill-opacity:1;stroke:#000000;stroke-width:1.45677876;stroke-miterlimit:4;stroke-dasharray:none;stroke-opacity:1;paint-order:markers stroke fill"
         id="path1795"
         inkscape:connector-curvature="0" />
      <path
         d="m 85.620874,255.4819 4.063276,-11.50355 h 4.281156 v 15.86096 h -3.278949 v -4.33563 l 0.326806,-7.45115 -4.270257,11.78678 h -2.244065 l -4.270257,-11.78678 0.326807,7.45115 v 4.33563 h -3.278949 v -15.86096 h 4.281149 z"
         style="font-style:normal;font-variant:normal;font-weight:bold;font-stretch:normal;font-size:40px;line-height:1.20000005;font-family:Roboto;-inkscape-font-specification:'Roboto Bold';text-align:center;letter-spacing:0px;word-spacing:0px;text-anchor:middle;fill:#c87137;fill-opacity:1;stroke:#000000;stroke-width:1.45677876;stroke-miterlimit:4;stroke-dasharray:none;stroke-opacity:1;paint-order:markers stroke fill"
         id="path1797"
         inkscape:connector-curvature="0" />
      <path
         d="m 104.15074,259.83931 v -5.7191 h -2.65802 l -2.854101,5.7191 h -3.551286 l 3.409674,-6.76487 q -2.451045,-1.36169 -2.451045,-4.2049 0,-2.40746 1.568666,-3.64933 1.579564,-1.24186 4.292052,-1.24186 h 5.5339 v 15.86096 z m 0,-8.19192 v -5.02192 h -2.24406 q -2.592661,0 -2.592661,2.49462 0,2.47282 2.483721,2.5273 z"
         style="font-style:normal;font-variant:normal;font-weight:bold;font-stretch:normal;font-size:40px;line-height:1.20000005;font-family:Roboto;-inkscape-font-specification:'Roboto Bold';text-align:center;letter-spacing:0px;word-spacing:0px;text-anchor:middle;fill:#ffcc00;fill-opacity:1;stroke:#000000;stroke-width:1.45677876;stroke-miterlimit:4;stroke-dasharray:none;stroke-opacity:1;paint-order:markers stroke fill"
         id="path1799"
         inkscape:connector-curvature="0" />
      <path
         d="m 128.7374,252.26831 q 0,3.62755 -1.88458,5.70821 -1.87369,2.08066 -4.85851,2.08066 -2.98482,0 -4.88029,-2.08066 -1.89548,-2.08066 -1.89548,-5.70821 v -0.70807 q 0,-3.62754 1.88458,-5.7082 1.88459,-2.09156 4.8694,-2.09156 2.98482,0 4.86941,2.09156 1.89547,2.08066 1.89547,5.7082 z m -3.31163,-0.72986 q 0,-2.48372 -0.90417,-3.78005 -0.90415,-1.29632 -2.54908,-1.29632 -1.64492,0 -2.53818,1.28543 -0.89327,1.27454 -0.90417,3.73647 v 0.78433 q 0,2.47284 0.90417,3.79095 0.90416,1.30723 2.55997,1.30723 1.64492,0 2.52729,-1.29633 0.89327,-1.29633 0.90417,-3.74737 z"
         style="font-style:normal;font-variant:normal;font-weight:bold;font-stretch:normal;font-size:40px;line-height:1.20000005;font-family:Roboto;-inkscape-font-specification:'Roboto Bold';text-align:center;letter-spacing:0px;word-spacing:0px;text-anchor:middle;fill:#c83737;fill-opacity:1;stroke:#000000;stroke-width:1.45677876;stroke-miterlimit:4;stroke-dasharray:none;stroke-opacity:1;paint-order:markers stroke fill"
         id="path1801"
         inkscape:connector-curvature="0" />
      <path
         d="m 140.29541,254.55595 h 3.26806 q -0.1634,2.41836 -1.81922,3.96525 -1.64492,1.53598 -4.56439,1.53598 -3.05018,0 -4.80404,-2.04798 -1.75385,-2.05888 -1.75385,-5.57748 v -1.03489 q 0,-3.5186 1.79743,-5.57747 1.79743,-2.06977 4.79315,-2.06977 2.97393,0 4.55349,1.59046 1.57955,1.57955 1.80833,4.0197 h -3.26806 q -0.10894,-1.41616 -0.79523,-2.16782 -0.6754,-0.76254 -2.29853,-0.76254 -3.18091,0 -3.26806,4.69511 v 1.30722 q 0,2.46193 0.74077,3.7038 0.75165,1.24185 2.4946,1.24185 1.54689,0 2.26586,-0.69718 0.72986,-0.70807 0.84969,-2.12424 z"
         style="font-style:normal;font-variant:normal;font-weight:bold;font-stretch:normal;font-size:40px;line-height:1.20000005;font-family:Roboto;-inkscape-font-specification:'Roboto Bold';text-align:center;letter-spacing:0px;word-spacing:0px;text-anchor:middle;fill:#c87137;fill-opacity:1;stroke:#000000;stroke-width:1.45677876;stroke-miterlimit:4;stroke-dasharray:none;stroke-opacity:1;paint-order:markers stroke fill"
         id="path1803"
         inkscape:connector-curvature="0" />
      <path
         d="m 156.35245,259.83931 v -15.86096 h -10.61028 v 2.64712 h 7.33134 v 3.78006 h -6.26377 v 2.55997 h 6.26377 v 4.23757 h -7.36402 v 2.63624 z"
         style="font-style:normal;font-variant:normal;font-weight:bold;font-stretch:normal;font-size:40px;line-height:1.20000005;font-family:Roboto;-inkscape-font-specification:'Roboto Bold';text-align:center;letter-spacing:0px;word-spacing:0px;text-anchor:middle;fill:#ffcc00;fill-opacity:1;stroke:#000000;stroke-width:1.45677876;stroke-miterlimit:4;stroke-dasharray:none;stroke-opacity:1;paint-order:markers stroke fill"
         id="path1805"
         inkscape:connector-curvature="0" />
      <path
         d="m 167.91047,259.83931 v -6.79755 h -6.37271 v 6.79755 h -3.27895 v -15.86096 h 3.27895 v 6.42718 h 6.37271 v -6.42718 h 3.26806 v 15.86096 z"
         style="font-style:normal;font-variant:normal;font-weight:bold;font-stretch:normal;font-size:40px;line-height:1.20000005;font-family:Roboto;-inkscape-font-specification:'Roboto Bold';text-align:center;letter-spacing:0px;word-spacing:0px;text-anchor:middle;fill:#d3bc5f;fill-opacity:1;stroke:#000000;stroke-width:1.45677876;stroke-miterlimit:4;stroke-dasharray:none;stroke-opacity:1;paint-order:markers stroke fill"
         id="path1807"
         inkscape:connector-curvature="0" />
      <path
         d="m 177.20264,254.52327 6.34001,-10.54492 h 3.27895 v 15.86096 h -3.27895 v -10.54492 l -6.34001,10.54492 h -3.27895 v -15.86096 h 3.27895 z"
         style="font-style:normal;font-variant:normal;font-weight:bold;font-stretch:normal;font-size:40px;line-height:1.20000005;font-family:Roboto;-inkscape-font-specification:'Roboto Bold';text-align:center;letter-spacing:0px;word-spacing:0px;text-anchor:middle;fill:#abc837;fill-opacity:1;stroke:#000000;stroke-width:1.45677876;stroke-miterlimit:4;stroke-dasharray:none;stroke-opacity:1;paint-order:markers stroke fill"
         id="path1809"
         inkscape:connector-curvature="0" />
      <path
         inkscape:connector-curvature="0"
         id="path2798-18"
         d="m 64.891163,248.89127 1.60362,-1.5368 1.06908,1.26953 -1.20272,1.26953 z"
         style="fill:#ffffff;fill-opacity:1;stroke:none;stroke-width:0.26458332px;stroke-linecap:butt;stroke-linejoin:miter;stroke-opacity:1" />
      <path
         inkscape:connector-curvature="0"
         id="path2798-79"
         d="m 120.37198,258.90269 1.60362,-1.5368 1.06908,1.26953 -1.20272,1.26953 z"
         style="fill:#ffffff;fill-opacity:1;stroke:none;stroke-width:0.26458332px;stroke-linecap:butt;stroke-linejoin:miter;stroke-opacity:1" />
      <path
         inkscape:connector-curvature="0"
         id="path2798-20"
         d="m 168.37496,256.44584 1.60362,-1.5368 1.06908,1.26953 -1.20272,1.26953 z"
         style="fill:#ffffff;fill-opacity:1;stroke:none;stroke-width:0.26458332px;stroke-linecap:butt;stroke-linejoin:miter;stroke-opacity:1" />
      <path
         inkscape:connector-curvature="0"
         id="path2798-23"
         d="m 184.06097,246.99644 1.60362,-1.5368 1.06908,1.26953 -1.20272,1.26953 z"
         style="fill:#ffffff;fill-opacity:1;stroke:none;stroke-width:0.26458332px;stroke-linecap:butt;stroke-linejoin:miter;stroke-opacity:1" />
    </g>
    <g
       id="g29921"
       transform="translate(0,-2.1166665)">
      <path
         sodipodi:nodetypes="ccccccccccccccccccccccccccccccccccccccccccccccccccccccccccccccccccccccccccccccccccccccccccccccccccc"
         inkscape:connector-curvature="0"
         id="path826"
         d="m 36.020422,96.776232 c 2.376006,1.441686 4.196527,2.405887 5.790494,2.257356 3.181034,1.499692 5.129946,-0.927129 7.756845,-0.563938 0.07266,4.30127 1.49807,9.07748 4.767788,10.5033 2.047576,4.07334 5.922957,4.66658 8.317709,5.96904 0.05621,5.97762 0.27452,10.43907 2.670041,11.9104 1.510883,2.89751 3.528777,2.49761 5.697527,1.84375 3.378993,0.0101 7.660189,-3.32951 8.95422,-8.20042 0.700585,-1.11414 2.975562,-0.29755 2.146336,-3.84828 1.346761,-2.31294 2.209048,-4.88424 2.204253,-8.4364 1.383181,-3.39691 0.704691,-9.29371 -1.351248,-13.43627 0.404653,-2.643324 2.845739,-6.657576 2.766477,-11.600935 1.19358,-4.380965 0.598602,-9.021962 -2.766595,-12.414653 0.84902,-1.599821 2.78714,-4.334197 3.001906,-7.38931 1.777366,-2.595656 1.425443,-8.000789 -1.000596,-10.468547 0.954386,-1.924428 2.188735,-3.729649 2.540007,-5.61886 1.935948,-3.157267 2.349089,-6.582713 1.154723,-9.314003 1.313862,-0.501887 2.518176,0.553421 3.002148,-1.57805 1.134374,-0.545241 2.203805,-1.623832 3.30968,-2.424573 -0.09595,2.080777 0.217474,3.792696 1.243304,4.805881 0.462173,1.940144 3.680069,2.726503 5.530369,3.9691 -2.497406,1.664718 -3.408432,4.150334 -2.771051,6.465803 -0.518808,2.88245 1.518501,5.635438 2.463151,8.467059 -3.0613,2.255619 -4.143506,5.002918 -3.300419,7.615717 -0.485548,3.104327 1.983709,5.799628 2.838579,8.086881 -1.641543,2.822818 -2.637237,6.487796 -2.073292,9.144663 -0.469071,3.85198 0.447358,7.713307 2.503382,8.49054 1.0191,2.217071 3.74613,2.449359 5.1983,0.09177 1.95612,-2.066529 2.72627,-8.521404 2.22291,-19.112492 1.3694,-0.886962 3.6851,-3.026207 4.77242,-6.311981 3.5791,-4.223022 4.20105,-10.420861 2.1552,-13.701134 1.45002,-2.256524 3.32174,-4.279799 4.31058,-6.773822 4.04376,-3.23737 3.23165,-8.117119 2.46297,-11.238074 1.32898,0.01086 2.74068,0.193163 3.69467,-0.461781 1.63954,-0.153797 2.83404,-1.546518 4.15686,-2.462972 1.06533,1.527147 0.26408,2.78189 1.38536,3.001786 0.36531,0.81115 0.75231,2.192243 4.15645,3.617635 -3.21938,2.278104 -5.08041,6.309536 -5.08003,10.314512 -0.92526,3.601513 0.0512,7.362008 0.61573,10.62244 -2.48364,2.676843 -4.58454,5.645798 -4.31038,9.083023 -1.20032,3.301061 -0.37335,8.392267 -0.92398,12.469769 -2.56051,2.411723 -3.59945,7.938072 -2.98243,11.872865 -0.39551,5.686863 3.1623,9.084943 4.94447,4.867014 1.40136,-2.048406 2.614,-6.499801 3.88831,-14.122838 1.28325,-2.648445 4.09036,-5.253191 4.92593,-7.774508 1.93681,-2.549723 3.86934,-6.635572 2.92519,-11.006971 1.11111,-1.662639 2.93914,-3.110092 3.23289,-4.926365 3.36103,-3.720923 3.9856,-7.556958 2.46296,-10.314513 1.80649,-0.06634 3.84306,-0.37313 4.54836,-1.002701 0.57739,0 3.05571,-1.606163 4.53487,-2.384254 0.62941,1.530485 1.02847,2.953043 2.23187,4.233483 0.60011,1.737996 2.15532,2.674012 3.61848,3.618057 -3.57971,3.084539 -5.14664,6.328112 -5.08086,9.62163 -0.81397,2.6133 -0.13734,5.368292 -0.61584,8.08222 -3.18135,1.99071 -5.83969,4.535661 -5.46519,7.312302 -1.84748,3.314288 -1.16661,7.25834 -1.92416,10.853326 -2.41723,3.20557 -4.66449,7.186874 -4.58708,10.423542 -3.92017,5.441139 -1.26659,10.904259 -2.33121,11.872019 -0.0645,3.01129 8.93084,-1.52096 14.15399,-12.442832 1.87221,0.698695 4.3964,0.136582 6.02967,-2.150629 2.52415,-0.942704 3.71963,-4.725428 4.56182,-8.419395 1.52739,0.708965 3.69869,0.46492 5.26228,-3.064931 2.36373,-0.685266 3.88384,-5.970707 3.38949,-8.225762 1.04714,0.889303 2.32637,1.393316 3.33265,0.769074 1.51994,0.31311 2.69985,-1.137933 4.05669,-1.384922 0.0148,0.933 -0.42406,1.767395 0.24583,2.553898 -0.21508,2.098518 1.30163,2.97953 3.44883,3.450097 -3.55816,1.680517 -6.59504,3.872984 -7.09845,6.484298 -2.1214,2.667651 -1.83966,5.468094 -1.8303,7.524883 -3.53167,2.427539 -6.79989,5.336881 -7.31356,8.803721 -1.66892,0.13988 -1.02828,3.41001 -1.1534,5.05181 -5.13723,3.20073 -10.07653,7.92081 -10.24926,11.76636 -0.77994,1.40558 -1.36175,2.57488 -1.83576,3.93603 -1.1401,3.27379 -1.51823,6.95408 -1.69342,10.08353 -0.75524,2.64085 -0.19726,5.09105 -0.38481,7.77423 -1.59447,1.2165 -2.72457,2.32757 -3.77176,3.61786 -2.26084,2.78567 -3.65345,6.12063 -4.3158,9.04173 -1.08811,4.79881 -0.60992,9.1484 -1.76517,13.04987 -2.32632,-0.44568 -5.2734,-0.54543 -6.72567,1.97239 -2.00732,1.01073 -3.02814,2.62302 -4.43543,4.49318 -2.69372,2.2769 -4.11733,5.32319 -6.38868,7.54319 -5.12607,-0.5883 -11.147,-5.65007 -15.24088,-1.07742 -3.47346,-11.30431 -0.95841,-22.65556 -6.77348,-32.6368 5.2536,11.84952 -7.072897,24.0775 -4.156759,35.40785 -2.034914,-3.96198 -8.815704,-8.54129 -11.315107,-5.2342 -4.501282,-0.0962 -9.303,0.74039 -14.240099,1.23157 -1.548126,-2.97383 -2.116477,-7.44591 -4.464466,-8.92892 -1.04896,-2.84879 -3.824903,-6.3949 -6.465775,-9.15985 -1.790168,-3.35639 -5.782862,-5.17136 -10.4684,-7.46643 -0.367317,-2.1445 0.05893,-6.17851 -0.769735,-7.38946 1.303151,-2.16814 -0.285026,-4.34519 -0.674886,-6.28929 -0.207336,-1.47231 1.323726,-3.03459 -1.095504,-4.02516 -0.779665,-3.26253 -3.337383,-6.17284 -7.774325,-8.31314 -0.133305,-1.54491 0.771078,-3.56307 -0.153948,-5.69604 -0.111515,-1.66169 -0.323518,-3.71263 -1.110232,-5.48345 0.127253,-0.91024 1.387768,-0.85166 -0.39754,-3.35445 -1.110144,-3.9048 -4.711312,-8.21202 -9.422467,-10.71338 1.498526,-0.77843 2.779803,-1.43268 3.10097,-2.84241 1.206026,-0.52687 1.142241,-3.151806 1.363495,-4.854934 z"
         style="fill:#000000;fill-opacity:1;stroke:#000000;stroke-width:1.62899995;stroke-linecap:square;stroke-linejoin:miter;stroke-miterlimit:4;stroke-dasharray:none;stroke-dashoffset:0;stroke-opacity:1" />
      <path
         sodipodi:nodetypes="cscccsscc"
         inkscape:connector-curvature="0"
         id="path1156"
         d="m 103.85352,149.36836 c -2.51463,23.51715 0.70682,37.98831 0.7588,44.64925 0.14807,18.97053 -18.000585,14.01527 -18.000585,14.01527 1.422389,1.13645 -0.174191,4.04279 -1.966678,5.86576 0.465886,-0.16314 0.796214,-0.074 1.748963,-0.58894 5.02864,1.88406 21.30309,0.54 20.1402,-19.08365 -0.44056,-7.4345 -3.75199,-21.21186 -1.85453,-44.80546 0.0582,-0.724 -0.72565,0.69259 -0.82617,-0.0522 z"
         style="fill:#000000;stroke:none;stroke-width:0.21552585px;stroke-linecap:butt;stroke-linejoin:miter;stroke-opacity:1" />
      <path
         sodipodi:nodetypes="ccccc"
         id="path1219"
         d="m 126.07956,183.60215 c -10.31341,-9.68731 -10.63904,-22.38944 -20.77517,-32.5315 -0.5811,-0.60312 -1.01392,-0.85858 -0.55271,0.0755 4.92895,9.67152 2.75868,20.54682 6.087,31.37877 4.09388,-4.57266 10.11481,0.48891 15.24088,1.07721 z"
         style="fill:#abc837;fill-opacity:1;stroke:none;stroke-width:0.08145859;stroke-linecap:butt;stroke-linejoin:miter;stroke-miterlimit:4;stroke-dasharray:none;stroke-opacity:1"
         inkscape:connector-curvature="0" />
      <path
         sodipodi:nodetypes="ccccc"
         inkscape:connector-curvature="0"
         id="path1134"
         d="m 146.16953,142.65245 -0.36866,0.0551 c 0.92324,2.09645 2.83664,2.50025 3.90944,4.79428 -1.01332,-2.78501 -2.78951,-2.67204 -3.64963,-4.82213 z"
         style="fill:none;stroke:none;stroke-width:0.21552585px;stroke-linecap:butt;stroke-linejoin:miter;stroke-opacity:1" />
      <path
         id="path1365"
         d="m 130.39007,31.040993 c -0.52276,1.522321 -1.02766,3.046242 -1.51962,4.571084 1.10768,-0.174746 1.93241,-1.056733 2.90497,-1.569298 -1.12127,-0.219896 -0.32003,-1.474639 -1.38535,-3.001786 z"
         style="fill:#000000;fill-opacity:1;stroke:none;stroke-width:0.08145859;stroke-linecap:butt;stroke-linejoin:miter;stroke-miterlimit:4;stroke-dasharray:none;stroke-opacity:1"
         inkscape:connector-curvature="0" />
      <path
         id="path1363"
         d="m 130.39007,31.040993 c -1.32282,0.916454 -2.51732,2.309174 -4.15687,2.462972 0.50798,1.70571 0.88822,3.428661 1.72042,4.044898 0.77699,-2.171833 1.58735,-4.341172 2.43645,-6.50787 z"
         style="fill:#c83737;fill-opacity:1;stroke:none;stroke-width:0.08145859;stroke-linecap:butt;stroke-linejoin:miter;stroke-miterlimit:4;stroke-dasharray:none;stroke-opacity:1"
         inkscape:connector-curvature="0" />
      <path
         id="path1361"
         d="m 126.2332,33.503965 c -0.95399,0.654944 -2.36568,0.472634 -3.69466,0.461781 2.8122,2.27846 2.04728,6.788241 3.37601,9.521444 0.627,-1.904251 1.27833,-3.806883 1.95615,-5.707647 -1.08623,-1.119779 -1.21955,-2.778072 -1.6375,-4.275578 z"
         style="fill:#782121;fill-opacity:1;stroke:none;stroke-width:0.08145859;stroke-linecap:butt;stroke-linejoin:miter;stroke-miterlimit:4;stroke-dasharray:none;stroke-opacity:1"
         inkscape:connector-curvature="0" />
      <path
         id="path1359"
         d="m 122.53854,33.965746 c 0.76868,3.120955 1.58079,8.000704 -2.46297,11.238074 0.99009,2.714952 0.7529,7.662892 2.61156,8.817617 0.93511,-3.283577 1.93215,-6.563391 3.0001,-9.838418 -1.77496,-3.015659 -0.47704,-7.123235 -3.14869,-10.217273 z"
         style="fill:#782121;fill-opacity:1;stroke:none;stroke-width:0.08145859;stroke-linecap:butt;stroke-linejoin:miter;stroke-miterlimit:4;stroke-dasharray:none;stroke-opacity:1"
         inkscape:connector-curvature="0" />
      <path
         id="path1357"
         d="m 120.07557,45.20382 c -0.98884,2.494023 -2.8605,4.517386 -4.31052,6.773909 3.82926,3.380407 1.01839,9.583006 4.29409,11.907383 0.76621,-3.065135 1.5735,-6.128084 2.43688,-9.187631 -2.2571,-1.766116 -1.55216,-6.388326 -2.42045,-9.493661 z"
         style="fill:#782121;fill-opacity:1;stroke:none;stroke-width:0.08145859;stroke-linecap:butt;stroke-linejoin:miter;stroke-miterlimit:4;stroke-dasharray:none;stroke-opacity:1"
         inkscape:connector-curvature="0" />
      <path
         id="path1355"
         d="m 115.76505,51.977729 c 2.04585,3.280274 1.42384,9.478025 -2.15526,13.701047 1.4396,2.44812 2.3303,6.359901 4.23811,7.559402 0.63435,-2.845614 1.30357,-5.689493 2.00667,-8.531794 -3.46746,-2.868612 -0.74896,-8.950548 -4.08952,-12.728655 z"
         style="fill:#c83737;fill-opacity:1;stroke:none;stroke-width:0.08145859;stroke-linecap:butt;stroke-linejoin:miter;stroke-miterlimit:4;stroke-dasharray:none;stroke-opacity:1"
         inkscape:connector-curvature="0" />
      <path
         id="path1353"
         d="m 113.60979,65.678776 c -1.08732,3.285776 -3.4029,5.425165 -4.7723,6.31213 3.23749,3.770601 2.51352,10.273165 6.63037,12.609525 0.67794,-3.429052 1.38947,-6.85761 2.14389,-10.284203 -2.41666,-2.397974 -2.62438,-5.777663 -4.00196,-8.637452 z"
         style="fill:#c83737;fill-opacity:1;stroke:none;stroke-width:0.08145859;stroke-linecap:butt;stroke-linejoin:miter;stroke-miterlimit:4;stroke-dasharray:none;stroke-opacity:1"
         inkscape:connector-curvature="0" />
      <path
         id="path1351"
         d="m 108.83749,71.990906 c 0.50336,10.591087 -0.26691,17.045814 -2.22303,19.112343 2.00271,3.346477 1.30454,9.180871 5.77542,10.099411 0.91001,-5.178861 1.85544,-10.360653 2.86961,-15.541018 -5.01426,-3.039927 -3.39658,-9.118509 -6.422,-13.670736 z"
         style="fill:#c87137;fill-opacity:1;stroke:none;stroke-width:0.08145859;stroke-linecap:butt;stroke-linejoin:miter;stroke-miterlimit:4;stroke-dasharray:none;stroke-opacity:1"
         inkscape:connector-curvature="0" />
      <path
         sodipodi:nodetypes="ccccccccccccccccc"
         id="path1349"
         d="m 106.61446,91.103249 c -1.45217,2.357593 -4.1792,2.125305 -5.1983,-0.09177 -1.987626,3.123776 -1.569374,7.72061 -3.66015,9.282351 1.376404,6.33062 2.80481,12.45467 4.02259,18.37694 2.30582,-1.10225 2.90772,-3.58731 4.45911,-5.02991 -1.38739,1.90287 -1.38835,4.56552 -4.33956,5.61082 1.58418,7.77812 2.78398,15.20267 2.97792,22.26318 0.0587,1.21832 0.2832,0.58042 0.37307,0.027 0.75724,-3.86933 1.47341,-7.74656 2.16933,-11.6288 -1.28805,-1.53428 -1.259,-1.68541 -2.11064,-3.55029 0.90462,1.45085 1.23159,2.2337 2.22977,2.88645 0.80306,-4.49702 1.57773,-9.0026 2.34847,-13.51203 -4.40703,-3.78754 -6.09922,-8.9203 -7.92562,-13.73094 2.18168,5.86182 5.34143,10.70986 8.09148,12.76359 0.72603,-4.25032 1.45248,-8.50332 2.19777,-12.7598 -5.07578,-0.88565 -3.59763,-7.305526 -5.63524,-10.906795 z"
         style="fill:#ffcc00;fill-opacity:1;stroke:none;stroke-width:0.08145859;stroke-linecap:butt;stroke-linejoin:miter;stroke-miterlimit:4;stroke-dasharray:none;stroke-opacity:1"
         inkscape:connector-curvature="0" />
      <path
         id="path1347"
         d="m 101.41616,91.011483 c -2.056023,-0.777232 -2.972452,-4.63856 -2.503382,-8.49054 -1.202123,2.26513 -1.777762,5.046389 -3.479142,6.348751 0.669263,3.615125 1.403482,7.167048 2.158204,10.659691 1.870459,-1.022215 1.747658,-6.196726 3.82432,-8.517902 z"
         style="fill:#abc837;fill-opacity:1;stroke:none;stroke-width:0.08145859;stroke-linecap:butt;stroke-linejoin:miter;stroke-miterlimit:4;stroke-dasharray:none;stroke-opacity:1"
         inkscape:connector-curvature="0" />
      <path
         id="path1345"
         d="m 98.912778,82.520943 c -0.563946,-2.656867 0.431628,-6.321875 2.073172,-9.144696 -2.475713,1.267482 -4.537619,3.244535 -7.399017,3.850842 0.474871,3.692096 1.057992,7.325845 1.709052,10.89963 1.506037,-0.407643 2.337807,-4.016499 3.616793,-5.605776 z"
         style="fill:#c87137;fill-opacity:1;stroke:none;stroke-width:0.08145859;stroke-linecap:butt;stroke-linejoin:miter;stroke-miterlimit:4;stroke-dasharray:none;stroke-opacity:1"
         inkscape:connector-curvature="0" />
      <path
         id="path1343"
         d="m 100.98595,73.376247 c -0.85487,-2.287253 -3.324006,-4.982522 -2.838458,-8.086848 -1.820575,0.939365 -2.790107,2.588767 -5.46518,2.99926 0.201685,2.80123 0.483043,5.569733 0.825061,8.306586 3.32267,-0.608774 4.950256,-2.165865 7.478577,-3.218998 z"
         style="fill:#c83737;fill-opacity:1;stroke:none;stroke-width:0.08145859;stroke-linecap:butt;stroke-linejoin:miter;stroke-miterlimit:4;stroke-dasharray:none;stroke-opacity:1"
         inkscape:connector-curvature="0" />
      <path
         id="path1341"
         d="m 98.147492,65.289399 c -0.843088,-2.612801 0.238936,-5.360191 3.300238,-7.615809 -3.790262,0.580083 -5.03556,2.119919 -9.106807,2.763951 0.03492,2.447496 0.139032,4.871716 0.302241,7.272314 2.332248,0.07107 3.671479,-1.724282 5.504328,-2.420456 z"
         style="fill:#782121;fill-opacity:1;stroke:none;stroke-width:0.08145859;stroke-linecap:butt;stroke-linejoin:miter;stroke-miterlimit:4;stroke-dasharray:none;stroke-opacity:1"
         inkscape:connector-curvature="0" />
      <path
         id="path1339"
         d="m 101.44773,57.67359 c -0.94466,-2.831621 -2.98178,-5.584517 -2.46297,-8.466967 -2.532993,1.127362 -4.043435,3.193451 -6.513765,3.51745 -0.116172,2.38061 -0.159812,4.740114 -0.138069,7.078255 4.05868,-0.212107 5.85182,-2.076466 9.114804,-2.128738 z"
         style="fill:#782121;fill-opacity:1;stroke:none;stroke-width:0.08145859;stroke-linecap:butt;stroke-linejoin:miter;stroke-miterlimit:4;stroke-dasharray:none;stroke-opacity:1"
         inkscape:connector-curvature="0" />
      <path
         id="path1337"
         d="m 98.98476,49.206623 c -0.637381,-2.315469 0.273705,-4.801059 2.77111,-6.465776 -3.628216,0.616784 -4.793184,2.68164 -8.810043,3.742237 -0.196881,1.894711 -0.344197,3.776623 -0.444943,5.645346 2.458957,-0.08831 4.076956,-2.25794 6.483876,-2.921807 z"
         style="fill:#782121;fill-opacity:1;stroke:none;stroke-width:0.08145859;stroke-linecap:butt;stroke-linejoin:miter;stroke-miterlimit:4;stroke-dasharray:none;stroke-opacity:1"
         inkscape:connector-curvature="0" />
      <path
         id="path1335"
         d="m 101.75587,42.740847 c -1.8503,-1.242598 -5.068258,-2.028983 -5.530429,-3.969127 -0.800224,0.411755 -1.448847,0.919936 -2.414144,1.226645 -0.335115,2.035335 -0.606731,4.055731 -0.822956,6.062085 2.912225,-0.694508 5.057147,-2.917971 8.767529,-3.319603 z"
         style="fill:#782121;fill-opacity:1;stroke:none;stroke-width:0.08145859;stroke-linecap:butt;stroke-linejoin:miter;stroke-miterlimit:4;stroke-dasharray:none;stroke-opacity:1"
         inkscape:connector-curvature="0" />
      <path
         id="path1333"
         d="m 96.225441,38.77172 c -1.025832,-1.013185 -1.339439,-2.725197 -1.243485,-4.805974 -0.433432,1.934753 -0.805918,3.85637 -1.125196,5.765737 0.864886,-0.199466 1.580744,-0.637176 2.368681,-0.959763 z"
         style="fill:#000000;fill-opacity:1;stroke:none;stroke-width:0.08145859;stroke-linecap:butt;stroke-linejoin:miter;stroke-miterlimit:4;stroke-dasharray:none;stroke-opacity:1"
         inkscape:connector-curvature="0" />
      <path
         id="path1331"
         d="m 94.981956,33.965746 c -1.105874,0.800741 -2.175126,1.879425 -3.309499,2.424666 0.500341,1.734553 -0.06884,4.885739 1.429542,5.814146 0.501854,-2.716383 1.123026,-5.46209 1.879957,-8.238812 z"
         style="fill:#782121;fill-opacity:1;stroke:none;stroke-width:0.08145859;stroke-linecap:butt;stroke-linejoin:miter;stroke-miterlimit:4;stroke-dasharray:none;stroke-opacity:1"
         inkscape:connector-curvature="0" />
      <path
         id="path1329"
         d="m 91.672457,36.390412 c -0.483974,2.131471 -1.688348,1.07625 -3.002209,1.578137 2.23065,3.035596 1.039342,7.262965 3.495981,10.333876 0.22746,-1.851609 0.510361,-3.717613 0.847792,-5.596937 -1.826083,-1.431044 -0.926326,-4.297189 -1.341564,-6.315076 z"
         style="fill:#782121;fill-opacity:1;stroke:none;stroke-width:0.08145859;stroke-linecap:butt;stroke-linejoin:miter;stroke-miterlimit:4;stroke-dasharray:none;stroke-opacity:1"
         inkscape:connector-curvature="0" />
      <path
         id="path1327"
         d="m 88.670248,37.968549 c 1.194367,2.73129 0.781286,6.156649 -1.154662,9.313916 1.421492,2.105987 1.83469,6.16398 4.091623,6.972178 C 91.7147,52.61311 91.864174,50.960271 92.052151,49.297127 89.7897,46.348394 90.539832,41.366641 88.670248,37.968549 Z"
         style="fill:#000000;fill-opacity:1;stroke:none;stroke-width:0.08145859;stroke-linecap:butt;stroke-linejoin:miter;stroke-miterlimit:4;stroke-dasharray:none;stroke-opacity:1"
         inkscape:connector-curvature="0" />
      <path
         id="path1325"
         d="m 87.515586,47.282465 c -0.35127,1.889211 -1.585622,3.694398 -2.540007,5.618827 3.83313,1.920044 3.990464,7.29491 6.403476,9.754228 -0.02434,-2.599462 0.03703,-5.225378 0.197847,-7.878901 -2.888258,-1.242584 -2.650096,-5.043085 -4.061316,-7.494154 z"
         style="fill:#c83737;fill-opacity:1;stroke:none;stroke-width:0.08145859;stroke-linecap:butt;stroke-linejoin:miter;stroke-miterlimit:4;stroke-dasharray:none;stroke-opacity:1"
         inkscape:connector-curvature="0" />
      <path
         id="path1323"
         d="m 84.975579,52.901292 c 2.426039,2.467758 2.777963,7.872926 1.000597,10.46858 1.983437,2.461503 2.800239,6.432854 5.760264,7.63054 -0.176048,-2.339206 -0.293947,-4.699085 -0.341389,-7.081204 -2.652678,-2.907288 -3.011803,-8.720579 -6.419472,-11.017916 z"
         style="fill:#c83737;fill-opacity:1;stroke:none;stroke-width:0.08145859;stroke-linecap:butt;stroke-linejoin:miter;stroke-miterlimit:4;stroke-dasharray:none;stroke-opacity:1"
         inkscape:connector-curvature="0" />
      <path
         id="path1321"
         d="m 85.976176,63.369872 c -0.214766,3.055113 -2.152768,5.789515 -3.001789,7.389336 4.779041,1.850449 6.619306,10.294577 9.90914,10.611702 -0.447501,-3.130198 -0.816573,-6.296592 -1.078051,-9.50208 -3.574006,-1.624863 -3.815285,-5.71855 -5.8293,-8.498958 z"
         style="fill:#c87137;fill-opacity:1;stroke:none;stroke-width:0.08145859;stroke-linecap:butt;stroke-linejoin:miter;stroke-miterlimit:4;stroke-dasharray:none;stroke-opacity:1"
         inkscape:connector-curvature="0" />
      <path
         id="path1319"
         d="m 82.974387,70.759208 c 3.365197,3.392691 3.960058,8.033664 2.766478,12.414627 3.578162,2.549779 4.296872,9.806386 9.00073,9.115649 -0.641222,-3.310113 -1.232627,-6.65796 -1.733888,-10.048893 -4.281545,-0.796775 -5.16026,-9.038996 -10.03332,-11.481383 z"
         style="fill:#ffcc00;fill-opacity:1;stroke:none;stroke-width:0.08145859;stroke-linecap:butt;stroke-linejoin:miter;stroke-miterlimit:4;stroke-dasharray:none;stroke-opacity:1"
         inkscape:connector-curvature="0" />
      <path
         id="path1317"
         d="m 85.740865,83.173835 c 0.07926,4.94336 -2.361821,8.957611 -2.766478,11.600935 5.354437,1.501314 10.264288,12.74369 14.884755,12.23319 -0.975856,-4.40826 -1.961792,-8.869781 -2.862031,-13.412273 -6.135639,-0.49647 -5.517067,-7.01708 -9.256246,-10.421852 z"
         style="fill:#ffcc00;fill-opacity:1;stroke:none;stroke-width:0.08145859;stroke-linecap:butt;stroke-linejoin:miter;stroke-miterlimit:4;stroke-dasharray:none;stroke-opacity:1"
         inkscape:connector-curvature="0" />
      <path
         id="path1315"
         d="m 82.974387,94.77477 c 2.05594,4.14256 2.734429,10.03936 1.351249,13.43627 2.709239,1.29914 4.879341,3.77204 6.868623,6.4022 0.846562,-2.84967 -0.845139,-5.57251 -1.208124,-8.36172 0.531091,2.9548 2.618101,5.79985 1.582346,8.86518 3.206613,4.3121 5.995207,8.87051 9.907879,9.28361 -0.96132,-5.33281 -2.147161,-10.74585 -3.36549,-16.25158 -6.503541,-0.41516 -8.334991,-9.864578 -15.136483,-13.37396 z"
         style="fill:#c87137;fill-opacity:1;stroke:none;stroke-width:0.08145859;stroke-linecap:butt;stroke-linejoin:miter;stroke-miterlimit:4;stroke-dasharray:none;stroke-opacity:1"
         inkscape:connector-curvature="0" />
      <path
         id="path1313"
         d="m 84.325636,108.21104 c 0.0048,3.55216 -0.85733,6.1233 -2.204091,8.43623 3.067528,-0.40232 8.957069,3.79998 11.758366,2.9719 -2.745566,-3.87913 -5.119342,-8.59275 -9.554275,-11.40813 z"
         style="fill:#d3bc5f;fill-opacity:1;stroke:none;stroke-width:0.08145859;stroke-linecap:butt;stroke-linejoin:miter;stroke-miterlimit:4;stroke-dasharray:none;stroke-opacity:1"
         inkscape:connector-curvature="0" />
      <path
         sodipodi:nodetypes="ccccccccccccccccccccccccccccc"
         id="path1311"
         d="m 82.121545,116.64727 c 0.829225,3.55073 -1.445831,2.73418 -2.146417,3.84832 -1.294031,4.87091 -5.575434,8.21061 -8.954427,8.20051 -0.0035,8.1e-4 -0.007,0.002 -0.01052,0.003 2.681436,3.46922 6.547665,7.04299 9.517657,10.53761 l 2.382571,-3.70267 c -0.701325,1.35732 -1.382361,2.75496 -2.148943,3.98176 2.539382,3.03463 4.360478,6.00573 4.088676,8.79236 4.801447,1.0561 10.45014,1.44932 17.251238,1.04253 1.30048,-10e-4 0.77678,-0.47807 0.20004,-1.208 -1.12138,-1.47902 -2.370581,-2.85991 -3.687932,-4.1804 -3.535784,0.72911 -7.371155,0.0395 -11.239758,-1.35252 3.375288,0.737 8.630043,1.93276 10.670636,0.7897 -3.292315,-3.21249 -6.951565,-6.08535 -10.124243,-9.15058 -2.550665,0.75416 -5.289186,-0.55655 -7.94878,-1.0006 2.52602,0.26512 5.1394,1.25043 7.556876,0.62006 -3.849686,-3.79027 -6.904341,-7.90878 -7.556876,-13.35629 0.691565,4.11469 2.731918,7.41099 5.471915,10.44543 1.623186,-1.40941 1.174298,-4.27551 1.386185,-6.85347 0.0053,2.77125 0.594438,4.66283 -0.946715,7.33461 2.730131,2.91981 6.089524,5.6203 9.492399,8.60672 1.592456,-4.00372 0.508902,-8.71157 0.598169,-13.11087 0.235544,4.66166 1.761895,8.89668 -0.09682,13.55414 2.167742,1.9196 4.340944,3.96437 6.368224,6.26679 1.16046,1.51279 1.4908,1.32677 1.41394,-0.56792 0.0475,-6.70189 -0.74033,-13.48834 -1.93686,-20.40136 -3.273873,-0.75765 -5.468804,-2.93339 -7.421757,-5.58515 -2.417567,0.91665 -8.545661,-3.42305 -12.178474,-3.55365 z"
         style="fill:#abc837;fill-opacity:1;stroke:none;stroke-width:0.08145859;stroke-linecap:butt;stroke-linejoin:miter;stroke-miterlimit:4;stroke-dasharray:none;stroke-opacity:1"
         inkscape:connector-curvature="0" />
      <path
         id="path1309"
         d="m 131.77542,34.042779 c -1.00324,0.605916 -1.95777,1.819171 -3.00474,1.878695 -0.46128,1.435788 -0.91125,2.872389 -1.34704,4.310097 3.32031,0.529091 5.86238,-1.260319 8.50822,-2.571156 -3.40413,-1.425393 -3.79113,-2.806486 -4.15644,-3.617636 z"
         style="fill:#782121;fill-opacity:1;stroke:none;stroke-width:0.08145859;stroke-linecap:butt;stroke-linejoin:miter;stroke-miterlimit:4;stroke-dasharray:none;stroke-opacity:1"
         inkscape:connector-curvature="0" />
      <path
         id="path1307"
         d="m 135.93186,37.660415 c -2.51567,1.70106 -5.04508,3.395056 -8.67449,3.126387 -0.91668,3.046875 -1.77852,6.097682 -2.59304,9.15101 1.90648,0.01439 3.72975,-0.880853 5.4896,-1.660223 0.2153,-0.104749 0.44362,-0.206582 0.69792,-0.302663 -4.3e-4,-4.004975 1.86064,-8.036407 5.08001,-10.314511 z"
         style="fill:#c83737;fill-opacity:1;stroke:none;stroke-width:0.08145859;stroke-linecap:butt;stroke-linejoin:miter;stroke-miterlimit:4;stroke-dasharray:none;stroke-opacity:1"
         inkscape:connector-curvature="0" />
      <path
         id="path1305"
         d="m 130.85185,47.974926 c -0.23139,0.09689 -0.46433,0.199214 -0.69792,0.302663 -1.64425,0.79995 -2.38624,1.800602 -5.64409,2.241974 -0.87036,3.287075 -1.68824,6.576801 -2.46003,9.867886 2.48461,0.691822 5.22038,-1.673617 9.4179,-1.789876 -0.56458,-3.260433 -1.54112,-7.021133 -0.61586,-10.622647 z"
         style="fill:#782121;fill-opacity:1;stroke:none;stroke-width:0.08145859;stroke-linecap:butt;stroke-linejoin:miter;stroke-miterlimit:4;stroke-dasharray:none;stroke-opacity:1"
         inkscape:connector-curvature="0" />
      <path
         id="path1303"
         d="m 131.46771,58.597573 c -3.27289,0.412553 -6.38613,2.799095 -9.66078,2.84814 -0.62298,2.689569 -1.21663,5.37965 -1.78693,8.069592 2.42475,-0.200185 4.75682,-1.235399 7.13719,-1.834916 -0.27417,-3.437226 1.82688,-6.405972 4.31052,-9.082816 z"
         style="fill:#c83737;fill-opacity:1;stroke:none;stroke-width:0.08145859;stroke-linecap:butt;stroke-linejoin:miter;stroke-miterlimit:4;stroke-dasharray:none;stroke-opacity:1"
         inkscape:connector-curvature="0" />
      <path
         id="path1301"
         d="m 127.15719,67.680389 c -2.47568,0.975778 -4.59514,1.713891 -7.35903,2.881815 -0.71789,3.422392 -1.39877,6.843948 -2.05297,10.263156 3.12629,0.665607 5.63184,-0.530447 8.48801,-0.675202 0.55064,-4.077501 -0.27634,-9.168708 0.92399,-12.469769 z"
         style="fill:#c87137;fill-opacity:1;stroke:none;stroke-width:0.08145859;stroke-linecap:butt;stroke-linejoin:miter;stroke-miterlimit:4;stroke-dasharray:none;stroke-opacity:1"
         inkscape:connector-curvature="0" />
      <path
         id="path1299"
         d="m 126.2332,80.150158 c -2.89434,0.614594 -5.74839,1.909764 -8.68964,1.726733 -0.8074,4.253638 -1.57236,8.501483 -2.32238,12.742966 2.92781,0.371698 5.40993,-1.876426 8.0296,-2.596834 -0.61702,-3.934793 0.42192,-9.461141 2.98242,-11.872865 z"
         style="fill:#ffcc00;fill-opacity:1;stroke:none;stroke-width:0.08145859;stroke-linecap:butt;stroke-linejoin:miter;stroke-miterlimit:4;stroke-dasharray:none;stroke-opacity:1"
         inkscape:connector-curvature="0" />
      <path
         sodipodi:nodetypes="ccccccccccccccccccc"
         id="path1297"
         d="m 123.25078,92.023023 c -2.66001,1.077612 -5.30689,3.801951 -8.19924,3.551548 -0.87962,4.990349 -1.73805,9.967529 -2.60609,14.929369 4.64814,-0.66916 7.87262,-3.31968 10.95982,-5.4496 -3.76247,3.63233 -6.17905,4.84342 -11.12483,6.38874 -0.78601,4.48286 -1.58125,8.95347 -2.41415,13.40302 5.31393,-0.66675 5.79885,-1.69821 8.09611,-2.59263 -2.25974,1.80503 -5.16938,2.63482 -8.22029,3.25309 -1.27179,6.7618 -2.62918,13.47971 -4.16125,20.13753 -0.28787,1.27659 -0.0186,1.60766 0.83843,0.62308 1.37934,-1.56358 2.73517,-3.21228 4.06832,-4.93587 -1.44662,-1.61858 -0.97133,-3.77094 -1.3424,-5.68828 0.5352,1.74987 0.2018,3.75499 1.70063,5.22144 3.6466,-4.76641 7.11984,-10.09719 10.42522,-15.81252 -2.71284,-3.93845 -2.52758,-8.46959 -3.15838,-12.99637 0.8331,4.14745 0.54358,8.58173 3.44042,12.50807 3.14498,-5.47444 6.13781,-11.29234 8.98221,-17.2989 -3.31234,-3.76292 -0.0123,-7.12872 -2.34006,-10.374703 -1.78219,4.217923 -5.33998,0.819849 -4.94447,-4.867014 z"
         style="fill:#abc837;fill-opacity:1;stroke:none;stroke-width:0.08145859;stroke-linecap:butt;stroke-linejoin:miter;stroke-miterlimit:4;stroke-dasharray:none;stroke-opacity:1"
         inkscape:connector-curvature="0" />
      <path
         id="path1295"
         d="m 128.19525,96.890037 c 2.5764,2.901857 0.12286,6.722993 2.6023,9.821153 1.30629,-2.7726 2.57739,-5.58632 3.82138,-8.421083 -1.30396,-4.912614 0.25776,-9.983305 -2.53537,-15.522908 -1.27431,7.623035 -2.48696,12.074424 -3.88831,14.122838 z"
         style="fill:#c83737;fill-opacity:1;stroke:none;stroke-width:0.08145859;stroke-linecap:butt;stroke-linejoin:miter;stroke-miterlimit:4;stroke-dasharray:none;stroke-opacity:1"
         inkscape:connector-curvature="0" />
      <path
         id="path1293"
         d="m 132.08356,82.767199 c 3.54469,5.034375 1.56632,10.27357 3.00599,14.450335 1.78978,-4.112398 3.51421,-8.267877 5.17599,-12.423468 -1.4555,-3.212437 -1.13694,-6.602242 -3.25604,-9.801375 -0.83557,2.521317 -3.64269,5.126059 -4.92594,7.774508 z"
         style="fill:#ffcc00;fill-opacity:1;stroke:none;stroke-width:0.08145859;stroke-linecap:butt;stroke-linejoin:miter;stroke-miterlimit:4;stroke-dasharray:none;stroke-opacity:1"
         inkscape:connector-curvature="0" />
      <path
         id="path1291"
         d="m 137.0095,74.992691 c 2.45158,2.302472 2.00815,6.188813 3.59111,8.96074 1.06991,-2.68901 2.11494,-5.375036 3.13228,-8.04728 -4.19499,-3.374995 -1.39885,-8.275672 -3.79822,-11.920431 0.94416,4.371399 -0.98837,8.457249 -2.92517,11.006971 z"
         style="fill:#782121;fill-opacity:1;stroke:none;stroke-width:0.08145859;stroke-linecap:butt;stroke-linejoin:miter;stroke-miterlimit:4;stroke-dasharray:none;stroke-opacity:1"
         inkscape:connector-curvature="0" />
      <path
         id="path1289"
         d="m 139.93467,63.98572 c 2.56356,3.423576 0.28618,9.181834 4.03606,11.298268 0.94437,-2.488279 1.86454,-4.961297 2.76395,-7.412068 -1.08491,-2.362976 -1.41622,-6.334178 -3.56712,-8.812566 -0.29374,1.816273 -2.12177,3.263726 -3.23289,4.926366 z"
         style="fill:#c83737;fill-opacity:1;stroke:none;stroke-width:0.08145859;stroke-linecap:butt;stroke-linejoin:miter;stroke-miterlimit:4;stroke-dasharray:none;stroke-opacity:1"
         inkscape:connector-curvature="0" />
      <path
         id="path1287"
         d="m 143.16756,59.059354 c 2.526,2.288324 2.42504,5.428204 3.82432,8.109161 0.80619,-2.203073 1.59424,-4.385033 2.36447,-6.540285 -3.27097,-3.24225 -0.42001,-7.351372 -3.72582,-11.883388 1.52264,2.757555 0.89806,6.593588 -2.46297,10.314512 z"
         style="fill:#782121;fill-opacity:1;stroke:none;stroke-width:0.08145859;stroke-linecap:butt;stroke-linejoin:miter;stroke-miterlimit:4;stroke-dasharray:none;stroke-opacity:1"
         inkscape:connector-curvature="0" />
      <path
         id="path1285"
         d="m 145.63053,48.744842 c 3.28114,3.722124 0.87653,8.647592 3.8117,11.516321 0.0156,0.01528 0.023,0.02854 0.0303,0.0421 0.92391,-2.587938 1.81803,-5.125713 2.69071,-7.619597 -1.49524,-0.787692 -1.47272,-3.314751 -1.98436,-4.941519 -0.7053,0.629571 -2.74187,0.93636 -4.54835,1.002701 z"
         style="fill:#782121;fill-opacity:1;stroke:none;stroke-width:0.08145859;stroke-linecap:butt;stroke-linejoin:miter;stroke-miterlimit:4;stroke-dasharray:none;stroke-opacity:1"
         inkscape:connector-curvature="0" />
      <path
         id="path1283"
         d="m 150.17888,47.742142 c 0.51485,1.56799 0.68524,3.662124 1.98562,4.93773 0.29574,-0.845128 0.58566,-1.674848 0.87557,-2.507171 -0.007,-0.0015 -0.0133,-0.0023 -0.0198,-0.0038 0.007,0.0014 0.0137,0.002 0.0202,0.0033 0.0336,-0.09649 0.0658,-0.189932 0.0993,-0.286245 0.52691,-1.567094 1.0501,-3.079894 1.57393,-4.528148 -1.47917,0.77809 -3.9575,2.384255 -4.53489,2.384255 z"
         style="fill:#c83737;fill-opacity:1;stroke:none;stroke-width:0.08145859;stroke-linecap:butt;stroke-linejoin:miter;stroke-miterlimit:4;stroke-dasharray:none;stroke-opacity:1"
         inkscape:connector-curvature="0" />
      <path
         id="path1281"
         d="m 154.71377,45.357887 c -0.51109,1.475542 -1.0434,3.004305 -1.57393,4.528148 -0.0322,0.09566 -0.0642,0.190995 -0.0964,0.287087 1.27766,0.251199 2.24062,0.05159 3.07082,-0.247097 0.27723,-0.103293 0.5503,-0.218635 0.83137,-0.334655 -1.2034,-1.280439 -1.60247,-2.702998 -2.23187,-4.233483 z"
         style="fill:#782121;fill-opacity:1;stroke:none;stroke-width:0.08145859;stroke-linecap:butt;stroke-linejoin:miter;stroke-miterlimit:4;stroke-dasharray:none;stroke-opacity:1"
         inkscape:connector-curvature="0" />
      <path
         id="path1279"
         d="m 156.94564,49.59137 c -0.26577,0.113868 -0.54072,0.230082 -0.83137,0.334655 -0.82709,0.308145 -1.85048,0.549619 -3.07714,0.320763 -0.05,-0.0094 0.0577,-0.06285 0.007,-0.07366 -0.61355,1.831054 -1.23814,3.757764 -1.87238,5.736692 3.70635,0.362766 5.00978,-2.266243 9.39306,-2.700387 -1.46317,-0.944044 -3.01837,-1.88006 -3.61848,-3.618057 z"
         style="fill:#000000;fill-opacity:1;stroke:none;stroke-width:0.08145859;stroke-linecap:butt;stroke-linejoin:miter;stroke-miterlimit:4;stroke-dasharray:none;stroke-opacity:1"
         inkscape:connector-curvature="0" />
      <path
         id="path1277"
         d="m 160.56412,53.209427 c -6.4113,1.61304 -4.58909,3.182739 -9.45915,2.908335 -0.78632,2.455601 -1.60383,5.030142 -2.4516,7.689053 2.08274,-1.545042 4.40907,-1.396798 6.82989,-0.975758 -0.0657,-3.29352 1.50115,-6.537091 5.08086,-9.62163 z"
         style="fill:#782121;fill-opacity:1;stroke:none;stroke-width:0.08145859;stroke-linecap:butt;stroke-linejoin:miter;stroke-miterlimit:4;stroke-dasharray:none;stroke-opacity:1"
         inkscape:connector-curvature="0" />
      <path
         id="path1275"
         d="m 155.48326,62.831057 c -3.86443,-0.02693 -4.49112,-0.266937 -6.97133,1.419018 -0.75449,2.363607 -1.53014,4.773928 -2.35774,7.277366 3.78716,1.303688 5.73783,-1.599104 8.71323,-0.614164 0.4785,-2.71393 -0.19812,-5.468921 0.61584,-8.08222 z"
         style="fill:#782121;fill-opacity:1;stroke:none;stroke-width:0.08145859;stroke-linecap:butt;stroke-linejoin:miter;stroke-miterlimit:4;stroke-dasharray:none;stroke-opacity:1"
         inkscape:connector-curvature="0" />
      <path
         id="path1273"
         d="m 154.86742,70.913277 c -2.79941,-0.580423 -5.73517,2.553651 -8.89971,1.18034 -0.80543,2.427076 -1.65591,4.920121 -2.55136,7.460477 2.62887,0.60793 3.86226,-1.18442 5.98588,-1.328515 -0.3745,-2.77664 2.28384,-5.321593 5.46519,-7.312302 z"
         style="fill:#782121;fill-opacity:1;stroke:none;stroke-width:0.08145859;stroke-linecap:butt;stroke-linejoin:miter;stroke-miterlimit:4;stroke-dasharray:none;stroke-opacity:1"
         inkscape:connector-curvature="0" />
      <path
         id="path1271"
         d="m 149.40223,78.225579 c -2.09571,0.598775 -3.04305,2.59197 -6.19258,1.911109 -1.37556,3.881325 -2.86374,7.878239 -4.51004,11.973893 3.88623,-0.410655 6.13604,-2.957524 8.77846,-3.031676 0.75756,-3.594986 0.0767,-7.539038 1.92416,-10.853326 z"
         style="fill:#c83737;fill-opacity:1;stroke:none;stroke-width:0.08145859;stroke-linecap:butt;stroke-linejoin:miter;stroke-miterlimit:4;stroke-dasharray:none;stroke-opacity:1"
         inkscape:connector-curvature="0" />
      <path
         id="path1269"
         d="m 147.47807,89.078905 c -2.62822,0.708421 -5.56566,3.262094 -8.98851,3.551548 -1.54261,3.814894 -3.21896,7.709007 -5.05686,11.661127 3.74608,-0.0165 5.77505,-3.72101 9.45829,-4.789141 -0.0774,-3.23666 2.16985,-7.217964 4.58708,-10.423534 z"
         style="fill:#d3bc5f;fill-opacity:1;stroke:none;stroke-width:0.08145859;stroke-linecap:butt;stroke-linejoin:miter;stroke-miterlimit:4;stroke-dasharray:none;stroke-opacity:1"
         inkscape:connector-curvature="0" />
      <path
         sodipodi:nodetypes="cccccccccccccccccccccc"
         id="path1267"
         d="m 142.89099,99.502439 c -3.22971,2.096431 -6.33072,6.220131 -9.81989,5.564951 -2.38447,5.07824 -5.03968,10.24892 -8.02202,15.46482 4.97424,0.60574 7.94555,-1.50697 11.96042,-2.20325 -4.15917,0.98308 -7.40023,3.39995 -12.4302,3.02242 -3.12683,5.41071 -6.6108,10.86776 -10.51741,16.31892 2.16565,0.55684 3.89468,-0.41412 5.85961,-0.55985 -2.05626,0.2996 -3.7113,1.48227 -6.14375,0.95428 -2.16408,3.00379 -4.45604,6.00551 -6.88891,8.99635 -1.5093,1.56125 -1.28051,1.70915 0.85543,0.89309 1.2383,-0.47373 2.45067,-0.96431 3.63912,-1.47046 0.50832,-2.13665 1.66788,-4.30299 3.20469,-6.4864 -1.18202,2.06025 -2.23624,4.12055 -2.49455,6.1808 3.22026,-1.40037 6.25877,-2.91904 9.13754,-4.54373 0.0184,-2.89093 -0.0202,-5.76765 1.08563,-8.93043 -0.66699,2.86725 -0.8476,5.73443 -0.50851,8.60167 3.26869,-1.8746 6.33145,-3.88552 9.22172,-6.01326 -0.89863,-4.80372 0.66872,-8.13084 0.89958,-12.11406 -0.0988,3.8639 -1.31179,7.7974 -0.18859,11.58493 2.65785,-1.99357 5.17129,-4.0851 7.56487,-6.26035 -2.76071,-5.84642 1.15821,-10.97424 1.25401,-17.12841 1.06461,-0.96776 -1.58895,-6.43088 2.33121,-11.872031 z"
         style="fill:#ffcc00;fill-opacity:1;stroke:none;stroke-width:0.08145859;stroke-linecap:butt;stroke-linejoin:miter;stroke-miterlimit:4;stroke-dasharray:none;stroke-opacity:1"
         inkscape:connector-curvature="0" />
      <path
         id="path1265"
         d="m 149.40644,60.488054 c -0.0246,0.03149 -0.042,0.06582 -0.0379,0.1065 0.0127,-0.03559 0.0252,-0.07092 0.0379,-0.1065 z"
         style="fill:#782121;fill-opacity:1;stroke:none;stroke-width:0.08145859;stroke-linecap:butt;stroke-linejoin:miter;stroke-miterlimit:4;stroke-dasharray:none;stroke-opacity:1"
         inkscape:connector-curvature="0" />
      <path
         id="path1263"
         d="m 146.96789,67.17609 c -0.0266,0.01405 -0.0439,0.102942 -0.0581,0.216789 0.0261,-0.07115 0.0519,-0.141887 0.0779,-0.212999 -0.007,-0.0051 -0.0133,-0.0071 -0.0198,-0.0038 z"
         style="fill:#782121;fill-opacity:1;stroke:none;stroke-width:0.08145859;stroke-linecap:butt;stroke-linejoin:miter;stroke-miterlimit:4;stroke-dasharray:none;stroke-opacity:1"
         inkscape:connector-curvature="0" />
      <path
         id="path1261"
         d="m 181.34637,76.455069 c -0.60172,0.916556 -1.19322,1.812178 -1.78567,2.709647 0.76543,0.362737 1.37568,-0.135768 2.0315,-0.155749 -0.6699,-0.786502 -0.23101,-1.620899 -0.24583,-2.553898 z"
         style="fill:#782121;fill-opacity:1;stroke:none;stroke-width:0.08145859;stroke-linecap:butt;stroke-linejoin:miter;stroke-miterlimit:4;stroke-dasharray:none;stroke-opacity:1"
         inkscape:connector-curvature="0" />
      <path
         id="path1259"
         d="m 181.34637,76.455069 c -1.35683,0.246986 -2.53675,1.698033 -4.05669,1.384922 0.30588,0.846415 0.43224,1.767348 0.94546,2.527377 1.02237,-1.309789 2.05479,-2.615857 3.11123,-3.912299 z"
         style="fill:#000000;fill-opacity:1;stroke:none;stroke-width:0.08145859;stroke-linecap:butt;stroke-linejoin:miter;stroke-miterlimit:4;stroke-dasharray:none;stroke-opacity:1"
         inkscape:connector-curvature="0" />
      <path
         id="path1257"
         d="m 177.28968,77.839991 c -1.00628,0.624242 -2.28552,0.120229 -3.33265,-0.769074 0.85687,2.433399 0.58892,4.965155 1.58655,6.793694 0.8194,-1.081906 1.64984,-2.160105 2.4874,-3.235834 -0.46092,-0.837921 -0.51619,-1.849679 -0.7413,-2.788786 z"
         style="fill:#782121;fill-opacity:1;stroke:none;stroke-width:0.08145859;stroke-linecap:butt;stroke-linejoin:miter;stroke-miterlimit:4;stroke-dasharray:none;stroke-opacity:1"
         inkscape:connector-curvature="0" />
      <path
         id="path1255"
         d="m 173.95703,77.070917 c 0.49435,2.255055 -1.02575,7.540498 -3.38949,8.225762 0.58315,1.487262 -0.16128,3.834817 0.24626,4.933943 1.44641,-1.976776 2.90581,-3.952615 4.39176,-5.921067 -0.9467,-2.352692 -0.64535,-4.683131 -1.24853,-7.238638 z"
         style="fill:#782121;fill-opacity:1;stroke:none;stroke-width:0.08145859;stroke-linecap:butt;stroke-linejoin:miter;stroke-miterlimit:4;stroke-dasharray:none;stroke-opacity:1"
         inkscape:connector-curvature="0" />
      <path
         id="path1253"
         d="m 170.56754,85.296679 c -1.56358,3.529855 -3.7349,3.773896 -5.26228,3.064931 1.31172,4.105465 -1.84152,6.765818 0.19406,9.174158 1.62987,-2.241081 3.26016,-4.492249 4.9049,-6.744021 -0.51703,-1.535093 0.46462,-3.473832 0.16332,-5.495068 z"
         style="fill:#c83737;fill-opacity:1;stroke:none;stroke-width:0.08145859;stroke-linecap:butt;stroke-linejoin:miter;stroke-miterlimit:4;stroke-dasharray:none;stroke-opacity:1"
         inkscape:connector-curvature="0" />
      <path
         id="path1251"
         d="m 165.30526,88.36161 c -0.8422,3.693968 -2.03766,7.476691 -4.56182,8.419395 0.0858,2.316438 -1.13366,4.804505 0.19785,6.957025 1.36235,-1.8289 2.71396,-3.6708 4.06174,-5.521586 -2.05533,-2.881638 1.32157,-6.424453 0.30223,-9.854834 z"
         style="fill:#782121;fill-opacity:1;stroke:none;stroke-width:0.08145859;stroke-linecap:butt;stroke-linejoin:miter;stroke-miterlimit:4;stroke-dasharray:none;stroke-opacity:1"
         inkscape:connector-curvature="0" />
      <path
         id="path1249"
         d="m 160.74344,96.781005 c -1.63327,2.287219 -4.15748,2.849324 -6.02967,2.150629 1.60362,4.413586 -3.10379,9.938246 -1.17824,14.356466 2.34032,-2.86693 4.6005,-5.79927 6.82443,-8.77005 -0.99966,-2.15579 0.23036,-5.14856 0.38348,-7.737045 z"
         style="fill:#ffcc00;fill-opacity:1;stroke:none;stroke-width:0.08145859;stroke-linecap:butt;stroke-linejoin:miter;stroke-miterlimit:4;stroke-dasharray:none;stroke-opacity:1"
         inkscape:connector-curvature="0" />
      <path
         id="path1247"
         d="m 154.71377,98.931634 c -5.06434,10.589776 -13.67448,15.172216 -14.13463,12.696246 0.42425,5.51422 -3.51426,11.19835 -0.58343,16.24442 4.67774,-4.32279 8.90491,-8.96146 12.89114,-13.79281 -2.10717,-3.84923 2.6365,-10.35949 1.82692,-15.147856 z"
         style="fill:#d3bc5f;fill-opacity:1;stroke:none;stroke-width:0.08145859;stroke-linecap:butt;stroke-linejoin:miter;stroke-miterlimit:4;stroke-dasharray:none;stroke-opacity:1"
         inkscape:connector-curvature="0" />
      <path
         id="path1245"
         d="m 181.5922,79.008967 c -0.81268,0.267094 -1.32628,0.782515 -2.20283,0.415475 -0.66903,1.01289 -1.33098,2.009677 -1.98898,2.998419 2.54688,0.790032 5.09374,0.01166 7.64064,0.0362 -2.14721,-0.470568 -3.66391,-1.351578 -3.44883,-3.450097 z"
         style="fill:#782121;fill-opacity:1;stroke:none;stroke-width:0.08145859;stroke-linecap:butt;stroke-linejoin:miter;stroke-miterlimit:4;stroke-dasharray:none;stroke-opacity:1"
         inkscape:connector-curvature="0" />
      <path
         id="path1243"
         d="m 185.04103,82.459064 c -2.66461,0.126627 -4.71851,1.291161 -7.95761,0.441153 -1.4545,2.182718 -2.88307,4.304288 -4.29031,6.370642 1.80987,0.782812 3.22094,-0.593521 5.14946,-0.327497 0.50341,-2.611312 3.5403,-4.803781 7.09846,-6.484298 z"
         style="fill:#782121;fill-opacity:1;stroke:none;stroke-width:0.08145859;stroke-linecap:butt;stroke-linejoin:miter;stroke-miterlimit:4;stroke-dasharray:none;stroke-opacity:1"
         inkscape:connector-curvature="0" />
      <path
         id="path1241"
         d="m 177.94257,88.943362 c -1.46463,0.169942 -3.38088,1.408784 -5.44455,0.761075 -1.36266,1.997347 -2.70637,3.940003 -4.03311,5.830561 2.30492,1.814727 4.70388,-0.570031 7.64737,0.933247 -0.009,-2.056788 -0.29111,-4.857232 1.83029,-7.524883 z"
         style="fill:#782121;fill-opacity:1;stroke:none;stroke-width:0.08145859;stroke-linecap:butt;stroke-linejoin:miter;stroke-miterlimit:4;stroke-dasharray:none;stroke-opacity:1"
         inkscape:connector-curvature="0" />
      <path
         id="path1239"
         d="m 176.11228,96.468245 c -2.81416,-0.587072 -4.50859,0.965349 -8.15882,-0.205422 -1.44023,2.043796 -2.86314,4.024727 -4.2718,5.945487 1.8739,1.58248 3.63424,1.18151 5.11706,3.06366 0.51368,-3.46684 3.78189,-6.376186 7.31356,-8.803725 z"
         style="fill:#c83737;fill-opacity:1;stroke:none;stroke-width:0.08145859;stroke-linecap:butt;stroke-linejoin:miter;stroke-miterlimit:4;stroke-dasharray:none;stroke-opacity:1"
         inkscape:connector-curvature="0" />
      <path
         id="path1237"
         d="m 168.79872,105.27197 c -1.77143,-1.55787 -4.08815,-1.24582 -5.66008,-2.32237 -1.64583,2.2312 -3.27654,4.38814 -4.89606,6.45609 3.0848,2.09142 6.32151,-0.0793 9.40274,0.91809 0.12511,-1.6418 -0.51551,-4.91192 1.1534,-5.05181 z"
         style="fill:#c87137;fill-opacity:1;stroke:none;stroke-width:0.08145859;stroke-linecap:butt;stroke-linejoin:miter;stroke-miterlimit:4;stroke-dasharray:none;stroke-opacity:1"
         inkscape:connector-curvature="0" />
      <path
         id="path1235"
         d="m 167.64532,110.32378 c -3.72357,-0.33936 -6.62938,1.5492 -9.88557,-0.30603 -4.11544,5.21996 -8.17825,9.92285 -12.32201,14.15062 3.36324,1.07108 7.4646,-2.11399 11.95832,-2.07823 0.17273,-3.84555 5.11202,-8.56563 10.24926,-11.76636 z"
         style="fill:#ffcc00;fill-opacity:1;stroke:none;stroke-width:0.08145859;stroke-linecap:butt;stroke-linejoin:miter;stroke-miterlimit:4;stroke-dasharray:none;stroke-opacity:1"
         inkscape:connector-curvature="0" />
      <path
         id="path1233"
         d="m 157.39606,122.09014 c -1.74985,0.14943 -3.49042,0.87921 -5.21009,1.58235 0.69848,1.38641 2.26832,1.54244 3.37433,2.35353 0.47401,-1.36115 1.05582,-2.5303 1.83576,-3.93588 z"
         style="fill:#000000;fill-opacity:1;stroke:none;stroke-width:0.08145859;stroke-linecap:butt;stroke-linejoin:miter;stroke-miterlimit:4;stroke-dasharray:none;stroke-opacity:1"
         inkscape:connector-curvature="0" />
      <path
         id="path1231"
         d="m 155.5603,126.02602 c -1.24721,-0.71819 -3.02678,-0.85233 -3.66983,-2.23314 -2.3851,0.96956 -4.72749,1.82029 -6.99197,0.92272 -3.23804,3.26583 -6.52962,6.24522 -9.93818,8.95695 5.86831,2.70759 9.591,-1.14625 14.44191,-0.68025 -4.88683,0.17635 -10.07477,4.49772 -15.06492,1.17024 -3.0145,2.35962 -6.12367,4.51335 -9.36989,6.47545 2.35557,1.77913 4.70885,2.35667 7.24789,2.44235 1.15659,-2.43392 3.40393,-3.51492 5.10232,-5.27702 -1.46056,1.78049 -3.73989,2.74214 -4.43427,5.28881 2.80546,0.005 5.85237,-0.50162 9.388,-0.61543 1.94898,-4.28927 8.0969,-3.61315 11.59546,-6.36685 0.1752,-3.12945 0.55338,-6.81005 1.69348,-10.08383 z"
         style="fill:#abc837;fill-opacity:1;stroke:none;stroke-width:0.08145859;stroke-linecap:butt;stroke-linejoin:miter;stroke-miterlimit:4;stroke-dasharray:none;stroke-opacity:1"
         inkscape:connector-curvature="0" />
      <path
         id="path1229"
         d="m 153.86682,136.10985 c -3.0958,2.88556 -9.57245,2.51475 -10.83859,6.34917 2.52536,-0.0373 5.29802,0.15078 8.40424,0.87894 -5.17065,-1.08053 -10.8082,-0.19264 -15.75064,0.20458 1.56708,3.3169 5.58491,3.57426 7.02395,9.65531 -2.29731,-6.74798 -6.05361,-6.1566 -7.51731,-9.61742 -4.59932,0.33977 -8.55071,0.17399 -10.88448,-2.54212 -2.8349,1.68095 -5.77769,3.21683 -8.85339,4.6195 1.00624,2.84741 2.8841,4.83952 5.22734,6.45062 4.4853,-3.60033 9.27725,-3.19129 13.66485,-3.416 -3.18042,1.00675 -8.57887,-0.46716 -12.99217,3.86053 3.12888,1.98972 6.96768,3.42143 10.65211,5.30395 4.68272,-1.9692 8.95899,-1.09454 13.39165,-1.31336 0.66235,-2.9211 2.05516,-6.2559 4.31599,-9.04156 1.0472,-1.29029 2.17724,-2.40156 3.7717,-3.61806 -0.68789,-0.20607 -1.35946,-0.38404 -2.01676,-0.53882 0.68123,0.14352 1.35456,0.32106 2.01676,0.53882 0.18755,-2.68318 -0.37048,-5.13323 0.38475,-7.77408 z"
         style="fill:#ffcc00;fill-opacity:1;stroke:none;stroke-width:0.08145859;stroke-linecap:butt;stroke-linejoin:miter;stroke-miterlimit:4;stroke-dasharray:none;stroke-opacity:1"
         inkscape:connector-curvature="0" />
      <path
         id="path1227"
         d="m 145.39438,156.54355 c -4.45668,0.40161 -10.22568,-0.18121 -12.84231,1.60045 4.5512,2.39586 8.79727,5.56408 11.07727,11.44939 1.15525,-3.90147 0.67693,-8.25103 1.76504,-13.04984 z"
         style="fill:#c87137;fill-opacity:1;stroke:none;stroke-width:0.08145859;stroke-linecap:butt;stroke-linejoin:miter;stroke-miterlimit:4;stroke-dasharray:none;stroke-opacity:1"
         inkscape:connector-curvature="0" />
      <path
         id="path1225"
         d="m 143.62934,169.59339 c -2.59987,-4.6361 -5.72594,-7.49378 -8.96706,-9.51892 -1.13477,5.05808 1.43047,6.60065 2.24156,11.49149 1.45227,-2.51783 4.39918,-2.41825 6.7255,-1.97257 z"
         style="fill:#ffcc00;fill-opacity:1;stroke:none;stroke-width:0.08145859;stroke-linecap:butt;stroke-linejoin:miter;stroke-miterlimit:4;stroke-dasharray:none;stroke-opacity:1"
         inkscape:connector-curvature="0" />
      <path
         sodipodi:nodetypes="ccccccccccc"
         id="path1223"
         d="m 136.90384,171.56596 c -0.86248,-3.9171 -3.87688,-7.46013 -2.64693,-11.74111 -3.81922,-2.30008 -7.77086,-3.50561 -11.19555,-5.13895 -0.39603,3.08635 0.53327,6.31994 0.77959,9.47767 -0.46608,-3.26257 -1.35958,-6.40946 -1.41228,-9.78411 -3.40508,-1.71712 -6.2223,-3.97523 -7.75556,-8.37142 -2.57518,1.14705 -5.24365,2.2029 -8.02421,3.17092 -1.85463,0.51393 -1.25755,0.82899 0.0385,2.27091 3.76282,4.19953 6.22945,9.38831 8.72282,14.701 5.8024,0.11658 11.37141,8.4108 17.05811,9.90829 1.4073,-1.87016 2.42823,-3.48248 4.43554,-4.4932 z"
         style="fill:#abc837;fill-opacity:1;stroke:none;stroke-width:0.08145859;stroke-linecap:butt;stroke-linejoin:miter;stroke-miterlimit:4;stroke-dasharray:none;stroke-opacity:1"
         inkscape:connector-curvature="0" />
      <path
         id="path1221"
         d="m 132.4683,176.05916 c -5.95019,-0.94009 -10.94541,-9.43311 -16.85059,-9.46798 2.79147,5.94883 5.66095,12.02239 10.46185,17.01097 2.27135,-2.22 3.69503,-5.26609 6.38874,-7.54299 z"
         style="fill:#d3bc5f;fill-opacity:1;stroke:none;stroke-width:0.08145859;stroke-linecap:butt;stroke-linejoin:miter;stroke-miterlimit:4;stroke-dasharray:none;stroke-opacity:1"
         inkscape:connector-curvature="0" />
      <path
         id="path1217"
         d="m 36.020481,96.776378 c 1.463671,1.505925 2.833675,3.016721 4.131614,4.526882 0.914923,-0.57036 1.207452,-1.03133 1.685058,-2.25839 -0.0088,-0.0041 -0.0173,-0.0073 -0.0261,-0.01132 -1.593967,0.148532 -3.414567,-0.815441 -5.790574,-2.257128 z"
         style="fill:#000000;fill-opacity:1;stroke:none;stroke-width:0.08145859;stroke-linecap:butt;stroke-linejoin:miter;stroke-miterlimit:4;stroke-dasharray:none;stroke-opacity:1"
         inkscape:connector-curvature="0" />
      <path
         id="path1215"
         d="m 36.020481,96.776378 c -0.221253,1.703128 -0.157428,4.327932 -1.363454,4.854802 -0.321166,1.40974 -1.602604,2.06383 -3.10113,2.84225 6.628676,2.42862 10.801498,6.83751 15.360846,6.60384 -1.572928,-2.39096 -3.247896,-4.80595 -5.067382,-7.21926 -2.216797,0.52818 -4.722244,-1.44409 -7.080782,-2.14432 2.194417,0.56098 5.237227,2.2441 6.874938,1.87153 -1.729577,-2.27993 -3.588618,-4.556943 -5.623036,-6.808842 z"
         style="fill:#782121;fill-opacity:1;stroke:none;stroke-width:0.08145859;stroke-linecap:butt;stroke-linejoin:miter;stroke-miterlimit:4;stroke-dasharray:none;stroke-opacity:1"
         inkscape:connector-curvature="0" />
      <path
         id="path1213"
         d="m 31.555897,104.47343 c 4.711155,2.50135 8.312376,6.80877 9.422521,10.71357 1.776995,1.44336 5.208381,1.37886 5.274069,4.24864 2.341446,0.64674 4.612514,1.32371 6.302868,0.63394 -1.665791,-2.72918 -3.37479,-5.52209 -5.233657,-8.37309 -6.106027,-0.29148 -9.596684,-4.25339 -15.765801,-7.22306 z"
         style="fill:#000000;fill-opacity:1;stroke:none;stroke-width:0.08145859;stroke-linecap:butt;stroke-linejoin:miter;stroke-miterlimit:4;stroke-dasharray:none;stroke-opacity:1"
         inkscape:connector-curvature="0" />
      <path
         id="path1211"
         d="m 40.978418,115.187 c 1.785306,2.50279 0.524628,2.4443 0.397375,3.35454 0.0093,0.0209 0.01742,0.0422 0.02652,0.0631 1.434487,-0.0526 2.986986,0.32175 4.520569,0.74045 0.04931,-2.2947 -3.414659,-2.8372 -4.944465,-4.15813 z"
         style="fill:#782121;fill-opacity:1;stroke:none;stroke-width:0.08145859;stroke-linecap:butt;stroke-linejoin:miter;stroke-miterlimit:4;stroke-dasharray:none;stroke-opacity:1"
         inkscape:connector-curvature="0" />
      <path
         id="path1209"
         d="m 49.082526,98.432814 c -2.379898,-0.03796 -4.273192,1.987716 -7.233165,0.61753 -0.25053,1.123656 -0.745257,1.957786 -1.525098,2.452876 1.482424,1.73369 2.8665,3.46597 4.168658,5.18819 2.751062,-2.28737 2.39869,-5.82797 5.074959,-8.221557 -0.164181,-0.02273 -0.326002,-0.03446 -0.485354,-0.03706 z"
         style="fill:#782121;fill-opacity:1;stroke:none;stroke-width:0.08145859;stroke-linecap:butt;stroke-linejoin:miter;stroke-miterlimit:4;stroke-dasharray:none;stroke-opacity:1"
         inkscape:connector-curvature="0" />
      <path
         id="path1207"
         d="m 49.56788,98.469853 c -2.524519,2.684117 -2.312901,6.344987 -4.634647,8.808777 2.253584,3.01817 4.263619,5.99893 6.142065,8.90139 2.054819,-2.06354 2.122831,-4.82243 3.260251,-7.20707 -3.269719,-1.42582 -4.695007,-6.20183 -4.767669,-10.503097 z"
         style="fill:#782121;fill-opacity:1;stroke:none;stroke-width:0.08145859;stroke-linecap:butt;stroke-linejoin:miter;stroke-miterlimit:4;stroke-dasharray:none;stroke-opacity:1"
         inkscape:connector-curvature="0" />
      <path
         id="path1205"
         d="m 54.335549,108.97295 c -0.988289,2.60076 -0.924563,5.75238 -2.826251,7.87469 1.569046,2.43969 3.047883,4.81743 4.500365,7.10731 2.390415,-3.06056 3.513865,-6.00658 6.643414,-9.01294 -2.394753,-1.30245 -6.269952,-1.89572 -8.317528,-5.96906 z"
         style="fill:#782121;fill-opacity:1;stroke:none;stroke-width:0.08145859;stroke-linecap:butt;stroke-linejoin:miter;stroke-miterlimit:4;stroke-dasharray:none;stroke-opacity:1"
         inkscape:connector-curvature="0" />
      <path
         id="path1203"
         d="m 62.653077,114.94201 c -2.734685,3.22751 -3.998677,6.83649 -6.117649,9.83505 3.223275,5.05174 6.357702,9.64863 10.100248,13.467 2.262005,-3.43875 -2.247486,-7.34761 -1.283053,-11.33784 -0.0097,-0.0183 -0.01976,-0.0353 -0.02946,-0.0539 -2.39552,-1.47133 -2.613874,-5.9327 -2.670081,-11.91033 z"
         style="fill:#c83737;fill-opacity:1;stroke:none;stroke-width:0.08145859;stroke-linecap:butt;stroke-linejoin:miter;stroke-miterlimit:4;stroke-dasharray:none;stroke-opacity:1"
         inkscape:connector-curvature="0" />
      <path
         id="path1201"
         d="m 41.404839,118.61058 c 0.762051,1.75502 0.971337,3.77395 1.081417,5.41424 1.83908,-1.24774 4.618045,-1.6002 5.573365,-3.68962 -2.619029,-0.67032 -5.416893,-1.68332 -6.654782,-1.72462 z"
         style="fill:#782121;fill-opacity:1;stroke:none;stroke-width:0.08145859;stroke-linecap:butt;stroke-linejoin:miter;stroke-miterlimit:4;stroke-dasharray:none;stroke-opacity:1"
         inkscape:connector-curvature="0" />
      <path
         id="path1199"
         d="m 42.486256,124.02482 c 0.925027,2.13298 0.02076,4.15138 0.154069,5.69629 3.109066,-1.46109 6.685392,-0.89492 10.125504,-0.42306 -1.066384,-1.81291 -3.155516,-2.59471 -4.737358,-3.88789 1.825412,1.28866 4.047229,2.0818 5.388987,3.97503 1.786856,0.23582 3.526934,0.41018 5.13221,0.21847 -1.882045,-2.80909 -3.722847,-5.81427 -5.617143,-8.91822 -0.93936,0.43534 -2.631245,0.19613 -4.459111,-0.24752 -1.173752,2.27722 -3.995013,2.3865 -5.987158,3.5869 z"
         style="fill:#c83737;fill-opacity:1;stroke:none;stroke-width:0.08145859;stroke-linecap:butt;stroke-linejoin:miter;stroke-miterlimit:4;stroke-dasharray:none;stroke-opacity:1"
         inkscape:connector-curvature="0" />
      <path
         id="path1197"
         d="m 42.640325,129.72111 c 4.436942,2.14029 6.99442,5.05037 7.774084,8.3129 0.726392,-3.20764 4.513735,-4.7699 5.174304,-7.66254 -3.885592,-0.4791 -7.775925,-1.97647 -12.948388,-0.65036 z"
         style="fill:#c87137;fill-opacity:1;stroke:none;stroke-width:0.08145859;stroke-linecap:butt;stroke-linejoin:miter;stroke-miterlimit:4;stroke-dasharray:none;stroke-opacity:1"
         inkscape:connector-curvature="0" />
      <path
         id="path1195"
         d="m 50.414409,138.03401 c 2.419231,0.99057 0.888394,2.5528 1.09573,4.02511 6.230319,-0.97127 12.820217,1.62194 18.361794,0.5064 -4.162475,-3.2889 -7.558951,-7.44389 -10.765771,-12.13932 -0.951687,0.11277 -1.881982,0.10217 -2.808149,0.021 -0.718229,2.93795 -4.476651,4.3928 -5.883604,7.58676 z"
         style="fill:#c83737;fill-opacity:1;stroke:none;stroke-width:0.08145859;stroke-linecap:butt;stroke-linejoin:miter;stroke-miterlimit:4;stroke-dasharray:none;stroke-opacity:1"
         inkscape:connector-curvature="0" />
      <path
         id="path1193"
         d="m 51.510139,142.05912 c 0.38986,1.9441 1.977932,4.12125 0.674781,6.28939 2.650033,0.37585 4.889234,1.38645 7.156974,2.35311 4.626686,-2.45075 9.552661,-3.84196 11.269646,-7.56529 -6.423558,0.87978 -12.714228,-1.52041 -19.101401,-1.07721 z"
         style="fill:#c87137;fill-opacity:1;stroke:none;stroke-width:0.08145859;stroke-linecap:butt;stroke-linejoin:miter;stroke-miterlimit:4;stroke-dasharray:none;stroke-opacity:1"
         inkscape:connector-curvature="0" />
      <path
         id="path1191"
         d="m 52.18492,148.34851 c 0.828663,1.21096 0.402177,5.24485 0.769494,7.38934 1.633556,-2.12024 3.749059,-3.59629 5.958113,-4.80513 -2.155939,-0.91661 -4.203372,-1.90197 -6.727607,-2.58421 z"
         style="fill:#c83737;fill-opacity:1;stroke:none;stroke-width:0.08145859;stroke-linecap:butt;stroke-linejoin:miter;stroke-miterlimit:4;stroke-dasharray:none;stroke-opacity:1"
         inkscape:connector-curvature="0" />
      <path
         id="path1189"
         d="m 52.954414,155.73785 c 4.685538,2.29507 8.678411,4.10999 10.46858,7.46637 0.138628,-4.676 1.572813,-9.1051 0.441156,-14.02307 -3.236341,1.43023 -6.901901,2.94195 -10.909736,6.5567 z"
         style="fill:#c87137;fill-opacity:1;stroke:none;stroke-width:0.08145859;stroke-linecap:butt;stroke-linejoin:miter;stroke-miterlimit:4;stroke-dasharray:none;stroke-opacity:1"
         inkscape:connector-curvature="0" />
      <path
         id="path1187"
         d="m 63.422994,163.20422 c 2.640872,2.76495 5.416816,6.31107 6.465775,9.15986 2.84466,-0.71675 4.456808,-2.57624 6.846736,-2.40741 1.993599,-4.34895 4.97659,-8.12069 7.94036,-11.93222 -5.168961,-1.92729 -11.556818,-1.21324 -17.404135,-1.67075 5.985325,0.24248 11.970672,-0.62139 17.955998,0.95976 1.779718,-2.29838 3.529262,-4.62553 5.027393,-7.11698 -7.800539,-0.67042 -13.743139,-2.93111 -18.6312,-6.32686 -2.073258,2.62839 -4.553945,3.8834 -7.368711,5.13811 1.17275,4.90626 -0.529941,9.46723 -0.832216,14.19649 z"
         style="fill:#ffcc00;fill-opacity:1;stroke:none;stroke-width:0.08145859;stroke-linecap:butt;stroke-linejoin:miter;stroke-miterlimit:4;stroke-dasharray:none;stroke-opacity:1"
         inkscape:connector-curvature="0" />
      <path
         id="path1185"
         d="m 69.888769,172.36408 c 2.347989,1.48301 2.916462,5.95533 4.464584,8.92916 -0.09231,-4.01462 0.727385,-7.48538 2.078648,-10.64496 -1.980622,-0.6 -3.963184,1.74887 -6.543232,1.7158 z"
         style="fill:#abc837;fill-opacity:1;stroke:none;stroke-width:0.08145859;stroke-linecap:butt;stroke-linejoin:miter;stroke-miterlimit:4;stroke-dasharray:none;stroke-opacity:1"
         inkscape:connector-curvature="0" />
      <path
         sodipodi:nodetypes="ccccccccccccc"
         id="path1183"
         d="m 74.353353,181.29324 c 4.937103,-0.49118 9.738581,-1.32792 14.239862,-1.23169 2.928648,-4.07256 3.359704,-9.64362 8.903069,-12.14733 1.167605,-5.64601 3.649386,-11.05725 5.285916,-16.30184 0.47104,-1.31864 0.0862,-1.60781 -0.9842,-1.50092 -3.635733,0.31384 -6.953013,0.37006 -9.997997,0.19531 -1.003852,1.63998 -2.102851,3.18947 -3.245095,4.69779 2.12927,3.5287 2.37173,7.05732 3.502295,10.58602 -1.292108,-3.36859 -1.810262,-7.33925 -3.857577,-10.12045 -3.015426,3.93108 -6.293064,7.61286 -8.929589,11.90444 1.510916,2.95668 2.28136,6.1601 3.242571,9.30002 -1.229823,-2.86876 -1.914926,-6.03996 -3.646682,-8.62987 -2.207718,3.74681 -3.906187,7.97817 -4.512573,13.24852 z"
         style="fill:#d3bc5f;fill-opacity:1;stroke:none;stroke-width:0.08145859;stroke-linecap:butt;stroke-linejoin:miter;stroke-miterlimit:4;stroke-dasharray:none;stroke-opacity:1"
         inkscape:connector-curvature="0" />
      <path
         id="path1181"
         d="m 88.593215,180.06155 c 2.416405,-3.19728 8.834192,0.97656 11.096634,4.83754 -3.064127,-5.62848 -3.295874,-11.00545 -2.346791,-16.18422 -4.063291,0.91538 -5.813051,7.61504 -8.749843,11.34668 z"
         style="fill:#ffcc00;fill-opacity:1;stroke:none;stroke-width:0.08145859;stroke-linecap:butt;stroke-linejoin:miter;stroke-miterlimit:4;stroke-dasharray:none;stroke-opacity:1"
         inkscape:connector-curvature="0" />
      <path
         id="path1179"
         d="m 65.355571,126.91169 c -0.273642,4.13227 3.896645,8.23108 1.869855,11.92548 4.213918,4.13468 9.222069,7.3022 15.97922,9.07525 0.187345,-1.95162 -0.342155,-3.78858 -1.286839,-5.55906 -2.839435,0.94538 -6.301511,-3.54138 -9.566487,-4.64222 3.258573,0.63072 6.065028,4.65095 9.296237,4.15729 -2.628352,-4.53633 -7.858869,-8.65618 -10.644956,-13.16728 -2.146481,0.64596 -4.143991,1.03339 -5.64703,-1.78946 z"
         style="fill:#d3bc5f;fill-opacity:1;stroke:none;stroke-width:0.08145859;stroke-linecap:butt;stroke-linejoin:miter;stroke-miterlimit:4;stroke-dasharray:none;stroke-opacity:1"
         inkscape:connector-curvature="0" />
      <path
         sodipodi:nodetypes="cccc"
         id="path826-3"
         d="m 103.74834,152.19045 c -1.88584,8.93983 -10.703046,17.20563 -3.840017,33.10518 -2.724529,-10.58587 7.856357,-21.95515 4.974027,-33.06739 -0.66471,-1.75229 -0.79722,-1.39319 -1.13401,-0.0378 z"
         style="fill:#abc837;fill-opacity:1;stroke:none;stroke-width:0.08145859;stroke-linecap:butt;stroke-linejoin:miter;stroke-miterlimit:4;stroke-dasharray:none;stroke-opacity:1"
         inkscape:connector-curvature="0" />
      <path
         inkscape:connector-curvature="0"
         id="path2798-9"
         d="m 119.80502,90.136317 1.60362,-1.5368 1.06908,1.26953 -1.20272,1.26953 z"
         style="fill:#ffffff;fill-opacity:1;stroke:none;stroke-width:0.26458332px;stroke-linecap:butt;stroke-linejoin:miter;stroke-opacity:1" />
      <path
         inkscape:connector-curvature="0"
         id="path2798-1"
         d="m 144.18448,147.96667 1.60362,-1.5368 1.06908,1.26953 -1.20272,1.26953 z"
         style="fill:#ffffff;fill-opacity:1;stroke:none;stroke-width:0.26458332px;stroke-linecap:butt;stroke-linejoin:miter;stroke-opacity:1" />
      <path
         inkscape:connector-curvature="0"
         id="path2798-2"
         d="m 119.61603,162.32977 1.60362,-1.5368 1.06908,1.26953 -1.20272,1.26953 z"
         style="fill:#ffffff;fill-opacity:1;stroke:none;stroke-width:0.26458332px;stroke-linecap:butt;stroke-linejoin:miter;stroke-opacity:1" />
      <path
         inkscape:connector-curvature="0"
         id="path2798-7"
         d="m 123.96276,176.69287 1.60362,-1.5368 1.06908,1.26953 -1.20272,1.26953 z"
         style="fill:#ffffff;fill-opacity:1;stroke:none;stroke-width:0.26458332px;stroke-linecap:butt;stroke-linejoin:miter;stroke-opacity:1" />
      <path
         inkscape:connector-curvature="0"
         id="path2798-0"
         d="m 70.290138,135.87144 1.60362,-1.5368 1.06908,1.26953 -1.20272,1.26953 z"
         style="fill:#ffffff;fill-opacity:1;stroke:none;stroke-width:0.26458332px;stroke-linecap:butt;stroke-linejoin:miter;stroke-opacity:1" />
      <path
         inkscape:connector-curvature="0"
         id="path2798-93"
         d="m 82.952341,122.45328 1.60362,-1.5368 1.06908,1.26953 -1.20272,1.26953 z"
         style="fill:#ffffff;fill-opacity:1;stroke:none;stroke-width:0.26458332px;stroke-linecap:butt;stroke-linejoin:miter;stroke-opacity:1" />
      <path
         inkscape:connector-curvature="0"
         id="path2798"
         d="m 70.857103,166.10953 1.60362,-1.5368 1.069079,1.26953 -1.202719,1.26953 z"
         style="fill:#ffffff;fill-opacity:1;stroke:none;stroke-width:0.26458332px;stroke-linecap:butt;stroke-linejoin:miter;stroke-opacity:1" />
      <path
         inkscape:connector-curvature="0"
         id="path2798-6"
         d="m 94.61341,48.43934 1.60362,-1.5368 1.06908,1.26953 -1.20272,1.26953 z"
         style="fill:#ffffff;fill-opacity:1;stroke:none;stroke-width:0.26458332px;stroke-linecap:butt;stroke-linejoin:miter;stroke-opacity:1" />
      <path
         inkscape:connector-curvature="0"
         id="path2798-06"
         d="m 86.862594,53.517461 1.60362,-1.5368 1.06908,1.26953 -1.20272,1.26953 z"
         style="fill:#ffffff;fill-opacity:1;stroke:none;stroke-width:0.26458332px;stroke-linecap:butt;stroke-linejoin:miter;stroke-opacity:1" />
      <path
         inkscape:connector-curvature="0"
         id="path2798-26"
         d="m 153.67998,58.061043 1.60362,-1.5368 1.06908,1.26953 -1.20272,1.26953 z"
         style="fill:#ffffff;fill-opacity:1;stroke:none;stroke-width:0.26458332px;stroke-linecap:butt;stroke-linejoin:miter;stroke-opacity:1" />
    </g>
    <path
       style="opacity:0.6;fill:#ffffff;stroke:none;stroke-width:0.26499999;stroke-linecap:butt;stroke-linejoin:miter;stroke-miterlimit:4;stroke-dasharray:none;stroke-opacity:1"
       d="M 6.4255951,177.7107 199.9494,15.180951 202.21726,25.386309 10.205357,189.04998 32.505951,190.93986 207.13095,42.773212 191.25595,65.451784 32.127975,202.27915 49.514881,208.70475 168.57738,120.25832 180.29464,176.57677 55.562499,231.38332 -52.160714,189.42796 -9.8273808,128.19582 151.94643,9.5113083 105.83333,0.06190491 167.44345,4.5976186 92.982141,-1.0720241 -34.395833,136.13332 Z"
       id="path2794"
       inkscape:connector-curvature="0" />
    <path
       style="opacity:0.6;fill:#ffffff;fill-opacity:1;stroke:none;stroke-width:0.26458332px;stroke-linecap:butt;stroke-linejoin:miter;stroke-opacity:1"
       d="m 26.726951,284.35235 49.712133,-52.91935 19.510674,-0.80181 -50.781208,56.66114 12.027127,-3.20723 41.159509,-49.44487 2.939964,0.53454 -40.892236,49.9794 47.841246,-4.54358 38.21954,-55.32479 6.41447,0.80181 -40.89224,59.6011 43.56493,-1.33636 24.85607,-46.23761 17.63979,-1.60362 -29.39965,54.52297 -143.256465,3.74179 z"
       id="path2796"
       inkscape:connector-curvature="0" />
  </g>
</svg>
