<?xml version="1.0" encoding="UTF-8" standalone="no"?>
<svg
   width="126.798mm"
   height="123.7368mm"
   viewBox="0 0 126.798 123.7368"
   version="1.1"
   id="svg8"
   inkscape:version="1.1.2 (0a00cf5339, 2022-02-04)"
   sodipodi:docname="map_NightCampfireArchipelago.svg"
   xmlns:inkscape="http://www.inkscape.org/namespaces/inkscape"
   xmlns:sodipodi="http://sodipodi.sourceforge.net/DTD/sodipodi-0.dtd"
   xmlns="http://www.w3.org/2000/svg"
   xmlns:svg="http://www.w3.org/2000/svg"
   xmlns:rdf="http://www.w3.org/1999/02/22-rdf-syntax-ns#"
   xmlns:cc="http://creativecommons.org/ns#"
   xmlns:dc="http://purl.org/dc/elements/1.1/">
  <defs
     id="defs2">
    <rect
       x="38.197915"
       y="483.43013"
       width="465.60319"
       height="268.50983"
       id="rect2718" />
    <marker
       style="overflow:visible"
       id="Arrow1Send"
       refX="0"
       refY="0"
       orient="auto"
       inkscape:stockid="Arrow1Send"
       inkscape:isstock="true">
      <path
         transform="matrix(-0.2,0,0,-0.2,-1.2,0)"
         style="fill:#000000;fill-opacity:1;fill-rule:evenodd;stroke:#000000;stroke-width:1pt;stroke-opacity:1"
         d="M 0,0 5,-5 -12.5,0 5,5 Z"
         id="path1338" />
    </marker>
    <marker
       style="overflow:visible"
       id="Arrow1Sstart"
       refX="0"
       refY="0"
       orient="auto"
       inkscape:stockid="Arrow1Sstart"
       inkscape:isstock="true">
      <path
         transform="matrix(0.2,0,0,0.2,1.2,0)"
         style="fill:#000000;fill-opacity:1;fill-rule:evenodd;stroke:#000000;stroke-width:1pt;stroke-opacity:1"
         d="M 0,0 5,-5 -12.5,0 5,5 Z"
         id="path1335" />
    </marker>
    <marker
       style="overflow:visible"
       id="Arrow1Mstart"
       refX="0"
       refY="0"
       orient="auto"
       inkscape:stockid="Arrow1Mstart"
       inkscape:isstock="true">
      <path
         transform="matrix(0.4,0,0,0.4,4,0)"
         style="fill:#000000;fill-opacity:1;fill-rule:evenodd;stroke:#000000;stroke-width:1pt;stroke-opacity:1"
         d="M 0,0 5,-5 -12.5,0 5,5 Z"
         id="path1329" />
    </marker>
    <rect
       x="109.69863"
       y="94.436661"
       width="50.051262"
       height="28.0648"
       id="rect1089" />
    <rect
       x="131.77631"
       y="60.88942"
       width="25.336676"
       height="9.2041388"
       id="rect922" />
    <rect
       x="109.69863"
       y="94.436661"
       width="50.051262"
       height="28.0648"
       id="rect1089-3" />
    <rect
       x="109.69863"
       y="94.436661"
       width="50.051262"
       height="28.0648"
       id="rect1102" />
  </defs>
  <sodipodi:namedview
     id="base"
     pagecolor="#ffffff"
     bordercolor="#666666"
     borderopacity="1.0"
     inkscape:pageopacity="0.0"
     inkscape:pageshadow="2"
     inkscape:zoom="0.98994949"
     inkscape:cx="30.809653"
     inkscape:cy="393.95949"
     inkscape:document-units="mm"
     inkscape:current-layer="layer1"
     inkscape:document-rotation="0"
     showgrid="false"
     inkscape:window-width="1920"
     inkscape:window-height="1007"
     inkscape:window-x="0"
     inkscape:window-y="0"
     inkscape:window-maximized="1"
     fit-margin-top="0"
     fit-margin-left="0"
     fit-margin-right="0"
     fit-margin-bottom="0"
     inkscape:pagecheckerboard="0" />
  <metadata
     id="metadata5">
    <rdf:RDF>
      <cc:Work
         rdf:about="">
        <dc:format>image/svg+xml</dc:format>
        <dc:type
           rdf:resource="http://purl.org/dc/dcmitype/StillImage" />
      </cc:Work>
    </rdf:RDF>
  </metadata>
  <g
     inkscape:label="Map"
     inkscape:groupmode="layer"
     id="layer1"
     transform="translate(-9.3321114,-9.3813229)"
     style="display:inline">
    <rect
       style="fill:#2a7fff;stroke-width:0.26458299"
       id="rect37"
       width="126.798"
       height="123.7368"
       x="9.3321114"
       y="9.3813229" />
    <path
       style="display:inline;fill:#6c5353;stroke:none;stroke-width:0.264583px;stroke-linecap:butt;stroke-linejoin:miter;stroke-opacity:1;opacity:0.45710911"
       d="M 21.989892,76.100553 C 15.18659,77.72371 10.510296,65.936133 9.8713627,58.971126 9.4746149,54.646184 15.710662,51.469864 15.335604,47.142987 14.854807,41.596251 3.126598,38.280854 5.8262765,33.411646 8.1147264,29.28414 15.380451,35.187156 19.968764,34.08231 23.821675,33.154545 30.699733,32.116475 30.286478,28.175042 29.613257,21.754178 16.346847,26.877473 11.8477,22.247311 9.400814,19.729172 6.643765,14.810267 8.9129631,12.130899 11.891489,8.6139882 19.056567,16.63657 22.644669,13.744201 23.955229,12.687759 22.158836,10.09037 23.133483,8.71789 25.074965,5.9839323 28.95502,3.9671104 32.26572,4.4992231 c 4.027953,0.6473932 4.955206,7.4939289 8.94279,8.3557289 3.269851,0.706683 6.889226,-1.130527 9.508151,-3.2120056 2.115605,-1.6814484 1.883036,-5.6139711 4.261525,-6.896876 4.720557,-2.54616506 12.411561,-3.45808709 16.084039,0.4508154 1.773728,1.8879153 -1.689811,5.6021946 -0.266721,7.7667152 1.551404,2.359687 7.248315,2.957387 7.888641,3.089358 0.640329,0.131971 -0.786132,4.382158 0.470723,5.905128 2.80286,3.396312 11.081943,-0.554214 12.73044,3.529095 1.242154,3.076801 -5.01968,5.255798 -5.057589,8.573661 -0.04287,3.75226 6.473651,6.201234 5.496724,9.824341 -1.21594,4.509526 -9.695089,3.104223 -12.061434,7.130976 -1.897467,3.228874 -0.607138,7.500075 -0.289057,11.231674 0.257009,3.015127 -0.154797,6.566566 1.76616,8.904721 1.913384,2.328937 5.379909,2.992931 8.359661,3.446878 3.454529,0.526277 7.169419,0.296473 10.441927,-0.928855 3.10957,-1.164318 4.93645,-6.972649 8.06168,-5.851046 1.73336,0.622081 1.91653,3.583844 1.38738,5.347798 -0.73386,2.446382 -3.47264,3.863333 -5.68876,5.133031 -4.974941,2.850328 -11.759665,1.820857 -16.399356,5.189487 -1.658932,1.204461 -3.200665,2.986244 -3.579908,5.000929 -0.562604,2.988772 2.618801,5.823248 2.249834,8.842047 -0.662126,5.417346 -4.758577,9.856676 -7.740197,14.427886 -2.589481,3.97001 -4.224637,9.8182 -8.757833,11.2026 -4.362084,1.33214 -12.421663,-4.23242 -13.011845,-4.23242 -0.590183,0 -15.086892,3.69311 -18.690368,-1.41087 -1.794996,-2.54244 2.736071,-5.90903 2.453942,-9.00845 -0.176599,-1.94008 -1.555031,-3.58162 -2.528927,-5.26881 -1.392841,-2.412977 -2.681999,-4.996856 -4.716114,-6.900757 -2.300175,-2.15293 -7.374333,-1.749411 -8.138618,-4.805844 -0.959564,-3.837371 5.997767,-6.181561 6.175437,-10.133094 0.17957,-3.993786 -1.517264,-9.45842 -5.297186,-10.76025 -1.204478,-0.41483 -2.686623,0.63592 -3.441324,1.662213 -1.196935,1.627674 1.075587,5.526653 -0.889645,5.995525 z"
       id="path940"
       sodipodi:nodetypes="ssssssssssssssssssssssssssssssssssssssssssss"
       transform="translate(9.3321114,9.3813229)" />
    <path
       id="path10"
       style="fill:#8dd35f;stroke:none;stroke-width:0.26458299px;stroke-linecap:butt;stroke-linejoin:miter;stroke-opacity:1"
       d="m 42.294922,59.455078 c -0.502454,0.222485 -0.663753,0.87794 -1.054688,1.248047 -0.559116,0.272905 -1.253839,0.581242 -1.888672,0.736328 -0.566285,0.385651 -1.156018,-0.184785 -1.564453,-0.582031 -0.489058,-0.297684 -0.896651,-0.567088 -1.328125,-0.07813 -0.434312,0.492576 -0.969077,-0.04896 -1.388967,0.476278 -0.471741,0.572217 0.410827,2.468987 0.144827,3.13505 -0.0453,0.672604 0.135674,1.16367 0.322014,1.725632 -0.231238,0.416658 -0.432602,0.700661 -0.884649,1.037261 -0.378967,0.124681 -1.275444,-0.258647 -1.091662,0.39531 0.441502,0.163606 -0.08283,0.169536 0.369141,0.304688 -0.116579,0.29888 -0.864054,-0.08152 -0.47461,0.480468 -0.05847,0.29127 -0.794679,0.786691 -0.283203,0.845704 -0.17427,0.412691 0.903143,0.875215 1.328125,0.74414 0.333049,-0.06509 -0.07464,0.213165 0.291016,0.19336 -0.0529,0.430151 -0.06546,0.582219 0.386718,0.517578 -0.0099,0.147483 0.170816,0.448562 0.285157,0.03711 0.115544,0.144562 10e-4,0.258581 0.238281,0.21875 -0.19519,-0.263415 0.44382,-0.660439 0.578125,-0.292969 0.230709,-0.40059 0.30214,0.130987 0.689453,0.05664 -0.199343,0.09472 -0.351339,0.294803 -0.01563,0.253906 -0.240112,0.44199 0.166688,0.247321 0.205078,0.177735 -0.08208,0.377257 0.06972,-0.130048 0.162109,0.05273 -9.12e-4,0.435245 0.554755,-0.05782 0.642579,0.519531 0.333355,0.458032 0.03003,0.517108 0.193359,0.796875 -0.115104,0.0674 0.615443,0.673033 0.384766,0.927734 -0.156952,0.161199 0.322701,0.487381 0.177734,0.441407 0.161706,0.323692 -0.339984,0.199182 0.154297,0.238281 -0.45281,-0.0652 0.299617,0.475492 -0.207031,0.576172 0.349933,0.157689 0.443434,1.018347 0.614367,1.538721 0.370073,0.446074 0.109481,1.166222 0.461558,1.755003 0.207498,0.596876 0.693324,1.170423 0.494387,1.819557 0.465373,0.906392 0.713919,1.910627 1.05719,2.869481 0.554406,1.833347 1.185795,3.6406 1.894556,5.419833 0.37137,0.908408 0.660423,1.854708 1.005285,2.767327 0.618632,0.666298 1.543094,-0.28896 1.112466,-0.996039 -0.465138,-1.562136 -0.69471,-3.190004 -1.301693,-4.710749 -0.225524,-0.636416 -0.65158,-1.245022 -0.486554,-1.951415 0.101597,-0.613458 0.02041,-1.201096 0.0294,-1.788643 0.0847,-0.696127 -0.307874,-1.337805 -0.163661,-2.01708 -0.01678,-0.749622 -0.194743,-1.482281 -0.02355,-2.222406 0.217767,-0.65509 -0.0085,-1.467941 0.359733,-1.971589 0.359359,-0.28581 0.982354,-0.255581 1.518782,-0.012 0.523441,0.455264 1.149898,0.867631 1.828125,1.039062 0.617541,0.199573 1.415806,0.284941 1.88086,-0.246093 0.278581,-0.469049 0.0611,-1.099637 -0.357422,-1.425782 -0.672292,-0.390052 -0.826112,-1.156164 -1.007813,-1.847656 -0.05282,-0.718623 -0.179115,-1.44122 -0.259792,-2.157891 -0.139393,-0.755121 0.268338,-1.52211 0.760174,-2.065325 0.508733,-0.52226 0.943869,-1.128924 1.415386,-1.691174 0.492148,-0.472622 0.675766,-1.512481 -0.09356,-1.821538 -0.673813,-0.28562 -1.41924,-0.05911 -2.089476,0.127956 -0.703287,0.123543 -1.448368,0.206322 -2.168439,0.175945 -0.534117,0.228584 -1.231723,0.411155 -1.743977,0.166402 -0.251296,-0.621255 1.024968,-0.524629 1.498047,-0.716797 0.742606,-0.159192 1.517861,-0.233734 2.205078,-0.574219 0.62729,-0.07372 1.314985,-0.08681 1.833984,-0.488281 0.480413,-0.571439 -0.137719,-1.175987 -0.638672,-1.451172 -0.579753,-0.422042 -1.189776,-1.037052 -1.972656,-0.884765 -0.699259,-0.1136 -1.192979,-0.768029 -1.834988,-0.969623 -0.715515,-0.03604 -1.476296,-0.255637 -1.96384,-0.803815 -0.08312,0.01119 -0.149349,-0.100854 -0.234375,-0.04883 z m -8.955078,8.578125 c 0.06644,0.09643 -0.0093,-0.07494 0,0 z m 2.488281,2.796875 c 0.230771,0.108573 -0.183802,-0.267894 0,0 z m 1.476563,0.03125 c -0.37686,0.654835 -0.01749,-0.386127 0,0 z m -0.189454,0.04102 c -0.262513,0.151848 0.241784,-0.359215 0,0 z m -1.705078,-0.04102 c 0.02688,0.04726 0.06367,-0.119943 0,0 z m 2.023438,0.06641 c -0.03836,0.07372 -0.13559,-0.14498 0,0 z m -2.148438,0.0625 c 0.311435,-0.03132 -0.02311,0.03953 0,0 z m 2.179688,0.0039 c -0.125727,-0.02211 0.05725,-0.106726 0,0 z m -0.421875,0.121093 c -0.107108,-0.03408 0.05224,-0.06422 0,0 z m 0.220703,0.08398 c 0.177913,0.20697 0.151834,0.101516 0,0 z m 0.886719,0.640625 c 0.0072,0.100607 -0.03681,-0.08635 0,0 z m 0.144531,0.109375 c 0.02704,0.08973 -0.06728,-0.10696 0,0 z M 38.25,72.210938 c -0.134057,-0.0096 10e-4,-0.05371 0,0 z m -0.244141,0.03711 c 0.07076,0.02427 5.45e-4,-0.0777 0,0 z m 0.02344,0.109375 c 0.01213,0.0017 0.0398,-0.04833 0,0 z m -0.232422,0.04297 c 0.223722,-0.0351 0.174612,-0.03503 0,0 z"
       sodipodi:nodetypes="cccccccccccccccccccccccccccccccccccccccccccccccccccccccccccccccccccccccccccccccccccccccccccccc"
       inkscape:connector-curvature="0" />
    <path
       id="path12"
       style="fill:#9dac93;stroke:none;stroke-width:0.26458299px;stroke-linecap:butt;stroke-linejoin:miter;stroke-opacity:1"
       d="m 50.605469,102.72656 c -0.455209,0.10522 -0.947834,0.12361 -1.365959,0.26161 -0.473452,0.10796 -0.810692,0.56561 -1.093361,0.98582 -0.234835,0.41542 -0.07524,0.88925 -0.308258,1.26234 0.155655,0.31134 0.510347,0.66564 0.49414,0.90625 0.24911,-0.24756 0.01779,0.29739 0.173828,0.0273 0.367264,0.0758 0.136239,0.56519 0.548556,0.5993 0.17763,0.0246 0.290085,0.0735 0.345976,0.28937 -0.202191,-0.066 -8.99e-4,0.12977 0.02539,0.0449 0.04657,-0.0725 0.163226,-0.22373 0.205078,0.0586 -0.06394,0.27297 0.20789,-0.0166 0.19336,0.21289 0.179797,-0.0253 0.06188,0.20033 0.286767,0.13952 0.344108,0.0292 0.706326,0.0905 1.056983,0.14368 0.316681,-0.25971 0.670299,-0.69867 1.045908,-0.9792 0.371582,-0.31847 0.637465,-0.77198 0.998334,-1.09917 0.354051,-0.27605 0.61656,-0.74459 0.559861,-1.21609 -0.151946,-0.57242 -0.697226,-0.78349 -1.157599,-1.02352 -0.440463,-0.22425 -0.834645,-0.44919 -1.313692,-0.52381 -0.234873,-0.0167 -0.476696,-0.0749 -0.695312,-0.0898 z"
       sodipodi:nodetypes="cccc"
       inkscape:connector-curvature="0" />
    <path
       id="path14"
       style="fill:#9dac93;stroke:none;stroke-width:0.26458299px;stroke-linecap:butt;stroke-linejoin:miter;stroke-opacity:1"
       d="m 60.380859,112.98828 c 0.03121,0.0938 0.120033,-0.16666 0,0 z m -0.08789,0.0937 c -0.01944,0.11055 0.115909,-0.15842 0,0 z m -0.478516,0.14453 c -0.567983,0.1092 -1.182018,-0.0207 -1.728241,0.22017 -0.479077,0.0368 -0.999483,-0.18018 -1.490509,-0.009 -0.406366,0.0823 -0.728614,0.44168 -0.648989,0.87045 0.04211,0.43368 0.347587,0.8665 0.787661,0.96353 0.539338,0.42112 0.921637,1.06583 1.591797,1.30274 0.653576,0.41223 1.152217,1.04359 1.865234,1.36719 0.598209,0.37777 1.321269,0.18876 1.980469,0.19531 0.589457,-0.0967 1.160255,-0.27602 1.761719,-0.31641 0.465354,-0.0142 0.944954,-0.0427 1.21652,-0.51606 0.207412,-0.62023 0.692161,-0.37196 1.135042,-0.26909 0.335867,0.15968 0.954582,-0.0861 1.214844,-0.44727 0.323836,-0.35781 0.796641,-0.5586 1.241985,-0.51391 0.524339,-0.0127 0.663892,0.55253 0.716999,0.95532 0.191459,0.43274 0.281443,0.95572 0.59961,1.29297 0.328908,0.11295 0.690169,-0.0549 1.040418,0.1791 0.507285,-0.0343 1.028462,0.32663 1.4671,0.22359 0.395122,-0.083 0.835613,0.03 1.22881,0.20277 0.347605,-0.25642 0.859311,-0.26549 1.225249,-0.28071 0.352527,0.0884 0.849366,-0.57322 0.645845,-0.83647 0.276239,-0.19558 0.162938,-0.10203 0.310546,-0.45703 -0.14805,-0.0559 -0.153332,0.0374 -0.166015,-0.18946 -0.380779,-0.13813 -0.583105,-0.002 -0.779297,-0.45312 -0.226446,0.0807 -0.456182,0.0145 -0.798828,-0.26172 -0.401771,-0.0964 -0.944313,-0.14339 -1.285156,-0.43555 -0.37737,-0.40407 -0.722543,-0.55731 -1.170368,-0.63136 -0.381153,-0.44948 -0.858302,-0.34017 -1.329969,-0.47013 -0.486677,-0.0845 -0.859344,-0.50211 -1.357085,-0.48249 -0.472592,-0.26204 -0.957192,-0.33197 -1.431053,-0.0703 -0.4103,0.2341 -0.934976,-0.28951 -1.393739,-0.0296 -0.514314,0.18858 -0.428635,0.85103 -0.827791,1.17056 -0.302009,0.45145 -0.995057,0.13218 -1.31812,0.58362 -0.281581,0.28701 -0.817262,0.56754 -1.117188,0.46094 -0.431498,0.34531 -0.943727,-0.1178 -1.362046,-0.29702 -0.438924,0.0273 -1.059426,0.0361 -1.270766,-0.45298 -0.286235,-0.59201 -0.04486,-1.24552 0.146484,-1.82812 0.08749,-0.41343 -0.231016,-0.90853 -0.701172,-0.74024 z m 0.630859,0.16016 c 0.0344,0.0888 0.07872,-0.0812 0,0 z m 6.783204,0.66211 c -0.0055,0.41608 0.155444,-0.19016 0.0053,-0.008 z m -1.867188,0.55664 c -0.184694,-0.0182 -0.131872,-0.013 0,0 z m -5.109375,0.17969 c -0.0076,0.11668 -0.115422,-0.13438 0,0 z m 4.810547,0.11132 c 0.112263,0.19527 0.243622,-0.0784 0,0 z m -0.09375,0.15625 c 0.101489,-0.0743 -0.244636,-0.0765 0,0 z m 0.06055,-0.0488 c -0.07504,0.0272 0.03658,0.0317 0,0 z m -8.662109,0.18164 c -0.121284,0.22726 0.08179,-0.0314 0,0 z m 5.089843,0.75586 c 0.03454,0.0622 0.08054,-0.14977 0,0 z m 2.195313,0.0254 0.02734,-0.0332 z m -1.126953,0.27539 0.0332,-0.0605 z m 0.07813,0.0195 -0.06445,-0.0176 z m 1.689453,0.0469 c 0.192708,0.1579 -0.267094,-0.0135 0,0 z m -1.804688,0.0996 c 0.222003,0.13619 -0.02054,-0.24293 0,0 z m 5.97461,0.0996 c 0.118851,-0.14856 0.09173,-0.11466 0,0 z m -5.38086,-0.0215 -0.03125,-0.0352 z m -5.238281,0.14844 c 0.06291,0.2381 -0.06054,-0.36366 0,0 z m 5.875,-0.0859 c 0.26336,0.25227 -0.169808,0.1276 0,0 z m -5.582031,0.15625 c -0.09317,-0.14973 -0.04858,-0.0781 0,0 z m 5.867187,-0.0312 c -0.05479,0.18511 -0.132894,-0.0813 0,0 z m 3.664063,0.004 c 0.07232,0.14907 -0.376912,0.3078 0.03734,0.15122 0.02174,-0.13141 0.336794,-0.20235 0.01817,-0.1678 z m 7.08789,0.0156 c 0.16363,0.0632 0.229859,-0.14992 0,0 z m -10.859375,0.0937 c 0.19744,0.16833 -0.215652,-0.0203 0,0 z m 3.646485,0.0449 c 0.01626,0.014 0.0025,-0.0413 0,0 z m -0.271485,0.27735 0.0059,-0.0957 z m -2.359375,0.043 c -0.326159,0.23512 0.02608,-0.19072 0,0 z m -2.626953,0.36719 c 0.0049,0.16516 -0.189712,0.0351 0,0 z m 2.826172,0.20117 c 0.06438,0.17987 0.168077,-0.12828 0,0 z m -0.107422,0.0723 c 0.161099,0.0742 0.131533,-0.0423 0,0 z"
       sodipodi:nodetypes="ccccccc"
       inkscape:connector-curvature="0" />
    <path
       id="path16"
       style="fill:#9dac93;stroke:none;stroke-width:0.26458299px;stroke-linecap:butt;stroke-linejoin:miter;stroke-opacity:1"
       d="m 45.275391,50.251953 c -0.469398,0.107407 -1.012922,0.253011 -1.287537,0.683766 -0.190378,0.484115 -0.07776,0.956308 0.05076,1.442844 0.2144,0.318813 0.827089,0.509536 1.186,0.156593 0.461174,-0.198604 0.951724,0.08858 1.37133,-0.195262 0.441221,-0.267993 0.277665,-0.847246 -0.039,-1.163819 -0.345968,-0.326267 -0.581498,-0.967553 -1.129676,-0.931126 -0.04817,-0.0271 -0.101056,0.0024 -0.151868,0.007 z"
       sodipodi:nodetypes="cc"
       inkscape:connector-curvature="0" />
    <path
       id="path18"
       style="fill:#8dd35f;stroke:none;stroke-width:0.26458299px;stroke-linecap:butt;stroke-linejoin:miter;stroke-opacity:1"
       d="m 54.347656,39.507812 c -0.560974,0.489342 -1.14748,0.988463 -1.544043,1.634425 -0.349421,0.580311 -0.580963,1.259231 -1.143269,1.683188 -0.370296,0.296189 -0.844812,0.548618 -1.330266,0.498794 -0.60517,-0.147367 -0.861995,-0.916011 -1.517578,-0.947266 -0.697682,0.127349 -0.857795,0.990572 -1.488281,1.232422 -0.483765,0.221438 -0.190373,0.691349 -0.07422,1.023437 -0.08809,0.331235 -0.289382,0.914807 0.293601,0.861131 0.885192,0.105109 1.612302,-0.54523 2.45054,-0.702927 0.533221,-0.150799 1.07495,-0.523455 1.173828,-1.105469 0.359579,-0.583575 1.066354,-0.20242 1.535156,-0.06641 0.628504,-0.163686 1.121243,-0.645906 1.75,-0.8125 0.532925,-0.323315 0.964466,-0.833622 1.123047,-1.44336 0.03683,-0.566895 -0.522269,-0.879198 -0.828125,-1.273437 -0.213662,-0.143083 -0.09586,-0.610099 -0.400391,-0.582032 z"
       sodipodi:nodetypes="cccc"
       inkscape:connector-curvature="0" />
    <path
       id="path20"
       style="fill:#8dd35f;stroke:none;stroke-width:0.26458299px;stroke-linecap:butt;stroke-linejoin:miter;stroke-opacity:1"
       d="m 81.738281,54.25 c -0.217007,0.124993 0.291771,-0.0069 0,0 z m -0.0293,0.207031 0.01758,-0.111328 z m -9.722656,0.25 c 0.137708,0.461421 0.241063,-0.02784 0,0 z m 7.988281,0.347657 c -0.63887,0.148741 -1.127088,0.418082 -1.791676,0.443215 -0.661537,-0.09338 -1.246676,0.318398 -1.820824,0.149253 -0.615095,0.105878 -1.249483,-0.183659 -1.900248,-0.05251 -0.674013,0.192665 -1.501016,-0.100868 -1.916956,0.200845 -0.481634,0.232529 -0.811547,0.973357 -0.714365,1.381062 0.05384,0.693936 0.273342,1.486135 0.818829,1.967005 0.369825,0.493831 0.861092,0.259429 1.106821,0.723555 0.666008,0.02689 1.039207,0.44902 1.458166,0.757397 0.581915,0.203326 0.954492,0.781002 1.572211,1.041031 0.47849,0.33694 0.979112,0.693427 1.246636,1.059066 -0.225341,0.341541 0.194483,0.809047 -0.533918,0.99703 -0.506779,0.29161 -0.878437,0.116795 -1.495379,0.170939 -0.663767,0.515861 -1.154102,0.01115 -1.705382,0.01516 -0.487579,0.540867 -0.948635,-0.45446 -1.61309,-0.157701 -0.718275,0.181203 -1.42027,0.005 -2.075897,0.113654 -0.623048,-0.40279 -1.274121,-0.159638 -1.945475,-0.23088 -0.605074,-0.287176 -0.892259,-0.668576 -1.288513,-1.145728 -0.233253,-0.412803 -0.275014,-1.102445 0.08737,-1.678651 0.253572,-0.503065 0.985528,-0.499035 1.39841,-0.99398 0.478228,-0.469016 0.875785,-0.831432 1.017578,-1.152344 0.255799,-0.113524 0.03067,-1.012985 -0.505859,-0.925781 -0.753541,-0.119532 -1.412392,0.324799 -2.158564,0.289718 -0.703046,-0.156429 -1.300749,0.206818 -1.982526,0.211962 -0.663898,-0.03961 -1.154738,0.31096 -1.673363,0.642851 -0.642345,0.331997 -1.218554,0.638313 -1.879074,0.811951 -0.604105,0.04498 -1.273827,-0.0087 -1.727635,0.477172 -0.600568,0.466237 -0.973205,1.131629 -1.651597,1.524319 -0.536879,0.410567 -0.955579,0.931419 -1.435079,1.377701 -0.588471,0.638175 -0.162347,0.528047 0.326197,0.238545 0.555853,-0.135294 0.970675,0.528181 0.540951,0.93744 -0.544177,0.304274 -1.376689,0.439478 -1.076107,1.269591 0.431191,0.398256 1.153522,0.270485 1.648438,0.414063 0.681894,0.107497 0.670368,1.048125 1.287109,1.269531 0.325609,0.665972 0.902946,0.987984 1.350524,1.509416 0.418959,0.60873 1.347968,0.0027 1.55182,0.355818 0.544223,0.02038 0.549163,0.945095 0.687376,1.455888 0.125833,0.828006 0.728683,0.632478 1.187049,0.650311 0.514732,-0.02161 1.183265,-0.05969 1.289637,0.653567 0.580723,0.165262 0.906798,-0.412863 1.524237,-0.562855 0.707506,-0.472761 0.88414,0.09327 1.293135,-0.329673 0.467925,0.111985 1.207519,0.3829 1.449728,0.429443 -0.07559,-0.133729 0.275167,-0.365677 0.135244,-0.55254 0.216887,-0.15644 0.844014,-0.319937 1.105469,-0.160156 0.393771,0.245118 0.872361,-0.02233 0.628933,-0.16284 0.431029,0.03175 0.605755,-1.082188 1.244113,-0.581301 -0.241509,0.06873 0.801455,0.423656 0.980469,0.148438 0.0051,-0.798059 0.971857,-0.182037 1.501953,-0.25 -0.01564,-0.587805 0.379607,-0.329459 0.302735,-0.365235 0.405866,-0.404898 0.523171,-0.255395 1.019257,-0.6987 0.534378,-0.297502 0.674417,0.04347 1.032927,-0.5598 0.233138,-0.394394 0.508094,-0.692901 0.937697,-0.281857 0.432694,0.607096 0.345858,-0.215575 0.738634,0.39192 -0.05067,-0.417649 0.0068,0.881596 0.0625,0.242187 -0.236894,0.521205 -0.948798,0.888648 0.0957,1.009766 0.277697,0.730388 1.037581,0.187682 1.303811,0.328898 0.504763,0.128902 0.819317,0.319098 0.977439,-0.391398 0.393214,-0.299057 1.103905,-0.245363 1.484529,-0.677542 0.587149,-0.18954 1.233909,-0.442744 1.786955,-0.103708 0.698457,0.02339 1.119458,-0.432104 1.59375,-0.775391 0.491941,-0.466562 0.60857,-1.137739 0.861328,-1.742187 0.248727,-0.662168 0.997731,-1.161058 0.693359,-1.888672 -0.186068,-0.704227 -0.790591,-1.153462 -1.152343,-1.804688 -0.583421,-0.880714 -1.316985,-1.633542 -1.963124,-2.467737 -0.541881,-0.463158 -0.726314,-1.222725 -1.382392,-1.537216 -0.348812,-0.596517 -0.761394,-1.186809 -1.318547,-1.608328 -0.260912,-0.663758 -0.634098,-1.332244 -1.117187,-1.845703 -0.46239,-0.56701 -0.949296,-0.09772 -1.503907,0.02539 z m -7.242187,-0.03906 c -0.247271,-0.08713 -0.207675,-0.07318 0,0 z m -2.748047,2.162109 c -0.146674,-0.291125 -0.184422,-0.366048 0,0 z m 0.917969,1.394532 c 0.18046,-0.330335 0.128255,-0.234772 0,0 z m 0.882812,1.103515 c -0.02181,-0.32275 -0.02805,-0.415141 0,0 z m -2.078125,0.212891 0.0059,-0.08984 z m 7.398438,3.865234 c 0.173981,0.0478 -0.119529,-0.190222 0,0 z m 0.179687,0.125 c 0.220487,0.457215 -0.275564,-0.132238 0,0 z m 1.886719,3.626953 c 0.1962,0.167788 -0.362069,0.03397 0.02148,-0.03906 z m -0.248047,0.117188 c -0.07367,0.09536 0.0016,-0.188959 0,0 z m 0.01953,0.03711 c -0.06618,0.224839 -0.10303,-0.09717 0,0 z m 0.02539,0.0059 c 0.07085,0.193302 -0.227749,0.177026 0,0 z m 0.464844,0.318359 c 0.0397,0.237349 -0.242446,-0.1112 0,0 z m 0.873047,0.800781 c 0.169154,0.0029 -0.398966,0.08373 0.07453,0.168549 0.367266,0.03222 0.865723,-0.09452 0.495017,0.254655 -0.556387,-0.01666 -0.108041,0.339434 -0.635956,0.0182 0.191668,0.02569 -0.497555,-0.202771 0.0918,-0.140624 -0.282973,-0.179132 -0.273905,-0.369871 -0.02539,-0.300782 z m -0.353516,0.208985 c -0.26241,0.223886 -0.07193,-0.414978 0,0 z m 0.318359,-0.142579 c -0.01084,0.01243 -0.0069,-0.02067 0,0 z m 0.482422,0.322266 c 0.16155,-0.02133 0.147708,-0.205134 0,0 z m -0.652344,0.0918 c 0.18128,0.165391 -0.228172,-0.172069 0,0 z m -0.06055,0.1875 c -0.04663,0.01818 0.0026,-0.01496 0,0 z m 5.308593,0.259766 c 0.08277,-0.353908 0.06788,-0.290262 0,0 z M 75.560538,69.5645 c -0.115508,0.06692 0.0042,-0.263202 0,0 z m -3.662109,1.144531 c 0.05076,0.02665 -0.0046,-0.05148 0,0 z m -1.748047,0.177735 c 0.07882,0.27721 0.297342,-0.163482 0,0 z m -2.634766,0.646484 c -0.139451,-0.310706 -0.155337,-0.346102 0,0 z"
       sodipodi:nodetypes="ccccccccccccc"
       inkscape:connector-curvature="0" />
    <path
       id="path22"
       style="fill:#bec8b7;stroke:none;stroke-width:0.26458299px;stroke-linecap:butt;stroke-linejoin:miter;stroke-opacity:1"
       d="m 83.476562,46.035156 -0.05859,-0.0059 z m -0.478515,0.681641 c -0.368305,-0.02186 -0.929009,0.283379 -0.867188,0.726562 0.02321,0.348589 -0.367659,0.79461 -0.237853,1.163619 0.09774,0.147901 -0.108717,0.185443 0.193817,0.354697 0.374836,0.129543 0.289616,0.395046 0.62931,0.497101 0.465331,0.09705 0.948013,-0.171356 1.309258,-0.427526 0.362969,-0.271498 0.520277,-0.744382 0.332031,-1.150391 -0.08978,-0.474721 -0.257198,-1.011703 -0.796875,-1.117187 -0.170997,-0.05926 -0.429798,-0.158064 -0.5625,-0.04687 z m 1.779297,1.431641 -0.04687,-0.0293 z m -3.494141,1.173828 -0.05469,-0.06055 z"
       sodipodi:nodetypes="ccc"
       inkscape:connector-curvature="0" />
    <path
       id="path24"
       style="fill:#bec8b7;stroke:none;stroke-width:0.26458299px;stroke-linecap:butt;stroke-linejoin:miter;stroke-opacity:1"
       d="m 67.365234,21.933594 c -0.78838,0.07363 -1.569449,0.27183 -2.279296,0.626953 -0.364425,0.246335 -0.19029,0.932593 0.257812,0.951172 -0.298197,0.467227 -0.657859,1.088041 -0.333984,1.630859 0.33845,0.486137 1.076924,0.472407 1.483267,0.07886 0.349904,-0.371535 0.85141,-0.173967 1.280405,-0.287846 0.403682,-0.276732 0.414954,-0.866891 0.664062,-1.265625 -0.06694,-0.372812 -0.27607,-0.734918 -0.150391,-1.115235 -0.07428,-0.412804 -0.528046,-0.657015 -0.921875,-0.61914 z"
       sodipodi:nodetypes="ccc"
       inkscape:connector-curvature="0" />
    <path
       id="path26"
       style="fill:#8dd35f;stroke:none;stroke-width:0.26458299px;stroke-linecap:butt;stroke-linejoin:miter;stroke-opacity:1"
       d="m 59.988281,75.441406 c -0.519773,0.07716 -1.13509,0.09803 -1.534885,0.45799 -0.420954,0.263636 -0.802999,0.603946 -1.301395,0.719345 -0.465411,0.102645 -0.568478,0.872085 -0.07192,0.939853 0.355831,0.134184 0.697941,-0.05448 0.92115,-0.238936 0.20207,0.05587 0.477655,-0.04892 0.512444,0.194014 0.429292,-0.161559 0.814545,-0.730239 1.27539,-0.501953 0.300964,-0.31318 0.538981,-0.35795 0.878907,-0.625 0.09878,0.05833 0.224515,-0.07923 0.335937,0.123047 0.06794,-0.26374 0.263933,-0.03074 0.300782,-0.25586 0.158744,-0.166587 0.260054,0.289105 0.285156,-0.07813 0.220325,-0.09425 0.206504,-0.859882 -0.02539,-0.466797 -0.194436,-0.253041 -0.65461,-0.01292 -1.007812,-0.177734 -0.220854,0.06236 -0.367869,-0.230728 -0.56836,-0.08984 z"
       sodipodi:nodetypes="ccc"
       inkscape:connector-curvature="0" />
    <circle
       style="fill:#c83737;stroke:none;stroke-width:0.26458299"
       id="path862-3"
       cx="83.381905"
       cy="48.329464"
       r="0.79605013" />
    <circle
       style="fill:#c83737;stroke:none;stroke-width:0.26458299"
       id="path862-6"
       cx="45.563267"
       cy="51.536697"
       r="0.79605013" />
    <circle
       style="fill:#c83737;stroke:none;stroke-width:0.26458299"
       id="path862-7"
       cx="65.998558"
       cy="24.215973"
       r="0.79605013" />
    <circle
       style="fill:#c83737;stroke:none;stroke-width:0.26458299"
       id="path862-5"
       cx="50.908657"
       cy="105.12424"
       r="0.79605013" />
    <circle
       style="fill:#c83737;stroke:none;stroke-width:0.26458299"
       id="path862-35"
       cx="71.488411"
       cy="117.41864"
       r="0.79605013" />
    <text
       xml:space="preserve"
       id="text920"
       style="font-size:4.23333px;line-height:1.25;font-family:sans-serif;white-space:pre;shape-inside:url(#rect922)" />
    <path
       style="fill:#9dac93;fill-opacity:1;stroke:none;stroke-width:0.26458332px;stroke-linecap:butt;stroke-linejoin:miter;stroke-opacity:1"
       d="m 29.459343,27.095802 c -0.545298,1.590449 -2.599692,1.04317 -3.49625,1.606388 -1.253463,1.140219 1.230386,1.493259 1.606371,0.66145 0.464122,-0.244265 1.819835,0.646055 2.267823,-0.472462 0.817621,-0.743934 -0.700378,-0.965616 -0.377944,-1.795376 z m 5.386161,-5.858631 c -0.05249,1.56506 2.454288,1.22129 1.889848,-1.3e-5 -0.733912,-0.20846 -1.264616,0.451197 -1.889848,1.3e-5 z m 14.741072,-2.740327 c 1.189174,1.293593 0.239071,-1.1056 -0.377977,8e-6 h 0.255715 0.122261 z M 76.895354,32.19848 c 3.937985,0.502585 0.120242,-2.554329 0,0 z m 4.346728,-8.88244 c 0.697977,0.640998 1.540341,0.6404 0.292934,-0.25513 l -0.292933,0.255134 z m 2.078869,14.74107 c 2.529563,-0.329414 -0.960139,-2.472884 3e-6,-1e-6 z m 22.489579,47.436013 c 2.41257,0.526216 -0.54071,-2.140296 0,0 z m 3.68527,-4.063243 c 0.70385,1.767765 1.96415,-1.198194 0.37801,-0.377978 l -0.0945,0.0945 -0.28348,0.283483 z m -24.190475,5.38616 c -1.500779,2.081723 2.980009,0.62865 0,0 z m 15.402525,-0.944941 c -1.311244,0.78417 1.85242,1.230757 1.0395,0.283493 -0.27988,-0.212477 -0.67931,-0.980345 -1.0395,-0.283493 z M 86.34476,112.51842 c -0.508845,1.98767 1.767874,0.22321 0.377969,0 0.353969,0 -0.383977,0 -0.377969,0 z m 4.724701,-8.97693 c -1.262195,0.33494 -1.894923,1.78105 -0.09451,1.13394 0.359894,-0.24354 0.172824,-0.7867 0.09451,-1.13394 z m -11.339285,3.96875 c -1.621842,1.28187 1.589113,2.03413 0.762522,0.39411 -0.123211,-0.45251 -0.667776,0.21008 -0.762522,-0.39411 z"
       id="path943"
       inkscape:connector-curvature="0" />
    <text
       xml:space="preserve"
       transform="matrix(0.26458333,0,0,0.26458333,3.7381261,9.4085684)"
       id="text2716"
       style="font-style:normal;font-weight:normal;font-size:13.3333px;line-height:1.25;font-family:sans-serif;white-space:pre;shape-inside:url(#rect2718);fill:#000000;fill-opacity:1;stroke:none"><tspan
         x="38.197266"
         y="495.43972"
         id="tspan52018">Учёные Ордена долгое время безуспешно искали описанный Костром </tspan><tspan
         x="38.197266"
         y="512.10634"
         id="tspan52020">архипелаг и наконец пришли к выводу, что речь идёт о микроконтиненте </tspan><tspan
         x="38.197266"
         y="528.77297"
         id="tspan52022">Морской Ёж. За более чем десять тысяч дождей вулканическая </tspan><tspan
         x="38.197266"
         y="545.43959"
         id="tspan52024">деятельность превратила архипелаг в континент.
</tspan><tspan
         x="38.197266"
         y="562.10622"
         id="tspan52026"> 
</tspan><tspan
         x="38.197266"
         y="578.77285"
         id="tspan52028">На карте также современные очертания Морского Ежа, наложенные на </tspan><tspan
         x="38.197266"
         y="595.43947"
         id="tspan52030">нарисованную Костром карту. Причин сомневаться в точности карты нет -- </tspan><tspan
         x="38.197266"
         y="612.1061"
         id="tspan52032">по словам Костра, он использовал минидрон, гиронавигатор и </tspan><tspan
         x="38.197266"
         y="628.77272"
         id="tspan52034">дальномеры. Дрон был сбит аборигенами над Коварным - технология тси </tspan><tspan
         x="38.197266"
         y="645.43935"
         id="tspan52036">прекрасно была приспособлена к климатическим особенностям, но не к  </tspan><tspan
         x="38.197266"
         y="662.10598"
         id="tspan52038">деревянным копьям с обсидиановыми наконечниками.
</tspan><tspan
         x="38.197266"
         y="678.7726"
         id="tspan52040">
</tspan><tspan
         x="38.197266"
         y="695.43923"
         id="tspan52042">В настоящее время континент необитаем. Никаких следов пребывания на </tspan><tspan
         x="38.197266"
         y="712.10585"
         id="tspan52044">нём людей не обнаружено, за исключением следов использования </tspan><tspan
         x="38.197266"
         y="728.77248"
         id="tspan52046">плазменных технологий на шхере Коленка - первом месте стоянки Костра. </tspan></text>
    <path
       style="fill:#9dac93;stroke:none;stroke-width:0.264583px;stroke-linecap:butt;stroke-linejoin:miter;stroke-opacity:1;fill-opacity:1"
       d="m 123.42192,110.70271 c -0.4451,-0.27111 -1.32576,0.32687 -1.31364,0.8479 0.0105,0.44942 0.76585,0.883 1.16587,0.67789 0.45469,-0.23314 0.58417,-1.25998 0.14777,-1.52579 z"
       id="path32711"
       sodipodi:nodetypes="ssss" />
    <path
       style="display:inline;fill:#9dac93;fill-opacity:1;stroke:none;stroke-width:0.264583px;stroke-linecap:butt;stroke-linejoin:miter;stroke-opacity:1"
       d="m 86.694857,104.97671 c -0.4451,-0.27111 -1.32576,0.32687 -1.31364,0.8479 0.0105,0.44942 0.76585,0.883 1.16587,0.67789 0.45469,-0.23314 0.58417,-1.25998 0.14777,-1.52579 z"
       id="path32711-3"
       sodipodi:nodetypes="ssss" />
    <path
       style="display:inline;fill:#9dac93;fill-opacity:1;stroke:none;stroke-width:0.264583px;stroke-linecap:butt;stroke-linejoin:miter;stroke-opacity:1"
       d="m 91.305256,105.77852 c -0.4451,-0.27111 -1.32576,0.32687 -1.31364,0.8479 0.0105,0.44942 0.76585,0.883 1.16587,0.67789 0.45469,-0.23314 0.58417,-1.25998 0.14777,-1.52579 z"
       id="path32711-5"
       sodipodi:nodetypes="ssss" />
    <path
       style="display:inline;fill:#9dac93;fill-opacity:1;stroke:none;stroke-width:0.264583px;stroke-linecap:butt;stroke-linejoin:miter;stroke-opacity:1"
       d="m 86.962127,88.33918 c -0.4451,-0.27111 -1.32576,0.32687 -1.31364,0.8479 0.0105,0.44942 0.76585,0.883 1.16587,0.67789 0.45469,-0.23314 0.58417,-1.25998 0.14777,-1.52579 z"
       id="path32711-6"
       sodipodi:nodetypes="ssss" />
    <path
       style="display:inline;fill:#9dac93;fill-opacity:1;stroke:none;stroke-width:0.264583px;stroke-linecap:butt;stroke-linejoin:miter;stroke-opacity:1"
       d="m 89.233918,88.071911 c -0.4451,-0.27111 -1.32576,0.32687 -1.31364,0.8479 0.0105,0.44942 0.76585,0.883 1.16587,0.67789 0.45469,-0.23314 0.58417,-1.25998 0.14777,-1.52579 z"
       id="path32711-2"
       sodipodi:nodetypes="ssss" />
    <path
       style="display:inline;fill:#9dac93;fill-opacity:1;stroke:none;stroke-width:0.264583px;stroke-linecap:butt;stroke-linejoin:miter;stroke-opacity:1"
       d="m 96.411415,59.652829 c -0.4451,-0.27111 -1.32576,0.32687 -1.31364,0.8479 0.0105,0.44942 0.76585,0.883 1.16587,0.67789 0.45469,-0.23314 0.58417,-1.25998 0.14777,-1.52579 z"
       id="path32711-2-4"
       sodipodi:nodetypes="ssss" />
    <path
       style="display:inline;fill:#9dac93;fill-opacity:1;stroke:none;stroke-width:0.264583px;stroke-linecap:butt;stroke-linejoin:miter;stroke-opacity:1"
       d="m 99.813201,64.755508 c -0.4451,-0.27111 -1.32576,0.32687 -1.31364,0.8479 0.0105,0.44942 0.76585,0.883 1.16587,0.67789 0.454689,-0.23314 0.584169,-1.25998 0.14777,-1.52579 z"
       id="path32711-2-3"
       sodipodi:nodetypes="ssss" />
    <path
       style="display:inline;fill:#9dac93;fill-opacity:1;stroke:none;stroke-width:0.264583px;stroke-linecap:butt;stroke-linejoin:miter;stroke-opacity:1"
       d="m 109.26261,39.620091 c -0.4451,-0.27111 -1.32576,0.32687 -1.31364,0.8479 0.0105,0.44942 0.76585,0.883 1.16587,0.67789 0.45469,-0.23314 0.58417,-1.25998 0.14777,-1.52579 z"
       id="path32711-2-1"
       sodipodi:nodetypes="ssss" />
    <path
       style="display:inline;fill:#9dac93;fill-opacity:1;stroke:none;stroke-width:0.264583px;stroke-linecap:butt;stroke-linejoin:miter;stroke-opacity:1"
       d="m 124.75963,27.713841 c -0.4451,-0.27111 -1.32576,0.32687 -1.31364,0.8479 0.0105,0.44942 0.76585,0.883 1.16587,0.67789 0.45469,-0.23314 0.58417,-1.25998 0.14777,-1.52579 z"
       id="path32711-2-49"
       sodipodi:nodetypes="ssss" />
    <path
       style="display:inline;fill:#9dac93;fill-opacity:1;stroke:none;stroke-width:0.264583px;stroke-linecap:butt;stroke-linejoin:miter;stroke-opacity:1"
       d="m 93.309778,105.64488 c -0.4451,-0.27111 -1.32576,0.32687 -1.31364,0.8479 0.0105,0.44942 0.76585,0.883 1.16587,0.67789 0.45469,-0.23314 0.58417,-1.25998 0.14777,-1.52579 z"
       id="path32711-9"
       sodipodi:nodetypes="ssss" />
    <path
       style="display:inline;fill:#9dac93;fill-opacity:1;stroke:none;stroke-width:0.264583px;stroke-linecap:butt;stroke-linejoin:miter;stroke-opacity:1"
       d="m 101.99604,103.90763 c -0.4451,-0.27111 -1.32576,0.32687 -1.31364,0.8479 0.0105,0.44942 0.76585,0.883 1.16587,0.67789 0.45469,-0.23314 0.58417,-1.25998 0.14777,-1.52579 z"
       id="path32711-1"
       sodipodi:nodetypes="ssss" />
    <path
       style="display:inline;fill:#9dac93;fill-opacity:1;stroke:none;stroke-width:0.264583px;stroke-linecap:butt;stroke-linejoin:miter;stroke-opacity:1"
       d="m 103.3992,86.401476 c -0.4451,-0.27111 -1.32576,0.32687 -1.31364,0.8479 0.0105,0.44942 0.76585,0.883 1.16587,0.67789 0.45469,-0.23314 0.58417,-1.25998 0.14777,-1.52579 z"
       id="path32711-27"
       sodipodi:nodetypes="ssss" />
    <path
       style="display:inline;fill:#9dac93;fill-opacity:1;stroke:none;stroke-width:0.264583px;stroke-linecap:butt;stroke-linejoin:miter;stroke-opacity:1"
       d="m 104.40146,83.127424 c -0.4451,-0.27111 -1.32576,0.32687 -1.31364,0.8479 0.0105,0.44942 0.76585,0.883 1.16587,0.67789 0.45469,-0.23314 0.58417,-1.25998 0.14777,-1.52579 z"
       id="path32711-0"
       sodipodi:nodetypes="ssss" />
    <path
       style="display:inline;fill:#9dac93;fill-opacity:1;stroke:none;stroke-width:0.264583px;stroke-linecap:butt;stroke-linejoin:miter;stroke-opacity:1"
       d="m 113.48863,82.526068 c -0.4451,-0.27111 -1.32576,0.32687 -1.31364,0.8479 0.0105,0.44942 0.76585,0.883 1.16587,0.67789 0.45469,-0.23314 0.58417,-1.25998 0.14777,-1.52579 z"
       id="path32711-93"
       sodipodi:nodetypes="ssss" />
    <path
       style="display:inline;fill:#9dac93;fill-opacity:1;stroke:none;stroke-width:0.264583px;stroke-linecap:butt;stroke-linejoin:miter;stroke-opacity:1"
       d="m 116.69586,76.312051 c -0.4451,-0.27111 -1.32576,0.32687 -1.31364,0.8479 0.0105,0.44942 0.76585,0.883 1.16587,0.67789 0.45469,-0.23314 0.58417,-1.25998 0.14777,-1.52579 z"
       id="path32711-60"
       sodipodi:nodetypes="ssss" />
    <path
       style="display:inline;fill:#9dac93;fill-opacity:1;stroke:none;stroke-width:0.264583px;stroke-linecap:butt;stroke-linejoin:miter;stroke-opacity:1"
       d="m 113.62226,71.634835 c -0.4451,-0.27111 -1.32576,0.32687 -1.31364,0.8479 0.0105,0.44942 0.76585,0.883 1.16587,0.67789 0.45469,-0.23314 0.58417,-1.25998 0.14777,-1.52579 z"
       id="path32711-62"
       sodipodi:nodetypes="ssss" />
    <path
       style="display:inline;fill:#9dac93;fill-opacity:1;stroke:none;stroke-width:0.264583px;stroke-linecap:butt;stroke-linejoin:miter;stroke-opacity:1"
       d="m 108.61096,71.5012 c -0.4451,-0.27111 -1.32576,0.32687 -1.31364,0.8479 0.0105,0.44942 0.76585,0.883 1.16587,0.67789 0.45469,-0.23314 0.58417,-1.25998 0.14777,-1.52579 z"
       id="path32711-61"
       sodipodi:nodetypes="ssss" />
    <path
       style="display:inline;fill:#9dac93;fill-opacity:1;stroke:none;stroke-width:0.264583px;stroke-linecap:butt;stroke-linejoin:miter;stroke-opacity:1"
       d="m 110.34821,67.091253 c -0.4451,-0.27111 -1.32576,0.32687 -1.31364,0.8479 0.0105,0.44942 0.76585,0.883 1.16587,0.67789 0.45469,-0.23314 0.58417,-1.25998 0.14777,-1.52579 z"
       id="path32711-8"
       sodipodi:nodetypes="ssss" />
    <path
       style="display:inline;fill:#9dac93;fill-opacity:1;stroke:none;stroke-width:0.264583px;stroke-linecap:butt;stroke-linejoin:miter;stroke-opacity:1"
       d="m 112.28591,68.628053 c -0.4451,-0.27111 -1.32576,0.32687 -1.31364,0.8479 0.0105,0.44942 0.76585,0.883 1.16587,0.67789 0.45469,-0.23314 0.58417,-1.25998 0.14777,-1.52579 z"
       id="path32711-7"
       sodipodi:nodetypes="ssss" />
    <path
       style="display:inline;fill:#9dac93;fill-opacity:1;stroke:none;stroke-width:0.264583px;stroke-linecap:butt;stroke-linejoin:miter;stroke-opacity:1"
       d="m 94.178404,115.93476 c -0.4451,-0.27111 -1.32576,0.32687 -1.31364,0.8479 0.0105,0.44942 0.76585,0.883 1.16587,0.67789 0.45469,-0.23314 0.58417,-1.25998 0.14777,-1.52579 z"
       id="path32711-92"
       sodipodi:nodetypes="ssss" />
    <path
       style="display:inline;fill:#9dac93;fill-opacity:1;stroke:none;stroke-width:0.264583px;stroke-linecap:butt;stroke-linejoin:miter;stroke-opacity:1"
       d="m 119.96991,85.332398 c -0.4451,-0.27111 -1.32576,0.32687 -1.31364,0.8479 0.0105,0.44942 0.76585,0.883 1.16587,0.67789 0.45469,-0.23314 0.58417,-1.25998 0.14777,-1.52579 z"
       id="path32711-02"
       sodipodi:nodetypes="ssss" />
    <path
       style="display:inline;fill:#9dac93;fill-opacity:1;stroke:none;stroke-width:0.264583px;stroke-linecap:butt;stroke-linejoin:miter;stroke-opacity:1"
       d="m 79.21131,117.13747 c -0.4451,-0.27111 -1.32576,0.32687 -1.31364,0.8479 0.0105,0.44942 0.76585,0.883 1.16587,0.67789 0.45469,-0.23314 0.58417,-1.25998 0.14777,-1.52579 z"
       id="path32711-37"
       sodipodi:nodetypes="ssss" />
    <path
       style="display:inline;fill:#9dac93;fill-opacity:1;stroke:none;stroke-width:0.264583px;stroke-linecap:butt;stroke-linejoin:miter;stroke-opacity:1"
       d="m 88.966648,113.12843 c -0.4451,-0.27111 -1.32576,0.32687 -1.31364,0.8479 0.0105,0.44942 0.76585,0.883 1.16587,0.67789 0.45469,-0.23314 0.58417,-1.25998 0.14777,-1.52579 z"
       id="path32711-59"
       sodipodi:nodetypes="ssss" />
    <path
       style="display:inline;fill:#9dac93;fill-opacity:1;stroke:none;stroke-width:0.264583px;stroke-linecap:butt;stroke-linejoin:miter;stroke-opacity:1"
       d="m 84.423066,107.78304 c -0.4451,-0.27111 -1.32576,0.32687 -1.31364,0.8479 0.0105,0.44942 0.76585,0.883 1.16587,0.67789 0.45469,-0.23314 0.58417,-1.25998 0.14777,-1.52579 z"
       id="path32711-22"
       sodipodi:nodetypes="ssss" />
    <path
       style="display:inline;fill:#9dac93;fill-opacity:1;stroke:none;stroke-width:0.264583px;stroke-linecap:butt;stroke-linejoin:miter;stroke-opacity:1"
       d="m 92.574787,46.979221 c -0.4451,-0.27111 -1.32576,0.32687 -1.31364,0.8479 0.0105,0.44942 0.76585,0.883 1.16587,0.67789 0.45469,-0.23314 0.58417,-1.25998 0.14777,-1.52579 z"
       id="path32711-89"
       sodipodi:nodetypes="ssss" />
    <path
       style="display:inline;fill:#9dac93;fill-opacity:1;stroke:none;stroke-width:0.264583px;stroke-linecap:butt;stroke-linejoin:miter;stroke-opacity:1"
       d="m 86.962126,46.979221 c -0.4451,-0.27111 -1.32576,0.32687 -1.31364,0.8479 0.0105,0.44942 0.76585,0.883 1.16587,0.67789 0.45469,-0.23314 0.58417,-1.25998 0.14777,-1.52579 z"
       id="path32711-73"
       sodipodi:nodetypes="ssss" />
    <path
       style="display:inline;fill:#9dac93;fill-opacity:1;stroke:none;stroke-width:0.264583px;stroke-linecap:butt;stroke-linejoin:miter;stroke-opacity:1"
       d="m 87.496666,37.223883 c -0.4451,-0.27111 -1.32576,0.32687 -1.31364,0.8479 0.0105,0.44942 0.76585,0.883 1.16587,0.67789 0.45469,-0.23314 0.58417,-1.25998 0.14777,-1.52579 z"
       id="path32711-612"
       sodipodi:nodetypes="ssss" />
    <path
       style="display:inline;fill:#9dac93;fill-opacity:1;stroke:none;stroke-width:0.264583px;stroke-linecap:butt;stroke-linejoin:miter;stroke-opacity:1"
       d="m 90.035726,35.620266 c -0.4451,-0.27111 -1.32576,0.32687 -1.31364,0.8479 0.0105,0.44942 0.76585,0.883 1.16587,0.67789 0.45469,-0.23314 0.58417,-1.25998 0.14777,-1.52579 z"
       id="path32711-931"
       sodipodi:nodetypes="ssss" />
    <path
       style="display:inline;fill:#9dac93;fill-opacity:1;stroke:none;stroke-width:0.264583px;stroke-linecap:butt;stroke-linejoin:miter;stroke-opacity:1"
       d="m 99.657429,28.938528 c -0.4451,-0.27111 -1.32576,0.32687 -1.31364,0.8479 0.0105,0.44942 0.76585,0.883 1.16587,0.67789 0.45469,-0.23314 0.584171,-1.25998 0.14777,-1.52579 z"
       id="path32711-94"
       sodipodi:nodetypes="ssss" />
    <path
       style="display:inline;fill:#9dac93;fill-opacity:1;stroke:none;stroke-width:0.264583px;stroke-linecap:butt;stroke-linejoin:miter;stroke-opacity:1"
       d="m 92.975691,24.127676 c -0.4451,-0.27111 -1.32576,0.32687 -1.31364,0.8479 0.0105,0.44942 0.76585,0.883 1.16587,0.67789 0.45469,-0.23314 0.58417,-1.25998 0.14777,-1.52579 z"
       id="path32711-78"
       sodipodi:nodetypes="ssss" />
    <path
       style="display:inline;fill:#9dac93;fill-opacity:1;stroke:none;stroke-width:0.264583px;stroke-linecap:butt;stroke-linejoin:miter;stroke-opacity:1"
       d="m 88.565744,14.238704 c -0.4451,-0.27111 -1.32576,0.32687 -1.31364,0.8479 0.0105,0.44942 0.76585,0.883 1.16587,0.67789 0.45469,-0.23314 0.58417,-1.25998 0.14777,-1.52579 z"
       id="path32711-4"
       sodipodi:nodetypes="ssss" />
    <path
       style="display:inline;fill:#9dac93;fill-opacity:1;stroke:none;stroke-width:0.264583px;stroke-linecap:butt;stroke-linejoin:miter;stroke-opacity:1"
       d="m 95.782021,15.040512 c -0.4451,-0.27111 -1.32576,0.32687 -1.31364,0.8479 0.0105,0.44942 0.76585,0.883 1.16587,0.67789 0.45469,-0.23314 0.58417,-1.25998 0.14777,-1.52579 z"
       id="path32711-50"
       sodipodi:nodetypes="ssss" />
    <path
       style="display:inline;fill:#9dac93;fill-opacity:1;stroke:none;stroke-width:0.264583px;stroke-linecap:butt;stroke-linejoin:miter;stroke-opacity:1"
       d="m 95.113847,22.123155 c -0.4451,-0.27111 -1.32576,0.32687 -1.31364,0.8479 0.0105,0.44942 0.76585,0.883 1.16587,0.67789 0.45469,-0.23314 0.58417,-1.25998 0.14777,-1.52579 z"
       id="path32711-36"
       sodipodi:nodetypes="ssss" />
    <path
       style="display:inline;fill:#9dac93;fill-opacity:1;stroke:none;stroke-width:0.264583px;stroke-linecap:butt;stroke-linejoin:miter;stroke-opacity:1"
       d="m 56.818409,11.933335 c -0.4451,-0.27111 -1.32576,0.32687 -1.31364,0.8479 0.0105,0.44942 0.76585,0.883 1.16587,0.67789 0.45469,-0.23314 0.58417,-1.25998 0.14777,-1.52579 z"
       id="path32711-10"
       sodipodi:nodetypes="ssss" />
    <path
       style="display:inline;fill:#9dac93;fill-opacity:1;stroke:none;stroke-width:0.264583px;stroke-linecap:butt;stroke-linejoin:miter;stroke-opacity:1"
       d="m 53.511118,14.768157 c -0.4451,-0.27111 -1.32576,0.32687 -1.31364,0.8479 0.0105,0.44942 0.76585,0.883 1.16587,0.67789 0.45469,-0.23314 0.58417,-1.25998 0.14777,-1.52579 z"
       id="path32711-63"
       sodipodi:nodetypes="ssss" />
    <path
       style="display:inline;fill:#9dac93;fill-opacity:1;stroke:none;stroke-width:0.264583px;stroke-linecap:butt;stroke-linejoin:miter;stroke-opacity:1"
       d="m 36.407695,18.547919 c -0.4451,-0.27111 -1.32576,0.32687 -1.31364,0.8479 0.0105,0.44942 0.76585,0.883 1.16587,0.67789 0.45469,-0.23314 0.58417,-1.25998 0.14777,-1.52579 z"
       id="path32711-20"
       sodipodi:nodetypes="ssss" />
    <path
       style="display:inline;fill:#9dac93;fill-opacity:1;stroke:none;stroke-width:0.264583px;stroke-linecap:butt;stroke-linejoin:miter;stroke-opacity:1"
       d="m 19.87124,21.477234 c -0.4451,-0.27111 -1.32576,0.32687 -1.31364,0.8479 0.0105,0.44942 0.76585,0.883 1.16587,0.67789 0.45469,-0.23314 0.58417,-1.25998 0.14777,-1.52579 z"
       id="path32711-615"
       sodipodi:nodetypes="ssss" />
    <path
       style="display:inline;fill:#9dac93;fill-opacity:1;stroke:none;stroke-width:0.264583px;stroke-linecap:butt;stroke-linejoin:miter;stroke-opacity:1"
       d="m 17.13091,13.44524 c -0.4451,-0.27111 -1.32576,0.32687 -1.31364,0.8479 0.0105,0.44942 0.76585,0.883 1.16587,0.67789 0.45469,-0.23314 0.58417,-1.25998 0.14777,-1.52579 z"
       id="path32711-76"
       sodipodi:nodetypes="ssss" />
    <path
       style="display:inline;fill:#9dac93;fill-opacity:1;stroke:none;stroke-width:0.264583px;stroke-linecap:butt;stroke-linejoin:miter;stroke-opacity:1"
       d="m 22.32808,18.075448 c -0.4451,-0.27111 -1.32576,0.32687 -1.31364,0.8479 0.0105,0.44942 0.76585,0.883 1.16587,0.67789 0.45469,-0.23314 0.58417,-1.25998 0.14777,-1.52579 z"
       id="path32711-56"
       sodipodi:nodetypes="ssss" />
    <path
       style="display:inline;fill:#9dac93;fill-opacity:1;stroke:none;stroke-width:0.264583px;stroke-linecap:butt;stroke-linejoin:miter;stroke-opacity:1"
       d="m 17.69787,30.265181 c -0.4451,-0.27111 -1.32576,0.32687 -1.31364,0.8479 0.0105,0.44942 0.76585,0.883 1.16587,0.67789 0.45469,-0.23314 0.58417,-1.25998 0.14777,-1.52579 z"
       id="path32711-937"
       sodipodi:nodetypes="ssss" />
    <path
       style="display:inline;fill:#9dac93;fill-opacity:1;stroke:none;stroke-width:0.264583px;stroke-linecap:butt;stroke-linejoin:miter;stroke-opacity:1"
       d="m 14.01261,33.383484 c -0.4451,-0.27111 -1.32576,0.32687 -1.31364,0.8479 0.0105,0.44942 0.76585,0.883 1.16587,0.67789 0.45469,-0.23314 0.58417,-1.25998 0.14777,-1.52579 z"
       id="path32711-45"
       sodipodi:nodetypes="ssss" />
    <path
       style="display:inline;fill:#9dac93;fill-opacity:1;stroke:none;stroke-width:0.264583px;stroke-linecap:butt;stroke-linejoin:miter;stroke-opacity:1"
       d="m 15.24103,30.548663 c -0.4451,-0.27111 -1.32576,0.32687 -1.31364,0.8479 0.0105,0.44942 0.76585,0.883 1.16587,0.67789 0.45469,-0.23314 0.58417,-1.25998 0.14777,-1.52579 z"
       id="path32711-25"
       sodipodi:nodetypes="ssss" />
    <path
       style="display:inline;fill:#9dac93;fill-opacity:1;stroke:none;stroke-width:0.264583px;stroke-linecap:butt;stroke-linejoin:miter;stroke-opacity:1"
       d="m 49.447874,15.051639 c -0.4451,-0.27111 -1.32576,0.32687 -1.31364,0.8479 0.0105,0.44942 0.76585,0.883 1.16587,0.67789 0.45469,-0.23314 0.58417,-1.25998 0.14777,-1.52579 z"
       id="path32711-47"
       sodipodi:nodetypes="ssss" />
    <path
       style="display:inline;fill:#9dac93;fill-opacity:1;stroke:none;stroke-width:0.264583px;stroke-linecap:butt;stroke-linejoin:miter;stroke-opacity:1"
       d="m 18.9263,43.966817 c -0.4451,-0.27111 -1.32576,0.32687 -1.31364,0.8479 0.0105,0.44942 0.76585,0.883 1.16587,0.67789 0.45469,-0.23314 0.58417,-1.25998 0.14777,-1.52579 z"
       id="path32711-44"
       sodipodi:nodetypes="ssss" />
    <path
       style="display:inline;fill:#9dac93;fill-opacity:1;stroke:none;stroke-width:0.264583px;stroke-linecap:butt;stroke-linejoin:miter;stroke-opacity:1"
       d="m 28.564689,38.486163 c -0.4451,-0.27111 -1.32576,0.32687 -1.31364,0.8479 0.0105,0.44942 0.76585,0.883 1.16587,0.67789 0.45469,-0.23314 0.58417,-1.25998 0.14777,-1.52579 z"
       id="path32711-30"
       sodipodi:nodetypes="ssss" />
    <path
       style="display:inline;fill:#9dac93;fill-opacity:1;stroke:none;stroke-width:0.264583px;stroke-linecap:butt;stroke-linejoin:miter;stroke-opacity:1"
       d="m 23.08403,39.620091 c -0.4451,-0.27111 -1.32576,0.32687 -1.31364,0.8479 0.0105,0.44942 0.76585,0.883 1.16587,0.67789 0.45469,-0.23314 0.58417,-1.25998 0.14777,-1.52579 z"
       id="path32711-786"
       sodipodi:nodetypes="ssss" />
    <path
       style="display:inline;fill:#9dac93;fill-opacity:1;stroke:none;stroke-width:0.264583px;stroke-linecap:butt;stroke-linejoin:miter;stroke-opacity:1"
       d="m 19.49326,34.706401 c -0.4451,-0.27111 -1.32576,0.32687 -1.31364,0.8479 0.0105,0.44942 0.76585,0.883 1.16587,0.67789 0.45469,-0.23314 0.58417,-1.25998 0.14777,-1.52579 z"
       id="path32711-88"
       sodipodi:nodetypes="ssss" />
  </g>
  <g
     inkscape:groupmode="layer"
     id="layer2"
     inkscape:label="Geo"
     style="display:inline">
    <path
       transform="translate(-9.3321113,-9.3813228)"
       id="path1211"
       style="fill:none;stroke:#000000;stroke-width:0.26499999;stroke-linecap:butt;stroke-linejoin:miter;stroke-miterlimit:4;stroke-dasharray:0.265, 0.265;stroke-dashoffset:0;stroke-opacity:1;marker-mid:url(#Arrow1Send)"
       d="m 136.03457,113.75264 c -4.3389,-1.61887 -5.68593,-2.71788 -10.18822,-3.06959 -5.16535,-0.40351 -10.40832,-0.23356 -15.60724,-0.10415 -4.17453,0.10391 -8.20816,-1.15171 -12.344783,-1.0963 -3.66213,0.0491 -7.42559,-0.3422 -11.02828,0.39368 -4.03393,0.82396 -8.37476,1.72502 -12.45746,0.93632 -4.43179,-0.85614 -8.701391,-2.57206 -12.38096,-5.26975 -2.180093,-1.59835 -6.939518,-2.46128 -8.292645,-1.46304 0.549949,-4.761837 -2.356269,-8.866097 -3.912264,-12.646177 -0.660594,-1.60482 -4.017562,-3.670779 -4.564161,-4.38144 -0.319394,-0.41526 0.72478,-0.03099 2.760927,0.287806 4.608582,0.721567 8.717751,-0.887156 13.340881,-0.567252 4.762326,0.329536 8.956012,-2.013055 13.298212,-3.784309 3.95515,-1.613368 6.7763,-5.188791 10.39579,-6.795494 3.78883,-1.68187 7.56663,-3.947102 9.21303,-8.265027 1.26547,-3.318884 -6.39143,-9.04952 -9.95076,-7.273322 1.98674,-3.345174 8.25317,-11.488607 6.13137,-14.97488 -2.95447,-4.854418 -9.69153,-1.356166 -13.64253,-5.022121 -3.35238,-3.110525 -8.02999,-4.941169 -8.53748,1.557287 -0.37325,4.779431 -6.723844,1.537135 -9.727579,0.861322 -0.792301,-0.17826 -2.719007,-1.316603 -3.13684,-1.52338 0.768249,1.029998 0.54245,0.538897 1.332037,2.456629 1.57203,3.818112 3.62916,5.820603 6.899557,6.611956 2.688755,0.65061 7.896775,5.925014 7.643555,8.262468 -0.0192,0.177108 -0.20601,0.277673 -0.43137,0.324226 -5.910406,1.220948 2.4878,5.652477 3.17777,2.730361 0.16605,-0.703263 -2.60186,-1.575773 -2.96576,-2.419372 -0.0778,-0.180328 -0.37321,-0.547045 -0.15761,-0.604196 1.43978,-0.381674 -0.001,-2.324333 -3.75568,-3.318863 -3.779274,-1.001069 -9.442815,-4.557867 -11.906618,-0.840067 -2.38876,3.604561 -5.975339,1.957956 -8.852937,1.603503 -4.518759,-0.556606 -13.6887,-1.126902 -11.316505,4.896107 -4.072244,-0.733941 -9.812134,4.974986 -8.382177,10.047824 1.150172,4.08029 5.701055,6.290689 8.297249,9.610418 3.080846,3.939449 3.508373,8.849036 5.245024,13.341576 1.938441,5.01455 10.416532,5.60086 12.212515,0.0975 1.330691,-4.07758 3.153644,-7.601117 5.392309,-11.263481 1.123405,-1.837844 1.963234,-3.71955 0.958819,-5.618333 0,0 -2.16389,3.727119 -3.890998,7.2284 -1.174885,2.381783 -4.507931,9.335484 -6.277573,11.315794 -2.738946,3.06501 -5.652798,3.6988 -9.615846,4.789827 -5.956248,1.63975 -12.340255,0.66808 -18.517068,0.78058 -2.901843,0.0528 -11.1852973,0.0243 -11.1852973,0.0243"
       sodipodi:nodetypes="csssssscssssssscsssscsssssssssscssssscssssc"
       inkscape:connector-curvature="0" />
    <circle
       transform="translate(-9.3321113,-9.3813228)"
       style="fill:#000000;stroke:#000000;stroke-width:0.54693198;stroke-opacity:1"
       id="path862-6-0"
       cx="82.530846"
       cy="62.161625"
       r="1.6455522" />
    <circle
       transform="translate(-9.3321113,-9.3813228)"
       style="fill:#ffcc00;stroke:#000000;stroke-width:0.54693198;stroke-opacity:1"
       id="path862-6-0-2"
       cx="61.244572"
       cy="65.937279"
       r="1.6455522" />
    <circle
       transform="translate(-9.3321113,-9.3813228)"
       style="fill:#ffcc00;stroke:#000000;stroke-width:0.54693198;stroke-opacity:1"
       id="path862-6-0-2-5"
       cx="46.650265"
       cy="65.791206"
       r="1.6455522" />
    <circle
       transform="translate(-9.3321113,-9.3813228)"
       style="fill:#ffcc00;stroke:#000000;stroke-width:0.54693198;stroke-opacity:1"
       id="path862-6-0-2-5-9"
       cx="42.048618"
       cy="77.619537"
       r="1.6455522" />
    <text
       transform="translate(-9.3321113,-9.3813228)"
       xml:space="preserve"
       style="font-size:2.34739px;line-height:1.25;font-family:sans-serif;stroke-width:0.146712"
       x="77.54599"
       y="51.189018"
       id="text928"><tspan
         sodipodi:role="line"
         id="tspan926"
         x="77.54599"
         y="51.189018"
         style="stroke-width:0.146712">Красавица</tspan></text>
    <text
       transform="translate(-9.3321113,-9.3813228)"
       xml:space="preserve"
       style="font-size:2.34739px;line-height:1.25;font-family:sans-serif;stroke-width:0.146712"
       x="44.578533"
       y="109.16267"
       id="text928-6"><tspan
         id="tspan926-2"
         x="44.578533"
         y="109.16267"
         style="stroke-width:0.146712"
         sodipodi:role="line">Бормотун</tspan></text>
    <text
       xml:space="preserve"
       style="font-size:2.34739px;line-height:1.25;font-family:sans-serif;display:inline;stroke-width:0.146712"
       x="108.37949"
       y="105.65982"
       id="text928-6-3"><tspan
         id="tspan926-2-6"
         x="108.37949"
         y="105.65982"
         style="stroke-width:0.146712"
         sodipodi:role="line">Коленка</tspan></text>
    <text
       transform="translate(-9.3321113,-9.3813228)"
       xml:space="preserve"
       style="font-size:2.34739px;line-height:1.25;font-family:sans-serif;stroke-width:0.146712"
       x="61.480129"
       y="121.11879"
       id="text928-9"><tspan
         sodipodi:role="line"
         id="tspan926-1"
         x="61.480129"
         y="121.11879"
         style="stroke-width:0.146712">Спящий канин</tspan></text>
    <text
       transform="translate(-9.3321113,-9.3813228)"
       xml:space="preserve"
       style="font-size:2.34739px;line-height:1.25;font-family:sans-serif;stroke-width:0.146712"
       x="42.53001"
       y="55.028934"
       id="text928-2"><tspan
         sodipodi:role="line"
         id="tspan926-7"
         x="42.53001"
         y="55.028934"
         style="stroke-width:0.146712">Кроха</tspan></text>
    <text
       transform="translate(-9.3321113,-9.3813228)"
       xml:space="preserve"
       style="font-size:2.34739px;line-height:1.25;font-family:sans-serif;stroke-width:0.146712"
       x="67.95295"
       y="67.254395"
       id="text928-3"><tspan
         id="tspan926-6"
         x="67.95295"
         y="67.254395"
         style="stroke-width:0.146712"
         sodipodi:role="line">Старик</tspan></text>
    <text
       transform="translate(-9.3321113,-9.3813228)"
       xml:space="preserve"
       style="font-size:2.34739px;line-height:1.25;font-family:sans-serif;stroke-width:0.146712"
       x="50.907078"
       y="80.171936"
       id="text928-06"><tspan
         sodipodi:role="line"
         id="tspan926-26"
         x="50.907078"
         y="80.171936"
         style="stroke-width:0.146712">Остров ожидания</tspan></text>
    <text
       transform="translate(-9.3321113,-9.3813228)"
       xml:space="preserve"
       style="font-size:2.34739px;line-height:1.25;font-family:sans-serif;stroke-width:0.146712"
       x="37.116261"
       y="72.022926"
       id="text928-1"><tspan
         sodipodi:role="line"
         id="tspan926-8"
         x="37.116261"
         y="72.022926"
         style="stroke-width:0.146712">Коварный</tspan></text>
    <text
       transform="translate(-9.3321113,-9.3813228)"
       xml:space="preserve"
       style="font-size:2.34739px;line-height:1.25;font-family:sans-serif;stroke-width:0.146712"
       x="43.675457"
       y="46.411293"
       id="text928-7"><tspan
         sodipodi:role="line"
         id="tspan926-92"
         x="43.675457"
         y="46.411293"
         style="stroke-width:0.146712">Ананасовый сад</tspan></text>
    <text
       xml:space="preserve"
       id="text1087"
       style="font-size:4.23333px;line-height:1.25;font-family:sans-serif;white-space:pre;shape-inside:url(#rect1089);fill:#0044aa"
       transform="matrix(2.0446742,0,0,2.0446742,-168.0173,-112.53991)"><tspan
         x="109.69922"
         y="98.250691"
         id="tspan52048">ТИХИЙ ОКЕАН</tspan></text>
    <text
       xml:space="preserve"
       id="text1087-7"
       style="font-size:4.23333px;line-height:1.25;font-family:sans-serif;white-space:pre;shape-inside:url(#rect1089-3);fill:#0044aa"
       transform="matrix(0.25623044,0,0,0.25623044,30.115923,27.452807)"><tspan
         x="109.69922"
         y="98.250691"
         id="tspan52050">Бездонная гавань</tspan></text>
    <text
       transform="translate(-9.3321113,-9.3813228)"
       xml:space="preserve"
       style="font-size:1.2304px;line-height:1.25;font-family:sans-serif;stroke-width:0.0768999"
       x="80.103912"
       y="65.796036"
       id="text928-22"><tspan
         sodipodi:role="line"
         id="tspan926-89"
         x="80.103912"
         y="65.796036"
         style="stroke-width:0.0768999">Заячьи руины</tspan></text>
    <circle
       transform="translate(-9.3321113,-9.3813228)"
       style="fill:#ffffff;stroke:#000000;stroke-width:0.26458299;stroke-opacity:1"
       id="path862-5-7"
       cx="45.240467"
       cy="87.069809"
       r="0.79605013" />
    <circle
       transform="translate(-9.3321113,-9.3813228)"
       style="fill:#ffffff;stroke:#000000;stroke-width:0.26458299;stroke-opacity:1"
       id="path862-5-7-1"
       cx="58.550762"
       cy="77.135651"
       r="0.79605013" />
    <circle
       transform="translate(-9.3321113,-9.3813228)"
       style="fill:#ffffff;stroke:#000000;stroke-width:0.26458299;stroke-opacity:1"
       id="path862-5-7-2"
       cx="53.499973"
       cy="104.25079"
       r="0.79605013" />
    <circle
       style="display:inline;fill:#ffffff;stroke:#000000;stroke-width:0.264583;stroke-opacity:1"
       id="path862-5-7-2-7"
       cx="113.81808"
       cy="100.98585"
       r="0.79605013" />
    <circle
       transform="translate(-9.3321113,-9.3813228)"
       style="fill:#ffffff;stroke:#000000;stroke-width:0.26458299;stroke-opacity:1"
       id="path862-5-7-6-9"
       cx="84.40329"
       cy="60.508945"
       r="0.79605013" />
    <circle
       transform="translate(-9.3321113,-9.3813228)"
       style="fill:#ffffff;stroke:#000000;stroke-width:0.26458299;stroke-opacity:1"
       id="path862-5-7-3"
       cx="35.072941"
       cy="61.225216"
       r="0.79605013" />
    <text
       transform="translate(-9.3321113,-9.3813228)"
       xml:space="preserve"
       style="font-size:1.70424px;line-height:1.25;font-family:sans-serif;stroke-width:0.106515"
       x="91.757317"
       y="113.23734"
       id="text928-0-1"><tspan
         sodipodi:role="line"
         id="tspan926-9-9"
         x="91.757317"
         y="113.23734"
         style="font-style:italic;font-variant:normal;font-weight:normal;font-stretch:normal;font-family:sans-serif;-inkscape-font-specification:'sans-serif Italic';stroke-width:0.106515">Путь Костра</tspan></text>
    <text
       transform="translate(-9.3321113,-9.3813228)"
       xml:space="preserve"
       style="font-size:2.34739px;line-height:1.25;font-family:sans-serif;stroke-width:0.146712"
       x="57.772556"
       y="28.017578"
       id="text928-0"><tspan
         sodipodi:role="line"
         id="tspan926-9"
         x="57.772556"
         y="28.017578"
         style="stroke-width:0.146712">Верная Смерть</tspan></text>
    <circle
       transform="translate(-9.3321113,-9.3813228)"
       style="fill:#ffffff;stroke:#000000;stroke-width:0.26458299;stroke-opacity:1"
       id="path862-5-7-6"
       cx="55.432453"
       cy="41.700378"
       r="0.79605013" />
  </g>
</svg>
