<?xml version="1.0" encoding="UTF-8" standalone="no"?>
<!-- Created with Inkscape (http://www.inkscape.org/) -->

<svg
   xmlns:dc="http://purl.org/dc/elements/1.1/"
   xmlns:cc="http://creativecommons.org/ns#"
   xmlns:rdf="http://www.w3.org/1999/02/22-rdf-syntax-ns#"
   xmlns:svg="http://www.w3.org/2000/svg"
   xmlns="http://www.w3.org/2000/svg"
   xmlns:sodipodi="http://sodipodi.sourceforge.net/DTD/sodipodi-0.dtd"
   xmlns:inkscape="http://www.inkscape.org/namespaces/inkscape"
   width="210mm"
   height="297mm"
   viewBox="0 0 210 297"
   version="1.1"
   id="svg8"
   inkscape:version="0.92.5 (2060ec1f9f, 2020-04-08)"
   sodipodi:docname="pic_ValdisJin.svg">
  <defs
     id="defs2" />
  <sodipodi:namedview
     id="base"
     pagecolor="#ffffff"
     bordercolor="#666666"
     borderopacity="1.0"
     inkscape:pageopacity="0.0"
     inkscape:pageshadow="2"
     inkscape:zoom="0.98994949"
     inkscape:cx="-10.692716"
     inkscape:cy="374.73601"
     inkscape:document-units="mm"
     inkscape:current-layer="layer1"
     showgrid="false"
     inkscape:window-width="1920"
     inkscape:window-height="1015"
     inkscape:window-x="0"
     inkscape:window-y="0"
     inkscape:window-maximized="1" />
  <metadata
     id="metadata5">
    <rdf:RDF>
      <cc:Work
         rdf:about="">
        <dc:format>image/svg+xml</dc:format>
        <dc:type
           rdf:resource="http://purl.org/dc/dcmitype/StillImage" />
        <dc:title />
      </cc:Work>
    </rdf:RDF>
  </metadata>
  <g
     inkscape:label="Layer 1"
     inkscape:groupmode="layer"
     id="layer1">
    <flowRoot
       xml:space="preserve"
       id="flowRoot2419"
       style="font-style:normal;font-weight:normal;font-size:40px;line-height:1;font-family:sans-serif;letter-spacing:0px;word-spacing:0px;fill:#000000;fill-opacity:1;stroke:none"
       transform="matrix(0.08614222,0,0,0.08614222,33.173132,172.53668)"><flowRegion
         id="flowRegion2421"
         style="line-height:1"><rect
           id="rect2423"
           width="955.95093"
           height="661.02118"
           x="-234.28572"
           y="823.94824"
           style="line-height:1" /></flowRegion><flowPara
         id="flowPara2425">Валдис Хин, Диктатор Единой Друзы (Гарда Викка), Судья Истории, глава Чашевого Вече. Пропагандистский плакат. Надпись гласит: &quot;Свобода, Истина, Процветание&quot;. На этом плакате внешность Валдиса значительно приукрашена. Лысина и полнота считались признаками мужественности и богатства. На самом деле никакой лысины у Валдиса не было, и по сложению он был, как и его солдаты, достаточно сухим и мускулистым. Скорбящее выражение лица и капланский воротник ему так же дорисовывали, чтобы подчеркнуть его связь с капланами. На лице видна татуировка из четырех букв Х -- известный девиз викканских воров: &quot;Не удержит цепь бродягу&quot; (Chains Hold Not a Rambler.).</flowPara></flowRoot>    <g
       id="g2858"
       transform="matrix(0.97306008,0,0,0.97306008,3.6224018,2.580019)">
      <circle
         r="89.288536"
         cy="105.69032"
         cx="104.6994"
         id="path2688"
         style="opacity:1;vector-effect:none;fill:#e9afaf;fill-opacity:1;fill-rule:evenodd;stroke:none;stroke-width:0.25293091;stroke-linecap:square;stroke-linejoin:miter;stroke-miterlimit:4;stroke-dasharray:none;stroke-dashoffset:0;stroke-opacity:1" />
      <path
         sodipodi:nodetypes="ccccccccccccccccccccc"
         inkscape:connector-curvature="0"
         id="path2726"
         d="m 38.362138,212.38874 2.429772,-41.44518 c 9.089165,-2.42378 19.446772,-1.61302 26.891481,-5.73396 l 10.983248,-5.38929 -1.416568,-4.15774 -1.448627,-8.87207 c -4.078879,-2.80318 -6.004539,-11.45083 -6.890112,-22.92156 -0.292161,-3.55393 -1.574559,-3.29532 -2.387663,-4.84355 l 1.474509,-16.77284 1.061238,-2.894282 c 6.300156,-12.314953 8.032557,-27.033989 22.189508,-35.213787 9.280746,-2.456521 18.879466,-2.793139 28.846366,-0.675331 18.86943,10.880157 13.99429,25.830812 18.52342,39.16931 l -0.57886,3.08723 c 6.93925,5.18723 -0.52939,10.9886 -0.2274,19.50763 -1.69451,6.62615 -3.74957,12.93253 -8.39093,17.19116 -0.4711,3.07134 -1.08343,6.15551 0.88684,9.0049 l 4.77533,8.45914 c 11.06217,2.64229 21.98456,6.21637 33.70015,4.50246 l 3.70613,-0.56271 6.66575,38.32659"
         style="fill:#ffffff;stroke:none;stroke-width:0.24018164px;stroke-linecap:butt;stroke-linejoin:miter;stroke-opacity:1" />
      <path
         sodipodi:nodetypes="ccccc"
         inkscape:connector-curvature="0"
         id="path2401"
         d="m 130.30836,151.42938 c -0.61444,-2.89536 -1.32728,-5.7579 -0.88684,-9.0049 l -1.63725,1.29617 c 0.17878,5.19145 1.01952,6.96027 1.29615,10.64215 z"
         style="fill:#000000;stroke:none;stroke-width:0.27013314px;stroke-linecap:butt;stroke-linejoin:miter;stroke-opacity:1" />
      <path
         sodipodi:nodetypes="cccc"
         inkscape:connector-curvature="0"
         id="path2393"
         d="m 76.295124,151.84129 c 0.277545,-1.33974 -0.242804,-3.30007 -0.493679,-5.05079 3.311974,7.97915 0.08982,6.8184 2.865195,13.02981 -1.132405,-2.38441 -3.251094,-3.97472 -2.371516,-7.97902 z"
         style="fill:#000000;stroke:none;stroke-width:0.27013314px;stroke-linecap:butt;stroke-linejoin:miter;stroke-opacity:1" />
      <path
         sodipodi:nodetypes="cccccccc"
         inkscape:connector-curvature="0"
         id="path2389"
         d="m 99.200536,272.72263 c 16.372544,-80.90764 21.513714,-66.06489 31.107824,-121.29325 11.94364,10.51007 3.31182,27.32372 13.37092,38.88479 -8.42748,-2.64945 -8.17885,1.85105 -16.09967,5.7304 7.60386,8.24938 7.66005,2.76781 15.00816,12.82514 -8.67714,-1.36283 -10.87562,0.87923 -19.37417,3.00164 5.0883,4.95137 1.8767,11.74462 8.18627,19.1013 -18.22677,8.95236 -18.70648,19.83791 -32.199334,41.74998 z"
         style="fill:#000000;stroke:none;stroke-width:0.27013314px;stroke-linecap:butt;stroke-linejoin:miter;stroke-opacity:1" />
      <path
         sodipodi:nodetypes="ccccccccc"
         inkscape:connector-curvature="0"
         id="path2395"
         d="m 104.38517,238.88604 c -8.266206,-37.6034 -22.25273,-52.87423 -25.71853,-79.06573 -3.289632,1.31885 -5.372008,1.08551 -10.983248,5.38929 2.396993,11.22152 -2.420472,17.80517 -4.638888,26.05963 8.928065,1.17982 5.574378,2.72895 15.144602,0.27288 -2.893407,5.84801 -9.83918,8.17583 -14.735288,13.50735 7.164942,-1.93874 8.38077,1.69045 18.282672,3.82025 -4.468412,4.43732 -0.608096,8.70262 -5.184637,15.55392 17.757327,-0.34599 12.04661,5.61276 27.833317,14.46241 z"
         style="fill:#000000;stroke:none;stroke-width:0.27013314px;stroke-linecap:butt;stroke-linejoin:miter;stroke-opacity:1" />
      <path
         sodipodi:nodetypes="ccccc"
         inkscape:connector-curvature="0"
         id="path2387"
         d="m 97.037494,176.92507 c 1.719763,1.61317 6.645296,0.0357 12.541896,-2.50837 5.794,2.48888 6.63675,6.13307 4.72733,10.41942 -8.62168,4.9824 -11.9793,5.46819 -18.041035,2.21895 -3.291543,-4.76533 -1.797345,-7.65797 0.771809,-10.13 z"
         style="fill:#000000;stroke:none;stroke-width:0.27013314px;stroke-linecap:butt;stroke-linejoin:miter;stroke-opacity:1" />
      <path
         sodipodi:nodetypes="ccc"
         inkscape:connector-curvature="0"
         id="path826"
         d="m 69.059416,99.358269 c 12.60543,-8.071412 9.0387,-25.71075 22.18951,-35.213786 -12.600227,4.206641 -26.283682,14.602642 -22.18951,35.213786 z"
         style="fill:#000000;stroke:none;stroke-width:0.27013314px;stroke-linecap:butt;stroke-linejoin:miter;stroke-opacity:1" />
      <path
         sodipodi:nodetypes="ccc"
         inkscape:connector-curvature="0"
         id="path828"
         d="m 138.61871,102.63846 c 1.15617,-16.437387 -4.28544,-37.087336 -18.52342,-39.16931 18.60063,13.629766 -3.6663,17.140681 18.52342,39.16931 z"
         style="fill:#000000;stroke:none;stroke-width:0.27013314px;stroke-linecap:butt;stroke-linejoin:miter;stroke-opacity:1" />
      <path
         sodipodi:nodetypes="cscccsc"
         inkscape:connector-curvature="0"
         id="path830"
         d="m 76.391602,105.33979 c 11.400019,-2.22051 17.964087,-8.650047 21.707129,-9.937041 2.505039,-0.861322 2.122699,4.969461 3.477979,8.797881 -4.451758,1.28689 -8.384113,1.44514 -13.41502,1.62154 2.770084,1.99495 5.127125,1.09264 7.911042,0.0965 -2.508527,3.08837 -6.857579,4.30382 -11.577135,0.67534 -1.474675,-1.13377 -3.618693,-0.67702 -8.103995,-1.2542 z"
         style="fill:#000000;stroke:none;stroke-width:0.27013314px;stroke-linecap:butt;stroke-linejoin:miter;stroke-opacity:1" />
      <path
         sodipodi:nodetypes="cscsccc"
         inkscape:connector-curvature="0"
         id="path832"
         d="m 108.03576,105.82217 c 2.49633,-5.21935 1.19294,-9.20455 4.24496,-9.840565 3.67516,-0.765866 7.57401,6.285965 19.3917,9.358185 -4.66988,0.16671 -7.43744,-1.25316 -8.77932,0.28943 -3.21431,3.69504 -5.51188,3.87091 -9.35818,1.83304 2.22421,-0.0341 4.91582,0.7108 5.69209,-1.73657 -3.81199,0.52159 -7.62979,1.07807 -11.19125,0.0965 z"
         style="fill:#000000;stroke:none;stroke-width:0.27013314px;stroke-linecap:butt;stroke-linejoin:miter;stroke-opacity:1" />
      <path
         sodipodi:nodetypes="cssscsscc"
         inkscape:connector-curvature="0"
         id="path834"
         d="m 97.519873,121.93369 c 0,0 -2.586979,2.99917 -1.543616,3.95552 1.86043,1.70526 5.901403,3.77388 8.007503,4.8238 2.41134,1.20207 6.74981,-4.9088 8.20048,-6.36742 0.83385,-0.83841 -1.35066,-3.28019 -1.35066,-3.28019 1.35066,3.28019 -1.70613,5.33177 -4.71178,5.20385 -2.41166,-0.10264 -2.87783,0.11635 -5.29147,0.0858 -1.49161,-0.0189 -2.922806,-2.64167 -3.310457,-4.42135 z"
         style="fill:#000000;stroke:none;stroke-width:0.27013314px;stroke-linecap:butt;stroke-linejoin:miter;stroke-opacity:1" />
      <path
         sodipodi:nodetypes="cccc"
         inkscape:connector-curvature="0"
         id="path836"
         d="m 94.015897,132.0552 c -2.887567,3.83064 -4.403009,5.74493 -8.049833,6.13971 0.553372,1.29918 0.697104,2.6803 0.341094,4.16135 3.90594,-2.30292 6.158668,-6.00471 7.708739,-10.30106 z"
         style="fill:#000000;stroke:none;stroke-width:0.27013314px;stroke-linecap:butt;stroke-linejoin:miter;stroke-opacity:1" />
      <path
         sodipodi:nodetypes="ccc"
         inkscape:connector-curvature="0"
         id="path838"
         d="m 114.75445,132.80561 c 0.47484,6.39122 3.28551,6.19965 5.66217,7.23121 -2.65478,-1.73894 -4.4618,-4.21966 -5.66217,-7.23121 z"
         style="fill:#000000;stroke:none;stroke-width:0.27013314px;stroke-linecap:butt;stroke-linejoin:miter;stroke-opacity:1" />
      <path
         sodipodi:nodetypes="csscssc"
         inkscape:connector-curvature="0"
         id="path840"
         d="m 91.683068,137.17691 c 3.031137,-0.83977 7.052143,-2.87651 8.538142,-2.65309 2.2941,0.34491 3.86625,0.38204 6.2227,0.19295 2.92984,-0.23509 3.80857,1.00123 9.26171,2.26719 -4.82298,-0.24797 -7.01842,-0.45518 -9.02051,-0.62709 -2.71245,-0.23291 -5.02673,0.18645 -7.86281,-10e-6 -1.097628,-0.0722 -4.32274,0.57944 -7.139232,0.82005 z"
         style="fill:#000000;stroke:none;stroke-width:0.27013314px;stroke-linecap:butt;stroke-linejoin:miter;stroke-opacity:1" />
      <path
         sodipodi:nodetypes="ccsc"
         inkscape:connector-curvature="0"
         id="path842"
         d="m 111.41243,139.44411 c -6.54549,1.29033 -8.89239,1.28027 -15.436173,0.19294 4.421863,1.00092 5.198333,2.36002 7.283953,3.08724 2.10021,0.73232 4.11476,-2.26445 8.15222,-3.28018 z"
         style="fill:#000000;stroke:none;stroke-width:0.27013314px;stroke-linecap:butt;stroke-linejoin:miter;stroke-opacity:1" />
      <path
         sodipodi:nodetypes="cscsc"
         inkscape:connector-curvature="0"
         id="path844"
         d="m 101.95778,105.82217 c -0.88625,4.13001 -1.79962,5.43511 -1.67421,7.29587 0.1926,2.8579 0.88661,3.28384 0.0341,10.26279 0.0923,-6.40919 -0.780969,-7.74191 -0.657567,-10.85642 0.08516,-2.14922 1.147137,-3.30293 2.297667,-6.70224 z"
         style="fill:#000000;stroke:none;stroke-width:0.27013314px;stroke-linecap:butt;stroke-linejoin:miter;stroke-opacity:1" />
      <path
         sodipodi:nodetypes="cscsc"
         inkscape:connector-curvature="0"
         id="path846"
         d="m 108.03576,108.71645 c 1.12306,3.18732 1.85758,2.61543 1.99055,4.25176 0.25143,3.09415 -1.21977,3.13137 -2.27997,10.12319 0.69932,-6.77769 1.6543,-7.52079 1.62404,-9.62237 -0.0162,-1.12358 -0.68392,-1.75869 -1.33462,-4.75258 z"
         style="fill:#000000;stroke:none;stroke-width:0.27013314px;stroke-linecap:butt;stroke-linejoin:miter;stroke-opacity:1" />
      <path
         sodipodi:nodetypes="ccsccsccsscssc"
         inkscape:connector-curvature="0"
         id="path848"
         d="m 68.911332,123.86894 c 2.922091,11.71654 1.366999,26.53323 18.41911,25.78675 1.619712,2.84961 5.777888,6.39423 13.712008,6.27614 3.39505,-0.0506 2.46157,-6.99606 -0.20466,-10.0964 1.66484,1.19509 3.291,1.92604 4.77533,0.95507 -1.38871,2.24786 -1.59573,6.81571 0.81862,8.04982 3.53694,1.80795 12.65641,-3.79026 12.00653,-9.4142 12.01498,0.58461 16.16621,-9.84769 19.37418,-20.1928 0,0 -2.26231,12.43675 -7.26147,16.77216 -6.40942,5.5584 -15.1382,10.80712 -22.40064,15.17084 -0.97458,0.58559 -3.94984,-0.44383 -3.94984,-0.44383 0,0 -3.29884,1.59152 -4.863528,1.10947 -8.235083,-2.53709 -17.919862,-5.19921 -24.285936,-11.18791 -5.729278,-5.38965 -6.139704,-22.78511 -6.139704,-22.78511 z"
         style="fill:#000000;stroke:none;stroke-width:0.27013314px;stroke-linecap:butt;stroke-linejoin:miter;stroke-opacity:1" />
      <path
         sodipodi:nodetypes="csssscc"
         inkscape:connector-curvature="0"
         id="path850"
         d="m 138.03985,105.72569 c 3.9516,-2.70525 4.71108,-5.25189 5.6921,-5.54737 1.85675,-0.559252 0.80751,3.78437 -1e-5,5.54737 -2.38929,5.21635 -2.2783,9.60414 -2.74957,14.13375 -0.09,0.86422 -1.015,3.10605 -1.88128,3.03901 -1.14935,-0.089 -1.73657,-2.99076 -1.73657,-2.99076 0.85701,-2.31517 4.50608,-8.93814 0.67533,-14.182 z"
         style="fill:#000000;stroke:none;stroke-width:0.27013314px;stroke-linecap:butt;stroke-linejoin:miter;stroke-opacity:1" />
      <path
         sodipodi:nodetypes="cssscc"
         inkscape:connector-curvature="0"
         id="path852"
         d="m 67.998179,102.25255 c -2.015209,-0.42275 -3.832123,-3.834536 -4.148473,-2.315423 -1.22967,5.904843 1.267484,6.504003 1.061237,19.391703 -0.02032,1.27036 1.050443,3.11307 2.025999,2.60486 1.133718,-0.59061 1.418475,-3.65562 1.447141,-3.56962 -2.420817,-6.72669 0.06245,-10.58666 -0.385904,-16.11152 z"
         style="fill:#000000;stroke:none;stroke-width:0.27013314px;stroke-linecap:butt;stroke-linejoin:miter;stroke-opacity:1" />
      <path
         sodipodi:nodetypes="cccc"
         inkscape:connector-curvature="0"
         id="path2391"
         d="m 135.08369,159.88852 c 16.13879,1.11446 19.90273,3.45086 44.18284,3.68241 -27.37556,4.39025 -30.0167,-1.17051 -44.31928,-0.68077 z"
         style="fill:#000000;stroke:none;stroke-width:0.27013314px;stroke-linecap:butt;stroke-linejoin:miter;stroke-opacity:1" />
      <path
         sodipodi:nodetypes="cccc"
         inkscape:connector-curvature="0"
         id="path2397"
         d="m 67.683392,165.2096 c -12.632752,5.6329 -17.360212,1.57761 -31.782986,6.3466 18.014353,-2.9661 19.933758,-0.0586 33.15901,-3.89283 z"
         style="fill:#000000;stroke:none;stroke-width:0.27013314px;stroke-linecap:butt;stroke-linejoin:miter;stroke-opacity:1" />
      <g
         style="fill:#c83737;stroke:none"
         id="g2817">
        <g
           id="g2381"
           style="fill:#c83737;stroke:none"
           transform="matrix(1.0209757,0,0,1.0209757,29.890107,13.971579)">
          <path
             sodipodi:nodetypes="cccc"
             inkscape:connector-curvature="0"
             id="path2366"
             d="m 93.454613,68.607886 c -4.754597,6.383801 -5.362556,4.090575 -9.449406,10.77232 -0.365452,-0.880677 -0.924792,-1.745027 -2.173364,-2.551337 4.88458,-5.557404 5.180072,-2.605471 11.62277,-8.220983 z"
             style="fill:#c83737;stroke:none;stroke-width:0.26458332px;stroke-linecap:butt;stroke-linejoin:miter;stroke-opacity:1" />
          <path
             sodipodi:nodetypes="ccccc"
             inkscape:connector-curvature="0"
             id="path2368"
             d="m 92.131696,81.837053 c -2.014473,-7.629117 -3.097844,-8.31122 -9.449405,-14.079614 4.071127,-1.849506 7.311679,-5.463985 7.843006,-14.835566 -4.212018,10.426032 -6.315986,11.08084 -11.244791,13.890625 7.161644,9.246564 8.529008,4.535643 12.85119,15.024555 z"
             style="fill:#c83737;stroke:none;stroke-width:0.26458332px;stroke-linecap:butt;stroke-linejoin:miter;stroke-opacity:1" />
          <path
             sodipodi:nodetypes="ccc"
             inkscape:connector-curvature="0"
             id="path2370"
             d="M 81.264881,49.709077 C 79.280506,66.812498 87.752628,62.467765 95.214767,69.085909 88.907968,61.075208 83.757393,64.003042 81.264881,49.709077 Z"
             style="fill:#c83737;stroke:none;stroke-width:0.26458332px;stroke-linecap:butt;stroke-linejoin:miter;stroke-opacity:1" />
          <path
             sodipodi:nodetypes="cccccc"
             inkscape:connector-curvature="0"
             id="path2372"
             d="m 82.519466,95.679227 c 4.842748,3.522075 7.094977,10.487933 13.630746,9.755343 2.698305,8.81597 -8.038377,8.95159 -2.405425,22.04973 2.052581,-0.13622 3.513233,-1.33791 4.677217,-3.0736 -9.570793,-9.45943 2.825056,-9.18309 1.870886,-21.64883 -10.533675,0.32402 -9.997063,-3.431095 -17.773424,-7.082643 z"
             style="fill:#c83737;stroke:none;stroke-width:0.26458332px;stroke-linecap:butt;stroke-linejoin:miter;stroke-opacity:1" />
          <path
             sodipodi:nodetypes="ccccc"
             inkscape:connector-curvature="0"
             id="path2374"
             d="m 95.882943,95.211505 c -7.151492,5.071785 -5.965477,7.620595 -13.02939,10.289875 1.134286,6.29573 7.975775,10.25245 19.978397,12.09395 -7.627161,-2.36458 -14.250567,-5.43551 -17.10525,-11.1585 4.091236,-1.20765 5.918453,-6.25906 10.156243,-11.225325 z"
             style="fill:#c83737;stroke:none;stroke-width:0.26458332px;stroke-linecap:butt;stroke-linejoin:miter;stroke-opacity:1" />
        </g>
        <path
           style="fill:#c83737;stroke:none;stroke-width:0.27013314px;stroke-linecap:butt;stroke-linejoin:miter;stroke-opacity:1"
           d="m 66.182575,117.11527 c 0.665868,0.49866 1.113692,1.05184 0.341095,1.91012 -4.781382,-1.62577 -2.941888,7.15679 1.97835,2.72876 -5.061211,7.73635 -9.549557,-5.2898 -2.319445,-4.63888 z"
           id="path2364"
           inkscape:connector-curvature="0"
           sodipodi:nodetypes="cccc" />
        <path
           style="fill:#c83737;stroke:none;stroke-width:0.27013314px;stroke-linecap:butt;stroke-linejoin:miter;stroke-opacity:1"
           d="m 76.295124,151.84129 c -9.456107,23.58858 7.742797,16.8971 19.584655,43.51074 1.830763,-6.02007 -1.54957,-26.63122 5.499141,-18.04104 l -3.376665,-4.43792 c -4.831325,-6.34973 -19.975848,-8.2424 -21.707131,-21.03178 z"
           id="path2383"
           inkscape:connector-curvature="0"
           sodipodi:nodetypes="cccsc" />
        <path
           style="fill:#c83737;stroke:none;stroke-width:0.27013314px;stroke-linecap:butt;stroke-linejoin:miter;stroke-opacity:1"
           d="m 104.41929,176.3634 c 0,0 -0.39316,-5.99655 5.55983,-7.87928 14.00313,-4.42872 20.32924,-17.05474 20.32924,-17.05474 3.22011,17.52162 -9.7703,25.15338 -14.73528,40.38561 0.10278,-6.8964 -7.57974,-26.87657 -11.15379,-15.45159 z"
           id="path2385"
           inkscape:connector-curvature="0"
           sodipodi:nodetypes="csccc" />
        <path
           style="fill:#c83737;stroke:none;stroke-width:0.27013314px;stroke-linecap:butt;stroke-linejoin:miter;stroke-opacity:1"
           d="m 103.79083,194.19431 2.70132,-3.6661 2.50838,3.37666 -2.50838,6.65686 z"
           id="path2403"
           inkscape:connector-curvature="0" />
        <path
           style="fill:#c83737;stroke:none;stroke-width:0.27013314px;stroke-linecap:butt;stroke-linejoin:miter;stroke-opacity:1"
           d="m 106.68511,207.70096 -2.70135,3.28019 2.60488,7.04276 2.60484,-6.84981 z"
           id="path2405"
           inkscape:connector-curvature="0" />
      </g>
      <path
         sodipodi:nodetypes="cccc"
         inkscape:connector-curvature="0"
         id="path2407"
         d="m 99.336972,188.40404 c 3.426468,12.1336 0.974128,24.24139 0.818628,36.29247 1.05425,-11.65238 2.98879,-22.71789 0.95506,-36.4289 z"
         style="fill:#000000;stroke:none;stroke-width:0.27013314px;stroke-linecap:butt;stroke-linejoin:miter;stroke-opacity:1" />
      <path
         transform="matrix(0.30198029,0,0,0.30198029,6.3683659,6.0420859)"
         d="m 100.27344,269.6875 c -3.172349,-0.10758 -6.295659,0.72001 -8.714846,2.83008 -3.680578,3.21029 -5.43929,6.54175 -5.591797,9.68164 -0.152507,3.13989 1.326255,5.89401 3.46875,7.85547 2.142495,1.96145 4.953044,3.22656 7.828125,3.61133 2.875078,0.38476 5.883448,-0.12695 8.189448,-1.98243 a 1.5672098,1.5672098 0 0 0 -1.10156,-2.7832 c -6.981989,0.53067 -10.45596,-2.06187 -11.562498,-4.81445 -1.106537,-2.75259 -0.06333,-5.97465 3.460938,-7.70703 3.646474,-1.79246 8.17998,-0.90203 11.95703,1.46679 3.77705,2.36883 6.54818,6.18668 6.79883,9.34571 0.31998,4.0328 0.0127,7.37296 -0.66602,10.30468 l -50.033199,1.79883 a 1.5672098,1.5672098 0 0 0 -1.509766,1.61914 l 0.210937,6.1543 a 1.5672098,1.5672098 0 0 0 1.976563,1.45898 c 5.616895,-1.52478 11.422056,-2.70452 17.439453,-3.51757 l 0.429688,12.39843 c -4.827401,0.81678 -9.913617,1.52968 -15.310547,2.27344 a 1.5672098,1.5672098 0 0 0 0.205078,3.11914 c 5.388937,0.0313 10.442343,-0.12499 15.277344,-0.46289 l 0.794921,23.01367 c -5.607532,0.47927 -12.186686,1.39574 -20.453124,3.40235 a 1.5672098,1.5672098 0 0 0 0.546874,3.08007 C 72.670545,350.83037 78.882011,350.5905 84,350.57227 l 0.441406,12.73632 a 1.5672098,1.5672098 0 0 0 3.132813,0.004 l 0.478515,-12.74023 c 3.531395,0.0743 6.554972,0.18638 9.41211,0.20898 0.511422,17.84311 -4.435408,33.87496 -1.669922,55.07227 a 1.5672098,1.5672098 0 0 0 2.623047,0.94336 c 1.091673,-1.01853 1.817971,-1.20889 2.671871,-1.24805 0.8539,-0.0392 1.88378,0.20838 3.1875,0.3125 a 1.5672098,1.5672098 0 0 0 1.59961,-2.08985 c -4.13758,-11.56501 -4.33865,-20.42638 -3.80273,-28.85156 0.50547,-7.94653 1.64414,-15.57653 0.7539,-24.36914 2.06515,-0.15485 4.12819,-0.3283 6.55079,-0.83984 3.82258,-0.80716 6.49628,-3.08896 7.74609,-5.91016 1.24981,-2.8212 1.13345,-6.09899 -0.15039,-9.00195 -2.56768,-5.80593 -10.02435,-9.99733 -20.417969,-6.56641 a 1.5672098,1.5672098 0 0 0 0.61914,3.05078 c 9.948829,-0.80796 14.042219,2.55519 15.046879,5.72657 1.00465,3.17137 -0.84105,6.65901 -4.65821,7.375 -1.65678,0.31076 -3.58691,0.35791 -5.61914,0.39453 -0.7944,-3.89872 -1.976949,-8.00828 -3.904294,-12.52344 a 1.5672098,1.5672098 0 0 0 -2.957032,1.01172 c 1.055845,4.04777 1.657237,7.88026 2.033204,11.62109 -2.564815,-0.017 -5.485649,0.01 -8.857422,0.16602 l 0.876953,-23.31055 c 6.543237,-0.83183 12.450661,-2.23009 17.324221,-4.79297 4.85228,-2.55169 8.67722,-6.29858 11.16406,-11.375 1.92389,0.31548 3.85461,0.64511 5.83398,1.06445 a 1.5672098,1.5672098 0 0 0 1.88868,-1.63671 l -0.42383,-6.36719 a 1.5672098,1.5672098 0 0 0 -1.6211,-1.46289 l -3.10156,0.11133 c 0.48765,-2.79917 0.7771,-5.79943 0.69141,-9.19532 -0.12609,-4.99704 -3.04278,-9.49814 -6.96289,-12.78906 -3.92012,-3.29092 -8.89813,-5.45189 -13.65625,-5.61328 z m 38.52734,21.54492 c -2.44353,0.0747 -4.39844,1.09072 -5.61328,2.60156 -1.21484,1.51084 -1.73354,3.38173 -1.92383,5.23047 -0.38058,3.6975 0.46036,7.34743 1.26758,9.21094 a 1.5672098,1.5672098 0 0 0 2.88672,-1.21875 c 0.13847,0.33628 -0.004,-0.0404 -0.0508,-0.38281 -0.0473,-0.3424 -0.0941,-0.8218 -0.12305,-1.37695 -0.0579,-1.11032 -0.0368,-2.53409 0.18164,-3.8711 0.21842,-1.33701 0.649,-2.56806 1.24219,-3.3418 0.59318,-0.77373 1.21987,-1.1834 2.48828,-1.17382 1.14678,0.009 1.69328,0.39925 2.24414,1.18359 0.55086,0.78434 0.94533,2.03168 1.13477,3.35547 0.18943,1.32378 0.1923,2.70996 0.12695,3.74414 -0.0327,0.51709 -0.0838,0.94906 -0.12695,1.22461 -0.018,0.11517 -0.0324,0.17957 -0.041,0.21875 a 1.5672098,1.5672098 0 0 0 1.86133,2.10351 c 0.62102,-0.16936 0.75124,-0.42918 0.87305,-0.57812 0.1218,-0.14895 0.18483,-0.26186 0.24609,-0.37305 0.12252,-0.22237 0.21505,-0.43593 0.31055,-0.6875 0.191,-0.50314 0.38138,-1.13673 0.55859,-1.88476 0.35443,-1.49606 0.64777,-3.43155 0.58398,-5.4336 -0.0638,-2.00205 -0.46772,-4.1103 -1.75195,-5.82226 -1.28423,-1.71196 -3.51591,-2.81593 -6.375,-2.72852 z m -39.296874,12.66406 c 3.756724,0.0499 7.712824,0.42883 11.714844,0.88282 -4.2734,6.04063 -11.977904,9.20367 -21.873047,11.36523 l 0.447266,-11.90234 c 3.171281,-0.22837 6.381232,-0.38992 9.710937,-0.34571 z m 60.388674,11.79493 c -6.10354,-0.0936 -10.47371,1.65689 -13.17969,4.54492 -2.35838,2.51704 -3.30996,5.78018 -3.36133,9.06836 -0.7461,0.14626 -1.51909,0.25476 -2.30078,0.34375 -0.41363,-4.15635 -2.09013,-8.0895 -5.50781,-10.48242 -3.90532,-2.73435 -9.72895,-3.21198 -17.21875,-0.23633 a 1.5672098,1.5672098 0 0 0 0.81055,3.00586 c 6.08132,-0.91135 9.98712,0.19516 12.39257,2.08007 1.97367,1.54657 2.85531,3.75343 3.20118,6.11133 -3.69128,0.12191 -7.73414,0.23653 -12.50782,1.13282 a 1.5672098,1.5672098 0 0 0 0.36328,3.10546 c 3.89368,-0.18616 7.82057,0.452 11.7793,0.96875 -0.74257,2.5936 -2.06832,4.96981 -3.91992,6.21485 -2.23256,1.50119 -4.86688,1.79268 -8.31445,-0.59375 a 1.5672098,1.5672098 0 0 0 -2.34961,1.86328 c 0.39277,0.9969 0.754,1.82495 0.8164,2.36523 0.0624,0.54028 0.0739,0.77398 -0.63281,1.42383 a 1.5672098,1.5672098 0 0 0 0.61719,2.6582 c 5.74724,1.69612 10.73534,0.31305 14.23242,-2.69335 3.16971,-2.72497 5.11674,-6.67538 5.93945,-10.79297 1.19798,0.0143 2.39871,-0.057 3.60157,-0.20899 1.34538,4.10582 3.85479,7.79622 7.25586,9.78321 3.74216,2.18626 8.67936,1.92069 12.76171,-2.22266 a 1.5672098,1.5672098 0 0 0 -1.88476,-2.46484 c -3.43986,1.93256 -6.10831,1.63013 -8.34571,0.24023 -2.23739,-1.3899 -3.99893,-4.08625 -4.76562,-7.10156 -0.76669,-3.01531 -0.52913,-6.27235 0.86328,-8.72071 1.39241,-2.44835 3.8502,-4.24771 8.23047,-4.51367 1.90502,-0.11566 2.71132,0.28838 2.94727,0.51953 0.23594,0.23116 0.31007,0.51474 0.15429,1.19336 -0.15578,0.67863 -0.62101,1.55433 -1.14648,2.19727 -0.52548,0.64294 -1.23455,0.97364 -1.05469,0.94141 a 1.5672098,1.5672098 0 0 0 -0.73047,2.74414 c 0.72162,0.6052 1.77345,0.67806 2.50781,0.45312 0.73437,-0.22494 1.31132,-0.63713 1.85157,-1.12891 1.0805,-0.98355 2.00748,-2.34858 2.63281,-3.86523 0.62533,-1.51665 0.9953,-3.22238 0.39453,-4.88086 -0.60077,-1.65848 -2.38477,-2.86464 -4.69531,-3 -0.49043,-0.0287 -0.97,-0.0456 -1.4375,-0.0527 z"
         id="path2527"
         style="fill:#000000;stroke:none;stroke-width:0.42016372px;stroke-linecap:butt;stroke-linejoin:miter;stroke-opacity:1"
         inkscape:original="M 100.2207 271.25391 C 97.348589 271.15651 94.659675 271.89216 92.587891 273.69922 C 78.724013 285.79163 96.904485 296.5509 104.4707 290.46289 C 89.619601 291.59165 87.263064 279.05041 95.558594 274.97266 C 104.11525 270.76655 115.94956 279.26942 116.56836 287.06836 C 116.93784 291.72506 116.59496 295.65712 115.66211 299.01758 L 64.363281 300.86133 L 64.574219 307.01562 C 70.786373 305.32925 77.203012 303.99139 83.929688 303.17969 L 84.46875 318.75195 C 79.238186 319.67305 73.624794 320.42584 67.757812 321.23438 C 73.699444 321.26887 79.326783 321.15348 84.537109 320.72461 L 85.4375 346.74023 C 79.638968 347.16709 72.605918 348.12432 63.736328 350.27734 C 73.329391 349.17784 80.12336 348.94215 85.513672 348.96875 L 86.007812 363.25391 L 86.544922 348.9707 C 91.577904 349.0269 95.351186 349.29087 99.0625 349.25195 C 99.928978 368.03714 94.554162 384.22343 97.349609 405.65039 C 99.987848 403.18894 102.14153 404.11828 104.40234 404.29883 C 95.965077 380.7157 103.54211 367.6439 101.16211 349.19141 C 103.61095 349.07672 106.1271 348.79591 109.05469 348.17773 C 122.66766 345.30329 116.74419 323.21928 97.048828 329.7207 C 117.75047 328.03949 117.19071 344.17439 107.85352 345.92578 C 105.68124 346.33324 103.36967 346.42362 100.73242 346.43164 C 99.982423 342.26112 98.704508 337.8022 96.599609 332.87109 C 97.83446 337.60511 98.534466 342.08893 98.880859 346.42188 C 95.463408 346.40078 91.542615 346.34208 86.630859 346.65234 L 87.617188 320.42578 C 101.63056 318.85863 112.18515 314.56221 116.79102 303.83008 C 119.08321 304.18988 121.40647 304.60389 123.7832 305.10742 L 123.35938 298.74023 L 118.36328 298.91992 C 119.085 295.77073 119.429 292.20383 119.32617 288.12891 C 119.10413 279.32928 108.83705 271.54616 100.2207 271.25391 z M 138.84961 292.79883 C 130.55155 293.05251 132.70184 304.72761 133.96875 307.65234 C 133.63366 306.83856 132.33153 295.29216 139.16797 295.34375 C 145.63536 295.39255 144.22499 307.02292 143.94336 307.22852 C 144.59831 307.0499 148.76859 292.49559 138.84961 292.79883 z M 99.525391 302.33008 C 104.15595 302.39158 108.95961 302.74746 113.94727 303.41602 C 109.46709 311.9651 99.881257 315.73641 87.701172 318.16211 L 88.28125 302.72852 C 91.927861 302.42391 95.669478 302.27888 99.525391 302.33008 z M 159.86914 317.25781 C 148.26978 317.08001 144.42677 323.77101 144.89453 330.65039 C 143.1949 331.0776 141.45525 331.29695 139.66211 331.4375 C 139.58651 322.58055 133.27449 314.67677 118.90234 320.38672 C 131.63583 318.47847 136.50872 324.94166 136.60938 331.61719 C 132.44772 331.77906 127.88671 331.79123 122.50977 332.80078 C 127.28533 332.57245 131.93148 333.51234 136.45117 334.02344 C 135.34504 341.26208 128.94156 347.57773 121.23633 342.24414 C 121.96097 344.08334 123.02356 345.92252 121.02344 347.76172 C 131.64251 350.8956 138.29927 342.77427 139.48047 334.29297 C 141.49358 334.39639 143.47946 334.32777 145.4375 333.95117 C 147.66289 342.45061 155.83961 349.55633 163.25391 342.03125 C 147.89895 350.65789 139.17359 320.17158 158.37305 319.00586 C 166.93472 318.48603 161.98408 326.54589 159.64648 326.96484 C 161.9404 328.88871 168.91901 317.75855 161.23828 317.30859 C 160.77038 317.28119 160.31409 317.26461 159.86914 317.25781 z "
         inkscape:radius="1.5670531"
         sodipodi:type="inkscape:offset" />
      <path
         transform="matrix(0.1454666,0,0,0.1454666,185.30953,94.340517)"
         d="m -29.287109,-32.457031 c -5.087945,-0.15797 -10.742653,1.789923 -16.472657,6.326172 -5.916155,4.683615 -7.191023,11.444365 -5.441406,17.0312496 1.749617,5.5868843 5.876021,10.3219138 10.373047,13.5117188 12.061889,8.5557016 31.8266445,-2.7443111 29.177734,-20.7050784 -1.194405,-8.098468 -7.923402,-15.862484 -17.636718,-16.164062 z m -65.121094,9.308593 c -23.214147,-0.312831 -43.501187,4.925107 -64.279297,9.085938 -20.77811,4.1608309 -42.04161,7.2927597 -67.71289,3.201172 a 3.1479848,3.1479848 0 0 0 -1.7207,6.0078124 c 26.06555,11.0154134 49.18162,8.1065287 70.58007,3.234375 20.25093,-4.6108761 39.08214,-10.7140244 58.320317,-9.2890624 -0.261584,2.0338859 -0.591931,4.8453163 -0.966797,8.376953 -0.69453,6.5431638 -1.51941,15.803358 -2.26562,25.669922 l -16.39454,1.193359 c -4.93983,-4.697451 -11.22934,-7.980051 -17.38476,-9.833984 -6.72026,-2.024055 -13.01785,-2.622074 -17.84961,-0.787109 a 3.1479848,3.1479848 0 0 0 -0.70508,0.201171 c -0.0229,0.01013 -0.0513,0.01123 -0.0742,0.02149 a 3.1479848,3.1479848 0 0 0 -1.75586,2.083984 3.1479848,3.1479848 0 0 0 -0.0508,0.242188 3.1479848,3.1479848 0 0 0 -0.0137,0.07031 3.1479848,3.1479848 0 0 0 -0.0117,0.111328 3.1479848,3.1479848 0 0 0 -0.0215,0.210938 3.1479848,3.1479848 0 0 0 0,0.314453 3.1479848,3.1479848 0 0 0 0.0137,0.179687 c 1.79903,16.426872 1.42944,32.994724 0.44726,49.638672 -4.04318,0.38731 -8.58165,0.681401 -13.48632,0.935547 -0.22511,-18.455854 1.03159,-36.985857 5.66211,-56.621094 a 3.1479848,3.1479848 0 0 0 -3.85352,-3.7695309 c -16.83682,4.3606629 -34.98257,7.6183289 -50.07031,0.8867188 a 3.1479848,3.1479848 0 0 0 -4.33008,3.6621091 c 5.96969,23.103705 8.86479,40.560355 10.05273,58.529297 -10.1457,0.897538 -21.18487,2.107986 -33.55468,4 a 3.1479848,3.1479848 0 0 0 0.78125,6.244141 c 12.20691,-1.183661 23.12355,-1.693479 33.19921,-1.929688 0.62547,16.9233 -0.0672,35.070434 -1.29101,59.353514 a 3.1479848,3.1479848 0 0 0 6.28125,0.42383 c 1.76905,-20.86526 4.59102,-39.848711 4.88476,-59.921875 7.65528,-0.03936 14.68143,0.04246 21.15235,0.146484 2.13849,38.358251 7.82266,76.532451 9.82422,118.943361 a 3.1479848,3.1479848 0 0 0 6.28515,0.0703 c 3.13808,-44.89864 -3.16142,-82.16601 -4.70312,-118.98828 4.41756,0.0267 8.5521,-0.03724 12.43554,-0.205078 -2.38942,32.462408 -6.13548,65.186648 -0.40039,97.736328 a 3.1479848,3.1479848 0 0 0 6.13282,0.29297 c 1.02445,-3.70232 2.0357,-6.06659 2.86133,-7.40625 0.82562,-1.33966 1.3196,-1.59036 1.625,-1.70313 0.30539,-0.11276 0.74547,-0.13296 1.66796,0.002 0.9225,0.13491 2.22168,0.46238 3.90821,0.33398 a 3.1479848,3.1479848 0 0 0 2.74804,-4.13086 c -9.32644,-28.08621 -8.76078,-56.82706 -8.47461,-85.890623 14.25429,-1.988747 25.0507,-7.773966 32.54102,-21.619141 3.73026,-6.895037 4.4606,-13.394428 3.17773,-19.054687 2.62182,-0.308879 5.24069,-0.60804 7.85547,-0.898438 -1.40917,23.620415 -1.98759,49.721854 1.14063,65.740239 0.84707,4.33749 -1.60664,7.50237 -5.69727,9.50585 -4.09063,2.00349 -9.43847,2.06688 -12.70508,-0.10351 -6.96981,-4.63086 -9.74347,-10.62493 -8.54687,-16.298829 1.1966,-5.673894 6.71404,-11.891686 18.91406,-15.974609 a 3.1479848,3.1479848 0 0 0 -1.47851,-6.095703 c -12.20362,1.888329 -22.77165,7.500722 -27.54297,16.380859 -2.38566,4.440069 -3.15552,9.717313 -1.78516,15.173832 1.37036,5.45651 4.77046,11.05794 10.4082,16.70898 6.29904,6.31386 16.82318,5.89162 25.46094,2.10742 4.31888,-1.8921 8.281858,-4.71936 11.115236,-8.45703 2.833379,-3.73767 4.481833,-8.49026 3.88086,-13.66015 -1.678997,-14.443891 -1.482072,-41.545621 -0.615235,-66.312505 5.112656,-0.490941 10.203257,-0.911456 15.275391,-1.271484 -0.460028,29.184345 -4.998758,58.537034 -9.38086,88.048829 a 3.1479848,3.1479848 0 0 0 4.625,3.22266 c 2.872148,-1.57308 5.494145,-3.03266 7.109376,-3.25 0.807615,-0.10868 1.291554,-0.0381 1.919921,0.31835 0.628368,0.35649 1.481635,1.13297 2.439453,2.80665 a 3.1479848,3.1479848 0 0 0 5.876954,-1.6836 c -1.150611,-30.061142 -2.281607,-60.025596 -0.845704,-90.138671 6.002976,-0.277414 11.970083,-0.434768 17.888672,-0.425781 9.796325,30.761392 9.013206,58.547918 7.513672,91.406252 -1.535648,33.64969 -3.725197,72.50251 4.546875,124.41797 a 3.1479848,3.1479848 0 0 0 6.248047,-0.74219 c -6.345587,-81.05292 10.39649,-141.78692 -1.580078,-214.570313 8.955082,0.518043 17.805621,1.388313 26.4667969,2.916015 A 3.1479848,3.1479848 0 0 0 0.78710938,31.724609 C -0.69673352,27.952052 -0.29686479,24.328848 1.46875,20.183594 a 3.1479848,3.1479848 0 0 0 -3.125,-4.373047 l -61.333984,4.458984 c 0.955244,-12.9583461 2.385162,-25.9449175 4.664062,-38.99414 a 3.1479848,3.1479848 0 0 0 -5.638672,-2.404297 c -2.244226,3.053722 -4.501806,4.939992 -5.472656,5.15625 -0.485425,0.108129 -0.722461,0.125952 -1.474609,-0.373047 -0.752149,-0.499 -1.895081,-1.67818 -3.169922,-3.816406 a 3.1479848,3.1479848 0 0 0 -5.785157,2.248047 c 2.688078,13.0055292 3.905415,26.0380958 4.271485,39.101562 l -14.685547,1.068359 c 0.498626,-10.8115 1.074063,-21.1349394 1.654297,-28.4335934 0.326167,-4.1027946 0.64804,-7.4279796 0.933594,-9.6601566 0.142776,-1.116088 0.282385,-1.973378 0.378906,-2.419921 0.008,-0.03708 3.8e-5,-0.0075 0.0078,-0.03906 a 3.1479848,3.1479848 0 0 0 -2.574218,-4.720703 c -1.522554,-0.06841 -3.029901,-0.110681 -4.527344,-0.13086 z m 64.304687,4.316407 c 1.759874,0.06432 2.894607,0.52012 3.732422,1.345703 0.837816,0.825583 1.577307,2.237603 1.775391,4.916016 0.190045,2.569795 -1.096289,5.2126746 -2.962891,6.648437 -1.866601,1.4357624 -3.93869,1.9062032 -6.675781,0.2675781 -2.756566,-1.6502822 -3.994988,-4.6305561 -3.859375,-7.3437501 0.135613,-2.713193 1.363156,-4.711195 3.882812,-5.333984 1.531256,-0.378485 2.933419,-0.542905 4.107422,-0.5 z m -58.052734,1.488281 c -0.05057,0.0409 -0.08869,0.06181 -0.146484,0.101562 a 3.1479848,3.1479848 0 0 0 0.146484,-0.101562 z m -61.74219,37.501953 c 5.89607,0.65123 14.29902,3.85083 20.31055,8.949219 3.60805,3.059997 6.32003,6.651013 7.4668,10.328125 1.14676,3.677111 0.93812,7.449117 -1.66016,11.837891 -5.16657,8.726891 -12.08811,12.256723 -23.16406,14.25 -0.002,-15.089521 -0.49429,-30.234969 -2.95313,-45.365235 z m -30.70508,3.126953 c -1.17123,15.275622 -1.2448,30.230653 -0.6914,45.097656 -6.29088,0.300641 -13.19139,0.680435 -20.73438,1.214844 -0.38422,-13.902113 -2.34269,-28.56538 -6.85742,-44.726562 10.51541,3.212438 19.76952,1.035493 28.2832,-1.585938 z"
         id="path2568"
         style="fill:#000000;stroke:none;stroke-width:0.99999994px;stroke-linecap:butt;stroke-linejoin:miter;stroke-opacity:1"
         inkscape:original="M -29.384766 -29.310547 C -33.607964 -29.441668 -38.515182 -27.851177 -43.806641 -23.662109 C -53.908184 -15.665067 -47.014968 -3.8358406 -39.007812 1.84375 C -29.435365 8.6336486 -12.466437 -0.25772812 -14.763672 -15.833984 C -15.752028 -22.535368 -21.322296 -29.060224 -29.384766 -29.310547 z M -29.988281 -21.978516 C -25.350549 -21.809023 -21.930757 -19.208255 -21.457031 -12.802734 C -20.910965 -5.4188267 -28.358951 1.5325052 -35.851562 -2.953125 C -43.495128 -7.5291237 -42.86325 -19.436889 -34.966797 -21.388672 C -33.214154 -21.821878 -31.534192 -22.035013 -29.988281 -21.978516 z M -94.451172 -20.001953 C -139.87842 -20.614126 -174.52244 0.59562434 -226.89648 -7.7519531 C -176.34489 13.611365 -138.13607 -18.927693 -95.576172 -13.8125 C -95.82017 -13.82876 -97.955789 3.876358 -99.554688 26.083984 L -119.28516 27.519531 L -119.04297 28.488281 C -128.23544 17.924287 -146.59924 13.677171 -153.57227 16.804688 C -139.50146 15.353416 -109.08954 32.636865 -121.07227 52.876953 C -127.29169 63.382224 -136.24645 67.405206 -150.01562 69.326172 C -149.93713 51.730631 -150.33911 34.1847 -153.57227 16.804688 C -151.64352 34.415972 -152.09709 52.079762 -153.21289 69.728516 C -158.92899 70.370043 -165.49983 70.73644 -172.89062 71.09375 C -173.32088 51.370552 -172.12449 31.502226 -167.14258 10.376953 C -184.12725 14.775907 -203.01822 18.349522 -219.28516 11.091797 C -212.94788 35.618133 -209.9523 53.969838 -208.89062 73.236328 C -219.75983 74.141275 -231.84229 75.452336 -245.35742 77.519531 C -231.83678 76.208482 -219.72172 75.6606 -208.78906 75.466797 C -207.93847 93.459426 -208.70156 112.46988 -210 138.23438 C -208.1259 116.13007 -205.0285 96.369527 -205.02148 75.408203 C -194.9328 75.299347 -185.98235 75.470143 -177.89453 75.597656 C -175.90705 114.7428 -169.91989 153.81788 -167.85742 197.51953 C -164.65911 151.75907 -171.46584 113.82377 -172.76367 75.660156 C -165.65643 75.744316 -159.26052 75.727356 -153.58203 75.34375 C -155.94951 109.03675 -160.11381 142.65374 -154.28516 175.73438 C -149.99944 160.24607 -145.71345 164.9884 -141.42773 164.66211 C -151.26441 135.03936 -150.31408 104.98476 -150.04688 75.042969 C -134.88164 73.496791 -124.70872 68.647432 -117.14258 54.662109 C -112.87455 46.773049 -112.83703 39.992027 -115.25586 34.402344 C -110.16497 33.790625 -105.07965 33.201521 -100.00586 32.658203 C -101.56994 57.103487 -102.25458 85.248382 -99.111328 101.34375 C -96.824638 113.05293 -113.39189 119.91977 -122.3457 113.9707 C -137.81984 103.68943 -136.93645 84.693389 -111.23438 76.091797 C -134.27777 79.657422 -149.80034 97.576952 -128.40625 119.02148 C -118.63182 128.81892 -91.294735 118.88838 -93.304688 101.59766 C -95.102033 86.135662 -94.840735 57.57943 -93.884766 32.021484 C -86.636808 31.298152 -79.414868 30.680034 -72.232422 30.21875 C -72.363094 60.860716 -77.233945 91.511429 -81.785156 122.16211 C -76.265345 119.13891 -70.670552 115.19943 -66.072266 123.23438 C -67.259808 92.208367 -68.491693 61.186116 -66.822266 29.900391 C -59.00664 29.48741 -51.242825 29.279978 -43.546875 29.345703 C -22.028665 93.824933 -47.155272 144.69697 -30.714844 247.87695 C -37.22017 164.78366 -19.722885 103.44094 -32.871094 29.636719 C -22.472838 30.09447 -12.21128 31.100984 -2.1425781 32.876953 C -3.9687325 28.234095 -3.4052966 23.592077 -1.4277344 18.949219 L -66.455078 23.677734 C -65.513618 9.4300288 -63.940888 -4.8750379 -61.427734 -19.265625 C -66.180377 -12.798698 -71.09024 -8.9989859 -76.785156 -18.550781 C -73.847126 -4.3359239 -72.518179 9.8813914 -72.275391 24.101562 L -93.630859 25.654297 C -92.567219 0.75414844 -90.921685 -19.819034 -90.021484 -19.873047 C -91.510279 -19.939937 -92.985777 -19.982206 -94.451172 -20.001953 z M -177.14258 18.949219 C -178.75922 36.732543 -178.84615 54.063862 -178.10156 71.349609 C -186.0807 71.725026 -194.97449 72.155005 -205.0332 72.925781 C -205.22289 56.540712 -207.38574 39.344261 -213.57227 19.662109 C -199.64981 26.542365 -188.44597 22.54508 -177.14258 18.949219 z "
         inkscape:radius="3.14767"
         sodipodi:type="inkscape:offset" />
      <path
         transform="matrix(0.48894749,0,0,0.48894749,117.94654,-17.706185)"
         d="m -62.773438,81.785156 c -2.038404,-0.0535 -4.050714,0.584711 -5.675781,2.064453 -1.538682,1.401086 -2.341504,3.017379 -2.412109,4.626953 -0.07061,1.609575 0.576579,3.140346 1.648437,4.416016 2.143717,2.55134 5.97872,4.249708 10.232422,4.275391 A 0.97186305,0.97186305 0 0 0 -58.746094,95.25 c -3.041459,-0.734693 -6.426101,-3.166187 -7.74414,-5.302734 -0.65902,-1.068274 -0.776688,-1.910241 -0.476563,-2.515625 0.300126,-0.605385 1.203073,-1.297946 3.333985,-1.636719 2.894379,-0.460153 5.762999,1.210837 8.023437,3.96875 2.053942,2.505972 3.372478,5.83319 3.755859,8.841797 l -28.740234,2.580081 a 0.97186305,0.97186305 0 0 0 -0.873047,0.80859 l -0.568359,3.40039 a 0.97186305,0.97186305 0 0 0 1.271484,1.08008 c 3.533369,-1.20279 7.028667,-2.03412 10.507813,-2.66406 0.658254,2.3037 1.184685,4.58911 1.609375,6.86328 -6.123439,0.8144 -13.0366,1.44638 -19.53125,3.85351 a 0.97186305,0.97186305 0 0 0 0.513672,1.86719 c 6.543762,-1.20835 13.421538,-0.92304 19.742187,-1.35156 0.725138,5.35336 1.01035,10.66372 1.208984,15.98633 -12.438841,0.84766 -24.149153,2.50821 -38.974609,-0.50782 a 0.97186305,0.97186305 0 0 0 -1.125,1.23047 c 0.2503,0.83949 0.56827,1.52351 0.66992,2.10352 0.10165,0.58 0.0822,1.03063 -0.4082,1.75 a 0.97186305,0.97186305 0 0 0 0.8457,1.51758 l 39.183596,-1.73828 c 0.165104,4.5482 0.337655,9.11164 0.826172,13.74023 a 0.97186305,0.97186305 0 0 0 1.9375,-0.13672 c -0.189949,-5.11479 -0.03127,-9.39149 0.111328,-13.73242 l 9.125,-0.4043 a 0.97186305,0.97186305 0 0 0 0.880859,-1.27148 c -1.715781,-5.25504 -3.061986,-10.51395 -3.025391,-15.99805 a 0.97186305,0.97186305 0 0 0 -1.939453,-0.10351 c -0.43286,4.31373 -0.606918,8.74196 0.66211,13.19921 -1.899886,0.0257 -3.771081,0.0903 -5.615235,0.18946 0.118468,-4.76683 0.101043,-9.89335 -0.427734,-16.24805 6.435321,-0.92582 12.121094,-3.36259 15.248047,-10.13086 0.387958,-0.83973 0.591052,-1.70034 0.789062,-2.55859 2.829264,-0.0834 5.664857,-0.16572 8.511719,-0.29297 3.442337,8.73032 3.527784,16.52197 3.224609,25.28906 -0.31057,8.98096 -0.97816,18.96394 1.429688,31.72461 a 0.97186305,0.97186305 0 0 0 1.921875,-0.27734 c -1.271521,-12.71578 -0.414513,-23.25109 -0.08984,-33.35547 1.358135,0.13939 2.866893,-0.0924 4.357422,-1.00391 1.975887,-1.20836 3.716093,-3.46296 3.955078,-6.76562 0.127625,-1.76371 -0.144536,-3.15792 -0.742187,-4.22461 -0.597651,-1.06669 -1.515269,-1.75833 -2.466797,-2.14258 -1.903056,-0.76851 -3.939894,-0.47991 -5.054688,-0.27148 a 0.97186305,0.97186305 0 0 0 -0.25,0.084 c -0.342348,-4.17353 -1.00386,-8.39113 -2.195312,-12.763672 a 0.97186305,0.97186305 0 0 0 -1.023438,-0.712891 l -11.255859,1.009765 c -0.203596,-4.066299 -2.054964,-7.940457 -4.728516,-10.902343 -2.91207,-3.226127 -6.719215,-5.44199 -10.417969,-5.539063 z M 5.0566406,100.10352 a 0.97186305,0.97186305 0 0 0 -0.9238281,0.91406 c -0.3301572,5.86287 -0.5128778,11.58369 -2.515625,17.125 -3.2634478,-4.77214 -5.6186343,-11.00902 -8.4003906,-16.82227 a 0.97186305,0.97186305 0 0 0 -1.8476563,0.38086 c 0,0 -0.2682939,6.70571 -0.5292968,13.41406 -0.9805718,0.27463 -1.9533848,0.46265 -2.9238278,0.60547 -0.459938,-3.71843 -1.932153,-7.21985 -4.736328,-9.53711 -3.079946,-2.54513 -7.647026,-3.54744 -13.539063,-1.97461 a 0.97186305,0.97186305 0 0 0 0.435547,1.89258 c 4.416386,-0.85828 7.546889,0.241 9.791016,2.34961 2.008747,1.88745 3.175541,4.71039 3.710937,7.71485 -2.220026,0.0949 -4.450814,0.10766 -6.783203,0.3789 a 0.97186305,0.97186305 0 0 0 0.07227,1.93555 c 0,0 3.565718,0.14074 7.044921,0.27734 0.140854,4.24844 -1.103997,8.48717 -3.476562,10.82617 -1.266489,1.24858 -2.797654,1.98933 -4.697266,2.04102 -1.899612,0.0517 -4.209669,-0.61233 -6.921875,-2.37695 a 0.97186305,0.97186305 0 0 0 -1.175781,1.53906 c 0.398081,0.35513 0.638127,0.62108 0.732422,0.75781 0.09429,0.13673 0.03548,0.0692 0.04687,-0.0215 0.0114,-0.0906 0.03147,-0.063 -0.08984,0.084 -0.121318,0.14697 -0.348967,0.37759 -0.626953,0.68164 a 0.97186305,0.97186305 0 0 0 0.332031,1.54883 c 6.228005,2.68037 11.486711,1.25292 14.939453,-2.17578 3.221662,-3.19923 4.900475,-7.99797 5.064453,-12.74609 1.139753,0.0442 2.0171997,0.078 2.6523442,0.10156 -0.1047535,2.73887 -0.2078891,5.44592 -0.2792968,7.45898 -0.040351,1.13752 -0.071736,2.0873 -0.091797,2.76758 -0.010031,0.34014 -0.015838,0.61151 -0.019531,0.81055 -0.00185,0.0995 -0.00388,0.1817 -0.00391,0.24804 -2.32e-5,0.0663 -0.0186,0.028 0.011719,0.24024 A 0.97186305,0.97186305 0 0 0 -7.9375,130.9707 c 0.1084687,-0.15168 0.1451924,-0.1477 0.1347656,-0.14453 -0.010427,0.003 -0.00597,-0.0128 0.1074219,0.0293 0.2267849,0.0843 0.7389434,0.46901 1.2734375,1.02539 a 0.97186305,0.97186305 0 0 0 1.6523438,-0.87695 c -1.2690569,-5.94185 -1.312377,-12.18737 -0.9726563,-18.53516 2.2292719,6.34745 5.27777413,11.91475 8.1054687,17.57031 a 0.97186305,0.97186305 0 0 0 1.8320313,-0.30468 C 5.520878,120.04086 7.166817,110.17775 6.0683594,100.95703 a 0.97186305,0.97186305 0 0 0 -1.0117188,-0.85351 z m -57.0351566,1.97656 c -0.161204,0.70943 -0.263423,1.4677 -0.607422,2.02148 -2.157112,3.47257 -6.422278,4.94993 -11.851562,5.91016 -0.245802,-2.16202 -0.551894,-4.4718 -0.927734,-6.94727 4.473404,-0.5591 8.92687,-0.82172 13.386718,-0.98437 z m 68.1875,1.07031 c -1.031434,0.003 -1.917277,0.0731 -2.599609,0.17578 -0.341166,0.0514 -0.628848,0.10781 -0.882813,0.1836 -0.126982,0.0379 -0.244954,0.079 -0.375,0.14257 -0.130045,0.0636 -0.285922,0.11936 -0.480468,0.39258 a 0.97186305,0.97186305 0 0 0 -0.15625,0.34375 c -2.4220439,10.41495 -1.659972,19.47636 -1.8671878,26.29688 -0.1036079,3.41025 -0.4581365,6.24103 -1.4570312,8.38672 -0.9988947,2.14568 -2.580636,3.67755 -5.4960938,4.68554 -0.4350521,0.15042 -1.0091345,0.0761 -1.6933593,-0.2832 -0.68422481,-0.35935 -1.42095159,-0.99255 -2.02734378,-1.74609 -0.60639222,-0.75355 -1.08428722,-1.62501 -1.31835932,-2.41016 -0.2340722,-0.78515 -0.211916,-1.4446 -0.00391,-1.87305 0.5137803,-1.05823 0.9833987,-1.34462 1.3203125,-1.41601 0.33691376,-0.0714 0.7608808,0.0537 1.23828125,0.42187 0.47740045,0.36815 0.93837515,0.95475 1.21289065,1.49024 0.2745154,0.53548 0.2552843,1.04684 0.2949219,0.93359 l 1.8496093,0.5957 c 0.7090331,-2.39505 -0.2935375,-4.85024 -2.1230469,-6.07422 -0.91475463,-0.61198 -2.07972564,-0.90251 -3.2617187,-0.64257 -1.1819931,0.25993 -2.3298591,1.04549 -3.3183594,2.36132 -0.9828589,1.30834 -1.2156921,2.94838 -0.96875,4.53125 0.2469422,1.58288 0.9563987,3.15122 1.9492188,4.51758 0.9928201,1.36637 2.2721032,2.53543 3.7363281,3.25977 1.4642249,0.72433 3.1544121,0.99126 4.7832031,0.43945 3.1817439,-1.07793 5.3374434,-3.0605 6.6503909,-5.63086 1.312947,-2.57036 1.834557,-5.68275 2.027344,-9.18945 0.382845,-6.9638 -0.526175,-15.56045 0.130859,-24.68555 0.285085,-0.70063 1.031184,-1.32937 2.251953,-1.70703 1.262105,-0.39045 2.935182,-0.47893 4.652344,-0.15625 3.240579,0.60896 6.51503,2.6614 8.039062,6.49609 -3.209419,0.27745 -6.488583,0.47015 -9.662109,0.95313 a 0.97186305,0.97186305 0 0 0 0.179687,1.93164 c 3.265053,-0.11317 6.715926,-0.0895 10.123047,-0.11523 0.183336,3.07753 -1.507846,5.03589 -3.742187,6.07421 -1.220065,0.56698 -2.568193,0.82142 -3.689453,0.76563 -1.121261,-0.0558 -1.959526,-0.42787 -2.337891,-0.89258 a 0.97186305,0.97186305 0 0 0 -1.691406,0.87109 c 0.181761,0.65828 0.638998,1.10333 1.162109,1.45704 0.523111,0.3537 1.152744,0.62292 1.861328,0.82226 1.417169,0.39868 3.158532,0.5128 4.896485,0.11914 1.737953,-0.39365 3.484252,-1.32573 4.716796,-3.01367 1.089967,-1.49268 1.640836,-3.63856 1.644532,-6.28906 3.4835,-0.0679 6.90862,-0.19375 9.960937,-0.67969 a 0.97186305,0.97186305 0 0 0 0.650391,-1.50586 c -0.143949,-0.21159 -0.151006,-0.33139 -0.03516,-0.69726 0.115849,-0.36588 0.413729,-0.87718 0.777343,-1.42579 a 0.97186305,0.97186305 0 0 0 -1.253906,-1.40234 c -3.001358,1.53942 -6.59693,2.22224 -10.388672,2.66406 -0.822242,-3.73451 -3.242172,-6.20974 -6.082031,-7.58593 -3.09415,-1.49943 -6.596611,-1.89819 -9.195312,-1.89063 a 0.97186305,0.97186305 0 0 0 -0.002,0 z m -61.794922,5.01758 c -0.500442,0.006 -1.032196,0.0604 -1.599609,0.16406 -2.39095,0.43679 -3.933588,2.28067 -4.234375,4.45313 -0.300787,2.17245 0.467348,4.66423 2.230469,6.88672 a 0.97186305,0.97186305 0 0 0 1.685547,-0.90235 c -0.212225,-0.65465 -0.721113,-2.57358 -0.677735,-4.17578 0.02169,-0.8011 0.186392,-1.5013 0.46875,-1.93555 0.282359,-0.43425 0.617515,-0.69261 1.429688,-0.74804 1.110977,-0.0758 1.757545,0.205 2.226562,0.63086 0.469018,0.42586 0.772307,1.06803 0.904297,1.79687 0.13199,0.72884 0.08083,1.52566 -0.08203,2.11914 -0.162862,0.59349 -0.495017,0.89601 -0.433594,0.86914 a 0.97186305,0.97186305 0 0 0 0.298828,1.85742 c 0.62073,0.0571 1.172719,-0.22786 1.5625,-0.58398 0.389782,-0.35612 0.680453,-0.80011 0.921875,-1.30469 0.482844,-1.00915 0.763321,-2.27242 0.746094,-3.58008 -0.01723,-1.30765 -0.340542,-2.68093 -1.224609,-3.77148 -0.884068,-1.09055 -2.344705,-1.79785 -4.222657,-1.77539 z m 12.480469,4.28906 a 0.97186305,0.97186305 0 0 0 0.136719,0.0488 c 1.418843,0.36833 2.876334,0.62079 3.800781,1.16016 0.924447,0.53936 1.453029,1.15511 1.320313,3.02148 -0.157794,2.21908 -1.225862,3.5192 -2.517578,4.4043 -0.867913,0.5947 -1.76924,0.90457 -2.556641,1.10937 0.06536,-3.26127 0.01522,-6.4978 -0.183594,-9.74414 z m -12.28125,9.63281 c -0.500425,0.006 -1.032184,0.0604 -1.599609,0.16407 -2.390923,0.43678 -3.933011,2.27871 -4.234375,4.45117 -0.301364,2.17246 0.465336,4.66611 2.228515,6.88867 a 0.97186305,0.97186305 0 0 0 1.685547,-0.90234 c -0.212102,-0.65428 -0.721544,-2.57359 -0.677734,-4.17579 0.0219,-0.80109 0.188168,-1.5012 0.470703,-1.93554 0.282535,-0.43434 0.61751,-0.69262 1.429688,-0.74805 1.110977,-0.0758 1.757545,0.205 2.226562,0.63086 0.469017,0.42586 0.772307,1.06803 0.904297,1.79688 0.13199,0.72884 0.08083,1.52565 -0.08203,2.11914 -0.162862,0.59348 -0.495014,0.89601 -0.433594,0.86914 a 0.97186305,0.97186305 0 0 0 0.298828,1.85742 c 0.620729,0.0571 1.172718,-0.22786 1.5625,-0.58399 0.389782,-0.35612 0.680453,-0.80011 0.921875,-1.30468 0.482844,-1.00916 0.76332,-2.27243 0.746094,-3.58008 -0.01723,-1.30765 -0.340542,-2.68093 -1.224609,-3.77149 -0.884068,-1.09055 -2.344705,-1.79784 -4.222657,-1.77539 z"
         id="path2608"
         style="fill:#000000;fill-opacity:1;stroke:none;stroke-width:0.26458332px;stroke-linecap:butt;stroke-linejoin:miter;stroke-opacity:1"
         inkscape:original="M -62.798828 82.755859 C -64.626133 82.707899 -66.356451 83.258526 -67.794922 84.568359 C -73.369941 89.644829 -66.957498 96.147113 -58.974609 96.195312 C -65.640048 94.585212 -72.952384 86.293347 -63.785156 84.835938 C -57.091505 83.771772 -51.048461 92.517248 -50.662109 99.474609 L -80.507812 102.1543 L -81.076172 105.55469 C -77.186387 104.23057 -73.342098 103.31485 -69.527344 102.66602 C -68.637032 105.6367 -67.967365 108.57607 -67.458984 111.49219 C -73.86011 112.38362 -81.158249 112.96303 -87.839844 115.43945 C -80.823057 114.14375 -73.516798 114.55777 -67.050781 114.03516 C -66.177336 120.06345 -65.911634 126.00335 -65.697266 131.9375 C -78.442251 132.75702 -90.504755 134.60266 -105.88086 131.47461 C -105.43966 132.95435 -104.51039 134.33683 -105.74805 136.15234 L -65.609375 134.37109 C -65.436059 139.23777 -65.247372 144.10739 -64.728516 149.02344 C -64.932388 143.53371 -64.760255 138.95436 -64.609375 134.32617 L -54.564453 133.88086 C -56.292862 128.58715 -57.676354 123.22309 -57.638672 117.57617 C -58.108874 122.26204 -58.339025 126.94682 -56.703125 131.60938 C -59.369622 131.61437 -61.967934 131.72199 -64.537109 131.87305 C -64.388593 126.59685 -64.354126 121.04025 -65.001953 113.83008 C -58.329331 113.02747 -52.74594 110.84379 -49.621094 104.08008 C -49.150938 103.06243 -48.840157 102.02452 -48.666016 100.98242 C -45.359513 100.88322 -42.055296 100.7993 -38.742188 100.64062 C -31.192607 118.99457 -38.597543 133.19462 -33.828125 158.4707 C -35.150105 145.25031 -34.18233 134.34878 -33.886719 123.99219 C -31.730093 124.91528 -26.042344 123.18815 -25.607422 117.17773 C -25.136014 110.66316 -30.64839 111.17627 -32.724609 111.56445 C -30.031278 112.26364 -26.576186 112.49877 -26.878906 116.75586 C -27.237036 121.79228 -32.023585 123.20167 -33.869141 123.41602 C -33.64913 114.98013 -33.913608 106.88895 -36.285156 98.185547 L -48.501953 99.28125 C -48.272335 90.990167 -56.167761 82.929889 -62.798828 82.755859 z M -50.675781 101.04688 C -50.779431 102.37559 -51.127393 103.59722 -51.759766 104.61523 C -54.295157 108.69676 -59.26638 110.20164 -65.263672 111.16797 C -65.557251 108.43586 -65.950657 105.46039 -66.462891 102.19727 C -61.163358 101.48084 -55.914999 101.22051 -50.675781 101.04688 z M 5.1035156 101.07227 C 4.7398749 107.52974 4.6930349 114.00723 1.8964844 120.31641 C -2.1194937 115.23269 -4.6107752 108.11275 -7.6601562 101.74023 C -7.6601562 101.74023 -7.9430039 108.79689 -8.21875 115.9082 C -9.8019479 116.40726 -11.355478 116.69862 -12.892578 116.875 C -13.418609 109.02698 -18.754133 102.11725 -30.109375 105.14844 C -20.784157 103.33617 -16.029867 109.90594 -15.183594 117.07031 C -17.821667 117.22668 -20.433823 117.20044 -23.09375 117.50977 C -23.09375 117.50977 -19.114141 117.66734 -15.109375 117.82422 C -14.351524 127.34307 -20.391757 137.42828 -31.712891 130.0625 C -30.011592 131.58022 -30.534868 131.80211 -31.580078 132.94531 C -19.693564 138.06096 -12.723294 127.57818 -12.853516 117.91016 C -10.861029 117.98746 -8.7653446 118.06906 -8.3007812 118.08398 C -8.540888 124.33607 -8.7582018 130.19839 -8.7285156 130.40625 C -7.9375464 129.30013 -6.8651133 130.01577 -5.7207031 131.20703 C -7.3917214 123.38316 -7.2688127 115.17621 -6.4570312 106.82031 C -4.3588511 115.42084 -0.39020014 122.35805 3.2324219 129.60352 C 4.5604609 119.89192 6.1786552 110.09725 5.1035156 101.07227 z M 16.212891 104.12305 C 14.234173 104.12905 12.818057 104.39037 12.662109 104.60938 C 7.8948812 125.10878 15.66314 140.37122 3.2128906 144.67578 C 0.15262191 145.73384 -4.4376354 139.93435 -3.0234375 137.02148 C -0.65399589 132.14113 3.3922055 137.60595 2.8359375 139.19531 C 4.0012869 135.25886 -0.6173426 130.98582 -4.1582031 135.69922 C -7.334854 139.92782 -1.1480048 148.77279 4.2519531 146.94336 C 16.149016 142.91281 11.021005 126.71174 12.40625 108.09766 C 13.999631 103.64026 26.563557 103.9881 29.558594 113.33398 C 29.612254 113.50143 29.658913 113.66669 29.703125 113.83008 C 26.062313 114.17693 22.332645 114.36678 18.800781 114.9043 C 22.406324 114.77933 26.201648 114.8146 29.910156 114.77539 C 31.273816 122.80952 20.940878 125.39974 18.433594 122.32031 C 19.146199 124.90113 31.618383 126.81297 30.882812 114.76367 C 34.674923 114.70797 38.346014 114.55097 41.585938 114.03516 C 40.934838 113.0781 41.569844 111.96039 42.320312 110.82812 C 38.920898 112.5717 34.930187 113.28195 30.785156 113.7207 C 29.75676 105.72036 21.197575 104.10854 16.212891 104.12305 z M -45.574219 109.14062 C -46.013869 109.14562 -46.492712 109.19233 -47.011719 109.28711 C -51.057587 110.02623 -51.680125 114.96859 -48.427734 119.06836 C -48.899796 117.61219 -50.585107 111.2305 -46.349609 110.94141 C -41.070259 110.58108 -41.575248 117.47128 -43.279297 118.2168 C -41.031511 118.42362 -38.979484 109.06176 -45.574219 109.14062 z M -45.375 123.0625 C -45.814647 123.0675 -46.293494 123.1142 -46.8125 123.20898 C -50.858368 123.9481 -51.48286 128.89046 -48.230469 132.99023 C -48.702528 131.53406 -50.385888 125.15236 -46.150391 124.86328 C -40.871041 124.50294 -41.376029 131.39314 -43.080078 132.13867 C -40.832292 132.34549 -38.780263 122.98364 -45.375 123.0625 z "
         inkscape:radius="0.97176588"
         sodipodi:type="inkscape:offset" />
    </g>
  </g>
</svg>
