<?xml version="1.0" encoding="UTF-8" standalone="no"?>
<!-- Created with Inkscape (http://www.inkscape.org/) -->

<svg
   width="210mm"
   height="297mm"
   viewBox="0 0 210 297"
   version="1.1"
   id="svg5"
   inkscape:version="1.1.2 (0a00cf5339, 2022-02-04)"
   sodipodi:docname="pic_JunalaStandart.svg"
   xmlns:inkscape="http://www.inkscape.org/namespaces/inkscape"
   xmlns:sodipodi="http://sodipodi.sourceforge.net/DTD/sodipodi-0.dtd"
   xmlns="http://www.w3.org/2000/svg"
   xmlns:svg="http://www.w3.org/2000/svg">
  <sodipodi:namedview
     id="namedview7"
     pagecolor="#ffffff"
     bordercolor="#666666"
     borderopacity="1.0"
     inkscape:pageshadow="2"
     inkscape:pageopacity="0.0"
     inkscape:pagecheckerboard="0"
     inkscape:document-units="mm"
     showgrid="false"
     inkscape:zoom="0.31685387"
     inkscape:cx="878.95406"
     inkscape:cy="706.95048"
     inkscape:window-width="1366"
     inkscape:window-height="687"
     inkscape:window-x="0"
     inkscape:window-y="0"
     inkscape:window-maximized="1"
     inkscape:current-layer="layer1" />
  <defs
     id="defs2">
    <rect
       x="140.96332"
       y="1018.8145"
       width="600.39666"
       height="161.2349"
       id="rect6474" />
  </defs>
  <g
     inkscape:label="Слой 1"
     inkscape:groupmode="layer"
     id="layer1">
    <g
       id="g4784"
       transform="matrix(0.70429807,0,0,0.70429807,-4.6919431,65.866596)">
      <path
         style="fill:#5aa02c;stroke:#000000;stroke-width:0.5;stroke-linecap:round;stroke-linejoin:round;stroke-miterlimit:4;stroke-dasharray:none;stroke-opacity:1;paint-order:markers fill stroke"
         d="m 70.133934,93.601097 c 0,0 0.243919,29.255583 -0.719537,43.838633 -1.139153,17.24245 -5.975776,51.49453 -5.975776,51.49453 0,0 15.053468,-28.60711 28.781872,-29.61305 11.195327,-0.82033 22.558897,6.91526 24.913447,15.87951 2.99317,11.39558 -9.88333,33.93649 -9.88333,33.93649 0,0 16.79317,9.51441 23.43164,16.34129 6.79613,6.98901 11.34867,15.90775 16.05167,24.4468 2.5422,4.61577 6.53062,14.39667 6.53062,14.39667 0,0 8.90234,-15.13295 12.91179,-22.93711 4.793,-9.32929 15.22155,-27.84115 17.44301,-24.43972 -2.19347,0.74314 -12.91826,-21.93283 -10.02471,-33.60427 3.96836,-16.00681 16.53142,-29.56936 34.91287,-20.60472 11.08771,5.40748 21.41996,20.7378 19.11829,27.66534 0,0 9.73108,-27.97816 11.47534,-42.57119 1.61793,-13.53616 0.27819,-27.31551 -1.03762,-40.88438 -0.74227,-7.654425 -3.85697,-22.746307 -3.85697,-22.746307 L 144.09271,62.149801 Z"
         id="path1022"
         sodipodi:nodetypes="cscsscsscscsscssccc" />
      <path
         style="fill:#e3dbdb;stroke:#000000;stroke-width:0.5;stroke-linecap:round;stroke-linejoin:round;stroke-miterlimit:4;stroke-dasharray:none;stroke-opacity:1;paint-order:markers fill stroke"
         d="m 65.00369,55.542769 5.130244,38.058328 c 0,0 55.159696,-8.192097 82.926776,-10.503088 19.76964,-1.645382 39.6635,-3.568599 59.46617,-2.385189 7.30639,0.436631 21.67966,3.486793 21.67966,3.486793 L 232.70547,44.21165 C 173.35161,10.905841 119.21026,33.574504 65.00369,55.542769 Z"
         id="path930"
         sodipodi:nodetypes="ccssccc" />
      <path
         style="fill:#000000;stroke:#000000;stroke-width:0.5;stroke-linecap:round;stroke-linejoin:round;stroke-miterlimit:4;stroke-dasharray:none;stroke-opacity:1;paint-order:markers fill stroke"
         d="m 65.401189,-47.043212 c 0,0 -5.735494,44.6381127 -5.110866,67.041375 0.333103,11.947274 4.713367,35.544606 4.713367,35.544606 0,0 58.95817,-7.025876 88.56842,-8.964699 26.33319,-1.724247 79.13336,-2.36642 79.13336,-2.36642 0,0 -2.34848,-22.049961 -1.35354,-33.021275 1.2313,-13.577685 5.2463,-26.79119 8.9992,-39.897883 2.17164,-7.584262 7.80119,-22.344457 7.80119,-22.344457 0,0 -67.29667,1.426604 -101.07032,2.027624 -27.19263,0.483907 -81.680811,1.981129 -81.680811,1.981129 z"
         id="path274"
         sodipodi:nodetypes="cscscsscsc" />
      <path
         style="fill:#e3dbdb;stroke:#000000;stroke-width:0.5;stroke-linecap:round;stroke-linejoin:round;stroke-miterlimit:4;stroke-dasharray:none;stroke-opacity:1;paint-order:markers fill stroke"
         d="m 126.59202,-17.823295 c -9.87113,-3.711697 -21.35719,6.686276 -17.39523,16.1254976 3.11884,7.4305056 14.86588,10.8917015 21.87166,4.9088812 6.65294,-5.6814984 2.55956,-18.3887368 -4.47643,-21.0343788 z"
         id="path480"
         sodipodi:nodetypes="ssss" />
      <path
         style="fill:#e3dbdb;stroke:#000000;stroke-width:0.5;stroke-linecap:round;stroke-linejoin:round;stroke-miterlimit:4;stroke-dasharray:none;stroke-opacity:1;paint-order:markers fill stroke"
         d="m 184.18001,-12.371285 c -4.34934,-2.988489 -11.93574,1.038844 -11.16445,6.2706705 0.63806,4.3281289 8.25931,8.0350152 11.87988,5.57914594 3.27483,-2.22134864 2.546,-9.60884544 -0.71543,-11.84981644 z"
         id="path800"
         sodipodi:nodetypes="ssss" />
      <path
         style="fill:#c8ab37;stroke:#000000;stroke-width:0.5;stroke-linecap:round;stroke-linejoin:round;stroke-miterlimit:4;stroke-dasharray:none;stroke-opacity:1;paint-order:markers fill stroke"
         d="m 128.30554,205.60151 c 8.16944,-6.67141 14.96349,-16.12064 17.00837,-27.49549 4.05839,9.73482 10.81446,22.48567 18.67387,29.50547 -4.32202,7.58737 -9.82738,17.99845 -11.44194,24.66557 -6.07734,-9.83213 -14.03886,-25.97966 -24.2403,-26.67555 z"
         id="path1646"
         sodipodi:nodetypes="ccccc" />
      <path
         style="fill:#c8ab37;stroke:#000000;stroke-width:0.5;stroke-linecap:round;stroke-linejoin:round;stroke-miterlimit:4;stroke-dasharray:none;stroke-opacity:1;paint-order:markers fill stroke"
         d="m 146.85437,153.26729 c -3.82799,-1.69149 -8.33364,3.07144 -6.56941,6.72364 1.23647,2.55966 6.70121,2.76676 8.50872,0.57277 1.60017,-1.94232 0.36256,-6.27928 -1.93931,-7.29641 z"
         id="path2205"
         sodipodi:nodetypes="ssss" />
      <path
         style="fill:#c8ab37;stroke:#000000;stroke-width:0.5;stroke-linecap:round;stroke-linejoin:round;stroke-miterlimit:4;stroke-dasharray:none;stroke-opacity:1;paint-order:markers fill stroke"
         d="m 145.67194,132.18471 c -1.93892,-0.71582 -5.2544,1.96763 -4.75934,3.97431 0.46043,1.8663 4.24866,2.54225 5.63766,1.21344 1.26732,-1.2124 0.76699,-4.58032 -0.87832,-5.18775 z"
         id="path2207"
         sodipodi:nodetypes="ssss" />
      <path
         style="fill:#c8ab37;stroke:#000000;stroke-width:0.5;stroke-linecap:round;stroke-linejoin:round;stroke-miterlimit:4;stroke-dasharray:none;stroke-opacity:1;paint-order:markers fill stroke"
         d="m 144.52665,116.33366 c -1.55441,-0.3638 -3.62135,2.14601 -3.09641,3.65365 0.47087,1.35236 3.22309,1.87896 4.21233,0.84358 1.06699,-1.11675 0.38798,-4.14525 -1.11592,-4.49723 z"
         id="path2209"
         sodipodi:nodetypes="ssss" />
      <path
         style="fill:#aca793;stroke:#000000;stroke-width:0.5;stroke-linecap:round;stroke-linejoin:round;stroke-miterlimit:4;stroke-dasharray:none;stroke-opacity:1;paint-order:markers fill stroke"
         d="m 62.165502,194.31863 c 2.621998,1.438 7.703803,-1.43391 7.805443,-4.42262 0.112972,-3.32191 -5.436576,-7.14427 -8.321627,-5.49372 -2.872982,1.64364 -2.385935,8.32471 0.516184,9.91634 z"
         id="path2301"
         sodipodi:nodetypes="ssss" />
      <path
         style="fill:#aca793;stroke:#000000;stroke-width:0.5;stroke-linecap:round;stroke-linejoin:round;stroke-miterlimit:4;stroke-dasharray:none;stroke-opacity:1;paint-order:markers fill stroke"
         d="m 106.05159,203.3748 c -3.15882,-0.68323 -7.339249,4.05663 -6.514018,7.18136 0.883508,3.34541 7.405698,5.68056 9.860908,3.24247 2.58948,-2.57141 0.21995,-9.65234 -3.34689,-10.42383 z"
         id="path2303"
         sodipodi:nodetypes="ssss" />
      <path
         style="fill:#aca793;stroke:#000000;stroke-width:0.5;stroke-linecap:round;stroke-linejoin:round;stroke-miterlimit:4;stroke-dasharray:none;stroke-opacity:1;paint-order:markers fill stroke"
         d="m 152.68231,271.30068 c -3.8169,-0.12245 -7.68198,-6.91701 -5.49913,-10.05052 2.08997,-3.00017 9.32819,-1.72006 10.85118,1.60402 1.38835,3.03022 -2.02063,8.55337 -5.35205,8.4465 z"
         id="path2305"
         sodipodi:nodetypes="ssss" />
      <path
         style="fill:#aca793;stroke:#000000;stroke-width:0.5;stroke-linecap:round;stroke-linejoin:round;stroke-miterlimit:4;stroke-dasharray:none;stroke-opacity:1;paint-order:markers fill stroke"
         d="m 187.95583,211.51658 c -2.97675,-2.16651 -9.90594,0.31834 -10.30364,3.97848 -0.41978,3.86334 6.24633,8.17957 9.71991,6.43721 3.10824,-1.5591 3.39527,-8.36943 0.58373,-10.41569 z"
         id="path2307"
         sodipodi:nodetypes="ssss" />
      <path
         style="fill:#aca793;stroke:#000000;stroke-width:0.5;stroke-linecap:round;stroke-linejoin:round;stroke-miterlimit:4;stroke-dasharray:none;stroke-opacity:1;paint-order:markers fill stroke"
         d="m 230.97594,186.0299 c -2.96067,-2.03637 -9.55486,0.68408 -9.90245,4.26061 -0.36988,3.80586 6.04959,8.19302 9.4672,6.47799 3.20193,-1.60679 3.38694,-8.70841 0.43525,-10.7386 z"
         id="path2309"
         sodipodi:nodetypes="ssss" />
      <path
         style="fill:#917c6f;stroke:#000000;stroke-width:0.5;stroke-linecap:round;stroke-linejoin:round;stroke-miterlimit:4;stroke-dasharray:none;stroke-opacity:1;paint-order:markers fill stroke"
         d="m 57.819059,-46.473525 c 66.992331,0.207888 133.713941,-0.04488 199.041381,-2.66995 0,0 -1.77008,-3.420748 -1.63302,-5.247534 0.15985,-2.130591 2.79649,-5.767528 2.79649,-5.767528 -65.72366,2.823327 -132.01835,3.631758 -198.42919,4.030374 -6.33057,0.0062 -7.913734,10.174349 -1.775661,9.654638 z"
         id="path2597"
         sodipodi:nodetypes="ccsccc" />
      <path
         style="fill:#483e37;stroke:#000000;stroke-width:0.5;stroke-linecap:round;stroke-linejoin:round;stroke-miterlimit:4;stroke-dasharray:none;stroke-opacity:1;paint-order:markers fill stroke"
         d="m 261.19345,-54.647157 c 0.15356,-2.113688 -1.05032,-5.524009 -3.16954,-5.51138 -2.0614,0.01228 -2.82241,3.345321 -3.01895,5.397365 -0.18802,1.96308 -0.0868,5.276351 1.85548,5.617697 2.29965,0.404148 4.16383,-3.174927 4.33301,-5.503682 z"
         id="path3031"
         sodipodi:nodetypes="sssss" />
    </g>
    <text
       xml:space="preserve"
       transform="matrix(0.26458333,0,0,0.26458333,-9.2735738,1.2774621)"
       id="text6472"
       style="font-style:normal;font-weight:normal;font-size:40px;line-height:1.25;font-family:sans-serif;white-space:pre;shape-inside:url(#rect6474);fill:#000000;fill-opacity:1;stroke:none"><tspan
         x="140.96289"
         y="1054.8446"
         id="tspan8974">Знамя Юнальского баронства
</tspan><tspan
         x="140.96289"
         y="1104.8446"
         id="tspan8976">(Лунная ночь, Туман, Зелёная </tspan><tspan
         x="140.96289"
         y="1154.8446"
         id="tspan8978">трава, Золотая роса)</tspan></text>
  </g>
</svg>
