<?xml version="1.0" encoding="UTF-8" standalone="no"?>
<!-- Created with Inkscape (http://www.inkscape.org/) -->

<svg
   width="210mm"
   height="297mm"
   viewBox="0 0 210 297"
   version="1.1"
   id="svg8"
   inkscape:version="1.1.2 (0a00cf5339, 2022-02-04)"
   sodipodi:docname="pic_ValensiaBelt.svg"
   xmlns:inkscape="http://www.inkscape.org/namespaces/inkscape"
   xmlns:sodipodi="http://sodipodi.sourceforge.net/DTD/sodipodi-0.dtd"
   xmlns="http://www.w3.org/2000/svg"
   xmlns:svg="http://www.w3.org/2000/svg"
   xmlns:rdf="http://www.w3.org/1999/02/22-rdf-syntax-ns#"
   xmlns:cc="http://creativecommons.org/ns#"
   xmlns:dc="http://purl.org/dc/elements/1.1/">
  <defs
     id="defs2">
    <rect
       x="307.1611"
       y="641.65071"
       width="697.64034"
       height="368.00786"
       id="rect3803" />
  </defs>
  <sodipodi:namedview
     id="base"
     pagecolor="#ffffff"
     bordercolor="#666666"
     borderopacity="1.0"
     inkscape:pageopacity="0.0"
     inkscape:pageshadow="2"
     inkscape:zoom="0.72340998"
     inkscape:cx="303.42407"
     inkscape:cy="478.29033"
     inkscape:document-units="mm"
     inkscape:current-layer="layer1"
     showgrid="false"
     objecttolerance="1"
     guidetolerance="1"
     inkscape:window-width="1600"
     inkscape:window-height="827"
     inkscape:window-x="0"
     inkscape:window-y="0"
     inkscape:window-maximized="1"
     inkscape:pagecheckerboard="0" />
  <metadata
     id="metadata5">
    <rdf:RDF>
      <cc:Work
         rdf:about="">
        <dc:format>image/svg+xml</dc:format>
        <dc:type
           rdf:resource="http://purl.org/dc/dcmitype/StillImage" />
      </cc:Work>
    </rdf:RDF>
  </metadata>
  <g
     inkscape:label="Layer 1"
     inkscape:groupmode="layer"
     id="layer1">
    <path
       style="fill:#ac9d93;stroke:#000000;stroke-width:0.35277778;stroke-linecap:round;stroke-linejoin:miter;stroke-opacity:1;stroke-miterlimit:4;stroke-dasharray:none"
       d="m 19.499828,34.8978 4.190433,12.403892 1.224253,0.483068 -5.339443,2.95634 8.614404,3.39956 10.80674,2.979119 -15.15052,5.390477 7.22699,3.101941 -6.516091,2.259282 15.129114,2.712974 24.005807,2.141797 -30.766218,0.283252 -9.602991,1.003512 1.660908,4.629012 -2.553594,0.318866 2.120076,4.68164 -3.94729,9.306883 2.90853,5.995191 0.763036,2.465334 -5.418375,2.66346 6.733711,8.14579 -1.768056,4.2435 1.088041,0.77333 -1.468552,1.69019 6.502139,1.48311 31.923447,1.48139 -3.782886,2.53001 52.025089,-0.32104 1.26494,-3.26909 -2.48885,-1.34795 8.77605,-1.34844 -3.88544,-3.11125 9.61617,-2.3071 -4.37927,-1.85557 10.16824,-0.72837 -1.0186,3.37095 11.99802,1.02242 -7.57508,2.47934 46.2592,-2.26243 7.10854,-5.67818 -3.36096,-1.94992 5.54991,-5.16876 -1.97617,-0.75481 6.43574,-5.211242 -11.77443,-1.422167 3.83312,-1.456026 2.5482,-1.853896 -3.23292,-0.708168 6.38614,-5.33962 -12.47002,-6.01101 8.26767,-6.170343 -1.99353,-2.465869 2.01529,-1.93326 -9.82508,-1.958438 4.64508,-0.75471 4.94492,-3.960868 -6.50085,-4.53735 10.29909,-1.065641 -3.89164,-3.995119 0.52546,-2.933276 -1.04414,-2.846346 3.88051,-2.84472 -3.26576,-0.683014 -0.98934,-0.948732 0.45598,-1.054127 -0.46483,-1.189527 1.73179,-7.870208 -1.68434,-0.907672 2.34565,-2.364012 1.86084,-1.229514 -5.28832,-0.297129 3.87326,-1.691527 -25.67205,-0.101515 -5.08134,-2.012554 -13.34335,2.143456 -15.24724,3.630883 -2.61264,5.02584 6.62566,-0.908659 -12.83995,5.31662 0.89643,3.026497 -1.50881,-0.01566 0.85849,7.707931 -1.74958,1.359199 1.97102,6.833145 -5.62305,13.979414 3.6578,-14.075008 -2.78221,-7.056088 -2.19674,-1.920409 5.14428,-0.550159 -6.28468,-2.780469 5.57311,-0.630404 -2.64117,-3.087841 2.44554,-0.695365 -0.55325,-3.565877 -4.15519,-5.844725 -4.80902,-4.486698 -9.582715,0.734822 1.531345,2.589429 -14.331513,-0.595863 z"
       id="path25443" />
    <path
       style="fill:#241f1c;fill-rule:evenodd;stroke:#000000;stroke-width:0.35277778;stroke-linecap:round;stroke-linejoin:miter;stroke-opacity:1;stroke-miterlimit:4;stroke-dasharray:none"
       d="m 146.68337,52.505392 c -0.28226,-0.625469 -0.47444,-1.386048 -0.40169,-2.544029 -2.92669,-1.00107 -5.96718,-1.776851 -9.87484,-2.075392 -2.46865,2.018372 -4.26214,3.425101 -6.25966,5.288902 0,-0.153214 5.57372,-3.829445 8.63631,-3.146563 1.04391,0.232766 2.94572,1.272016 2.94572,1.272016 0.25828,1.262503 -0.0411,1.967286 -0.20084,2.81182 1.60992,-3.354343 3.36855,-2.842195 5.155,-1.606754 z"
       id="path826"
       inkscape:connector-curvature="0"
       sodipodi:nodetypes="ccccsccc" />
    <path
       style="fill:#241f1c;fill-rule:evenodd;stroke:#000000;stroke-width:0.35277778;stroke-linecap:round;stroke-linejoin:miter;stroke-opacity:1;stroke-miterlimit:4;stroke-dasharray:none"
       d="m 145.4049,54.440607 c 1.07677,5.242473 -0.6622,6.933245 -1.30351,8.560325 1.76041,-4.444727 1.26358,-6.801746 -1.36348,-3.111599 -0.19061,0.267736 -0.64864,1.582487 -0.78166,1.986529 -1.46092,4.43762 -2.348,7.076908 -4.76643,11.20838 1.34928,-3.958315 3.02192,-7.767894 3.45579,-12.829 0.0349,-0.40705 -1.00866,-0.848955 -1.19161,-0.451408 -2.04427,4.442115 -4.33263,7.924324 -6.71409,11.623524 0.0609,0.02291 4.18232,-7.989582 5.20735,-12.308266 0.0622,-0.262029 -0.6026,-0.914832 -0.94679,-0.426053 -2.33698,3.318689 -7.84836,8.453252 -8.09506,8.14239 0.20771,-0.103855 5.35709,-6.004282 6.95891,-8.899824 0.50188,-0.907234 -0.1847,-1.201297 -0.66276,-0.994129 -2.08387,0.903052 -6.612,2.055501 -6.62752,1.988259 0.022,-0.0073 3.94091,-1.698114 4.82862,-2.272295 0.79096,-0.511601 0.41477,-0.787494 -0.23669,-0.852111 -3.70482,-0.367473 -10.93542,2.272294 -10.93542,2.272294 6.29417,-3.25383 11.46854,-3.28524 15.85872,-2.69835 0.73928,2.850378 6.31805,5.027392 7.31563,-0.938666 z"
       id="path828"
       inkscape:connector-curvature="0"
       sodipodi:nodetypes="ccsscsscsscsscssccc" />
    <path
       style="fill:#241f1c;fill-rule:evenodd;stroke:#000000;stroke-width:0.35277778;stroke-linecap:round;stroke-linejoin:miter;stroke-opacity:1;stroke-miterlimit:4;stroke-dasharray:none"
       d="m 145.00967,35.299721 c 0,0 -0.36791,1.054519 -0.10042,1.74065 1.31927,3.38401 3.67973,7.851446 4.28468,9.506636 1.20162,3.287746 -0.4936,5.678585 -1.60676,6.125755 1.32937,-0.384467 1.78906,-0.569538 3.34741,-2.410133 0.9181,-1.084384 0.51699,-2.296116 0.0335,-3.280458 -1.58147,-3.219887 -5.22653,-9.047445 -5.95843,-11.68245 z"
       id="path830"
       inkscape:connector-curvature="0"
       sodipodi:nodetypes="csscsscc" />
    <path
       style="fill:#241f1c;fill-rule:evenodd;stroke:#000000;stroke-width:0.35277778;stroke-linecap:round;stroke-linejoin:miter;stroke-opacity:1;stroke-miterlimit:4;stroke-dasharray:none"
       d="m 148.25665,53.040978 c 0,0 1.39331,2.912551 1.87933,4.407367 0.57071,1.755305 0.71767,3.575402 0.73495,5.363227 0.006,0.631559 0.496,1.218537 0.42606,1.846241 -0.0524,0.469961 -0.28011,0.944737 -0.61542,1.278165 -0.73074,0.726643 -2.01041,0.655053 -2.79302,1.325507 -0.36229,0.310372 -0.80477,1.183487 -0.80477,1.183487 0,0 0.79661,-0.750316 1.27816,-0.99413 0.98043,-0.496407 2.08788,-0.71808 3.17175,-0.899451 0.94447,-0.158044 0.93032,-0.984543 0.80477,-1.704221 -0.15533,-0.890424 -0.62325,-1.709819 -0.75743,-2.603672 -0.23406,-1.55923 -0.15532,-3.160447 -0.82439,-4.667 -0.69722,-1.569935 -2.49999,-4.53552 -2.49999,-4.53552 z"
       id="path832"
       inkscape:connector-curvature="0"
       sodipodi:nodetypes="cssssscsssssc" />
    <path
       style="fill:#241f1c;fill-rule:evenodd;stroke:#000000;stroke-width:0.35277778;stroke-linecap:round;stroke-linejoin:miter;stroke-opacity:1;stroke-miterlimit:4;stroke-dasharray:none"
       d="m 145.21386,63.995058 c 0,0 -0.62802,1.623312 -0.37871,2.390646 0.10688,0.32897 0.39859,0.506276 0.73376,0.591743 0.5419,0.138181 1.07315,-0.173171 1.60954,-0.331377 0.56031,-0.165261 1.15743,-0.237062 1.68056,-0.497063 0.85061,-0.422765 0.2633,-0.760062 -0.30771,-0.781102 -0.54375,-0.02004 -1.42019,0.804772 -1.42019,0.804772 0,0 -0.91264,0.342392 -1.34917,0.213027 -0.20355,-0.06032 -0.38238,-0.234258 -0.4734,-0.426056 -0.28108,-0.592316 -0.0947,-1.96459 -0.0947,-1.96459 z"
       id="path834"
       inkscape:connector-curvature="0"
       sodipodi:nodetypes="cssssscsscc" />
    <path
       style="fill:#241f1c;fill-rule:evenodd;stroke:#000000;stroke-width:0.35277778;stroke-linecap:round;stroke-linejoin:miter;stroke-opacity:1;stroke-miterlimit:4;stroke-dasharray:none"
       d="m 147.11854,73.895322 c -0.12505,0.15006 1.04141,1.420189 1.6737,1.807599 0.25759,0.157826 0.24124,0.768135 0.0335,0.987486 -0.3943,0.416382 -1.80451,0.938814 -1.45612,1.656965 0.47102,0.970952 0.78663,3.012669 0.78663,3.012669 0,0 -1.03215,-0.914275 -1.23854,-1.539809 -0.0875,-0.265117 0.0335,-0.836851 0.0335,-0.836851 l -0.87033,0.569058 c -0.0568,-1.071415 0.68664,-2.87846 1.38917,-3.564987 0.39885,-0.389765 -0.8217,-1.249894 -0.68621,-1.790862 0.0365,-0.145601 0.33467,-0.301268 0.33467,-0.301268 z"
       id="path836"
       inkscape:connector-curvature="0"
       sodipodi:nodetypes="cssscsccsscc" />
    <path
       style="fill:#241f1c;fill-rule:evenodd;stroke:#000000;stroke-width:0.35277778;stroke-linecap:round;stroke-linejoin:miter;stroke-opacity:1;stroke-miterlimit:4;stroke-dasharray:none"
       d="m 132.42342,76.037664 c 0.27174,-0.8644 0.56913,-1.690334 0.66948,-2.811822 2.59918,-2.831826 4.28277,-6.350349 5.82449,-9.975273 -1.02542,3.715015 -2.09585,7.413662 -4.08384,10.778651 -0.90484,0.517284 -1.68306,1.224505 -2.41013,2.008444 z"
       id="path838"
       inkscape:connector-curvature="0"
       sodipodi:nodetypes="ccccc" />
    <path
       style="fill:#241f1c;fill-rule:evenodd;stroke:#000000;stroke-width:0.35277778;stroke-linecap:round;stroke-linejoin:miter;stroke-opacity:1;stroke-miterlimit:4;stroke-dasharray:none"
       d="m 131.38572,69.811486 c -0.4792,-0.870326 -0.73702,-1.740651 -0.7699,-2.610977 2.38374,-1.828477 3.96569,-3.924066 5.79102,-5.991859 -1.43911,3.054715 -3.22527,5.815678 -5.02112,8.602836 z"
       id="path840"
       inkscape:connector-curvature="0"
       sodipodi:nodetypes="cccc" />
    <path
       style="fill:#241f1c;fill-rule:evenodd;stroke:#000000;stroke-width:0.35277778;stroke-linecap:round;stroke-linejoin:miter;stroke-opacity:1;stroke-miterlimit:4;stroke-dasharray:none"
       d="m 90.465753,40.893391 c -0.133685,-0.08912 -7.472635,4.351121 -9.420559,8.189732 -1.052031,2.07315 -1.421582,4.357497 -0.378713,7.006244 0.601466,1.527644 1.514861,4.686609 1.514861,4.686609 -0.299409,-4.783355 -1.646383,-8.018842 0.426057,-11.740192 1.33988,-2.34956 7.858354,-8.142393 7.858354,-8.142393 z"
       id="path842"
       inkscape:connector-curvature="0"
       sodipodi:nodetypes="cssccc" />
    <path
       style="fill:#241f1c;fill-rule:evenodd;stroke:#000000;stroke-width:0.35277778;stroke-linecap:round;stroke-linejoin:miter;stroke-opacity:1;stroke-miterlimit:4;stroke-dasharray:none"
       d="m 83.417382,56.522281 c 4.68583,0.741822 9.525644,0.546335 14.293426,0.468638 -1.84132,-0.546269 -4.342403,0.179865 -5.054583,-2.54403 l -0.468638,-0.06695 c -2.758083,2.783317 -6.583814,1.293352 -7.498191,0.40169 -0.379623,-0.259978 -0.727204,-0.291004 -1.071171,-0.267792 0.0054,0.693586 0.05069,1.400492 -0.200843,2.008444 z"
       id="path844"
       inkscape:connector-curvature="0"
       sodipodi:nodetypes="ccccccc" />
    <ellipse
       style="color:#000000;clip-rule:nonzero;display:inline;overflow:visible;visibility:visible;opacity:1;isolation:auto;mix-blend-mode:normal;color-interpolation:sRGB;color-interpolation-filters:linearRGB;solid-color:#000000;solid-opacity:1;fill:#241f1c;fill-opacity:1;fill-rule:evenodd;stroke:#000000;stroke-width:0.35277778;stroke-linecap:round;stroke-linejoin:round;stroke-miterlimit:4;stroke-dasharray:none;stroke-dashoffset:0;stroke-opacity:1;paint-order:normal;color-rendering:auto;image-rendering:auto;shape-rendering:auto;text-rendering:auto;enable-background:accumulate"
       id="path846"
       cx="96.539215"
       cy="53.040977"
       rx="1.7406516"
       ry="1.6737034" />
    <ellipse
       style="color:#000000;clip-rule:nonzero;display:inline;overflow:visible;visibility:visible;isolation:auto;mix-blend-mode:normal;color-interpolation:sRGB;color-interpolation-filters:linearRGB;solid-color:#000000;solid-opacity:1;fill:#241f1c;fill-opacity:1;fill-rule:evenodd;stroke:#000000;stroke-width:0.35277778;stroke-linecap:round;stroke-linejoin:round;stroke-miterlimit:4;stroke-dasharray:none;stroke-dashoffset:0;stroke-opacity:1;paint-order:normal;color-rendering:auto;image-rendering:auto;shape-rendering:auto;text-rendering:auto;enable-background:accumulate"
       id="path846-7"
       cx="59.562466"
       cy="51.195702"
       rx="1.7406516"
       ry="1.6737034" />
    <ellipse
       style="color:#000000;clip-rule:nonzero;display:inline;overflow:visible;visibility:visible;isolation:auto;mix-blend-mode:normal;color-interpolation:sRGB;color-interpolation-filters:linearRGB;solid-color:#000000;solid-opacity:1;fill:#241f1c;fill-opacity:1;fill-rule:evenodd;stroke:#000000;stroke-width:0.35277778;stroke-linecap:round;stroke-linejoin:round;stroke-miterlimit:4;stroke-dasharray:none;stroke-dashoffset:0;stroke-opacity:1;paint-order:normal;color-rendering:auto;image-rendering:auto;shape-rendering:auto;text-rendering:auto;enable-background:accumulate"
       id="path846-5"
       cx="41.298042"
       cy="52.566624"
       rx="1.7406516"
       ry="1.6737034" />
    <ellipse
       style="color:#000000;clip-rule:nonzero;display:inline;overflow:visible;visibility:visible;isolation:auto;mix-blend-mode:normal;color-interpolation:sRGB;color-interpolation-filters:linearRGB;solid-color:#000000;solid-opacity:1;fill:#241f1c;fill-opacity:1;fill-rule:evenodd;stroke:#000000;stroke-width:0.35277778;stroke-linecap:round;stroke-linejoin:round;stroke-miterlimit:4;stroke-dasharray:none;stroke-dashoffset:0;stroke-opacity:1;paint-order:normal;color-rendering:auto;image-rendering:auto;shape-rendering:auto;text-rendering:auto;enable-background:accumulate"
       id="path846-3"
       cx="89.609726"
       cy="98.244408"
       rx="1.7406516"
       ry="1.6737034" />
    <ellipse
       style="color:#000000;clip-rule:nonzero;display:inline;overflow:visible;visibility:visible;isolation:auto;mix-blend-mode:normal;color-interpolation:sRGB;color-interpolation-filters:linearRGB;solid-color:#000000;solid-opacity:1;fill:#241f1c;fill-opacity:1;fill-rule:evenodd;stroke:#000000;stroke-width:0.35277778;stroke-linecap:round;stroke-linejoin:round;stroke-miterlimit:4;stroke-dasharray:none;stroke-dashoffset:0;stroke-opacity:1;paint-order:normal;color-rendering:auto;image-rendering:auto;shape-rendering:auto;text-rendering:auto;enable-background:accumulate"
       id="path846-3-1"
       cx="49.979362"
       cy="90.00383"
       rx="1.7406516"
       ry="1.6737034" />
    <ellipse
       style="color:#000000;clip-rule:nonzero;display:inline;overflow:visible;visibility:visible;isolation:auto;mix-blend-mode:normal;color-interpolation:sRGB;color-interpolation-filters:linearRGB;solid-color:#000000;solid-opacity:1;fill:#241f1c;fill-opacity:1;fill-rule:evenodd;stroke:#000000;stroke-width:0.35277778;stroke-linecap:round;stroke-linejoin:round;stroke-miterlimit:4;stroke-dasharray:none;stroke-dashoffset:0;stroke-opacity:1;paint-order:normal;color-rendering:auto;image-rendering:auto;shape-rendering:auto;text-rendering:auto;enable-background:accumulate"
       id="path846-56"
       cx="127.75854"
       cy="84.568909"
       rx="1.7406516"
       ry="1.6737034" />
    <path
       style="fill:#241f1c;stroke:#000000;stroke-width:0.35277778;stroke-linecap:round;stroke-linejoin:miter;stroke-opacity:1;stroke-miterlimit:4;stroke-dasharray:none"
       d="m 159.81904,83.196246 c 0,0 3.16903,2.291818 5.03067,2.634684 2.41738,0.44522 5.0466,0.05867 7.32268,-0.869442 2.64313,-1.07778 5.40614,-3.006879 8.14119,-2.078797 1.51437,0.51387 2.96844,1.860317 3.37873,3.405971 0.34847,1.312774 -0.0767,2.995261 -1.0572,3.935174 -0.99612,0.954887 -2.71605,1.294184 -4.03967,0.904193 -0.92233,-0.271756 -1.7158,-1.144766 -2.02361,-2.055699 -0.33785,-0.999832 1.60101,-2.525998 1.85618,-2.58309 -0.15499,0.379176 -0.78944,1.834184 -0.6644,2.41436 0.20682,0.959608 1.1273,1.227935 2.01506,1.104887 0.88706,-0.12295 1.82869,-0.518455 2.17353,-1.344939 0.52018,-1.246707 -0.26141,-2.468999 -1.26412,-3.374225 -0.95531,-0.862439 -2.43934,-1.454677 -3.68803,-1.142926 -1.84782,0.461328 -3.40225,1.52191 -5.14544,1.966158 -1.37787,0.351149 -3.94083,0.859342 -5.9126,0.431951 -2.27342,-0.492776 -6.12297,-3.34826 -6.12297,-3.34826 z"
       id="path53926"
       sodipodi:nodetypes="cssssssscsssssssc" />
    <ellipse
       style="color:#000000;clip-rule:nonzero;display:inline;overflow:visible;visibility:visible;isolation:auto;mix-blend-mode:normal;color-interpolation:sRGB;color-interpolation-filters:linearRGB;solid-color:#000000;solid-opacity:1;fill:#241f1c;fill-opacity:1;fill-rule:evenodd;stroke:#000000;stroke-width:0.35277778;stroke-linecap:round;stroke-linejoin:round;stroke-miterlimit:4;stroke-dasharray:none;stroke-dashoffset:0;stroke-opacity:1;paint-order:normal;color-rendering:auto;image-rendering:auto;shape-rendering:auto;text-rendering:auto;enable-background:accumulate"
       id="path846-2"
       cx="161.63783"
       cy="91.293045"
       rx="1.7406516"
       ry="1.6737034" />
    <ellipse
       style="color:#000000;clip-rule:nonzero;display:inline;overflow:visible;visibility:visible;isolation:auto;mix-blend-mode:normal;color-interpolation:sRGB;color-interpolation-filters:linearRGB;solid-color:#000000;solid-opacity:1;fill:#241f1c;fill-opacity:1;fill-rule:evenodd;stroke:#000000;stroke-width:0.35277778;stroke-linecap:round;stroke-linejoin:round;stroke-miterlimit:4;stroke-dasharray:none;stroke-dashoffset:0;stroke-opacity:1;paint-order:normal;color-rendering:auto;image-rendering:auto;shape-rendering:auto;text-rendering:auto;enable-background:accumulate"
       id="path846-9"
       cx="163.95508"
       cy="47.312168"
       rx="1.7406516"
       ry="1.6737034" />
    <path
       style="fill:#241f1c;fill-rule:evenodd;stroke:#000000;stroke-width:0.35277778;stroke-linecap:round;stroke-linejoin:miter;stroke-opacity:1;stroke-miterlimit:4;stroke-dasharray:none"
       d="m 83.14959,66.798819 c 0.142616,-2.301684 0.612447,-4.665199 1.740651,-6.293125 1.754963,3.403885 5.63194,2.554735 6.962606,-0.736425 3.355683,-0.123402 5.906875,-0.728898 8.602833,-1.205069 -0.971541,0.789417 -5.185404,1.6539 -7.063027,2.008444 -0.276706,0.05225 -0.462033,0.525033 0,0.569061 1.978141,0.188503 4.480798,-0.358053 4.939313,-0.529144 -1.287227,0.850758 -3.521657,1.569746 -4.972786,1.232099 -0.321778,-0.07487 -0.193924,0.345387 0.06695,0.435163 1.039342,0.357675 3.133191,0.331341 3.133191,0.331341 -1.139618,1.109307 -5.124616,0.225081 -5.777643,0.773267 -2.401136,2.015642 -6.215877,-0.182189 -6.226175,-0.803376 -0.833607,1.588407 -0.937275,2.811845 -1.405913,4.217767 z"
       id="path852"
       inkscape:connector-curvature="0"
       sodipodi:nodetypes="ccccsscsscsccc" />
    <path
       style="fill:#241f1c;fill-rule:evenodd;stroke:#000000;stroke-width:0.35277778;stroke-linecap:round;stroke-linejoin:miter;stroke-opacity:1;stroke-miterlimit:4;stroke-dasharray:none"
       d="m 85.116391,64.799831 c 0.428107,0.290901 0.902644,0.675746 1.860104,0.70197 -1.079196,4.031308 -1.050786,8.431818 -1.576068,12.647764 -0.09468,-4.449911 0.567692,-8.899823 -0.284036,-13.349734 z"
       id="path854"
       inkscape:connector-curvature="0"
       sodipodi:nodetypes="cccc" />
    <path
       style="fill:#241f1c;fill-rule:evenodd;stroke:#000000;stroke-width:0.35277778;stroke-linecap:round;stroke-linejoin:miter;stroke-opacity:1;stroke-miterlimit:4;stroke-dasharray:none"
       d="m 88.098777,65.543396 c 0.814119,0.04672 0.830726,0.278874 1.988259,-0.250561 -0.07325,3.816007 -0.504571,7.750532 -0.757431,11.625905 -0.382984,-3.79724 0.534361,-7.755889 -1.230828,-11.375344 z"
       id="path856"
       inkscape:connector-curvature="0"
       sodipodi:nodetypes="cccc" />
    <path
       style="fill:#241f1c;fill-rule:evenodd;stroke:#000000;stroke-width:0.35277778;stroke-linecap:round;stroke-linejoin:miter;stroke-opacity:1;stroke-miterlimit:4;stroke-dasharray:none"
       d="m 91.033826,64.92224 c 0.507031,-0.139207 0.561994,-0.365422 0.759812,-0.520734 1.35638,2.59967 1.861707,5.341182 2.743309,8.019981 -1.105993,-2.499749 -1.447712,-4.999498 -3.503121,-7.499247 z"
       id="path858"
       inkscape:connector-curvature="0"
       sodipodi:nodetypes="cccc" />
    <path
       style="fill:#241f1c;fill-rule:evenodd;stroke:#000000;stroke-width:0.35277778;stroke-linecap:round;stroke-linejoin:miter;stroke-opacity:1;stroke-miterlimit:4;stroke-dasharray:none"
       d="m 86.38677,79.852025 c 0.897022,-0.438609 1.506689,-0.717306 1.917826,-1.303807 -0.790713,-3.546845 -0.695145,-6.946862 -0.736429,-10.410437 -0.443656,3.861565 -0.229439,8.022113 -1.181397,11.714244 z"
       id="path860"
       inkscape:connector-curvature="0"
       sodipodi:nodetypes="cccc" />
    <path
       style="fill:#241f1c;fill-rule:evenodd;stroke:#000000;stroke-width:0.35277778;stroke-linecap:round;stroke-linejoin:miter;stroke-opacity:1;stroke-miterlimit:4;stroke-dasharray:none"
       d="m 90.860111,76.785578 c 0.714569,-0.622571 1.324286,-0.969804 1.953681,-2.018247 0.140956,-2.231605 -0.886049,-4.431419 -1.563478,-6.663024 0.312869,3.261211 -0.0077,5.854661 -0.390203,8.681271 z"
       id="path862"
       inkscape:connector-curvature="0"
       sodipodi:nodetypes="cccc" />
    <path
       style="fill:#241f1c;fill-rule:evenodd;stroke:#000000;stroke-width:0.35277778;stroke-linecap:round;stroke-linejoin:miter;stroke-opacity:1;stroke-miterlimit:4;stroke-dasharray:none"
       d="m 80.997855,59.213773 c 0.04165,0.04165 -2.569871,5.173611 -3.497377,7.404566 -0.342107,0.822878 -0.322005,1.943748 0.0771,2.240853 0.649009,0.48464 1.403207,-0.0079 2.071102,0.603576 1.217459,0.434216 0.89343,0.08203 1.940919,-1.467525 -0.443759,1.619075 -0.84742,2.331479 10e-7,2.864039 -0.365177,0.108879 -2.723359,-1.276085 -2.674683,-1.04147 0.07524,0.362635 0.78671,0.897583 0.639084,0.946792 -0.305703,-0.420218 -2.605769,-1.341772 -3.065231,-1.787067 -0.494916,-0.479655 -0.231874,-0.925153 0.06254,-1.509469 1.311096,-2.602123 4.532469,-8.192926 4.446547,-8.254299 z"
       id="path864"
       inkscape:connector-curvature="0"
       sodipodi:nodetypes="csccccscsscc" />
    <path
       style="fill:#241f1c;fill-rule:evenodd;stroke:#000000;stroke-width:0.35277778;stroke-linecap:round;stroke-linejoin:miter;stroke-opacity:1;stroke-miterlimit:4;stroke-dasharray:none"
       d="m 78.820239,70.693597 c 0.210673,0.224696 1.04705,2.551482 -0.736634,2.891771 -0.421385,0.08039 -0.248494,0.91189 0.117652,0.988876 1.435896,0.301915 3.282049,1.389368 3.269993,1.397705 -0.68244,-0.691691 -1.1761,-1.425333 -2.224955,-2.035598 0,0 0.548753,-1.094877 0.469333,-1.698477 -0.07936,-0.603144 -0.895389,-1.544277 -0.895389,-1.544277 z"
       id="path866"
       inkscape:connector-curvature="0"
       sodipodi:nodetypes="cssccsc" />
    <path
       style="fill:#241f1c;fill-rule:evenodd;stroke:#000000;stroke-width:0.35277778;stroke-linecap:round;stroke-linejoin:miter;stroke-opacity:1;stroke-miterlimit:4;stroke-dasharray:none"
       d="m 78.914918,75.309197 c 0.03332,0.01333 -0.316571,0.985377 -0.520735,1.372844 -0.155175,0.294495 0.190701,0.808708 0.520735,0.852112 2.115373,0.2782 1.121013,2.383629 0.94679,4.023854 -0.288297,2.71418 2.035522,2.702155 3.408442,2.698351 1.470029,-0.0041 3.117958,0.0716 4.402574,1.562205 3.588207,4.163592 10.264176,15.384587 10.367346,15.337987 -3e-6,0 -6.141354,-11.813759 -8.994503,-15.527346 -0.815985,-1.062066 -2.318268,-2.951986 -3.646533,-2.780149 -2.395727,-0.05915 -4.838636,1.008531 -4.637875,-1.764443 -0.06436,-0.945126 0.23147,-1.950968 -0.09468,-2.840368 -0.166301,-0.453498 -0.544247,-0.808817 -0.899452,-1.136147 -0.167356,-0.154223 -0.441439,-0.189623 -0.568073,-0.378717 -0.268632,-0.401128 -0.284036,-1.420183 -0.284036,-1.420183 z"
       id="path868"
       inkscape:connector-curvature="0"
       sodipodi:nodetypes="cssssscsccsssc" />
    <path
       style="fill:#241f1c;fill-rule:evenodd;stroke:#000000;stroke-width:0.35277778;stroke-linecap:round;stroke-linejoin:miter;stroke-opacity:1;stroke-miterlimit:4;stroke-dasharray:none"
       d="m 85.779143,82.220761 c 5.290337,-2.518044 8.77554,-6.416976 11.657348,-10.923586 1.861989,-0.493696 2.3656,-1.643945 3.443949,-2.473487 -4.341003,6.134329 -9.113175,11.821439 -15.101297,13.397073 z"
       id="path870"
       inkscape:connector-curvature="0"
       sodipodi:nodetypes="cccc" />
    <path
       style="fill:#241f1c;fill-rule:evenodd;stroke:#000000;stroke-width:0.35277778;stroke-linecap:round;stroke-linejoin:miter;stroke-opacity:1;stroke-miterlimit:4;stroke-dasharray:none"
       d="m 146.82255,69.508787 c -5.06387,-3.09728 -6.71752,1.828356 -8.37391,5.489565 2.51996,-2.575379 4.53343,-7.425594 8.37391,-5.489565 z"
       id="path835"
       inkscape:connector-curvature="0"
       sodipodi:nodetypes="ccc" />
    <path
       style="fill:#241f1c;fill-rule:evenodd;stroke:#000000;stroke-width:0.35277778;stroke-linecap:round;stroke-linejoin:miter;stroke-opacity:1;stroke-miterlimit:4;stroke-dasharray:none"
       d="m 135.99133,77.979605 c 1.52574,-2.144595 -0.39376,-3.464681 -1.67769,0.03289 -1.01577,2.767081 4.29306,6.531865 2.89484,10.921413 -1.92087,6.030348 -11.96759,4.231741 -13.05964,10.230601 -0.72384,3.976191 2.41177,5.882661 4.14487,3.881711 1.19448,-1.37909 0.98651,-3.376051 -0.98687,-4.737 2.11412,0.444896 5.03472,4.2267 1.77637,6.64496 -3.09498,2.29701 -6.69529,-1.49787 -6.51337,-4.80279 0.37106,-7.287663 11.78816,-7.31473 13.88204,-11.710919 1.3231,-3.551134 -4.02158,-7.231507 -3.15801,-10.921413 0.36062,-1.540903 2.63254,-3.57888 3.78303,-2.039541 0.91952,1.230304 -1.08509,2.501701 -1.08557,2.500084 z"
       id="path837"
       inkscape:connector-curvature="0"
       sodipodi:nodetypes="csssscsccsscc" />
    <path
       style="fill:#241f1c;fill-rule:evenodd;stroke:#000000;stroke-width:0.35277778;stroke-linecap:round;stroke-linejoin:miter;stroke-opacity:1;stroke-miterlimit:4;stroke-dasharray:none"
       d="m 148.49733,72.114004 c 0,0 -7.33075,3.361961 -7.16435,6.606085 0.26058,5.080144 7.51167,4.765359 10.46739,5.256953 3.65249,0.60748 4.58287,5.301087 1.44217,7.676084 -1.30005,0.983096 -4.08024,0.404595 -4.14043,-1.302607 -0.0708,-2.009297 1.82596,-2.472634 2.09348,-2.419131 -1.72069,-0.117088 -2.83544,0.662554 -2.97739,2.326087 -0.248,2.906378 3.60431,3.771969 5.35,2.372609 4.23733,-3.396683 2.77595,-8.748875 -1.76783,-9.816084 -2.05481,-0.482618 -7.71481,0.04487 -8.28087,-4.279998 -0.35143,-2.685013 4.97783,-6.419998 4.97783,-6.419998 z"
       id="path839"
       inkscape:connector-curvature="0"
       sodipodi:nodetypes="csssscssssc" />
    <path
       style="fill:#241f1c;fill-rule:evenodd;stroke:#000000;stroke-width:0.35277778;stroke-linecap:round;stroke-linejoin:miter;stroke-opacity:1;stroke-miterlimit:4;stroke-dasharray:none"
       d="m 148.90143,72.967358 c 1.2342,0.397135 2.1948,-2.685199 0.2472,-3.179438 -2.00171,-0.507969 -5.6385,1.901034 -7.53652,3.442605 -2.29957,1.867709 -4.05178,5.613106 -2.97739,8.373911 1.50699,3.872434 6.14357,5.344024 5.58261,8.653039 -0.81807,4.825642 -9.11524,5.971233 -9.95565,10.793035 -0.59195,3.3963 1.44041,7.69829 5.11739,7.81565 2.00871,0.0641 4.27216,-0.92886 4.46609,-3.53565 0.21426,-2.88002 -2.77961,-4.38473 -2.97739,-4.18695 0.57581,0.24677 2.34512,2.53135 1.86087,3.81478 -0.50955,1.35047 -1.53276,1.65586 -3.07044,1.48869 -1.90353,-0.20694 -3.56765,-2.3825 -3.16348,-4.83826 0.75028,-4.558721 7.96898,-6.044992 8.93217,-10.886078 0.90777,-4.5625 -4.00075,-6.526316 -5.5826,-9.211299 -1.39901,-2.374634 0.72495,-5.891545 2.69826,-7.815649 1.62069,-1.580285 4.79313,-3.074805 5.95478,-2.69826 1.91391,0.620385 0.42849,1.974309 0.4041,1.969874 z"
       id="path841"
       inkscape:connector-curvature="0"
       sodipodi:nodetypes="cssssssscsssssssc" />
    <path
       style="fill:#241f1c;fill-rule:evenodd;stroke:#000000;stroke-width:0.35277778;stroke-linecap:round;stroke-linejoin:miter;stroke-opacity:1;stroke-miterlimit:4;stroke-dasharray:none"
       d="m 148.83611,95.405301 c 0,0 -0.89846,1.746841 0.6864,4.667149 0.93273,1.71869 3.88323,3.6841 4.67998,5.87164 1.13595,3.11883 -1.522,6.44 -4.26724,6.53016 -1.40159,0.046 -2.79679,-1.52817 -3.03879,-2.90948 -0.22255,-1.27027 1.6497,-2.8803 2.52155,-2.65086 -0.22198,-0.19027 -1.87358,1.41321 -1.42242,2.52155 0.28428,0.69837 1.19559,1.2858 1.93966,1.1638 1.97293,-0.32349 3.23252,-2.40775 2.52155,-4.78448 -0.40278,-1.34647 -3.39414,-4.2599 -4.05812,-6.013397 -1.07164,-2.830063 0.43743,-4.396082 0.43743,-4.396082 z"
       id="path843"
       inkscape:connector-curvature="0"
       sodipodi:nodetypes="csssscssssc" />
    <path
       style="fill:#241f1c;fill-rule:evenodd;stroke:#000000;stroke-width:0.35277778;stroke-linecap:round;stroke-linejoin:miter;stroke-opacity:1;stroke-miterlimit:4;stroke-dasharray:none"
       d="m 100.1226,49.482306 c 0.83388,-0.322792 8.56462,4.734403 6.85771,10.240851 -2.47021,7.968842 -10.737487,14.075792 -10.346071,21.763709 0.528053,10.371647 10.563461,17.467429 7.877291,29.074794 -0.86045,3.71812 -6.075754,8.28097 -9.966537,8.32069 -3.758285,0.0384 -6.841013,-4.63246 -6.061569,-8.35207 0.664923,-3.1731 4.944584,-2.57555 5.996914,-1.73823 1.85285,1.47428 0.48498,4.83158 -1.124018,6.15855 0.528999,0.28854 4.882121,-4.23928 2.103033,-6.85771 -2.497981,-2.35358 -7.643377,-1.4308 -8.412128,1.82872 -1.124474,4.7678 2.692473,10.65249 7.223458,11.06377 5.928467,0.53813 11.129847,-3.91469 12.709627,-9.8751 3.16847,-11.954427 -6.73776,-19.777464 -8.307693,-29.349105 -1.197098,-7.298505 7.560863,-13.971352 9.222053,-21.946583 1.42741,-6.85284 -7.10331,-11.001042 -7.77207,-10.332286 z"
       id="path845"
       inkscape:connector-curvature="0"
       sodipodi:nodetypes="csssssscssssssc" />
    <path
       style="fill:#241f1c;fill-rule:evenodd;stroke:#000000;stroke-width:0.35277778;stroke-linecap:round;stroke-linejoin:miter;stroke-opacity:1;stroke-miterlimit:4;stroke-dasharray:none"
       d="m 143.82908,33.938159 c 6.95103,-2.442254 12.3698,-1.024406 14.36333,3.494461 2.81258,6.375457 -6.38236,12.879375 -4.48822,19.273144 1.32984,4.488946 5.70564,4.820299 9.14361,3.748881 3.76979,-1.174826 7.93103,-2.993825 11.70383,-1.828723 1.7012,0.525358 3.39703,2.34791 1.28011,3.748884 -0.95995,0.635295 -2.22411,0.35807 -3.47458,-0.822926 0.5755,2.158136 2.88475,2.806704 4.48038,2.285902 1.22277,-0.399103 2.37786,-1.83214 2.22124,-3.108828 -0.22665,-1.847599 -2.43607,-3.079585 -4.23284,-3.566011 -3.78703,-1.025235 -7.9571,0.494825 -11.61239,1.92016 -5.22184,2.036191 -8.26408,-4.493991 -6.55012,-6.987021 -0.16894,0.700271 4.98413,3.448168 9.65895,0.677926 3.77586,-2.237528 7.4967,-6.738472 11.79526,-5.851914 1.75529,0.36202 3.97953,1.992559 1.37155,3.566009 -0.93378,0.563372 -2.23583,0.73626 -3.29171,0.27431 1.97281,1.479606 3.36786,1.323793 4.66325,0.457181 1.00949,-0.675349 1.54109,-2.344014 1.09723,-3.474574 -0.56367,-1.435731 -2.49549,-2.073345 -4.02319,-2.285905 -4.68246,-0.651504 -8.34448,3.421859 -12.06957,5.120426 -2.41016,1.098985 -6.05048,1.652096 -7.49777,-1.097235 -1.17373,-2.229672 1.6551,-4.36154 1.92016,-7.314893 0.99375,-11.072353 -11.8837,-11.595723 -16.45851,-8.229254 z"
       id="path847"
       inkscape:connector-curvature="0"
       sodipodi:nodetypes="cssssscsssscssscssssssc" />
    <path
       style="fill:#241f1c;fill-rule:evenodd;stroke:#000000;stroke-width:0.35277778;stroke-linecap:round;stroke-linejoin:miter;stroke-opacity:1;stroke-miterlimit:4;stroke-dasharray:none"
       d="m 108.362,65.01739 c -0.83949,3.631195 -6.21597,9.017533 -7.04741,15.323266 -1.392205,10.558663 12.1928,15.447095 14.67671,22.823264 0.65908,1.9572 -0.72828,5.01227 -3.23275,4.00861 -1.12149,-0.44943 -2.34012,-3.33232 1.16379,-3.74999 -3.73447,-1.53209 -4.47998,3.85947 -2.4569,5.43103 2.95185,2.29305 7.08885,-1.56039 6.07759,-5.94827 -1.94459,-8.437645 -16.50396,-12.405727 -15.19396,-22.306023 0.7433,-5.617504 5.86068,-12.516027 6.01293,-15.581887 z"
       id="path849"
       inkscape:connector-curvature="0"
       sodipodi:nodetypes="cssscsssc" />
    <path
       style="fill:#241f1c;stroke:#000000;stroke-width:0.35277778;stroke-linecap:round;stroke-linejoin:miter;stroke-opacity:1;stroke-miterlimit:4;stroke-dasharray:none"
       d="m 19.751768,35.583971 65.157181,-3.004946 c -4.914163,3.354931 -11.202165,7.76846 -14.649203,14.632121 l -48.460495,1.943404 3.532866,-1.229846 -1.866522,-0.870149 44.773018,-1.022636 4.380833,-6.278385 -9.224725,1.891364 c 3.593702,-1.49988 7.254344,-3.009294 10.195177,-4.416193 -1.974048,-0.406426 -5.170902,-0.290987 -8.267571,-0.218305 2.878549,-0.62803 6.112331,-1.156494 8.222568,-1.999871 z"
       id="path1199"
       sodipodi:nodetypes="ccccccccccccc" />
    <path
       style="fill:#241f1c;stroke:#000000;stroke-width:0.35277778;stroke-linecap:round;stroke-linejoin:miter;stroke-opacity:1;stroke-miterlimit:4;stroke-dasharray:none"
       d="m 43.781606,44.956475 c 2.546699,-1.705733 4.927801,-3.641013 5.833721,-7.621145 0.407005,3.488851 2.064761,6.201491 6.47223,7.20767 z"
       id="path1201"
       sodipodi:nodetypes="cccc" />
    <path
       style="fill:#241f1c;stroke:#000000;stroke-width:0.35277778;stroke-linecap:round;stroke-linejoin:miter;stroke-opacity:1;stroke-miterlimit:4;stroke-dasharray:none"
       d="m 40.670368,45.25243 c -4.369968,-1.121034 -5.612691,-3.849793 -5.666586,-7.189731 -0.73101,3.21969 -2.331782,5.95321 -6.881318,7.038464 z"
       id="path1203"
       sodipodi:nodetypes="cccc" />
    <path
       style="fill:#241f1c;stroke:#000000;stroke-width:0.35277778;stroke-linecap:round;stroke-linejoin:miter;stroke-opacity:1;stroke-miterlimit:4;stroke-dasharray:none"
       d="m 57.560064,44.469552 c 2.027656,-2.122956 4.233214,-4.068778 5.105897,-7.341719 0.168565,1.058148 0.758413,2.123064 1.311455,3.114001 l -3.360976,2.51524 4.443825,-0.519998 c 0.606151,0.876591 1.213225,1.416535 1.819995,2.067104 z"
       id="path1205"
       sodipodi:nodetypes="ccccccc" />
    <path
       style="fill:#241f1c;stroke:#000000;stroke-width:0.35277778;stroke-linecap:round;stroke-linejoin:miter;stroke-opacity:1;stroke-miterlimit:4;stroke-dasharray:none"
       d="m 186.59233,29.299551 -24.58364,0.90388 c 0.15787,0.971144 -0.79881,2.118617 -2.45571,3.041449 2.25121,3.564662 2.90777,7.000163 2.39076,10.340609 l 24.8135,-1.028409 -2.51018,-0.359828 0.98213,-0.82197 -16.24729,0.52751 c 1.51153,-1.409363 3.46907,-2.445397 5.26581,-3.616026 -2.43211,1.047337 -3.75557,1.855688 -7.65739,3.219844 2.25746,-3.04461 5.65466,-5.464941 8.59244,-8.136911 -3.57141,2.429759 -7.08485,5.57202 -10.31487,6.938386 1.22388,-2.004422 2.39777,-4.089039 3.36951,-6.497987 -1.50052,1.988731 -2.7875,3.977462 -4.8095,5.966193 0.0959,-2.11482 -0.79987,-4.150125 -2.20905,-6.144265 0.78026,-0.573588 1.67073,-1.054397 2.06362,-1.954104 l 21.54389,-0.711997 z"
       id="path2589"
       sodipodi:nodetypes="cccccccccccccccccc" />
    <text
       xml:space="preserve"
       transform="matrix(0.26458333,0,0,0.26458333,-57.295844,-2.492712)"
       id="text3801"
       style="font-style:normal;font-weight:normal;font-size:24px;line-height:1.25;font-family:sans-serif;white-space:pre;shape-inside:url(#rect3803);fill:#000000;fill-opacity:1;stroke:none"><tspan
         x="307.16016"
         y="663.2685"
         id="tspan1079">Валенсийский поясок (№568 и №569) - два фрагмента </tspan><tspan
         x="307.16016"
         y="693.2685"
         id="tspan1081">хрикхватрового гравюрного штампа, обнаруженные при </tspan><tspan
         x="307.16016"
         y="723.2685"
         id="tspan1083">раскопках Пруда Печали (Двойная Валенсия, Изрезанный </tspan><tspan
         x="307.16016"
         y="753.2685"
         id="tspan1085">Берег, Северная Корона). Предположительно здесь </tspan><tspan
         x="307.16016"
         y="783.2685"
         id="tspan1087">изображён мотив легенды про ученицу Повелителя ветров. </tspan><tspan
         x="307.16016"
         y="813.2685"
         id="tspan1089">Ни один из оттисков до нашего времени не дошёл. Ок. </tspan><tspan
         x="307.16016"
         y="843.2685"
         id="tspan1091">8512-8515.
</tspan><tspan
         x="307.16016"
         y="873.2685"
         id="tspan1093">
</tspan><tspan
         x="307.16016"
         y="903.2685"
         id="tspan1095">Символика: знак дышащего у рта девушки, точки - на виске </tspan><tspan
         x="307.16016"
         y="933.2685"
         id="tspan1097">(обида), У шеи - печаль, передо лбом и на углу челюсти - </tspan><tspan
         x="307.16016"
         y="963.2685"
         id="tspan1099">гнев.</tspan></text>
    <path
       style="fill:#241f1c;stroke:#000000;stroke-width:0.35277778;stroke-linecap:round;stroke-linejoin:miter;stroke-opacity:1;stroke-miterlimit:4;stroke-dasharray:none"
       d="m 167.89946,36.784904 c 1.13291,-1.357187 2.57455,-2.5978 3.23854,-4.132046 l 2.48765,-0.172939 z"
       id="path14440"
       sodipodi:nodetypes="cccc" />
    <path
       style="fill:#241f1c;stroke:#000000;stroke-width:0.35277778;stroke-linecap:round;stroke-linejoin:miter;stroke-opacity:1;stroke-miterlimit:4;stroke-dasharray:none"
       d="m 170.95958,38.474372 2.81884,-2.44887 -0.23496,1.560073 z"
       id="path14442" />
    <path
       style="fill:#241f1c;stroke:#000000;stroke-width:0.35277778;stroke-linecap:round;stroke-linejoin:miter;stroke-opacity:1;stroke-miterlimit:4;stroke-dasharray:none"
       d="m 172.79614,40.584109 1.97794,-1.250754 2.68036,1.134533 c -1.55354,-0.313817 -3.10628,-0.261696 -4.6583,0.116221 z"
       id="path14444"
       sodipodi:nodetypes="cccc" />
    <path
       style="fill:#241f1c;stroke:#000000;stroke-width:0.35277778;stroke-linecap:round;stroke-linejoin:miter;stroke-opacity:1;stroke-miterlimit:4;stroke-dasharray:none"
       d="m 180.47846,39.486734 c 3.07468,-1.655345 5.20381,-3.706622 5.90964,-6.353879 l -1.6675,6.4014 z"
       id="path14446"
       sodipodi:nodetypes="cccc" />
    <path
       style="fill:#241f1c;stroke:#000000;stroke-width:0.35277778;stroke-linecap:round;stroke-linejoin:miter;stroke-opacity:1;stroke-miterlimit:4;stroke-dasharray:none"
       d="m 23.724335,118.54423 61.016332,-2.7797 c -2.461746,-5.70023 0.178325,-10.0544 6.512846,-13.43382 l -48.086315,2.18296 c -5.423524,4.42864 -11.189376,6.06279 -17.279876,7.7592 5.889739,-0.56068 11.782497,-1.0935 17.210937,-5.91119 l 37.978106,-2.2578 c -3.354005,1.73318 -7.507049,2.52565 -11.29719,3.74536 l 11.701413,-1.98739 -9.26574,5.92019 c 3.840127,-1.8091 7.904327,-4.09524 11.326952,-5.01552 -2.403645,2.44749 -2.106967,4.97944 -1.701633,7.51478 l -57.440152,2.20155 1.098832,0.70354 z"
       id="path23722"
       sodipodi:nodetypes="ccccccccccccccc" />
    <path
       style="fill:#241f1c;stroke:#000000;stroke-width:0.35277778;stroke-linecap:round;stroke-linejoin:miter;stroke-opacity:1;stroke-miterlimit:4;stroke-dasharray:none"
       d="m 75.833543,107.75373 -4.832802,1.40207 0.698823,1.15335 z"
       id="path23724" />
    <path
       style="fill:#241f1c;stroke:#000000;stroke-width:0.35277778;stroke-linecap:round;stroke-linejoin:miter;stroke-opacity:1;stroke-miterlimit:4;stroke-dasharray:none"
       d="m 72.937827,113.02513 3.458805,-1.98009 -2.116786,2.18429 z"
       id="path23726" />
    <path
       style="fill:#241f1c;stroke:#000000;stroke-width:0.35277778;stroke-linecap:round;stroke-linejoin:miter;stroke-opacity:1;stroke-miterlimit:4;stroke-dasharray:none"
       d="m 189.03871,98.75087 -30.43415,1.127699 c 0.17584,1.254821 -1.55205,1.838781 -2.43254,2.721361 1.28568,4.10083 0.22924,7.5792 -2.46156,10.62322 l 27.81397,-0.77414 1.07148,-1.37452 -19.40845,0.45432 -0.21558,-0.56765 7.55527,-2.88528 -8.34443,1.75595 8.53778,-5.73456 -11.47248,5.27466 3.42776,-4.83988 -5.22199,4.37401 c 0.24491,-1.68088 0.50373,-3.35305 -0.0528,-5.53525 0.67179,-0.79516 1.22019,-1.67958 2.66048,-1.91877 l 27.1199,-1.23049 z"
       id="path24692"
       sodipodi:nodetypes="cccccccccccccccccc" />
    <path
       style="fill:#241f1c;stroke:#000000;stroke-width:0.35277778;stroke-linecap:round;stroke-linejoin:miter;stroke-opacity:1;stroke-miterlimit:4;stroke-dasharray:none"
       d="m 164.56771,102.6855 13.55342,-0.6874 c -3.35925,1.36616 -5.53481,4.05196 -6.66964,7.89803 l -0.48146,-0.62712 c 1.741,-2.40357 -0.35777,-2.09953 -2.01839,-2.10445 l -0.37363,-0.5568 c 5.38959,-3.27184 3.82016,-3.89007 -2.80796,-2.57933 z"
       id="path25126"
       sodipodi:nodetypes="cccccccc" />
    <path
       style="fill:#ac9d93;fill-opacity:1;stroke:#000000;stroke-width:0.35277778;stroke-linecap:round;stroke-linejoin:miter;stroke-opacity:1;stroke-miterlimit:4;stroke-dasharray:none"
       d="m 23.363667,121.52598 c 0,0 3.890338,0.84483 4.596855,0.84483 0.706517,0 28.703185,0.96454 28.703185,0.96454 l -2.537616,1.0319 0.562885,0.2732 -0.317352,1.21379 8.232537,0.74941 -2.126538,1.82057 2.577652,1.83907 -3.826748,2.95126 3.197135,0.0351 c 0,0 -4.776255,1.90803 -3.965249,1.90803 0.811003,0 7.450584,0.72351 7.450584,0.72351 l -7.383187,1.33994 4.205639,0.80004 -3.173857,2.11962 3.95414,0.90865 -7.550787,3.28154 -17.983277,2.34423 1.465599,-0.91712 -5.763477,-0.0707 3.745309,-1.36075 -10.28641,-1.51235 1.649931,-1.56501 -6.923075,-0.6866 -7.51859,-2.44624 5.699075,-1.36293 -5.638396,-3.82332 8.178707,-3.20663 -2.766067,-0.13403 2.081781,-3.60145 -4.599823,-0.61693 5.985631,-1.46961 -2.015048,-1.27588 z"
       id="path25445" />
    <path
       style="fill:#241f1c;stroke:#000000;stroke-width:0.35277778;stroke-linecap:round;stroke-linejoin:miter;stroke-opacity:1;stroke-miterlimit:4;stroke-dasharray:none"
       d="m 55.125532,107.11876 c 4.059886,-0.23937 8.166046,-0.2889 12.135686,-0.72041 -4.080852,1.28849 -6.381748,3.72948 -7.439014,6.97571 -0.331492,-2.43874 -1.762985,-4.67974 -4.696672,-6.2553 z"
       id="path25993"
       sodipodi:nodetypes="cccc" />
    <path
       style="fill:#241f1c;stroke:#000000;stroke-width:0.35277778;stroke-linecap:round;stroke-linejoin:miter;stroke-opacity:1;stroke-miterlimit:4;stroke-dasharray:none"
       d="m 52.051546,107.13826 -8.123207,0.27053 c -0.680199,0.7931 -1.400572,1.20444 -2.128864,1.54053 2.108282,0.89857 3.233741,2.52535 2.966635,5.18394 1.730157,-3.01673 3.930344,-5.93119 7.285436,-6.995 z"
       id="path26161"
       sodipodi:nodetypes="ccccc" />
    <path
       style="fill:#241f1c;stroke:#000000;stroke-width:0.35277778;stroke-linecap:round;stroke-linejoin:miter;stroke-opacity:1;stroke-miterlimit:4;stroke-dasharray:none"
       d="m 102.15902,44.125539 c 1.07264,-3.391512 0.25814,-10.548109 -6.290334,-12.575095 -5.725185,-1.772147 -9.896223,2.377051 -12.178436,5.119585 3.960785,-2.820974 6.725681,-5.094508 11.668788,-3.286337 5.321822,1.946705 6.578492,7.919649 6.799982,10.741847 z"
       id="path26481"
       sodipodi:nodetypes="cscsc" />
    <path
       id="path27280"
       style="fill:#241f1c;stroke:#000000;stroke-width:1.33333335;stroke-linecap:round;stroke-linejoin:miter;stroke-opacity:1;stroke-miterlimit:4;stroke-dasharray:none"
       d="M 330.54102 142.50391 C 314.3476 142.53488 298.07231 151.42026 286.13477 162.35938 C 268.68333 178.35119 285.01869 206.07504 279.36719 217.5918 C 275.23962 225.03099 264.57684 228.2464 256.07227 228.02148 C 238.77254 227.56397 225.52141 211.72464 209.875 204.33008 C 194.45784 197.04386 179.05956 199.15243 166.875 209.4668 C 159.13742 216.01675 151.4048 223.7706 141.61523 226.4043 C 135.40345 228.07546 127.59336 228.88724 122.35742 225.15039 C 122.22887 225.05864 122.10345 224.96685 121.97852 224.875 L 121.88477 224.91797 L 118.76367 227.31836 L 115.62305 227.19727 L 115.52148 227.94531 C 117.89649 229.74992 120.61267 231.14841 123.24414 232.02148 C 130.12491 234.30441 137.92727 231.63588 144.83984 229.45117 C 154.10715 226.52225 162.52966 221.1723 170.51562 215.63281 C 181.0892 208.29841 193.01694 202.31413 211.75977 211.16797 C 227.05203 218.39182 240.2274 231.3865 256.87109 234.39062 C 267.63364 236.33322 279.52658 224.46045 282.72852 223.80469 C 283.77179 223.59103 285.23176 224.13471 285.64258 225.11719 C 287.05321 243.36758 262.37058 263.31946 251.07422 272.70508 C 245.87876 277.01117 234.14258 283.80273 234.14258 283.80273 L 240.18359 283.13477 L 236.29688 291.37305 C 236.29688 291.37305 260.44553 275.11018 270.67383 264.87891 C 278.46173 257.08874 287.09033 249.05679 290.83984 238.69922 C 298.73528 219.85054 285.19232 198.74738 285.57227 184.73242 C 285.98447 176.8707 287.97171 168.11568 293.45703 162.46875 C 302.54469 153.11336 316.91304 147.82348 329.94531 148.3418 C 346.28 148.99145 356.95411 157.74344 366.66992 184.49805 C 367.26945 165.6818 348.93493 142.78386 331.3125 142.50977 C 331.05552 142.50577 330.79805 142.50341 330.54102 142.50391 z M 127.77344 193.22266 C 122.3248 193.31675 116.97711 197.47165 113.30664 202.76172 L 114.00586 204.9375 L 115.38672 204.39062 L 116.7793 207.05078 C 117.91452 205.30625 119.45292 203.67943 121.23633 202.2168 C 124.15628 199.82205 129.25492 196.62195 133.15625 200.81836 C 135.14755 202.96027 135.41083 206.03575 133.38281 211.83984 L 133.44922 211.85938 L 135.05273 211.93555 C 137.95221 208.69893 140.61682 202.86433 138.83203 200.01172 C 135.45995 195.08421 131.59219 193.15671 127.77344 193.22266 z "
       transform="scale(0.26458333)" />
    <path
       style="fill:#241f1c;stroke:#000000;stroke-width:0.35277778;stroke-linecap:round;stroke-linejoin:miter;stroke-opacity:1;stroke-miterlimit:4;stroke-dasharray:none"
       d="m 75.88383,75.160393 c -0.737962,-0.969448 -6.210701,-2.198117 -7.632406,0.111694 -0.875296,1.422073 -1.504511,3.773395 -0.367226,4.996103 4.226419,2.918184 7.262303,-2.854496 3.580479,-3.587862 1.898534,2.868967 -1.529274,3.445053 -2.426846,2.604789 -0.761159,-0.783449 -0.362194,-2.302143 0.136229,-3.274115 1.034152,-2.016696 5.936209,-1.412158 6.70977,-0.850609 z"
       id="path33888"
       sodipodi:nodetypes="cscccsc" />
    <path
       id="path34602"
       style="fill:#241f1c;stroke:#000000;stroke-width:1.33333335;stroke-linecap:round;stroke-linejoin:miter;stroke-opacity:1;stroke-miterlimit:4;stroke-dasharray:none"
       d="M 191.55078 250.5918 C 185.94915 250.56386 180.16929 251.95636 175.08984 253.96094 C 168.59864 256.52266 163.93278 262.20771 158.84375 267.12891 L 164.70898 267.68359 C 166.41959 265.91214 168.2606 264.32123 170.42578 263.16016 C 176.40104 259.95593 183.55476 258.11957 190.29883 258.81836 C 196.81067 259.49308 203.11641 262.75357 208.21875 266.85547 C 210.21227 268.45811 211.95183 270.30648 213.54102 272.30078 L 221 273.00781 C 215.37955 265.06899 210.10308 255.88158 201.25195 252.35156 C 198.20865 251.13783 194.91176 250.60856 191.55078 250.5918 z M 222.44336 275.00586 L 215.60547 275.07617 C 218.72181 279.52706 221.36907 284.42622 224.51367 288.82617 C 231.65118 298.81305 234.98086 312.65801 245.39258 319.16016 C 252.84357 323.81333 262.87434 324.93314 271.45703 323.06055 C 287.20398 317.48875 288.65736 312.93743 290.56445 297.86914 C 286.4514 313.28502 275.85652 317.06152 265.78516 317.81445 C 253.03601 318.76757 245.97224 311.1551 239.42383 303.22461 C 232.53373 294.88032 229.23303 284.03006 222.72461 275.38477 C 222.63041 275.25964 222.53717 275.13201 222.44336 275.00586 z M 157.63672 275.67578 L 149.93359 275.75586 C 146.32779 279.59483 142.71681 283.41492 138.01758 285.57227 C 132.82942 287.95407 125.94516 290.88577 121.05664 287.9375 C 117.78514 285.96446 117.16016 277.16016 117.16016 277.16016 L 108.92578 276.0957 C 108.92578 276.0957 110.95017 288.784 115.24219 292.48828 C 119.25641 295.9528 125.6506 297.77529 130.71289 296.19727 C 141.96465 292.68986 148.99566 282.93778 154.66797 278.41992 C 155.7193 277.58257 156.69805 276.65483 157.63672 275.67578 z "
       transform="scale(0.26458333)" />
    <path
       style="fill:#241f1c;stroke:#000000;stroke-width:0.35277778;stroke-linecap:round;stroke-linejoin:miter;stroke-opacity:1;stroke-miterlimit:4;stroke-dasharray:none"
       d="m 57.470688,78.820959 c 0,0 -4.978004,4.471955 -8.078447,5.425405 -2.308335,0.709861 -5.007695,-0.871129 -7.244953,0.03826 -2.582449,1.049701 -3.915984,3.976544 -6.022011,5.802897 -2.506157,2.173348 -4.532853,6.103649 -7.850095,6.11673 -1.655436,0.0065 -3.924813,-1.366135 -3.941462,-3.0215 -0.01153,-1.146003 1.542577,-2.22343 2.686035,-2.146233 0.885233,0.05976 1.837251,1.925976 1.837251,1.925976 0,0 -0.772941,-2.74672 -1.932797,-2.969729 -1.4596,-0.280641 -3.096583,1.187194 -3.644755,2.56875 -0.605217,1.525328 -0.218368,3.707675 0.984893,4.823505 1.208648,1.120825 3.332258,1.112537 4.905835,0.621686 3.645222,-1.137066 5.604941,-5.191697 8.530204,-7.645958 1.72504,-1.447288 3.194412,-3.411248 5.314402,-4.170225 2.267471,-0.811777 4.941717,0.610175 7.223422,-0.160687 3.073543,-1.038381 7.867848,-5.728967 7.867848,-5.728967 l -1.235901,-0.328893 z"
       id="path35364"
       sodipodi:nodetypes="csssssscsssssssccc" />
    <path
       id="path35555"
       style="fill:#241f1c;stroke:#000000;stroke-width:1.33333335;stroke-linecap:round;stroke-linejoin:miter;stroke-opacity:1;stroke-miterlimit:4;stroke-dasharray:none"
       d="M 222.95117 324.23828 C 221.39458 324.22946 219.82774 324.35026 218.24805 324.62109 C 214.21996 325.3117 209.97263 328.57971 208.86523 332.51367 C 207.69953 336.65476 209.85996 341.76808 212.95898 344.75195 C 217.28256 348.91489 226.36704 342.56571 226.58398 339.18555 C 217.93146 345.68115 211.10837 339.07382 217.9707 331.11523 C 222.9275 327.93559 229.7999 332.0793 235.43164 333.80078 C 241.52823 335.66435 245.86668 338.44076 251.38477 341.34961 C 238.29736 341.29219 222.09563 358.58479 211.5625 359.83398 C 201.53582 361.02312 191.5301 357.23772 181.58008 355.52148 C 172.51673 353.95818 163.38685 347.59094 154.53125 350.07422 C 148.81529 351.67709 142.76164 356.36519 141.44727 362.1543 C 140.61578 365.81656 142.64656 370.32041 145.61328 372.62305 C 149.80658 375.8777 156.3317 369.11935 155.84766 365.93164 C 150.7533 370.01085 144.82056 368.11553 146.87305 362.11719 C 148.34617 357.80872 153.84928 355.48933 158.33008 354.67969 C 164.81614 353.50771 168.8277 357.32716 175.30273 358.55859 C 187.88635 360.95177 201.66291 370.04371 213.25391 364.5918 C 226.851 358.1963 244.30005 345.21453 264.40234 346.95703 C 265.37422 347.27968 266.38563 347.59712 267.44727 347.9082 C 280.54417 351.74586 301.46469 331.09362 302.18945 328.24219 C 301.46142 330.15881 278.96216 348.15833 266.25391 342.67383 C 252.02888 336.53473 237.99825 324.32354 222.95117 324.23828 z "
       transform="scale(0.26458333)" />
    <path
       style="fill:#241f1c;stroke:#000000;stroke-width:0.35277778;stroke-linecap:round;stroke-linejoin:miter;stroke-opacity:1;stroke-miterlimit:4;stroke-dasharray:none"
       d="m 85.888152,91.413945 c -0.05168,3.743695 -7.06075,5.508869 -10.583111,3.807254 -3.007851,-1.453061 -7.386042,0.962844 -10.801154,2.3452 -3.370958,1.364484 -6.684534,3.543621 -10.57306,2.441811 -2.988212,-0.846708 -6.176401,-1.554904 -9.274349,-0.304959 -3.910142,1.577649 -7.059658,4.798099 -11.053339,6.150379 -1.907379,0.64585 -4.032662,1.3958 -5.977689,0.87419 -2.243635,-0.60169 -1.805355,-2.39427 -0.252958,-3.21083 0.672384,-0.35367 2.273157,-0.16546 2.273157,-0.16546 0,0 -2.061316,-1.23218 -2.975515,-0.84715 -1.202356,0.5064 -2.532623,2.30479 -2.339121,3.595 0.216667,1.44467 2.120099,2.2838 3.553668,2.56469 2.109814,0.4134 4.258244,-0.75734 6.267738,-1.52164 3.716395,-1.4135 6.913022,-3.95328 10.531943,-5.60039 3.329018,-1.51517 7.82943,0.35065 10.684923,0.0481 3.757297,-0.3981 7.577899,-1.4554 10.808279,-3.415096 4.498949,-2.729263 7.324521,-1.547229 11.990387,-0.798544 2.330883,0.374014 5.126368,-0.438665 6.745862,-2.156262 0.898466,-0.952892 0.974339,-3.806293 0.974339,-3.806293 z"
       id="path41900"
       sodipodi:nodetypes="cssssssscsssssssssc" />
    <path
       style="fill:#241f1c;stroke:#000000;stroke-width:0.35277778;stroke-linecap:round;stroke-linejoin:miter;stroke-opacity:1;stroke-miterlimit:4;stroke-dasharray:none"
       d="m 69.300497,65.292191 c -0.210909,0.319897 -5.215248,3.324785 -6.934309,1.744814 -2.183298,-2.006646 -3.090744,-5.295216 -5.549402,-6.953052 -2.146197,-1.447148 -4.866678,-2.468505 -7.442796,-2.215488 -1.663709,0.163404 -3.075034,1.368552 -4.436488,2.338641 -2.824319,2.012436 -3.990175,6.109536 -7.401917,6.731385 -0.983698,0.179296 -2.296631,-0.01592 -2.960335,-0.76379 -1.871598,-2.108932 0.79557,-2.966149 2.130962,-2.946818 2.005443,0.02903 1.151606,2.361317 0.789371,2.401951 0.611438,0.05787 2.572886,-2.609456 -0.210516,-3.285733 -1.848976,-0.449242 -4.919936,1.083417 -4.865402,2.985405 0.05753,2.006429 3.306255,3.039134 5.304587,2.850083 2.344245,-0.221776 4.019706,-2.319674 5.276974,-4.594817 0.938332,-1.698 5.233491,-5.209325 4.777732,-3.323601 -0.168954,0.699055 0.209092,2.528443 1.281559,3.036948 1.033035,0.489808 2.676469,0.441437 3.401108,-0.442854 0.318562,-0.388747 -0.102947,-1.504278 -0.102947,-1.504278 0.214564,0.258898 -1.299101,2.236454 -2.695511,0.961615 -0.613986,-0.560532 -0.731395,-1.995208 -0.06571,-2.493243 1.883217,-1.408935 4.768359,0.847985 6.714063,2.169287 2.363276,1.60487 2.914937,5.304258 5.4565,6.608535 2.416194,1.23994 7.014382,-2.056668 7.532477,-3.30499 z"
       id="path43189"
       sodipodi:nodetypes="cssssssscssssssscssssc" />
    <path
       style="fill:#241f1c;stroke:#000000;stroke-width:0.35277778;stroke-linecap:round;stroke-linejoin:miter;stroke-opacity:1;stroke-miterlimit:4;stroke-dasharray:none"
       d="m 126.6599,59.727671 c -0.0577,3.882837 -8.7023,7.42624 -8.89787,10.99379 -0.23371,4.263323 2.9038,8.674827 6.73431,8.84525 2.27835,0.101366 5.37301,-0.417265 6.38359,-2.461742 2.19933,-4.449414 -1.39912,-7.656212 -2.99396,-9.151157 1.31865,2.693862 3.20416,6.193428 1.37995,8.16691 -0.98992,1.070929 -2.54716,2.101918 -3.97819,1.820865 -3.06984,-0.602915 -5.71305,-3.768138 -5.33599,-7.109943 0.4057,-3.595666 6.36412,-4.358031 7.52131,-9.499572 0.13165,-0.584934 -0.81315,-1.604401 -0.81315,-1.604401 z"
       id="path44417"
       sodipodi:nodetypes="cssscssssc" />
    <path
       style="fill:#241f1c;stroke:#000000;stroke-width:0.35277778;stroke-linecap:round;stroke-linejoin:miter;stroke-opacity:1;stroke-miterlimit:4;stroke-dasharray:none"
       d="m 108.65852,46.63586 c 0.42216,-0.390648 7.62321,4.814529 7.29991,10.389065 -0.32442,5.593892 -3.14658,9.511599 -5.53417,13.867853 -2.28015,4.160233 -4.88794,9.568808 -2.59031,13.842589 1.8755,3.488588 6.99749,7.268382 10.30207,4.788009 1.95093,-1.464341 2.98743,-4.341479 2.18969,-6.509123 -0.55109,-1.497444 -2.54341,-4.055293 -2.54341,-4.055293 0,0 3.32879,2.438919 3.70999,4.29088 0.62364,3.029803 -0.40908,6.008224 -2.51179,7.645832 -4.05695,3.159585 -9.49988,-1.046152 -11.99562,-5.274384 -2.88464,-4.887102 -0.56123,-10.67641 2.04966,-15.256375 2.53129,-4.440328 5.23669,-8.809887 5.65471,-13.39759 0.27332,-2.999618 -2.1619,-6.155414 -6.03073,-10.331463 z"
       id="path48487"
       sodipodi:nodetypes="cssssscsssssc" />
    <path
       style="fill:#241f1c;stroke:#000000;stroke-width:0.35277778;stroke-linecap:round;stroke-linejoin:miter;stroke-opacity:1;stroke-miterlimit:4;stroke-dasharray:none"
       d="m 108.50703,123.93886 0.32698,-4.16234 0.48371,3.15779 2.12428,-2.01361 -1.40129,3.26027 z"
       id="path49491" />
    <path
       style="fill:#241f1c;stroke:#000000;stroke-width:0.35277778;stroke-linecap:round;stroke-linejoin:miter;stroke-opacity:1;stroke-miterlimit:4;stroke-dasharray:none"
       d="m 112.03789,119.07597 0.90194,-4.43642 0.77153,4.16572 z"
       id="path49526" />
    <path
       style="fill:#241f1c;stroke:#000000;stroke-width:0.35277778;stroke-linecap:round;stroke-linejoin:miter;stroke-opacity:1;stroke-miterlimit:4;stroke-dasharray:none"
       d="m 118.86562,42.662302 c 0,0 5.90913,-0.741542 7.96306,0.970664 2.14054,1.784409 3.86658,5.558904 2.48879,7.981246 -1.1957,2.10221 -4.93361,2.841005 -7.0573,1.683883 -1.18461,-0.64545 -1.8587,-2.56964 -1.34505,-3.817065 0.55312,-1.343285 3.92277,-1.898711 3.92277,-1.898711 0,0 -2.13544,1.008878 -2.33678,2.018218 -0.12793,0.641355 0.33852,1.385972 0.87915,1.753973 1.79409,1.221226 3.99412,0.08469 4.45773,-1.683668 0.41233,-1.572772 -0.71837,-3.436265 -1.98513,-4.455551 -1.7913,-1.441351 -6.75527,-1.393778 -6.75527,-1.393778 z"
       id="path49674"
       sodipodi:nodetypes="csssscsssscc" />
    <path
       style="fill:#241f1c;stroke:#000000;stroke-width:0.35277778;stroke-linecap:round;stroke-linejoin:miter;stroke-opacity:1;stroke-miterlimit:4;stroke-dasharray:none"
       d="m 155.82632,67.122701 c 1.15829,-0.182633 7.98486,-3.346768 10.54585,-4.800452 1.38682,-0.787192 3.82604,0.0483 4.55335,1.46744 0.52142,1.017404 -0.0717,2.676463 -1.05223,3.264315 -0.77688,0.465762 -2.67407,-0.483346 -2.67407,-0.483346 0,0 1.69183,-0.07416 2.15538,-0.666308 0.42618,-0.544413 0.56631,-1.543588 0.11896,-2.070748 -0.71264,-0.839793 -2.41091,-1.019029 -3.28568,-0.349777 -2.2028,1.685279 -8.85054,4.468803 -9.30056,4.000257 0,0 2.14613,2.358575 3.60906,2.600767 0.89266,0.147783 1.96754,-0.141771 2.59614,-0.792573 0.95523,-0.988967 -1.16561,-2.228778 -1.28833,-2.190975 0.0861,-0.03345 2.27879,0.07946 2.48817,1.291243 0.10455,0.60508 0.29634,1.383213 -0.22643,1.80054 -0.98168,0.783677 -2.50812,0.739762 -3.73745,0.481714 -1.69241,-0.355254 -2.88608,-1.926352 -4.44438,-2.676144 -0.53666,-0.25822 -1.67529,-0.620914 -1.67529,-0.620914 z"
       id="path50013"
       sodipodi:nodetypes="sssscssscsscsssscs" />
    <path
       style="fill:#241f1c;stroke:#000000;stroke-width:0.35277778;stroke-linecap:round;stroke-linejoin:miter;stroke-opacity:1;stroke-miterlimit:4;stroke-dasharray:none"
       d="m 153.84462,71.224348 c 2.29686,1.81967 8.05501,2.985787 11.19866,1.584029 3.78911,-1.689572 8.10159,-4.82675 11.98338,-3.362603 2.05547,0.775287 3.9317,3.357672 3.58887,5.527574 -0.24389,1.543695 -2.08913,2.769906 -3.64113,2.953724 -1.37051,0.162323 -3.38998,-0.448953 -3.73569,-1.785041 -0.62082,-2.399339 2.09986,-3.550906 2.49542,-3.480236 -1.0642,0.851514 -1.17737,2.153238 -0.51506,2.853632 0.6561,0.693828 1.99614,0.111049 2.8464,-0.323583 2.28283,-1.166918 0.0149,-3.523944 -1.40373,-4.253693 -3.55285,-1.827578 -7.81976,1.690356 -11.6388,2.864125 -3.96076,1.217326 -8.69616,0.100785 -11.17832,-2.577928 z"
       id="path50960"
       sodipodi:nodetypes="cssssscssssc" />
    <path
       style="fill:#6c5d53;stroke:none;stroke-width:0.35277778;stroke-linecap:round;stroke-linejoin:miter;stroke-opacity:1;stroke-miterlimit:4;stroke-dasharray:none"
       d="m 71.565121,50.412324 -8.22134,0.896122 2.066224,0.907728 -7.252406,1.391626 5.636778,1.250741 -0.399232,2.074346 7.651673,0.483024 -0.953593,-1.660832 1.911573,-1.849652 z"
       id="path52396" />
    <path
       style="fill:#6c5d53;stroke:none;stroke-width:0.35277778;stroke-linecap:round;stroke-linejoin:miter;stroke-opacity:1;stroke-miterlimit:4;stroke-dasharray:none"
       d="m 54.580953,73.342287 -1.963814,-0.137109 -8.671144,-0.205711 -0.402413,1.282491 -3.959646,1.223626 3.409649,1.179695 -5.465593,1.46957 -0.815139,1.833571 -9.505993,-0.35868 -2.162297,-0.748059 -2.312966,0.268217 2.136921,4.620765 -1.268956,2.949118 3.410663,0.986182 -1.62564,1.023898 8.637802,0.146659 9.119899,-6.870264 -4.141571,-0.863261 15.487965,-2.536476 -4.476716,-1.425466 6.079818,-3.183369 z"
       id="path52398"
       sodipodi:nodetypes="cccccccccccccccccccccc" />
    <path
       style="fill:#6c5d53;stroke:none;stroke-width:0.35277778;stroke-linecap:round;stroke-linejoin:miter;stroke-opacity:1;stroke-miterlimit:4;stroke-dasharray:none"
       d="m 107.45033,27.017136 -7.44321,1.220684 5.46002,1.581827 -3.37081,1.521704 5.92922,4.789439 -4.06512,2.647347 3.24228,1.789348 -4.13948,6.064702 9.82588,-4.952722 -1.67888,-1.401566 4.08991,0.761092 1.76915,-0.490331 -0.40084,-3.265178 z"
       id="path52400"
       sodipodi:nodetypes="cccccccccccccc" />
    <path
       style="fill:#6c5d53;stroke:none;stroke-width:0.35277778;stroke-linecap:round;stroke-linejoin:miter;stroke-opacity:1;stroke-miterlimit:4;stroke-dasharray:none"
       d="m 132.00618,33.029133 11.30728,-0.529844 -1.97199,-3.419581 10.49443,-1.1348 1.35733,-3.947986 -9.70913,1.772167 -14.94691,3.694193 -2.22149,4.30134 z"
       id="path52402"
       sodipodi:nodetypes="ccccccccc" />
    <path
       style="fill:#241f1c;stroke:#000000;stroke-width:0.35277778;stroke-linecap:round;stroke-linejoin:miter;stroke-opacity:1;stroke-miterlimit:4;stroke-dasharray:none"
       d="m 152.68977,25.348558 c 0,0 4.04765,-1.398177 5.4635,-0.249723 0.99922,0.81051 1.61286,2.680307 0.66408,3.549318 -2.08953,1.91384 -2.91567,-0.583846 -2.52796,-0.977224 -0.50974,0.340237 -1.26635,2.906558 0.21852,3.064851 1.10345,0.117631 2.34337,-0.191176 3.20926,-0.885211 1.63062,-1.306998 1.22286,-3.320701 0.18139,-4.822605 -0.22087,-0.318515 -0.65972,-0.957536 -0.65972,-0.957536 l -2.49852,-0.887347 -3.64695,0.831419 z"
       id="path52437"
       sodipodi:nodetypes="csscssscccc" />
    <path
       style="fill:#241f1c;stroke:#000000;stroke-width:0.35277778;stroke-linecap:round;stroke-linejoin:miter;stroke-opacity:1;stroke-miterlimit:4;stroke-dasharray:none"
       d="m 120.87505,38.13675 10.1175,-4.173717 c 0.0105,-0.05856 -3.0648,3.248266 -4.97493,4.967856 -1.44763,1.303223 -5.10304,-0.548899 -5.14257,-0.794139 z"
       id="path53156"
       sodipodi:nodetypes="ccsc" />
    <path
       style="fill:#6c5d53;stroke:none;stroke-width:0.35277778;stroke-linecap:round;stroke-linejoin:miter;stroke-opacity:1;stroke-miterlimit:4;stroke-dasharray:none"
       d="m 149.46901,74.618809 9.1936,1.304274 -2.46091,1.800432 16.42959,0.7976 -3.3518,3.172478 2.78259,0.115538 -7.64908,5.325576 -0.28881,-5.289108 -9.64737,0.460528 3.18016,-2.604037 -7.07752,-0.281842 1.00341,-2.149139 z"
       id="path53533" />
    <path
       style="fill:#241f1c;stroke:#000000;stroke-width:0.35277778;stroke-linecap:round;stroke-linejoin:miter;stroke-opacity:1;stroke-miterlimit:4;stroke-dasharray:none"
       d="m 162.61397,77.985503 c 0,0 3.82592,-1.992327 5.91287,-2.410714 1.64324,-0.329434 3.28882,2.334601 3.15929,2.906223 l -1.55877,-0.152392 c 0.2128,-0.103147 -0.42461,-1.783786 -2.31863,-1.384226 -1.18343,0.249654 -3.40709,1.247859 -3.40709,1.247859 z"
       id="path53568"
       sodipodi:nodetypes="csccscc" />
    <path
       style="fill:#241f1c;stroke:#000000;stroke-width:0.35277778;stroke-linecap:round;stroke-linejoin:miter;stroke-opacity:1;stroke-miterlimit:4;stroke-dasharray:none"
       d="m 184.66661,105.08779 c -0.87295,-1.47796 -2.05416,-1.93664 -3.16008,-2.64428 l 5.65513,0.30271 z"
       id="path54740"
       sodipodi:nodetypes="cccc" />
    <path
       style="fill:#241f1c;stroke:#000000;stroke-width:0.35277778;stroke-linecap:round;stroke-linejoin:miter;stroke-opacity:1;stroke-miterlimit:4;stroke-dasharray:none"
       d="m 162.08901,96.039542 c 0,0 4.13267,-0.294475 5.9248,-1.218359 1.67864,-0.865379 2.27932,-3.590416 4.14877,-3.858527 1.85055,-0.265401 4.2868,0.789407 5.01479,2.51133 0.60534,1.431819 -0.11724,3.052155 -1.39893,3.931814 -2.42952,1.145671 -3.09699,0.163097 -4.38333,-1.830753 0,0 0.93424,0.832012 1.51897,0.969315 0.7591,0.178247 1.79523,0.322115 2.32592,-0.249166 0.443,-0.476877 0.68419,-1.484669 0.38345,-2.061914 -0.51665,-0.991664 -2.01628,-1.818615 -3.1301,-1.719927 -1.67397,0.148319 -2.05117,2.421136 -3.61024,3.04843 -2.08093,0.837267 -6.7941,0.47776 -6.7941,0.47776 z"
       id="path54965"
       sodipodi:nodetypes="csssccssssscc" />
    <path
       id="path55698"
       style="fill:#241f1c;fill-rule:evenodd;stroke:#000000;stroke-width:0.35277778;stroke-linecap:round;stroke-linejoin:miter;stroke-opacity:1;stroke-miterlimit:4;stroke-dasharray:none"
       d="m 41.649957,138.29262 -0.901678,0.51005 0.450585,0.6937 1.094679,0.0866 z m -4.645522,1.1235 5.500391,-6.35245 0.02511,1.68248 -3.230205,3.45357 0.404323,0.50903 -1.443905,1.49099 1.090559,-1.55408 -0.647311,-0.33191 -1.166064,1.47241 z m -4.480435,0.0349 c 3.758873,-2.90647 6.947948,-6.42399 9.91958,-10.17469 l -0.286808,1.76204 c -2.043572,3.25923 -4.626797,6.15597 -8.076218,8.47088 z m -2.482853,-0.24746 0.03995,-4.71783 0.797456,-0.51058 0.248018,2.46254 3.18185,-3.43928 -0.984694,-1.6364 0.701333,-0.53571 1.321787,0.76633 3.710117,-2.82532 -2.209133,-0.11681 0.8431,-1.13948 3.877686,-0.24173 c -3.548944,3.68903 -7.106912,7.51546 -10.702139,11.90917 l -0.322069,-0.26172 z m -1.501553,-5.83011 -0.0094,-2.49169 c 2.399328,-1.36165 4.114678,-2.86044 5.183902,-4.48878 l 1.831967,0.27505 z m -1.827212,7.58723 c 0.687256,-5.13849 0.469283,-10.52933 -0.275823,-16.06711 6.317062,-0.88352 13.102205,-0.84207 20.005082,-0.56796 0.261272,6.00857 0.479941,12.01908 -0.652383,18.09106 l -9.811486,1.66556 -8.837083,-1.26795 4.446336,0.12868 12.967198,-1.06797 c 1.079261,-5.05703 1.45961,-10.38627 1.210868,-15.96051 l -1.867683,1.66631 c 1.375942,4.80047 0.20051,9.00099 -0.315058,13.35668 l -14.041707,0.82513 -2.363058,1.19323 1.561796,-1.97406 z"
       sodipodi:nodetypes="ccccccccccccccccccccccccccccccccccccccccccccccccccccccc" />
    <path
       style="fill:#241f1c;stroke:#000000;stroke-width:0.35277778;stroke-linecap:round;stroke-linejoin:miter;stroke-opacity:1;stroke-miterlimit:4;stroke-dasharray:none"
       d="m 60.157448,127.19924 c 0.03113,0.0945 -7.799737,-0.11823 -10.87541,1.53019 -0.623722,0.33429 -0.941643,1.2922 -0.769501,1.9786 0.243971,0.97281 1.347841,1.6 2.284826,1.95769 2.389584,0.91223 7.671678,0.16044 7.671678,0.16044 0,0 -5.666018,0.46373 -7.771294,-1.08863 -0.834078,-0.61502 -0.794238,-1.76243 0.107757,-2.35312 2.678112,-1.75383 9.351944,-2.18517 9.351944,-2.18517 z"
       id="path57030"
       sodipodi:nodetypes="cssscssc" />
    <path
       style="fill:#241f1c;stroke:#000000;stroke-width:0.35277778;stroke-linecap:round;stroke-linejoin:miter;stroke-opacity:1;stroke-miterlimit:4;stroke-dasharray:none"
       d="m 51.312165,133.46272 c 0,0 -2.775145,0.84013 -3.240709,2.02597 -0.237338,0.60453 0.05163,1.41897 0.508135,1.88091 0.45527,0.46069 1.869707,0.52895 1.869707,0.52895 0,0 -2.291843,0.74306 -2.43296,1.72766 -0.133243,0.92966 0.956525,1.703 1.746543,2.21083 0.894135,0.57476 0.893719,0.54975 3.097078,0.75929 -1.34251,0.88791 -6.278213,1.09325 -6.278213,1.09325 0,0 4.778162,0.22453 7.032381,-0.43457 0.24497,-0.0716 0.669288,-0.37191 0.669288,-0.37191 l -0.754923,-0.0966 2.910478,-0.52123 c 0,0 -3.206498,0.13032 -4.664766,-0.42787 -0.877481,-0.33588 -2.122347,-0.75336 -2.261417,-1.68258 -0.09031,-0.60345 0.603494,-1.09915 1.084339,-1.47477 0.777548,-0.6074 2.738281,-1.12403 2.738281,-1.12403 0,0 -2.827916,-0.12544 -3.430373,-1.17302 -0.281537,-0.48955 -0.02927,-1.22756 0.332436,-1.66126 0.521118,-0.62484 2.268537,-0.90091 2.268537,-0.90091 z"
       id="path57369"
       sodipodi:nodetypes="csscssccscccssscsscc" />
    <path
       style="fill:#241f1c;stroke:#000000;stroke-width:0.35277778;stroke-linecap:round;stroke-linejoin:miter;stroke-opacity:1;stroke-miterlimit:4;stroke-dasharray:none"
       d="m 24.707835,140.70687 0.163568,-16.47255 0.44791,16.71535 z"
       id="path58050" />
    <path
       style="fill:#241f1c;stroke:#000000;stroke-width:0.35277778;stroke-linecap:round;stroke-linejoin:miter;stroke-opacity:1;stroke-miterlimit:4;stroke-dasharray:none"
       d="m 141.57877,34.594829 c -0.94531,-0.445972 -9.92312,1.744788 -10.47963,5.858444 -0.24956,1.844699 -0.5204,3.458338 0.9563,4.591721 1.53915,1.181307 4.6033,1.369011 5.81876,-0.245771 1.04391,-1.386869 -1.3184,-5.037876 -1.3184,-5.037876 0,0 0.89382,3.369479 0.0516,4.339627 -3.23965,1.520791 -4.58853,-0.344755 -3.78771,-3.778906 1.11809,-4.945715 9.14669,-6.085614 9.23165,-5.852088 z"
       id="path58198"
       sodipodi:nodetypes="csssccccc" />
    <path
       style="fill:#241f1c;stroke:#000000;stroke-width:0.35277778;stroke-linecap:round;stroke-linejoin:miter;stroke-opacity:1;stroke-miterlimit:4;stroke-dasharray:none"
       d="m 181.0807,32.815707 c 0,0 1.79873,1.906553 1.51974,3.127105 -0.35796,1.566044 -2.03037,2.977259 -3.63677,2.966617 -1.48451,-0.0098 -3.56561,-1.150999 -3.59023,-2.635335 -0.0225,-1.357428 1.84782,-2.620358 3.20154,-2.517576 0.75965,0.05768 1.56268,1.667816 1.56268,1.667816 0,0 -1.08009,-1.038694 -1.71436,-0.91064 -0.7897,0.159434 -1.65941,1.078347 -1.52741,1.873097 0.13514,0.813638 1.27514,1.330169 2.09966,1.309145 1.07569,-0.02743 2.24023,-0.84983 2.64868,-1.845337 0.39056,-0.951915 -0.56353,-3.034892 -0.56353,-3.034892 z"
       id="path60574"
       sodipodi:nodetypes="csssscssssc" />
    <path
       style="fill:#241f1c;stroke:#000000;stroke-width:0.35277778;stroke-linecap:round;stroke-linejoin:miter;stroke-opacity:1;stroke-miterlimit:4;stroke-dasharray:none"
       d="m 182.56577,107.04391 c 0.31475,-0.0856 -0.39867,-3.19871 -2.5341,-3.4066 -1.40723,-0.137 -3.44958,0.0663 -4.01731,1.36118 -0.61977,1.4136 0.2578,3.75496 1.6723,4.37269 0.78157,0.34132 2.33476,-0.31771 2.91051,-0.9469 1.59046,-1.7381 -1.19525,-3.19199 -2.17564,-2.55816 0.35745,-0.0116 2.53166,1.28298 1.3317,2.11284 -0.47897,0.33124 -1.21254,0.5675 -1.72597,0.29268 -0.97009,-0.51923 -1.57897,-1.83392 -1.12279,-2.83521 0.4113,-0.90277 1.78987,-1.01189 2.78072,-1.06068 1.58982,-0.0783 2.99279,2.54774 2.88058,2.66816 z"
       id="path61236"
       sodipodi:nodetypes="csssscssssc" />
    <path
       style="fill:#241f1c;stroke:#000000;stroke-width:0.35277778;stroke-linecap:round;stroke-linejoin:miter;stroke-opacity:1;stroke-miterlimit:4;stroke-dasharray:none"
       d="m 56.441409,112.02559 c 0.31475,-0.0856 -0.39867,-3.19871 -2.5341,-3.4066 -1.40723,-0.137 -3.44958,0.0663 -4.01731,1.36119 -0.61977,1.4136 0.0094,3.18719 1.42394,3.80492 0.78157,0.34132 2.33476,-0.31771 2.91051,-0.9469 1.59046,-1.7381 -0.94689,-2.62422 -1.92728,-1.99039 0.35745,-0.0116 2.357787,0.53717 1.157827,1.36703 -0.47897,0.33124 -1.21254,0.5675 -1.72597,0.29268 -0.97009,-0.51923 -1.405097,-1.08811 -0.948917,-2.0894 0.4113,-0.90277 1.78987,-1.01189 2.78072,-1.06068 1.58982,-0.0783 2.99279,2.54774 2.88058,2.66815 z"
       id="path61236-0"
       sodipodi:nodetypes="csssscssssc" />
    <path
       style="fill:#241f1c;stroke:#000000;stroke-width:0.35277778;stroke-linecap:round;stroke-linejoin:miter;stroke-opacity:1;stroke-miterlimit:4;stroke-dasharray:none"
       d="m 58.336309,38.351706 c 0,0 0.213219,2.36758 -0.614538,3.117514 -0.909285,0.823796 -2.91684,0.633727 -3.331509,0.132334 -0.602727,-0.728784 -0.633949,-2.187807 0.111909,-2.974938 0.488094,-0.515103 1.38436,-0.636204 1.880824,-0.129163 0.340918,0.348182 0.239767,0.829144 -0.04494,1.224614 -0.273308,0.379635 -1.227934,0.679382 -1.227934,0.679382 0,0 1.293788,-0.03105 1.687909,-0.460979 0.44235,-0.482542 0.750789,-1.413774 0.3511,-1.932204 -0.670795,-0.870078 -2.455872,-0.974753 -3.286019,-0.25513 -1.14171,0.989704 -1.332402,3.425738 -0.294008,4.523351 1.063114,1.123743 3.471248,1.135237 4.640598,-0.04396 1.129839,-1.139353 0.644276,-3.586744 0.126609,-3.880821 z"
       id="path62449"
       sodipodi:nodetypes="cssssscsssssc" />
    <path
       style="fill:#241f1c;stroke:#000000;stroke-width:0.35277778;stroke-linecap:round;stroke-linejoin:miter;stroke-opacity:1;stroke-miterlimit:4;stroke-dasharray:none"
       d="m 44.255483,38.434726 c 0.411457,0.369537 0.220144,2.46231 -0.614538,3.117514 -1.511497,1.186486 -2.852371,0.927765 -3.331509,0.132334 -0.487981,-0.810111 -0.765672,-2.477921 -0.01981,-3.265052 0.488094,-0.515103 1.38436,-0.636204 1.880824,-0.129163 0.340918,0.348182 0.37149,1.119258 0.08678,1.514728 -0.273308,0.379635 -1.227934,0.679382 -1.227934,0.679382 0,0 1.293788,-0.03105 1.687909,-0.460979 0.44235,-0.482542 0.750789,-1.413774 0.3511,-1.932204 -0.670795,-0.870078 -2.455872,-0.974753 -3.286019,-0.25513 -1.14171,0.989704 -1.225338,3.333544 -0.294008,4.523351 1.096463,1.40077 3.548077,1.829392 4.640598,-0.04396 0.804509,-1.379495 0.8864,-2.036592 0.126608,-3.880821 z"
       id="path62449-7"
       sodipodi:nodetypes="cssssscsssssc" />
    <path
       style="fill:#241f1c;stroke:#000000;stroke-width:0.35277778;stroke-linecap:round;stroke-linejoin:miter;stroke-opacity:1;stroke-miterlimit:4;stroke-dasharray:none"
       d="m 31.440128,38.925886 c 1.021099,1.153454 0.481737,2.993709 -0.666891,3.716467 -0.985411,0.620056 -2.540349,0.820925 -3.489692,0.146942 -0.75544,-0.536323 -1.109122,-1.784909 -0.805344,-2.660153 0.434574,-1.25209 2.545293,-1.665609 3.125678,-0.797055 0.407519,0.609856 -0.128826,2.024112 -0.165196,2.067484 0,0 -0.27693,-1.019636 -0.490535,-1.430467 -0.318202,-0.612005 -1.39788,0.04425 -1.663017,0.642125 -0.204055,0.460136 0.164987,1.156186 0.616622,1.378423 0.672262,0.330802 1.73269,0.09402 2.214994,-0.09749 0.760809,-0.302106 1.774323,-1.684922 1.323381,-2.966273 z"
       id="path64211"
       sodipodi:nodetypes="csssscsssscc" />
    <path
       style="fill:#241f1c;stroke:#000000;stroke-width:0.35277778;stroke-linecap:round;stroke-linejoin:miter;stroke-opacity:1;stroke-miterlimit:4;stroke-dasharray:none"
       d="m 31.801715,113.06574 c 1.088799,0.4786 1.71883,1.39327 2.358657,2.29863 0.416681,-1.30736 0.939917,-2.5733 2.053016,-3.6099 -1.319881,0.70088 -2.69439,1.30613 -4.411673,1.31127 z"
       id="path65272"
       sodipodi:nodetypes="cccc" />
    <path
       style="fill:#241f1c;stroke:#000000;stroke-width:0.35277778;stroke-linecap:round;stroke-linejoin:miter;stroke-opacity:1;stroke-miterlimit:4;stroke-dasharray:none"
       d="m 67.720175,110.43992 c 0,0 -1.19016,2.05149 -2.042017,1.76323 -0.811647,-0.27466 -1.063479,-1.26481 -0.552974,-1.95299 0.715407,-0.96439 2.586327,-1.49962 3.615602,-0.88119 1.462408,0.87867 0.163286,3.66873 0.0038,3.65259 0.190228,0.0966 1.841347,-2.17318 0.537093,-3.91694 -1.062705,-1.42081 -3.685829,-1.05305 -4.728614,0.15379 -0.849853,0.98356 -0.721143,3.23259 0.407003,3.87828 0.673546,0.3855 1.591101,-0.39494 2.11958,-0.96326 0.419493,-0.45112 0.640527,-1.73351 0.640527,-1.73351 z"
       id="path66050"
       sodipodi:nodetypes="cssscssssc" />
    <path
       style="fill:#241f1c;stroke:#000000;stroke-width:0.35277778;stroke-linecap:round;stroke-linejoin:miter;stroke-opacity:1;stroke-miterlimit:4;stroke-dasharray:none"
       d="m 38.578062,110.96707 c -0.604336,-0.0972 -2.68579,1.96959 -0.875543,3.02423 0.612984,0.35712 1.422006,0.25444 2.123212,0.14676 1.358731,-0.20866 1.065423,-2.05099 0.581938,-2.20353 0.08806,0.17287 -0.136136,0.58018 -0.481357,0.97709 -0.350907,0.40344 -1.18972,0.26132 -1.799833,0.21682 -1.030188,-0.0751 0.273399,-1.99563 0.451583,-2.16137 z"
       id="path66503"
       sodipodi:nodetypes="csscssc" />
    <path
       style="fill:#241f1c;stroke:#000000;stroke-width:0.35277778;stroke-linecap:round;stroke-linejoin:miter;stroke-opacity:1;stroke-miterlimit:4;stroke-dasharray:none"
       d="m 40.532319,110.47458 c 2.633097,-0.36116 3.132981,2.39242 1.202928,3.59996 0.582271,-0.45225 1.357504,-2.39291 -1.202928,-3.59996 z"
       id="path67089"
       sodipodi:nodetypes="ccc" />
  </g>
</svg>
