<?xml version="1.0" encoding="UTF-8" standalone="no"?>
<!-- Created with Inkscape (http://www.inkscape.org/) -->

<svg
   xmlns:dc="http://purl.org/dc/elements/1.1/"
   xmlns:cc="http://creativecommons.org/ns#"
   xmlns:rdf="http://www.w3.org/1999/02/22-rdf-syntax-ns#"
   xmlns:svg="http://www.w3.org/2000/svg"
   xmlns="http://www.w3.org/2000/svg"
   xmlns:sodipodi="http://sodipodi.sourceforge.net/DTD/sodipodi-0.dtd"
   xmlns:inkscape="http://www.inkscape.org/namespaces/inkscape"
   width="420mm"
   height="594mm"
   viewBox="0 0 420 594"
   version="1.1"
   id="svg8"
   inkscape:version="0.92.3 (2405546, 2018-03-11)"
   sodipodi:docname="pic_Tamjas.svg">
  <defs
     id="defs2" />
  <sodipodi:namedview
     id="base"
     pagecolor="#ffffff"
     bordercolor="#666666"
     borderopacity="1.0"
     inkscape:pageopacity="0.0"
     inkscape:pageshadow="2"
     inkscape:zoom="0.49497475"
     inkscape:cx="807.91582"
     inkscape:cy="1431.0688"
     inkscape:document-units="mm"
     inkscape:current-layer="layer1"
     showgrid="false"
     inkscape:window-width="1280"
     inkscape:window-height="965"
     inkscape:window-x="0"
     inkscape:window-y="0"
     inkscape:window-maximized="1"
     showguides="true"
     units="mm" />
  <metadata
     id="metadata5">
    <rdf:RDF>
      <cc:Work
         rdf:about="">
        <dc:format>image/svg+xml</dc:format>
        <dc:type
           rdf:resource="http://purl.org/dc/dcmitype/StillImage" />
        <dc:title />
      </cc:Work>
    </rdf:RDF>
  </metadata>
  <g
     inkscape:label="Layer 1"
     inkscape:groupmode="layer"
     id="layer1"
     transform="translate(0,297)">
    <path
       id="path850"
       style="fill:#000000;fill-rule:evenodd;stroke:#000000;stroke-width:0.26458332px;stroke-linecap:butt;stroke-linejoin:miter;stroke-opacity:1"
       d="m 198.39716,-206.3299 c 0.76164,-1.17707 1.82589,-4.0552 2.52422,-2.13422 0.49608,1.36461 1.49584,3.3255 2.38585,4.71439 1.26018,1.96655 1.71137,2.53931 -1.58544,2.25223 -2.94731,-0.25665 -4.43877,-0.51163 -7.36809,-0.11405 1.37992,-1.35629 2.93076,-2.99875 4.04346,-4.71835 z m -4.44814,-16.71809 c -1.74908,0.77737 -6.7598,1.95968 -7.46503,4.34672 -0.66126,2.23822 0.30502,3.55879 2.55135,2.45684 2.43536,-1.19468 4.03438,-4.16908 4.91368,-6.80356 z m -34.15959,33.59262 c 10.34474,-9.28866 20.49762,-18.79317 32.78944,-25.89136 1.54958,-2.9199 2.07554,-6.0957 2.64584,-9.26042 -3.45402,1.11102 -6.8844,2.07735 -11.81177,2.92932 -3.50005,13.0322 -16.47243,24.10402 -23.62351,32.22246 z m 46.68006,-32.78942 c -0.0133,3.53884 0.62221,6.82148 4.51377,9.03801 8.30705,4.73147 13.95436,7.90124 28.84263,23.84592 -5.63425,-6.97036 -14.31802,-16.88508 -21.63914,-28.25373 -2.51539,-3.36185 -6.4045,-5.95933 -9.4494,-6.2366 -2.72494,-0.22541 3.05284,3.57262 3.96875,4.6302 1.88138,2.31216 0.39548,3.68551 -2.26786,2.64584 -2.14897,-0.83887 -3.96875,-5.66964 -3.96875,-5.66964 z m -13.79611,-14.69383 c -3.72707,0.0404 -6.66624,-2.38865 -7.74853,-6.37835 3.77989,0.27152 7.47156,1.72818 7.74853,6.37835 z m 1.03942,0.89769 c 0,0 -0.19211,-5.70783 -1.51191,-8.12648 -1.078,-1.97553 -2.8515,-3.72899 -4.91368,-4.63021 -9.19623,-4.01895 -22.14568,-15.45989 -27.21431,-19.18229 9.75278,9.28232 17.83525,18.96956 21.73365,29.67113 4.18731,1.73949 8.22112,2.78817 11.90625,2.26785 z m 13.35608,-0.75595 c 2.41781,-3.29531 3.06771,-7.47458 4.53572,-11.24479 11.52746,-4.92245 19.56766,-13.62276 29.19866,-20.5997 -7.68007,10.48505 -17.63864,19.26122 -22.77307,31.6555 -3.45599,0.26834 -7.31854,0.26565 -10.29985,0.85045 11.91679,-4.53591 10.89704,-14.13683 -0.66146,-0.66146 z m -37.75826,4.91703 c 3.37023,-0.14995 2.71928,6.77382 -0.0668,6.94901 -2.6123,0.16427 -3.69797,-6.7815 0.0668,-6.94901 z m 27.59557,-25.92514 c -0.0667,3.04222 7.67471,3.31453 7.684,-0.13364 0.008,-3.04951 -7.60807,-3.32957 -7.684,0.13364 z m 35.48003,25.32379 c -3.862,-0.18099 -2.92735,6.75138 -0.4009,6.81537 3.9372,0.0997 3.66695,-6.66231 0.4009,-6.81537 z m -39.66561,62.01915 c -0.63643,-7.59295 10.51632,-7.88451 8.97693,-0.14174 -1.38548,6.96866 -4.94372,14.50405 -7.03981,24.52121 0,0 -1.25963,-16.29664 -1.93712,-24.37947 z m -11.24924,-1.14851 c 1.10562,-21.67979 35.27311,-26.36232 33.94324,0.53454 -2.31521,-10.46231 -19.73567,-23.99585 -33.94324,-0.53454 z m 11.1075,-83.61266 c 5.85002,4.21835 11.30446,3.98649 16.44196,0.18899 -3.87821,7.3456 -5.44013,15.07455 -5.85863,22.67857 8.1334,0.12636 17.10238,0.56771 26.26935,-4.34672 -5.02761,5.44329 -3.34723,11.21057 1.74477,16.8314 -14.27918,-8.6021 -19.32305,-7.34583 -28.15922,-7.60677 0,0 0.30894,14.23299 3.3579,19.50155 2.29968,3.97383 3.23664,5.34823 5.95313,7.37054 9.50681,7.07743 12.37361,11.15515 12.5677,21.35568 -1.02687,-15.83944 -40.78767,-30.95798 -52.16071,2.26785 -0.39089,-6.46396 1.35526,-14.20741 14.64659,-25.51341 3.40991,-2.90058 7.36581,-6.2955 9.16591,-10.39434 1.97028,-4.48636 1.51191,-14.55209 1.51191,-14.55209 -12.23102,0.21144 -17.18886,3.33215 -24.37947,5.85863 4.12224,-4.65039 5.79532,-9.60693 0,-15.49702 8.38285,2.92079 16.50922,4.7313 24.37947,4.7247 -0.12035,-6.911 -0.14116,-13.48873 -5.48066,-22.86756 z"
       inkscape:connector-curvature="0"
       sodipodi:nodetypes="ccscccccscccccccsccccccccccscccccccccccccscsscssscscccccccccccccccccccc" />
    <path
       id="path823"
       style="fill:#000000;fill-rule:evenodd;stroke:#000000;stroke-width:0.26458332px;stroke-linecap:butt;stroke-linejoin:miter;stroke-opacity:1"
       d="m 43.901605,-227.29541 c 3.67542,-4.14938 6.557,-7.30842 11.23809,-10.70354 -1.45601,5.51216 -1.08831,10.29407 -1.03273,15.80623 -1.99348,-4.93999 -5.69986,-5.94035 -10.20536,-5.10269 z m -0.46101,7.11947 c -2.29412,4.12037 2.6362,5.53462 4.06324,3.02382 1.672,-2.94179 -2.66817,-5.52944 -4.06324,-3.02382 z m 19.97658,-39.17254 c -15.93102,7.72172 2.86886,22.77025 9.08716,9.62171 -5.07219,3.67497 -15.5307,-1.20205 -9.08716,-9.62171 z m -25.14132,40.3227 c 0.34624,-8.38945 14.50047,-9.34996 14.32395,0.86191 -0.15186,8.785 -14.77306,10.02002 -14.32395,-0.86191 z m 22.46861,-1.70226 20.57976,-0.26726 c 0,0 1.67043,-3.78655 5.21174,-3.74179 6.38069,0.0806 8.11782,10.64091 0.66817,11.55943 -2.60905,0.32169 -5.21173,-2.40543 -5.21173,-2.40543 l -22.25021,0.4009 c 0.58341,0.0833 -4.05539,12.92035 -15.70208,11.02487 -21.49096,-3.49762 -12.41752,-28.80408 1.87087,-28.33058 0,0 -9.6854,7.16639 -10.4073,13.10965 -1.38928,11.43766 14.25651,15.77758 19.41621,4.82035 1.89487,-4.02399 1.54827,-12.85187 1.54827,-12.85187 1.84173,1.92989 4.10546,3.55835 4.2763,6.68173 z m 14.56618,-41.1595 c -15.53463,-12.85386 -32.50745,11.51653 -18.04069,20.84702 3.95579,2.55133 10.78523,1.61972 10.69077,1.33634 l 6.43069,10.14004 c -1.59341,1.61826 -2.59178,3.92045 -2.68889,6.69795 l 8.35216,-0.53453 c 1.82102,-1.77657 4.05874,-3.76253 6.38679,-3.67161 11.675,0.45593 9.88162,17.05469 -0.17276,16.23328 -1.83417,-0.0952 -5.07813,-2.13818 -5.07813,-2.13818 l -9.02036,0.20045 c 0.59226,2.80096 8.6338,10.54831 14.76666,9.95579 20.205875,-1.95215 19.314105,-36.34883 -5.0552,-30.47821 l -6.8383,-10.81491 c 3.4203,-1.81068 6.64777,-12.49398 0.26726,-17.77343 z"
       inkscape:connector-curvature="0"
       sodipodi:nodetypes="ccccssscccsssccssccscscccssccccscccsccs" />
    <path
       id="path992"
       style="opacity:1;vector-effect:none;fill:#000000;fill-opacity:1;fill-rule:evenodd;stroke:#000000;stroke-width:0.26499999;stroke-linecap:round;stroke-linejoin:bevel;stroke-miterlimit:4;stroke-dasharray:none;stroke-dashoffset:0;stroke-opacity:1"
       d="m 82.470973,-80.60499 c -2e-6,3.04443 -2.468002,5.51243 -5.512434,5.51243 -3.044432,0 -5.512432,-2.468 -5.512434,-5.51243 -3e-6,-3.04444 2.467998,-5.51244 5.512434,-5.51244 3.044436,0 5.512437,2.468 5.512434,5.51244 z M 59.80694,-103.0004 c -2.513665,0.0971 -5.006462,0.49852 -7.424286,1.19554 2.232801,9.11596 -7.246117,12.91161 -12.803197,7.38285 -4.379824,4.19017 -7.454228,9.5665 -8.850159,15.47661 9.286811,2.5505 7.486845,12.56563 0.03372,14.65602 0.581312,2.34904 1.431385,4.62267 2.53326,6.77553 0.90061,-0.56636 2.721129,-0.13184 3.120264,0.82547 0.340048,0.81559 -0.192957,2.09955 -0.972519,2.7904 1.23068,1.80905 2.646671,3.48373 4.224808,4.99665 6.598152,-5.07128 15.027831,-1.24993 12.68539,7.31622 2.840622,0.83901 5.785584,1.26849 8.746571,1.27557 3.01073,-0.008 6.004577,-0.45182 8.888749,-1.31903 -1.606375,-9.70424 8.560407,-11.36002 12.630956,-7.32436 1.602911,-1.54158 3.037692,-3.25022 4.280056,-5.09698 -0.783641,-0.85804 -1.0643,-2.63849 -0.362359,-3.41722 0.505386,-0.56068 1.620683,-0.56144 2.445513,-0.19418 1.079192,-2.1397 1.910488,-4.39656 2.477606,-6.72638 -8.153772,-2.94551 -6.726194,-12.36186 0.03047,-14.46225 -1.37265,-5.86768 -4.399457,-11.2143 -8.718541,-15.40064 -5.804143,5.8556 -14.007246,2.34628 -12.580988,-7.45231 -2.186943,-0.66171 -4.439544,-1.08073 -6.717443,-1.24957 -0.344499,1.039 -1.286904,2.04914 -2.174152,1.91213 -0.752601,-0.11622 -1.311216,-1.0165 -1.493713,-1.96007 z m 1.398091,7.65862 c 4.206483,-1e-4 7.522041,1.42558 7.52194,5.63206 -1.31e-4,4.20632 -3.410115,7.61612 -7.616434,7.61602 -4.20616,-1.3e-4 -7.615897,-3.40986 -7.616028,-7.61602 -1.01e-4,-4.20632 3.504198,-5.63193 7.710522,-5.63206 z m -15.977015,9.1134 c 4.206323,-1e-4 7.805296,1.42533 7.805422,5.63165 9.5e-5,4.20648 -3.409955,7.61653 -7.616434,7.61643 -4.206321,-1.3e-4 -7.616123,-3.41011 -7.616028,-7.61643 1.26e-4,-4.20616 3.220876,-5.63152 7.42704,-5.63165 z m 31.710924,-1.98438 c 4.206164,1.3e-4 7.615902,3.40987 7.616028,7.61603 9.5e-5,4.20632 -3.409707,7.6163 -7.616028,7.61643 -4.206479,1e-4 -7.616529,-3.40995 -7.616434,-7.61643 1.26e-4,-4.20632 3.410111,-7.61613 7.616434,-7.61603 z m -0.09449,19.93996 c 4.206164,1.3e-4 7.710396,1.51999 7.710522,5.72615 9.5e-5,4.20632 -3.409707,7.6163 -7.616028,7.61643 -4.206479,10e-5 -7.616529,-3.40995 -7.616434,-7.61643 1.26e-4,-4.20632 3.315617,-5.72625 7.52194,-5.72615 z m -31.433786,0.27669 c 4.206479,-1e-4 7.711023,1.33108 7.710928,5.53756 1.01e-4,4.20648 -3.409951,7.61654 -7.616434,7.61644 -4.206324,-1.3e-4 -7.616127,-3.41012 -7.616026,-7.61644 -9.5e-5,-4.20632 3.315212,-5.53743 7.521532,-5.53756 z m 15.794371,8.77929 c 4.206479,-1e-4 7.522035,1.70906 7.52194,5.91554 -1.26e-4,4.20632 -3.410111,7.61613 -7.616434,7.61603 -4.206164,-1.3e-4 -7.615902,-3.40987 -7.616028,-7.61603 -9.5e-5,-4.20632 3.504201,-5.91541 7.710522,-5.91554 z"
       inkscape:connector-curvature="0"
       sodipodi:nodetypes="sssssccccccsccccccccccccccccccccccccccccccccccccccccccccccc" />
    <path
       id="path840"
       style="fill:#000000;fill-rule:evenodd;stroke:#000000;stroke-width:0.26499999;stroke-linecap:butt;stroke-linejoin:miter;stroke-miterlimit:4;stroke-dasharray:none;stroke-opacity:1"
       d="m 194.9482,14.976328 c 1.29367,-2.48916 0.11447,-4.75798 0.14174,-7.1343001 -0.62287,3.5133501 -1.97575,5.8100001 -4.11049,6.8035801 z m -5.33891,-32.78943 4.98526,0.0324 0.083,-3.05149 c 0.63918,0.18929 3.85057,-1.84075 3.71966,-4.87119 -0.17151,-3.9701 -2.84681,-4.72008 -5.29167,-3.96875 -1.79763,0.55243 -1.92074,4.05296 -1.88988,4.06324 -0.004,-0.0258 1.6629,-2.32554 2.96846,-2.26311 0.98628,0.0472 1.69493,0.63751 1.28041,1.82307 -0.5165,1.47725 -3.06029,1.61077 -4.1267,2.75613 -1.43294,1.53902 -1.72857,5.47967 -1.72857,5.47967 z m -0.54145,8.0865999 c -0.79612,0.0885 -1.5546,7.92423 1.20271,11.49259 1.57172,2.03403 1.20271,7.61718 1.20271,7.61718 -1.60729,3.5696501 -5.08854,1.1426501 -8.41899,-0.80181 -1.97135,5.0241001 -5.39685,3.3728101 -9.35443,-0.13363 -5.57559,5.5618901 -12.79142,1.41118 -19.91158,1.6036201 14.58782,8.70033 28.93139,6.67194 43.16403,8.15172 2.37154,-9.4549801 -4.63485,-19.11640007 -2.93997,-27.9296601 z m 8.41899,8.28536 c 0.0568,0.36934 17.72666,0.56388003 25.12333,0.66817003 2.82438,0.0398 4.80838,3.09770997 6.68174,5.21175997 2.85617,3.22311 4.77434,11.2253201 4.67722,11.2253201 1.90344,-6.3734301 -0.32001,-14.0707801 1.73725,-21.6488301 0,0 -4.89312,1.92456 -7.34991,1.46998 -2.95295,-0.54638 -5.75151,-2.45762 -7.61718,-4.81085 -8.61967,-10.8722499 -16.87933,-21.4016799 -23.65336,-32.8741599 -1.03101,-1.74612 -2.67983,-1.11322 -3.60814,0.26727 -5.91733,8.79974 -12.02048,18.48635 -19.37704,26.72696 -1.51555,1.69769 -0.21972,3.08347 1.87089,3.0736 8.7409,-0.0413 17.74905,-0.13062 26.72695,-0.13363 2.10587,-8e-4 4.87405,-0.21573 2.93997,-2.93997 -1.65712,-2.33413 -2.88056,-3.71648 -4.00904,-5.47903 -0.83895,-1.31033 -1.87089,-4.27631 -1.87089,-4.27631 0.0694,3.08272 -1.32855,4.43131 -3.20724,5.21175 0,0 1.80201,1.60859 2.80633,2.27179 1.81041,1.19551 1.69561,2.23593 -0.93544,2.2718 -5.27904,0.072 -10.94207,-0.48374 -16.70434,-0.13364 -1.56712,0.0952 -2.08756,-1.16279 -1.20272,-2.40542 4.14955,-5.82744 9.49283,-12.10732 13.76438,-17.90706 0.88257,-1.19832 1.48937,-1.60987 2.40543,0 5.83869,10.26088 14.75747,19.4527 22.18337,28.8651099 1.89851,2.40638 1.31448,1.98968 -1.33635,2.27179 -6.52768,0.69469 -20.71339,-0.13364 -20.71339,-0.13364 z M 184.4608,-49.887102 c 0.66093,2.78973 2.59076,3.93531 5.14158,4.07922 0,0 -2.32969,0.93005 -3.0736,1.87088 -8.81059,11.14285 -16.39024,23.37892 -24.9897,34.7450399 -1.20673,1.59496 -0.68599,3.10068 2.13815,3.34087 7.15269,0.60835 22.18337,1.00226 22.18337,1.00226 -0.0427,1.09135 -0.11538,2.18271 0.53454,3.27405 0.0661,0.16522 -19.10909,-0.88318 -29.39964,-0.4009 -3.11346,0.14592 -5.8712,2.55127003 -8.01809,4.81085 -2.6766,2.81709 -5.47903,10.2898801 -5.47903,10.2898801 -0.0405,-6.1138601 2.76379,-12.88423007 -0.26727,-18.3079601 0,0 4.98421,0.62211 7.48355,0.53453 3.20936,-0.11245 5.80048,-3.15471 7.88445,-6.2808299 8.32486,-12.48798 17.32175,-22.94092 24.99642,-34.75036 0.56666,-0.87196 0.86527,-4.20753 0.86527,-4.20753 z m 5.67612,-4.13932 c 1.14158,-0.19654 2.63487,1.69303 2.13815,2.73951 -0.43942,0.92578 -2.4654,0.8916 -3.0736,0.0668 -0.58521,-0.79361 -0.0363,-2.63904 0.93545,-2.80633 z m 2.23632,-36.00376 c 0,0 -0.16536,-3.87425 0.11812,-3.9215 0.28348,-0.0473 4.58296,0 4.58296,0 -1.5806,0.77793 -3.17966,0.83548 -4.70108,3.9215 z m -5.30992,34.06605 c 1.51981,-4.18026 3.55045,-8.78311 2.13815,-14.56618 -6.58696,1.0359 -12.1545,3.30884 -16.97161,7.48354 4.71473,-5.95258 9.91263,-9.9725 15.63526,-11.89349 -1.63402,-7.52086 2.24146,-14.28265 1.20272,-22.04974 15.17891,1.36488 28.3726,0.0341 39.55589,6.81537 -6.94901,0.10068 -13.89802,-2.49117 -20.84703,2.40543 -4.01058,-5.41693 -6.55358,-3.28631 -8.81989,0.26727 -5.31406,-4.97638 -7.64144,5.96571 -4.81085,11.49259 5.56156,-0.7473 12.24623,5.31907 16.03617,10.15624 -5.19238,-2.97736 -17.18954,-10.00268 -15.283,-0.95166 2.91815,0.12047 7.50994,3.1899 10.87305,6.29705 -4.92231,-1.58288 -8.48116,-2.51801 -11.68829,-1.10822 l -1.67518,5.78544 c 2.11341,1.18321 3.6453,3.91929 1.73725,6.28083 -1.48808,1.84176 -4.8101,2.28632 -6.94901,0.80181 -2.57986,-1.79056 -0.23335,-6.94201 -0.13363,-7.21628 z"
       inkscape:connector-curvature="0" />
    <path
       id="path864"
       style="fill:#000000;fill-rule:evenodd;stroke:#000000;stroke-width:0.26458332px;stroke-linecap:butt;stroke-linejoin:miter;stroke-opacity:1"
       d="m 302.80741,-199.31952 c -1.19913,1.14141 -0.49312,4.13527 0.99219,4.86644 2.49123,1.22635 3.96927,-2.58591 3.07105,-3.82701 -0.9919,-1.37055 -3.05061,-2.00331 -4.06324,-1.03943 z m 83.01302,0.1532 c -1.43479,-0.49305 -3.84143,1.57176 -3.40179,3.02381 0.39629,1.30886 3.11753,1.55478 4.06325,0.56697 0.84166,-0.87912 0.48954,-3.19526 -0.66146,-3.59078 z m -55.82305,22.06575 15.7805,-25.98586 13.13467,18.70982 -3.21279,1.79539 -6.67191,-9.3035 5.34899,17.05201 -4.25223,1.6064 -4.4689,-18.45321 -4.22456,23.65038 -4.34672,0.66146 5.23353,-24.29561 -8.82431,15.60216 z m 15.49472,-37.1199 16.83798,-23.38608 -3.74178,-0.53454 -8.35217,12.49486 9.95579,-26.39287 -4.40995,-0.13364 -8.21854,26.99423 -0.73499,-39.68953 -4.40995,0.53454 2.40543,41.09269 -4.22096,-12.20326 c -0.62457,0.31993 -1.46609,0.74833 -2.59441,1.32013 l 3.4745,7.94316 -5.05519,-6.80865 c -0.80833,0.49319 -1.61667,1.08799 -2.425,1.95727 z m -21.78247,38.88772 c 0.26727,-0.66817 21.25988,-32.12017 21.25988,-32.12017 0.43862,-0.87724 -18.48199,-5.56128 -29.94614,-0.62036 -1.23935,0.53415 -1.15699,-1.09778 -0.80181,-2.13815 1.87346,-5.48756 5.01988,-10.70063 9.08716,-14.83346 1.01219,-1.0285 3.64232,-1.28887 5.07813,-0.13363 6.53681,5.25946 15.27144,13.2776 15.26777,13.22984 l -13.53052,-18.57523 c 3.39157,-3.75711 7.49402,-5.85549 11.62622,-7.88446 -6.35498,0.37894 -8.12901,0.68453 -13.76438,4.27632 -3.26417,-4.56934 -11.72867,-8.98957 -17.77342,-4.81086 -6.23402,4.30955 -5.33429,12.91402 -1.06908,16.83798 0,0 -2.5962,-9.03044 2.93996,-12.96257 3.88363,-2.75839 7.51446,-0.62129 9.88898,1.73726 1.36405,1.35487 0.43587,3.17471 -1.06908,4.40994 -8.10332,6.65101 -12.01574,16.59652 -13.49711,25.3906 -0.40712,2.41683 0.79793,2.15346 2.13815,1.46999 9.55384,-4.87213 21.49077,-4.29826 28.0633,-3.34087 -1.66149,3.32386 -4.04296,5.32775 -7.21627,5.87993 2.17627,9.48162 -4.24012,8.14285 -8.41899,9.6217 2.24305,8.57417 -6.69392,8.20434 -11.22532,11.35895 4.32085,1.05675 8.64171,0.49641 12.96257,3.20724 z m 43.29766,-52.91936 c 4.81269,4.92462 13.63354,13.54332 15.50163,24.85606 0.48638,2.94537 -1.11288,3.95881 -2.80633,2.67269 -6.0785,-4.61643 -18.01764,-7.18737 -24.58879,-7.75081 10.72443,-3.59725 15.6149,-1.39156 21.17775,0.17278 -0.91618,-6.60494 -4.92718,-13.37431 -9.28426,-19.95072 z m -20.84514,19.45482 c 0.042,0.042 13.15566,-20.69873 20.04333,-30.14561 3.28063,-4.49957 11.75041,-3.9611 15.29644,1.5712 2.77965,4.33665 -2.10449,11.601 -2.33386,11.39138 0.27455,0 2.15052,-5.77711 -1.33635,-9.2208 -2.47323,-2.4426 -7.59797,-2.24067 -9.7257,0.88959 -5.47818,8.05936 -16.06751,24.65782 -16.37894,24.4848 1.55267,4.43801 3.72465,6.95908 7.79668,7.36612 0.21795,3.74637 -1.94566,8.58698 7.08264,8.28536 0.1152,7.36751 4.29642,11.13369 13.22984,10.69078 -4.15701,1.45803 -9.67332,1.78332 -12.42803,4.40994 z"
       inkscape:connector-curvature="0"
       sodipodi:nodetypes="ccsccsscccccccccccccccccccccccccccccccccsccccccscccssscccccccscccccscssccccccc" />
    <flowRoot
       xml:space="preserve"
       id="flowRoot829"
       style="font-style:normal;font-weight:normal;font-size:40px;line-height:26.66666794px;font-family:sans-serif;text-align:center;letter-spacing:0px;word-spacing:0px;text-anchor:middle;fill:#000000;fill-opacity:1;stroke:none"
       transform="matrix(0.26458333,0,0,0.26458333,-26.726953,-294.86184)"><flowRegion
         id="flowRegion831"
         style="line-height:26.66666794px;text-align:center;text-anchor:middle"><rect
           id="rect833"
           width="494.97473"
           height="199.00005"
           x="112.12693"
           y="409.59213"
           style="line-height:26.66666794px;text-align:center;text-anchor:middle" /></flowRegion><flowPara
         id="flowPara835"
         style="font-size:26.66666794px;line-height:26.66666794px;text-align:center;text-anchor:middle">Красный Картель. </flowPara><flowPara
         id="flowPara837"
         style="font-size:26.66666794px;line-height:26.66666794px;text-align:center;text-anchor:middle">Три союзных планеты - Нимб с луной, Океан, Чёрная Скала с вулканом</flowPara></flowRoot>    <flowRoot
       xml:space="preserve"
       id="flowRoot829-3"
       style="font-style:normal;font-weight:normal;font-size:40px;line-height:26.66666794px;font-family:sans-serif;text-align:center;letter-spacing:0px;word-spacing:0px;text-anchor:middle;fill:#000000;fill-opacity:1;stroke:none"
       transform="matrix(0.26458333,0,0,0.26458333,-32.284753,-137.73836)"><flowRegion
         id="flowRegion831-6"
         style="line-height:26.66666794px;text-align:center;text-anchor:middle"><rect
           id="rect833-7"
           width="494.97473"
           height="199.00005"
           x="112.12693"
           y="409.59213"
           style="line-height:26.66666794px;text-align:center;text-anchor:middle" /></flowRegion><flowPara
         id="flowPara835-5"
         style="font-size:26.66666794px;line-height:26.66666794px;text-align:center;text-anchor:middle">Союз Воронёной Стали. </flowPara><flowPara
         id="flowPara837-3"
         style="font-size:26.66666794px;line-height:26.66666794px;text-align:center;text-anchor:middle">Барабан револьвера </flowPara><flowPara
         style="font-size:26.66666794px;line-height:26.66666794px;text-align:center;text-anchor:middle"
         id="flowPara866">с одной пулей</flowPara></flowRoot>    <flowRoot
       xml:space="preserve"
       id="flowRoot829-5"
       style="font-style:normal;font-weight:normal;font-size:40px;line-height:26.66666794px;font-family:sans-serif;text-align:center;letter-spacing:0px;word-spacing:0px;text-anchor:middle;fill:#000000;fill-opacity:1;stroke:none"
       transform="matrix(0.26458333,0,0,0.26458333,103.98966,-242.265)"><flowRegion
         id="flowRegion831-62"
         style="line-height:26.66666794px;text-align:center;text-anchor:middle"><rect
           id="rect833-9"
           width="494.97473"
           height="199.00005"
           x="112.12693"
           y="409.59213"
           style="line-height:26.66666794px;text-align:center;text-anchor:middle" /></flowRegion><flowPara
         id="flowPara835-1"
         style="font-size:26.66666794px;line-height:26.66666794px;text-align:center;text-anchor:middle">Орден Преисподней. </flowPara><flowPara
         id="flowPara837-2"
         style="font-size:26.66666794px;line-height:26.66666794px;text-align:center;text-anchor:middle">Вулкан и бабочка</flowPara></flowRoot>    <flowRoot
       xml:space="preserve"
       id="flowRoot829-7"
       style="font-style:normal;font-weight:normal;font-size:40px;line-height:26.66666794px;font-family:sans-serif;text-align:center;letter-spacing:0px;word-spacing:0px;text-anchor:middle;fill:#000000;fill-opacity:1;stroke:none"
       transform="matrix(0.26458333,0,0,0.26458333,246.86465,-264.94357)"><flowRegion
         id="flowRegion831-0"
         style="line-height:26.66666794px;text-align:center;text-anchor:middle"><rect
           id="rect833-93"
           width="494.97473"
           height="199.00005"
           x="112.12693"
           y="409.59213"
           style="line-height:26.66666794px;text-align:center;text-anchor:middle" /></flowRegion><flowPara
         id="flowPara837-0"
         style="font-size:26.66666794px;line-height:26.66666794px;text-align:center;text-anchor:middle">Орден Тысячи Башен.</flowPara><flowPara
         style="font-size:26.66666794px;line-height:26.66666794px;text-align:center;text-anchor:middle"
         id="flowPara898">Хук, глайдер и две друзы, образующие числа 5 и 4 - девять кланов, образовавших фракцию</flowPara></flowRoot>    <flowRoot
       xml:space="preserve"
       id="flowRoot829-6"
       style="font-style:normal;font-weight:normal;font-size:40px;line-height:26.66666794px;font-family:sans-serif;text-align:center;letter-spacing:0px;word-spacing:0px;text-anchor:middle;fill:#000000;fill-opacity:1;stroke:none"
       transform="matrix(0.26458333,0,0,0.26458333,93.028347,-78.979288)"><flowRegion
         id="flowRegion831-2"
         style="line-height:26.66666794px;text-align:center;text-anchor:middle"><rect
           id="rect833-6"
           width="494.97473"
           height="199.00005"
           x="112.12693"
           y="409.59213"
           style="line-height:26.66666794px;text-align:center;text-anchor:middle" /></flowRegion><flowPara
         id="flowPara837-7"
         style="font-size:26.66666794px;line-height:26.66666794px;text-align:center;text-anchor:middle">Клан Дорге.</flowPara><flowPara
         style="font-size:26.66666794px;line-height:26.66666794px;text-align:center;text-anchor:middle"
         id="flowPara916">Хук и глайдер, складывающиеся в стилизованную монограмму ЖД</flowPara></flowRoot>  </g>
</svg>
