<?xml version="1.0" encoding="UTF-8" standalone="no"?>
<!-- Created with Inkscape (http://www.inkscape.org/) -->

<svg
   xmlns:dc="http://purl.org/dc/elements/1.1/"
   xmlns:cc="http://creativecommons.org/ns#"
   xmlns:rdf="http://www.w3.org/1999/02/22-rdf-syntax-ns#"
   xmlns:svg="http://www.w3.org/2000/svg"
   xmlns="http://www.w3.org/2000/svg"
   xmlns:sodipodi="http://sodipodi.sourceforge.net/DTD/sodipodi-0.dtd"
   xmlns:inkscape="http://www.inkscape.org/namespaces/inkscape"
   width="210mm"
   height="297mm"
   viewBox="0 0 210 297"
   version="1.1"
   id="svg8"
   inkscape:version="0.92.5 (2060ec1f9f, 2020-04-08)"
   sodipodi:docname="pic_NamelessCreatingUniverse.svg">
  <defs
     id="defs2" />
  <sodipodi:namedview
     id="base"
     pagecolor="#ffffff"
     bordercolor="#666666"
     borderopacity="1.0"
     inkscape:pageopacity="0.0"
     inkscape:pageshadow="2"
     inkscape:zoom="0.49497475"
     inkscape:cx="196.1853"
     inkscape:cy="453.76568"
     inkscape:document-units="mm"
     inkscape:current-layer="layer1"
     showgrid="false"
     objecttolerance="1"
     gridtolerance="1"
     guidetolerance="1"
     inkscape:window-width="1920"
     inkscape:window-height="1015"
     inkscape:window-x="0"
     inkscape:window-y="0"
     inkscape:window-maximized="1" />
  <metadata
     id="metadata5">
    <rdf:RDF>
      <cc:Work
         rdf:about="">
        <dc:format>image/svg+xml</dc:format>
        <dc:type
           rdf:resource="http://purl.org/dc/dcmitype/StillImage" />
        <dc:title></dc:title>
      </cc:Work>
    </rdf:RDF>
  </metadata>
  <g
     inkscape:label="Layer 1"
     inkscape:groupmode="layer"
     id="layer1">
    <path
       id="path870"
       style="fill:#000000;stroke:none;stroke-width:0.17819893px;stroke-linecap:butt;stroke-linejoin:miter;stroke-opacity:1"
       d="m 167.88025,132.00209 c 0,0 8.56775,12.82061 11.52052,19.89089 0.65912,1.57823 0.81933,3.32431 1.35006,4.95023 0.8357,2.5602 1.2686,5.7319 2.34011,7.74035 0.38577,0.72309 0.71438,0.46455 0.63003,-0.36002 -0.2133,-2.08493 -0.81418,-3.57864 -1.14756,-5.64776 -0.18947,-1.17597 0.48627,-0.78497 0.63003,-0.45001 1.45736,3.39555 2.5283,7.1228 4.56771,9.78794 0.35463,0.46344 1.96141,1.0514 1.26006,-0.63003 -1.33201,-3.19335 -3.14904,-6.06309 -4.18519,-9.31542 -0.35669,-1.11962 0.52555,-0.48521 0.72004,-0.18001 2.64709,4.15392 4.37945,7.91935 6.70529,11.38551 0.43701,0.65126 1.78713,-0.11374 1.19255,-1.05754 -2.35764,-3.7424 -4.68013,-6.7349 -6.8403,-11.11551 -0.79437,-1.6109 0.33406,-1.08622 0.54002,-0.81003 1.77971,2.38657 4.30876,7.14794 6.72781,9.38292 0.89614,0.82795 1.28931,-0.38063 0.81003,-0.90004 -2.73493,-2.96392 -4.54889,-6.59089 -7.1335,-10.15275 -0.18581,-0.25607 0.39859,-0.37363 1.08005,0.045 1.28537,0.78958 1.33209,0.95817 2.7233,1.64737 0.53767,0.26636 2.14411,0.49161 1.80008,0 -1.28671,-1.83871 -4.85286,-3.32946 -6.6603,-5.22024 -1.28547,-1.34475 -3.04289,-2.1587 -4.41019,-3.42016 -5.16626,-4.76633 -14.22065,-15.57069 -14.22065,-15.57069 z m -20.38541,13.97954 c -0.37916,2.07504 -0.89499,3.95098 0.77275,7.74409 3.64007,8.27899 7.95063,15.32733 8.81218,23.81842 0.88402,8.71263 0.3309,2.15626 0.45001,3.24015 0.24332,2.21405 0.12716,4.47151 0.54003,6.6603 0.37124,1.96814 0.69316,0.94429 0.81004,0 0.28011,-2.26303 0.0868,-3.88761 -0.0225,-6.16528 -0.0332,-0.69158 0.57163,-0.94778 0.63003,0 0.20384,3.30855 0.98838,5.25591 1.55256,8.41538 0.14118,0.79063 1.27802,0.95519 1.17005,0.09 -0.36671,-2.93845 -1.209,-5.16128 -1.62007,-8.59539 -0.12297,-1.02733 0.19474,-0.76748 0.54002,0.18001 1.3608,3.73413 2.70544,6.96232 3.94474,10.41636 0.41663,1.16118 1.40586,0.49952 1.2755,-0.20091 -0.68153,-3.66187 -2.96836,-7.07982 -4.29769,-11.228 -0.4333,-1.3521 0.49631,-1.18089 0.81003,-0.63003 1.60057,2.81041 2.20659,5.69773 3.93768,8.43788 0.43951,0.69569 1.95752,1.24922 1.26006,-0.27001 -1.64199,-3.57662 -2.86379,-5.70702 -4.00651,-9.71311 -0.22661,-0.79445 -0.22456,-1.45 0.31182,-1.11187 1.32484,0.83517 1.01241,1.81125 2.34463,2.63461 0.59578,0.36821 2.49263,0.91859 2.07009,0.36001 -1.85401,-2.45092 -5.23836,-7.69083 -6.39029,-9.0004 -0.75329,-0.85638 -1.6124,-2.69152 -3.33014,-5.94027 -4.28599,-8.10602 -7.37477,-18.02571 -10.42777,-26.6263 -0.01,2.24813 -0.70686,5.16587 -1.13725,7.48436 z m -17.52174,2.7985 c 0,0 3.81816,19.31043 2.77188,29.15585 -0.23628,2.22333 0.12227,4.09971 -0.19132,6.31346 -0.3208,2.26459 -1.16968,4.56622 -1.21506,6.79531 -0.0175,0.86189 1.01485,1.47374 1.17006,0.09 0.2287,-2.03892 0.84309,-3.32163 1.21505,-5.28773 0.17891,-0.94565 0.55642,-0.512 0.63003,0.18001 0.3898,3.66486 -0.1234,6.74392 0.31502,10.14795 0.1881,1.46053 1.03864,0.67425 1.08004,0 0.21474,-3.4974 -0.02,-6.24287 0.0675,-10.30546 0.01,-0.43923 0.39013,-1.24824 0.63003,-0.27002 1.12141,4.57271 1.21526,8.80347 2.09259,13.2756 0.3491,1.77951 1.41808,-0.0784 1.35006,-0.81004 -0.41776,-4.49417 -1.41061,-8.30803 -2.02509,-12.80308 -0.16444,-1.20294 0.62735,-1.2061 0.83254,-0.2925 1.19137,5.30451 1.65083,8.59548 2.54261,12.10554 0.33268,1.30943 1.48509,0.77103 1.35006,-0.45002 -0.4733,-4.27986 -1.81482,-8.5827 -2.12827,-13.66876 -0.0354,-0.57324 0.0115,-1.71432 0.5082,-0.82189 0.87017,1.56345 1.67395,3.27879 3.06014,4.41019 0.53103,0.43343 2.08692,1.46662 1.89008,0.81005 -0.61884,-2.06419 -3.13427,-4.3995 -3.69016,-6.93032 -0.43883,-1.99784 -3.60883,-5.26905 -4.32019,-6.84031 -3.88998,-8.59219 -7.93581,-24.80383 -7.93581,-24.80383 z m -49.301747,10.77246 c 1.499714,2.15468 3.570305,3.24917 6.746103,2.29113 -0.31305,0.0783 -9.260488,16.04774 -10.819221,24.24778 -0.426805,2.2453 -0.783447,4.70964 -1.209207,6.74611 -0.492891,2.35755 -0.06635,4.86793 -0.700067,7.19159 -0.265092,0.97201 -1.054781,0.77204 -0.954637,-0.44549 0.182951,-2.22428 -0.01137,-3.32943 0.351632,-5.70786 0.154575,-1.0128 -0.626832,-1.17264 -0.729627,-0.23979 -0.36505,3.31277 -1.35154,5.54668 -1.9588,8.75178 -0.166589,0.87925 -1.459399,0.78048 -1.163542,-0.25843 0.973393,-3.41812 1.152258,-4.64136 1.994756,-8.36541 0.262933,-1.16222 -0.557623,-0.56131 -0.700069,-0.12728 -1.638247,4.9918 -2.017749,6.23695 -4.222241,11.61117 -0.616956,1.50404 -1.575944,0.13319 -1.336493,-0.50915 1.59381,-4.2754 2.491288,-6.95545 4.304526,-11.1586 0.584967,-1.35597 -0.315034,-1.22918 -0.748268,-0.26164 -1.381002,3.08422 -2.677912,5.41738 -4.89275,9.12912 -0.423315,0.70941 -1.741865,0.68458 -1.209207,-0.50915 1.532983,-3.43552 3.948482,-6.94211 5.409611,-10.62829 0.404359,-1.02012 -0.154829,-1.04015 -0.890994,-0.50913 -1.308606,0.94394 -2.335876,2.28682 -3.754907,3.05483 -0.811422,0.43916 -1.425725,0.40085 -1.145564,-0.19092 0.843227,-1.78112 3.62928,-2.80147 5.345968,-5.15505 1.113953,-1.52723 3.07026,-2.34346 4.073119,-3.94583 4.655237,-7.43816 8.209879,-25.01149 8.209879,-25.01149 z m -12.110578,-8.24463 c 0,0 -3.594931,4.3764 -5.580252,6.39028 -1.118574,1.13467 -2.316283,2.19322 -3.555159,3.19515 -2.104378,1.7019 -4.811973,2.71275 -6.570297,4.77022 -0.688838,0.80602 -0.380239,1.52177 0.765035,0.81003 1.4425,-0.89645 2.630899,-2.01602 4.050182,-2.79013 0.622376,-0.33945 0.750614,0.0168 0.343638,0.8396 -1.711694,3.46072 -4.477014,5.89574 -6.148899,9.37587 -0.348304,0.72501 -0.08676,1.25609 0.630028,0.49502 2.491145,-2.64502 3.9972,-5.39389 6.206145,-8.3026 0.492061,-0.64794 1.628362,-0.71751 0.974603,0.45774 -2.218822,3.98875 -4.172963,6.40155 -6.479356,10.83589 -0.885549,1.70259 0.637075,1.61787 1.373224,0.29318 2.219878,-3.99463 4.097129,-6.26574 6.034795,-10.3181 0.436988,-0.9139 1.121883,-0.73927 0.64321,0.34684 -1.595897,3.62109 -2.145255,4.95442 -3.532386,8.30712 -0.438484,1.05983 0.410802,1.57694 1.249138,-0.0109 1.716564,-3.25125 2.343542,-5.34196 3.76153,-8.35533 0.482086,-1.02448 0.817221,-0.64087 0.226334,1.05237 -0.642406,1.84088 -0.719143,2.50373 -1.366827,5.24379 -0.320646,1.35651 0.786944,1.44769 1.116393,0.10318 0.655589,-2.67552 2.015026,-5.65207 2.708779,-8.51856 0.544745,-2.25082 0.718474,-4.57838 1.215055,-6.84031 0.545359,-2.48411 1.935087,-7.38034 1.935087,-7.38034 z M 53.36873,129.70426 c -0.549869,-0.50757 -17.628295,15.17208 -27.366267,18.90182 -3.440394,1.81087 -9.181208,2.14519 -12.028429,3.50034 -0.722903,0.3654 -1.203258,1.4595 0.190928,1.2092 3.352872,-0.72789 4.123681,-0.91826 6.046035,-1.27285 0.940312,-0.17345 1.485824,0.0779 0.475721,0.89033 -2.791739,2.24531 -6.122753,4.6016 -9.067454,6.61949 -0.957022,0.6558 -0.197358,1.99937 0.890995,1.33649 3.305086,-2.01303 4.719254,-3.81745 7.852399,-5.56546 1.909559,-1.06536 0.383623,0.46512 0.03662,0.84179 -1.536188,1.66752 -6.944923,4.94841 -9.352796,7.96943 -0.725254,0.90994 0.02469,2.04899 1.145565,1.14557 3.572237,-2.87921 6.645524,-5.14769 9.852341,-8.06649 0.917267,-0.83489 0.956626,-0.0384 0.287328,0.83893 -2.038104,2.67164 -4.058555,3.55189 -5.939266,6.33657 -0.593793,0.8792 -0.386757,2.19897 1.081922,1.01827 2.594596,-2.08584 4.977158,-5.09708 6.581538,-7.04247 0.603371,-0.73162 1.080485,-0.19746 0.509141,0.63642 -1.124888,1.64178 -2.601125,3.46993 -3.590341,5.19685 -0.909819,1.58831 0.633724,1.18844 1.272849,0.38185 2.217267,-2.79823 3.147613,-4.13953 5.074632,-6.78394 2.142591,-2.94023 4.869639,-7.77678 7.551615,-10.23497 6.261443,-5.73896 18.666379,-17.71429 18.494924,-17.85717 z m 92.17351,17.67977 c -2.60989,-8.73385 -1.16367,-9.74929 -0.64928,-17.46358 5.16404,7.87625 -0.0212,9.86041 0.64928,17.46358 z m -5.68338,-27.43005 c 6.23128,8.28139 0.10793,10.75506 1.91577,18.04906 -5.5219,-8.05711 -0.21816,-9.65906 -1.91577,-18.04906 z m -58.157494,29.01387 c -3.295753,6.00522 5.796083,16.92816 10.620479,3.42016 -3.205872,4.0541 -9.513053,5.70659 -10.620479,-3.42016 z m -9.315418,-4.81522 c 2.82197,-6.49398 4.507321,-14.30228 6.120276,-16.33799 1.151389,-1.45317 5.712454,0.22312 3.567403,3.50111 -2.335624,3.56922 -6.817371,8.17947 -9.687679,12.83688 z m 91.444122,-18.18081 c 1.70347,-1.56497 3.62828,-0.22882 2.97014,1.89008 -0.37514,1.20778 -2.51975,2.22653 -3.51016,1.44006 -0.88066,-0.69931 -0.2881,-2.56934 0.54002,-3.33014 z m -3.96018,-5.85027 c 1.67189,-1.06099 3.30219,0.2978 2.61012,1.98009 -0.43388,1.05468 -1.78902,2.52637 -2.79013,1.98009 -1.15996,-0.63296 -0.93571,-3.25214 0.18001,-3.96018 z m -31.59142,21.15096 c 1.09172,-0.34708 2.73983,1.32721 2.4301,2.43011 -0.27544,0.98077 -2.22569,1.41545 -2.97013,0.72003 -0.77852,-0.72726 -0.47527,-2.82736 0.54003,-3.15014 z m -40.861844,7.02031 c -1.060263,0.007 -1.933683,1.99493 -1.350062,2.88013 0.495692,0.75184 2.234492,0.68082 2.700122,-0.09 0.534221,-0.88437 -0.316882,-2.79649 -1.35006,-2.79013 z m -18.000813,-1.80008 c -0.644722,0.45518 -0.347371,1.99016 0.360016,2.34011 0.673882,0.33337 1.982123,-0.32822 1.980091,-1.08005 -0.0024,-0.88593 -1.616376,-1.77103 -2.340107,-1.26006 z M 55.735197,125.07177 c -0.851072,0.64085 -0.467677,2.8044 0.540024,3.15015 0.883812,0.30324 2.205204,-0.96552 2.070093,-1.89009 -0.139699,-0.95596 -1.838328,-1.8412 -2.610117,-1.26006 z m 6.570296,-5.94026 c -1.064092,0.3795 -1.531398,2.64909 -0.630028,3.33015 0.856388,0.64707 2.754292,-0.3741 2.880129,-1.44007 0.114837,-0.97278 -1.327486,-2.21912 -2.250101,-1.89008 z M 124.31829,16.076864 c 0.45547,-0.258984 1.42664,0.106248 1.44007,0.630029 0.0155,0.603568 -1.1272,1.158755 -1.62008,0.810036 -0.39491,-0.279405 -0.24052,-1.20095 0.18001,-1.440065 z m -2.1601,6.840308 c -0.12455,-0.923615 1.50396,-1.941707 2.3401,-1.530069 0.70189,0.345547 0.79405,1.855336 0.18001,2.340105 -0.69256,0.54675 -2.40219,0.06441 -2.52011,-0.810036 z m -1.44006,6.120277 c -0.0356,-1.18935 1.90212,-2.504678 2.97013,-1.98009 1.16073,0.57013 1.36828,3.18743 0.27001,3.87017 -1.06192,0.66014 -3.20269,-0.64027 -3.24014,-1.89008 z m -7.90732,80.301221 c -1.55667,-3.23709 -3.62019,-6.69139 -6.36425,-10.437371 -0.1186,0.62264 5.94948,3.778721 8.20988,-1.01828 2.96232,-5.81647 -5.40909,-4.94457 -4.93455,-2.1902 0.4078,1.36506 2.31191,0.9209 3.53441,0.72643 -1.39106,3.27088 -6.66641,1.91073 -5.66418,-1.20921 2.78028,-8.655 12.69557,-2.46511 9.86459,3.56398 -1.33174,2.668121 -5.52677,3.313051 -4.6459,10.564651 z m -8.38342,-66.620601 c -16.730219,5.28207 -23.088745,16.1659 -23.581061,30.42137 -0.237026,6.8633 1.839959,13.64914 5.400244,18.90085 0.538716,0.79465 0.559633,2.10007 0,2.88013 -5.594085,7.797481 -20.45139,22.013141 -19.800894,22.501011 0.807392,0.29583 17.898168,-16.03819 23.761072,-18.180821 1.317759,-0.48157 2.178073,-0.0566 2.160097,1.620071 -0.109987,10.25894 -12.638692,23.99574 -12.780576,23.76108 3.11264,-0.26091 4.842105,1.15776 5.580252,3.78017 0.902,-7.65356 7.917637,-20.67475 12.960584,-24.84113 1.271718,-1.05066 1.979932,-0.85511 1.620073,0.90005 -2.796488,13.6393 -10.458378,40.98095 -10.260463,41.04184 0.0223,0.005 9.903017,-27.42223 15.120682,-39.42177 0.92055,-2.11706 1.74648,-0.8101 2.70012,0.54002 7.95897,11.26797 8.0299,19.25636 3.60016,26.10118 -6.99777,10.81295 -10.16065,33.10148 -9.72043,33.12149 0.15089,-0.0423 2.45916,-9.57404 4.35108,-12.94779 1.08006,-1.92601 3.2385,-2.72079 4.43656,0.0836 4.06148,9.50706 6.02451,17.10869 -1.00174,27.10292 -2.76724,3.93615 -3.36515,9.79458 -3.2857,13.84253 0.15654,7.97578 4.68021,24.84112 4.68021,24.84112 0,0 -2.58156,-21.08011 -0.28545,-31.20505 0.68904,-3.03842 2.95248,-3.32034 4.57476,-0.90908 2.66969,3.96807 5.25112,12.31324 5.25112,12.31324 0.18023,0 -2.26586,-13.03406 -4.5002,-19.8009 -0.74545,-2.25762 0.6711,-4.19244 1.19641,-6.51118 1.04211,-4.59989 1.17513,-12.65528 -1.91645,-19.95 -2.66567,-6.28981 -2.52794,-13.59333 0.54003,-19.8009 5.84562,-11.82772 -0.0768,-16.69762 0.85366,-25.57212 0.32018,-3.05364 1.93224,-3.0345 2.38648,-1.24909 2.77359,10.90169 9.57432,32.97395 9.72044,32.94148 0.0783,0.0189 -4.0067,-22.65019 -4.5002,-34.38155 -0.11244,-2.67291 -0.25887,-3.03908 1.98009,-0.72003 6.58767,6.82332 9.53641,20.73596 11.74141,24.97874 -0.38071,-6.15395 1.48426,-8.23082 0.23367,-13.11617 -1.34203,-5.39482 -4.50361,-10.33633 -5.72883,-15.38171 -0.13944,-4.868593 3.43837,-1.061701 4.72525,-0.281 9.13691,5.543 16.3797,16.75985 18.36987,21.62095 0.37665,-4.98864 2.16084,-6.64342 5.40025,-6.12028 -3.76962,-2.56852 -15.55043,-12.36264 -19.26087,-22.681021 -0.75208,-2.09145 -0.0269,-3.29652 0.72003,-4.5002 13.47217,-21.7082 -5.5709,-40.06035 -11.70053,-41.94189 15.09663,17.66817 14.81779,40.10807 -4.86022,47.88215 l 9.72044,-10.26046 -12.96058,5.49025 13.68061,-19.71089 -16.29073,16.02072 9.72044,-32.13144 -11.61053,23.85107 4.14019,-41.94189 -9.36042,43.11194 -7.02032,-29.52133 2.61012,36.54165 -16.830759,-26.37119 13.320599,31.23141 c -5.2847,-3.71273 -10.946971,-7.96623 -15.750709,-11.88054 4.202902,6.9014 8.965819,11.45269 14.310649,18.81085 -20.054903,-7.56296 -26.516097,-38.9391 1.44006,-54.90247 z"
       inkscape:connector-curvature="0"
       sodipodi:nodetypes="cscscccccccccssssccscccccssccscccccccccccccscscccccccsccccccsccssccsccccccccsccscssccccccccccsscsscccsccccccscccssccscsscscccccccsccsccsccsccsscscccccccccccccscccccccscccccccccccccccsccccccsccsccscccccccccsccccssccsccccccsscsccsccsccccssscssccccscccccccccccccccccccccc" />
    <flowRoot
       xml:space="preserve"
       id="flowRoot873"
       style="font-style:normal;font-weight:normal;font-size:40px;line-height:0;font-family:sans-serif;letter-spacing:0px;word-spacing:0px;fill:#000000;fill-opacity:1;stroke:none"
       transform="matrix(0.26458333,0,0,0.26458333,-6.9490077,6.4144687)"><flowRegion
         id="flowRegion875"><rect
           id="rect877"
           width="624.27429"
           height="267.6904"
           x="116.16754"
           y="849.7785" /></flowRegion><flowPara
         id="flowPara879"
         style="font-size:26.66666794px;line-height:1">Безымянный сотворяет мир.</flowPara><flowPara
         style="font-size:26.66666794px;line-height:1"
         id="flowPara895"> </flowPara><flowPara
         style="font-size:26.66666794px;line-height:1"
         id="flowPara889"></flowPara><flowPara
         style="font-size:26.66666794px;line-height:1"
         id="flowPara891"></flowPara><flowPara
         style="font-size:26.66666794px;line-height:1"
         id="flowPara893">Иллюстрация к легенде о сотворении мира из книги &quot;Древние сказания&quot;, библиотека Тхартхаахитра.</flowPara></flowRoot>    <flowRoot
       xml:space="preserve"
       id="flowRoot881"
       style="fill:black;fill-opacity:1;stroke:none;font-family:sans-serif;font-style:normal;font-weight:normal;font-size:40px;line-height:0;letter-spacing:0px;word-spacing:0px"><flowRegion
         id="flowRegion883"><rect
           id="rect885"
           width="359.61432"
           height="183.84776"
           x="56.568542"
           y="853.81909" /></flowRegion><flowPara
         id="flowPara887"></flowPara></flowRoot>  </g>
</svg>
