<?xml version="1.0" encoding="UTF-8" standalone="no"?>
<!-- Created with Inkscape (http://www.inkscape.org/) -->

<svg
   width="420mm"
   height="594mm"
   viewBox="0 0 420 594"
   version="1.1"
   id="svg8"
   inkscape:version="1.1.2 (0a00cf5339, 2022-02-04)"
   sodipodi:docname="pic_Tamjas.svg"
   xmlns:inkscape="http://www.inkscape.org/namespaces/inkscape"
   xmlns:sodipodi="http://sodipodi.sourceforge.net/DTD/sodipodi-0.dtd"
   xmlns="http://www.w3.org/2000/svg"
   xmlns:svg="http://www.w3.org/2000/svg"
   xmlns:rdf="http://www.w3.org/1999/02/22-rdf-syntax-ns#"
   xmlns:cc="http://creativecommons.org/ns#"
   xmlns:dc="http://purl.org/dc/elements/1.1/">
  <defs
     id="defs2" />
  <sodipodi:namedview
     id="base"
     pagecolor="#ffffff"
     bordercolor="#666666"
     borderopacity="1.0"
     inkscape:pageopacity="0.0"
     inkscape:pageshadow="2"
     inkscape:zoom="0.35"
     inkscape:cx="530"
     inkscape:cy="1188.5714"
     inkscape:document-units="mm"
     inkscape:current-layer="layer1"
     showgrid="false"
     inkscape:window-width="1920"
     inkscape:window-height="1007"
     inkscape:window-x="0"
     inkscape:window-y="0"
     inkscape:window-maximized="1"
     showguides="true"
     units="mm"
     inkscape:pagecheckerboard="0" />
  <metadata
     id="metadata5">
    <rdf:RDF>
      <cc:Work
         rdf:about="">
        <dc:format>image/svg+xml</dc:format>
        <dc:type
           rdf:resource="http://purl.org/dc/dcmitype/StillImage" />
      </cc:Work>
    </rdf:RDF>
  </metadata>
  <g
     inkscape:label="Layer 1"
     inkscape:groupmode="layer"
     id="layer1"
     transform="translate(0,297)">
    <path
       id="path850"
       style="fill:#000000;fill-rule:evenodd;stroke:#000000;stroke-width:0.26458332px;stroke-linecap:butt;stroke-linejoin:miter;stroke-opacity:1"
       d="m 198.39716,-206.3299 c 0.76164,-1.17707 1.82589,-4.0552 2.52422,-2.13422 0.49608,1.36461 1.49584,3.3255 2.38585,4.71439 1.26018,1.96655 1.71137,2.53931 -1.58544,2.25223 -2.94731,-0.25665 -4.43877,-0.51163 -7.36809,-0.11405 1.37992,-1.35629 2.93076,-2.99875 4.04346,-4.71835 z m -4.44814,-16.71809 c -1.74908,0.77737 -6.7598,1.95968 -7.46503,4.34672 -0.66126,2.23822 0.30502,3.55879 2.55135,2.45684 2.43536,-1.19468 4.03438,-4.16908 4.91368,-6.80356 z m -34.15959,33.59262 c 10.34474,-9.28866 20.49762,-18.79317 32.78944,-25.89136 1.54958,-2.9199 2.07554,-6.0957 2.64584,-9.26042 -3.45402,1.11102 -6.8844,2.07735 -11.81177,2.92932 -3.50005,13.0322 -16.47243,24.10402 -23.62351,32.22246 z m 46.68006,-32.78942 c -0.0133,3.53884 0.62221,6.82148 4.51377,9.03801 8.30705,4.73147 13.95436,7.90124 28.84263,23.84592 -5.63425,-6.97036 -14.31802,-16.88508 -21.63914,-28.25373 -2.51539,-3.36185 -6.4045,-5.95933 -9.4494,-6.2366 -2.72494,-0.22541 3.05284,3.57262 3.96875,4.6302 1.88138,2.31216 0.39548,3.68551 -2.26786,2.64584 -2.14897,-0.83887 -3.96875,-5.66964 -3.96875,-5.66964 z m -13.79611,-14.69383 c -3.72707,0.0404 -6.66624,-2.38865 -7.74853,-6.37835 3.77989,0.27152 7.47156,1.72818 7.74853,6.37835 z m 1.03942,0.89769 c 0,0 -0.19211,-5.70783 -1.51191,-8.12648 -1.078,-1.97553 -2.8515,-3.72899 -4.91368,-4.63021 -9.19623,-4.01895 -22.14568,-15.45989 -27.21431,-19.18229 9.75278,9.28232 17.83525,18.96956 21.73365,29.67113 4.18731,1.73949 8.22112,2.78817 11.90625,2.26785 z m 13.35608,-0.75595 c 2.41781,-3.29531 3.06771,-7.47458 4.53572,-11.24479 11.52746,-4.92245 19.56766,-13.62276 29.19866,-20.5997 -7.68007,10.48505 -17.63864,19.26122 -22.77307,31.6555 -3.45599,0.26834 -7.31854,0.26565 -10.29985,0.85045 11.91679,-4.53591 10.89704,-14.13683 -0.66146,-0.66146 z m -37.75826,4.91703 c 3.37023,-0.14995 2.71928,6.77382 -0.0668,6.94901 -2.6123,0.16427 -3.69797,-6.7815 0.0668,-6.94901 z m 27.59557,-25.92514 c -0.0667,3.04222 7.67471,3.31453 7.684,-0.13364 0.008,-3.04951 -7.60807,-3.32957 -7.684,0.13364 z m 35.48003,25.32379 c -3.862,-0.18099 -2.92735,6.75138 -0.4009,6.81537 3.9372,0.0997 3.66695,-6.66231 0.4009,-6.81537 z m -39.66561,62.01915 c -0.63643,-7.59295 10.51632,-7.88451 8.97693,-0.14174 -1.38548,6.96866 -4.94372,14.50405 -7.03981,24.52121 0,0 -1.25963,-16.29664 -1.93712,-24.37947 z m -11.24924,-1.14851 c 1.10562,-21.67979 35.27311,-26.36232 33.94324,0.53454 -2.31521,-10.46231 -19.73567,-23.99585 -33.94324,-0.53454 z m 11.1075,-83.61266 c 5.85002,4.21835 11.30446,3.98649 16.44196,0.18899 -3.87821,7.3456 -5.44013,15.07455 -5.85863,22.67857 8.1334,0.12636 17.10238,0.56771 26.26935,-4.34672 -5.02761,5.44329 -3.34723,11.21057 1.74477,16.8314 -14.27918,-8.6021 -19.32305,-7.34583 -28.15922,-7.60677 0,0 0.30894,14.23299 3.3579,19.50155 2.29968,3.97383 3.23664,5.34823 5.95313,7.37054 9.50681,7.07743 12.37361,11.15515 12.5677,21.35568 -1.02687,-15.83944 -40.78767,-30.95798 -52.16071,2.26785 -0.39089,-6.46396 1.35526,-14.20741 14.64659,-25.51341 3.40991,-2.90058 7.36581,-6.2955 9.16591,-10.39434 1.97028,-4.48636 1.51191,-14.55209 1.51191,-14.55209 -12.23102,0.21144 -17.18886,3.33215 -24.37947,5.85863 4.12224,-4.65039 5.79532,-9.60693 0,-15.49702 8.38285,2.92079 16.50922,4.7313 24.37947,4.7247 -0.12035,-6.911 -0.14116,-13.48873 -5.48066,-22.86756 z"
       inkscape:connector-curvature="0"
       sodipodi:nodetypes="ccscccccscccccccsccccccccccscccccccccccccscsscssscscccccccccccccccccccc" />
    <path
       id="path823"
       style="fill:#000000;fill-rule:evenodd;stroke:#000000;stroke-width:0.26458332px;stroke-linecap:butt;stroke-linejoin:miter;stroke-opacity:1"
       d="m 43.901605,-227.29541 c 3.67542,-4.14938 6.557,-7.30842 11.23809,-10.70354 -1.45601,5.51216 -1.08831,10.29407 -1.03273,15.80623 -1.99348,-4.93999 -5.69986,-5.94035 -10.20536,-5.10269 z m -0.46101,7.11947 c -2.29412,4.12037 2.6362,5.53462 4.06324,3.02382 1.672,-2.94179 -2.66817,-5.52944 -4.06324,-3.02382 z m 19.97658,-39.17254 c -15.93102,7.72172 2.86886,22.77025 9.08716,9.62171 -5.07219,3.67497 -15.5307,-1.20205 -9.08716,-9.62171 z m -25.14132,40.3227 c 0.34624,-8.38945 14.50047,-9.34996 14.32395,0.86191 -0.15186,8.785 -14.77306,10.02002 -14.32395,-0.86191 z m 22.46861,-1.70226 20.57976,-0.26726 c 0,0 1.67043,-3.78655 5.21174,-3.74179 6.38069,0.0806 8.11782,10.64091 0.66817,11.55943 -2.60905,0.32169 -5.21173,-2.40543 -5.21173,-2.40543 l -22.25021,0.4009 c 0.58341,0.0833 -4.05539,12.92035 -15.70208,11.02487 -21.49096,-3.49762 -12.41752,-28.80408 1.87087,-28.33058 0,0 -9.6854,7.16639 -10.4073,13.10965 -1.38928,11.43766 14.25651,15.77758 19.41621,4.82035 1.89487,-4.02399 1.54827,-12.85187 1.54827,-12.85187 1.84173,1.92989 4.10546,3.55835 4.2763,6.68173 z m 14.56618,-41.1595 c -15.53463,-12.85386 -32.50745,11.51653 -18.04069,20.84702 3.95579,2.55133 10.78523,1.61972 10.69077,1.33634 l 6.43069,10.14004 c -1.59341,1.61826 -2.59178,3.92045 -2.68889,6.69795 l 8.35216,-0.53453 c 1.82102,-1.77657 4.05874,-3.76253 6.38679,-3.67161 11.675,0.45593 9.88162,17.05469 -0.17276,16.23328 -1.83417,-0.0952 -5.07813,-2.13818 -5.07813,-2.13818 l -9.02036,0.20045 c 0.59226,2.80096 8.6338,10.54831 14.76666,9.95579 20.205875,-1.95215 19.314105,-36.34883 -5.0552,-30.47821 l -6.8383,-10.81491 c 3.4203,-1.81068 6.64777,-12.49398 0.26726,-17.77343 z"
       inkscape:connector-curvature="0"
       sodipodi:nodetypes="ccccssscccsssccssccscscccssccccscccsccs" />
    <path
       id="path992"
       style="opacity:1;vector-effect:none;fill:#000000;fill-opacity:1;fill-rule:evenodd;stroke:#000000;stroke-width:0.26499999;stroke-linecap:round;stroke-linejoin:bevel;stroke-miterlimit:4;stroke-dasharray:none;stroke-dashoffset:0;stroke-opacity:1"
       d="m 82.470973,-80.60499 c -2e-6,3.04443 -2.468002,5.51243 -5.512434,5.51243 -3.044432,0 -5.512432,-2.468 -5.512434,-5.51243 -3e-6,-3.04444 2.467998,-5.51244 5.512434,-5.51244 3.044436,0 5.512437,2.468 5.512434,5.51244 z M 59.80694,-103.0004 c -2.513665,0.0971 -5.006462,0.49852 -7.424286,1.19554 2.232801,9.11596 -7.246117,12.91161 -12.803197,7.38285 -4.379824,4.19017 -7.454228,9.5665 -8.850159,15.47661 9.286811,2.5505 7.486845,12.56563 0.03372,14.65602 0.581312,2.34904 1.431385,4.62267 2.53326,6.77553 0.90061,-0.56636 2.721129,-0.13184 3.120264,0.82547 0.340048,0.81559 -0.192957,2.09955 -0.972519,2.7904 1.23068,1.80905 2.646671,3.48373 4.224808,4.99665 6.598152,-5.07128 15.027831,-1.24993 12.68539,7.31622 2.840622,0.83901 5.785584,1.26849 8.746571,1.27557 3.01073,-0.008 6.004577,-0.45182 8.888749,-1.31903 -1.606375,-9.70424 8.560407,-11.36002 12.630956,-7.32436 1.602911,-1.54158 3.037692,-3.25022 4.280056,-5.09698 -0.783641,-0.85804 -1.0643,-2.63849 -0.362359,-3.41722 0.505386,-0.56068 1.620683,-0.56144 2.445513,-0.19418 1.079192,-2.1397 1.910488,-4.39656 2.477606,-6.72638 -8.153772,-2.94551 -6.726194,-12.36186 0.03047,-14.46225 -1.37265,-5.86768 -4.399457,-11.2143 -8.718541,-15.40064 -5.804143,5.8556 -14.007246,2.34628 -12.580988,-7.45231 -2.186943,-0.66171 -4.439544,-1.08073 -6.717443,-1.24957 -0.344499,1.039 -1.286904,2.04914 -2.174152,1.91213 -0.752601,-0.11622 -1.311216,-1.0165 -1.493713,-1.96007 z m 1.398091,7.65862 c 4.206483,-1e-4 7.522041,1.42558 7.52194,5.63206 -1.31e-4,4.20632 -3.410115,7.61612 -7.616434,7.61602 -4.20616,-1.3e-4 -7.615897,-3.40986 -7.616028,-7.61602 -1.01e-4,-4.20632 3.504198,-5.63193 7.710522,-5.63206 z m -15.977015,9.1134 c 4.206323,-1e-4 7.805296,1.42533 7.805422,5.63165 9.5e-5,4.20648 -3.409955,7.61653 -7.616434,7.61643 -4.206321,-1.3e-4 -7.616123,-3.41011 -7.616028,-7.61643 1.26e-4,-4.20616 3.220876,-5.63152 7.42704,-5.63165 z m 31.710924,-1.98438 c 4.206164,1.3e-4 7.615902,3.40987 7.616028,7.61603 9.5e-5,4.20632 -3.409707,7.6163 -7.616028,7.61643 -4.206479,1e-4 -7.616529,-3.40995 -7.616434,-7.61643 1.26e-4,-4.20632 3.410111,-7.61613 7.616434,-7.61603 z m -0.09449,19.93996 c 4.206164,1.3e-4 7.710396,1.51999 7.710522,5.72615 9.5e-5,4.20632 -3.409707,7.6163 -7.616028,7.61643 -4.206479,10e-5 -7.616529,-3.40995 -7.616434,-7.61643 1.26e-4,-4.20632 3.315617,-5.72625 7.52194,-5.72615 z m -31.433786,0.27669 c 4.206479,-1e-4 7.711023,1.33108 7.710928,5.53756 1.01e-4,4.20648 -3.409951,7.61654 -7.616434,7.61644 -4.206324,-1.3e-4 -7.616127,-3.41012 -7.616026,-7.61644 -9.5e-5,-4.20632 3.315212,-5.53743 7.521532,-5.53756 z m 15.794371,8.77929 c 4.206479,-1e-4 7.522035,1.70906 7.52194,5.91554 -1.26e-4,4.20632 -3.410111,7.61613 -7.616434,7.61603 -4.206164,-1.3e-4 -7.615902,-3.40987 -7.616028,-7.61603 -9.5e-5,-4.20632 3.504201,-5.91541 7.710522,-5.91554 z"
       inkscape:connector-curvature="0"
       sodipodi:nodetypes="sssssccccccsccccccccccccccccccccccccccccccccccccccccccccccc" />
    <path
       id="path840"
       style="fill:#000000;fill-rule:evenodd;stroke:#000000;stroke-width:0.26499999;stroke-linecap:butt;stroke-linejoin:miter;stroke-miterlimit:4;stroke-dasharray:none;stroke-opacity:1"
       d="m 194.9482,14.976328 c 1.29367,-2.48916 0.11447,-4.75798 0.14174,-7.1343001 -0.62287,3.5133501 -1.97575,5.8100001 -4.11049,6.8035801 z m -5.33891,-32.78943 4.98526,0.0324 0.083,-3.05149 c 0.63918,0.18929 3.85057,-1.84075 3.71966,-4.87119 -0.17151,-3.9701 -2.84681,-4.72008 -5.29167,-3.96875 -1.79763,0.55243 -1.92074,4.05296 -1.88988,4.06324 -0.004,-0.0258 1.6629,-2.32554 2.96846,-2.26311 0.98628,0.0472 1.69493,0.63751 1.28041,1.82307 -0.5165,1.47725 -3.06029,1.61077 -4.1267,2.75613 -1.43294,1.53902 -1.72857,5.47967 -1.72857,5.47967 z m -0.54145,8.0865999 c -0.79612,0.0885 -1.5546,7.92423 1.20271,11.49259 1.57172,2.03403 1.20271,7.61718 1.20271,7.61718 -1.60729,3.5696501 -5.08854,1.1426501 -8.41899,-0.80181 -1.97135,5.0241001 -5.39685,3.3728101 -9.35443,-0.13363 -5.57559,5.5618901 -12.79142,1.41118 -19.91158,1.6036201 14.58782,8.70033 28.93139,6.67194 43.16403,8.15172 2.37154,-9.4549801 -4.63485,-19.11640007 -2.93997,-27.9296601 z m 8.41899,8.28536 c 0.0568,0.36934 17.72666,0.56388003 25.12333,0.66817003 2.82438,0.0398 4.80838,3.09770997 6.68174,5.21175997 2.85617,3.22311 4.77434,11.2253201 4.67722,11.2253201 1.90344,-6.3734301 -0.32001,-14.0707801 1.73725,-21.6488301 0,0 -4.89312,1.92456 -7.34991,1.46998 -2.95295,-0.54638 -5.75151,-2.45762 -7.61718,-4.81085 -8.61967,-10.8722499 -16.87933,-21.4016799 -23.65336,-32.8741599 -1.03101,-1.74612 -2.67983,-1.11322 -3.60814,0.26727 -5.91733,8.79974 -12.02048,18.48635 -19.37704,26.72696 -1.51555,1.69769 -0.21972,3.08347 1.87089,3.0736 8.7409,-0.0413 17.74905,-0.13062 26.72695,-0.13363 2.10587,-8e-4 4.87405,-0.21573 2.93997,-2.93997 -1.65712,-2.33413 -2.88056,-3.71648 -4.00904,-5.47903 -0.83895,-1.31033 -1.87089,-4.27631 -1.87089,-4.27631 0.0694,3.08272 -1.32855,4.43131 -3.20724,5.21175 0,0 1.80201,1.60859 2.80633,2.27179 1.81041,1.19551 1.69561,2.23593 -0.93544,2.2718 -5.27904,0.072 -10.94207,-0.48374 -16.70434,-0.13364 -1.56712,0.0952 -2.08756,-1.16279 -1.20272,-2.40542 4.14955,-5.82744 9.49283,-12.10732 13.76438,-17.90706 0.88257,-1.19832 1.48937,-1.60987 2.40543,0 5.83869,10.26088 14.75747,19.4527 22.18337,28.8651099 1.89851,2.40638 1.31448,1.98968 -1.33635,2.27179 -6.52768,0.69469 -20.71339,-0.13364 -20.71339,-0.13364 z M 184.4608,-49.887102 c 0.66093,2.78973 2.59076,3.93531 5.14158,4.07922 0,0 -2.32969,0.93005 -3.0736,1.87088 -8.81059,11.14285 -16.39024,23.37892 -24.9897,34.7450399 -1.20673,1.59496 -0.68599,3.10068 2.13815,3.34087 7.15269,0.60835 22.18337,1.00226 22.18337,1.00226 -0.0427,1.09135 -0.11538,2.18271 0.53454,3.27405 0.0661,0.16522 -19.10909,-0.88318 -29.39964,-0.4009 -3.11346,0.14592 -5.8712,2.55127003 -8.01809,4.81085 -2.6766,2.81709 -5.47903,10.2898801 -5.47903,10.2898801 -0.0405,-6.1138601 2.76379,-12.88423007 -0.26727,-18.3079601 0,0 4.98421,0.62211 7.48355,0.53453 3.20936,-0.11245 5.80048,-3.15471 7.88445,-6.2808299 8.32486,-12.48798 17.32175,-22.94092 24.99642,-34.75036 0.56666,-0.87196 0.86527,-4.20753 0.86527,-4.20753 z m 5.67612,-4.13932 c 1.14158,-0.19654 2.63487,1.69303 2.13815,2.73951 -0.43942,0.92578 -2.4654,0.8916 -3.0736,0.0668 -0.58521,-0.79361 -0.0363,-2.63904 0.93545,-2.80633 z m 2.23632,-36.00376 c 0,0 -0.16536,-3.87425 0.11812,-3.9215 0.28348,-0.0473 4.58296,0 4.58296,0 -1.5806,0.77793 -3.17966,0.83548 -4.70108,3.9215 z m -5.30992,34.06605 c 1.51981,-4.18026 3.55045,-8.78311 2.13815,-14.56618 -6.58696,1.0359 -12.1545,3.30884 -16.97161,7.48354 4.71473,-5.95258 9.91263,-9.9725 15.63526,-11.89349 -1.63402,-7.52086 2.24146,-14.28265 1.20272,-22.04974 15.17891,1.36488 28.3726,0.0341 39.55589,6.81537 -6.94901,0.10068 -13.89802,-2.49117 -20.84703,2.40543 -4.01058,-5.41693 -6.55358,-3.28631 -8.81989,0.26727 -5.31406,-4.97638 -7.64144,5.96571 -4.81085,11.49259 5.56156,-0.7473 12.24623,5.31907 16.03617,10.15624 -5.19238,-2.97736 -17.18954,-10.00268 -15.283,-0.95166 2.91815,0.12047 7.50994,3.1899 10.87305,6.29705 -4.92231,-1.58288 -8.48116,-2.51801 -11.68829,-1.10822 l -1.67518,5.78544 c 2.11341,1.18321 3.6453,3.91929 1.73725,6.28083 -1.48808,1.84176 -4.8101,2.28632 -6.94901,0.80181 -2.57986,-1.79056 -0.23335,-6.94201 -0.13363,-7.21628 z"
       inkscape:connector-curvature="0" />
    <path
       id="path864"
       style="fill:#000000;fill-rule:evenodd;stroke:#000000;stroke-width:0.26458332px;stroke-linecap:butt;stroke-linejoin:miter;stroke-opacity:1"
       d="m 302.80741,-199.31952 c -1.19913,1.14141 -0.49312,4.13527 0.99219,4.86644 2.49123,1.22635 3.96927,-2.58591 3.07105,-3.82701 -0.9919,-1.37055 -3.05061,-2.00331 -4.06324,-1.03943 z m 83.01302,0.1532 c -1.43479,-0.49305 -3.84143,1.57176 -3.40179,3.02381 0.39629,1.30886 3.11753,1.55478 4.06325,0.56697 0.84166,-0.87912 0.48954,-3.19526 -0.66146,-3.59078 z m -55.82305,22.06575 15.7805,-25.98586 13.13467,18.70982 -3.21279,1.79539 -6.67191,-9.3035 5.34899,17.05201 -4.25223,1.6064 -4.4689,-18.45321 -4.22456,23.65038 -4.34672,0.66146 5.23353,-24.29561 -8.82431,15.60216 z m 15.49472,-37.1199 16.83798,-23.38608 -3.74178,-0.53454 -8.35217,12.49486 9.95579,-26.39287 -4.40995,-0.13364 -8.21854,26.99423 -0.73499,-39.68953 -4.40995,0.53454 2.40543,41.09269 -4.22096,-12.20326 c -0.62457,0.31993 -1.46609,0.74833 -2.59441,1.32013 l 3.4745,7.94316 -5.05519,-6.80865 c -0.80833,0.49319 -1.61667,1.08799 -2.425,1.95727 z m -21.78247,38.88772 c 0.26727,-0.66817 21.25988,-32.12017 21.25988,-32.12017 0.43862,-0.87724 -18.48199,-5.56128 -29.94614,-0.62036 -1.23935,0.53415 -1.15699,-1.09778 -0.80181,-2.13815 1.87346,-5.48756 5.01988,-10.70063 9.08716,-14.83346 1.01219,-1.0285 3.64232,-1.28887 5.07813,-0.13363 6.53681,5.25946 15.27144,13.2776 15.26777,13.22984 l -13.53052,-18.57523 c 3.39157,-3.75711 7.49402,-5.85549 11.62622,-7.88446 -6.35498,0.37894 -8.12901,0.68453 -13.76438,4.27632 -3.26417,-4.56934 -11.72867,-8.98957 -17.77342,-4.81086 -6.23402,4.30955 -5.33429,12.91402 -1.06908,16.83798 0,0 -2.5962,-9.03044 2.93996,-12.96257 3.88363,-2.75839 7.51446,-0.62129 9.88898,1.73726 1.36405,1.35487 0.43587,3.17471 -1.06908,4.40994 -8.10332,6.65101 -12.01574,16.59652 -13.49711,25.3906 -0.40712,2.41683 0.79793,2.15346 2.13815,1.46999 9.55384,-4.87213 21.49077,-4.29826 28.0633,-3.34087 -1.66149,3.32386 -4.04296,5.32775 -7.21627,5.87993 2.17627,9.48162 -4.24012,8.14285 -8.41899,9.6217 2.24305,8.57417 -6.69392,8.20434 -11.22532,11.35895 4.32085,1.05675 8.64171,0.49641 12.96257,3.20724 z m 43.29766,-52.91936 c 4.81269,4.92462 13.63354,13.54332 15.50163,24.85606 0.48638,2.94537 -1.11288,3.95881 -2.80633,2.67269 -6.0785,-4.61643 -18.01764,-7.18737 -24.58879,-7.75081 10.72443,-3.59725 15.6149,-1.39156 21.17775,0.17278 -0.91618,-6.60494 -4.92718,-13.37431 -9.28426,-19.95072 z m -20.84514,19.45482 c 0.042,0.042 13.15566,-20.69873 20.04333,-30.14561 3.28063,-4.49957 11.75041,-3.9611 15.29644,1.5712 2.77965,4.33665 -2.10449,11.601 -2.33386,11.39138 0.27455,0 2.15052,-5.77711 -1.33635,-9.2208 -2.47323,-2.4426 -7.59797,-2.24067 -9.7257,0.88959 -5.47818,8.05936 -16.06751,24.65782 -16.37894,24.4848 1.55267,4.43801 3.72465,6.95908 7.79668,7.36612 0.21795,3.74637 -1.94566,8.58698 7.08264,8.28536 0.1152,7.36751 4.29642,11.13369 13.22984,10.69078 -4.15701,1.45803 -9.67332,1.78332 -12.42803,4.40994 z"
       inkscape:connector-curvature="0"
       sodipodi:nodetypes="ccsccsscccccccccccccccccccccccccccccccccsccccccscccssscccccccscccccscssccccccc" />
    <flowRoot
       xml:space="preserve"
       id="flowRoot829"
       style="font-style:normal;font-weight:normal;font-size:40px;line-height:26.6667px;font-family:sans-serif;text-align:center;letter-spacing:0px;word-spacing:0px;text-anchor:middle;fill:#000000;fill-opacity:1;stroke:none"
       transform="matrix(0.26458333,0,0,0.26458333,-26.726953,-294.86184)"><flowRegion
         id="flowRegion831"
         style="line-height:26.6667px;text-align:center;text-anchor:middle"><rect
           id="rect833"
           width="494.97473"
           height="199.00005"
           x="112.12693"
           y="409.59213"
           style="line-height:26.66666794px;text-align:center;text-anchor:middle" /></flowRegion><flowPara
         id="flowPara835"
         style="font-size:26.6667px;line-height:26.6667px;text-align:center;text-anchor:middle">Красный Картель. </flowPara><flowPara
         id="flowPara837"
         style="font-size:26.6667px;line-height:26.6667px;text-align:center;text-anchor:middle">Три союзных планеты - Нимб с луной, Океан, Чёрная Скала с вулканом</flowPara></flowRoot>
    <flowRoot
       xml:space="preserve"
       id="flowRoot829-3"
       style="font-style:normal;font-weight:normal;font-size:40px;line-height:26.6667px;font-family:sans-serif;text-align:center;letter-spacing:0px;word-spacing:0px;text-anchor:middle;fill:#000000;fill-opacity:1;stroke:none"
       transform="matrix(0.26458333,0,0,0.26458333,-32.284753,-137.73836)"><flowRegion
         id="flowRegion831-6"
         style="line-height:26.6667px;text-align:center;text-anchor:middle"><rect
           id="rect833-7"
           width="494.97473"
           height="199.00005"
           x="112.12693"
           y="409.59213"
           style="line-height:26.66666794px;text-align:center;text-anchor:middle" /></flowRegion><flowPara
         id="flowPara835-5"
         style="font-size:26.6667px;line-height:26.6667px;text-align:center;text-anchor:middle">Союз Воронёной Стали. </flowPara><flowPara
         id="flowPara837-3"
         style="font-size:26.6667px;line-height:26.6667px;text-align:center;text-anchor:middle">Барабан револьвера </flowPara><flowPara
         style="font-size:26.6667px;line-height:26.6667px;text-align:center;text-anchor:middle"
         id="flowPara866">с одной пулей. </flowPara><flowPara
         style="font-size:26.6667px;line-height:26.6667px;text-align:center;text-anchor:middle"
         id="flowPara843">&quot;Решаем проблему одним патроном&quot;.</flowPara></flowRoot>
    <flowRoot
       xml:space="preserve"
       id="flowRoot829-3-3"
       style="font-style:normal;font-weight:normal;font-size:40px;line-height:26.6667px;font-family:sans-serif;text-align:center;letter-spacing:0px;word-spacing:0px;text-anchor:middle;fill:#000000;fill-opacity:1;stroke:none"
       transform="matrix(0.26458333,0,0,0.26458333,-20.136396,63.34773)"><flowRegion
         id="flowRegion831-6-6"
         style="line-height:26.6667px;text-align:center;text-anchor:middle"><rect
           id="rect833-7-7"
           width="494.97473"
           height="199.00005"
           x="112.12693"
           y="409.59213"
           style="line-height:26.66666794px;text-align:center;text-anchor:middle" /></flowRegion><flowPara
         id="flowPara835-5-5"
         style="font-size:26.6667px;line-height:26.6667px;text-align:center;text-anchor:middle">Клан Оньё с Тысячи Башен. </flowPara><flowPara
         style="font-size:26.6667px;line-height:26.6667px;text-align:center;text-anchor:middle"
         id="flowPara866-5">Беременная коза. </flowPara><flowPara
         style="font-size:26.6667px;line-height:26.6667px;text-align:center;text-anchor:middle"
         id="flowPara843-6">&quot;Будь осторожен&quot;.</flowPara></flowRoot>
    <flowRoot
       xml:space="preserve"
       id="flowRoot829-3-3-3"
       style="font-style:normal;font-weight:normal;font-size:40px;line-height:26.6667px;font-family:sans-serif;text-align:center;letter-spacing:0px;word-spacing:0px;text-anchor:middle;fill:#000000;fill-opacity:1;stroke:none"
       transform="matrix(0.26458333,0,0,0.26458333,125.29126,81.367725)"><flowRegion
         id="flowRegion831-6-6-6"
         style="line-height:26.6667px;text-align:center;text-anchor:middle"><rect
           id="rect833-7-7-7"
           width="494.97473"
           height="199.00005"
           x="112.12693"
           y="409.59213"
           style="line-height:26.66666794px;text-align:center;text-anchor:middle" /></flowRegion><flowPara
         style="font-size:26.6667px;line-height:26.6667px;text-align:center;text-anchor:middle"
         id="flowPara843-6-5">Манипула Смеха</flowPara></flowRoot>
    <flowRoot
       xml:space="preserve"
       id="flowRoot829-5"
       style="font-style:normal;font-weight:normal;font-size:40px;line-height:26.6667px;font-family:sans-serif;text-align:center;letter-spacing:0px;word-spacing:0px;text-anchor:middle;fill:#000000;fill-opacity:1;stroke:none"
       transform="matrix(0.26458333,0,0,0.26458333,103.98966,-242.265)"><flowRegion
         id="flowRegion831-62"
         style="line-height:26.6667px;text-align:center;text-anchor:middle"><rect
           id="rect833-9"
           width="494.97473"
           height="199.00005"
           x="112.12693"
           y="409.59213"
           style="line-height:26.66666794px;text-align:center;text-anchor:middle" /></flowRegion><flowPara
         id="flowPara835-1"
         style="font-size:26.6667px;line-height:26.6667px;text-align:center;text-anchor:middle">Орден Преисподней. </flowPara><flowPara
         id="flowPara837-2"
         style="font-size:26.6667px;line-height:26.6667px;text-align:center;text-anchor:middle">Вулкан и бабочка</flowPara></flowRoot>
    <flowRoot
       xml:space="preserve"
       id="flowRoot829-7"
       style="font-style:normal;font-weight:normal;font-size:40px;line-height:26.6667px;font-family:sans-serif;text-align:center;letter-spacing:0px;word-spacing:0px;text-anchor:middle;fill:#000000;fill-opacity:1;stroke:none"
       transform="matrix(0.26458333,0,0,0.26458333,246.86465,-264.94357)"><flowRegion
         id="flowRegion831-0"
         style="line-height:26.6667px;text-align:center;text-anchor:middle"><rect
           id="rect833-93"
           width="494.97473"
           height="199.00005"
           x="112.12693"
           y="409.59213"
           style="line-height:26.66666794px;text-align:center;text-anchor:middle" /></flowRegion><flowPara
         id="flowPara837-0"
         style="font-size:26.6667px;line-height:26.6667px;text-align:center;text-anchor:middle">Орден Тысячи Башен.</flowPara><flowPara
         style="font-size:26.6667px;line-height:26.6667px;text-align:center;text-anchor:middle"
         id="flowPara898">Хук, глайдер и две друзы, образующие числа 5 и 4 - девять кланов, образовавших фракцию</flowPara></flowRoot>
    <flowRoot
       xml:space="preserve"
       id="flowRoot829-6"
       style="font-style:normal;font-weight:normal;font-size:40px;line-height:26.6667px;font-family:sans-serif;text-align:center;letter-spacing:0px;word-spacing:0px;text-anchor:middle;fill:#000000;fill-opacity:1;stroke:none"
       transform="matrix(0.26458333,0,0,0.26458333,93.028347,-78.979288)"><flowRegion
         id="flowRegion831-2"
         style="line-height:26.6667px;text-align:center;text-anchor:middle"><rect
           id="rect833-6"
           width="494.97473"
           height="199.00005"
           x="112.12693"
           y="409.59213"
           style="line-height:26.66666794px;text-align:center;text-anchor:middle" /></flowRegion><flowPara
         id="flowPara837-7"
         style="font-size:26.6667px;line-height:26.6667px;text-align:center;text-anchor:middle">Клан Дорге.</flowPara><flowPara
         style="font-size:26.6667px;line-height:26.6667px;text-align:center;text-anchor:middle"
         id="flowPara916">Хук и глайдер, складывающиеся в стилизованную монограмму ЖД</flowPara></flowRoot>
    <path
       id="path865"
       style="fill:#000000;fill-rule:evenodd;stroke:#000000;stroke-width:0.2046033px;stroke-linecap:butt;stroke-linejoin:miter;stroke-opacity:1"
       d="m 334.88549,-29.724365 c -1.41768,0.345671 -2.2533,3.349289 -1.09608,4.238194 1.13152,0.869176 3.57266,-0.1223 3.65362,-1.388377 0.0815,-1.273785 -1.31749,-3.152179 -2.55754,-2.849817 z m 16.0029,-27.694525 c -2.32075,-0.741254 -5.15002,2.627573 -3.65364,4.822792 0.97516,1.430588 4.38036,1.364717 5.2487,0.171219 1.09482,-1.504792 0.17763,-4.427808 -1.59506,-4.994011 z m -32.46565,-1.757415 c -2.77631,-0.02741 -3.77669,3.45901 -1.58619,4.97261 1.25544,0.86749 3.79559,-0.419315 4.16515,-1.899889 0.34922,-1.399117 -1.13698,-3.058481 -2.57896,-3.072721 z m 13.17448,7.237859 c 0.2066,1.785552 -0.62479,3.18185 -1.97297,4.384358 1.69163,2.025799 3.07261,4.14718 2.26525,6.941898 1.04779,-0.803376 2.18719,-1.515161 4.38436,-1.169163 0.0831,-3.104353 1.69542,-4.169838 3.5075,-4.968937 -1.69919,-1.577552 -2.53533,-3.514713 -1.89989,-6.065027 -1.5029,0.776529 -2.72073,1.7863 -6.28425,0.876871 z M 302.3879,-98.196154 c 6.86891,8.76991 13.56153,17.71613 21.08142,25.835066 4.28648,-2.791565 6.0688,-8.212507 7.64717,-13.847597 0.50091,6.202564 -2.58382,14.12959 -4.34029,16.172752 -2.41797,2.812623 3.65169,12.628177 7.26374,13.165813 3.00185,0.44681 8.77452,-6.180993 7.41057,-9.910595 -2.04147,-5.582208 -5.28056,-20.420372 -5.16701,-20.461374 0,0 5.24317,9.916843 7.85386,14.881001 0.51771,0.984396 1.42343,1.673544 2.48016,0.62004 5.51342,-5.496607 13.84761,-18.807926 13.84761,-18.807926 0,0 -4.11509,14.375669 -8.47391,20.25469 -0.8165,1.101271 -0.77816,2.91405 1.65344,2.686847 5.576,-0.521011 14.05429,-7.64718 14.05429,-7.64718 -2.20269,5.311046 -7.2861,9.304396 -15.89756,11.584498 -3.49578,0.925597 -8.53259,5.555541 -7.68639,9.871825 0.98289,5.013499 7.27945,8.745526 11.47754,4.485128 3.3841,-3.434308 7.50417,-7.949868 12.31307,-11.060452 l -8.26722,13.640917 c 7.41456,1.235365 12.40994,2.03088 17.77455,2.893528 -6.39873,0.574154 -13.08647,0.694135 -18.18791,3.306888 3.02981,5.849408 7.20028,10.130404 11.7808,13.847589 -5.4539,-2.88206 -13.3397,-6.499415 -18.60125,-14.054271 -1.39773,-2.006956 -8.15365,-3.848994 -9.79886,0.09202 -1.53906,3.686745 5.28501,13.943753 7.55475,14.231618 4.35903,0.552843 8.21287,0.914999 13.40485,4.690972 0,0 -7.36224,-1.084353 -10.95405,-0.41336 -1.26542,0.236396 -1.74445,1.524352 -0.20669,2.89352 6.55334,5.834815 10.35085,16.3463016 10.74738,20.6680633 -3.29576,-6.5929297 -7.36587,-12.2642133 -13.84759,-17.9812123 -1.1762,-1.037434 -2.889,-0.265201 -4.96032,1.65344 -5.04131,4.669725 -8.88727,18.6012632 -8.88727,18.6012632 -1.84496,-7.2275796 1.42665,-16.0878272 6.84338,-23.9957312 2.61313,-3.814928 -2.17846,-12.335385 -6.68684,-13.363314 -2.98282,-0.680095 -7.42287,4.002167 -5.83291,6.615935 1.80554,2.968155 4.08855,7.28506 3.60957,13.795307 -1.81274,-4.79598 -3.82315,-9.347786 -8.88727,-10.127351 -6.00881,6.897969 -11.73442,14.9287256 -17.56786,22.52817364 4.01393,-8.22013004 8.80522,-15.40377064 11.7808,-25.00835464 -5.21056,-5.118262 -14.16786,-4.547144 -22.11482,-5.167011 0.12483,-0.873847 14.06405,-3.914158 21.70969,-2.018803 6.38524,1.5829 8.38922,-3.559044 7.46773,-7.784146 -0.86553,-3.96855 -5.80367,-5.744077 -7.62424,-3.762736 -4.39034,4.778034 -8.75595,7.461366 -14.9394,8.812034 4.00809,-2.947133 7.79604,-4.486797 9.09395,-9.093939 -8.26453,-2.189055 -16.40063,-4.458374 -27.69519,-4.753651 7.60314,-1.304715 15.80454,-1.263345 24.18161,-0.826722 -1.93303,-4.491899 -7.83794,-9.36798 -11.78079,-14.054279 8.07551,5.331859 12.47761,10.461147 14.46764,11.780792 3.02171,2.003772 9.7898,2.952161 12.8142,0.465032 3.34007,-2.746714 -2.85946,-11.385708 -4.54698,-11.625782 -5.12983,-0.729796 -21.85468,-7.834003 -22.73486,-12.400832 6.81859,3.73797 12.18158,7.95196 20.66806,5.993735 -5.84518,-8.76701 -10.32288,-18.510778 -15.29435,-27.901868 z"
       inkscape:connector-curvature="0" />
    <flowRoot
       xml:space="preserve"
       id="flowRoot829-6-3"
       style="font-style:normal;font-weight:normal;font-size:40px;line-height:26.6667px;font-family:sans-serif;text-align:center;letter-spacing:0px;word-spacing:0px;text-anchor:middle;fill:#000000;fill-opacity:1;stroke:none"
       transform="matrix(0.26458333,0,0,0.26458333,240.99789,-86.609381)"><flowRegion
         id="flowRegion831-2-6"
         style="line-height:26.6667px;text-align:center;text-anchor:middle"><rect
           id="rect833-6-7"
           width="494.97473"
           height="199.00005"
           x="112.12693"
           y="409.59213"
           style="line-height:26.66666794px;text-align:center;text-anchor:middle" /></flowRegion><flowPara
         style="font-size:26.6667px;line-height:26.6667px;text-align:center;text-anchor:middle"
         id="flowPara916-3">Клан Мороза.</flowPara><flowPara
         style="font-size:26.6667px;line-height:26.6667px;text-align:center;text-anchor:middle"
         id="flowPara897">Снежинка</flowPara></flowRoot>
    <path
       id="path1000"
       style="fill:#000000;stroke:#000000;stroke-width:0.14024px;stroke-linecap:butt;stroke-linejoin:miter;stroke-opacity:1"
       d="m 40.943352,78.905831 c 0.573172,20.409734 -1.341843,40.296489 -4.782959,59.862579 8.4133,-5.37104 20.639615,-6.44486 16.40482,-26.07099 0,0 14.956633,-29.403878 28.105567,-27.99819 9.32123,0.996486 12.163637,15.86758 4.089151,19.70129 -7.191782,3.41459 -7.936538,-2.02491 -12.664347,-6.856434 2.024315,7.523554 3.749781,13.484774 9.599608,12.779664 16.977498,-2.0464 16.963722,-28.332828 0.0282,-31.192768 -15.867899,-2.679651 -35.467355,32.753758 -35.467355,32.753758 3.19661,12.46454 -0.476713,12.36417 -3.68715,14.6088 2.25519,-16.68934 -0.365655,-30.487662 -1.625543,-47.587709 z m 72.081008,14.090306 c -0.48436,0.0057 -0.9283,0.125339 -1.25778,0.388128 -1.29348,1.031668 -0.78691,4.291271 0.74886,4.906761 1.54572,0.619476 4.18922,-1.402257 3.95576,-3.051048 -0.17725,-1.251826 -1.99375,-2.260967 -3.44684,-2.243841 z m -4.61505,8.552463 c 0,0 -8.05693,7.64918 -11.313171,12.11215 -5.741614,7.86938 -4.950924,22.61231 -14.249993,25.51413 -1.983194,0.61887 -4.847725,-0.80827 -5.594268,-2.74701 -0.526861,-1.36821 0.249422,-3.58729 1.628098,-4.08613 1.647523,-0.59612 4.619436,2.50734 4.619436,2.50734 -0.442516,-4.00297 -4.457959,-7.0448 -6.967908,-4.79912 -2.405621,2.15233 -3.693082,5.3848 -2.525421,8.39414 1.404218,3.619 6.812001,6.1662 10.515822,5.004 10.031475,-3.1477 10.426812,-18.26021 15.632405,-27.39478 2.75443,-4.83336 8.255,-14.50472 8.255,-14.50472 z m 4.28965,19.82134 c -8.89254,16.55299 -7.33329,26.49421 -19.314805,40.03137 2.581526,-0.65144 7.422115,-1.56946 10.067075,-0.38751 6.61547,-15.44865 5.55724,-23.09218 9.24773,-39.64386 z m -52.288785,-7.44487 c -1.831909,18.64946 -11.395866,33.28739 -20.848133,47.98324 2.759499,-0.36904 5.557764,-1.34712 8.211174,-0.0521 4.04141,-7.99551 7.683454,-15.90654 10.043608,-24.17171 0.712641,9.25598 -1.064006,16.75192 -1.997325,24.23307 2.20914,-0.79264 6.461587,-0.4848 9.033058,0.2004 -4.780255,-16.98339 -3.332554,-32.60811 -4.442382,-48.19292 z m 22.169461,2.37203 c -2.930103,0.0152 -6.012211,0.60738 -9.106579,1.87983 -9.815581,4.03628 -11.890821,23.50593 -4.869512,31.46447 7.221466,8.18542 23.97932,5.74591 30.025103,-4.79473 4.136012,-7.21101 3.927052,-14.01517 1.056183,-19.17155 0.822579,2.78202 -1.617627,14.83105 -6.965129,18.87202 -6.106431,4.61447 -14.732325,6.1962 -20.32689,0.97292 -4.138162,-5.10359 -4.860494,-12.25326 -0.05787,-18.02897 9.352805,-8.93764 12.827031,-2.27131 13.512399,1.48679 2.698086,-3.93474 2.600429,-7.67211 4.037381,-11.44464 -2.252677,-0.81393 -4.719704,-1.24956 -7.305088,-1.23614 z m 49.734054,5.32009 c -5.15944,0.75954 -9.65823,2.77658 -16.6023,0.13969 l -2.20167,10.8248 c 1.06563,9.68437 0.20642,19.36451 -0.91457,28.8421 1.97269,-0.30643 3.72509,-0.92799 6.5324,-0.0397 -0.60441,-11.75619 -4.38789,-24.14583 -1.55743,-36.16445 6.64095,0.0928 10.75646,0.0284 14.74357,-3.60242 z"
       sodipodi:nodetypes="sccsscsscccscsssccssscssssccccccscccccsscscssscccccccccccscc" />
    <path
       id="path4687"
       style="fill:#000000;fill-rule:evenodd;stroke:none;stroke-width:0.132711px;stroke-linecap:butt;stroke-linejoin:miter;stroke-opacity:1"
       d="m 230.80044,96.278248 c -1.65356,-0.32178 -3.66519,2.534859 -2.98669,4.076752 0.55828,1.2687 3.22346,1.4997 4.13344,0.45413 1.02276,-1.175187 0.38247,-4.233302 -1.14675,-4.530882 z m -19.39322,0.177383 c -1.71349,0.199709 -3.11346,3.481574 -1.97961,4.781709 1.03382,1.18544 4.0328,0.28495 4.56486,-1.19524 0.4985,-1.386837 -1.12146,-3.757074 -2.58525,-3.586469 z m -31.92444,-3.885572 c 0.5084,-2.750865 2.63474,-2.713544 2.43722,-0.219993 -0.33298,4.203571 -0.14615,8.044094 1.15967,11.623774 0.81124,2.22387 -0.84201,2.75807 -2.02277,0.99525 -2.31853,-3.46143 -2.33127,-8.302227 -1.57412,-12.399031 z m 73.48671,72.257401 c -1.52467,-3.01791 -4.494,-9.1659 -4.46231,-12.84504 0.0692,-8.0374 2.53575,-15.8744 3.88007,-23.79888 1.04502,-6.16026 -0.49634,-12.05817 -3.59127,-17.51192 -2.27905,-4.01606 -5.36128,-8.06332 -5.58936,-12.675348 -0.10952,-2.214727 1.75342,-2.849251 3.30296,-1.952226 2.04493,1.183795 2.57455,3.962874 3.8704,5.938704 1.6354,2.49356 2.44625,1.75594 2.63261,-0.41705 0.36205,-4.221353 1.5236,-8.875528 2.39351,-12.602495 0.56828,-2.434658 7.25683,-7.716763 6.10278,-2.301382 -1.22705,5.757948 -2.76037,11.269572 -3.21717,17.361237 -0.116,1.54692 1.56883,2.52596 2.36144,0.97745 3.13688,-6.128409 2.55283,-12.560514 5.1724,-17.304695 1.8353,-3.323817 3.53642,2.088192 3.49853,4.964475 -0.12311,9.34535 -5.64286,17.82396 -8.76263,26.63405 -1.11477,3.14807 -2.58413,6.17149 -3.55584,9.36661 -2.28531,7.51439 -4.54703,14.46676 -5.94608,22.19537 -0.54553,3.01361 1.20431,10.10876 1.90996,13.97114 z m -8.35654,-42.18382 c -2.39476,-2.49871 -4.36416,-4.47568 -7.27931,-4.68831 -2.14498,-0.15645 -4.21353,0.90275 -6.35193,1.13217 -1.87695,0.20137 -2.68908,-1.7779 -1.81804,-3.10828 1.6076,-2.45536 6.02476,-1.49438 8.78966,-0.51027 2.9964,1.06651 5.81189,4.24351 6.65962,7.17469 z m -34.84436,-4.32843 c 1.21907,0.55422 2.31518,-2.12976 1.31136,-3.00388 -2.41852,-2.106 -7.27163,-2.08877 -9.62037,0.0948 -1.2454,1.15779 -0.63131,3.54927 1.1821,2.79931 1.58803,-0.65674 4.39832,-1.1307 7.12691,0.10979 z m -15.77353,43.80201 c 2.33117,-5.84408 3.80885,-13.53862 2.5554,-19.73045 -1.47677,-7.29501 -5.63746,-14.20302 -5.48632,-21.64447 0.0472,-2.32405 0.98995,-4.58457 1.98649,-6.68466 1.64185,-3.46002 5.00919,-5.95658 6.46137,-9.50039 1.23868,-3.02281 0.28521,-5.325336 -3.12731,-3.70969 -1.55046,0.73405 -2.95723,1.84526 -4.61992,2.26739 -1.47031,0.37329 -2.95634,-0.18978 -3.4942,-1.71629 -1.56324,-4.436735 1.10739,-10.313666 -1.82226,-13.994099 -1.5344,-1.927628 -4.46856,-2.439854 -6.92868,-2.573875 -1.46582,-0.07983 -3.18583,0.08683 -4.27049,1.07604 -2.1229,1.936113 -3.21252,5.277511 -2.8648,8.129595 1.59506,13.082949 9.75955,24.961219 15.70245,36.937179 2.59787,5.23516 4.66847,10.68397 5.7256,16.71085 0.59957,3.41833 0.28746,9.88705 0.18267,14.43287 z m 14.87518,7.42523 c 3.07664,-5.03159 5.40922,-11.93638 5.20668,-17.99621 -0.15431,-4.6169 -4.38303,-8.97978 -3.27807,-13.46516 0.38393,-1.55855 1.82014,-2.76471 3.182,-3.61431 5.52786,-3.44853 13.17264,-3.37124 18.35413,1.02837 1.61132,1.36817 2.45303,3.64901 2.67087,5.75158 0.57037,5.50475 -3.80433,10.63801 -3.75681,16.17203 0.0443,5.15507 3.41713,12.86506 4.83387,15.63039 -1.77002,-1.84631 -6.9457,-9.54769 -7.7865,-14.58018 -0.80082,-4.79325 2.89623,-10.1327 0.87629,-14.5527 -1.14784,-2.51172 -3.82195,-5.2015 -6.57855,-5.0358 -2.45089,0.14733 -4.73486,2.58129 -4.79866,5.18803 -0.0713,2.9135 0.10303,6.31703 -0.45014,9.17842 -1.12794,5.83444 -4.89641,12.39485 -8.47511,16.29554 z m 40.60977,8.99562 c -2.74803,-3.71657 -11.7624,-17.15566 -11.01418,-24.8402 0.8992,-9.23523 6.87258,-17.17921 4.55754,-26.16467 -0.49309,-1.91384 -1.81081,-3.90299 -3.62186,-4.69419 -2.4771,-1.08217 -8.07679,0.72784 -8.07679,0.72784 -8.04716,-4.75603 -6.43448,-11.24085 -5.75962,-17.55783 0,0 16.10459,3.95516 20.53354,10.17978 2.63005,3.69638 1.92679,8.96971 1.71419,13.50129 -0.39357,8.38889 -4.59426,16.23762 -5.49943,24.58682 -0.69216,6.38434 4.83526,19.35867 7.16661,24.26116 z m -52.61737,-2.82704 c 8.86358,-14.39651 6.71912,-17.56847 6.26338,-26.07453 -0.58892,-10.99204 -10.1148,-21.81328 -6.81063,-32.31348 2.32951,-7.40288 11.74762,-12.14123 19.87193,-12.11742 0,0 0.69314,8.94578 -1.2617,12.73865 -1.71567,3.32886 -6.32667,4.31332 -8.46316,7.38907 -1.05034,1.51208 -1.76132,3.33572 -1.95175,5.16694 -0.71314,6.85741 3.86687,13.57941 3.17115,20.43861 -0.88904,8.7652 0.52053,12.57188 -10.81922,24.77216 z"
       sodipodi:nodetypes="ssssssssssssscssssssssssssssssccsssscssssscsssssssssssssccsssssscsssssccsssccsssccsscssssc" />
  </g>
</svg>
