<?xml version="1.0" encoding="UTF-8" standalone="no"?>
<!-- Created with Inkscape (http://www.inkscape.org/) -->

<svg
   xmlns:dc="http://purl.org/dc/elements/1.1/"
   xmlns:cc="http://creativecommons.org/ns#"
   xmlns:rdf="http://www.w3.org/1999/02/22-rdf-syntax-ns#"
   xmlns:svg="http://www.w3.org/2000/svg"
   xmlns="http://www.w3.org/2000/svg"
   xmlns:sodipodi="http://sodipodi.sourceforge.net/DTD/sodipodi-0.dtd"
   xmlns:inkscape="http://www.inkscape.org/namespaces/inkscape"
   width="210mm"
   height="297mm"
   viewBox="0 0 210 297"
   version="1.1"
   id="svg8"
   inkscape:version="0.92.5 (2060ec1f9f, 2020-04-08)"
   sodipodi:docname="pic_FiveSciences.svg">
  <defs
     id="defs2" />
  <sodipodi:namedview
     id="base"
     pagecolor="#ffffff"
     bordercolor="#666666"
     borderopacity="1.0"
     inkscape:pageopacity="0.0"
     inkscape:pageshadow="2"
     inkscape:zoom="0.49497475"
     inkscape:cx="-54.356014"
     inkscape:cy="894.72791"
     inkscape:document-units="mm"
     inkscape:current-layer="layer1"
     showgrid="false"
     inkscape:window-width="1920"
     inkscape:window-height="1015"
     inkscape:window-x="0"
     inkscape:window-y="0"
     inkscape:window-maximized="1" />
  <metadata
     id="metadata5">
    <rdf:RDF>
      <cc:Work
         rdf:about="">
        <dc:format>image/svg+xml</dc:format>
        <dc:type
           rdf:resource="http://purl.org/dc/dcmitype/StillImage" />
        <dc:title></dc:title>
      </cc:Work>
    </rdf:RDF>
  </metadata>
  <g
     inkscape:label="Layer 1"
     inkscape:groupmode="layer"
     id="layer1">
    <path
       id="path832"
       style="fill:#000000;fill-rule:evenodd;stroke:#000000;stroke-width:0.10207272px;stroke-linecap:butt;stroke-linejoin:miter;stroke-opacity:1"
       d="m 22.556532,34.61589 c -1.18073,-0.94175 -0.28584,-2.3785 1.02073,-2.406 1.11985,-0.0236 1.9743,1.45424 1.13009,2.44245 -0.46574,0.54519 -1.59025,0.41066 -2.15082,-0.0365 z m 0.21873,-4.33809 c -3.15697,0.13496 -5.06,3.37772 -3.86418,5.614 1.28185,2.39717 4.94055,3.01811 6.78054,1.16654 2.46466,-2.48015 0.59925,-6.93084 -2.91636,-6.78054 z m 0.14582,-6.63473 c -1.7925,4.25e-4 -5.10364,1.458181 -5.10364,1.458181 -0.27642,1.845506 1.19615,3.205178 2.04146,4.739089 -1.26376,-1.364422 -2.52752,-2.700982 -3.79128,-2.98927 -0.73899,0.56563 -1.04361,1.318355 -1.45818,2.15082 0.47903,1.33155 1.74521,1.87595 2.87991,2.55182 -1.11597,-0.18344 -2.44607,-0.90217 -3.31736,-0.47391 -0.29965,0.85712 -0.4047,1.79208 -0.21873,2.84345 0.97793,0.8702 2.17703,0.6345 3.35382,0.51036 -1.1322,0.43441 -2.45762,0.36643 -3.28091,1.604 0.12898,1.2002 0.34397,2.36815 1.23945,3.28091 1.48246,-0.17746 2.60495,-0.93086 3.75482,-1.64045 -1.01317,0.96075 -2.02192,1.92713 -2.29663,3.82773 0.66833,0.83325 1.33666,1.2896 2.005,1.64045 1.26547,-1.01901 2.0843,-2.48467 2.73409,-4.11936 -0.56091,1.63981 -1.03639,3.30809 -0.58328,5.28591 0,0 2.62488,0.85721 4.08291,0.47391 4.73985,-1.24607 9.41804,-5.2519 9.84273,-10.13437 0.53821,-6.187553 -5.62054,-11.010798 -11.88418,-11.00927 z m -0.29164,43.96418 c -0.93012,-4.64505 -5.21385,-9.00854 -3.86418,-12.54036 0.92237,-2.41367 5.82469,-1.09629 7.72836,-2.84346 1.23902,-1.13715 1.68144,-2.53877 0.80201,-4.44745 -0.40272,-0.87404 -2.04146,-2.04146 -2.04146,-2.04146 4.12198,-0.85773 10.61116,-5.05009 10.79055,-11.66545 0.16938,-6.24688 -6.40507,-11.511936 -12.97782,-11.665454 -6.2038,-0.144901 -13.4509696,4.775775 -12.97782,11.519634 0.42445,6.04969 6.86577,11.3465 11.228,12.68618 1.28513,0.39468 3.0614,1.7907 2.62472,3.06218 -0.79793,2.32335 -5.74712,1.44286 -6.99927,4.95782 -0.67587,1.89729 0.0793,3.76061 1.02073,5.54109 0.77298,1.46183 2.36338,3.1985 4.66618,7.43673 z"
       inkscape:connector-curvature="0" />
    <path
       id="path839"
       style="fill:#000000;fill-rule:evenodd;stroke:#000000;stroke-width:0.10207272px;stroke-linecap:butt;stroke-linejoin:miter;stroke-opacity:1"
       d="m 60.208562,38.25344 -0.0515,-1.03109 6.3412,-0.10311 0.5671,-7.52696 0.10311,8.35183 z m 9.38292,-11.238888 0.61866,13.404178 -12.57931,0.20621 0.0516,-0.97953 h 11.80598 z m -18.67331,16.824338 -0.72909,-22.456002 22.89345,-0.729091 0.58328,23.185093 -1.74983,-21.289456 -2.04145,2.187272 -15.01927,0.437454 0.72909,15.01927 -2.62473,2.62473 19.39382,0.58327 -3.35382,0.72909 0.29164,8.31164 -2.91636,-3.79127 -0.29164,-4.66618 h -3.93709 v 22.60181 l -2.62473,-4.37454 V 43.83889 l -4.37454,0.14582 0.29163,11.95709 -2.77054,-3.64546 -0.29164,-8.31163 z"
       inkscape:connector-curvature="0" />
    <path
       id="path852"
       style="fill:#000000;fill-rule:evenodd;stroke:#000000;stroke-width:0.10207272px;stroke-linecap:butt;stroke-linejoin:miter;stroke-opacity:1"
       d="m 177.32686,59.91548 c -0.68802,-0.0667 -1.49751,1.08434 -1.18575,1.7013 0.29462,0.58303 1.59519,0.59407 1.95907,0.0515 0.35574,-0.53036 -0.13767,-1.69126 -0.77332,-1.75285 z m -0.1031,-5.25856 c -0.78054,-0.0422 -1.65214,1.26694 -1.28887,1.95907 0.35948,0.6849 1.90935,0.70709 2.31996,0.0515 0.39982,-0.63832 -0.279,-1.96995 -1.03109,-2.01062 z m -0.30933,-5.82566 c -1.01648,0.0263 -2.05845,1.75067 -1.54664,2.62928 0.54502,0.93561 2.74239,0.90596 3.24794,-0.0515 0.48067,-0.91041 -0.67213,-2.60431 -1.7013,-2.57773 z M 164.54135,30.9934 c 3.4482,3.70647 7.71041,6.39543 11.65131,9.48603 4.03217,-3.20834 8.07856,-6.39807 11.65132,-10.20779 -0.11828,1.54967 -0.3354,3.11911 0.20622,4.5368 -4.45243,0.97173 -7.19304,4.22588 -10.51712,6.70208 2.1047,1.97714 3.8973,4.57849 6.49587,5.56789 -0.11436,0.89361 -0.31015,1.78722 0.10311,2.68083 l -7.83629,-7.01141 -6.9083,6.49587 c 0.4903,-1.08417 0.2158,-2.04087 -0.10311,-2.99017 2.71768,-1.04703 3.97113,-2.82618 5.36167,-4.53679 -3.17488,-2.14277 -5.73465,-5.36199 -9.89847,-5.77411 0.29866,-1.57626 0.18183,-3.23562 -0.20621,-4.94923 z m 11.96064,1.44353 c 1.33385,-3.56711 2.72402,-7.049745 4.33058,-10.207798 -2.44025,0.815344 -4.88049,1.73923 -7.32074,2.165293 0.99672,2.777687 1.99344,5.395585 2.99016,8.042505 z m -0.30933,2.88705 c -2.67847,-5.0432 -5.74296,-9.976103 -9.38292,-14.744592 5.81265,0.497866 11.36661,-0.03903 16.90988,-0.618651 -3.14012,5.01589 -5.13908,10.221973 -7.52696,15.363243 z"
       inkscape:connector-curvature="0" />
    <path
       id="path872"
       style="fill:#000000;fill-opacity:1;stroke:none;stroke-width:0.10223346;stroke-linecap:butt;stroke-linejoin:miter;stroke-miterlimit:4;stroke-dasharray:none;stroke-opacity:1"
       d="m 147.37689,20.47152 c -1.80905,-0.592464 -3.85452,2.324199 -2.4789,4.082916 1.06629,1.363243 3.2185,1.351889 4.11936,-0.03646 1.21788,-1.876906 0.28581,-3.415605 -1.64046,-4.046459 z m -3.10982,35.65393 c -1.82717,-0.0574 -3.64857,-0.12442 -5.75982,0.29163 1.40063,2.16297 2.31089,4.32594 3.13509,6.48891 0.74326,-2.26018 1.41505,-4.52036 2.62473,-6.78054 z m 0.14582,-3.35382 c -2.1336,-0.26835 -4.26106,-0.56743 -6.48891,-0.36455 l 0.0729,1.78628 c 2.16297,-0.66033 4.25303,-1.11717 6.416,-1.42173 z m 1.82272,-3.93709 c -3.38334,-0.23572 -6.65454,-0.62843 -10.4989,-0.21873 l 0.0729,1.89564 c 3.70794,-0.98022 6.9786,-1.30465 10.42599,-1.67691 z m -13.7069,-4.08291 c 6.2616,-0.54695 11.90934,-0.2345 17.71691,-0.14582 -5.97855,0.39028 -11.73837,1.12515 -17.71691,1.96855 z m 0.007,-6.92802 -2.83809,-4.08165 4.08791,3.03806 4.26392,-2.62562 -3.0745,3.86918 2.29752,3.8161 -3.614,-2.68708 -3.54842,2.83809 z m 11.73048,-4.31289 -0.0302,7.65509 7.21763,-0.41244 c -0.42548,-2.32665 -0.2074,-4.86782 -0.0729,-7.38113 -2.27525,0.33492 -4.64484,0.38682 -7.11452,0.13848 z m 2.75375,-6.78017 c -1.80105,0 -3.98432,-1.808147 -4.02125,-3.608818 -0.0384,-1.871096 2.14976,-3.918142 4.02125,-3.918142 1.87149,0 4.05963,2.047046 4.02125,3.918142 -0.0369,1.800671 -2.2202,3.608818 -4.02125,3.608818 z m -17.42543,0.309328 c 1.07278,-2.673517 2.35346,-5.139138 3.81504,-7.423851 1.04504,2.866121 2.49675,5.122252 3.91814,7.423851 -2.82172,-0.121997 -5.29393,-0.06924 -7.73318,0 z"
       inkscape:connector-curvature="0"
       sodipodi:nodetypes="sssscccccccccccccccccccccccccccccccscscscccc" />
    <path
       id="path926-5"
       style="fill:#000000;fill-opacity:1;fill-rule:evenodd;stroke:#000000;stroke-width:0.10207272px;stroke-linecap:butt;stroke-linejoin:miter;stroke-opacity:1"
       d="m 110.56847,35.4433 c -1.47403,0.11028 -2.66821,2.25071 -1.82273,3.46318 0.84585,1.213 3.39727,1.16361 4.01,-0.18228 0.58943,-1.2947 -0.76868,-3.38704 -2.18727,-3.2809 z m -15.310908,0.94781 c -1.47403,0.11028 -2.66821,2.25072 -1.82273,3.46319 0.84586,1.21299 3.39728,1.1636 4.01001,-0.18228 0.58942,-1.2947 -0.76869,-3.38704 -2.18728,-3.28091 z M 110.35288,20.037048 c -1.47403,0.110281 -2.66821,2.250714 -1.82273,3.46318 0.84585,1.213002 3.39727,1.16361 4.01,-0.182272 0.58943,-1.2947 -0.76868,-3.387041 -2.18727,-3.280908 z m -8.20092,41.651332 0.18044,0.95376 2.16529,-0.5671 z m -0.59288,-1.88174 0.30933,1.05687 2.86128,-0.64443 z m -0.59287,-1.98485 0.25777,1.10843 4.38213,-0.72177 z m -0.95376,-2.16529 0.10311,1.13421 6.72786,-0.51555 z m 0.56627,-8.77995 c -0.45391,0.01 -0.891978,0.78958 -0.670208,1.18575 0.235178,0.42014 1.202638,0.46845 1.443528,0.0516 0.24333,-0.42112 -0.28708,-1.24805 -0.77332,-1.23731 z m -1.417748,-2.34573 c -0.45391,0.01 -0.89198,0.78958 -0.67021,1.18575 0.23519,0.42014 1.20264,0.46845 1.44353,0.0516 0.243328,-0.42112 -0.28707,-1.24805 -0.77332,-1.23731 z m -1.41692,-2.30426 c -0.45391,0.01 -0.89198,0.78958 -0.67021,1.18575 0.23519,0.42013 1.20264,0.46845 1.44353,0.0515 0.24333,-0.42111 -0.28707,-1.24804 -0.77332,-1.2373 z M 110.71742,18.797593 c -2.47668,-0.310369 -4.38194,2.944879 -3.35381,5.176547 0.88279,1.916206 4.43919,2.392371 5.97854,0.364545 1.34375,-1.770151 0.0422,-5.206881 -2.62473,-5.541092 z m -15.362448,0.420608 c -0.08,0.0027 -0.15995,0.0083 -0.24004,0.01694 -2.53896,0.276049 -4.16004,2.830933 -3.13514,4.884738 0.45478,0.911348 1.62404,1.457135 2.87936,1.551426 l -0.0542,9.585455 0.0702,0.009 c -2.12686,0.10146 -3.59073,2.8676 -2.74959,4.67561 0.98514,2.11754 4.80263,2.57086 6.12436,0.51036 0.49097,-0.76537 0.58813,-1.65488 0.36364,-2.47984 l 0.001,10e-4 L 108.82182,25.833614 98.374522,36.2231 97.673762,35.51796 106.7074,24.193075 95.971622,35.40293 l 0.01,0.009 c -0.0202,-0.006 -0.041,-0.0106 -0.0614,-0.0159 l 0.0518,0.007 0.16288,-9.793795 c 0.47319,-0.08429 0.92748,-0.238848 1.32954,-0.468102 l 3.841278,3.896707 0.84968,-0.828145 -3.842478,-3.769714 c 0.0279,-0.03349 0.0569,-0.06596 0.0833,-0.100875 1.807518,-2.385038 -0.56124,-5.200274 -3.04085,-5.120582 z m 7.870758,10.041399 -0.78787,0.92683 0.70553,0.71571 0.84589,-0.89354 z m 1.8385,1.80382 -0.8395,0.9358 3.86839,3.92422 c -0.57315,0.74635 -0.90123,1.63893 -0.72946,2.41386 0.19026,0.85828 0.77821,1.54747 1.52013,1.9972 l -5.15946,8.85201 0.0891,0.0377 c -0.17095,-0.0186 -0.34827,-0.0269 -0.53269,-0.0235 -2.59279,0.047 -3.656498,3.55998 -3.645508,5.24957 l 7.801188,0.0363 c 0.0322,-1.82055 -0.6543,-3.9541 -2.29783,-4.85242 l 5.40486,-8.73878 c 0.89776,0.092 1.7833,-0.14645 2.36123,-0.80821 1.69677,-1.94287 0.90475,-5.687 -2.04145,-5.75993 -0.59997,-0.0149 -1.23821,0.24172 -1.80561,0.65391 z"
       inkscape:connector-curvature="0" />
    <flowRoot
       xml:space="preserve"
       id="flowRoot958"
       style="font-style:normal;font-weight:normal;font-size:40px;line-height:0;font-family:sans-serif;letter-spacing:0px;word-spacing:0px;fill:#000000;fill-opacity:1;stroke:none"
       transform="matrix(0.26458333,0,0,0.26458333,-12.469956,24.726365)"><flowRegion
         id="flowRegion960"><rect
           id="rect962"
           width="534.37067"
           height="124.24876"
           x="215.16249"
           y="286.11337" /></flowRegion><flowPara
         id="flowPara964">5 фундаментальных наук</flowPara></flowRoot>    <flowRoot
       xml:space="preserve"
       id="flowRoot966"
       style="font-style:normal;font-weight:normal;font-size:40px;line-height:0;font-family:sans-serif;letter-spacing:0px;word-spacing:0px;fill:#000000;fill-opacity:1;stroke:none"
       transform="matrix(0.21166666,0,0,0.21166666,-10.632277,13.758172)"><flowRegion
         id="flowRegion968"><rect
           id="rect970"
           width="327.28943"
           height="79.802048"
           x="112.12693"
           y="280.05246" /></flowRegion><flowPara
         id="flowPara972"
         style="font-size:26.66666794px;line-height:1.20000005">Биология</flowPara></flowRoot>    <flowRoot
       xml:space="preserve"
       id="flowRoot966-3"
       style="font-style:normal;font-weight:normal;font-size:40px;line-height:0;font-family:sans-serif;letter-spacing:0px;word-spacing:0px;fill:#000000;fill-opacity:1;stroke:none"
       transform="matrix(0.21166666,0,0,0.21166666,25.774695,13.758172)"><flowRegion
         id="flowRegion968-5"><rect
           id="rect970-6"
           width="327.28943"
           height="79.802048"
           x="112.12693"
           y="280.05246" /></flowRegion><flowPara
         id="flowPara972-2"
         style="font-size:26.66666794px;line-height:1.20000005">Технология</flowPara></flowRoot>    <flowRoot
       xml:space="preserve"
       id="flowRoot966-9"
       style="font-style:normal;font-weight:normal;font-size:40px;line-height:0;font-family:sans-serif;letter-spacing:0px;word-spacing:0px;fill:#000000;fill-opacity:1;stroke:none"
       transform="matrix(0.21166666,0,0,0.21166666,61.527489,13.758172)"><flowRegion
         id="flowRegion968-1"><rect
           id="rect970-2"
           width="327.28943"
           height="79.802048"
           x="112.12693"
           y="280.05246" /></flowRegion><flowPara
         id="flowPara972-7"
         style="font-size:26.66666794px;line-height:1.20000005">Диктиология</flowPara></flowRoot>    <flowRoot
       xml:space="preserve"
       id="flowRoot966-0"
       style="font-style:normal;font-weight:normal;font-size:40px;line-height:0;font-family:sans-serif;letter-spacing:0px;word-spacing:0px;fill:#000000;fill-opacity:1;stroke:none"
       transform="matrix(0.21166666,0,0,0.21166666,100.35782,13.758172)"><flowRegion
         id="flowRegion968-9"><rect
           id="rect970-3"
           width="327.28943"
           height="79.802048"
           x="112.12693"
           y="280.05246" /></flowRegion><flowPara
         id="flowPara972-6"
         style="font-size:26.66666794px;line-height:1.20000005">Информатика</flowPara></flowRoot>    <flowRoot
       xml:space="preserve"
       id="flowRoot966-06"
       style="font-style:normal;font-weight:normal;font-size:40px;line-height:0;font-family:sans-serif;letter-spacing:0px;word-spacing:0px;fill:#000000;fill-opacity:1;stroke:none"
       transform="matrix(0.21166666,0,0,0.21166666,141.01616,13.758172)"><flowRegion
         id="flowRegion968-2"><rect
           id="rect970-61"
           width="327.28943"
           height="79.802048"
           x="112.12693"
           y="280.05246" /></flowRegion><flowPara
         id="flowPara972-8"
         style="font-size:26.66666794px;line-height:1.20000005">Интерфектика</flowPara></flowRoot>  </g>
</svg>
