<?xml version="1.0" encoding="UTF-8" standalone="no"?>
<!-- Created with Inkscape (http://www.inkscape.org/) -->

<svg
   xmlns:dc="http://purl.org/dc/elements/1.1/"
   xmlns:cc="http://creativecommons.org/ns#"
   xmlns:rdf="http://www.w3.org/1999/02/22-rdf-syntax-ns#"
   xmlns:svg="http://www.w3.org/2000/svg"
   xmlns="http://www.w3.org/2000/svg"
   xmlns:sodipodi="http://sodipodi.sourceforge.net/DTD/sodipodi-0.dtd"
   xmlns:inkscape="http://www.inkscape.org/namespaces/inkscape"
   width="210mm"
   height="297mm"
   viewBox="0 0 210 297"
   version="1.1"
   id="svg8"
   inkscape:version="0.92.5 (2060ec1f9f, 2020-04-08)"
   sodipodi:docname="Grasser.svg">
  <defs
     id="defs2" />
  <sodipodi:namedview
     id="base"
     pagecolor="#ffffff"
     bordercolor="#666666"
     borderopacity="1.0"
     inkscape:pageopacity="0.0"
     inkscape:pageshadow="2"
     inkscape:zoom="0.98994949"
     inkscape:cx="101.15056"
     inkscape:cy="594.76775"
     inkscape:document-units="mm"
     inkscape:current-layer="layer1"
     showgrid="false"
     inkscape:window-width="1920"
     inkscape:window-height="1015"
     inkscape:window-x="0"
     inkscape:window-y="0"
     inkscape:window-maximized="1" />
  <metadata
     id="metadata5">
    <rdf:RDF>
      <cc:Work
         rdf:about="">
        <dc:format>image/svg+xml</dc:format>
        <dc:type
           rdf:resource="http://purl.org/dc/dcmitype/StillImage" />
        <dc:title />
      </cc:Work>
    </rdf:RDF>
  </metadata>
  <g
     inkscape:label="Layer 1"
     inkscape:groupmode="layer"
     id="layer1">
    <path
       style="fill:#6f7c91;stroke:#000000;stroke-width:0.35277778;stroke-linecap:butt;stroke-linejoin:miter;stroke-opacity:1;fill-opacity:1;stroke-miterlimit:4;stroke-dasharray:none"
       d="m 132.96659,174.05601 c 0.30334,2.77922 0.45897,5.47403 -0.46772,7.55037 -3.55608,0.70359 -6.58796,0.8669 -8.55263,0.93544 0,0 -7.81516,-0.81219 -11.62622,-0.4009 -3.69833,0.39912 -7.25761,2.01189 -10.95805,1.33635 -3.461835,-0.63198 -10.557148,0 -10.557148,0 l 2.508543,-33.20236 7.039315,-14.76524 22.45767,30.39462 z"
       id="path1086"
       inkscape:connector-curvature="0"
       sodipodi:nodetypes="ccsssccccc" />
    <path
       style="fill:#d3bc5f;stroke:#000000;stroke-width:0.35277778;stroke-linecap:butt;stroke-linejoin:miter;stroke-opacity:1;fill-opacity:1;stroke-miterlimit:4;stroke-dasharray:none"
       d="m 86.929414,122.20573 -0.656349,2.62611 c 0,0 -4.334732,3.01815 -6.626746,4.32289 -3.904062,2.22241 -8.440885,3.33218 -12.093946,5.94675 -0.537887,0.38498 -0.865248,1.01824 -1.403164,1.40317 -1.190753,0.85211 -3.942226,1.9377 -3.942226,1.9377 l -7.483549,1.46998 0.601358,-1.73725 -1.603618,-2.33861"
       id="path1120"
       inkscape:connector-curvature="0"
       sodipodi:nodetypes="ccssscccc" />
    <path
       style="fill:#917c6f;stroke:#000000;stroke-width:0.35277778;stroke-linecap:butt;stroke-linejoin:miter;stroke-opacity:1;stroke-miterlimit:4;stroke-dasharray:none"
       d="m 31.183035,68.324404 c 2.899329,10.318241 6.439724,20.465498 10.394346,30.427083 1.123432,2.829893 2.649239,5.488403 3.779761,8.315473 5.348285,13.37434 9.426541,27.22225 14.174107,40.82143 3.322797,9.518 6.600502,19.05221 10.016368,28.5372 2.747606,7.62941 8.428268,22.82058 8.428268,22.82058 l 1.202711,-2.00452 c 0,0 -7.696009,-23.24496 -11.142882,-34.99016 -1.708331,-5.82113 -2.860464,-11.80281 -4.724701,-17.5759 -2.732471,-8.4618 -6.478339,-16.56543 -9.449406,-24.94643 C 51.179164,112.16233 48.956579,104.43828 46.302083,96.861605 44.502904,91.726244 42.136469,86.782994 40.63244,81.55357 40.205571,80.069369 39.289543,78.510068 39.6875,77.017855 c 0.195471,-0.732955 0.764079,-1.573656 1.511905,-1.700892 1.918185,-0.326363 5.102678,2.83482 5.102678,2.83482 0,0 -0.821136,-3.407529 -1.889882,-4.724702 -1.144899,-1.411027 -2.92195,-2.188608 -4.535712,-3.023809 -0.779254,-0.403302 -1.974656,-0.211878 -2.456847,-0.944941 -0.866174,-1.316823 -1.047656,-3.370826 0.255806,-4.256979 1.69531,-0.387711 6.534338,2.204659 8.248659,3.123052 0,0 -1.414035,-2.54687 -1.781141,-3.147949 -2.027861,-3.040708 -7.776469,-5.104691 -10.881061,-4.411575 -1.309039,0.322473 -2.750967,1.19024 -3.212798,2.456844 -0.596872,1.636963 0.662588,3.425259 1.133928,5.10268 z"
       id="path1122"
       inkscape:connector-curvature="0"
       sodipodi:nodetypes="sssssccssssssscsssccccss" />
    <path
       style="fill:#d3bc5f;fill-opacity:1;stroke:#000000;stroke-width:0.35277778;stroke-linecap:butt;stroke-linejoin:miter;stroke-opacity:1;stroke-miterlimit:4;stroke-dasharray:none"
       d="m 65.484374,132.95833 c 0.0018,-0.49295 -1.174261,-0.23048 -1.700892,0.47247 -0.672494,0.89765 -1.711212,1.45879 -2.645834,2.07887 -1.679999,1.1146 -3.30337,2.59553 -5.291666,2.92932 -1.153152,0.19359 -2.339216,-0.0592 -0.944941,-1.6064 1.408032,-1.56245 3.806491,-2.07373 5.291667,-3.02381 1.63467,-1.04571 0.534012,-2.22993 -1.039435,-1.79539 -1.709973,0.47226 -3.547683,0.89183 -5.291666,0.56696 -0.891444,-0.16606 -2.219287,-0.67608 -1.133928,-1.41741 1.453994,-0.99314 3.463363,-0.63786 5.197171,-0.94494 0.912715,-0.16165 1.818342,-0.37697 2.740329,-0.47247 1.75562,-0.18198 3.59301,0.29043 5.291667,-0.18898 0.800883,-0.22603 1.468384,-0.78626 2.173361,-1.22843 4.544785,-2.85052 8.727889,-6.24718 13.229167,-9.16592 0.841867,-0.54589 0.919441,-1.48639 1.039434,-2.36235 0.614521,-4.48605 2.645833,-13.32366 2.645833,-13.32366 3.851228,6.50079 10.601531,12.48123 1.228424,21.35562"
       id="path1112"
       inkscape:connector-curvature="0"
       sodipodi:nodetypes="csssssssssssssscc" />
    <path
       style="fill:#d3bc5f;fill-opacity:1;stroke:#000000;stroke-width:0.35277778;stroke-linecap:butt;stroke-linejoin:miter;stroke-opacity:1;stroke-miterlimit:4;stroke-dasharray:none"
       d="m 148.53504,195.57121 c 0,0 -2.19372,0.55999 -4.14267,0.33408 -0.92496,-0.10721 -3.11302,1.33666 -3.87542,2.6727 2.98417,-0.69017 4.65305,-0.7023 6.81538,-0.73501 z"
       id="path1094"
       inkscape:connector-curvature="0"
       sodipodi:nodetypes="csccc" />
    <path
       style="fill:#d3bc5f;stroke:#000000;stroke-width:0.35277778;stroke-linecap:butt;stroke-linejoin:miter;stroke-opacity:1;fill-opacity:1;stroke-miterlimit:4;stroke-dasharray:none"
       d="m 79.178596,197.24165 c 0,0 -4.0631,-0.42056 -5.946746,0.20045 -1.155867,0.38107 -3.006783,2.07134 -3.006783,2.07134 0,0 1.825906,-0.0992 2.739514,-0.13364 1.669841,-0.063 5.011304,-0.13363 5.011304,-0.13363 z"
       id="path1092"
       inkscape:connector-curvature="0"
       sodipodi:nodetypes="cscscc" />
    <path
       style="fill:#d3bc5f;stroke:#000000;stroke-width:0.35277778;stroke-linecap:butt;stroke-linejoin:miter;stroke-opacity:1;fill-opacity:1;stroke-miterlimit:4;stroke-dasharray:none"
       d="m 92.742524,166.7061 c 0,0 4.011535,2.27791 4.276315,4.27632 0.866301,6.53835 1.312639,13.53916 1.140643,21.48138 -0.02407,1.11151 -0.552301,2.05672 -1.870887,2.40542 -2.152365,0.5692 -4.503648,2.09046 -6.564317,2.93325 -0.848134,0.34688 -1.373912,1.14729 -2.138156,2.80633 1.188406,-0.81352 4.276909,-0.61257 5.15108,-0.18759 1.803585,0.87681 4.45632,-0.52256 6.548101,-0.40091 1.635267,0.0951 2.388897,-0.34579 2.811657,-1.10822 0.54634,-0.9853 1.40603,-1.734 1.33635,-3.0736 -0.49726,-9.55996 -0.87075,-19.15982 0,-28.73147 0.14641,-1.60941 -0.52118,-2.98764 -1.60362,-3.60814 -3.162339,-1.81278 -8.469573,-6.91703 -8.469573,-6.91703 z"
       id="path1090"
       inkscape:connector-curvature="0"
       sodipodi:nodetypes="csssscsssssscc" />
    <path
       style="fill:#d3bc5f;stroke:#000000;stroke-width:0.35277778;stroke-linecap:butt;stroke-linejoin:miter;stroke-opacity:1;fill-opacity:1;stroke-miterlimit:4;stroke-dasharray:none"
       d="m 93.360117,156.58184 c 0,0 0.761655,5.26043 1.464313,7.8164 0.451108,1.64094 1.184699,3.23913 0.709051,4.75131 -3.386258,10.7656 -14.978426,27.09202 -14.930059,26.9308 0,0 -1.220728,0.94405 -1.889881,1.32292 -1.950898,1.10458 -3.344471,1.5012 -5.433407,2.31511 -1.377514,0.53672 -2.577028,2.38391 -2.787576,3.9215 1.181176,-1.12566 2.271174,-1.66748 3.449035,-1.46466 2.067679,0.35603 4.174158,-0.46527 6.236605,-0.85045 1.336783,-0.24966 2.709352,-0.18674 3.921503,-0.80319 0.653169,-0.33217 1.025879,-1.83015 1.795388,-3.11831 6.1974,-10.37445 10.799109,-18.98643 16.630951,-28.25372 1.4075,-2.23664 2.1878,-4.42822 1.79539,-6.89806 -0.97521,-6.13795 -3.40179,-18.33185 -3.40179,-18.33185 l -0.89402,-5.47732 z"
       id="path1088"
       inkscape:connector-curvature="0"
       sodipodi:nodetypes="csscsscssssssccc" />
    <path
       style="fill:#d3bc5f;stroke:#000000;stroke-width:0.35277778;stroke-linecap:butt;stroke-linejoin:miter;stroke-opacity:1;fill-opacity:1;stroke-miterlimit:4;stroke-dasharray:none"
       d="m 127.28348,173.49628 c -3.85975,7.1776 -7.6685,14.38037 -9.4494,23.43452 -0.0517,0.26298 -1.25955,1.92769 -1.88988,1.79539 -2.12858,-0.44677 -2.06135,0.76616 -4.20499,1.13393 -1.51069,0.25918 -3.89331,0.86722 -5.38616,0.51971 -0.64915,-0.15111 -2.5275,0.0958 -3.07106,0.99219 0.22831,-1.7588 1.23788,-3.24952 2.55134,-3.77976 2.0991,-0.84741 6.3311,-2.45685 6.3311,-2.45685 3.35267,-5.90222 5.66456,-12.97533 8.04004,-19.9769 z"
       id="path1075"
       inkscape:connector-curvature="0"
       sodipodi:nodetypes="csssscsccc" />
    <path
       style="fill:#939dac;stroke:#000000;stroke-width:0.35277778;stroke-linecap:butt;stroke-linejoin:miter;stroke-opacity:1;fill-opacity:1;stroke-miterlimit:4;stroke-dasharray:none"
       d="m 119.72396,189.56026 c -0.61809,-2.17956 -1.15892,-4.44495 -2.55134,-5.76413 0.115,-0.38593 -0.18584,-0.48053 0.85044,-1.51191 1.08242,1.54256 1.9032,3.30938 2.36236,5.38616 0.17401,1.0902 -0.33816,1.37987 -0.66146,1.88988 z"
       id="path1104"
       inkscape:connector-curvature="0"
       sodipodi:nodetypes="ccccc" />
    <path
       style="fill:#939dac;stroke:#000000;stroke-width:0.35277778;stroke-linecap:butt;stroke-linejoin:miter;stroke-opacity:1;fill-opacity:1;stroke-miterlimit:4;stroke-dasharray:none"
       d="m 123.11103,181.63979 c -1.86188,0.0695 -3.7423,0.25956 -5.77971,1.46998 l -0.43431,1.46998 c 1.9182,-1.0139 3.84108,-2.11547 5.67948,-1.63702 0.23867,-0.43431 0.38178,-0.86863 0.53454,-1.30294 z"
       id="path1108"
       inkscape:connector-curvature="0"
       sodipodi:nodetypes="ccccc" />
    <path
       style="fill:#939dac;stroke:#000000;stroke-width:0.35277778;stroke-linecap:butt;stroke-linejoin:miter;stroke-opacity:1;fill-opacity:1;stroke-miterlimit:4;stroke-dasharray:none"
       d="m 122.08631,183.70163 c -0.34108,-2.42181 -0.55909,-4.94154 -2.07887,-6.42559 l 0.8652,-1.95049 c 1.26168,2.32637 1.50988,3.81014 2.23839,6.31424 z"
       id="path1106"
       inkscape:connector-curvature="0"
       sodipodi:nodetypes="ccccc" />
    <path
       style="fill:#939dac;stroke:#000000;stroke-width:0.35277778;stroke-linecap:butt;stroke-linejoin:miter;stroke-opacity:1;fill-opacity:1;stroke-miterlimit:4;stroke-dasharray:none"
       d="m 129.70454,129.49882 c -0.0442,-0.17679 8.33754,0.46741 12.79248,3.08154 3.52283,2.06717 8.04933,6.30469 11.84539,10.57597 3.74461,4.21338 6.69939,8.22341 10.07723,15.2209 1.23826,2.56515 1.96743,3.16729 0.14174,10.01637 -0.74655,2.80071 -3.53401,6.43649 -5.81138,7.46503 -1.67704,0.7574 -4.14192,-0.51404 -5.95313,-0.18899 -4.31391,0.7742 -8.43284,0.46411 -11.62276,-2.07887 -7.86796,-6.27229 -23.15105,-19.37128 -23.15105,-19.37128 l -17.10342,-10.29985 3.49628,-12.09524 9.16593,-5.66964 z"
       id="path1071"
       inkscape:connector-curvature="0"
       sodipodi:nodetypes="csssssssccccc" />
    <path
       style="fill:#d3bc5f;fill-opacity:1;stroke:#000000;stroke-width:0.35277778;stroke-linecap:butt;stroke-linejoin:miter;stroke-opacity:1;stroke-miterlimit:4;stroke-dasharray:none"
       d="m 142.32102,168.71062 c 3.4431,8.87598 7.48041,17.67035 9.15398,26.19242 -3.11656,0.39689 -3.79968,1.40535 -6.88218,2.93997 -1.47412,0.73389 -3.43259,2.58603 -2.93997,4.40994 0.92166,-1.33354 1.85266,-1.72847 3.0736,-1.73725 2.89569,-0.0208 5.80571,0.43005 8.68626,0.13363 1.72781,-0.1778 3.54758,-1.42128 4.27631,-2.40542 0.32066,-0.43305 1.15659,-0.85456 0.93544,-1.46999 -3.36705,-9.36991 -7.13835,-18.61285 -8.68626,-30.001 z"
       id="path1073"
       inkscape:connector-curvature="0"
       sodipodi:nodetypes="ccscsssscc" />
    <path
       style="fill:#6f7c91;stroke:#000000;stroke-width:0.35277778;stroke-linecap:butt;stroke-linejoin:miter;stroke-opacity:1;fill-opacity:1;stroke-miterlimit:4;stroke-dasharray:none"
       d="m 147.86687,161.89525 -15.96936,-4.81085 -15.10073,-13.76438 -4.87767,-4.81085 c 0.21992,-1.76234 0.19884,-3.76567 0.735,-5.21176 0.44243,-0.71548 0.89901,-1.34841 1.60361,-0.53454 l 11.96031,6.1472 8.28536,4.6104 12.49485,11.29214 z"
       id="path1035"
       inkscape:connector-curvature="0"
       sodipodi:nodetypes="cccccccccc" />
    <path
       style="fill:#000000;stroke:#000000;stroke-width:0.35277778;stroke-linecap:butt;stroke-linejoin:miter;stroke-opacity:1;stroke-miterlimit:4;stroke-dasharray:none"
       d="m 117.2645,138.77644 c -0.51015,0.1627 -0.82866,1.14126 -0.46772,1.5368 0.4446,0.48722 1.78931,0.24176 1.93771,-0.40091 0.13932,-0.60336 -0.88003,-1.32405 -1.46999,-1.13589 z"
       id="path976"
       inkscape:connector-curvature="0"
       sodipodi:nodetypes="ssss" />
    <path
       style="fill:#5f8dd3;stroke:#000000;stroke-width:0.35277778;stroke-linecap:butt;stroke-linejoin:miter;stroke-opacity:1;fill-opacity:1;stroke-miterlimit:4;stroke-dasharray:none"
       d="m 114.99271,140.51369 c 0.58923,1.53658 2.09654,1.07021 3.30891,1.61056 1.10294,0.49158 1.10258,2.20405 2.66824,1.40079 1.28313,-0.65831 1.08282,2.2446 2.75505,1.65847 1.70459,-0.59748 1.2568,2.47889 2.95259,1.47582 1.69075,-1.00008 0.56763,2.55401 2.43798,1.55112 1.78643,-0.9579 0.89989,2.19444 2.67723,1.72369 2.1057,-0.55772 0.25393,2.90497 2.43082,2.60864 1.5373,-0.20926 0.61479,2.03469 2.41614,1.86767 1.75398,-0.16263 0.9177,1.70801 -0.64739,1.60341 -9.56063,-0.63895 -19.32702,-6.282 -22.83122,-14.81259 -0.36025,-0.87699 0.0222,-1.8845 1.05518,-1.0203 0.21917,0.18336 0.66858,0.0514 0.77647,0.33272 z"
       id="path972"
       inkscape:connector-curvature="0"
       sodipodi:nodetypes="sssssssssssss" />
    <path
       style="fill:#000000;stroke:#000000;stroke-width:0.35277778;stroke-linecap:butt;stroke-linejoin:miter;stroke-opacity:1;stroke-miterlimit:4;stroke-dasharray:none"
       d="m 120.37617,140.03295 c -0.51015,0.1627 -0.82866,1.14126 -0.46772,1.5368 0.4446,0.48722 1.78931,0.24176 1.93771,-0.40091 0.13932,-0.60336 -0.88003,-1.32405 -1.46999,-1.13589 z"
       id="path976-7"
       inkscape:connector-curvature="0"
       sodipodi:nodetypes="ssss" />
    <path
       style="fill:#5f8dd3;fill-opacity:1;stroke:#000000;stroke-width:0.35277778;stroke-linecap:butt;stroke-linejoin:miter;stroke-opacity:1;stroke-miterlimit:4;stroke-dasharray:none"
       d="m 114.25772,132.76287 c 0.97547,1.4713 -0.80092,3.61668 1.00204,4.94414 1.52109,1.11993 3.31584,-2.13628 3.80817,0.13366 0.53008,2.44396 3.05268,-1.28185 3.35486,1.44305 0.22593,2.03727 3.2849,-1.25443 3.481,1.17886 0.1743,2.16279 2.8882,-1.13784 2.8151,1.42892 -0.0703,2.46898 3.88207,-0.78282 3.31418,1.84365 -0.53345,2.46718 2.54276,0.40817 2.71213,1.75375 0.20721,1.6462 0.71211,1.89551 1.93806,1.57222 1.55764,-0.41075 0.12572,2.53293 2.44803,2.12828 1.62916,-0.28387 -0.19021,2.48112 2.24486,2.2156 1.49507,-0.16302 -0.3342,2.65447 1.87753,2.33733 2.33045,-0.33416 -0.30733,2.13681 1.73707,2.67244 1.62419,0.42554 0.0929,2.78262 1.68024,4.04463 1.30587,1.03825 1.5285,3.51204 3.3027,3.86016 1.4105,0.27676 3.40241,0.88018 3.60193,-1.43472 0.18675,-2.16674 -3.81415,-7.39665 -5.05961,-8.42484 -4.17052,-3.44296 -8.38884,-8.18141 -12.0294,-10.71502 -3.60852,-2.51131 -7.27396,-4.39373 -11.23442,-6.24727 -2.87173,-1.344 -11.5492,-5.57154 -10.99447,-4.73484 z"
       id="path968"
       inkscape:connector-curvature="0"
       sodipodi:nodetypes="ssssssssssssssssssss" />
    <path
       style="fill:#000000;stroke:#000000;stroke-width:0.35277778;stroke-linecap:butt;stroke-linejoin:miter;stroke-opacity:1;stroke-miterlimit:4;stroke-dasharray:none"
       d="m 123.5834,141.56975 c -0.51015,0.1627 -0.82866,1.14126 -0.46772,1.5368 0.4446,0.48722 1.78931,0.24176 1.93771,-0.40091 0.13932,-0.60336 -0.88003,-1.32405 -1.46999,-1.13589 z"
       id="path976-5"
       inkscape:connector-curvature="0"
       sodipodi:nodetypes="ssss" />
    <path
       style="fill:#000000;stroke:#000000;stroke-width:0.35277778;stroke-linecap:butt;stroke-linejoin:miter;stroke-opacity:1;stroke-miterlimit:4;stroke-dasharray:none"
       d="m 139.61957,153.39643 c -0.51015,0.1627 -0.82866,1.14126 -0.46772,1.5368 0.4446,0.48722 1.78931,0.24176 1.93771,-0.40091 0.13932,-0.60336 -0.88003,-1.32405 -1.46999,-1.13589 z"
       id="path976-27"
       inkscape:connector-curvature="0"
       sodipodi:nodetypes="ssss" />
    <path
       style="fill:#939dac;stroke:#000000;stroke-width:0.35277778;stroke-linecap:butt;stroke-linejoin:miter;stroke-opacity:1;fill-opacity:1;stroke-miterlimit:4;stroke-dasharray:none"
       d="m 100.91964,143.91964 c 0,0 2.48387,19.45865 4.91909,28.93366 0.81006,3.15179 2.90317,5.98082 3.20724,9.2208 0.13758,1.46601 1.49762,1.83077 3.07359,1.46998 5.86449,-1.34258 11.67225,-3.06345 17.23889,-5.34539 3.94701,-1.618 7.68238,-4.38003 10.02261,-6.28083 2.58794,-2.10199 5.90182,-4.19188 9.2208,-3.87541 0.9593,0.0915 2.40542,1.60362 2.40542,1.60362 0,0 -2.35943,-6.25136 -3.87541,-9.2208 -2.06431,-4.04347 -6.16983,-6.21632 -11.22532,-7.21628 -4.51511,-0.89308 -8.99145,-2.03603 -13.36347,-3.4745 -2.80437,-0.92269 -5.23874,-3.54973 -6.94901,-6.68174 -1.57301,-2.88065 -3.75034,-6.14281 -3.0736,-9.35443 0.12357,-0.58641 0.60625,-1.27816 1.20271,-1.33635 0.22167,-0.0216 0.53454,0.4009 0.53454,0.4009"
       id="path928"
       inkscape:connector-curvature="0"
       sodipodi:nodetypes="csssssscssssssc" />
    <path
       style="fill:#000000;stroke:#000000;stroke-width:0.35277778;stroke-linecap:butt;stroke-linejoin:miter;stroke-opacity:1;stroke-miterlimit:4;stroke-dasharray:none"
       d="m 126.52337,142.9061 c -0.51015,0.1627 -0.82866,1.14126 -0.46772,1.5368 0.4446,0.48722 1.78931,0.24176 1.93771,-0.40091 0.13932,-0.60336 -0.88003,-1.32405 -1.46999,-1.13589 z"
       id="path976-3"
       inkscape:connector-curvature="0"
       sodipodi:nodetypes="ssss" />
    <path
       style="fill:#000000;stroke:#000000;stroke-width:0.35277778;stroke-linecap:butt;stroke-linejoin:miter;stroke-opacity:1;stroke-miterlimit:4;stroke-dasharray:none"
       d="m 129.12925,144.57653 c -0.51015,0.1627 -0.82866,1.14126 -0.46772,1.5368 0.4446,0.48722 1.78931,0.24176 1.93771,-0.40091 0.13932,-0.60336 -0.88003,-1.32405 -1.46999,-1.13589 z"
       id="path976-56"
       inkscape:connector-curvature="0"
       sodipodi:nodetypes="ssss" />
    <path
       style="fill:#000000;stroke:#000000;stroke-width:0.35277778;stroke-linecap:butt;stroke-linejoin:miter;stroke-opacity:1;stroke-miterlimit:4;stroke-dasharray:none"
       d="m 132.20284,146.58106 c -0.51015,0.1627 -0.82866,1.14126 -0.46772,1.5368 0.4446,0.48722 1.78931,0.24176 1.93771,-0.40091 0.13932,-0.60336 -0.88003,-1.32405 -1.46999,-1.13589 z"
       id="path976-2"
       inkscape:connector-curvature="0"
       sodipodi:nodetypes="ssss" />
    <path
       style="fill:#000000;stroke:#000000;stroke-width:0.35277778;stroke-linecap:butt;stroke-linejoin:miter;stroke-opacity:1;stroke-miterlimit:4;stroke-dasharray:none"
       d="m 134.94236,148.98648 c -0.51015,0.1627 -0.82866,1.14126 -0.46772,1.5368 0.4446,0.48722 1.78931,0.24176 1.93771,-0.40091 0.13932,-0.60336 -0.88003,-1.32405 -1.46999,-1.13589 z"
       id="path976-9"
       inkscape:connector-curvature="0"
       sodipodi:nodetypes="ssss" />
    <path
       style="fill:#000000;stroke:#000000;stroke-width:0.35277778;stroke-linecap:butt;stroke-linejoin:miter;stroke-opacity:1;stroke-miterlimit:4;stroke-dasharray:none"
       d="m 137.34778,150.85737 c -0.51015,0.1627 -0.82866,1.14126 -0.46772,1.5368 0.4446,0.48722 1.78931,0.24176 1.93771,-0.40091 0.13932,-0.60336 -0.88003,-1.32405 -1.46999,-1.13589 z"
       id="path976-1"
       inkscape:connector-curvature="0"
       sodipodi:nodetypes="ssss" />
    <path
       style="fill:#939dac;stroke:#000000;stroke-width:0.35277778;stroke-linecap:butt;stroke-linejoin:miter;stroke-opacity:1;fill-opacity:1;stroke-miterlimit:4;stroke-dasharray:none"
       d="m 73.699573,150.80357 c 1.526702,5.86603 3.349118,21.00919 0.46772,28.4642 -0.400408,1.03597 -0.312224,2.41417 0.868627,3.0736 2.32766,1.29986 5.536046,2.41544 8.418988,1.67043 1.267322,-0.3275 2.746748,-0.27153 4.209497,0.0668 1.107529,0.25616 2.271396,0.10065 3.407685,0.13364 1.180153,0.0343 2.362032,0.12347 3.541321,0.0668 0.913583,-0.0439 1.18698,-0.79442 0.935445,-1.87088 -1.065706,-4.56077 -0.902421,-9.35101 -0.734991,-14.03165 0.193364,-5.40563 1.058223,-10.77732 2.00452,-16.10299 0.82797,-4.65974 3.207235,-13.8312 3.207235,-13.8312 l 8.28535,-14.69982 -6.81537,-10.89124 -14.566186,9.35444 -0.656349,2.62611 c -3.36064,8.01952 -8.929505,16.16089 -12.05221,20.14838 -2.036127,2.6 -1.574784,3.53655 -0.521282,5.82338 z"
       id="path879"
       inkscape:connector-curvature="0"
       sodipodi:nodetypes="cssssssssscccccsc" />
    <path
       style="fill:none;stroke:#000000;stroke-width:0.35277778;stroke-linecap:butt;stroke-linejoin:miter;stroke-opacity:1;stroke-miterlimit:4;stroke-dasharray:none"
       d="m 110.38231,177.33007 c 0.4836,-0.0537 -0.80085,-3.1895 -2.87314,-6.54811 -1.54608,-2.50575 -2.13742,-9.34545 -2.73952,-12.22758 -0.66645,-3.1902 -0.76101,-6.37782 -1.33634,-9.88897 -0.64036,-3.90803 -1.01925,-11.41746 -0.66818,-11.35895"
       id="path966"
       inkscape:connector-curvature="0"
       sodipodi:nodetypes="csssc" />
    <path
       style="fill:none;stroke:#000000;stroke-width:0.35277778;stroke-linecap:butt;stroke-linejoin:miter;stroke-opacity:1;stroke-miterlimit:4;stroke-dasharray:none"
       d="m 93.6436,178.59895 c 0,0 -0.557644,-6.75336 -0.50017,-10.1556 0.08087,-4.78712 0.365283,-9.55814 1.403163,-14.2321 1.021144,-4.59859 2.217583,-9.11008 3.073601,-14.09846 0.421932,-2.45877 0.801801,-5.29277 2.605876,-7.01583 0.42278,-0.40379 1.12558,-0.74648 1.67044,-0.53454 0.16735,0.0651 0.26727,0.46772 0.26727,0.46772"
       id="path942"
       inkscape:connector-curvature="0"
       sodipodi:nodetypes="csssssc" />
    <path
       style="fill:#c83737;stroke:#000000;stroke-width:0.35277778;stroke-linecap:butt;stroke-linejoin:miter;stroke-opacity:1;fill-opacity:1;stroke-miterlimit:4;stroke-dasharray:none"
       d="m 94.399554,152.70759 c -1.448153,1.01595 -5.185122,-1.52668 -1.228423,-3.63802 3.527776,-1.88247 7.055549,-3.96244 10.583329,-6.09487 1.96218,-1.18608 4.89695,1.86464 1.6064,3.40179 -3.53954,1.65346 -7.170225,3.67148 -10.961306,6.3311 z"
       id="path889"
       inkscape:connector-curvature="0"
       sodipodi:nodetypes="sssss" />
    <path
       style="fill:#939dac;stroke:#000000;stroke-width:0.35277778;stroke-linecap:butt;stroke-linejoin:miter;stroke-opacity:1;fill-opacity:1;stroke-miterlimit:4;stroke-dasharray:none"
       d="m 139.51789,122.32769 c 0.51383,6.61903 -17.09309,11.26088 -31.20692,1.41484 10.53913,-13.23814 25.84579,-11.78767 31.20692,-1.41484 z"
       id="path871"
       inkscape:connector-curvature="0"
       sodipodi:nodetypes="ccc" />
    <path
       style="fill:#939dac;stroke:#000000;stroke-width:0.35277778;stroke-linecap:butt;stroke-linejoin:miter;stroke-opacity:1;fill-opacity:1;stroke-miterlimit:4;stroke-dasharray:none"
       d="m 127.37797,98.84598 c 0,0 -0.5076,5.50124 -1.96175,7.72448 -0.41701,0.63757 -1.80407,1.40316 -1.80407,1.40316 l -18.64204,1.00227 -1.46999,-6.88219 2.80633,-2.93997 c 7.66903,-1.967169 14.1181,-0.408668 21.07152,-0.30775 z"
       id="path855"
       inkscape:connector-curvature="0"
       sodipodi:nodetypes="csccccc" />
    <path
       style="fill:#c83737;stroke:#000000;stroke-width:0.35277778;stroke-linecap:butt;stroke-linejoin:miter;stroke-opacity:1;fill-opacity:1;stroke-miterlimit:4;stroke-dasharray:none"
       d="m 119.5363,107.40568 c 2.08774,-2.28389 2.53952,-4.99829 2.97337,-7.71741 h 3.27405 c -0.44577,3.00798 -1.85085,5.67738 -3.80859,8.15172 z"
       id="path851"
       inkscape:connector-curvature="0"
       sodipodi:nodetypes="ccccc" />
    <path
       style="fill:#c83737;stroke:#000000;stroke-width:0.35277778;stroke-linecap:butt;stroke-linejoin:miter;stroke-opacity:1;fill-opacity:1;stroke-miterlimit:4;stroke-dasharray:none"
       d="m 115.46043,107.17182 c 0.90074,-2.99565 0.11216,-5.99129 -2.10474,-8.986941 l 4.34313,0.03341 c 1.4083,2.962241 0.8888,5.924471 0.10022,8.886711 z"
       id="path853"
       inkscape:connector-curvature="0"
       sodipodi:nodetypes="ccccc" />
    <path
       style="fill:#c83737;fill-opacity:1;stroke:#000000;stroke-width:0.35277778;stroke-linecap:butt;stroke-linejoin:miter;stroke-opacity:1;stroke-miterlimit:4;stroke-dasharray:none"
       d="m 122.22805,116.94159 c 2.17186,4.34053 2.67691,8.57353 0.94494,12.6622 0.73576,0.3784 1.47738,0.34034 2.22061,0.18899 1.7637,-4.3782 2.73255,-8.67692 1.98437,-12.80394 z"
       id="path867"
       inkscape:connector-curvature="0"
       sodipodi:nodetypes="ccccc" />
    <path
       style="fill:#6f7c91;stroke:#000000;stroke-width:0.35277778;stroke-linecap:butt;stroke-linejoin:miter;stroke-opacity:1;fill-opacity:1;stroke-miterlimit:4;stroke-dasharray:none"
       d="m 104.1683,107.57272 c 0.3588,-0.083 0.52543,-0.44671 0.88828,-0.54162 9.62085,-2.51647 20.57357,-1.91573 30.84997,6.48837 3.46533,2.83397 4.50304,5.66241 3.94223,8.81989 -1.82787,-3.33409 -10.63901,-6.46422 -16.30344,-5.61266 -7.34528,1.10425 -15.61212,6.82696 -15.23437,7.01583 -5.57852,-4.20935 -3.87558,-10.46662 -4.14267,-16.16981 z"
       id="path861"
       inkscape:connector-curvature="0"
       sodipodi:nodetypes="csscscc" />
    <path
       style="fill:#6f7c91;stroke:#000000;stroke-width:0.35277778;stroke-linecap:butt;stroke-linejoin:miter;stroke-opacity:1;fill-opacity:1;stroke-miterlimit:4;stroke-dasharray:none"
       d="m 102.93841,92.065334 c 0.12574,-0.880212 0.39733,-1.990501 1.19403,-2.385277 8.96653,-2.605133 18.83477,0.542804 23.24553,9.165923 0,0 -0.78391,0.884586 -1.32291,1.039434 -3.98841,1.145816 -8.2418,-1.648792 -12.37872,-1.322917 -2.95164,0.232507 -5.65965,2.829903 -8.57533,2.315103 -0.25602,-0.0452 -0.49777,-0.22983 -0.63784,-0.44885 -1.52671,-2.387331 -1.9255,-5.558137 -1.52476,-8.363416 z"
       id="path848"
       inkscape:connector-curvature="0"
       sodipodi:nodetypes="sccsssss" />
    <path
       style="fill:#5f8dd3;fill-opacity:1;stroke:#000000;stroke-width:0.35277778;stroke-linecap:butt;stroke-linejoin:miter;stroke-opacity:1;stroke-miterlimit:4;stroke-dasharray:none"
       d="m 104.03795,99.696427 c 0.32994,0.164854 0.8512,0.348293 1.03959,-0.02362 0.13043,-0.257482 0.39027,-0.413797 0.69243,-0.45262 0.31969,-0.04107 0.38434,0.237977 0.726,0.287261 0.4152,0.05989 0.42811,-0.08952 0.56601,-0.377972 0.14059,-0.294073 0.15847,-0.395454 0.66147,-0.42524 0.2534,-0.015 0.55209,0.349144 0.85058,0.04725 0.14621,-0.147877 0.26832,-0.347888 0.4251,-0.51974 0.0971,-0.106428 0.29798,-0.285317 0.5198,-0.0945 0.34625,0.29785 0.8313,0.143306 1.03936,-0.188992 0.17517,-0.279768 0.33926,-0.406926 0.56709,-0.519742 0.44415,-0.219932 0.70992,0.132661 1.03946,0.23625 0.69273,0.157719 0.90952,-0.129054 1.43068,-0.533591 0.26552,-0.33072 1.02876,-0.148193 1.12065,0.06109 0.14436,0.328796 0.55621,0.359483 0.80319,0.14174 0.23473,-0.206939 0.40914,-0.513296 0.80337,-0.42524 0.24516,0.05476 0.32066,0.347477 0.4252,0.47249 0.17066,0.204083 0.61922,0.442042 0.89772,0.23625 0.22948,-0.169571 0.71605,-0.42423 0.90243,-0.26559 0.26859,0.228608 0.1197,0.692425 0.46772,0.785306 0.26849,0.07166 0.66326,-0.07158 0.80328,-0.189 0.22571,-0.189273 0.79498,-0.215344 1.01818,0.11577 0.22364,0.331772 0.4317,0.776765 0.87172,0.640193 0.25527,-0.07923 0.54697,-0.24958 0.80318,-0.33075 0.31799,-0.10074 0.41136,0.241116 0.56704,0.42525 0.19206,0.227166 0.58251,0.191074 0.84623,0.06193 0.2832,-0.138684 0.29774,-0.357092 0.6656,-0.20368 0.27013,0.112658 0.60362,0.408345 0.85037,0.09449 0.13219,-0.168136 0.22633,-0.350243 0.52067,-0.37799 0.43503,-0.04101 0.43923,0.286037 0.84955,0.33075 0.43614,0.04753 0.59329,0.19873 0.23629,0.47249 -5.03953,3.864529 -9.82989,-2.774241 -15.85139,0.04736 -3.15029,1.476189 -6.33717,2.899599 -7.15857,0.472353 z"
       id="path857"
       inkscape:connector-curvature="0"
       sodipodi:nodetypes="cssssssssssccssssssssssssssssssscc" />
    <path
       style="fill:#939dac;stroke:#000000;stroke-width:0.35277778;stroke-linecap:butt;stroke-linejoin:miter;stroke-opacity:1;stroke-miterlimit:4;stroke-dasharray:none"
       d="m 86.367558,99.318449 c -0.993263,1.517011 -1.50669,3.386661 -1.606399,5.197171 -0.266318,4.83579 2.740329,14.2686 2.740329,14.2686 L 106.106,116.59307 c 0,0 -1.16716,-5.07138 -1.59558,-7.63623 -0.95712,-5.7301 2.90374,-14.468752 -2.17337,-17.292408 -8.747704,-4.865071 -12.006265,1.60097 -15.969492,7.654017 z"
       id="path850"
       inkscape:connector-curvature="0"
       sodipodi:nodetypes="ssccsss" />
    <path
       style="fill:#c83737;fill-opacity:1;stroke:#000000;stroke-width:0.35277778;stroke-linecap:butt;stroke-linejoin:miter;stroke-opacity:1;stroke-miterlimit:4;stroke-dasharray:none"
       d="m 133.28385,118.07552 c -0.0363,4.26267 -1.14962,8.2944 -3.57931,11.4233 0.96688,0.0478 1.9425,0.14808 2.82336,-0.3202 1.79857,-2.44317 3.97799,-4.39124 4.59462,-8.37093 z"
       id="path869"
       inkscape:connector-curvature="0"
       sodipodi:nodetypes="ccccc" />
    <path
       style="fill:#5f8dd3;stroke:#000000;stroke-width:0.35277778;stroke-linecap:butt;stroke-linejoin:miter;stroke-opacity:1;fill-opacity:1;stroke-miterlimit:4;stroke-dasharray:none"
       d="m 108.31097,123.74253 c -0.29999,-0.35226 -0.563,-0.60209 -0.58787,-0.94222 -0.032,-0.43767 0.0123,-0.83917 0.3308,-0.89757 0.41846,-0.0767 0.7535,-0.0479 0.89762,-0.47244 0.0898,-0.26444 0.14236,-0.5866 0.55886,-0.61653 0.47006,-0.0338 0.9205,0.13879 1.18922,-0.0923 0.24626,-0.21177 0.20838,-0.70475 0.4252,-0.94497 0.27642,-0.30625 0.66314,-0.23458 1.12539,-0.2836 0.63528,-0.0674 0.74121,-0.72134 1.14262,-1.0865 0.2979,-0.27099 0.82806,0.0174 1.27564,-0.0473 0.42421,-0.0613 0.54891,-0.47446 0.66149,-0.94502 0.0703,-0.29395 0.29648,-0.50009 0.76872,-0.42515 0.46222,0.0734 1.0131,0.42911 1.45176,0 0.38404,-0.51739 0.66649,-0.73414 1.18679,-0.756 0.51789,-0.0257 0.6642,0.45932 1.17533,0.2834 0.24817,-0.0854 0.52201,-0.46342 0.6142,-0.7086 0.12914,-0.34347 0.33097,-0.37478 0.74882,-0.3781 0.4484,-0.004 0.76382,0.10998 0.99931,0.2836 0.77082,0.13439 0.97296,-0.66875 1.65362,-0.8507 0.38511,-0.102 0.49467,0.43487 0.82686,0.4725 0.36951,0.0419 0.91158,-0.52201 1.11031,-0.70873 0.9163,-0.31348 0.71757,0.76321 1.70085,0.61423 0.35989,-0.0562 0.59642,-0.40737 0.945,-0.2364 0.23391,0.11473 0.22087,0.50836 0.4723,0.6145 0.33939,0.14327 0.57528,-0.11174 0.75574,-0.2834 0.20702,-0.19692 0.4817,-0.41768 0.85027,-0.2835 0.21727,0.0791 0.30966,0.43809 0.42503,0.75601 0.0777,0.21409 0.19781,0.30662 0.47237,0.0945 0.25612,-0.19787 0.64597,-0.5001 0.97113,-0.27838 0.32937,0.22459 0.28425,1.0661 0.66835,0.89256 0.52631,-0.2378 0.95395,-0.38618 1.23118,-0.28106 0.38517,0.14604 0.0885,0.63324 0.19996,0.94247 0.10129,0.28093 0.59831,0.24755 0.85032,0 0.13606,-0.13366 0.44751,-0.34137 0.65621,-0.0734 0.2238,0.28736 -0.21357,0.65167 0.14677,0.87653 0.36098,0.22526 0.80419,-0.20424 1.03928,-0.0472 0.29201,0.19505 -0.12293,0.96257 0.44518,0.94492 0.38387,-0.0119 0.6778,-0.1896 0.83022,0.189 0.1468,0.36465 -0.30867,0.5759 0.18904,0.70858 0.23774,0.0634 0.75202,-0.1063 0.66113,0.50537 -0.0561,0.37777 0.31621,0.39523 0.378,0.81754 0.0652,0.44551 0.006,1.02469 -0.2361,1.22852 -0.62048,-0.5494 -1.52114,-1.2511 -2.39537,-1.52005 -5.6353,-4.9054 -18.71044,-5.44582 -28.81425,2.93531 z"
       id="path863"
       inkscape:connector-curvature="0"
       sodipodi:nodetypes="csssssssssssccsssccsccssssssssssssssssssscccc" />
    <path
       style="fill:#d3bc5f;stroke:#000000;stroke-width:0.35277778;stroke-linecap:butt;stroke-linejoin:miter;stroke-opacity:1;stroke-miterlimit:4;stroke-dasharray:none"
       d="M 96.100446,63.12723 84.713912,72.3404 83.674478,84.813615 96.525669,80.2779 103.65997,66.954238 Z"
       id="path847"
       inkscape:connector-curvature="0" />
    <path
       style="fill:#d3bc5f;stroke:#000000;stroke-width:0.35277778;stroke-linecap:butt;stroke-linejoin:miter;stroke-opacity:1;stroke-miterlimit:4;stroke-dasharray:none"
       d="m 102.93841,92.065336 c -1.22808,-3.978872 -4.580819,-8.408118 0.1546,-12.496141 -6.831225,-3.144886 -10.336669,2.152598 -13.985123,7.087053 4.418307,3.539441 -1.27306,8.485773 -2.740329,12.662201 3.973498,-5.520604 7.766443,-12.360504 16.570852,-7.253113 z"
       id="path843"
       inkscape:connector-curvature="0"
       sodipodi:nodetypes="ccccc" />
    <path
       style="fill:#d3bc5f;stroke:#000000;stroke-width:0.35277778;stroke-linecap:butt;stroke-linejoin:miter;stroke-opacity:1;stroke-miterlimit:4;stroke-dasharray:none"
       d="m 82.519466,72.560412 c 0,0 -2.063339,9.343358 -2.405425,14.098468 -0.166262,2.311102 1.392331,2.676058 3.942226,2.004521 4.696284,-1.236807 7.983851,-3.367024 12.575793,-4.62997 1.403864,-0.386112 1.569592,-1.020262 1.804068,-1.804068"
       id="path845"
       inkscape:connector-curvature="0"
       sodipodi:nodetypes="csssc" />
    <path
       style="fill:none;stroke:#000000;stroke-width:0.35277778;stroke-linecap:butt;stroke-linejoin:miter;stroke-opacity:1;stroke-miterlimit:4;stroke-dasharray:none"
       d="m 121.19694,62.545912 c -0.19468,-3.41776 0.36012,-6.314931 -0.90602,-9.151567"
       id="path899"
       inkscape:connector-curvature="0"
       sodipodi:nodetypes="cc" />
    <path
       style="fill:#939dac;stroke:#000000;stroke-width:0.35277778;stroke-linecap:butt;stroke-linejoin:miter;stroke-opacity:1;stroke-miterlimit:4;stroke-dasharray:none"
       d="m 85.989582,75.789435 c 0,0 3.036105,-6.086791 5.764136,-7.843007 4.89223,-3.149457 7.89265,-0.5097 6.331103,4.819195 -1.049383,3.581098 -3.887501,6.672459 -4.157739,10.394346 -0.05864,0.807685 0.566965,2.362351 0.566965,2.362351 0,0 2.844891,-5.686859 5.575153,-6.614583 0.97691,-0.331948 3.02381,0.661458 3.02381,0.661458 0,0 5.02883,-4.866132 8.22098,-4.913691 4.35003,-0.06481 8.66177,4.630209 8.50446,4.630209 0.91866,-6.523945 -2.1857,-13.788854 -8.82987,-14.957736 -0.77224,-0.125607 -2.79005,-0.612728 -2.6984,-1.389735 0.59629,-5.055171 12.00074,-9.543897 12.00074,-9.543897 0,0 -11.62356,-0.396954 -17.10342,1.228423 -5.555221,1.647731 -10.742009,4.724745 -15.213543,8.409969 -2.536428,2.090402 -6.331101,7.559524 -6.331101,7.559524 0.796622,3.036965 2.565029,4.130358 4.346726,5.197174 z"
       id="path8"
       inkscape:connector-curvature="0"
       sodipodi:nodetypes="cssscscsccscsscc" />
    <path
       style="fill:#c83737;stroke:#000000;stroke-width:0.35277778;stroke-linecap:butt;stroke-linejoin:miter;stroke-opacity:1;stroke-miterlimit:4;stroke-dasharray:none"
       d="m 92.174577,59.965337 c 2.84233,0.595283 5.575447,0.846219 8.986943,3.173826 1.09911,-3.493853 2.75598,-6.255174 4.37654,-9.053756 l -3.0402,0.701583 -2.00452,0.801809 h 1.80407 c -1.08445,1.005369 -2.03259,2.651372 -2.939964,4.543581 -1.334119,-0.808496 -2.834297,-1.118812 -4.34313,-1.403165 l 1.077183,-1.183143 c -1.305641,0.774738 -2.611282,1.556908 -3.916922,2.419265 z"
       id="path10"
       inkscape:connector-curvature="0"
       sodipodi:nodetypes="cccccccccc" />
    <path
       style="fill:#5f8dd3;stroke:#000000;stroke-width:0.35277778;stroke-linecap:butt;stroke-linejoin:miter;stroke-opacity:1;stroke-miterlimit:4;stroke-dasharray:none"
       d="m 115.56622,75.860303 c 2.41436,-2.000464 2.2405,-4.347748 2.12612,-6.779948 -0.53338,-0.930616 -1.15115,-1.815795 -2.09069,-2.527715 0.31911,3.182645 1.261,6.482093 -1.18117,8.764323 z"
       id="path12"
       inkscape:connector-curvature="0"
       sodipodi:nodetypes="ccccc" />
    <path
       style="fill:#5f8dd3;stroke:#000000;stroke-width:0.35277778;stroke-linecap:butt;stroke-linejoin:miter;stroke-opacity:1;stroke-miterlimit:4;stroke-dasharray:none"
       d="m 113.12119,74.874022 c 1.3092,-2.960305 0.87725,-6.276166 0.46065,-9.667921 -0.66854,-0.379721 -1.43143,-0.584241 -2.2088,-0.76186 0.9233,3.5203 1.68009,7.105335 0.44295,10.193546 0.4855,0.04512 0.9141,0.128178 1.3052,0.236235 z"
       id="path14"
       inkscape:connector-curvature="0"
       sodipodi:nodetypes="ccccc" />
    <path
       style="fill:#5f8dd3;stroke:#000000;stroke-width:0.35277778;stroke-linecap:butt;stroke-linejoin:miter;stroke-opacity:1;stroke-miterlimit:4;stroke-dasharray:none"
       d="m 111.46754,53.465214 c 1.2586,1.02917 1.73448,2.123709 1.92532,3.466926 l -1.58278,1.163282 c 0.16065,-1.649412 -0.56637,-3.216993 -2.23242,-4.488467 z"
       id="path16"
       inkscape:connector-curvature="0"
       sodipodi:nodetypes="ccccc" />
    <path
       style="fill:#5f8dd3;stroke:#000000;stroke-width:0.35277778;stroke-linecap:butt;stroke-linejoin:miter;stroke-opacity:1;stroke-miterlimit:4;stroke-dasharray:none"
       d="m 107.88858,53.795943 c 1.71692,1.255508 2.65826,2.95121 3.2128,4.866444 l -1.34654,1.346541 c -0.45075,-2.659111 -2.10454,-4.455664 -4.21678,-5.923521 z"
       id="path18"
       inkscape:connector-curvature="0"
       sodipodi:nodetypes="ccccc" />
    <path
       style="fill:none;stroke:#000000;stroke-width:0.35277778;stroke-linecap:butt;stroke-linejoin:miter;stroke-opacity:1;stroke-miterlimit:4;stroke-dasharray:none"
       d="m 84.713912,74.89174 c 0,0 3.412202,-7.252948 6.756326,-8.88244 2.067216,-1.007293 5.030956,-1.247871 6.898063,0.09449 2.484559,1.78628 2.540219,5.506683 1.795389,8.457218 -0.546194,2.163654 -2.55134,6.189361 -2.55134,6.189361"
       id="path20"
       inkscape:connector-curvature="0"
       sodipodi:nodetypes="csssc" />
    <path
       style="fill:#c83737;stroke:#000000;stroke-width:0.35277778;stroke-linecap:butt;stroke-linejoin:miter;stroke-opacity:1;stroke-miterlimit:4;stroke-dasharray:none"
       d="m 97.257998,57.008741 2.078869,-0.992188 c 3.389243,1.254984 -4.383722,3.778036 -2.078869,0.992188 z"
       id="path22"
       inkscape:connector-curvature="0"
       sodipodi:nodetypes="ccc" />
    <circle
       style="opacity:1;vector-effect:none;fill:#5f8dd3;fill-opacity:1;fill-rule:evenodd;stroke:#000000;stroke-width:0.35277778;stroke-linecap:round;stroke-linejoin:round;stroke-miterlimit:4;stroke-dasharray:none;stroke-dashoffset:0;stroke-opacity:1"
       id="path24"
       cx="120.64527"
       cy="53.512459"
       r="1.015811" />
    <ellipse
       style="opacity:1;vector-effect:none;fill:#5f8dd3;fill-opacity:1;fill-rule:evenodd;stroke:#000000;stroke-width:0.35277778;stroke-linecap:round;stroke-linejoin:round;stroke-miterlimit:4;stroke-dasharray:none;stroke-dashoffset:0;stroke-opacity:1"
       id="path849"
       cx="120.96419"
       cy="55.39053"
       rx="0.48428199"
       ry="0.50790548" />
    <ellipse
       style="opacity:1;vector-effect:none;fill:#5f8dd3;fill-opacity:1;fill-rule:evenodd;stroke:#000000;stroke-width:0.35277778;stroke-linecap:round;stroke-linejoin:round;stroke-miterlimit:4;stroke-dasharray:none;stroke-dashoffset:0;stroke-opacity:1"
       id="path849-6"
       cx="121.09412"
       cy="56.796127"
       rx="0.48428202"
       ry="0.50790548" />
    <ellipse
       style="opacity:1;vector-effect:none;fill:#5f8dd3;fill-opacity:1;fill-rule:evenodd;stroke:#000000;stroke-width:0.35277778;stroke-linecap:round;stroke-linejoin:round;stroke-miterlimit:4;stroke-dasharray:none;stroke-dashoffset:0;stroke-opacity:1"
       id="path849-7"
       cx="121.11774"
       cy="58.213539"
       rx="0.48428202"
       ry="0.50790548" />
    <circle
       style="opacity:1;vector-effect:none;fill:#5f8dd3;fill-opacity:1;fill-rule:evenodd;stroke:#000000;stroke-width:0.35277778;stroke-linecap:round;stroke-linejoin:round;stroke-miterlimit:4;stroke-dasharray:none;stroke-dashoffset:0;stroke-opacity:1"
       id="path24-35"
       cx="121.18862"
       cy="60.127045"
       r="1.015811" />
    <ellipse
       style="opacity:1;vector-effect:none;fill:#5f8dd3;fill-opacity:1;fill-rule:evenodd;stroke:#000000;stroke-width:0.35277778;stroke-linecap:round;stroke-linejoin:round;stroke-miterlimit:4;stroke-dasharray:none;stroke-dashoffset:0;stroke-opacity:1"
       id="path895"
       cx="121.20959"
       cy="61.804005"
       rx="0.85192162"
       ry="0.28397387" />
    <path
       style="fill:#5f8dd3;stroke:#000000;stroke-width:0.35277778;stroke-linecap:butt;stroke-linejoin:miter;stroke-opacity:1;stroke-miterlimit:4;stroke-dasharray:none"
       d="m 121.19694,62.545913 -0.83522,0.634764 0.86863,2.472243 0.80181,-2.539061 z"
       id="path897"
       inkscape:connector-curvature="0"
       sodipodi:nodetypes="ccccc" />
    <path
       style="fill:none;stroke:#000000;stroke-width:0.35277778;stroke-linecap:butt;stroke-linejoin:miter;stroke-opacity:1;stroke-miterlimit:4;stroke-dasharray:none"
       d="m 120.72447,88.43728 c -0.19468,-3.41776 0.36012,-6.314931 -0.90602,-9.151567"
       id="path899-6"
       inkscape:connector-curvature="0"
       sodipodi:nodetypes="cc" />
    <circle
       style="opacity:1;vector-effect:none;fill:#5f8dd3;fill-opacity:1;fill-rule:evenodd;stroke:#000000;stroke-width:0.35277778;stroke-linecap:round;stroke-linejoin:round;stroke-miterlimit:4;stroke-dasharray:none;stroke-dashoffset:0;stroke-opacity:1"
       id="path24-2"
       cx="120.1728"
       cy="79.403831"
       r="1.015811" />
    <ellipse
       style="opacity:1;vector-effect:none;fill:#5f8dd3;fill-opacity:1;fill-rule:evenodd;stroke:#000000;stroke-width:0.35277778;stroke-linecap:round;stroke-linejoin:round;stroke-miterlimit:4;stroke-dasharray:none;stroke-dashoffset:0;stroke-opacity:1"
       id="path849-9"
       cx="120.49171"
       cy="81.281898"
       rx="0.48428202"
       ry="0.50790548" />
    <ellipse
       style="opacity:1;vector-effect:none;fill:#5f8dd3;fill-opacity:1;fill-rule:evenodd;stroke:#000000;stroke-width:0.35277778;stroke-linecap:round;stroke-linejoin:round;stroke-miterlimit:4;stroke-dasharray:none;stroke-dashoffset:0;stroke-opacity:1"
       id="path849-6-1"
       cx="120.62165"
       cy="82.6875"
       rx="0.48428202"
       ry="0.50790548" />
    <ellipse
       style="opacity:1;vector-effect:none;fill:#5f8dd3;fill-opacity:1;fill-rule:evenodd;stroke:#000000;stroke-width:0.35277778;stroke-linecap:round;stroke-linejoin:round;stroke-miterlimit:4;stroke-dasharray:none;stroke-dashoffset:0;stroke-opacity:1"
       id="path849-7-2"
       cx="120.64527"
       cy="84.104912"
       rx="0.48428202"
       ry="0.50790548" />
    <path
       style="fill:#5f8dd3;stroke:#000000;stroke-width:0.35277778;stroke-linecap:butt;stroke-linejoin:miter;stroke-opacity:1;stroke-miterlimit:4;stroke-dasharray:none"
       d="m 120.69106,85.330273 -0.83522,0.634764 0.86863,2.472243 0.80181,-2.539061 z"
       id="path897-9"
       inkscape:connector-curvature="0"
       sodipodi:nodetypes="ccccc" />
    <path
       style="fill:#5aa02c;stroke:#000000;stroke-width:0.35277778;stroke-linecap:butt;stroke-linejoin:miter;stroke-opacity:1;stroke-miterlimit:4;stroke-dasharray:none"
       d="m 86.929414,80.31123 c 1.066271,-3.895649 2.365705,-7.928924 4.877668,-11.091685 3.203854,-4.033907 6.356448,-1.835178 6.147199,2.204974 -0.247047,4.769945 -6.363519,7.128182 -9.68852,10.557144 -1.729519,1.783595 -1.801035,0.02732 -1.336347,-1.670433 z"
       id="path937"
       inkscape:connector-curvature="0"
       sodipodi:nodetypes="sssss" />
    <path
       style="fill:#2d5016;stroke:#000000;stroke-width:0.35277778;stroke-linecap:round;stroke-linejoin:bevel;stroke-opacity:1;stroke-miterlimit:4;stroke-dasharray:none"
       d="m 87.430617,82.616629 c -0.02363,-0.0945 0.496094,-5.764138 0.496094,-5.764138 l 1.328649,-3.253125 -1.021545,8.426673 1.157552,-1.063056 0.803201,-9.284041 1.157552,-1.842635 -0.921316,10.205357 1.842632,-1.346538 0.236236,-10.276229 c 0.477537,-0.326937 0.895462,-0.81714 1.488281,-0.980375 l -0.472471,10.335285 1.748141,-1.500092 -0.07087,-9.1423 c 0.450544,0.01653 0.909327,-0.0205 1.299292,0.389788 l -0.118115,7.583149 0.968563,-1.6064 0.04725,-4.937312 -4.89007,-0.141743 -1.157552,1.41741 6.520094,0.165365 0.04725,1.795388 -7.748514,-0.118118 -0.91559,1.920424 8.097132,-0.101414 -0.968563,1.6064 -7.866625,0.165364 -0.590593,1.582775 7.346912,-0.578776 -1.748134,1.500092 -6.023994,0.519719 -0.448847,1.559151 3.378156,0.188987 -1.039437,0.921319 -2.610389,0.01181 c -0.134362,0.460658 -0.15302,0.921317 -0.03544,1.381975 l 1.488273,-0.330733 z"
       id="path941"
       inkscape:connector-curvature="0"
       sodipodi:nodetypes="cccccccccccccccccccccccccccccccccccccc" />
    <path
       style="fill:#c83737;stroke:#000000;stroke-width:0.35277778;stroke-linecap:butt;stroke-linejoin:miter;stroke-opacity:1;stroke-miterlimit:4;stroke-dasharray:none"
       d="m 103.16604,120.06757 c -5.603071,-0.85872 -10.989525,0.35432 -16.236626,2.13816 -1.223019,-1.60362 -1.112507,-3.20724 -0.200454,-4.81086 5.590387,-1.83176 11.180773,-1.91034 16.77116,-2.00452 z"
       id="path852"
       inkscape:connector-curvature="0"
       sodipodi:nodetypes="ccccc" />
    <path
       style="fill:#5f8dd3;stroke:#000000;stroke-width:0.35277778;stroke-linecap:butt;stroke-linejoin:miter;stroke-opacity:1;stroke-miterlimit:4;stroke-dasharray:none"
       d="m 101.06138,105.6968 c 2.6971,-1.42194 3.61399,-6.987037 2.78758,-9.921876 -0.84132,-2.987801 -3.84281,-4.392189 -6.945315,-4.488468 -2.192301,-0.06803 -4.109734,1.124849 -4.91369,3.165552 -0.725727,1.842132 0.214493,4.521139 0.755953,6.425592 1.407947,4.95211 5.194688,6.46451 8.315472,4.8192 z"
       id="path854"
       inkscape:connector-curvature="0"
       sodipodi:nodetypes="ssssss" />
    <path
       style="fill:#d3bc5f;stroke:#000000;stroke-width:0.35277778;stroke-linecap:butt;stroke-linejoin:miter;stroke-opacity:1;stroke-miterlimit:4;stroke-dasharray:none"
       d="m 94.613411,93.407435 c -2.463481,1.854269 -1.151033,5.763162 -0.215274,8.701085 2.090294,9.96099 5.172214,16.71705 5.092945,15.8209 -1.792944,1.05255 -5.124358,10.73121 -9.955792,20.44611 -0.691195,0.37783 -2.244842,1.97743 -2.839738,3.30746 -0.708211,1.58337 -0.882702,2.24733 -1.703843,3.77519 -0.507026,1.03003 -1.165833,2.00501 -1.891251,2.79151 -0.648324,1.21216 -1.262334,2.00698 -1.65007,2.82114 -0.599632,1.2591 -0.59132,2.12177 1.069078,0.60136 0.593302,-0.54328 1.160801,-1.19895 1.706482,-2.1103 0.44981,-0.56355 0.941339,-1.14427 1.634388,-1.89874 0.376379,-0.40973 0.749181,-0.25758 0.46772,0.53454 -0.325113,0.91497 -0.85486,1.79612 -1.089227,2.63011 -0.430045,1.05632 -0.779244,1.86557 -0.915294,2.58164 -0.482233,2.53813 0.622802,1.32617 1.269529,0.40091 1.838513,-2.63033 2.090658,-6.18042 4.009044,-8.75308 1.415308,-1.898 3.305485,-2.07452 5.295277,-3.35758 0.226174,-0.14584 0.785104,-1.65372 0.785104,-1.65372 0.156703,0.0553 0.586343,-0.79312 0.267269,-1.40317 2.932607,-5.22228 6.188882,-10.09484 8.352172,-15.56844 0.70815,-1.79178 2.41122,-4.04263 1.80407,-6.48129 -0.91401,-7.39656 -1.60344,-11.11895 -2.60588,-14.49937 -0.22643,-2.41383 0.36421,-5.421463 -1.33634,-7.149464 -1.80153,-1.830613 -5.498319,-3.081385 -7.550369,-1.536801 z"
       id="path943"
       inkscape:connector-curvature="0"
       sodipodi:nodetypes="scccsccsscsscssssccsccss" />
    <path
       style="fill:#6f7c91;fill-opacity:1;stroke:#000000;stroke-width:0.35277778;stroke-linecap:butt;stroke-linejoin:miter;stroke-opacity:1;stroke-miterlimit:4;stroke-dasharray:none"
       d="m 93.313367,150.27491 c -0.36453,0.17422 -0.46469,0.9489 -0.15034,1.20271 0.3672,0.29648 1.28498,0.001 1.33635,-0.46772 0.0506,-0.46233 -0.76637,-0.93554 -1.18601,-0.73499 z"
       id="path887-3"
       inkscape:connector-curvature="0"
       sodipodi:nodetypes="ssss" />
    <path
       style="fill:#d3bc5f;stroke:#000000;stroke-width:0.35277778;stroke-linecap:butt;stroke-linejoin:miter;stroke-opacity:1;stroke-miterlimit:4;stroke-dasharray:none"
       d="m 95.682489,140.04597 c 0.132528,0.09 -1.020857,6.2095 -2.511358,9.0236 -0.292663,1.91786 -0.774248,3.33458 -0.850448,5.10268 -0.401532,2.22043 -0.391927,4.37586 -0.425222,6.04761 -0.02259,1.13406 -1.671082,2.52501 -1.74814,-0.14174 -0.04527,-1.56655 0.163596,-3.23053 0.04725,-5.24442 0.22606,-1.49883 0.457756,-3.13526 0.188987,-5.33891 -0.203145,-1.6656 -0.776038,-2.58501 -1.464657,-0.8032 -0.532636,1.3782 -0.63838,3.05066 -1.181177,4.8192 -1.201374,2.12659 -1.528517,4.28688 -1.937128,6.04762 -0.583125,2.51274 -1.421816,0.25625 -1.41741,-0.94494 0.0074,-2.01049 0.723175,-3.94495 1.228423,-5.90588 0.655034,-1.87526 1.175709,-3.78796 1.41741,-5.76414 0.233163,-1.20259 0.33381,-1.57829 0.619945,-2.76939 0.147745,-0.61502 -0.788954,0.14231 -0.788954,0.14231"
       id="path945"
       inkscape:connector-curvature="0"
       sodipodi:nodetypes="cccsscsscssccsc" />
    <path
       style="fill:#6f7c91;fill-opacity:1;stroke:#000000;stroke-width:0.35277778;stroke-linecap:butt;stroke-linejoin:miter;stroke-opacity:1;stroke-miterlimit:4;stroke-dasharray:none"
       d="m 104.28988,143.75682 c -0.45865,0.14519 -0.71375,1.02098 -0.40091,1.38646 0.40151,0.46906 1.66995,0.36041 1.83748,-0.23386 0.16659,-0.5909 -0.85126,-1.33788 -1.43657,-1.1526 z"
       id="path885-6"
       inkscape:connector-curvature="0"
       sodipodi:nodetypes="ssss" />
    <path
       style="fill:#939dac;stroke:#000000;stroke-width:0.35277778;stroke-linecap:butt;stroke-linejoin:miter;stroke-opacity:1;stroke-miterlimit:4;stroke-dasharray:none"
       d="m 89.53529,138.37553 c 0.622139,2.95618 0.212202,6.17038 -0.143923,9.37112 0.186982,0.0412 0.383052,0.10972 0.614212,0.28348 1.00382,-3.31014 1.657715,-6.68508 5.944177,-9.38733 4.726614,-7.06254 7.097804,-11.95052 7.190494,-12.81877 -2.34066,-1.79899 -4.593837,-2.72312 -6.756321,-2.74033 -1.352079,0.55214 -4.565759,10.4505 -6.848639,15.29183 z"
       id="path839"
       inkscape:connector-curvature="0"
       sodipodi:nodetypes="ccccccc" />
    <path
       style="fill:#5f8dd3;stroke:#000000;stroke-width:0.35277778;stroke-linecap:butt;stroke-linejoin:miter;stroke-opacity:1;stroke-miterlimit:4;stroke-dasharray:none"
       d="m 89.53529,138.37553 c 2.012766,-0.47516 4.149717,-0.39149 6.414466,0.26727 -1.271286,-1.12637 -2.605605,-2.23554 -5.235472,-2.99139 2.267857,-0.86959 4.535715,-0.48192 6.803572,0.66146 -1.374482,-1.80783 -3.369507,-2.81783 -5.622395,-3.49628 2.390084,-0.39203 3.625888,-0.14416 6.123933,0.79984 -1.758927,-1.81659 -2.638193,-2.74218 -5.178993,-3.49292 2.488343,-0.016 4.976686,0.36646 7.465029,1.6064 -1.92889,-2.11182 -4.109678,-3.21605 -6.283855,-4.34673 2.584998,0.58368 5.1818,0.95015 7.414925,2.10368 -1.641059,-2.13556 -4.166447,-3.064 -6.51723,-4.37154 3.098466,0.4647 4.555216,0.54264 6.62269,1.74479 -1.53922,-2.08634 -2.51149,-2.64294 -5.158031,-3.77641 l -1.322917,2.03162 -1.086683,2.31511 -1.133928,2.74033 -0.94494,2.64583 -1.228424,2.78757 z"
       id="path841"
       inkscape:connector-curvature="0"
       sodipodi:nodetypes="ccccccccccccccccccc" />
    <path
       style="fill:none;stroke:#000000;stroke-width:0.35277778;stroke-linecap:butt;stroke-linejoin:miter;stroke-opacity:1;stroke-miterlimit:4;stroke-dasharray:none"
       d="m 86.929414,122.20573 c -1.960386,8.38218 -0.999489,11.50605 -0.561856,15.5718"
       id="path875"
       inkscape:connector-curvature="0"
       sodipodi:nodetypes="cc" />
    <path
       style="fill:none;stroke:#000000;stroke-width:0.35277778;stroke-linecap:butt;stroke-linejoin:miter;stroke-opacity:1;stroke-miterlimit:4;stroke-dasharray:none"
       d="m 86.273065,124.83184 c 0.366552,0.40728 -7.476078,15.02406 -12.000743,20.12724 -1.512121,1.70546 -1.900545,4.41689 -0.18899,6.2366 3.93649,4.18523 10.524119,12.84238 10.110865,12.94569"
       id="path877"
       inkscape:connector-curvature="0"
       sodipodi:nodetypes="cssc" />
    <path
       style="fill:#c83737;fill-opacity:1;stroke:#000000;stroke-width:0.35277778;stroke-linecap:butt;stroke-linejoin:miter;stroke-opacity:1;stroke-miterlimit:4;stroke-dasharray:none"
       d="m 88.871651,164.18861 c 5.758501,-3.56491 11.203099,-7.44373 16.725449,-11.24479 2.83007,-1.94795 3.58902,1.25493 1.74814,2.50409 -5.58566,3.79024 -11.194301,7.53452 -16.53646,11.81176 -2.381331,1.90663 -4.662408,-1.38392 -1.937129,-3.07106 z"
       id="path883"
       inkscape:connector-curvature="0"
       sodipodi:nodetypes="sssss" />
    <path
       style="fill:#6f7c91;stroke:#000000;stroke-width:0.35277778;stroke-linecap:butt;stroke-linejoin:miter;stroke-opacity:1;fill-opacity:1;stroke-miterlimit:4;stroke-dasharray:none"
       d="m 89.334839,164.93544 c -0.458654,0.14519 -0.713746,1.02098 -0.400905,1.38646 0.401505,0.46906 1.669946,0.36041 1.837479,-0.23386 0.166584,-0.5909 -0.851267,-1.33788 -1.436574,-1.1526 z"
       id="path885"
       inkscape:connector-curvature="0"
       sodipodi:nodetypes="ssss" />
    <path
       style="fill:#6f7c91;stroke:#000000;stroke-width:0.35277778;stroke-linecap:butt;stroke-linejoin:miter;stroke-opacity:1;fill-opacity:1;stroke-miterlimit:4;stroke-dasharray:none"
       d="m 106.4902,153.27581 c -0.36453,0.17422 -0.46469,0.9489 -0.15034,1.20271 0.3672,0.29648 1.28498,0.001 1.33635,-0.46772 0.0506,-0.46233 -0.76637,-0.93554 -1.18601,-0.73499 z"
       id="path887"
       inkscape:connector-curvature="0"
       sodipodi:nodetypes="ssss" />
    <path
       style="fill:#5f8dd3;stroke:#000000;stroke-width:0.35277778;stroke-linecap:butt;stroke-linejoin:miter;stroke-opacity:1;fill-opacity:1;stroke-miterlimit:4;stroke-dasharray:none"
       d="m 73.988839,179.92187 c 0,0 0.900227,1.36999 1.606399,1.70089 2.039768,0.95579 4.448249,0.99751 5.575149,0.85045 2.176075,-0.28398 4.343297,-0.29406 6.520088,0.37798 2.047438,0.6321 6.425596,-0.18899 6.425596,-0.18899 L 93.6436,178.59895 c -0.853543,-2.66857 -2.030279,-1.13563 -3.118303,-0.75595 -1.254474,-2.81474 -3.173743,-0.92903 -3.590774,-0.28348 -1.686981,-2.57706 -3.089752,-1.17518 -4.535715,-0.37798 -1.354414,-2.75256 -2.708829,-1.12264 -4.063243,-0.56696 -0.573447,-1.83893 -1.726435,-1.93925 -3.307292,-0.75595 z"
       id="path930"
       inkscape:connector-curvature="0"
       sodipodi:nodetypes="cssscccccccc" />
    <path
       style="fill:#6f7c91;stroke:#000000;stroke-width:0.35277778;stroke-linecap:butt;stroke-linejoin:miter;stroke-opacity:1;fill-opacity:1;stroke-miterlimit:4;stroke-dasharray:none"
       d="m 75.77091,177.02939 c -0.789376,0.40114 -1.079956,2.21887 -0.300677,2.63929 0.765474,0.41297 2.081701,-0.8041 2.00452,-1.67044 -0.05798,-0.65077 -1.121389,-1.26484 -1.703843,-0.96885 z"
       id="path932"
       inkscape:connector-curvature="0"
       sodipodi:nodetypes="ssss" />
    <path
       style="fill:#6f7c91;stroke:#000000;stroke-width:0.35277778;stroke-linecap:butt;stroke-linejoin:miter;stroke-opacity:1;fill-opacity:1;stroke-miterlimit:4;stroke-dasharray:none"
       d="m 79.445865,178.06506 c 0.544681,-0.33124 1.714504,0.004 1.80407,0.63476 0.121134,0.85362 -1.367533,1.95045 -2.104747,1.50339 -0.615412,-0.3732 -0.314266,-1.76418 0.300677,-2.13815 z"
       id="path934"
       inkscape:connector-curvature="0"
       sodipodi:nodetypes="ssss" />
    <path
       style="fill:#6f7c91;stroke:#000000;stroke-width:0.35277778;stroke-linecap:butt;stroke-linejoin:miter;stroke-opacity:1;fill-opacity:1;stroke-miterlimit:4;stroke-dasharray:none"
       d="m 83.68877,178.2655 c -0.591674,0.5441 -0.342958,2.16715 0.434313,2.37202 0.772107,0.20351 1.776371,-1.07579 1.536801,-1.83748 -0.204253,-0.64941 -1.470013,-0.99535 -1.971114,-0.53454 z"
       id="path936"
       inkscape:connector-curvature="0"
       sodipodi:nodetypes="ssss" />
    <path
       style="fill:#6f7c91;stroke:#000000;stroke-width:0.35277778;stroke-linecap:butt;stroke-linejoin:miter;stroke-opacity:1;fill-opacity:1;stroke-miterlimit:4;stroke-dasharray:none"
       d="m 88.432803,178.53278 c 0.680277,-0.0814 1.645483,0.7743 1.469982,1.43657 -0.191659,0.72324 -1.634497,1.08887 -2.171565,0.56795 -0.566163,-0.54914 -0.162111,-1.90121 0.701583,-2.00452 z"
       id="path938"
       inkscape:connector-curvature="0"
       sodipodi:nodetypes="ssss" />
    <path
       style="fill:#6f7c91;stroke:#000000;stroke-width:0.35277778;stroke-linecap:butt;stroke-linejoin:miter;stroke-opacity:1;fill-opacity:1;stroke-miterlimit:4;stroke-dasharray:none"
       d="m 91.840491,178.96709 c 0.509638,-0.25042 1.092162,0.37847 1.202713,0.93544 0.145843,0.73478 -0.464086,1.72266 -1.169304,1.46999 -1.205548,-1.33075 -0.42748,-2.2118 -0.03341,-2.40543 z"
       id="path940"
       inkscape:connector-curvature="0"
       sodipodi:nodetypes="sscs" />
    <path
       style="fill:#c83737;stroke:#000000;stroke-width:0.35277778;stroke-linecap:butt;stroke-linejoin:miter;stroke-opacity:1;fill-opacity:1;stroke-miterlimit:4;stroke-dasharray:none"
       d="m 100.91964,143.91964 c -1.060307,-2.36766 -1.979145,-4.80606 -0.56696,-8.40997 2.32002,-4.14421 4.21518,-8.57166 7.95829,-11.76714 1.85591,0.40828 3.66463,1.0053 5.27088,2.41223 -5.81658,4.526 -10.4938,10.60562 -12.66221,17.76488 z"
       id="path873"
       inkscape:connector-curvature="0"
       sodipodi:nodetypes="ccccc" />
    <path
       style="fill:#5f8dd3;stroke:#000000;stroke-width:0.35277778;stroke-linecap:butt;stroke-linejoin:miter;stroke-opacity:1;fill-opacity:1;stroke-miterlimit:4;stroke-dasharray:none"
       d="m 110.38231,177.33007 c 0.78188,-1.96245 1.9669,-3.07384 4.34313,-1.67044 0.8893,-1.92719 2.16884,-3.0251 4.47677,-1.9377 0.58138,-1.98765 1.5418,-3.0277 3.54132,-1.46999 0.96059,-2.8171 2.63324,-2.78596 4.47676,-2.07133 -0.0203,-2.70972 1.48291,-2.78805 3.40769,-2.13816 0.13577,-3.0277 1.62399,-3.05203 3.4745,-2.27179 0.79794,-3.26077 2.64685,-3.21846 4.67722,-2.60588 0.93055,-1.77738 2.07496,-2.7399 3.87541,-1.20271 1.48763,-2.03261 2.06926,-0.74233 2.87315,-0.26727 0.56265,-0.71397 0.9296,-2.13247 2.33861,0.20045 l 2.07133,4.87767 c 0,0 -3.31134,-0.58248 -4.94448,-0.33409 -2.19586,0.33397 -4.24013,1.38705 -6.21402,2.40543 -3.486,1.79852 -5.99317,5.16782 -9.48806,6.94901 -3.66731,1.86906 -7.94641,2.70793 -11.8935,3.87541 -1.59613,0.47211 -3.548,1.48756 -5.21176,1.53679 -0.42823,0.0127 -1.15138,-0.18956 -1.26953,-0.60135 -0.25323,-0.88258 -0.46988,-3.29022 -0.53454,-3.27405 z"
       id="path944"
       inkscape:connector-curvature="0"
       sodipodi:nodetypes="ccccccccccccssssssc" />
    <path
       style="fill:#6f7c91;stroke:#000000;stroke-width:0.35277778;stroke-linecap:butt;stroke-linejoin:miter;stroke-opacity:1;fill-opacity:1;stroke-miterlimit:4;stroke-dasharray:none"
       d="m 112.6207,176.99598 c -0.58963,0.18013 -0.94912,1.31434 -0.53454,1.77066 0.49639,0.54637 1.9935,0.28208 2.17156,-0.43431 0.16991,-0.68361 -0.96335,-1.54216 -1.63702,-1.33635 z"
       id="path946"
       inkscape:connector-curvature="0"
       sodipodi:nodetypes="ssss" />
    <path
       style="fill:#6f7c91;stroke:#000000;stroke-width:0.35277778;stroke-linecap:butt;stroke-linejoin:miter;stroke-opacity:1;fill-opacity:1;stroke-miterlimit:4;stroke-dasharray:none"
       d="m 117.2645,175.35895 c -0.62179,0.18484 -0.86429,1.45037 -0.4009,1.9043 0.45734,0.44801 1.6948,0.1812 1.87089,-0.43432 0.1906,-0.66623 -0.80576,-1.66744 -1.46999,-1.46998 z"
       id="path948"
       inkscape:connector-curvature="0"
       sodipodi:nodetypes="ssss" />
    <path
       style="fill:#6f7c91;stroke:#000000;stroke-width:0.35277778;stroke-linecap:butt;stroke-linejoin:miter;stroke-opacity:1;fill-opacity:1;stroke-miterlimit:4;stroke-dasharray:none"
       d="m 120.87264,175.32555 c -0.27538,-0.53099 0.27048,-1.57159 0.86863,-1.57021 0.6728,0.002 1.34283,1.21138 0.96885,1.77066 -0.34248,0.51217 -1.55383,0.3465 -1.83748,-0.20045 z"
       id="path950"
       inkscape:connector-curvature="0"
       sodipodi:nodetypes="ssss" />
    <path
       style="fill:#6f7c91;stroke:#000000;stroke-width:0.35277778;stroke-linecap:butt;stroke-linejoin:miter;stroke-opacity:1;fill-opacity:1;stroke-miterlimit:4;stroke-dasharray:none"
       d="m 124.98191,173.68852 c -0.0716,-0.58745 0.0225,-1.54724 0.60136,-1.67044 0.75495,-0.16069 1.88954,0.95349 1.60361,1.67044 -0.26431,0.66274 -1.50136,0.42208 -2.13815,0.10023 -0.0358,-0.0181 -0.062,-0.0604 -0.0668,-0.10023 z"
       id="path952"
       inkscape:connector-curvature="0"
       sodipodi:nodetypes="sssss" />
    <path
       style="fill:#6f7c91;stroke:#000000;stroke-width:0.35277778;stroke-linecap:butt;stroke-linejoin:miter;stroke-opacity:1;fill-opacity:1;stroke-miterlimit:4;stroke-dasharray:none"
       d="m 129.25823,170.08038 c -0.63196,0.33029 -0.65152,1.73003 -0.0668,2.13816 0.61047,0.4261 1.99958,-0.0942 2.07134,-0.83522 0.0768,-0.79322 -1.29826,-1.67207 -2.00454,-1.30294 z"
       id="path954"
       inkscape:connector-curvature="0"
       sodipodi:nodetypes="ssss" />
    <path
       style="fill:#6f7c91;stroke:#000000;stroke-width:0.35277778;stroke-linecap:butt;stroke-linejoin:miter;stroke-opacity:1;fill-opacity:1;stroke-miterlimit:4;stroke-dasharray:none"
       d="m 132.89977,167.80859 c -0.53423,0.27609 -0.4779,1.43905 0,1.80407 0.50453,0.38536 1.72677,0.12401 1.83748,-0.50113 0.13093,-0.73935 -1.17044,-1.64767 -1.83748,-1.30294 z"
       id="path956"
       inkscape:connector-curvature="0"
       sodipodi:nodetypes="ssss" />
    <path
       style="fill:#6f7c91;stroke:#000000;stroke-width:0.35277778;stroke-linecap:butt;stroke-linejoin:miter;stroke-opacity:1;fill-opacity:1;stroke-miterlimit:4;stroke-dasharray:none"
       d="m 136.97563,165.13589 c -0.68742,0.13848 -1.17143,1.42226 -0.73499,1.97112 0.4823,0.60653 2.04436,0.42901 2.3052,-0.30068 0.25723,-0.7196 -0.82107,-1.82135 -1.57021,-1.67044 z"
       id="path958"
       inkscape:connector-curvature="0"
       sodipodi:nodetypes="ssss" />
    <path
       style="fill:#6f7c91;stroke:#000000;stroke-width:0.35277778;stroke-linecap:butt;stroke-linejoin:miter;stroke-opacity:1;fill-opacity:1;stroke-miterlimit:4;stroke-dasharray:none"
       d="m 141.01808,163.53228 c -0.59891,0.0308 -0.95089,1.14155 -0.66817,1.67043 0.27904,0.522 1.37995,0.83939 1.73725,0.3675 0.46306,-0.61158 -0.30298,-2.07727 -1.06908,-2.03793 z"
       id="path960"
       inkscape:connector-curvature="0"
       sodipodi:nodetypes="ssss" />
    <path
       style="fill:#6f7c91;stroke:#000000;stroke-width:0.35277778;stroke-linecap:butt;stroke-linejoin:miter;stroke-opacity:1;fill-opacity:1;stroke-miterlimit:4;stroke-dasharray:none"
       d="m 144.25873,162.8641 c -0.41156,-0.085 -0.72318,0.65246 -0.66818,1.06908 0.0577,0.43746 0.57874,1.10824 0.96885,0.90204 0.58761,-0.31058 0.35024,-1.83672 -0.30067,-1.97112 z"
       id="path962"
       inkscape:connector-curvature="0"
       sodipodi:nodetypes="ssss" />
    <path
       style="fill:#6f7c91;stroke:#000000;stroke-width:0.35277778;stroke-linecap:butt;stroke-linejoin:miter;stroke-opacity:1;fill-opacity:1;stroke-miterlimit:4;stroke-dasharray:none"
       d="m 146.99824,162.56342 c -0.45272,-0.0258 -0.68504,0.79805 -0.56795,1.23613 0.13405,0.50151 0.85162,1.20998 1.26953,0.90203 0.60387,-0.44498 0.0473,-2.09556 -0.70158,-2.13816 z"
       id="path964"
       inkscape:connector-curvature="0"
       sodipodi:nodetypes="ssss" />
    <path
       style="opacity:1;vector-effect:none;fill:#6f7c91;fill-opacity:1;fill-rule:evenodd;stroke:none;stroke-width:1.33333335;stroke-linecap:square;stroke-linejoin:miter;stroke-miterlimit:4;stroke-dasharray:none;stroke-dashoffset:0;stroke-opacity:1"
       d="m 356.57184,319.67712 c -0.91465,-3.18606 -1.07476,-4.56215 -0.79391,-6.82333 0.6802,-5.47645 2.13672,-9.28326 7.94545,-20.76646 5.2966,-10.47077 6.85223,-14.07285 7.94318,-18.39254 3.16361,-12.52651 -0.16596,-21.11233 -8.70197,-22.4394 -5.91229,-0.91916 -14.9491,2.82292 -20.76286,8.59776 -4.95233,4.91917 -10.92811,13.57111 -16.3769,23.71101 -0.54112,1.007 -1.0821,1.83091 -1.20217,1.83091 -0.32211,0 -3.71601,-2.23194 -3.71601,-2.44377 0,-0.0996 1.01709,-2.07606 2.26019,-4.39212 4.89163,-9.11368 9.32523,-15.79187 14.15592,-21.32258 4.57126,-5.23369 8.46092,-7.69702 14.84288,-9.40001 2.18678,-0.58353 2.95123,-0.65758 7.00054,-0.67806 4.01352,-0.0203 4.77626,0.0438 6.51527,0.54785 9.5005,2.75353 14.24186,10.95565 13.74063,23.77007 -0.30357,7.76124 -1.83383,13.1316 -7.14177,25.06365 -3.04923,6.85457 -4.03585,8.70692 -5.76067,10.81547 -1.95153,2.38571 -6.20458,8.78334 -7.85854,11.82117 -0.69448,1.27556 -1.33041,2.32191 -1.41317,2.32524 -0.0828,0.003 -0.387,-0.81787 -0.67609,-1.82486 z"
       id="path1037"
       inkscape:connector-curvature="0"
       transform="scale(0.26458333)" />
    <path
       style="opacity:1;vector-effect:none;fill:#6f7c91;fill-opacity:1;fill-rule:evenodd;stroke:none;stroke-width:1.33333335;stroke-linecap:square;stroke-linejoin:miter;stroke-miterlimit:4;stroke-dasharray:none;stroke-dashoffset:0;stroke-opacity:1"
       d="m 364.55983,554.71235 c 0.46707,-1.72021 4.56219,-22.0063 6.14919,-30.46139 2.08458,-11.10603 4.67469,-17.08364 9.07734,-20.94922 1.02204,-0.89737 2.37794,-1.59357 3.10356,-1.59357 h 1.28859 l -1.75266,3.15672 c -3.55981,6.41161 -4.39731,8.30671 -5.39512,12.20809 -0.56753,2.21905 -1.0284,5.69101 -1.03846,7.82322 -0.0139,2.94459 -0.69989,6.56334 -2.95835,15.60548 -1.61715,6.47457 -3.14319,11.95599 -3.39119,12.18095 -0.248,0.22496 -1.56849,1.0513 -2.93442,1.83631 l -2.4835,1.42729 z"
       id="path1039"
       inkscape:connector-curvature="0"
       transform="scale(0.26458333)" />
    <path
       style="opacity:1;vector-effect:none;fill:#6f7c91;fill-opacity:1;fill-rule:evenodd;stroke:none;stroke-width:1.33333335;stroke-linecap:square;stroke-linejoin:miter;stroke-miterlimit:4;stroke-dasharray:none;stroke-dashoffset:0;stroke-opacity:1"
       d="m 354.50426,604.97479 c 1.06264,-9.0129 3.27662,-21.70268 4.75475,-27.25265 0.28359,-1.06481 1.33879,-2.16923 3.54974,-3.71535 2.87898,-2.01326 3.12197,-2.09906 2.86098,-1.01015 -0.56035,2.33786 -4.81167,28.38935 -4.81167,29.48522 0,1.07243 -0.34325,1.37028 -5.24832,4.5541 l -1.46025,0.94782 z"
       id="path1041"
       inkscape:connector-curvature="0"
       transform="scale(0.26458333)" />
    <path
       style="opacity:1;vector-effect:none;fill:#6f7c91;fill-opacity:1;fill-rule:evenodd;stroke:none;stroke-width:1.33333335;stroke-linecap:square;stroke-linejoin:miter;stroke-miterlimit:4;stroke-dasharray:none;stroke-dashoffset:0;stroke-opacity:1"
       d="m 300.75398,694.9017 c -10.17259,-2.04763 -20.20305,-7.51006 -20.20305,-11.00225 0,-0.96348 0.19477,-0.88731 1.89404,0.74071 2.38951,2.28932 4.09068,3.14079 9.04431,4.52685 4.22011,1.18082 6.70883,1.27652 23.91191,0.91948 7.64762,-0.15872 8.79858,-0.0613 13.97939,1.18377 4.17913,1.00432 6.93427,1.35418 10.6066,1.34688 4.6831,-0.009 15.66115,-1.17804 16.2087,-1.72559 0.13883,-0.13884 -0.23435,-4.7486 -0.8293,-10.2439 -0.59495,-5.49531 -1.31774,-13.17345 -1.60619,-17.06254 -0.67836,-9.14607 -1.23096,-34.38325 -0.80283,-36.66537 0.25219,-1.34431 0.9354,-2.21353 2.88227,-3.667 l 2.55172,-1.90504 -0.40824,8.23926 c -0.22453,4.53159 -0.40825,15.96693 -0.40825,25.41185 0,17.67042 0.33628,22.29585 2.33137,32.06731 1.05464,5.16546 0.90382,7.30092 -0.57145,8.09046 -1.53758,0.82289 -23.26742,0.62559 -28.27642,-0.25674 -5.46398,-0.96247 -11.89644,-0.96591 -16.41517,-0.009 -4.25798,0.90191 -9.44184,0.90588 -13.88941,0.0106 z"
       id="path1043"
       inkscape:connector-curvature="0"
       transform="scale(0.26458333)" />
    <path
       style="opacity:1;vector-effect:none;fill:#6f7c91;fill-opacity:1;fill-rule:evenodd;stroke:none;stroke-width:1.33333335;stroke-linecap:square;stroke-linejoin:miter;stroke-miterlimit:4;stroke-dasharray:none;stroke-dashoffset:0;stroke-opacity:1"
       d="m 416.66899,692.88046 c -1.11117,-0.40883 -2.07129,-0.74675 -2.13361,-0.75093 -0.39927,-0.0268 -1.65446,-3.19768 -1.65446,-4.17951 0,-2.1682 -2.1225,-9.63108 -4.05436,-14.25544 -1.04627,-2.50449 -3.0715,-7.34011 -4.50052,-10.74581 -2.87613,-6.8545 -4.66924,-13.27351 -7.3,-26.1327 -1.43819,-7.02986 -5.6623,-30.3088 -6.59875,-36.36549 -0.20342,-1.31565 0.036,-1.70242 1.81774,-2.9364 1.12861,-0.78164 2.17017,-1.30301 2.31457,-1.1586 0.14441,0.14441 0.91764,4.30684 1.7183,9.24985 5.15968,31.85443 5.69041,33.73458 13.29138,47.08532 4.43056,7.78205 6.87755,13.7324 7.09844,17.26121 0.28444,4.54415 1.3342,11.17728 2.04477,12.92032 1.47193,3.61067 6.92731,3.4399 17.98914,-0.56312 3.42723,-1.24024 9.64059,-3.19866 13.80747,-4.35204 22.89554,-6.33748 29.41558,-8.50873 37.30851,-12.42417 5.83328,-2.89372 10.21175,-5.97175 18.24988,-12.82951 8.84118,-7.5429 12.77362,-10.45958 18.28163,-13.55945 10.2997,-5.7966 21.19571,-9.65153 27.28018,-9.65153 3.60788,0 12.23487,0.94905 13.57249,1.4931 0.66685,0.27122 1.45084,1.52516 2.14657,3.43329 0.60283,1.6533 1.09605,3.14845 1.09605,3.32255 0,0.1741 -1.0272,-0.40749 -2.28265,-1.29242 -2.67647,-1.88655 -5.3924,-2.33819 -10.73334,-1.7849 -8.93709,0.92584 -17.13953,5.14845 -30.67311,15.79048 -12.08388,9.50207 -23.92031,17.00571 -33.42038,21.18668 -13.81949,6.08194 -36.06695,13.41715 -55.97812,18.45657 -13.70862,3.46958 -15.92418,3.79948 -18.68782,2.78265 z"
       id="path1045"
       inkscape:connector-curvature="0"
       transform="scale(0.26458333)" />
    <path
       style="opacity:1;vector-effect:none;fill:#6f7c91;fill-opacity:1;fill-rule:evenodd;stroke:none;stroke-width:1.33333335;stroke-linecap:square;stroke-linejoin:miter;stroke-miterlimit:4;stroke-dasharray:none;stroke-dashoffset:0;stroke-opacity:1"
       d="m 386.20489,573.05019 c -0.90621,-6.31977 -1.63879,-11.65712 -1.62795,-11.86078 0.0108,-0.20367 1.14607,-0.94107 2.52273,-1.63868 l 2.50302,-1.26838 0.27608,1.63868 c 1.03669,6.15331 2.94228,21.64436 2.68597,21.8349 -1.12427,0.83576 -4.22968,2.78474 -4.43709,2.78474 -0.15131,0 -1.01656,-5.17071 -1.92276,-11.49048 z"
       id="path1047"
       inkscape:connector-curvature="0"
       transform="scale(0.26458333)" />
    <path
       style="fill:#c83737;stroke:#000000;stroke-width:0.35277778;stroke-linecap:butt;stroke-linejoin:miter;stroke-opacity:1;fill-opacity:1;stroke-miterlimit:4;stroke-dasharray:none"
       d="m 155.35041,162.76388 c 0.44473,-0.33983 0.90124,-0.58547 1.46998,0.0668 0.53829,-0.73438 1.13742,-0.37363 1.73726,0 0.55318,-0.65989 1.1921,-0.46246 1.87088,0.13363 0.62621,-0.24316 1.25024,-0.52556 1.93771,0.33409 0.56023,-0.20041 1.10594,-0.21206 1.60361,0.4009 0.72936,-0.17712 1.25216,0.0933 1.60362,0.73499 0.38796,0.86418 0.21519,1.36554 -0.46772,1.5368 -0.55072,-0.0509 -1.11305,0.0376 -1.60362,-0.73499 -0.49446,0.31204 -0.9714,0.36129 -1.40316,-0.26727 -0.96276,0.76735 -1.16167,0.007 -1.60362,-0.26727 -0.71272,0.45314 -1.42544,0.54827 -2.13816,-0.0668 -0.77998,0.59387 -1.33778,0.47675 -1.80406,0.0668 -0.63248,0.42576 -1.08297,0.32473 -1.46999,-0.13363 z"
       id="path1053"
       inkscape:connector-curvature="0"
       sodipodi:nodetypes="ccccccccccccccc" />
    <path
       style="fill:#c83737;stroke:#000000;stroke-width:0.35277778;stroke-linecap:butt;stroke-linejoin:miter;stroke-opacity:1;fill-opacity:1;stroke-miterlimit:4;stroke-dasharray:none"
       d="m 152.51339,161.30655 c 1.19179,-0.51599 3.188,1.16857 3.02381,2.45684 -0.15325,1.20243 -2.31143,2.20299 -3.30729,1.5119 -1.08962,-0.75615 -0.93363,-3.44179 0.28348,-3.96874 z"
       id="path1051"
       inkscape:connector-curvature="0"
       sodipodi:nodetypes="ssss" />
    <path
       style="fill:none;stroke:#000000;stroke-width:0.35277778;stroke-linecap:butt;stroke-linejoin:miter;stroke-opacity:1;stroke-miterlimit:4;stroke-dasharray:none"
       d="m 155.6317,163.6689 c 0,0 0.27226,-0.29511 0.44884,-0.28349 0.24548,0.0161 0.32169,0.45352 0.56697,0.47248 0.32045,0.0248 0.50563,-0.50803 0.82682,-0.4961 0.32749,0.0122 0.47654,0.54071 0.8032,0.56696 0.37561,0.0302 0.63907,-0.50403 1.01581,-0.49609 0.42977,0.009 0.70407,0.61441 1.13393,0.61421 0.3136,-1.5e-4 0.51417,-0.47321 0.82682,-0.44885 0.33603,0.0262 0.46959,0.56624 0.8032,0.61422 0.32569,0.0468 0.60088,-0.42908 0.92132,-0.35435 0.27135,0.0633 0.29712,0.54479 0.56696,0.61421 0.28939,0.0744 0.57438,-0.39784 0.85045,-0.28349 0.29282,0.12129 0.11557,0.78283 0.42522,0.85045 0.31432,0.0686 0.75223,-0.60477 0.75223,-0.60477"
       id="path1055"
       inkscape:connector-curvature="0"
       sodipodi:nodetypes="cssssssssssssc" />
    <path
       style="fill:#c83737;stroke:#000000;stroke-width:0.35277778;stroke-linecap:butt;stroke-linejoin:miter;stroke-opacity:1;fill-opacity:1;stroke-miterlimit:4;stroke-dasharray:none"
       d="m 137.57699,130.49108 c 0.84117,0.0772 1.66732,0.18441 2.13816,1.00226 0.42233,1.56815 0.60764,3.18371 0.4009,4.87767 1.74806,-0.58596 3.27786,-1.30288 5.61266,-1.5368 0.90906,0.44428 1.8416,0.86979 2.13816,1.80407 -3.07798,0.0506 -6.17547,1.0417 -9.28762,2.73951 -0.13386,-2.91218 0.0719,-5.73946 -1.00226,-8.88671 z"
       id="path1057"
       inkscape:connector-curvature="0"
       sodipodi:nodetypes="ccccccc" />
    <path
       style="fill:#c83737;stroke:#000000;stroke-width:0.35277778;stroke-linecap:butt;stroke-linejoin:miter;stroke-opacity:1;fill-opacity:1;stroke-miterlimit:4;stroke-dasharray:none"
       d="m 151.20773,139.71188 c 0.81089,0.52365 1.5476,1.13631 1.73726,2.40543 -0.0171,2.07101 -0.49198,3.77582 -1.1359,5.34539 1.9377,-0.62108 3.87541,-0.97323 5.81311,-0.46772 2.37189,2.12068 1.77505,2.57145 2.33861,3.67495 -3.28258,-1.35056 -6.61418,-2.01495 -10.02261,-1.60362 0.99245,-3.01464 1.65413,-6.08942 1.26953,-9.35443 z"
       id="path1059"
       inkscape:connector-curvature="0"
       sodipodi:nodetypes="ccccccc" />
    <path
       style="fill:#c83737;stroke:#000000;stroke-width:0.35277778;stroke-linecap:butt;stroke-linejoin:miter;stroke-opacity:1;fill-opacity:1;stroke-miterlimit:4;stroke-dasharray:none"
       d="m 143.59055,140.91459 c 1.27672,-0.46194 2.54357,-0.99296 3.94223,-0.60135 0.15664,1.18905 0.006,2.50119 -0.46772,3.94222 -0.75863,-1.51317 -1.71661,-2.82698 -3.47451,-3.34087 z"
       id="path1061"
       inkscape:connector-curvature="0"
       sodipodi:nodetypes="cccc" />
    <path
       style="fill:#c83737;stroke:#000000;stroke-width:0.35277778;stroke-linecap:butt;stroke-linejoin:miter;stroke-opacity:1;fill-opacity:1;stroke-miterlimit:4;stroke-dasharray:none"
       d="m 154.94951,152.40718 c 1.41083,-0.0996 2.83242,-0.22421 3.8754,0.53454 0.141,1.11362 -0.2539,2.22725 -0.73499,3.34087 -0.64436,-1.76132 -1.74078,-2.99524 -3.14041,-3.87541 z"
       id="path1063"
       inkscape:connector-curvature="0"
       sodipodi:nodetypes="cccc" />
    <path
       style="fill:#c83737;stroke:#000000;stroke-width:0.35277778;stroke-linecap:butt;stroke-linejoin:miter;stroke-opacity:1;fill-opacity:1;stroke-miterlimit:4;stroke-dasharray:none"
       d="m 134.90429,135.36875 c -0.99695,-0.99314 -2.24901,-1.7822 -3.8754,-2.27179 1.13827,-0.47523 2.27688,-0.97621 3.40768,-0.86863 0.25258,0.99847 0.4644,2.01732 0.46772,3.14042 z"
       id="path1065"
       inkscape:connector-curvature="0"
       sodipodi:nodetypes="cccc" />
    <path
       style="fill:#c83737;stroke:#000000;stroke-width:0.35277778;stroke-linecap:butt;stroke-linejoin:miter;stroke-opacity:1;fill-opacity:1;stroke-miterlimit:4;stroke-dasharray:none"
       d="m 154.24792,143.48706 c 0.36562,-0.004 1.57205,1.32001 1.5034,2.03793 -0.0742,0.77632 -1.02428,0.3205 -1.5368,-0.26729 -0.44518,-0.51055 -0.64394,-1.76339 0.0334,-1.77064 z"
       id="path1067"
       inkscape:connector-curvature="0"
       sodipodi:nodetypes="ssss" />
    <path
       style="fill:#c83737;stroke:#000000;stroke-width:0.35277778;stroke-linecap:butt;stroke-linejoin:miter;stroke-opacity:1;fill-opacity:1;stroke-miterlimit:4;stroke-dasharray:none"
       d="m 141.25194,132.36197 c 0.7892,-0.53149 2.61316,0.60827 2.40543,1.5368 -0.15199,0.67938 -1.27482,0.30974 -1.83748,-0.10023 -0.49429,-0.36015 -1.07522,-1.09494 -0.56795,-1.43657 z"
       id="path1069"
       inkscape:connector-curvature="0"
       sodipodi:nodetypes="ssss" />
    <path
       style="fill:#939dac;stroke:#000000;stroke-width:0.35277778;stroke-linecap:butt;stroke-linejoin:miter;stroke-opacity:1;fill-opacity:1;stroke-miterlimit:4;stroke-dasharray:none"
       d="m 151.00728,169.64607 c -1.37155,3.93142 -3.00354,6.82108 -4.636,9.70884 l 1.03943,2.45684 c 1.24292,-3.11637 2.7316,-5.92699 3.49628,-9.63839 0.25329,-0.8974 0.19853,-1.71778 0.10029,-2.52729 z"
       id="path1096"
       inkscape:connector-curvature="0"
       sodipodi:nodetypes="ccccc" />
    <path
       style="fill:#939dac;fill-opacity:1;stroke:#000000;stroke-width:0.35277778;stroke-linecap:butt;stroke-linejoin:miter;stroke-opacity:1;stroke-miterlimit:4;stroke-dasharray:none"
       d="m 149.3951,187.57589 c 1.28932,-2.52404 2.26871,-5.66793 3.02381,-9.26042 l 0.66145,1.79539 c -0.4717,3.24429 -1.89599,6.48859 -3.02381,9.73288 z"
       id="path1098"
       inkscape:connector-curvature="0"
       sodipodi:nodetypes="ccccc" />
    <path
       style="fill:#939dac;stroke:#000000;stroke-width:0.35277778;stroke-linecap:butt;stroke-linejoin:miter;stroke-opacity:1;fill-opacity:1;stroke-miterlimit:4;stroke-dasharray:none"
       d="m 145.04836,175.66964 c 2.67733,1.64646 5.35467,3.31433 8.032,4.44122 0.39789,0.59846 0.70531,1.19693 0.66145,1.79539 -2.62541,-1.08984 -5.26481,-2.02574 -7.80484,-4.05473 -0.51093,-0.61993 -0.73043,-1.38558 -0.88861,-2.18188 z"
       id="path1100"
       inkscape:connector-curvature="0"
       sodipodi:nodetypes="ccccc" />
    <path
       style="fill:#939dac;fill-opacity:1;stroke:#000000;stroke-width:0.35277778;stroke-linecap:butt;stroke-linejoin:miter;stroke-opacity:1;stroke-miterlimit:4;stroke-dasharray:none"
       d="m 147.88318,182.80394 c 2.31411,1.25773 4.36234,2.98074 6.99256,3.68527 0.51001,0.59846 0.68879,1.19692 0.75595,1.79538 -2.45684,-0.61281 -4.91369,-2.31807 -7.37053,-3.96875 -0.30938,-0.44284 -0.32542,-0.98346 -0.37798,-1.5119 z"
       id="path1102"
       inkscape:connector-curvature="0"
       sodipodi:nodetypes="ccccc" />
    <path
       style="fill:#939dac;stroke:#000000;stroke-width:0.35277778;stroke-linecap:butt;stroke-linejoin:miter;stroke-opacity:1;fill-opacity:1;stroke-miterlimit:4;stroke-dasharray:none"
       d="m 121.30696,185.68224 c -1.88202,0.19287 -3.76405,0.15844 -5.64607,1.80407 -0.34482,0.43232 -0.56628,0.93867 -0.46772,1.63702 1.75253,-1.49242 3.59597,-2.18992 5.61265,-2.10474 0.31314,-0.35779 0.62309,-0.7175 0.50114,-1.33635 z"
       id="path1110"
       inkscape:connector-curvature="0"
       sodipodi:nodetypes="ccccc" />
    <path
       style="fill:#d3bc5f;stroke:#000000;stroke-width:0.35277778;stroke-linecap:butt;stroke-linejoin:miter;stroke-opacity:1;fill-opacity:1;stroke-miterlimit:4;stroke-dasharray:none"
       d="m 51.452009,134.75372 c 0.333955,-0.48983 0.547314,-1.28446 1.133928,-1.37017 4.06791,-0.59438 5.202803,-1.06434 6.709077,-1.60639 1.318142,-0.47435 2.970847,1.24246 1.133929,1.74814 -2.821773,0.77679 -4.9176,2.50529 -7.748513,3.1183 -1.574097,0.34086 -1.877525,-0.9378 -1.228421,-1.88988 z"
       id="path1114"
       inkscape:connector-curvature="0"
       sodipodi:nodetypes="ssssss" />
    <path
       style="fill:#d3bc5f;stroke:#000000;stroke-width:0.35277778;stroke-linecap:butt;stroke-linejoin:miter;stroke-opacity:1;fill-opacity:1;stroke-miterlimit:4;stroke-dasharray:none"
       d="m 60.428943,136.59635 c -1.67246,0.52629 -2.762143,1.20214 -4.252232,2.12612 -0.672037,0.41672 -2.240002,0.50332 -2.409597,1.27567 -0.141139,0.64276 -0.861298,1.8313 0.708705,1.84263 0.757408,0.005 1.640571,0.56625 2.267857,0.14174 1.82613,-1.23581 4.572828,-2.62976 5.716889,-3.73251 1.009175,-0.97274 0.268586,-2.3024 -1.181177,-1.88988 -0.282982,0.0805 -0.569797,0.14792 -0.850445,0.23623 z"
       id="path1118"
       inkscape:connector-curvature="0"
       sodipodi:nodetypes="ssssssss" />
    <path
       style="fill:#6c5d53;stroke:#000000;stroke-width:0.35277778;stroke-linecap:butt;stroke-linejoin:miter;stroke-opacity:1;stroke-miterlimit:4;stroke-dasharray:none"
       d="m 46.680059,110.4215 c 1.809961,-0.35592 2.384765,-1.64997 3.165551,-2.78757 0.514495,0.8032 0.78127,1.60639 0.850445,2.40959 -1.283513,0.0841 -2.204377,1.37702 -3.118302,2.69308 -0.526616,-0.69591 -0.90322,-1.44181 -0.897694,-2.3151 z"
       id="path1124"
       inkscape:connector-curvature="0"
       sodipodi:nodetypes="ccccc" />
    <path
       style="fill:#6c5d53;stroke:#000000;stroke-width:0.35277778;stroke-linecap:butt;stroke-linejoin:miter;stroke-opacity:1;stroke-miterlimit:4;stroke-dasharray:none"
       d="m 48.4282,115.2407 c 1.246739,-0.39317 2.372351,-0.99831 3.118303,-2.26786 0.714983,0.74729 0.789233,1.57468 0.803198,2.4096 -1.230379,-0.13316 -2.117662,0.99169 -2.976562,2.22061 -0.704271,-0.78745 -0.854639,-1.5749 -0.944939,-2.36235 z"
       id="path1126"
       inkscape:connector-curvature="0"
       sodipodi:nodetypes="ccccc" />
    <path
       style="fill:#c83737;stroke:#000000;stroke-width:0.35277778;stroke-linecap:butt;stroke-linejoin:miter;stroke-opacity:1;fill-opacity:1;stroke-miterlimit:4;stroke-dasharray:none"
       d="m 37.350916,87.928409 c -0.694483,-0.574172 -1.330169,-1.173542 -0.801809,-2.271789 1.45191,-2.726533 3.048892,-2.696692 4.677217,-2.071341 1.769569,0.711806 0.899706,1.66356 0.868627,2.539061 -2.920905,-2.077764 -3.926808,-0.325524 -4.744035,1.804069 z"
       id="path1128"
       inkscape:connector-curvature="0"
       sodipodi:nodetypes="ccccc" />
    <path
       style="fill:#c83737;stroke:#000000;stroke-width:0.35277778;stroke-linecap:butt;stroke-linejoin:miter;stroke-opacity:1;fill-opacity:1;stroke-miterlimit:4;stroke-dasharray:none"
       d="m 37.350916,87.928409 c 1.967911,-0.170448 3.935822,0.07286 5.903733,0.972071 0.569521,0.421747 0.676875,0.997549 0.685083,1.6064 -1.945711,-1.251882 -3.915411,-2.231898 -6.047618,-1.370164 -0.296199,-0.356449 -0.555593,-0.72762 -0.541198,-1.208307 z"
       id="path1132"
       inkscape:connector-curvature="0"
       sodipodi:nodetypes="ccccc" />
    <path
       style="fill:#c83737;stroke:#000000;stroke-width:0.35277778;stroke-linecap:butt;stroke-linejoin:miter;stroke-opacity:1;fill-opacity:1;stroke-miterlimit:4;stroke-dasharray:none"
       d="m 42.094951,86.12434 c -1.025241,1.781445 -1.834545,3.627672 -3.446886,5.232987 -0.07836,0.56562 0.183973,0.936556 0.543341,1.252045 1.346965,-1.61675 2.749001,-3.183437 3.425409,-5.409784 0.02624,-0.472816 -0.107892,-0.853985 -0.521864,-1.075248 z"
       id="path1134"
       inkscape:connector-curvature="0"
       sodipodi:nodetypes="ccccc" />
    <path
       style="fill:none;stroke:#000000;stroke-width:0.35277778;stroke-linecap:butt;stroke-linejoin:miter;stroke-opacity:1;stroke-miterlimit:4;stroke-dasharray:none"
       d="m 35.777013,99.291513 c 0.19468,-3.41776 -0.05973,-9.077711 1.206407,-11.914347"
       id="path899-6-0"
       inkscape:connector-curvature="0"
       sodipodi:nodetypes="cc" />
    <circle
       style="opacity:1;vector-effect:none;fill:#5f8dd3;fill-opacity:1;fill-rule:evenodd;stroke:#000000;stroke-width:0.35277778;stroke-linecap:round;stroke-linejoin:round;stroke-miterlimit:4;stroke-dasharray:none;stroke-dashoffset:0;stroke-opacity:1"
       id="path24-2-9"
       cx="-36.228462"
       cy="90.174545"
       r="1.015811"
       transform="scale(-1,1)" />
    <ellipse
       style="opacity:1;vector-effect:none;fill:#5f8dd3;fill-opacity:1;fill-rule:evenodd;stroke:#000000;stroke-width:0.35277778;stroke-linecap:round;stroke-linejoin:round;stroke-miterlimit:4;stroke-dasharray:none;stroke-dashoffset:0;stroke-opacity:1"
       id="path849-9-3"
       cx="-36.009781"
       cy="92.136131"
       rx="0.48428202"
       ry="0.50790548"
       transform="scale(-1,1)" />
    <ellipse
       style="opacity:1;vector-effect:none;fill:#5f8dd3;fill-opacity:1;fill-rule:evenodd;stroke:#000000;stroke-width:0.35277778;stroke-linecap:round;stroke-linejoin:round;stroke-miterlimit:4;stroke-dasharray:none;stroke-dashoffset:0;stroke-opacity:1"
       id="path849-6-1-6"
       cx="-35.879837"
       cy="93.541733"
       rx="0.48428202"
       ry="0.50790548"
       transform="scale(-1,1)" />
    <ellipse
       style="opacity:1;vector-effect:none;fill:#5f8dd3;fill-opacity:1;fill-rule:evenodd;stroke:#000000;stroke-width:0.35277778;stroke-linecap:round;stroke-linejoin:round;stroke-miterlimit:4;stroke-dasharray:none;stroke-dashoffset:0;stroke-opacity:1"
       id="path849-7-2-0"
       cx="-35.856216"
       cy="94.959145"
       rx="0.48428202"
       ry="0.50790548"
       transform="scale(-1,1)" />
    <path
       style="fill:#5f8dd3;stroke:#000000;stroke-width:0.35277778;stroke-linecap:butt;stroke-linejoin:miter;stroke-opacity:1;stroke-miterlimit:4;stroke-dasharray:none"
       d="m 35.810423,96.184506 0.83522,0.634764 -0.86863,2.472243 -0.80181,-2.539061 z"
       id="path897-9-6"
       inkscape:connector-curvature="0"
       sodipodi:nodetypes="ccccc" />
    <path
       style="fill:none;stroke:#000000;stroke-width:0.35277778;stroke-linecap:butt;stroke-linejoin:miter;stroke-opacity:1;stroke-miterlimit:4;stroke-dasharray:none"
       d="M 38.791183,103.56782 C 38.596341,100.15005 38.551888,93.189294 38.436406,90.490737"
       id="path899-6-2"
       inkscape:connector-curvature="0"
       sodipodi:nodetypes="cc" />
    <ellipse
       style="opacity:1;vector-effect:none;fill:#5f8dd3;fill-opacity:1;fill-rule:evenodd;stroke:#000000;stroke-width:0.35277778;stroke-linecap:round;stroke-linejoin:round;stroke-miterlimit:4;stroke-dasharray:none;stroke-dashoffset:0;stroke-opacity:1"
       id="path849-9-3-23"
       cx="-38.470108"
       cy="91.386215"
       rx="0.48428202"
       ry="0.50790548"
       transform="scale(-1,1)" />
    <circle
       style="opacity:1;vector-effect:none;fill:#5f8dd3;fill-opacity:1;fill-rule:evenodd;stroke:#000000;stroke-width:0.35277778;stroke-linecap:round;stroke-linejoin:round;stroke-miterlimit:4;stroke-dasharray:none;stroke-dashoffset:0;stroke-opacity:1"
       id="path24-2-6"
       cx="38.473373"
       cy="94.567787"
       r="1.015811" />
    <ellipse
       style="opacity:1;vector-effect:none;fill:#5f8dd3;fill-opacity:1;fill-rule:evenodd;stroke:#000000;stroke-width:0.35277778;stroke-linecap:round;stroke-linejoin:round;stroke-miterlimit:4;stroke-dasharray:none;stroke-dashoffset:0;stroke-opacity:1"
       id="path849-9-1"
       cx="38.558422"
       cy="96.412445"
       rx="0.48428202"
       ry="0.50790548" />
    <ellipse
       style="opacity:1;vector-effect:none;fill:#5f8dd3;fill-opacity:1;fill-rule:evenodd;stroke:#000000;stroke-width:0.35277778;stroke-linecap:round;stroke-linejoin:round;stroke-miterlimit:4;stroke-dasharray:none;stroke-dashoffset:0;stroke-opacity:1"
       id="path849-6-1-8"
       cx="38.688366"
       cy="97.818047"
       rx="0.48428202"
       ry="0.50790548" />
    <ellipse
       style="opacity:1;vector-effect:none;fill:#5f8dd3;fill-opacity:1;fill-rule:evenodd;stroke:#000000;stroke-width:0.35277778;stroke-linecap:round;stroke-linejoin:round;stroke-miterlimit:4;stroke-dasharray:none;stroke-dashoffset:0;stroke-opacity:1"
       id="path849-7-2-7"
       cx="38.711987"
       cy="99.235458"
       rx="0.48428202"
       ry="0.50790548" />
    <path
       style="fill:#5f8dd3;stroke:#000000;stroke-width:0.35277778;stroke-linecap:butt;stroke-linejoin:miter;stroke-opacity:1;stroke-miterlimit:4;stroke-dasharray:none"
       d="m 38.757773,100.46082 -0.83522,0.63476 0.86863,2.47224 0.80181,-2.53906 z"
       id="path897-9-9"
       inkscape:connector-curvature="0"
       sodipodi:nodetypes="ccccc" />
    <ellipse
       style="opacity:1;vector-effect:none;fill:#5f8dd3;fill-opacity:1;fill-rule:evenodd;stroke:#000000;stroke-width:0.35277778;stroke-linecap:round;stroke-linejoin:round;stroke-miterlimit:4;stroke-dasharray:none;stroke-dashoffset:0;stroke-opacity:1"
       id="path849-9-3-2"
       cx="-36.649334"
       cy="88.362724"
       rx="0.48428202"
       ry="0.50790548"
       transform="scale(-1,1)" />
    <ellipse
       style="opacity:1;vector-effect:none;fill:#5f8dd3;fill-opacity:1;fill-rule:evenodd;stroke:#000000;stroke-width:0.35277778;stroke-linecap:round;stroke-linejoin:round;stroke-miterlimit:4;stroke-dasharray:none;stroke-dashoffset:0;stroke-opacity:1"
       id="path849-9-3-0"
       cx="-38.486813"
       cy="92.689148"
       rx="0.48428202"
       ry="0.50790548"
       transform="scale(-1,1)" />
    <flowRoot
       xml:space="preserve"
       id="flowRoot1209"
       style="font-style:normal;font-weight:normal;font-size:40px;line-height:1.20000005;font-family:sans-serif;letter-spacing:0px;word-spacing:0px;fill:#000000;fill-opacity:1;stroke:none"
       transform="matrix(0.26458333,0,0,0.26458333,7.9375,4.9136909)"><flowRegion
         id="flowRegion1211"
         style="line-height:1.20000005"><rect
           id="rect1213"
           width="562.85712"
           height="172.85715"
           x="150"
           y="791.09113"
           style="line-height:1.20000005" /></flowRegion><flowPara
         id="flowPara1215"
         style="font-size:26.66666794px">        ,  .</flowPara><flowPara
         id="flowPara1217"
         style="font-size:26.66666794px">    .</flowPara></flowRoot>    <path
       style="fill:#939dac;fill-opacity:1;stroke:#000000;stroke-width:0.35277778;stroke-linecap:butt;stroke-linejoin:miter;stroke-miterlimit:4;stroke-dasharray:none;stroke-opacity:1"
       d="m 71.586296,76.339575 c -0.591674,0.5441 -0.342958,2.16715 0.434313,2.37202 0.772107,0.20351 1.776371,-1.07579 1.536801,-1.83748 -0.204253,-0.64941 -1.470013,-0.99535 -1.971114,-0.53454 z"
       id="path936-7"
       inkscape:connector-curvature="0"
       sodipodi:nodetypes="ssss" />
    <path
       style="fill:#939dac;fill-opacity:1;stroke:#000000;stroke-width:0.35277778;stroke-linecap:butt;stroke-linejoin:miter;stroke-miterlimit:4;stroke-dasharray:none;stroke-opacity:1"
       d="m 73.086737,79.95131 c -0.591674,0.5441 -0.342958,2.16715 0.434313,2.37202 0.772107,0.20351 1.776371,-1.07579 1.536801,-1.83748 -0.204253,-0.64941 -1.470013,-0.99535 -1.971114,-0.53454 z"
       id="path936-5"
       inkscape:connector-curvature="0"
       sodipodi:nodetypes="ssss" />
    <path
       style="fill:#939dac;fill-opacity:1;stroke:#000000;stroke-width:0.35277778;stroke-linecap:butt;stroke-linejoin:miter;stroke-miterlimit:4;stroke-dasharray:none;stroke-opacity:1"
       d="m 69.396721,79.573334 c -0.591674,0.5441 -0.342958,2.16715 0.434313,2.37202 0.772107,0.20351 1.776371,-1.07579 1.536801,-1.83748 -0.204253,-0.64941 -1.470013,-0.99535 -1.971114,-0.53454 z"
       id="path936-9"
       inkscape:connector-curvature="0"
       sodipodi:nodetypes="ssss" />
    <path
       style="fill:#939dac;fill-opacity:1;stroke:#000000;stroke-width:0.35277778;stroke-linecap:butt;stroke-linejoin:miter;stroke-opacity:1;stroke-miterlimit:4;stroke-dasharray:none"
       d="m 71.817442,72.70552 -5.575149,9.827382 -0.377975,-2.267857 5.858631,-9.638393 z"
       id="path1258"
       inkscape:connector-curvature="0" />
    <path
       style="fill:#939dac;fill-opacity:1;stroke:#000000;stroke-width:0.35277778;stroke-linecap:butt;stroke-linejoin:miter;stroke-opacity:1;stroke-miterlimit:4;stroke-dasharray:none"
       d="m 69.399737,71.6823 -3.77976,6.142111 -0.0945,-2.173361 3.590774,-5.38616 z"
       id="path1260"
       inkscape:connector-curvature="0" />
  </g>
</svg>
