<?xml version="1.0" encoding="UTF-8" standalone="no"?>
<!-- Created with Inkscape (http://www.inkscape.org/) -->

<svg
   xmlns:dc="http://purl.org/dc/elements/1.1/"
   xmlns:cc="http://creativecommons.org/ns#"
   xmlns:rdf="http://www.w3.org/1999/02/22-rdf-syntax-ns#"
   xmlns:svg="http://www.w3.org/2000/svg"
   xmlns="http://www.w3.org/2000/svg"
   xmlns:sodipodi="http://sodipodi.sourceforge.net/DTD/sodipodi-0.dtd"
   xmlns:inkscape="http://www.inkscape.org/namespaces/inkscape"
   width="115.50819mm"
   height="159.94212mm"
   viewBox="0 0 115.5082 159.94213"
   version="1.1"
   id="svg8"
   inkscape:version="0.92.3 (2405546, 2018-03-11)"
   sodipodi:docname="pic_DeerWindow.svg"
   inkscape:export-filename="/dev/my/MyDocs/temp/deer.png"
   inkscape:export-xdpi="300"
   inkscape:export-ydpi="300">
  <defs
     id="defs2" />
  <sodipodi:namedview
     id="base"
     pagecolor="#ffffff"
     bordercolor="#666666"
     borderopacity="1.0"
     inkscape:pageopacity="0.0"
     inkscape:pageshadow="2"
     inkscape:zoom="0.37895183"
     inkscape:cx="-316.72786"
     inkscape:cy="285.01505"
     inkscape:document-units="mm"
     inkscape:current-layer="layer1"
     showgrid="false"
     objecttolerance="1"
     guidetolerance="1"
     inkscape:window-width="1280"
     inkscape:window-height="965"
     inkscape:window-x="0"
     inkscape:window-y="0"
     inkscape:window-maximized="1"
     fit-margin-top="0"
     fit-margin-left="0"
     fit-margin-right="0"
     fit-margin-bottom="0" />
  <metadata
     id="metadata5">
    <rdf:RDF>
      <cc:Work
         rdf:about="">
        <dc:format>image/svg+xml</dc:format>
        <dc:type
           rdf:resource="http://purl.org/dc/dcmitype/StillImage" />
        <dc:title />
      </cc:Work>
    </rdf:RDF>
  </metadata>
  <g
     inkscape:label="Layer 1"
     inkscape:groupmode="layer"
     id="layer1"
     transform="translate(-52.909432,-22.320084)">
    <ellipse
       style="color:#000000;clip-rule:nonzero;display:inline;overflow:visible;visibility:visible;opacity:1;isolation:auto;mix-blend-mode:normal;color-interpolation:sRGB;color-interpolation-filters:linearRGB;solid-color:#000000;solid-opacity:1;fill:#55d400;fill-opacity:1;fill-rule:evenodd;stroke:none;stroke-width:0.35277778;stroke-linecap:round;stroke-linejoin:round;stroke-miterlimit:4;stroke-dasharray:none;stroke-dashoffset:0;stroke-opacity:1;paint-order:normal;color-rendering:auto;image-rendering:auto;shape-rendering:auto;text-rendering:auto;enable-background:accumulate"
       id="path1119"
       cx="111.00002"
       cy="79.418541"
       rx="55.300747"
       ry="55.836342" />
    <path
       style="fill:#000000;fill-rule:evenodd;stroke:none;stroke-width:1.33333337;stroke-linecap:butt;stroke-linejoin:miter;stroke-miterlimit:4;stroke-dasharray:none;stroke-opacity:1"
       d="m 418.25586,84.359375 c -120.55442,1.49e-4 -218.28305,97.728785 -218.2832,218.283205 1.5e-4,120.55442 97.72878,218.28305 218.2832,218.2832 120.55442,-1.5e-4 218.28305,-97.72878 218.2832,-218.2832 C 636.53891,182.08816 538.81028,84.359524 418.25586,84.359375 Z"
       transform="scale(0.26458333)"
       id="path1961"
       inkscape:connector-curvature="0" />
    <path
       style="fill:#bc5fd3;fill-rule:evenodd;stroke:none;stroke-width:1.33333337;stroke-linecap:butt;stroke-linejoin:miter;stroke-miterlimit:4;stroke-dasharray:none;stroke-opacity:1"
       d="m 418.51562,106.3125 c 24.11261,0.0722 48.00464,4.59597 70.47461,13.34375 1.75259,7.54686 -1.3548,17.17131 -2.15625,25.14648 -1.31731,13.10895 -0.89177,28.16283 -9.10937,38.46094 -6.44655,8.07867 -18.26641,17.57363 -27.83399,13.66406 -19.09501,-6.87002 -37.69052,-30.81532 -53.64257,-32.38867 -16.91146,-0.89914 -31.67476,6.29331 -31.47657,6.35938 8.57546,-12.36871 27.40362,-1.65107 24.39258,-35.20508 -0.76423,-8.51629 -3.6676,-18.73805 -1.87109,-26.7832 10.32149,-1.69818 20.76245,-2.56684 31.22265,-2.59766 z"
       id="path1959"
       inkscape:connector-curvature="0"
       transform="scale(0.26458333)" />
    <path
       style="fill:#d35f8d;fill-rule:evenodd;stroke:none;stroke-width:1.33333337;stroke-linecap:butt;stroke-linejoin:miter;stroke-miterlimit:4;stroke-dasharray:none;stroke-opacity:1"
       d="m 361.70508,114.91797 c 0.74149,5.97992 0.85409,11.81425 -0.8457,14.70312 -8.22196,12.72937 -39.32297,15.73991 -42.24805,42.55469 -2.29481,21.03697 -1.73687,15.65206 -2.20899,39.26953 -16.92318,-12.52021 -31.22589,-20.76057 -37.15429,-46.76562 22.91596,-23.19116 51.25832,-40.29539 82.45703,-49.76172 z"
       transform="scale(0.26458333)"
       id="path1957"
       inkscape:connector-curvature="0" />
    <path
       style="fill:#0066ff;fill-rule:evenodd;stroke:none;stroke-width:1.33333337;stroke-linecap:butt;stroke-linejoin:miter;stroke-miterlimit:4;stroke-dasharray:none;stroke-opacity:1"
       d="m 516.08789,132.53906 c 7.93943,4.59029 15.54669,9.7325 22.76563,15.38867 -10.27777,20.89573 -20.02405,45.49902 -40.38086,55.29688 17.61485,-19.29775 13.39135,-49.29565 17.61523,-70.68555 z"
       transform="scale(0.26458333)"
       id="path1955"
       inkscape:connector-curvature="0" />
    <path
       style="fill:#5599ff;fill-rule:evenodd;stroke:none;stroke-width:1.33333337;stroke-linecap:butt;stroke-linejoin:miter;stroke-miterlimit:4;stroke-dasharray:none;stroke-opacity:1"
       d="m 560.0625,166.89844 c 13.25298,13.83609 24.40428,29.54175 33.09766,46.61523 -17.18811,-3.86149 -34.60808,-7.31541 -56.22461,-3.42773 10.4945,-10.07271 17.74384,-26.30244 23.12695,-43.1875 z"
       transform="scale(0.26458333)"
       id="path1953"
       inkscape:connector-curvature="0" />
    <path
       style="fill:#ff6600;fill-rule:evenodd;stroke:none;stroke-width:1.33333337;stroke-linecap:butt;stroke-linejoin:miter;stroke-miterlimit:4;stroke-dasharray:none;stroke-opacity:1"
       d="m 260.35547,186.97852 c 5.56969,23.9446 18.52612,44.13706 30.125,57.51953 -9.35517,-10.2582 -29.26183,-21.88078 -48.44727,-26.72657 5.1538,-10.80255 11.28687,-21.10999 18.32227,-30.79296 z"
       transform="scale(0.26458333)"
       id="path1951"
       inkscape:connector-curvature="0" />
    <path
       style="fill:#d35f8d;fill-rule:evenodd;stroke:none;stroke-width:1.33333337;stroke-linecap:butt;stroke-linejoin:miter;stroke-miterlimit:4;stroke-dasharray:none;stroke-opacity:1"
       d="m 384.18555,206.76367 c 2.52283,0.0609 4.93643,1.81687 6.49609,6.35742 4.44018,12.92658 1.34429,27.32833 1.01172,40.99219 -0.63288,26.00385 30.3549,48.37275 35.17187,49.59375 0,0 -19.01689,17.33871 -31.375,23.2793 -45.7435,28.16688 5.07064,-65.3279 -20.24414,-75.91016 0,0 -5.94929,-28.60641 0.25391,-38.46094 2.01835,-3.20639 5.44191,-5.9299 8.68555,-5.85156 z"
       transform="scale(0.26458333)"
       id="path1949"
       inkscape:connector-curvature="0" />
    <path
       style="fill:#0066ff;fill-rule:evenodd;stroke:none;stroke-width:1.33333337;stroke-linecap:butt;stroke-linejoin:miter;stroke-miterlimit:4;stroke-dasharray:none;stroke-opacity:1"
       d="m 562.03711,241.18555 c 2.5475,0.0248 5.11125,0.12792 7.69336,0.32226 12.07598,0.90889 24.1325,1.25293 36.0293,3.79102 2.51158,8.12753 4.49103,16.41004 5.92578,24.79492 -54.69894,-22.5838 -145.42774,3.43637 -164.83008,-18.00586 42.27968,6.05418 76.96909,-11.27459 115.18164,-10.90234 z"
       transform="scale(0.26458333)"
       id="path1947"
       inkscape:connector-curvature="0" />
    <path
       style="fill:#ff6600;fill-rule:evenodd;stroke:none;stroke-width:1.33333337;stroke-linecap:butt;stroke-linejoin:miter;stroke-miterlimit:4;stroke-dasharray:none;stroke-opacity:1"
       d="m 308.19336,290.04297 c -0.24359,0.52387 11.50811,4.663 23.45312,4.19726 3.79685,-0.14805 10.25238,0.91017 6.91016,7.94922 -6.5928,13.88511 -9.61523,32.70655 -9.61523,32.38672 -11.68951,3.61347 -21.97834,2.32548 -31.76953,-0.70508 6.65114,-11.9624 13.89307,-29.96117 11.02148,-43.82812 z"
       transform="scale(0.26458333)"
       id="path1945"
       inkscape:connector-curvature="0" />
    <path
       style="fill:#217821;fill-rule:evenodd;stroke:none;stroke-width:1.33333337;stroke-linecap:butt;stroke-linejoin:miter;stroke-miterlimit:4;stroke-dasharray:none;stroke-opacity:1"
       d="m 565.49414,292.81836 c 18.99388,-8.2e-4 36.89034,4.45255 48.71094,13.0918 -0.84173,45.31738 -17.37343,88.94036 -46.77735,123.43359 -12.47186,-20.00411 -6.35824,-44.4658 -0.60937,-72.59766 0.32247,-1.57791 -1.07485,-4.02889 -2.69922,-3.87109 -17.58932,1.70852 -35.74448,4.45299 -43.10156,-12.59766 9.18625,-13.12086 3.90627,-23.37913 -5.72461,-36.5 15.20427,-7.36906 33.14276,-10.95825 50.20117,-10.95898 z"
       transform="scale(0.26458333)"
       id="path1943"
       inkscape:connector-curvature="0" />
    <path
       style="fill:#217821;fill-rule:evenodd;stroke:none;stroke-width:1.33333337;stroke-linecap:butt;stroke-linejoin:miter;stroke-miterlimit:4;stroke-dasharray:none;stroke-opacity:1"
       d="m 284.12695,350.29688 c 22.45856,41.92576 42.81671,88.8139 46.10352,126.50585 -45.21637,-22.89149 -79.80003,-62.41768 -96.48438,-110.27343 16.73837,-1.03321 33.90091,-0.24471 50.38086,-16.23242 z"
       transform="scale(0.26458333)"
       id="path1941"
       inkscape:connector-curvature="0" />
    <path
       style="fill:#37c837;fill-rule:evenodd;stroke:none;stroke-width:0.35277778;stroke-linecap:butt;stroke-linejoin:miter;stroke-miterlimit:4;stroke-dasharray:none;stroke-opacity:1"
       d="m 111.34256,96.136967 c -0.29825,0.238601 0.16961,6.282333 1.70428,8.331793 2.4594,3.28436 9.16884,5.15255 9.18394,5.11235 0.88449,0.73707 -6.5,17.60913 -8.50646,21.3806 -0.99612,0.0641 -1.9939,0.0994 -2.99206,0.10594 -2.25511,-0.0184 -4.50661,-0.18391 -6.74016,-0.49558 -0.18086,-5.31274 -0.57113,-21.88584 2.04845,-30.648254 0.21181,-0.708486 0.7793,-1.335209 1.42007,-1.70429 1.13747,-0.655151 3.88194,-2.082559 3.88194,-2.082559 z"
       id="path1939"
       inkscape:connector-curvature="0" />
    <path
       style="fill:#5fd35f;fill-rule:evenodd;stroke:none;stroke-width:1.33333337;stroke-linecap:butt;stroke-linejoin:miter;stroke-miterlimit:4;stroke-dasharray:none;stroke-opacity:1"
       d="m 483.79688,375.56836 c 12.98309,10.47628 26.3542,19.791 42.0039,22.26758 7.18809,22.82551 11.50841,39.91334 15.6875,56.7207 -23.17863,18.62822 -50.2944,31.7276 -79.28711,38.31836 -0.087,-0.10738 -0.17275,-0.21164 -0.25976,-0.31836 9.87168,-21.77879 29.68535,-58.68088 46.65429,-81.05859 1.7918,-2.36293 5.63149,-3.63296 -0.50586,-9.10938 -9.146,-8.16109 -21.5208,-11.65127 -30.36523,-22.26562 z"
       transform="scale(0.26458333)"
       id="path1937"
       inkscape:connector-curvature="0" />
    <path
       style="fill:#5fd35f;fill-rule:evenodd;stroke:none;stroke-width:1.33333337;stroke-linecap:butt;stroke-linejoin:miter;stroke-miterlimit:4;stroke-dasharray:none;stroke-opacity:1"
       d="m 339.0625,378.60547 c 7.08395,1.67826 14.66124,1.97731 20.51367,2.42383 2.20206,0.168 5.02876,4.21136 5.54883,6.9375 8.06762,42.28972 4.60647,68.05419 5.57031,103.91992 -5.0061,-1.24332 -9.96113,-2.68389 -14.85351,-4.31836 -5.17821,-36.24561 -2.3665,-70.05065 -16.7793,-108.96289 z"
       transform="scale(0.26458333)"
       id="path889"
       inkscape:connector-curvature="0" />
    <path
       style="fill:#d3bc5f;fill-rule:evenodd;stroke:none;stroke-width:1.33333337;stroke-linecap:round;stroke-linejoin:round;stroke-miterlimit:4;stroke-dasharray:none;stroke-opacity:1"
       d="m 379.52344,110.44141 c -1.15662,0.24865 -2.31096,0.50777 -3.46289,0.77734 0.67111,6.23435 1.76975,12.83155 1.10547,19.36328 -1.41034,13.86754 -14.61497,16.49276 -25.76563,21.4707 -11.32152,5.05423 -20.14383,17.31979 -21.11328,28.98438 -2.09741,25.23639 2.08497,75.69456 1.61133,75.32617 4.42613,-0.38788 8.81258,-2.81868 11.80859,-5.1875 -1.20195,-18.73702 -4.91842,-45.27457 -2.68359,-66.55859 1.1186,-10.65331 7.91573,-19.50459 16.81836,-25.40821 8.91283,-5.91038 24.28646,-5.94338 23.61718,-27.55273 -0.22243,-7.18164 -0.69259,-14.53278 -1.93554,-21.21484 z"
       transform="scale(0.26458333)"
       id="path1981"
       inkscape:connector-curvature="0" />
    <path
       style="fill:#786721;fill-rule:evenodd;stroke:none;stroke-width:1.33333337;stroke-linecap:round;stroke-linejoin:round;stroke-miterlimit:4;stroke-dasharray:none;stroke-opacity:1"
       d="m 502.0332,125.27148 c -6.74194,17.94556 -2.48284,39.73329 -11.43164,56.83985 -7.61533,14.55748 -20.94364,24.58916 -38.28906,29.70117 -6.9738,2.0553 -8.42311,0.28485 -10.73633,-2.86328 -5.20607,-8.03816 -8.39105,-11.07997 -17.5332,-14.13477 1.49027,6.43396 3.81022,10.94918 3.57812,19.50196 0,0 6.50794,8.02669 10.01953,11.81054 4.76656,5.13613 10.45839,10.16427 18.60743,10.73438 37.01344,2.58947 74.02005,-12.18371 111.28906,-8.23047 7.431,0.78823 1.20905,-4.58367 -2.86328,-5.00977 -21.16214,-2.21424 -35.35846,0.95105 -54.75,2.50586 -5.50058,0.44104 -5.28432,-2.83251 -2.50391,-5.00976 19.24192,-15.06775 38.65286,-35.59759 44.9082,-59.93946 0.12687,-0.49368 0.22645,-0.95734 0.31446,-1.40625 -1.21946,-1.16629 -2.45394,-2.31678 -3.70313,-3.45117 -0.003,0.01 -0.007,0.0173 -0.01,0.0273 -13.60109,30.36099 -36.0131,58.00778 -62.62305,67.98828 -8.24224,2.84836 -17.73854,3.82914 -26.12305,1.43164 -6.26154,-1.79046 -4.45944,-4.22567 -1.07226,-5.72461 15.50778,-6.86273 29.0657,-20.00593 36.85742,-35.06836 8.97217,-17.34436 1.58967,-39.36534 9.41602,-58.08399 -1.11204,-0.55032 -2.22928,-1.09005 -3.35157,-1.61914 z"
       transform="scale(0.26458333)"
       id="path1979"
       inkscape:connector-curvature="0" />
    <path
       style="fill:#c8ab37;fill-rule:evenodd;stroke:none;stroke-width:1.33333337;stroke-linecap:round;stroke-linejoin:round;stroke-miterlimit:4;stroke-dasharray:none;stroke-opacity:1"
       d="m 388.67773,177.30469 c -13.65203,0.3342 -27.54095,10.88948 -32.91406,19.11719 -9.39266,14.38275 -6.57812,51.11132 -6.57812,51.11132 4.41227,-3.0732 8.93634,-5.58607 14.67578,-2.02343 0,0 -8.96751,-31.53856 0,-42.50977 15.55051,-19.02513 37.27051,-18.92275 38.96679,3.03711 1.32824,17.19544 -0.44415,34.83726 3.54102,51.61719 4.73465,19.93569 19.98872,32.89365 38.46094,32.38867 54.5647,-1.49164 99.75126,-21.57565 135.11914,-8.60352 4.24739,1.55785 5.39071,-5.13663 1.51953,-6.07226 -42.62922,-10.30319 -90.72476,9.62163 -134.61328,2.02539 -11.81598,-2.04512 -23.16857,-7.87841 -27.83399,-23.2793 -5.14352,-16.97919 2.75049,-36.36613 -3.0371,-53.13672 -6.21467,-18.00807 -16.6884,-23.93181 -27.30665,-23.67187 z"
       transform="scale(0.26458333)"
       id="path1977"
       inkscape:connector-curvature="0" />
    <path
       style="fill:#786721;fill-rule:evenodd;stroke:none;stroke-width:1.33333337;stroke-linecap:round;stroke-linejoin:round;stroke-miterlimit:4;stroke-dasharray:none;stroke-opacity:1"
       d="m 276.31055,185.79492 c 11.07264,33.26517 29.37662,48.09726 49.08984,62.75196 l -0.75977,-13.66407 C 296.96776,223.02817 288.08178,207.4859 276.31055,185.79492 Z"
       transform="scale(0.26458333)"
       id="path1975"
       inkscape:connector-curvature="0" />
    <path
       style="fill:#d3bc5f;fill-rule:evenodd;stroke:none;stroke-width:1.33333337;stroke-linecap:round;stroke-linejoin:round;stroke-miterlimit:4;stroke-dasharray:none;stroke-opacity:1"
       d="m 237.9082,240.19531 c -0.96965,0.16697 -1.77833,2.76307 -0.8164,3.03711 4.87829,1.38981 15.66001,5.96116 15.30859,6.45313 l -6.19922,22.39257 9.10938,-21.00195 c 8.34226,3.52332 12.714,8.03879 15.6875,12.9043 l -13.15821,13.41211 14.80274,-11.51367 c 3.02976,3.40381 5.79423,8.83899 5.82031,17.96484 l -15.5625,5.44141 15.6875,-2.53125 c 0.3215,6.20326 1.16009,12.49909 -1.13867,19.35742 l -14.80078,-2.65821 14.16797,5.56836 c -1.66848,6.4554 -4.28814,12.56128 -9.99414,18.34375 l -14.04297,-11.76562 12.39843,13.91601 c -5.27776,4.33897 -8.16093,8.6073 -19.48242,8.60352 l -5.56836,-18.97656 2.53125,19.98828 c 0.11471,0.80291 -7.51413,1.76253 -10.375,0.75976 -2.4279,-0.851 -1.65555,4.6217 0.25391,4.8086 73.32316,7.17757 78.12995,-91.3796 5.56641,-104.50391 -0.0656,-0.0119 -0.13067,-0.0111 -0.19532,0 z"
       transform="scale(0.26458333)"
       id="path1973"
       inkscape:connector-curvature="0" />
    <path
       style="fill:#c8ab37;fill-rule:evenodd;stroke:none;stroke-width:1.33333337;stroke-linecap:round;stroke-linejoin:round;stroke-miterlimit:4;stroke-dasharray:none;stroke-opacity:1"
       d="m 355.43555,257.64844 c -1.3963,0.0281 -2.76369,0.36245 -4.03516,1.04101 -9.10844,4.86106 -19.13816,8.2958 -28.62695,10.01953 -6.9706,1.26628 -7.38272,8.8727 1.43164,10.73633 7.2392,1.5306 14.91663,2.09745 22.18554,0.71485 7.18653,-1.36693 7.2848,5.65099 7.15626,12.16601 -0.30184,15.29906 -7.39883,29.22482 -9.46876,41.97266 -0.60939,21.53692 20.87042,27.43007 28.79297,28.88086 5.947,3.49607 6.23671,9.6099 6.44141,15.02929 1.31985,34.94382 1.30012,73.51773 0,102.3418 -0.12813,2.84368 3.30717,3.79219 3.57812,0 2.70928,-37.91788 -0.80989,-76.12298 7.15626,-105.91992 2.96568,-11.09302 7.9682,-14.89903 15.74609,-18.60742 17.74065,-8.45849 33.0362,-22.98075 52.24414,-26.48047 11.99909,-2.18626 19.2017,5.09005 11.45117,16.46094 -7.34585,10.77714 -20.59484,16.07411 -30.05859,25.04882 -6.32735,6.00037 -4.72246,14.85467 0.71484,20.75391 7.81436,8.47824 20.31765,11.46514 31.49024,14.31445 5.32108,1.35704 9.84526,4.08751 5.72656,10.73438 -15.14121,24.43517 -23.70903,54.64151 -37.2168,78.00976 -0.40466,0.70006 -0.45221,1.31028 -0.26758,1.79688 1.93829,-0.20548 3.8734,-0.43989 5.80469,-0.70313 0.60427,-0.64963 1.16614,-1.47141 1.62109,-2.52539 13.03707,-30.20247 30.80744,-55.61134 45.08789,-83.01953 1.49288,-2.86526 0.19133,-3.11211 -3.1875,-5.28515 -12.25572,-7.88225 -22.97055,-12.11834 -34.02929,-23.3418 -3.4035,-3.45419 -1.65584,-6.35115 0.71679,-7.87305 18.02922,-11.56471 36.31991,-17.53469 47.95118,-38.64648 6.51862,-27.09447 -24.11093,-38.07733 -42.94141,-31.49024 -27.42777,9.59452 -48.22798,33.96208 -75.86328,42.94141 -16.26155,5.28375 -22.97764,-5.5344 -22.90039,-17.89258 0.12041,-19.26408 12.1366,-38.46761 7.87109,-57.2539 -1.90851,-8.40554 -8.52163,-14.0455 -14.57226,-13.92383 z"
       transform="scale(0.26458333)"
       id="path1971"
       inkscape:connector-curvature="0" />
    <path
       style="fill:#786721;fill-rule:evenodd;stroke:none;stroke-width:1.33333337;stroke-linecap:round;stroke-linejoin:round;stroke-miterlimit:4;stroke-dasharray:none;stroke-opacity:1"
       d="m 235.99609,274.43555 c -1.36407,-0.1565 -1.54878,4.04157 -0.17773,4.11523 23.24014,1.24845 18.48061,30.71487 3.57812,33.2793 -1.2357,0.21264 -1.07329,3.84018 0.17774,3.75586 21.96249,-1.48014 35.01542,-36.72271 -3.57813,-41.15039 z"
       transform="scale(0.26458333)"
       id="path1969"
       inkscape:connector-curvature="0" />
    <path
       style="fill:#c8ab37;fill-rule:evenodd;stroke:none;stroke-width:1.33333337;stroke-linecap:round;stroke-linejoin:round;stroke-miterlimit:4;stroke-dasharray:none;stroke-opacity:1"
       d="m 235.55664,289.54102 c -0.96606,-0.0655 -1.78323,0.12613 -2.24414,0.63867 -5.06372,5.63095 0.88357,13.24589 6.44141,9.48242 6.98146,-4.72747 -0.011,-9.83724 -4.19727,-10.12109 z"
       transform="scale(0.26458333)"
       id="path1967"
       inkscape:connector-curvature="0" />
    <path
       style="fill:#786721;fill-rule:evenodd;stroke:none;stroke-width:1.33333337;stroke-linecap:round;stroke-linejoin:round;stroke-miterlimit:4;stroke-dasharray:none;stroke-opacity:1"
       d="m 503.8418,349.93945 c -3.99307,4.60587 -6.03654,9.42817 -13.95703,13.59766 0.20163,1.41149 23.81944,22.08097 43.29882,21.82812 2.73729,-0.0355 4.5238,1.00822 5.00977,5.36719 2.24417,20.13014 6.78421,41.23842 12.52539,54.75 0.10513,0.24742 0.23616,0.45167 0.37695,0.63477 1.14096,-0.9798 2.27059,-1.9727 3.38868,-2.97852 -0.0565,-0.16992 -0.10929,-0.33823 -0.1875,-0.51758 -9.06898,-20.79579 -11.45354,-43.97974 -3.22071,-66.20117 0.86068,-2.32309 -0.96324,-2.95026 -2.86328,-2.50586 -24.91192,5.82664 -39.42966,-4.10852 -44.37109,-23.97461 z"
       transform="scale(0.26458333)"
       id="path1965"
       inkscape:connector-curvature="0" />
    <path
       style="fill:#786721;fill-rule:evenodd;stroke:none;stroke-width:1.33333337;stroke-linecap:round;stroke-linejoin:round;stroke-miterlimit:4;stroke-dasharray:none;stroke-opacity:1"
       d="m 342.8125,350.6543 c 0.82631,1.65262 -20.82887,6.28239 -34.35352,5.00976 -2.33384,-0.21961 -5.31232,0.65916 -3.2207,5.36914 13.17787,29.67441 30.25476,61.47293 32.92188,93.39649 0.17893,2.14174 3.17947,3.02585 2.86328,0 -3.33754,-31.93709 -12.52545,-55.58637 -22.90235,-86.24024 -1.30927,-3.86766 -0.13317,-4.31759 2.50586,-3.93554 13.33616,1.93065 36.13349,-0.009 35.78321,-0.35938 -6.04975,-2.67957 -10.8821,-6.75016 -13.59766,-13.24023 z"
       transform="scale(0.26458333)"
       id="path846"
       inkscape:connector-curvature="0" />
    <flowRoot
       xml:space="preserve"
       id="flowRoot840"
       style="font-style:normal;font-weight:normal;font-size:40px;line-height:0.60000002;font-family:sans-serif;letter-spacing:0px;word-spacing:0px;fill:#000000;fill-opacity:1;stroke:none"
       transform="matrix(0.26458333,0,0,0.26458333,53.258531,21.621886)"><flowRegion
         id="flowRegion842"
         style="line-height:0.60000002"><rect
           id="rect844"
           width="410.34238"
           height="258.60806"
           x="18.472004"
           y="460.3161"
           style="line-height:0.60000002" /></flowRegion><flowPara
         id="flowPara846"
         style="font-style:normal;font-variant:normal;font-weight:normal;font-stretch:normal;font-size:21.33333397px;line-height:0.60000002;font-family:'Abyssinica SIL';-inkscape-font-specification:'Abyssinica SIL';text-align:start;letter-spacing:0px;word-spacing:0px;text-anchor:start">Олень-вертихвостка, один из распространённых символов Безымянного бога. Витраж в храме Тхитрона. Чёрное дерево, цветное стекло, медный сплав, сусальное золото. Приблизительно 9400-9550</flowPara></flowRoot>    <path
       sodipodi:type="inkscape:offset"
       inkscape:radius="0"
       inkscape:original="M 105.56836 31.251953 C 105.13193 31.303733 104.69587 31.357368 104.25977 31.412109 C 104.34867 32.75355 104.58932 34.390543 104.75391 36.224609 C 104.96432 38.569305 104.82509 40.329603 104.29688 41.8125 C 105.89687 39.858631 105.80831 35.322456 105.56836 31.251953 z M 76.083984 44.738281 C 76.068734 44.752851 76.052339 44.76666 76.037109 44.78125 C 77.076365 48.249658 78.958778 50.233729 81.242188 52.011719 C 81.261687 51.419205 81.268782 50.794418 81.289062 50.080078 C 79.472094 49.285979 77.804189 46.693525 76.083984 44.738281 z M 148.4082 49.050781 C 147.81137 50.544412 147.21427 52.022191 146.43359 53.373047 C 147.50417 52.628783 148.36704 51.3969 149.14453 49.96875 C 148.90138 49.661006 148.65849 49.353901 148.4082 49.050781 z M 102.75586 74.265625 C 102.48388 76.625115 102.08745 79.06841 101.69531 81.242188 C 101.26498 83.627765 101.29767 85.285363 101.31836 85.875 C 101.35896 85.86257 101.4008 85.849561 101.44141 85.837891 C 102.03344 83.008561 102.977 79.090048 103.80273 75.970703 C 103.43554 75.423148 103.08449 74.851283 102.75586 74.265625 z M 83.472656 80.222656 C 83.287209 82.771458 82.34889 85.041291 81.351562 87.189453 C 81.808071 87.250593 82.277683 87.271126 82.753906 87.259766 C 83.235519 85.029842 83.671377 82.789267 83.515625 80.238281 L 83.533203 80.234375 C 83.513253 80.230575 83.492526 80.226506 83.472656 80.222656 z M 140.58008 81.679688 C 140.17644 81.807288 139.77686 81.941299 139.38086 82.082031 C 139.95579 83.064384 140.43199 84.082846 140.69727 85.208984 C 141.05158 86.713273 140.74659 88.349321 140.07422 89.947266 C 141.82241 87.682565 142.02053 84.953324 140.54883 81.722656 L 140.58008 81.679688 z M 88.802734 88.734375 C 88.805534 88.752415 88.808147 88.770942 88.810547 88.789062 C 88.809447 88.777372 88.806641 88.738251 88.806641 88.738281 L 88.802734 88.734375 z M 66.537109 99.222656 C 65.931531 99.303726 65.33172 99.367784 64.738281 99.412109 C 67.898001 106.99627 72.852068 113.57853 79.152344 118.69531 C 74.24033 112.67612 69.271766 106.69342 66.537109 99.222656 z M 108.79688 100.33984 C 107.78659 100.89134 108.10645 100.6475 107.74219 101.09375 C 105.57251 108.3512 105.62501 122.17428 105.78125 128.64258 C 106.53994 119.34103 106.11577 110.67653 108.79688 100.33984 z M 92.332031 103.32812 C 94.341751 110.25311 94.855926 116.57344 95.337891 122.75586 C 95.382951 116.8667 95.369381 111.18533 93.921875 103.59766 C 93.934395 103.66326 93.884811 103.54427 93.869141 103.51367 C 93.439577 103.48457 92.832803 103.36794 92.332031 103.32812 z M 135.90234 110.76367 C 132.52484 115.21772 128.86946 121.84001 126.08789 127.35742 C 126.57647 127.19362 127.06051 127.02092 127.54297 126.8418 C 129.7389 121.28602 132.89478 116.04891 135.90234 110.76367 z M 105.78516 128.86914 C 105.78614 128.90824 105.78806 128.96336 105.78906 129.00195 C 105.83596 129.00695 105.88283 129.01062 105.92969 129.01562 L 105.78516 128.86914 z "
       style="opacity:0.809;fill:#ffffff;fill-rule:evenodd;stroke:none;stroke-width:0.35277778;stroke-linecap:butt;stroke-linejoin:miter;stroke-miterlimit:4;stroke-dasharray:none;stroke-opacity:1"
       id="path1959-9"
       d="m 105.56836,31.251953 c -0.43643,0.05178 -0.87249,0.105415 -1.30859,0.160156 0.0889,1.341441 0.32955,2.978434 0.49414,4.8125 0.21041,2.344696 0.0712,4.104994 -0.45703,5.587891 1.59999,-1.953869 1.51143,-6.490044 1.27148,-10.560547 z M 76.083984,44.738281 c -0.01525,0.01457 -0.03164,0.02838 -0.04687,0.04297 1.039256,3.468408 2.921669,5.452479 5.205079,7.230469 0.0195,-0.592514 0.02659,-1.217301 0.04687,-1.931641 -1.816968,-0.794099 -3.484873,-3.386553 -5.205078,-5.341797 z m 72.324216,4.3125 c -0.59683,1.493631 -1.19393,2.97141 -1.97461,4.322266 1.07058,-0.744264 1.93345,-1.976147 2.71094,-3.404297 -0.24315,-0.307744 -0.48604,-0.614849 -0.73633,-0.917969 z m -45.65234,25.214844 c -0.27198,2.35949 -0.66841,4.802785 -1.06055,6.976563 -0.43033,2.385577 -0.39764,4.043175 -0.37695,4.632812 0.0406,-0.01243 0.0824,-0.02544 0.12305,-0.03711 0.59203,-2.82933 1.53559,-6.747843 2.36132,-9.867188 -0.36719,-0.547555 -0.71824,-1.11942 -1.04687,-1.705078 z m -19.283204,5.957031 c -0.185447,2.548802 -1.123766,4.818635 -2.121094,6.966797 0.456509,0.06114 0.926121,0.08167 1.402344,0.07031 0.481613,-2.229924 0.917471,-4.470499 0.761719,-7.021485 l 0.01758,-0.0039 c -0.01995,-0.0038 -0.04068,-0.0079 -0.06055,-0.01172 z m 57.107424,1.457032 c -0.40364,0.1276 -0.80322,0.261611 -1.19922,0.402343 0.57493,0.982353 1.05113,2.000815 1.31641,3.126953 0.35431,1.504289 0.0493,3.140337 -0.62305,4.738282 1.74819,-2.264701 1.94631,-4.993942 0.47461,-8.22461 z m -51.777346,7.054687 c 0.0028,0.01804 0.0054,0.03657 0.0078,0.05469 -0.0011,-0.01169 -0.0039,-0.05081 -0.0039,-0.05078 z M 66.537109,99.222656 c -0.605578,0.08107 -1.205389,0.145128 -1.798828,0.189453 3.15972,7.584161 8.113787,14.166421 14.414063,19.283201 -4.912014,-6.01919 -9.880578,-12.00189 -12.615235,-19.472654 z m 42.259771,1.117184 c -1.01029,0.5515 -0.69043,0.30766 -1.05469,0.75391 -2.16968,7.25745 -2.11718,21.08053 -1.96094,27.54883 0.75869,-9.30155 0.33452,-17.96605 3.01563,-28.30274 z m -16.464849,2.98828 c 2.00972,6.92499 2.523895,13.24532 3.00586,19.42774 0.04506,-5.88916 0.03149,-11.57053 -1.416016,-19.1582 0.01252,0.0656 -0.03706,-0.0534 -0.05273,-0.084 -0.429564,-0.0291 -1.036338,-0.14573 -1.53711,-0.18555 z m 43.570309,7.43555 c -3.3775,4.45405 -7.03288,11.07634 -9.81445,16.59375 0.48858,-0.1638 0.97262,-0.3365 1.45508,-0.51562 2.19593,-5.55578 5.35181,-10.79289 8.35937,-16.07813 z m -30.11718,18.10547 c 9.8e-4,0.0391 0.003,0.0942 0.004,0.13281 0.0469,0.005 0.0938,0.009 0.14063,0.0137 z" />
  </g>
</svg>
