<?xml version="1.0" encoding="UTF-8" standalone="no"?>
<!-- Created with Inkscape (http://www.inkscape.org/) -->

<svg
   xmlns:dc="http://purl.org/dc/elements/1.1/"
   xmlns:cc="http://creativecommons.org/ns#"
   xmlns:rdf="http://www.w3.org/1999/02/22-rdf-syntax-ns#"
   xmlns:svg="http://www.w3.org/2000/svg"
   xmlns="http://www.w3.org/2000/svg"
   xmlns:sodipodi="http://sodipodi.sourceforge.net/DTD/sodipodi-0.dtd"
   xmlns:inkscape="http://www.inkscape.org/namespaces/inkscape"
   width="210mm"
   height="297mm"
   viewBox="0 0 210 297"
   version="1.1"
   id="svg8"
   inkscape:version="0.92.5 (2060ec1f9f, 2020-04-08)"
   sodipodi:docname="pic_StaffAndLantern.svg">
  <defs
     id="defs2" />
  <sodipodi:namedview
     id="base"
     pagecolor="#ffffff"
     bordercolor="#666666"
     borderopacity="1.0"
     inkscape:pageopacity="0.0"
     inkscape:pageshadow="2"
     inkscape:zoom="0.9899495"
     inkscape:cx="-205.18228"
     inkscape:cy="382.13128"
     inkscape:document-units="mm"
     inkscape:current-layer="layer1"
     showgrid="false"
     inkscape:window-width="1920"
     inkscape:window-height="1015"
     inkscape:window-x="0"
     inkscape:window-y="0"
     inkscape:window-maximized="1" />
  <metadata
     id="metadata5">
    <rdf:RDF>
      <cc:Work
         rdf:about="">
        <dc:format>image/svg+xml</dc:format>
        <dc:type
           rdf:resource="http://purl.org/dc/dcmitype/StillImage" />
        <dc:title />
      </cc:Work>
    </rdf:RDF>
  </metadata>
  <g
     inkscape:label="Layer 1"
     inkscape:groupmode="layer"
     id="layer1">
    <flowRoot
       xml:space="preserve"
       id="flowRoot1141"
       style="font-style:normal;font-weight:normal;font-size:40px;line-height:0;font-family:sans-serif;letter-spacing:0px;word-spacing:0px;fill:#000000;fill-opacity:1;stroke:none"
       transform="matrix(0.15388578,0,0,0.15388578,103.29637,76.746378)"><flowRegion
         id="flowRegion1143"><rect
           id="rect1145"
           width="650.00006"
           height="387.14288"
           x="-70"
           y="1008.2339" /></flowRegion><flowPara
         id="flowPara1147"
         style="font-size:21.33333397px;line-height:1.20000005">Навершие посоха, принадлежавшего умершему торговцу из Сотрона. Так как Кхотлам ар'Люм не удалось найти его родственников и друзей, посох в числе прочих вещей умершего остался на складе Тхитронского Двора. </flowPara><flowPara
         style="font-size:21.33333397px;line-height:1.20000005"
         id="flowPara1151" /><flowPara
         style="font-size:21.33333397px;line-height:1.20000005"
         id="flowPara1153"> </flowPara><flowPara
         style="font-size:21.33333397px;line-height:1.20000005"
         id="flowPara1155">Видны традиционные красные ленты, лик Удивленного Лю с сотронской бородой, а также масленка-небултыхайка и крюк для фонаря.</flowPara><flowPara
         style="font-size:21.33333397px;line-height:1.20000005"
         id="flowPara1157">  </flowPara><flowPara
         style="font-size:21.33333397px;line-height:1.20000005"
         id="flowPara1149">Дерево Перьев, черное дерево, медь, бирюза, обсидиан, обожженная глина. </flowPara></flowRoot>    <path
       style="fill:#c83737;stroke:#000000;stroke-width:0.43361524;stroke-linecap:butt;stroke-linejoin:miter;stroke-miterlimit:4;stroke-dasharray:none;stroke-opacity:1"
       d="m 86.633253,143.4021 c 0,0 -1.854625,9.3779 -3.277925,13.93118 -0.801348,2.56358 -2.950132,7.49825 -2.950132,7.49825 0,0 2.049683,-1.50155 2.868183,-2.45845 1.690156,-1.97595 4.097406,-6.63779 4.097406,-6.63779 0,0 0.179122,3.92687 0.860455,5.73637 0.64081,1.70187 2.950132,4.58909 2.950132,4.58909 0,0 -0.932897,-4.73081 -1.106298,-7.12949 -0.204841,-2.8336 0.125076,-5.68193 0.08195,-8.52259 -0.02075,-1.36674 0.242198,-2.79224 -0.163897,-4.09742 -0.09118,-0.29306 -0.382825,-0.49153 -0.491687,-0.7785 -0.240513,-0.63402 -0.327795,-2.00773 -0.327795,-2.00773 z"
       id="path1121"
       inkscape:connector-curvature="0"
       sodipodi:nodetypes="cscscscsssscc" />
    <path
       style="fill:#c83737;stroke:#000000;stroke-width:0.43361524;stroke-linecap:butt;stroke-linejoin:miter;stroke-miterlimit:4;stroke-dasharray:none;stroke-opacity:1"
       d="m 89.175947,124.55814 c 0,0 -0.183029,2.42165 0.03867,3.60161 1.372007,7.3023 7.075397,13.46801 7.867018,20.8558 0.773786,7.22134 -3.195977,21.55235 -3.195977,21.55235 1.699196,-3.37576 3.592961,-6.03809 4.998835,-10.48936 -0.332816,1.73039 -0.250864,3.12896 -0.04098,4.4252 l 1.024352,-2.04871 c 0,0 0.677555,4.24199 2.130655,5.77734 0.39487,0.41721 1.96675,1.84384 1.96675,1.84384 0,0 -1.82563,-3.60917 -2.17162,-5.57247 -0.52163,-2.95993 0.18438,-9.66988 0.18438,-9.66988 l -0.67607,0.53266 c 0,0 -0.0871,-5.36895 -0.62044,-8.06195 -0.53555,-2.7044 -1.20696,-4.40496 -2.360729,-6.90885 -1.654029,-3.58954 -4.411374,-6.63774 -6.376687,-10.06676 -0.763108,-1.33145 -1.705145,-5.28324 -1.705145,-5.28324 z"
       id="path1111"
       inkscape:connector-curvature="0"
       sodipodi:nodetypes="cssccccscsccssscc" />
    <path
       style="fill:#782121;stroke:#000000;stroke-width:0.43361524;stroke-linecap:butt;stroke-linejoin:miter;stroke-miterlimit:4;stroke-dasharray:none;stroke-opacity:1"
       d="m 63.193269,213.476 c 4.835934,2.46399 7.286221,6.1208 8.894724,10.19851 -0.891511,-1.03262 -1.201388,-2.09476 -2.665521,-2.98423 0.574736,1.78984 0.378801,3.05917 0.405623,4.57775 -1.028858,-3.95896 -2.328891,-8.47791 -6.885893,-10.3283 z"
       id="path1009-0"
       inkscape:connector-curvature="0"
       sodipodi:nodetypes="cccccc" />
    <path
       style="fill:#782121;stroke:#000000;stroke-width:0.43361524;stroke-linecap:butt;stroke-linejoin:miter;stroke-miterlimit:4;stroke-dasharray:none;stroke-opacity:1"
       d="m 64.577842,210.83984 c 4.835934,2.46399 7.286221,6.1208 8.894724,10.19851 -0.891512,-1.03262 -1.201389,-2.09477 -2.665522,-2.98423 0.574736,1.78983 0.378801,3.05916 0.405624,4.57774 -1.028859,-3.95896 -2.328891,-8.4779 -6.885894,-10.3283 z"
       id="path1009-6"
       inkscape:connector-curvature="0"
       sodipodi:nodetypes="cccccc" />
    <path
       style="fill:#c83737;stroke:#000000;stroke-width:0.43361524;stroke-linecap:butt;stroke-linejoin:miter;stroke-miterlimit:4;stroke-dasharray:none;stroke-opacity:1"
       d="m 66.171359,210.05757 c 4.835934,2.46399 7.286221,6.1208 8.894724,10.19851 -0.891512,-1.03262 -1.201389,-2.09476 -2.665522,-2.98423 0.574736,1.78983 0.378801,3.05916 0.405624,4.57775 -1.028859,-3.95896 -2.328891,-8.47791 -6.885894,-10.3283 z"
       id="path1009"
       inkscape:connector-curvature="0"
       sodipodi:nodetypes="cccccc" />
    <path
       style="fill:#ac9393;stroke:#000000;stroke-width:0.43361524;stroke-linecap:butt;stroke-linejoin:miter;stroke-miterlimit:4;stroke-dasharray:none;stroke-opacity:1"
       d="m 51.354588,211.13221 c -0.79028,3.84443 -4.494451,5.38841 -7.17046,7.7441 2.687065,-2.62309 5.698586,-4.95123 7.252407,-8.60455 z"
       id="path1025"
       inkscape:connector-curvature="0"
       sodipodi:nodetypes="cccc" />
    <path
       style="fill:#ac9393;stroke:#000000;stroke-width:0.43361524;stroke-linecap:butt;stroke-linejoin:miter;stroke-miterlimit:4;stroke-dasharray:none;stroke-opacity:1"
       d="m 51.250245,215.85218 c -1.528004,3.64752 -3.952359,6.51076 -6.328586,9.41609 2.711685,-2.61736 5.293801,-5.32895 6.82113,-8.80766 z"
       id="path1021"
       inkscape:connector-curvature="0"
       sodipodi:nodetypes="cccc" />
    <path
       style="fill:#ac9393;stroke:#000000;stroke-width:0.43361524;stroke-linecap:butt;stroke-linejoin:miter;stroke-miterlimit:4;stroke-dasharray:none;stroke-opacity:1"
       d="m 51.661892,219.40898 c -0.954636,3.42478 -3.050018,6.1366 -4.814451,9.05526 2.108492,-2.70212 4.505654,-5.18775 5.79783,-8.50211 z"
       id="path1023"
       inkscape:connector-curvature="0"
       sodipodi:nodetypes="cccc" />
    <path
       style="fill:#ac9d93;stroke:#000000;stroke-width:0.43361524;stroke-linecap:butt;stroke-linejoin:miter;stroke-miterlimit:4;stroke-dasharray:none;stroke-opacity:1"
       d="m 52.206358,261.07908 c 0,0 -0.289462,-7.33488 -0.347678,-14.37063 -0.0438,-5.29349 0.387711,-10.58369 0.347676,-15.87722 -0.04736,-6.26229 -0.470612,-12.51609 -0.695351,-18.77452 -0.159523,-4.44236 -0.337198,-8.88418 -0.463569,-13.3276 -0.198825,-6.99104 -0.129764,-13.99058 -0.46357,-20.97648 -0.251432,-5.26195 -1.080046,-10.49396 -1.158921,-15.76133 -0.03995,-2.66774 0.289717,-5.32915 0.347677,-7.99656 0.04448,-2.04694 0.437505,-4.14214 0,-6.14228 -0.67225,-3.07331 -2.258476,-5.91735 -3.940332,-8.57602 -2.990653,-4.7276 -10.77797,-12.86403 -10.77797,-12.86403 0.738035,-0.0741 1.518669,-0.0204 2.365847,0.23299 0.863165,-0.53391 1.118651,-1.21974 1.110917,-1.97137 0,0 4.935059,6.05131 8.112449,8.22834 2.083889,1.42781 4.427429,3.00813 6.95353,3.0132 1.471011,0.003 2.756815,-1.04888 4.056225,-1.73838 3.852558,-2.04428 7.557641,-4.40406 11.009752,-7.06942 4.198106,-3.24136 11.705108,-10.77797 11.705108,-10.77797 l 1.970164,-0.92714 1.506601,-4.86747 c 0,0 2.442929,-9.76453 -0.115893,-13.443488 -1.426898,-2.051529 -3.855743,-3.65442 -6.459241,-4.428185 -0.69051,-1.329269 -1.707687,-1.314815 -1.953339,-0.416474 -1.291577,-0.166328 -2.575927,-0.111533 -3.756096,0.208973 -3.394357,0.921827 -5.577099,4.864846 -6.605853,8.228344 -0.404111,1.32123 -1.08409,1.54801 -1.390703,-0.23179 -0.596856,-3.464569 0.308337,-7.352351 2.20195,-10.314398 1.664613,-2.60384 4.430171,-4.769601 7.417097,-5.562822 0.772116,-0.205047 1.567187,-0.329913 2.373315,-0.384326 -0.02361,0.895387 0.922649,1.244582 2.02484,0.0047 2.324539,0.159222 4.658612,0.824235 6.72749,1.770378 3.830758,1.751889 7.315318,4.792583 9.387263,8.460125 1.199956,2.124035 1.384474,4.745767 1.390705,7.185313 0.0016,0.63013 0.149643,0.90354 0.934738,-0.016 2.925441,-3.426579 6.985234,-10.254419 6.366464,-15.629398 -0.24411,-2.120544 0.9742,-2.138121 2.31785,-0.231786 2.90764,4.125314 2.32065,10.085021 1.5066,15.065984 -0.69719,4.2659 -2.86231,8.27285 -5.33104,11.821 -2.324631,3.34103 -8.691914,8.57601 -8.691914,8.57601 l -2.781411,0.92714 -0.231786,2.43374 c 0,0 -8.362431,8.09555 -12.400459,12.28456 -3.206593,3.3265 -6.642704,6.48163 -9.387264,10.19851 -1.593959,2.15865 -2.890299,4.53669 -4.056225,6.95353 -0.648346,1.34395 -1.420754,2.69365 -1.622488,4.17211 -0.419901,3.07736 0.941963,3.55897 1.25493,6.64903 0.763054,7.53396 1.44477,17.66846 1.990048,25.22131 0.398135,5.5147 0.558811,11.04521 0.695354,16.57258 0.12784,5.17508 0.09658,10.35293 0.115893,15.52955 0.01485,3.97893 -0.01931,7.95797 0,11.93689 0.01931,3.9791 -0.01382,7.95985 0.115891,11.93689 0.0454,1.39211 0.08435,2.78709 0.231786,4.17212 0.07866,0.7389 0.24744,1.46566 0.347674,2.20194 0.687098,5.04714 -0.406092,10.09646 -0.11589,15.18188 0.248702,4.35818 0.463568,13.79117 0.463568,13.79117"
       id="path826"
       inkscape:connector-curvature="0"
       sodipodi:nodetypes="cssssssssscccsssscccsccsssssccsssssssscccsssssssssssssc" />
    <path
       style="fill:#000000;stroke:none;stroke-width:0.43361524;stroke-linecap:butt;stroke-linejoin:miter;stroke-miterlimit:4;stroke-dasharray:none;stroke-opacity:1"
       d="m 61.925894,135.45313 c 8.373111,-8.66384 17.775159,-16.6846 27.370673,-24.58444 l -13.711045,12.48424 16.825073,-11.33696 c -8.649398,6.94937 -18.82509,12.40233 -26.215163,21.17073 l 1.418827,-2.08265 c -2.491244,0.74954 -3.882385,3.05133 -5.688365,4.34908 z"
       id="path1129"
       inkscape:connector-curvature="0"
       sodipodi:nodetypes="ccccccc" />
    <path
       style="fill:#c83737;stroke:#000000;stroke-width:0.43361524;stroke-linecap:butt;stroke-linejoin:miter;stroke-miterlimit:4;stroke-dasharray:none;stroke-opacity:1"
       d="m 66.692875,213.9979 c 2.589202,3.0527 5.136741,6.26994 6.924554,12.48738 -0.880812,-1.32994 -1.414291,-2.76581 -2.404761,-3.85342 0.13551,1.35974 0.01133,3.00321 0.202812,4.46185 -1.121423,-4.36164 -2.11834,-8.6369 -5.273094,-12.63224 z"
       id="path1011"
       inkscape:connector-curvature="0"
       sodipodi:nodetypes="cccccc" />
    <path
       style="fill:#c8beb7;stroke:#000000;stroke-width:0.43361524;stroke-linecap:butt;stroke-linejoin:miter;stroke-miterlimit:4;stroke-dasharray:none;stroke-opacity:1"
       d="m 51.742788,216.46061 c 0.442321,4.67818 4.240024,8.48672 5.562823,11.76305 0.267658,0.66294 0.479875,1.56686 0.05795,2.144 -0.921589,1.26063 -2.21694,3.68238 -2.086061,3.70855 0.884301,1.59562 1.6446,3.25324 2.375791,4.92542 -1.119588,1.03425 -1.966211,2.4097 -2.781411,3.82444 1.741126,4.15593 2.962474,5.7936 3.766495,12.16868 0.680681,-6.38481 3.538079,-7.77821 4.288008,-12.40046 -0.548022,-1.48441 -1.267731,-2.90014 -2.20195,-4.23007 1.216347,-1.13027 1.883865,-2.60356 2.49168,-4.11416 0.259222,0 -0.621274,-2.5872 -1.390706,-3.99828 -0.312895,-0.57383 0.592582,-2.94254 0.869191,-3.53471 1.023422,-2.19098 2.473201,-4.27955 3.071143,-7.93862"
       id="path863"
       inkscape:connector-curvature="0"
       sodipodi:nodetypes="csscccccccssc" />
    <path
       style="fill:#c83737;stroke:#000000;stroke-width:0.43361524;stroke-linecap:butt;stroke-linejoin:miter;stroke-miterlimit:4;stroke-dasharray:none;stroke-opacity:1"
       d="m 66.433041,217.85197 c 3.5033,4.32886 4.860026,9.33559 6.350978,14.29994 -0.897145,-1.77367 -1.480832,-3.61003 -2.868182,-5.28565 0.160265,2.17163 -0.391502,4.34325 -0.737533,6.51487 -0.165317,-5.01713 -0.503173,-10.54668 -3.45354,-15.13535 z"
       id="path1013"
       inkscape:connector-curvature="0"
       sodipodi:nodetypes="cccccc" />
    <path
       style="fill:#e3dedb;stroke:#000000;stroke-width:0.43361524;stroke-linecap:butt;stroke-linejoin:miter;stroke-miterlimit:4;stroke-dasharray:none;stroke-opacity:1"
       d="m 60.087022,228.22365 c 0,0 -2.038748,-5.8735 -4.11417,-8.74984 -1.458796,-2.02176 -2.962535,-5.19887 -1.622491,-7.30121 1.959336,-3.07392 6.992403,-3.71312 8.923694,-0.69535 1.270399,1.98508 1.145527,4.94943 0.115894,7.06942 -1.525051,3.14003 -3.435673,9.6272 -3.302927,9.67698 z"
       id="path861"
       inkscape:connector-curvature="0"
       sodipodi:nodetypes="cssssc" />
    <path
       style="fill:#d35f5f;stroke:#000000;stroke-width:0.43361524;stroke-linecap:butt;stroke-linejoin:miter;stroke-miterlimit:4;stroke-dasharray:none;stroke-opacity:1"
       d="m 64.968496,220.25519 c 4.835934,2.464 7.28622,6.1208 8.894723,10.19851 -0.891511,-1.03262 -1.201388,-2.09476 -2.665521,-2.98422 0.574736,1.78983 0.378801,3.05916 0.405623,4.57774 -1.028858,-3.95896 -2.328891,-8.47791 -6.885893,-10.3283 z"
       id="path1009-3"
       inkscape:connector-curvature="0"
       sodipodi:nodetypes="cccccc" />
    <path
       style="fill:#6c5d53;stroke:#000000;stroke-width:0.43361524;stroke-linecap:butt;stroke-linejoin:miter;stroke-miterlimit:4;stroke-dasharray:none;stroke-opacity:1"
       d="m 50.554895,204.7555 c -0.368517,1.15828 0.384516,1.91192 1.15892,1.6225 6.509846,-6.16442 4.243753,-13.3069 -0.49254,-16.60156 -0.753121,-0.52389 -1.665702,1.4753 -0.912653,1.9412 z"
       id="path838"
       inkscape:connector-curvature="0"
       sodipodi:nodetypes="ccscc" />
    <path
       style="fill:#6c5d53;stroke:#000000;stroke-width:0.43361524;stroke-linecap:butt;stroke-linejoin:miter;stroke-miterlimit:4;stroke-dasharray:none;stroke-opacity:1"
       d="m 49.920496,170.2401 c 0.77973,3.26096 2.882278,6.33723 5.244679,9.30112 0.912055,-3.07204 1.669289,-6.09248 2.253573,-9.05527 1.567228,3.19598 2.6619,6.39195 3.933508,9.58793 1.495052,-2.32016 1.811269,-5.46551 2.253574,-8.5226 0.466721,2.30098 0.719689,4.63759 0.532664,7.04754 -0.02309,2.83309 -1.217727,5.54903 -2.294548,8.27676 -1.486786,-3.25158 -3.182963,-6.39846 -4.056431,-9.9567 -0.252304,3.12768 -1.060917,6.25538 -1.843832,9.38306 -2.03956,-3.22634 -4.577542,-6.23191 -5.5315,-9.87476 -0.36921,-1.9597 -0.559209,-4.00901 -0.491687,-6.18708 z"
       id="path828"
       inkscape:connector-curvature="0"
       sodipodi:nodetypes="ccccccccccc" />
    <path
       style="fill:#87aade;stroke:#000000;stroke-width:0.43361524;stroke-linecap:butt;stroke-linejoin:miter;stroke-miterlimit:4;stroke-dasharray:none;stroke-opacity:1"
       d="m 50.641812,190.7905 c 6.270894,2.89737 4.03042,13.51104 0.17384,14.77624 -5.899692,-3.84119 -5.125802,-11.63961 -0.17384,-14.77624 z"
       id="path830"
       inkscape:connector-curvature="0"
       sodipodi:nodetypes="ccc" />
    <path
       style="fill:#6c5d53;stroke:#000000;stroke-width:0.43361524;stroke-linecap:butt;stroke-linejoin:miter;stroke-miterlimit:4;stroke-dasharray:none;stroke-opacity:1"
       d="m 65.425693,189.11709 c 0.21318,-0.56039 -0.508263,-1.85501 -1.137581,-1.02109 -4.484026,5.94193 -4.096198,13.52382 0.931505,18.34928 0.413596,0.39695 1.576078,0.0769 1.184735,-0.99152 z"
       id="path1074"
       inkscape:connector-curvature="0"
       sodipodi:nodetypes="csscc" />
    <path
       style="fill:#87aade;stroke:#000000;stroke-width:0.43361524;stroke-linecap:butt;stroke-linejoin:miter;stroke-miterlimit:4;stroke-dasharray:none;stroke-opacity:1"
       d="m 64.954491,188.99417 c 6.9122,2.27664 8.267433,13.61077 0.7533,16.74641 -4.092797,-2.04632 -4.696839,-14.92012 -0.7533,-16.74641 z"
       id="path832"
       inkscape:connector-curvature="0"
       sodipodi:nodetypes="ccc" />
    <path
       style="fill:#000000;stroke:#000000;stroke-width:0.43361524;stroke-linecap:butt;stroke-linejoin:miter;stroke-miterlimit:4;stroke-dasharray:none;stroke-opacity:1"
       d="m 48.584727,194.1224 c 3.217636,0.12523 2.676407,7.92554 -0.144866,8.17039 -1.623215,0.14088 -2.196422,-8.26151 0.144866,-8.17039 z"
       id="path834"
       inkscape:connector-curvature="0"
       sodipodi:nodetypes="sss" />
    <path
       style="fill:#000000;stroke:#000000;stroke-width:0.43361524;stroke-linecap:butt;stroke-linejoin:miter;stroke-miterlimit:4;stroke-dasharray:none;stroke-opacity:1"
       d="m 68.489203,192.58683 c -2.975589,-0.0683 -2.953496,8.80677 0.49254,8.63396 2.201394,-0.11039 1.88294,-8.57944 -0.49254,-8.63396 z"
       id="path836"
       inkscape:connector-curvature="0"
       sodipodi:nodetypes="sss" />
    <path
       style="fill:#483e37;stroke:#000000;stroke-width:0.43361524;stroke-linecap:butt;stroke-linejoin:miter;stroke-miterlimit:4;stroke-dasharray:none;stroke-opacity:1"
       d="m 59.80355,224.71231 c 0.0051,-5.55041 3.409605,-6.8047 2.67911,-10.32801 -0.321929,-1.55272 -1.86377,-3.06515 -3.44182,-2.90916 -1.690854,0.16715 -3.474589,2.1502 -3.11403,3.8106 0.39972,1.84074 1.590272,2.466 3.192831,1.79655 -1.151554,-0.24394 -2.224157,-1.09044 -1.553868,-2.28825 0.330268,-0.59018 0.798776,-0.97768 1.475066,-0.98337 0.850724,-0.007 1.879299,0.87017 1.884807,1.72091 0.01778,2.74648 -2.693494,3.29315 -1.122096,9.18073 z"
       id="path859"
       inkscape:connector-curvature="0"
       sodipodi:nodetypes="cssscsssc" />
    <path
       style="fill:#241f1c;stroke:#000000;stroke-width:0.43361524;stroke-linecap:butt;stroke-linejoin:miter;stroke-miterlimit:4;stroke-dasharray:none;stroke-opacity:1"
       d="m 59.391669,231.46864 c -0.783736,0.68192 -1.44834,1.51242 -1.854274,2.66552 0.82351,1.18613 1.289547,2.2829 1.680437,3.36087 0.9444,-0.98713 1.905046,-1.95803 2.317842,-3.47677 -0.38323,-1.01559 -1.360204,-1.73431 -2.144005,-2.54962 z"
       id="path865"
       inkscape:connector-curvature="0"
       sodipodi:nodetypes="ccccc" />
    <path
       style="fill:#241f1c;stroke:#000000;stroke-width:0.43361524;stroke-linecap:butt;stroke-linejoin:miter;stroke-miterlimit:4;stroke-dasharray:none;stroke-opacity:1"
       d="m 59.043992,240.91385 c -0.668963,0.68501 -1.348744,1.32676 -1.912221,2.43373 0.869782,1.00803 1.586307,2.07736 1.912221,3.30293 0.400008,-1.17139 0.904124,-2.29072 1.738384,-3.24498 -0.255757,-0.99242 -0.827062,-1.82706 -1.738384,-2.49168 z"
       id="path867"
       inkscape:connector-curvature="0"
       sodipodi:nodetypes="ccccc" />
    <path
       style="fill:#6c5d53;stroke:#000000;stroke-width:0.43361524;stroke-linecap:butt;stroke-linejoin:miter;stroke-miterlimit:4;stroke-dasharray:none;stroke-opacity:1"
       d="m 52.032519,223.70386 c -1.447915,0.67183 -2.445737,2.48811 -1.535571,4.0852 0.976843,1.71409 2.680059,1.80051 4.143143,2.86834 0.586007,0.42769 0.61723,-0.56272 0.463569,-0.98509 -0.484882,-1.33279 -3.14107,-1.67428 -3.071141,-5.96845 z"
       id="path869"
       inkscape:connector-curvature="0"
       sodipodi:nodetypes="csssc" />
    <path
       style="fill:#6c5d53;stroke:#000000;stroke-width:0.43361524;stroke-linecap:butt;stroke-linejoin:miter;stroke-miterlimit:4;stroke-dasharray:none;stroke-opacity:1"
       d="m 52.195537,232.83564 c -1.447914,0.67182 -2.445736,2.4881 -1.53557,4.08519 0.976843,1.71409 2.680059,1.80051 4.143142,2.86834 0.586008,0.42769 0.617231,-0.56272 0.46357,-0.98509 -0.484883,-1.33278 -3.14107,-1.67427 -3.071142,-5.96844 z"
       id="path869-3"
       inkscape:connector-curvature="0"
       sodipodi:nodetypes="csssc" />
    <path
       style="fill:#6c5d53;stroke:#000000;stroke-width:0.43361524;stroke-linecap:butt;stroke-linejoin:miter;stroke-miterlimit:4;stroke-dasharray:none;stroke-opacity:1"
       d="m 51.867745,241.57129 c -1.447914,0.67183 -2.279241,3.59848 -0.839012,4.74078 1.53994,1.22138 2.890198,3.3478 4.061195,4.6712 0.480752,0.54333 0.584502,-0.55221 0.463569,-0.98509 -1.345337,-4.81558 -3.755681,-4.13272 -3.685752,-8.42689 z"
       id="path869-6"
       inkscape:connector-curvature="0"
       sodipodi:nodetypes="csssc" />
    <path
       style="fill:#6c5d53;stroke:#000000;stroke-width:0.43361524;stroke-linecap:butt;stroke-linejoin:miter;stroke-miterlimit:4;stroke-dasharray:none;stroke-opacity:1"
       d="m 65.796963,223.2477 c 1.447914,0.67183 2.356651,2.70747 1.494596,4.33104 -0.649051,1.2224 -1.409863,1.80051 -2.340284,2.90931 -0.466339,0.55575 -0.617231,-0.56272 -0.463569,-0.98508 0.484882,-1.33279 1.379185,-1.9611 1.309257,-6.25527 z"
       id="path869-7"
       inkscape:connector-curvature="0"
       sodipodi:nodetypes="csssc" />
    <path
       style="fill:#6c5d53;stroke:#000000;stroke-width:0.43361524;stroke-linecap:butt;stroke-linejoin:miter;stroke-miterlimit:4;stroke-dasharray:none;stroke-opacity:1"
       d="m 65.751577,232.34114 c 1.447914,0.67183 2.356651,2.70747 1.494596,4.33104 -0.649051,1.2224 -2.229343,1.80051 -3.159764,2.90931 -0.466339,0.55575 -0.617231,-0.56272 -0.46357,-0.98508 0.484883,-1.33279 2.198666,-1.9611 2.128738,-6.25527 z"
       id="path869-7-5"
       inkscape:connector-curvature="0"
       sodipodi:nodetypes="csssc" />
    <path
       style="fill:#6c5d53;stroke:#000000;stroke-width:0.43361524;stroke-linecap:butt;stroke-linejoin:miter;stroke-miterlimit:4;stroke-dasharray:none;stroke-opacity:1"
       d="m 65.824718,241.95912 c 1.447914,0.67183 2.095894,2.30185 1.233839,3.92541 -0.64905,1.22241 -3.599812,4.78217 -4.530233,5.89098 -0.466338,0.55575 -0.617231,-0.56272 -0.463569,-0.98509 0.484882,-1.33278 3.829892,-4.53713 3.759963,-8.8313 z"
       id="path869-7-3"
       inkscape:connector-curvature="0"
       sodipodi:nodetypes="csssc" />
    <path
       style="fill:#ac9393;stroke:#000000;stroke-width:0.43361524;stroke-linecap:butt;stroke-linejoin:miter;stroke-miterlimit:4;stroke-dasharray:none;stroke-opacity:1"
       d="m 65.72348,209.63588 c 0,0 0.688102,0.66854 0.655585,1.20873 -0.03436,0.57082 -0.67607,1.02436 -0.67607,1.02436 -0.398533,-0.72241 -0.770929,-1.4025 0.02048,-2.23309 z"
       id="path928-5"
       inkscape:connector-curvature="0"
       sodipodi:nodetypes="cscc" />
    <path
       style="fill:#677821;stroke:#000000;stroke-width:0.43361524;stroke-linecap:butt;stroke-linejoin:miter;stroke-miterlimit:4;stroke-dasharray:none;stroke-opacity:1"
       d="m 53.802511,221.11565 c -0.43386,-0.10304 -0.922799,0.5828 -0.860456,1.02435 0.07361,0.52137 0.775874,0.93491 1.208736,0.6351 0.536512,-0.37159 0.286683,-1.50864 -0.34828,-1.65945 z"
       id="path945-2"
       inkscape:connector-curvature="0"
       sodipodi:nodetypes="ssss" />
    <path
       style="fill:#ac9393;stroke:#000000;stroke-width:0.43361524;stroke-linecap:butt;stroke-linejoin:miter;stroke-miterlimit:4;stroke-dasharray:none;stroke-opacity:1"
       d="m 65.951873,212.8389 c 0.43386,-0.10305 0.9228,0.58279 0.860456,1.02434 -0.07361,0.52137 -0.775874,0.93491 -1.208735,0.63511 -0.536513,-0.37159 -0.286684,-1.50864 0.348279,-1.65945 z"
       id="path945-9"
       inkscape:connector-curvature="0"
       sodipodi:nodetypes="ssss" />
    <path
       style="fill:#ac9393;stroke:#000000;stroke-width:0.43361524;stroke-linecap:butt;stroke-linejoin:miter;stroke-miterlimit:4;stroke-dasharray:none;stroke-opacity:1"
       d="m 65.82197,216.59444 c -0.43386,-0.10304 -0.922799,0.5828 -0.860456,1.02435 0.07361,0.52137 0.775874,0.93491 1.208736,0.6351 0.536512,-0.37159 0.286684,-1.50864 -0.34828,-1.65945 z"
       id="path945-1"
       inkscape:connector-curvature="0"
       sodipodi:nodetypes="ssss" />
    <path
       style="fill:#ac9393;stroke:#000000;stroke-width:0.43361524;stroke-linecap:butt;stroke-linejoin:miter;stroke-miterlimit:4;stroke-dasharray:none;stroke-opacity:1"
       d="m 64.968496,220.25519 c 0.433859,-0.10304 0.922799,0.5828 0.860455,1.02435 -0.07361,0.52137 -0.775874,0.93491 -1.208735,0.63511 -0.536512,-0.37159 -0.286684,-1.50865 0.34828,-1.65946 z"
       id="path945-27"
       inkscape:connector-curvature="0"
       sodipodi:nodetypes="ssss" />
    <path
       style="fill:#ac9393;stroke:#000000;stroke-width:0.43361524;stroke-linecap:butt;stroke-linejoin:miter;stroke-miterlimit:4;stroke-dasharray:none;stroke-opacity:1"
       d="m 50.780951,212.73021 c -1.836032,4.38001 -4.299561,7.62265 -7.177652,11.0648 l 0.457905,0.32598 c 3.073332,-3.207 5.620741,-6.83496 7.498252,-10.69422 z"
       id="path1015"
       inkscape:connector-curvature="0"
       sodipodi:nodetypes="ccccc" />
    <path
       style="fill:#c83737;stroke:#000000;stroke-width:0.43361524;stroke-linecap:butt;stroke-linejoin:miter;stroke-miterlimit:4;stroke-dasharray:none;stroke-opacity:1"
       d="m 42.978445,223.80527 c 0,0 0.979572,-0.39659 1.144434,0.0724 0.167639,0.47693 -0.549496,1.21047 -1.043027,1.10098 -0.447231,-0.0992 -0.514239,-0.8463 -0.101407,-1.17341 z"
       id="path986"
       inkscape:connector-curvature="0"
       sodipodi:nodetypes="ssss" />
    <path
       style="fill:#ac9393;stroke:#000000;stroke-width:0.43361524;stroke-linecap:butt;stroke-linejoin:miter;stroke-miterlimit:4;stroke-dasharray:none;stroke-opacity:1"
       d="m 51.250245,215.85218 c -1.159344,4.53002 -3.540883,8.65265 -6.329481,12.63959 l 0.694226,0.31135 c 2.798184,-3.93787 4.966558,-8.02269 6.127799,-12.34251 z"
       id="path1017"
       inkscape:connector-curvature="0"
       sodipodi:nodetypes="ccccc" />
    <path
       style="fill:#c83737;stroke:#000000;stroke-width:0.43361524;stroke-linecap:butt;stroke-linejoin:miter;stroke-miterlimit:4;stroke-dasharray:none;stroke-opacity:1"
       d="m 44.515143,228.52076 c 0,0 0.979572,-0.3966 1.144434,0.0724 0.167638,0.47693 -0.549496,1.21046 -1.043027,1.10098 -0.447231,-0.0992 -0.514239,-0.8463 -0.101407,-1.17341 z"
       id="path986-0"
       inkscape:connector-curvature="0"
       sodipodi:nodetypes="ssss" />
    <path
       style="fill:#ac9393;stroke:#000000;stroke-width:0.43361524;stroke-linecap:butt;stroke-linejoin:miter;stroke-miterlimit:4;stroke-dasharray:none;stroke-opacity:1"
       d="m 51.661892,219.40898 c -0.78035,4.98249 -3.005918,9.04487 -4.916678,13.18846 l 0.63489,0.16908 c 1.572847,-3.86972 3.701848,-7.06069 5.265167,-12.80439 z"
       id="path1019"
       inkscape:connector-curvature="0"
       sodipodi:nodetypes="ccccc" />
    <path
       style="fill:#c83737;stroke:#000000;stroke-width:0.43361524;stroke-linecap:butt;stroke-linejoin:miter;stroke-miterlimit:4;stroke-dasharray:none;stroke-opacity:1"
       d="m 46.253525,232.57698 c 0,0 0.979573,-0.3966 1.144435,0.0724 0.167638,0.47693 -0.549496,1.21046 -1.043028,1.10098 -0.447231,-0.0992 -0.514239,-0.8463 -0.101407,-1.17341 z"
       id="path986-9"
       inkscape:connector-curvature="0"
       sodipodi:nodetypes="ssss" />
    <path
       style="fill:#6c5d53;stroke:#000000;stroke-width:0.43361524;stroke-linecap:butt;stroke-linejoin:miter;stroke-miterlimit:4;stroke-dasharray:none;stroke-opacity:1"
       d="m 49.264909,162.16822 c -1.478269,0.61918 -0.8132,3.71154 0.368768,4.79396 0.906585,0.83022 3.699849,1.1883 3.687666,-0.0409 -0.01618,-1.63281 -2.226798,-5.5194 -4.056434,-4.75303 z"
       id="path1054"
       inkscape:connector-curvature="0"
       sodipodi:nodetypes="ssss" />
    <path
       style="fill:#6c5d53;stroke:#000000;stroke-width:0.43361524;stroke-linecap:butt;stroke-linejoin:miter;stroke-miterlimit:4;stroke-dasharray:none;stroke-opacity:1"
       d="m 50.248286,148.6058 c -1.948519,-3.64231 -3.266751,2.58863 -1.884806,5.03981 2.305498,4.08931 7.862714,5.86043 14.054103,11.24387 3.07605,2.67463 1.265189,-4.43543 -0.709414,-6.08767 -3.886947,-3.25239 -8.919023,-5.44645 -11.459883,-10.19601 z"
       id="path1056"
       inkscape:connector-curvature="0"
       sodipodi:nodetypes="sssss" />
    <path
       style="fill:#000000;stroke:none;stroke-width:0.43361524;stroke-linecap:butt;stroke-linejoin:miter;stroke-miterlimit:4;stroke-dasharray:none;stroke-opacity:1"
       d="m 49.387833,153.48171 c 4.130588,4.18137 7.804377,6.07874 11.636632,8.76845 -3.744941,-2.97639 -7.372342,-5.9998 -11.636632,-8.76845 z"
       id="path1131"
       inkscape:connector-curvature="0"
       sodipodi:nodetypes="ccc" />
    <path
       style="fill:#6c5d53;stroke:#000000;stroke-width:0.43361524;stroke-linecap:butt;stroke-linejoin:miter;stroke-miterlimit:4;stroke-dasharray:none;stroke-opacity:1"
       d="m 64.027354,152.54609 c -4.287077,-4.62001 -3.864414,-10.77964 -1.274814,-13.73322 3.428679,-3.91058 11.175836,-0.87554 15.64544,-3.53471 0.939314,-0.55884 2.259898,-2.37579 2.259898,-2.37579 0,0 0.119228,4.41542 -2.028114,6.08434 -3.159287,2.4554 -7.817957,0.11098 -11.47332,1.73838 -0.91093,0.40556 -2.418447,1.39676 -2.607573,2.37579 -0.356495,1.84544 0.873902,3.84331 1.854274,5.44693 1.123066,1.83702 -0.350827,6.1805 -2.375791,3.99828 z"
       id="path1058"
       inkscape:connector-curvature="0"
       sodipodi:nodetypes="ssscsssss" />
    <path
       style="fill:#677821;stroke:#000000;stroke-width:0.43361524;stroke-linecap:butt;stroke-linejoin:miter;stroke-miterlimit:4;stroke-dasharray:none;stroke-opacity:1"
       d="m 52.090465,157.70329 c -0.551813,0.84961 -0.902844,0.50578 -1.158922,0.23178 -1.627672,-1.74155 -2.020844,-6.91777 2.549626,-6.2292 1.054158,0.15881 0.687764,0.5974 0.579463,1.15892 -2.63748,-0.41436 -5.054199,0.53304 -1.970167,4.8385 z"
       id="path1060"
       inkscape:connector-curvature="0"
       sodipodi:nodetypes="csscc" />
    <path
       style="fill:#677821;stroke:#000000;stroke-width:0.43361524;stroke-linecap:butt;stroke-linejoin:miter;stroke-miterlimit:4;stroke-dasharray:none;stroke-opacity:1"
       d="m 59.275779,156.74718 c -0.5885,1.48946 -1.46102,2.86532 -2.433737,4.20109 -0.589811,0.24166 -1.151979,0.43632 -0.985082,-0.60844 1.17566,-1.3862 2.163679,-2.79584 2.723465,-4.25903 0.626696,-0.26391 1.063889,-0.29459 0.695354,0.66638 z"
       id="path1062"
       inkscape:connector-curvature="0"
       sodipodi:nodetypes="ccccc" />
    <path
       style="fill:#677821;stroke:#000000;stroke-width:0.43361524;stroke-linecap:butt;stroke-linejoin:miter;stroke-miterlimit:4;stroke-dasharray:none;stroke-opacity:1"
       d="m 64.876027,143.2382 c -0.721944,-1.17716 -1.620979,-1.80916 -2.822667,-2.60743 1.349974,-0.10804 2.563196,0.61332 3.519226,1.37821 0,0 0.344307,0.59139 0.286818,0.90143 -0.03189,0.17197 -0.165743,0.34391 -0.327792,0.40974 -0.204037,0.0829 -0.655585,-0.082 -0.655585,-0.082 z"
       id="path1064"
       inkscape:connector-curvature="0"
       sodipodi:nodetypes="cccssc" />
    <path
       style="fill:#d38d5f;stroke:#000000;stroke-width:0.43361524;stroke-linecap:butt;stroke-linejoin:miter;stroke-miterlimit:4;stroke-dasharray:none;stroke-opacity:1"
       d="m 42.913931,129.55286 c 0,0 2.362708,-3.70786 2.581365,-5.81831 0.08061,-0.77805 -0.161992,-1.58521 -0.491689,-2.29455 -1.034042,-2.22471 -4.507146,-5.81832 -4.507146,-5.81832 2.71908,1.44829 5.523085,1.12431 8.405153,0.8236 -2.778107,0.003 -5.358579,-0.0844 -8.241256,-1.47918 -0.489405,-0.14682 5.140478,-3.27481 8.440656,-3.52377 0.674126,-0.0508 1.264735,-0.39676 1.352143,-1.18825 0.173932,-1.57499 0.180652,-3.1715 0.08195,-4.75299 -0.02407,-0.38556 -0.163897,-1.14727 -0.163897,-1.14727 0,0 1.76328,-0.47619 2.663313,-0.45072 0.798179,0.0226 2.335523,0.53267 2.335523,0.53267 0,0 -0.424924,0.39165 -0.450715,0.65558 -0.169812,1.73773 0.07737,3.62795 0.286818,5.40858 0.07547,0.64163 0.607341,0.94768 1.147274,0.90143 3.672517,-0.3146 9.192583,1.82372 9.342086,2.00773 0,0 0.550965,0.37461 0.532661,0.65558 -0.02323,0.35671 -0.778505,0.73753 -0.778505,0.73753 -2.369509,1.20101 -5.540904,1.22987 -8.069051,1.51065 2.219264,-0.17166 5.568178,0.52213 7.823206,-0.93701 0,0 -2.891787,2.45243 -3.3189,4.17935 -0.230244,0.93094 0.197225,1.92881 0.532663,2.82721 0.890657,2.38545 3.793618,6.50991 3.793618,6.50991 0.0228,0.0365 -2.658013,3.34848 -4.449203,3.40581 -1.244716,0.0399 -1.266242,0.91224 -2.396982,1.4341 -1.620173,0.74774 -3.038054,2.00283 -4.814451,2.17162 -2.309252,0.21942 -6.206197,-0.0651 -8.235786,-1.18824 -1.915754,-1.0602 -3.400851,-5.16274 -3.400851,-5.16274 z"
       id="path1066"
       inkscape:connector-curvature="0"
       sodipodi:nodetypes="csscccssscscssssssccsscssssc" />
    <path
       style="fill:#784421;stroke:#000000;stroke-width:0.43361524;stroke-linecap:butt;stroke-linejoin:miter;stroke-miterlimit:4;stroke-dasharray:none;stroke-opacity:1"
       d="m 54.468615,128.97923 c -1.716558,0.0496 -3.211781,1.73931 -3.974482,3.27792 -1.428465,2.88167 -6.20044,-0.98547 -7.263355,-3.90144 -0.154386,-0.42354 -0.479879,0.92122 -0.439752,1.09555 0.536071,2.32901 2.831396,8.57911 11.411258,6.4321 0.373466,-0.0935 2.077433,0.0969 3.809052,-1.14997 1.546617,-1.11363 4.270031,-2.76278 5.60838,-2.9644 2.429308,-0.36599 2.304746,-2.77353 2.743761,-2.93384 0.412112,-0.15048 -1.563103,-2.64347 -1.296791,-1.52364 0.540419,2.27244 -6.269162,5.46852 -6.623587,4.57688 -0.606459,-1.5257 -2.333364,-2.9566 -3.974484,-2.90916 z"
       id="path1068"
       inkscape:connector-curvature="0"
       sodipodi:nodetypes="sssssssssss" />
    <path
       style="fill:#28170b;stroke:#000000;stroke-width:0.43361524;stroke-linecap:butt;stroke-linejoin:miter;stroke-miterlimit:4;stroke-dasharray:none;stroke-opacity:1"
       d="m 54.550565,130.45429 c -0.832565,-0.005 -1.840033,0.80759 -1.884809,1.63897 -0.04106,0.7624 0.796802,1.6091 1.557016,1.67993 0.913878,0.0851 2.171107,-0.72206 2.212598,-1.63896 0.03805,-0.84074 -1.043217,-1.67478 -1.884805,-1.67994 z"
       id="path1070"
       inkscape:connector-curvature="0"
       sodipodi:nodetypes="sssss" />
    <path
       style="fill:#6c5d53;stroke:#000000;stroke-width:0.43361524;stroke-linecap:butt;stroke-linejoin:miter;stroke-miterlimit:4;stroke-dasharray:none;stroke-opacity:1"
       d="m 77.700907,118.89961 c -1.680065,-0.32856 -3.858783,-0.69569 -5.449548,0.53266 -1.29308,0.99849 -2.21059,2.79364 -2.294548,4.4252 -0.16393,3.18567 3.247843,7.10586 7.047537,7.82604 1.579871,0.29945 1.688795,-0.0281 1.106301,-0.32779 -2.759967,-1.42021 -7.481171,-6.07272 -3.93351,-9.01429 1.892426,-1.56912 3.523768,-3.44182 3.523768,-3.44182 z"
       id="path1072"
       inkscape:connector-curvature="0"
       sodipodi:nodetypes="csssssc" />
    <path
       style="fill:#ffffff;stroke:none;stroke-width:0.43361524;stroke-linecap:butt;stroke-linejoin:miter;stroke-miterlimit:4;stroke-dasharray:none;stroke-opacity:1"
       d="m 66.960663,193.76357 c -0.471056,-0.0136 -1.947011,0.91198 -1.927487,1.38283 0.0207,0.49925 1.451205,1.18715 1.949429,1.14897 0.403174,-0.0309 0.784741,-0.52279 0.782273,-0.92713 -0.0029,-0.47243 -0.331976,-1.59101 -0.804215,-1.60467 z"
       id="path1076"
       inkscape:connector-curvature="0"
       sodipodi:nodetypes="sssss" />
    <path
       style="fill:#ffffff;stroke:none;stroke-width:0.43361524;stroke-linecap:butt;stroke-linejoin:miter;stroke-miterlimit:4;stroke-dasharray:none;stroke-opacity:1"
       d="m 50.844893,194.86032 c -0.471055,-0.0136 -2.134556,1.44138 -2.115032,1.91222 0.0207,0.49926 1.616807,-0.36745 2.259896,0.0869 0.330243,0.23332 0.784741,-0.5228 0.782273,-0.92714 -0.0029,-0.47243 -0.454898,-1.05834 -0.927137,-1.072 z"
       id="path1076-6"
       inkscape:connector-curvature="0"
       sodipodi:nodetypes="sssss" />
    <path
       style="fill:#677821;stroke:#000000;stroke-width:0.43361524;stroke-linecap:butt;stroke-linejoin:miter;stroke-miterlimit:4;stroke-dasharray:none;stroke-opacity:1"
       d="m 51.354588,211.13221 c 0,0 -0.811024,0.64806 -0.778508,1.18826 0.03436,0.57081 0.983376,1.1063 0.983376,1.1063 0.398533,-0.72241 0.586546,-1.46397 -0.204868,-2.29456 z"
       id="path928"
       inkscape:connector-curvature="0"
       sodipodi:nodetypes="cscc" />
    <path
       style="fill:#677821;stroke:#000000;stroke-width:0.43361524;stroke-linecap:butt;stroke-linejoin:miter;stroke-miterlimit:4;stroke-dasharray:none;stroke-opacity:1"
       d="m 51.620919,214.90183 c -0.43386,-0.10304 -0.922799,0.5828 -0.860456,1.02435 0.07361,0.52137 0.775874,0.93491 1.208736,0.63511 0.536512,-0.3716 0.286683,-1.50865 -0.34828,-1.65946 z"
       id="path945"
       inkscape:connector-curvature="0"
       sodipodi:nodetypes="ssss" />
    <path
       style="fill:#677821;stroke:#000000;stroke-width:0.43361524;stroke-linecap:butt;stroke-linejoin:miter;stroke-miterlimit:4;stroke-dasharray:none;stroke-opacity:1"
       d="m 52.450367,218.24746 c -0.43386,-0.10305 -0.922799,0.58279 -0.860456,1.02435 0.07361,0.52137 0.775874,0.9349 1.208735,0.6351 0.536513,-0.37159 0.286684,-1.50864 -0.348279,-1.65945 z"
       id="path945-6"
       inkscape:connector-curvature="0"
       sodipodi:nodetypes="ssss" />
    <path
       style="fill:#784421;stroke:#000000;stroke-width:0.43361524;stroke-linecap:butt;stroke-linejoin:miter;stroke-miterlimit:4;stroke-dasharray:none;stroke-opacity:1"
       d="m 49.633677,129.14312 c 0,0 -0.763079,-1.90908 -0.737533,-2.90916 0.02956,-1.15741 1.03731,-2.16117 1.024352,-3.31889 -0.01837,-1.64114 -1.557015,-4.67105 -1.557015,-4.67105 0,0 2.994268,2.60982 3.400847,4.4252 0.238291,1.06398 -0.776414,2.10857 -0.696558,3.19598 0.04812,0.65524 0.696558,1.84383 0.696558,1.84383 l 1.475066,-1.18825 1.065326,1.06533 1.270195,-1.14727 1.024352,1.27019 c 0,0 1.458877,-1.63966 1.557013,-2.66331 0.102232,-1.06638 -1.170572,-1.966 -1.065324,-3.03208 0.160631,-1.62707 2.499417,-4.22033 2.499417,-4.22033 0,0 -1.179225,2.82927 -1.065325,4.30228 0.106188,1.37326 1.727215,2.4393 1.597988,3.81058 -0.118349,1.25587 -2.089677,3.155 -2.089677,3.155 0,0 -0.862825,0.0275 -1.229221,-0.16389 -0.574115,-0.29987 -1.311171,-1.43409 -1.311171,-1.43409 l -1.024352,1.51604 -1.270195,-1.47507 c 0,0 -0.711346,1.22176 -1.311171,1.51604 -0.6754,0.33136 -2.253572,0.12292 -2.253572,0.12292 z"
       id="path1093"
       inkscape:connector-curvature="0"
       sodipodi:nodetypes="csscsscccccsscsscscccsc" />
    <path
       style="fill:#784421;stroke:#000000;stroke-width:0.43361524;stroke-linecap:butt;stroke-linejoin:miter;stroke-miterlimit:4;stroke-dasharray:none;stroke-opacity:1"
       d="m 54.181796,124.88182 c 0,0 -0.519464,-1.7679 -0.860455,-2.62234 -0.532156,-1.33345 -1.843832,-3.89253 -1.843832,-3.89253 0,0 1.265345,1.81594 2.663315,1.72091 1.251421,-0.0851 2.376496,-1.72091 2.376496,-1.72091 0,0 -1.179787,2.58934 -1.638964,3.93351 -0.288104,0.84338 -0.69656,2.58136 -0.69656,2.58136 z"
       id="path1095"
       inkscape:connector-curvature="0"
       sodipodi:nodetypes="cscscsc" />
    <path
       style="fill:#784421;stroke:#000000;stroke-width:0.43361524;stroke-linecap:butt;stroke-linejoin:miter;stroke-miterlimit:4;stroke-dasharray:none;stroke-opacity:1"
       d="m 50.583866,110.07162 c 1.56463,0.6193 3.090371,0.69414 4.577741,0.23178 l -0.231784,-1.33275 c -1.467967,0.69228 -2.935934,0.45613 -4.403901,0 z"
       id="path1097"
       inkscape:connector-curvature="0"
       sodipodi:nodetypes="ccccc" />
    <path
       style="fill:#784421;stroke:#000000;stroke-width:0.43361524;stroke-linecap:butt;stroke-linejoin:miter;stroke-miterlimit:4;stroke-dasharray:none;stroke-opacity:1"
       d="m 50.612839,107.0874 -0.02897,0.95611 c 1.429336,0.67913 2.858672,0.76677 4.288009,-0.17384 l -0.02897,-1.12995 c -1.790125,1.16118 -3.049969,0.86409 -4.230061,0.34768 z"
       id="path1099"
       inkscape:connector-curvature="0"
       sodipodi:nodetypes="ccccc" />
    <path
       style="fill:#c83737;stroke:#000000;stroke-width:0.43361524;stroke-linecap:butt;stroke-linejoin:miter;stroke-miterlimit:4;stroke-dasharray:none;stroke-opacity:1"
       d="m 81.347599,115.99045 c 3.45508,1.99725 5.637674,4.90342 7.992244,7.68675 l 0.01819,-0.90554 c -2.235352,-2.88898 -4.660186,-5.37531 -6.494391,-9.11673 0.223039,0.87426 -1.302391,1.51127 -1.516039,2.33552 z"
       id="path1103"
       inkscape:connector-curvature="0"
       sodipodi:nodetypes="ccccc" />
    <path
       style="fill:#c83737;stroke:#000000;stroke-width:0.43361524;stroke-linecap:butt;stroke-linejoin:miter;stroke-miterlimit:4;stroke-dasharray:none;stroke-opacity:1"
       d="m 91.158972,122.55112 c 0.544041,0.26363 0.830477,0.90539 0.552119,1.44204 -0.327593,0.63158 -1.184315,1.46715 -1.810817,1.12995 -0.501909,-0.27013 -0.299814,-1.20032 -0.04346,-1.70941 0.32115,-0.63775 0.659576,-1.17396 1.302155,-0.86258 z"
       id="path1107"
       inkscape:connector-curvature="0"
       sodipodi:nodetypes="sssss" />
    <path
       style="fill:#c83737;stroke:#000000;stroke-width:0.43361524;stroke-linecap:butt;stroke-linejoin:miter;stroke-miterlimit:4;stroke-dasharray:none;stroke-opacity:1"
       d="m 89.856815,123.4137 c 0.516823,-0.39018 1.771935,-0.0629 1.854274,0.57946 0.09047,0.70571 -1.184313,1.46714 -1.810815,1.12995 -0.50191,-0.27013 -0.498365,-1.36597 -0.04346,-1.70941 z"
       id="path1109"
       inkscape:connector-curvature="0"
       sodipodi:nodetypes="ssss" />
    <path
       style="fill:#c83737;stroke:#000000;stroke-width:0.43361524;stroke-linecap:butt;stroke-linejoin:miter;stroke-miterlimit:4;stroke-dasharray:none;stroke-opacity:1"
       d="m 89.358028,122.77166 c 0.50465,-0.58928 1.318818,-0.93389 1.739482,-0.282 0.426297,0.66061 -1.46951,0.16987 -0.979936,1.59042 0.115716,0.33576 0.11613,0.92076 -0.217299,1.04303 -0.287482,0.10543 -0.604128,-0.28335 -0.724328,-0.56497 -0.234971,-0.55053 -0.207272,-1.33184 0.182081,-1.78648 z"
       id="path1105"
       inkscape:connector-curvature="0"
       sodipodi:nodetypes="ssssss" />
    <path
       style="fill:#c83737;stroke:#000000;stroke-width:0.43361524;stroke-linecap:butt;stroke-linejoin:miter;stroke-miterlimit:4;stroke-dasharray:none;stroke-opacity:1"
       d="m 82.102712,115.02365 c 3.016185,1.97199 5.305775,5.83595 8.051946,7.97248 -0.989536,-2.60476 -4.808269,-6.61223 -7.29102,-9.3412 0,0 -1.084382,-0.70533 -0.760926,1.36872 z"
       id="path1101"
       inkscape:connector-curvature="0"
       sodipodi:nodetypes="cccc" />
    <path
       style="fill:#c83737;stroke:#000000;stroke-width:0.43361524;stroke-linecap:butt;stroke-linejoin:miter;stroke-miterlimit:4;stroke-dasharray:none;stroke-opacity:1"
       d="m 88.845851,139.55054 c 1.071297,-0.0991 2.065446,1.79502 1.557016,2.82721 -0.507672,1.03064 -2.151228,2.37656 -3.032082,1.63896 -1.202037,-1.00656 -0.08609,-4.32182 1.475066,-4.46617 z"
       id="path1117"
       inkscape:connector-curvature="0"
       sodipodi:nodetypes="ssss" />
    <path
       style="fill:#c83737;stroke:#000000;stroke-width:0.43361524;stroke-linecap:butt;stroke-linejoin:miter;stroke-miterlimit:4;stroke-dasharray:none;stroke-opacity:1"
       d="m 87.411759,139.96027 c -0.642336,-0.70138 -1.820722,1.40198 -1.638961,2.33553 0.21141,1.08582 1.68688,1.67984 2.786234,1.80286 0.43371,0.0485 1.487954,-0.96854 1.085814,-0.799 -1.334393,0.56258 -1.491678,-2.52982 -2.233087,-3.33939 z"
       id="path1113"
       inkscape:connector-curvature="0"
       sodipodi:nodetypes="sssss" />
    <path
       style="fill:#c83737;stroke:#000000;stroke-width:0.43361524;stroke-linecap:butt;stroke-linejoin:miter;stroke-miterlimit:4;stroke-dasharray:none;stroke-opacity:1"
       d="m 89.562897,139.89881 c -0.152127,-1.04445 -2.930447,0.47446 -3.646692,1.24971 -0.540432,0.58496 0.09512,2.70684 0.389254,1.96676 0.281045,-0.70716 3.343179,-2.6278 3.257438,-3.21647 z"
       id="path1115"
       inkscape:connector-curvature="0"
       sodipodi:nodetypes="ssss" />
    <path
       style="fill:#c83737;stroke:#000000;stroke-width:0.43361524;stroke-linecap:butt;stroke-linejoin:miter;stroke-miterlimit:4;stroke-dasharray:none;stroke-opacity:1"
       d="m 87.411759,139.96027 c -1.702016,-7.75925 -1.01316,-12.77775 1.764188,-15.40213 0.06941,2.30165 0.117827,4.6103 1.14497,6.59271 0.478838,3.2378 -2.140968,5.3831 -1.475068,8.39968 z"
       id="path1119"
       inkscape:connector-curvature="0"
       sodipodi:nodetypes="ccccc" />
    <path
       style="fill:none;stroke:#000000;stroke-width:0.43361524;stroke-linecap:butt;stroke-linejoin:miter;stroke-miterlimit:4;stroke-dasharray:none;stroke-opacity:1"
       d="m 88.005883,139.85784 c -0.864537,-2.78639 -0.533341,-5.30705 -0.471201,-7.88751"
       id="path1123"
       inkscape:connector-curvature="0"
       sodipodi:nodetypes="cc" />
    <path
       style="fill:none;stroke:#000000;stroke-width:0.43361524;stroke-linecap:butt;stroke-linejoin:miter;stroke-miterlimit:4;stroke-dasharray:none;stroke-opacity:1"
       d="m 88.415621,139.59151 c 0.21352,-2.644 -0.85836,-4.02528 0.860459,-5.87978"
       id="path1125"
       inkscape:connector-curvature="0"
       sodipodi:nodetypes="cc" />
    <path
       style="fill:none;stroke:#000000;stroke-width:0.43361524;stroke-linecap:butt;stroke-linejoin:miter;stroke-miterlimit:4;stroke-dasharray:none;stroke-opacity:1"
       d="m 89.224341,143.77853 c 0.117704,2.70851 -0.981351,4.58047 -0.37849,7.53156"
       id="path1127"
       inkscape:connector-curvature="0"
       sodipodi:nodetypes="cc" />
    <path
       style="fill:#6c5d53;stroke:#000000;stroke-width:0.43361524;stroke-linecap:butt;stroke-linejoin:miter;stroke-miterlimit:4;stroke-dasharray:none;stroke-opacity:1"
       d="m 75.556149,84.191024 c -0.736953,0.242998 -1.062426,7.613508 -0.239711,8.056018 0.535496,-1.330059 1.342483,-0.503326 1.953341,0.416474 -0.828823,-0.700393 -0.701795,-7.424642 0.31121,-8.467809 -1.182607,1.214619 -2.255316,0.7712 -2.02484,-0.0047 z"
       id="path1135"
       inkscape:connector-curvature="0"
       sodipodi:nodetypes="ccccc" />
    <path
       style="fill:#c8b7b7;stroke:#000000;stroke-width:0.43361524;stroke-linecap:butt;stroke-linejoin:miter;stroke-miterlimit:4;stroke-dasharray:none;stroke-opacity:1"
       d="m 75.556149,84.191024 c 0.192035,-0.247212 -0.52258,-0.590448 -0.743913,0.04453 -0.892557,2.560653 -0.958425,5.467125 -0.348279,7.92848 0.15649,0.631287 0.910272,0.403512 0.852481,0.08301 -0.863924,-0.964423 -0.528128,-7.052826 0.239711,-8.056024 z"
       id="path1137"
       inkscape:connector-curvature="0"
       sodipodi:nodetypes="csscc" />
    <path
       style="fill:#000000;stroke:#000000;stroke-width:0.43361524;stroke-linecap:butt;stroke-linejoin:miter;stroke-miterlimit:4;stroke-dasharray:none;stroke-opacity:1"
       d="m 95.057477,100.51414 c -0.206621,2.33612 -1.033116,4.30236 -1.825303,6.37045 0.542415,-1.20303 1.51535,-2.09475 1.987743,-3.69158 0.104832,0.55634 0.03242,0.84681 0.04037,1.25784 0.680702,-0.99642 0.69572,-2.33822 1.459197,-3.71558 -1.02352,1.1064 -1.727731,2.59536 -1.651143,-0.3841 z"
       id="path1139"
       inkscape:connector-curvature="0"
       sodipodi:nodetypes="ccccccc" />
    <g
       id="g1755"
       style="opacity:0.5">
      <path
         sodipodi:nodetypes="cssccsscc"
         inkscape:connector-curvature="0"
         id="path1482"
         d="m 75.652204,92.553288 c 0,0 -0.440594,1.776034 -0.471201,2.683802 -0.04767,1.413972 0.559007,2.809702 0.450715,4.220326 -0.03461,0.450886 -0.34828,1.311174 -0.34828,1.311174 l 0.471201,-0.3278 c 0,0 0.604751,-0.822422 0.655584,-1.188242 0.185616,-1.335786 0.02341,-2.590876 -0.307304,-4.179356 -0.197525,-0.948749 0.512175,-2.847696 0.512175,-2.847696 z"
         style="fill:#c8c4b7;stroke:#000000;stroke-width:0.43361524;stroke-linecap:butt;stroke-linejoin:miter;stroke-miterlimit:4;stroke-dasharray:none;stroke-opacity:1" />
      <path
         sodipodi:nodetypes="ccccc"
         inkscape:connector-curvature="0"
         id="path1462"
         d="M 77.417092,79.442715 C 61.169161,65.653397 43.78384,51.86408 26.242813,38.074761 l -0.519224,1.369421 c 17.067825,13.258197 34.097525,26.52184 49.668664,39.993849 z"
         style="fill:#c8c4b7;stroke:#000000;stroke-width:0.43361524;stroke-linecap:butt;stroke-linejoin:miter;stroke-miterlimit:4;stroke-dasharray:none;stroke-opacity:1" />
      <path
         sodipodi:nodetypes="csssccssssscc"
         inkscape:connector-curvature="0"
         id="path1470"
         d="m 52.419912,103.82115 c 0,0 1.130766,-10.018547 2.540392,-14.832606 1.67521,-5.721063 4.128928,-11.228456 6.96559,-16.47157 2.866052,-5.297439 7.965069,-9.356845 10.07962,-14.996506 2.180045,-5.814341 2.334828,-18.481909 2.334828,-18.481909 l 1.393812,-0.325185 c 0,0 -0.810295,9.054657 -1.434094,13.644362 -0.233862,1.720683 -0.548209,3.655756 -1.147273,5.285653 -1.405043,3.822761 -4.353105,6.885464 -6.596823,10.28449 -1.218766,1.846319 -2.674654,3.545426 -3.728639,5.490523 -2.779473,5.129433 -5.16991,10.53077 -6.760721,16.143779 -1.36845,4.828437 -2.335521,14.873589 -2.335521,14.873589 z"
         style="fill:#483737;stroke:#000000;stroke-width:0.43361524;stroke-linecap:butt;stroke-linejoin:miter;stroke-miterlimit:4;stroke-dasharray:none;stroke-opacity:1" />
      <path
         sodipodi:nodetypes="ccccc"
         inkscape:connector-curvature="0"
         id="path1474"
         d="m 73.733322,40.333524 c 0.08873,0.534567 0.188085,1.067807 0.579461,1.564544 0.272019,0.329528 0.61779,0.458868 1.158921,0.05795 0.575267,-0.635195 0.981489,-1.296803 0.941624,-2.028113 z"
         style="fill:#241f1c;stroke:#000000;stroke-width:0.43361524;stroke-linecap:butt;stroke-linejoin:miter;stroke-miterlimit:4;stroke-dasharray:none;stroke-opacity:1" />
      <path
         sodipodi:nodetypes="ccccc"
         inkscape:connector-curvature="0"
         id="path1458"
         d="m 76.925404,79.319793 c 1.049595,-18.758253 3.213137,-37.29638 4.658197,-56.897269 l -0.973536,-0.0578 c -1.522135,19.230594 -2.676359,38.8576 -5.217812,57.073307 z"
         style="fill:#c8c4b7;stroke:#000000;stroke-width:0.43361524;stroke-linecap:butt;stroke-linejoin:miter;stroke-miterlimit:4;stroke-dasharray:none;stroke-opacity:1" />
      <path
         sodipodi:nodetypes="ccccc"
         inkscape:connector-curvature="0"
         id="path1456"
         d="M 77.417092,79.442715 C 92.40867,65.572383 108.03632,51.914075 125.63397,38.912433 l -1.77871,-0.308469 C 106.60879,52.078803 90.91781,65.748079 75.392253,79.438032 Z"
         style="fill:#c8c4b7;stroke:#000000;stroke-width:0.43361524;stroke-linecap:butt;stroke-linejoin:miter;stroke-miterlimit:4;stroke-dasharray:none;stroke-opacity:1" />
      <path
         sodipodi:nodetypes="cccccc"
         inkscape:connector-curvature="0"
         id="path1432"
         d="m 69.414928,34.229036 6.60585,-1.854275 c 3.180967,0.713553 6.336383,1.503763 9.213426,3.129088 -3.311057,1.258294 -6.40155,2.57173 -10.893861,3.53471 -2.620939,-0.661936 -5.161488,-1.524852 -7.475044,-2.955249 z"
         style="fill:#e3dedb;stroke:#000000;stroke-width:0.43361524;stroke-linecap:butt;stroke-linejoin:miter;stroke-miterlimit:4;stroke-dasharray:none;stroke-opacity:1" />
      <path
         sodipodi:nodetypes="csssscccscsscc"
         inkscape:connector-curvature="0"
         id="path1446"
         d="m 120.64172,38.549478 c 0,1.3e-5 -7.00549,-3.184061 -15.45861,-2.36399 -3.56494,0.345848 -7.286146,-0.38125 -10.842513,-1.430336 -3.591535,-1.059461 -7.314436,-0.317624 -10.206764,-0.262106 -0.372972,0.0072 -0.723635,0.229964 -1.02435,0.450714 -0.234075,0.171831 -0.573636,0.655586 -0.573636,0.655586 l 0.409739,0.122922 0.335036,-0.13989 c 0,0 0.452877,-0.441327 0.573636,-0.450716 0.899628,-0.06995 1.394372,0.09753 1.474108,0.06073 3.077376,-0.05292 6.195808,-0.592529 8.983278,0.321169 3.674486,1.204451 7.223166,1.705987 10.692356,1.313165 5.16186,-0.584488 10.27465,0.878604 15.28117,2.189803 z"
         style="fill:#918a6f;stroke:#000000;stroke-width:0.43361524;stroke-linecap:butt;stroke-linejoin:miter;stroke-miterlimit:4;stroke-dasharray:none;stroke-opacity:1" />
      <path
         sodipodi:nodetypes="sssss"
         inkscape:connector-curvature="0"
         id="path1464"
         d="m 76.102919,77.065094 c -0.915048,-0.09501 -1.948757,1.181353 -1.802858,2.089677 0.138932,0.864944 1.390825,1.504125 2.253572,1.352144 0.449883,-0.07925 0.823151,-0.609171 0.863459,-1.0642 0.0799,-0.902015 -0.413468,-2.284103 -1.314173,-2.377621 z"
         style="fill:#c8c4b7;stroke:#000000;stroke-width:0.43361524;stroke-linecap:butt;stroke-linejoin:miter;stroke-miterlimit:4;stroke-dasharray:none;stroke-opacity:1" />
      <path
         sodipodi:nodetypes="ccccc"
         inkscape:connector-curvature="0"
         id="path1460"
         d="M 77.417092,79.442715 C 71.520904,72.011107 67.392902,64.137452 63.19609,56.281 l -1.074769,1.496107 c 4.502872,7.457991 8.983312,14.848686 13.270932,21.660924 z"
         style="fill:#c8c4b7;stroke:#000000;stroke-width:0.43361524;stroke-linecap:butt;stroke-linejoin:miter;stroke-miterlimit:4;stroke-dasharray:none;stroke-opacity:1" />
      <path
         sodipodi:nodetypes="ccccccssccccccc"
         inkscape:connector-curvature="0"
         id="path1442"
         d="m 81.583602,22.422524 c -0.38484,1.084374 -0.780065,2.168747 -1.693774,3.25312 -0.863491,0.957028 -1.115193,1.799344 -1.376332,2.643431 l -0.963947,1.851391 c -0.378855,1.194456 -0.917647,1.699496 -1.400877,2.615617 l -0.06995,0.351191 c 0,0 -0.435305,0.176483 -0.509816,0.05752 -0.08822,-0.140846 0.08892,-0.490466 0.127182,-0.652195 0.09007,-0.380768 0.538485,-1.043029 0.538485,-1.043029 0.363508,-0.496428 0.63276,-1.08711 0.881515,-1.698288 l 0.951453,-1.833029 c 0.309941,-0.874264 0.60091,-1.748528 1.361388,-2.622791 0.69636,-0.746208 1.208671,-1.645789 1.441913,-2.777927 l 0.271899,-0.325733 z"
         style="fill:#918a6f;stroke:#000000;stroke-width:0.43361524;stroke-linecap:butt;stroke-linejoin:miter;stroke-miterlimit:4;stroke-dasharray:none;stroke-opacity:1" />
      <path
         sodipodi:nodetypes="ccccccc"
         inkscape:connector-curvature="0"
         id="path1434"
         d="m 66.865299,36.08331 c 0.405077,0.657086 0.858501,1.28194 1.043028,2.086059 2.05973,1.246686 4.317283,1.83396 6.605854,2.317842 3.03735,-0.785477 6.03578,-1.622848 8.749856,-2.839357 0.361427,-1.009964 1.256259,-1.486522 1.970167,-2.144005 -3.405174,1.468953 -6.950775,2.757357 -10.893861,3.53471 -2.818735,-0.658029 -5.351165,-1.602363 -7.475044,-2.955249 z"
         style="fill:#917c6f;stroke:#000000;stroke-width:0.43361524;stroke-linecap:butt;stroke-linejoin:miter;stroke-miterlimit:4;stroke-dasharray:none;stroke-opacity:1" />
      <path
         sodipodi:nodetypes="cssssccccccc"
         inkscape:connector-curvature="0"
         id="path1436"
         d="m 62.4854,55.830367 c 0.103244,0.03264 1.064818,-2.482767 2.989373,-5.425808 1.090744,-1.66797 2.687103,-3.364658 3.008951,-5.584987 0.422443,-2.914299 2.736203,-5.102103 3.654668,-6.824042 0.139055,-0.260701 0.596213,-0.286909 0.869191,-0.173838 0.160853,0.06663 0.28973,0.434596 0.28973,0.434596 l -0.434594,-0.05795 c -0.307068,0.276893 -0.587813,0.575721 -0.66638,1.04303 -1.516645,1.523262 -2.443882,3.562256 -3.088959,5.848139 -0.366406,2.076331 -1.726621,3.779985 -2.92791,5.543236 -1.361925,1.740353 -2.368701,3.644061 -2.983381,5.648256 z"
         style="fill:#aca793;stroke:#000000;stroke-width:0.43361524;stroke-linecap:butt;stroke-linejoin:miter;stroke-miterlimit:4;stroke-dasharray:none;stroke-opacity:1" />
      <path
         inkscape:connector-curvature="0"
         id="path1420"
         d="m 56.50693,57.938297 73.5915,-22.367184 1.79633,0.579461 -0.0579,0.985083 -73.582203,22.662968 -0.06725,-1.280868 z"
         style="fill:#917c6f;stroke:#000000;stroke-width:0.43361524;stroke-linecap:butt;stroke-linejoin:miter;stroke-miterlimit:4;stroke-dasharray:none;stroke-opacity:1" />
      <path
         inkscape:connector-curvature="0"
         id="path1438"
         d="m 72.848231,40.096075 -0.593946,0.521515 1.072001,-0.405623 z"
         style="fill:#aca793;stroke:#000000;stroke-width:0.43361524;stroke-linecap:butt;stroke-linejoin:miter;stroke-miterlimit:4;stroke-dasharray:none;stroke-opacity:1" />
      <path
         sodipodi:nodetypes="ccccccc"
         inkscape:connector-curvature="0"
         id="path1422"
         d="M 23.695477,41.008726 86.798746,20.090195 87.667939,18.989219 86.161341,18.641543 21.14585,39.270344 23.082486,39.532855 Z"
         style="fill:#917c6f;stroke:#000000;stroke-width:0.43361524;stroke-linecap:butt;stroke-linejoin:miter;stroke-miterlimit:4;stroke-dasharray:none;stroke-opacity:1" />
      <path
         sodipodi:nodetypes="ccccccc"
         inkscape:connector-curvature="0"
         id="path1414"
         d="M 20.334605,36.025364 64.025942,59.0879 64.953079,57.697194 67.15503,58.508439 21.493526,34.171089 19.831268,34.402874 Z"
         style="fill:#917c6f;stroke:#000000;stroke-width:0.43361524;stroke-linecap:butt;stroke-linejoin:miter;stroke-miterlimit:4;stroke-dasharray:none;stroke-opacity:1" />
      <path
         sodipodi:nodetypes="ccccc"
         inkscape:connector-curvature="0"
         id="path1416"
         d="M 67.15503,58.508439 66.246107,59.841045 64.025942,59.0879 64.953079,57.697194 Z"
         style="fill:#483e37;stroke:#000000;stroke-width:0.43361524;stroke-linecap:butt;stroke-linejoin:miter;stroke-miterlimit:4;stroke-dasharray:none;stroke-opacity:1" />
      <path
         inkscape:connector-curvature="0"
         id="path1418"
         d="m 78.807207,19.250697 53.594063,19.831444 -1.7953,0.477933 -0.11589,1.448652 -52.904759,-20.165233 -0.11589,-1.506597 z"
         style="fill:#917c6f;stroke:#000000;stroke-width:0.43361524;stroke-linecap:butt;stroke-linejoin:miter;stroke-miterlimit:4;stroke-dasharray:none;stroke-opacity:1" />
      <path
         inkscape:connector-curvature="0"
         id="path1424"
         d="m 21.14585,39.270344 0.753299,1.564543 1.796328,0.173839 -0.612991,-1.475871 z"
         style="fill:#483e37;stroke:#000000;stroke-width:0.43361524;stroke-linecap:butt;stroke-linejoin:miter;stroke-miterlimit:4;stroke-dasharray:none;stroke-opacity:1" />
      <path
         inkscape:connector-curvature="0"
         id="path1426"
         d="m 56.506931,57.938297 1.680432,0.57946 0.06725,1.280868 -1.993448,-0.07332 z"
         style="fill:#483e37;stroke:#000000;stroke-width:0.43361524;stroke-linecap:butt;stroke-linejoin:miter;stroke-miterlimit:4;stroke-dasharray:none;stroke-opacity:1" />
      <path
         sodipodi:nodetypes="ccccc"
         inkscape:connector-curvature="0"
         id="path1428"
         d="m 130.49008,41.008726 1.97017,-0.05795 -0.059,-1.868639 -1.7953,0.477934 z"
         style="fill:#483e37;stroke:#000000;stroke-width:0.43361524;stroke-linecap:butt;stroke-linejoin:miter;stroke-miterlimit:4;stroke-dasharray:none;stroke-opacity:1" />
      <path
         sodipodi:nodetypes="csccscc"
         inkscape:connector-curvature="0"
         id="path1430"
         d="m 62.639052,58.528323 c 0,0 -1.665114,-0.58344 -1.626305,-1.294697 0.04616,-0.84598 1.762082,-1.195476 1.762082,-1.195476 0.01863,-0.281202 0.102651,-0.532141 -0.412352,-0.586793 -0.544312,0.07422 -1.954452,0.80067 -2.01611,1.753295 -0.04404,0.680452 1.153649,1.41762 1.153649,1.41762 0.742939,0.512248 1.005449,0.06366 1.139036,-0.09395 z"
         style="fill:#918a6f;stroke:#000000;stroke-width:0.43361524;stroke-linecap:butt;stroke-linejoin:miter;stroke-miterlimit:4;stroke-dasharray:none;stroke-opacity:1" />
      <path
         sodipodi:nodetypes="ccccc"
         inkscape:connector-curvature="0"
         id="path1440"
         d="m 81.511494,19.947255 c -1.087077,0.736608 -0.614965,1.521503 -0.368765,2.294547 -0.176809,0.653971 -0.405286,0.213971 -0.532664,0.122921 -0.334775,-0.902127 -0.901574,-1.827457 0.245844,-2.581365 0.688499,-0.327219 0.532735,0.03152 0.655585,0.163897 z"
         style="fill:#918a6f;stroke:#000000;stroke-width:0.43361524;stroke-linecap:butt;stroke-linejoin:miter;stroke-miterlimit:4;stroke-dasharray:none;stroke-opacity:1" />
      <path
         sodipodi:nodetypes="ccccc"
         inkscape:connector-curvature="0"
         id="path1444"
         d="m 128.23018,37.531961 c -1.7371,-0.782675 -3.57741,-1.621521 -5.76563,0.318704 -0.61981,0.408763 -0.4728,0.0092 -0.63681,-0.417624 2.74977,-2.451303 5.08688,-2.033092 7.35297,0.370223 0.13385,0.362233 -0.0838,0.13614 -0.95053,-0.271303 z"
         style="fill:#918a6f;stroke:#000000;stroke-width:0.43361524;stroke-linecap:butt;stroke-linejoin:miter;stroke-miterlimit:4;stroke-dasharray:none;stroke-opacity:1" />
      <path
         inkscape:connector-curvature="0"
         id="path1448"
         d="m 82.583172,37.966556 0.304215,1.187895 -0.927137,-0.95611 z"
         style="fill:#918a6f;stroke:#000000;stroke-width:0.43361524;stroke-linecap:butt;stroke-linejoin:miter;stroke-miterlimit:4;stroke-dasharray:none;stroke-opacity:1" />
      <path
         sodipodi:nodetypes="csccssscc"
         inkscape:connector-curvature="0"
         id="path1450"
         d="m 24.043153,38.169369 c 0,0 1.184361,-1.136069 1.941193,-1.187895 1.514431,-0.103706 4.172118,1.825301 4.172118,1.825301 l 0.840218,0.405622 c 0,0 -0.118723,-0.971998 -0.434596,-1.303786 -1.15749,-1.215815 -3.026606,-2.022823 -4.693631,-1.825301 -0.992337,0.11758 -1.999478,0.823986 -2.462709,1.709409 -0.116401,0.22249 0,0.753298 0,0.753298 z"
         style="fill:#918a6f;stroke:#000000;stroke-width:0.43361524;stroke-linecap:butt;stroke-linejoin:miter;stroke-miterlimit:4;stroke-dasharray:none;stroke-opacity:1" />
      <path
         sodipodi:nodetypes="csssssccssssscc"
         inkscape:connector-curvature="0"
         id="path1452"
         d="m 30.996682,39.212397 c 0.0024,0.01856 3.232346,0.270687 7.672079,-0.850248 1.634723,-0.412732 3.123345,-0.66091 4.808562,-0.556241 6.537586,0.406052 13.338911,-1.125485 18.857491,-2.254171 2.154057,-0.440559 4.179525,-0.522757 5.863246,-0.74324 0.314114,-0.04113 0.627684,0.288633 0.753297,0.579461 0.07697,0.178204 -0.05795,0.57946 -0.05795,0.57946 l -0.695351,0.05795 c 0,0 -0.123269,-0.499379 -0.318703,-0.492542 -1.227297,0.04294 -2.547812,0.380758 -3.824442,0.550488 -0.48569,0.06457 -1.004534,0.07416 -1.521362,0.200243 -5.318342,1.297454 -12.72153,3.028915 -19.059063,2.362091 -1.704033,-0.179294 -3.224134,0.170466 -4.834179,0.579019 -3.644184,0.92472 -6.252924,0.741033 -6.252924,0.741033 z"
         style="fill:#918a6f;stroke:#000000;stroke-width:0.43361524;stroke-linecap:butt;stroke-linejoin:miter;stroke-miterlimit:4;stroke-dasharray:none;stroke-opacity:1" />
      <path
         sodipodi:nodetypes="ccscc"
         inkscape:connector-curvature="0"
         id="path1454"
         d="m 67.908327,38.169369 c -0.363343,0.231046 -0.854815,-0.08078 -1.290903,-0.152554 -0.0056,0.01232 0.734028,0.918141 1.310141,0.666557 0.172188,-0.07519 0.532661,-0.184384 0.532661,-0.184384 z"
         style="fill:#918a6f;stroke:#000000;stroke-width:0.43361524;stroke-linecap:butt;stroke-linejoin:miter;stroke-miterlimit:4;stroke-dasharray:none;stroke-opacity:1" />
      <path
         sodipodi:nodetypes="ssss"
         inkscape:connector-curvature="0"
         id="path1466"
         d="m 77.004348,77.392886 c -0.329366,0.279064 -1.885017,2.572227 -1.72091,3.073055 0.24561,0.749558 1.781738,-0.31731 2.133654,-1.023226 0.310966,-0.623774 0.119033,-2.500393 -0.412744,-2.049829 z"
         style="fill:#c8c4b7;stroke:#000000;stroke-width:0.43361524;stroke-linecap:butt;stroke-linejoin:miter;stroke-miterlimit:4;stroke-dasharray:none;stroke-opacity:1" />
      <path
         sodipodi:nodetypes="ssss"
         inkscape:connector-curvature="0"
         id="path1468"
         d="m 74.300061,79.154771 c 0.235144,-0.175452 2.001375,1.343507 3.117031,0.287944 0.563071,-0.532742 -0.744127,1.779907 -1.519044,1.760759 -0.865809,-0.02139 -2.292127,-1.530773 -1.597987,-2.048703 z"
         style="fill:#c8c4b7;stroke:#000000;stroke-width:0.43361524;stroke-linecap:butt;stroke-linejoin:miter;stroke-miterlimit:4;stroke-dasharray:none;stroke-opacity:1" />
      <path
         sodipodi:nodetypes="cscc"
         inkscape:connector-curvature="0"
         id="path1472"
         d="m 72.579151,35.107657 c -0.103883,-0.05194 1.322215,-1.56927 2.499417,-1.51604 1.258487,0.05691 2.429969,1.54668 2.376496,1.557014 0.400159,1.551299 -4.738742,1.086079 -4.875913,-0.04098 z"
         style="fill:#241f1c;stroke:#000000;stroke-width:0.43361524;stroke-linecap:butt;stroke-linejoin:miter;stroke-miterlimit:4;stroke-dasharray:none;stroke-opacity:1" />
      <path
         sodipodi:nodetypes="ccccc"
         inkscape:connector-curvature="0"
         id="path1476"
         d="m 75.570257,81.244447 c 1.024997,3.817684 -0.382734,7.28075 -0.253819,11.002595 0.219755,0.533684 0.871613,0.520415 1.377645,-0.394522 -1.410778,-3.680014 0.844775,-6.037161 -0.306404,-10.865918 z"
         style="fill:#c8c4b7;stroke:#000000;stroke-width:0.43361524;stroke-linecap:butt;stroke-linejoin:miter;stroke-miterlimit:4;stroke-dasharray:none;stroke-opacity:1" />
      <path
         sodipodi:nodetypes="cccc"
         inkscape:connector-curvature="0"
         id="path1478"
         d="m 76.635582,84.809191 c -1.879007,2.323959 -0.946575,4.929139 -1.319144,7.437856 0.550156,-2.772231 0.887098,-5.640631 2.264551,-8.05134 -0.464522,0.0327 -0.917833,0.253072 -0.945407,0.613484 z"
         style="fill:#c8c4b7;stroke:#000000;stroke-width:0.43361524;stroke-linecap:butt;stroke-linejoin:miter;stroke-miterlimit:4;stroke-dasharray:none;stroke-opacity:1" />
      <path
         sodipodi:nodetypes="cccc"
         inkscape:connector-curvature="0"
         id="path1480"
         d="m 76.757604,92.315236 c -0.507972,-2.575323 -0.95445,-4.673599 -0.777608,-7.444584 0.111074,-0.39478 -0.0433,-0.612593 -0.423847,-0.679628 -0.673668,3.416443 -0.396608,5.550337 1.201455,8.124212 z"
         style="fill:#c8c4b7;stroke:#000000;stroke-width:0.43361524;stroke-linecap:butt;stroke-linejoin:miter;stroke-miterlimit:4;stroke-dasharray:none;stroke-opacity:1" />
      <path
         sodipodi:nodetypes="cccc"
         inkscape:connector-curvature="0"
         id="path1484"
         d="m 74.330481,12.971429 c -5.050775,5.888472 2.71649,11.501716 -5.251504,17.38985 3.227048,2.561318 6.650402,2.668813 10.314405,-0.231787 2.584986,-6.210829 -6.240145,-11.037077 -5.062901,-17.158063 z"
         style="fill:#c83737;stroke:#000000;stroke-width:0.43361524;stroke-linecap:butt;stroke-linejoin:miter;stroke-miterlimit:4;stroke-dasharray:none;stroke-opacity:1" />
      <path
         sodipodi:nodetypes="cccc"
         inkscape:connector-curvature="0"
         id="path1486"
         d="m 72.358758,30.117846 c 1.723404,0.608795 3.455971,1.075573 5.331036,-0.666379 2.628596,-2.709658 -2.978083,-5.63896 -3.389845,-10.28543 -2.05181,3.513205 3.429923,7.328285 -1.941191,10.951809 z"
         style="fill:#ffd42a;stroke:#000000;stroke-width:0.43361524;stroke-linecap:butt;stroke-linejoin:miter;stroke-miterlimit:4;stroke-dasharray:none;stroke-opacity:1" />
    </g>
  </g>
</svg>
