<?xml version="1.0" encoding="UTF-8" standalone="no"?>
<!-- Created with Inkscape (http://www.inkscape.org/) -->

<svg
   width="24pt"
   height="24pt"
   viewBox="0 0 24.000001 24"
   version="1.1"
   id="svg6555"
   inkscape:version="1.1.2 (0a00cf5339, 2022-02-04)"
   sodipodi:docname="qr_github_tofa.svg"
   xmlns:inkscape="http://www.inkscape.org/namespaces/inkscape"
   xmlns:sodipodi="http://sodipodi.sourceforge.net/DTD/sodipodi-0.dtd"
   xmlns="http://www.w3.org/2000/svg"
   xmlns:svg="http://www.w3.org/2000/svg">
  <sodipodi:namedview
     id="namedview6557"
     pagecolor="#ffffff"
     bordercolor="#666666"
     borderopacity="1.0"
     inkscape:pageshadow="2"
     inkscape:pageopacity="0.0"
     inkscape:pagecheckerboard="0"
     inkscape:document-units="pt"
     showgrid="false"
     fit-margin-top="0"
     fit-margin-left="0"
     fit-margin-right="0"
     fit-margin-bottom="0"
     units="pt"
     inkscape:zoom="9.179349"
     inkscape:cx="18.138541"
     inkscape:cy="27.343987"
     inkscape:window-width="1600"
     inkscape:window-height="827"
     inkscape:window-x="0"
     inkscape:window-y="0"
     inkscape:window-maximized="1"
     inkscape:current-layer="layer1" />
  <defs
     id="defs6552" />
  <g
     inkscape:label="Слой 1"
     inkscape:groupmode="layer"
     id="layer1"
     transform="translate(-47.635962,-26.421684)">
    <path
       id="polygon9467"
       style="stroke-width:0.008276;shape-rendering:auto"
       d="m 50.110454,46.283748 h -0.827585 v 0.827576 0.8276 0.827578 h 0.827585 0.827569 1.4e-5 0.827565 v -0.827578 -0.8276 -0.827576 h -0.827565 -1.4e-5 z m 2.491027,-1.655166 h -0.8276 -0.827577 -5e-6 -0.827577 -0.827583 -0.827585 -0.827592 v 0.827583 0.827583 0.827585 0.827591 0.827578 0.827583 0.827581 h 0.827592 0.827585 0.827583 0.827577 5e-6 0.827577 0.8276 0.827583 v -0.827581 -0.827583 -0.827578 -0.827591 -0.827585 -0.827583 -0.827583 z m 0,1.655166 v 0.827585 0.827591 0.827578 0.827583 h -0.8276 -0.827577 -5e-6 -0.827577 -0.827583 -0.827585 v -0.827583 -0.827578 -0.827591 -0.827585 -0.827583 h 0.827585 0.827583 0.827577 5e-6 0.827577 0.8276 z M 68.31735,28.076853 h -0.827583 v 0.827573 0.8276 0.827578 h 0.827583 0.827567 v 0 h 0.827566 v -0.827578 -0.8276 -0.827573 h -0.827566 v 0 z m 2.491029,-1.655169 h -0.827604 -0.827573 v 0 H 68.325625 67.498042 66.67046 65.842865 v 0.827583 0.827586 0.827582 0.827591 0.827578 0.827583 0.827585 h 0.827595 0.827582 0.827583 0.827577 v 0 h 0.827573 0.827604 0.827583 v -0.827585 -0.827583 -0.827578 -0.827591 -0.827582 -0.827586 -0.827583 z m 0,1.655169 v 0.827582 0.827591 0.827578 0.827583 h -0.827604 -0.827573 v 0 H 68.325625 67.498042 66.67046 v -0.827583 -0.827578 -0.827591 -0.827582 -0.827586 h 0.827582 0.827583 0.827577 v 0 h 0.827573 0.827604 z m -20.697925,0 h -0.827585 v 0.827573 0.8276 0.827578 h 0.827585 0.827569 1.4e-5 0.827565 v -0.827578 -0.8276 -0.827573 h -0.827565 -1.4e-5 z m 2.491027,-1.655169 h -0.8276 -0.827577 -5e-6 -0.827577 -0.827583 -0.827585 -0.827592 v 0.827583 0.827586 0.827582 0.827591 0.827578 0.827583 0.827585 h 0.827592 0.827585 0.827583 0.827577 5e-6 0.827577 0.8276 0.827583 v -0.827585 -0.827583 -0.827578 -0.827591 -0.827582 -0.827586 -0.827583 z m 0,1.655169 v 0.827582 0.827591 0.827578 0.827583 h -0.8276 -0.827577 -5e-6 -0.827577 -0.827583 -0.827585 v -0.827583 -0.827578 -0.827591 -0.827582 -0.827586 h 0.827585 0.827583 0.827577 5e-6 0.827577 0.8276 z M 69.980773,49.59408 h 0.827585 v 0.827586 h -0.827585 z m -1.65517,0 h 0.827585 v 0.827586 h -0.827585 z m -1.655173,0 h 0.827586 v 0.827586 H 66.67043 Z m -0.827585,0 h 0.827586 v 0.827586 h -0.827586 z m -2.482757,0 h 0.827585 v 0.827586 h -0.827585 z m -0.827585,0 h 0.827585 v 0.827586 h -0.827585 z m -1.655171,0 h 0.827585 v 0.827586 h -0.827585 z m -4.137929,0 h 0.827586 v 0.827586 h -0.827586 z m -0.827585,0 h 0.827585 v 0.827586 h -0.827585 z m -0.827586,0 h 0.827585 v 0.827586 h -0.827585 z m -0.827585,0 h 0.827585 v 0.827586 h -0.827585 z m 16.551711,-0.827585 h 0.827586 v 0.827585 h -0.827586 z m -1.65517,0 h 0.827585 v 0.827585 h -0.827585 z m -0.827585,0 h 0.827585 v 0.827585 h -0.827585 z m -3.310344,0 h 0.827587 v 0.827585 h -0.827587 z m -0.827585,0 h 0.827585 v 0.827585 h -0.827585 z m -1.655171,0 h 0.827585 v 0.827585 h -0.827585 z m -0.827586,0 h 0.827585 v 0.827585 h -0.827585 z m -0.827585,0 h 0.827585 v 0.827585 h -0.827585 z m -2.482757,0 h 0.827586 v 0.827585 h -0.827586 z m -0.827587,0 h 0.827587 v 0.827585 h -0.827587 z m -1.65517,0 h 0.827585 v 0.827585 h -0.827585 z m -1.655171,0 h 0.827585 V 49.59408 H 54.256647 Z M 70.808358,47.93891 h 0.827586 v 0.827585 h -0.827586 z m -1.65517,0 h 0.827585 v 0.827585 h -0.827585 z m -0.827585,0 h 0.827585 v 0.827585 h -0.827585 z m -0.827586,0 h 0.827586 v 0.827585 h -0.827586 z m -0.827587,0 h 0.827586 v 0.827585 H 66.67043 Z m -4.965513,0 h 0.827585 v 0.827585 h -0.827585 z m -2.482757,0 h 0.827586 v 0.827585 H 59.22216 Z m -1.655172,0 h 0.827587 v 0.827585 h -0.827587 z m -1.65517,0 h 0.827585 v 0.827585 h -0.827585 z m -0.827586,0 h 0.827585 v 0.827585 h -0.827585 z m -0.827585,0 h 0.827585 v 0.827585 h -0.827585 z m 15.724126,-0.827585 h 0.827585 v 0.827585 h -0.827585 z m -0.827585,0 h 0.827585 v 0.827585 h -0.827585 z m -1.655171,0 h 0.827586 v 0.827585 h -0.827586 z m -4.965514,0 h 0.827585 v 0.827585 h -0.827585 z m -0.827586,0 h 0.827585 v 0.827585 h -0.827585 z m -0.827585,0 h 0.827585 v 0.827585 h -0.827585 z m -2.482757,0 h 0.827586 v 0.827585 h -0.827586 z m -1.655172,0 h 0.827586 v 0.827585 h -0.827586 z m -0.827585,0 h 0.827585 v 0.827585 h -0.827585 z m -1.655171,0 h 0.827585 V 47.93891 H 54.256647 Z M 70.808358,46.28374 h 0.827586 v 0.827585 h -0.827586 z m -0.827585,0 h 0.827585 v 0.827585 h -0.827585 z m -0.827585,0 h 0.827585 v 0.827585 h -0.827585 z m -1.655171,0 h 0.827586 v 0.827585 h -0.827586 z m -0.827587,0 h 0.827586 v 0.827585 H 66.67043 Z m -0.827585,0 h 0.827586 v 0.827585 h -0.827586 z m -0.827586,0 h 0.827587 v 0.827585 h -0.827587 z m -0.827585,0 h 0.827585 v 0.827585 h -0.827585 z m -2.482757,0 h 0.827585 v 0.827585 h -0.827585 z m -1.65517,0 h 0.827585 v 0.827585 h -0.827585 z m -3.310344,0 h 0.827586 v 0.827585 h -0.827586 z m -0.827585,0 h 0.827585 v 0.827585 h -0.827585 z m 13.24137,-0.827587 h 0.827585 v 0.827585 h -0.827585 z m -0.827585,0 h 0.827585 v 0.827585 h -0.827585 z m -0.827586,0 h 0.827586 v 0.827585 h -0.827586 z m -3.310343,0 h 0.827585 v 0.827585 h -0.827585 z m -0.827586,0 h 0.827585 v 0.827585 h -0.827585 z m -3.310341,0 h 0.827585 v 0.827585 h -0.827585 z m -0.827587,0 h 0.827586 v 0.827585 H 59.22216 Z m -0.827585,0 h 0.827586 v 0.827585 h -0.827586 z m -0.827587,0 h 0.827587 v 0.827585 h -0.827587 z m -0.827585,0 h 0.827586 v 0.827585 h -0.827586 z m -0.827585,0 h 0.827585 v 0.827585 h -0.827585 z m -0.827586,0 h 0.827585 v 0.827585 h -0.827585 z m 14.896541,-0.827586 h 0.827585 v 0.827586 h -0.827585 z m -1.65517,0 h 0.827585 v 0.827586 h -0.827585 z m -0.827586,0 h 0.827586 v 0.827586 h -0.827586 z m -1.655172,0 h 0.827586 v 0.827586 h -0.827586 z m -1.655171,0 h 0.827585 v 0.827586 h -0.827585 z m -0.827586,0 h 0.827585 v 0.827586 h -0.827585 z m -0.827585,0 h 0.827585 v 0.827586 h -0.827585 z m -2.482756,0 h 0.827585 v 0.827586 h -0.827585 z m -0.827587,0 h 0.827586 v 0.827586 H 59.22216 Z m 10.758613,-0.827584 h 0.827585 v 0.827585 h -0.827585 z m -2.482756,0 h 0.827586 v 0.827585 h -0.827586 z m -3.310343,0 h 0.827585 v 0.827585 h -0.827585 z m -0.827586,0 h 0.827585 v 0.827585 h -0.827585 z m -2.482756,0 h 0.827585 v 0.827585 h -0.827585 z m -4.965514,0 h 0.827585 v 0.827585 h -0.827585 z m -1.655171,0 h 0.827585 v 0.827585 h -0.827585 z m 16.551711,-0.827585 h 0.827586 v 0.827585 h -0.827586 z m -1.65517,0 h 0.827585 v 0.827585 h -0.827585 z m -1.655171,0 h 0.827586 v 0.827585 h -0.827586 z m -0.827587,0 h 0.827586 v 0.827585 H 66.67043 Z m -0.827585,0 h 0.827586 v 0.827585 h -0.827586 z m -0.827586,0 h 0.827587 v 0.827585 h -0.827587 z m -0.827585,0 h 0.827585 v 0.827585 h -0.827585 z m -0.827586,0 h 0.827585 v 0.827585 h -0.827585 z m -4.137928,0 h 0.827586 v 0.827585 H 59.22216 Z m -0.827585,0 h 0.827586 v 0.827585 h -0.827586 z m -2.482757,0 h 0.827585 v 0.827585 h -0.827585 z m -0.827586,0 h 0.827585 v 0.827585 h -0.827585 z m -1.655171,0 h 0.827586 v 0.827585 h -0.827586 z m -0.827585,0 h 0.827585 v 0.827585 h -0.827585 z m -0.827586,0 h 0.827586 v 0.827585 H 51.77389 Z m -0.827586,0 h 0.827586 v 0.827585 h -0.827586 z m -0.827585,0 h 0.827585 v 0.827585 h -0.827585 z m -1.655172,0 h 0.827586 v 0.827585 H 48.463547 Z M 70.808358,42.14581 h 0.827586 v 0.827586 h -0.827586 z m -1.65517,0 h 0.827585 v 0.827586 h -0.827585 z m -3.310343,0 h 0.827586 v 0.827586 h -0.827586 z m -2.482757,0 h 0.827585 v 0.827586 h -0.827585 z m -2.482756,0 h 0.827585 v 0.827586 h -0.827585 z m -0.827585,0 h 0.827585 v 0.827586 h -0.827585 z m -0.827587,0 h 0.827586 v 0.827586 H 59.22216 Z m -0.827585,0 h 0.827586 v 0.827586 h -0.827586 z m -1.655172,0 h 0.827586 v 0.827586 h -0.827586 z m -0.827585,0 h 0.827585 v 0.827586 h -0.827585 z m -2.482757,0 h 0.827586 v 0.827586 h -0.827586 z m -2.482757,0 h 0.827586 v 0.827586 h -0.827586 z m -0.827585,0 h 0.827585 v 0.827586 h -0.827585 z m -0.827586,0 h 0.827585 v 0.827586 h -0.827585 z m 20.68964,-0.827585 h 0.827585 v 0.827586 h -0.827585 z m -0.827585,0 h 0.827585 v 0.827586 h -0.827585 z m -0.827585,0 h 0.827585 v 0.827586 h -0.827585 z m -4.965515,0 h 0.827585 v 0.827586 h -0.827585 z m -1.655171,0 h 0.827585 v 0.827586 h -0.827585 z m -1.65517,0 h 0.827585 v 0.827586 h -0.827585 z m -0.827587,0 h 0.827586 v 0.827586 H 59.22216 Z m -0.827585,0 h 0.827586 v 0.827586 h -0.827586 z m -2.482757,0 h 0.827585 v 0.827586 h -0.827585 z m -0.827586,0 h 0.827585 v 0.827586 h -0.827585 z m -0.827585,0 h 0.827585 v 0.827586 h -0.827585 z m -1.655171,0 h 0.827585 v 0.827586 h -0.827585 z m -2.482757,0 h 0.827585 v 0.827586 h -0.827585 z m -2.482757,0 h 0.827585 v 0.827586 h -0.827585 z m 23.172396,-0.827586 h 0.827586 v 0.827586 h -0.827586 z m -4.137928,0 h 0.827586 v 0.827586 H 66.67043 Z m -0.827585,0 h 0.827586 v 0.827586 h -0.827586 z m -0.827586,0 h 0.827587 v 0.827586 h -0.827587 z m -0.827585,0 h 0.827585 v 0.827586 h -0.827585 z m -1.655171,0 h 0.827585 v 0.827586 h -0.827585 z m -2.482756,0 h 0.827585 v 0.827586 h -0.827585 z m -0.827587,0 h 0.827586 v 0.827586 H 59.22216 Z m -4.965513,0 h 0.827585 v 0.827586 h -0.827585 z m -3.310343,0 h 0.827586 v 0.827586 h -0.827586 z m -1.655171,0 h 0.827585 v 0.827586 h -0.827585 z m 20.68964,-0.827585 h 0.827585 v 0.827586 h -0.827585 z m -0.827585,0 h 0.827585 v 0.827586 h -0.827585 z m -1.655171,0 h 0.827586 v 0.827586 h -0.827586 z m -2.482758,0 h 0.827587 v 0.827586 h -0.827587 z m -2.482756,0 h 0.827585 v 0.827586 h -0.827585 z m -0.827586,0 h 0.827585 v 0.827586 h -0.827585 z m -2.482757,0 h 0.827586 V 40.49064 H 59.22216 Z m -1.655172,0 h 0.827587 v 0.827586 h -0.827587 z m -1.65517,0 h 0.827585 v 0.827586 h -0.827585 z m -0.827586,0 h 0.827585 v 0.827586 h -0.827585 z m -2.482756,0 h 0.827585 v 0.827586 h -0.827585 z m -1.655172,0 h 0.827586 v 0.827586 h -0.827586 z m -2.482757,0 h 0.827586 v 0.827586 h -0.827586 z m -0.827585,0 h 0.827585 v 0.827586 h -0.827585 z m 23.172396,-0.827585 h 0.827586 v 0.827585 h -0.827586 z m -0.827585,0 h 0.827585 v 0.827585 h -0.827585 z m -2.482756,0 h 0.827586 v 0.827585 h -0.827586 z m -0.827587,0 h 0.827586 v 0.827585 H 66.67043 Z m -0.827585,0 h 0.827586 v 0.827585 h -0.827586 z m -1.655171,0 h 0.827585 v 0.827585 h -0.827585 z m -0.827586,0 h 0.827585 v 0.827585 h -0.827585 z m -0.827585,0 h 0.827585 v 0.827585 h -0.827585 z m -1.655171,0 h 0.827585 v 0.827585 h -0.827585 z m -1.655172,0 h 0.827586 v 0.827585 H 59.22216 Z m -2.482757,0 h 0.827586 v 0.827585 h -0.827586 z m -1.655171,0 h 0.827585 v 0.827585 h -0.827585 z m -0.827585,0 h 0.827585 v 0.827585 h -0.827585 z m -4.137928,0 h 0.827585 v 0.827585 h -0.827585 z m -0.827586,0 h 0.827585 v 0.827585 h -0.827585 z m 19.862055,-0.827586 h 0.827585 v 0.827585 h -0.827585 z m -1.655171,0 h 0.827586 v 0.827585 h -0.827586 z m -1.655172,0 h 0.827586 v 0.827585 h -0.827586 z m -0.827586,0 h 0.827587 v 0.827585 h -0.827587 z m -2.482756,0 h 0.827585 v 0.827585 h -0.827585 z m -0.827586,0 h 0.827585 v 0.827585 h -0.827585 z m -0.827585,0 h 0.827585 v 0.827585 h -0.827585 z m -2.482757,0 h 0.827586 v 0.827585 h -0.827586 z m -1.655172,0 h 0.827586 v 0.827585 h -0.827586 z m -0.827585,0 h 0.827585 v 0.827585 h -0.827585 z m -3.310342,0 h 0.827585 v 0.827585 h -0.827585 z m -0.827586,0 h 0.827586 v 0.827585 H 51.77389 Z m -0.827586,0 h 0.827586 v 0.827585 h -0.827586 z m -2.482757,0 h 0.827586 v 0.827585 h -0.827586 z m -0.827585,0 h 0.827585 v 0.827585 h -0.827585 z m 21.517226,-0.827585 h 0.827585 v 0.827585 h -0.827585 z m -0.827585,0 h 0.827585 v 0.827585 h -0.827585 z m -0.827586,0 h 0.827586 v 0.827585 h -0.827586 z m -0.827587,0 h 0.827586 v 0.827585 H 66.67043 Z m -4.965513,0 h 0.827585 v 0.827585 h -0.827585 z m -2.482757,0 h 0.827586 v 0.827585 H 59.22216 Z m -1.655172,0 h 0.827587 v 0.827585 h -0.827587 z m -0.827585,0 h 0.827586 v 0.827585 h -0.827586 z m -3.310342,0 h 0.827586 v 0.827585 h -0.827586 z m -1.655171,0 h 0.827586 v 0.827585 H 51.77389 Z m -0.827586,0 h 0.827586 v 0.827585 h -0.827586 z m -0.827585,0 h 0.827585 v 0.827585 h -0.827585 z m -1.655172,0 h 0.827586 v 0.827585 h -0.827586 z m 19.03447,-0.827587 h 0.827586 v 0.827586 h -0.827586 z m -0.827587,0 h 0.827586 v 0.827586 H 66.67043 Z m -0.827585,0 h 0.827586 v 0.827586 h -0.827586 z m -0.827586,0 h 0.827587 v 0.827586 h -0.827587 z m -0.827585,0 h 0.827585 v 0.827586 h -0.827585 z m -2.482757,0 h 0.827585 v 0.827586 h -0.827585 z m -0.827585,0 h 0.827585 v 0.827586 h -0.827585 z m -0.827585,0 h 0.827585 v 0.827586 h -0.827585 z m -0.827587,0 h 0.827586 v 0.827586 H 59.22216 Z m -1.655172,0 h 0.827587 v 0.827586 h -0.827587 z m -1.65517,0 h 0.827585 v 0.827586 h -0.827585 z m -0.827586,0 h 0.827585 v 0.827586 h -0.827585 z m -1.655171,0 h 0.827586 v 0.827586 h -0.827586 z m -0.827585,0 h 0.827585 v 0.827586 h -0.827585 z m -0.827586,0 h 0.827586 v 0.827586 H 51.77389 Z m -0.827586,0 h 0.827586 v 0.827586 h -0.827586 z m -1.655171,0 h 0.827585 v 0.827586 h -0.827585 z m -0.827586,0 h 0.827586 v 0.827586 h -0.827586 z m 21.517226,-0.827585 h 0.827585 v 0.827585 h -0.827585 z m -3.310343,0 h 0.827586 v 0.827585 H 66.67043 Z m -4.137927,0 h 0.827585 v 0.827585 h -0.827585 z m -1.655171,0 h 0.827585 v 0.827585 h -0.827585 z m -4.965514,0 h 0.827585 v 0.827585 h -0.827585 z m -0.827586,0 h 0.827585 v 0.827585 h -0.827585 z m -3.310342,0 h 0.827586 v 0.827585 H 51.77389 Z m -0.827586,0 h 0.827586 v 0.827585 h -0.827586 z m -0.827585,0 h 0.827585 v 0.827585 h -0.827585 z m 19.862054,-0.827585 h 0.827585 v 0.827585 h -0.827585 z m -1.65517,0 h 0.827585 v 0.827585 h -0.827585 z m -0.827586,0 h 0.827586 v 0.827585 h -0.827586 z m -2.482758,0 h 0.827587 v 0.827585 h -0.827587 z m -0.827585,0 h 0.827585 v 0.827585 h -0.827585 z m -0.827586,0 h 0.827585 v 0.827585 h -0.827585 z m -0.827585,0 h 0.827585 v 0.827585 h -0.827585 z m -4.137928,0 h 0.827586 v 0.827585 h -0.827586 z m -0.827587,0 h 0.827587 v 0.827585 h -0.827587 z m -0.827585,0 h 0.827586 v 0.827585 h -0.827586 z m -0.827585,0 h 0.827585 v 0.827585 h -0.827585 z m -0.827586,0 h 0.827585 v 0.827585 h -0.827585 z m -1.655171,0 h 0.827586 v 0.827585 h -0.827586 z m -0.827585,0 h 0.827585 v 0.827585 h -0.827585 z m -0.827586,0 h 0.827586 v 0.827585 H 51.77389 Z m -0.827586,0 h 0.827586 v 0.827585 h -0.827586 z m -0.827585,0 h 0.827585 v 0.827585 h -0.827585 z m -0.827586,0 h 0.827585 v 0.827585 h -0.827585 z m -0.827586,0 h 0.827586 v 0.827585 h -0.827586 z m -0.827585,0 h 0.827585 v 0.827585 h -0.827585 z m 22.344811,-0.827587 h 0.827585 v 0.827586 h -0.827585 z m -1.65517,0 h 0.827585 v 0.827586 h -0.827585 z m -0.827586,0 h 0.827586 v 0.827586 h -0.827586 z m -0.827587,0 h 0.827586 V 34.69754 H 66.67043 Z m -1.655171,0 h 0.827587 v 0.827586 h -0.827587 z m -0.827585,0 h 0.827585 v 0.827586 h -0.827585 z m -0.827586,0 h 0.827585 v 0.827586 h -0.827585 z m -0.827585,0 h 0.827585 v 0.827586 h -0.827585 z m -2.482756,0 h 0.827585 v 0.827586 h -0.827585 z m -0.827587,0 h 0.827586 V 34.69754 H 59.22216 Z m -0.827585,0 h 0.827586 v 0.827586 h -0.827586 z m -0.827587,0 h 0.827587 v 0.827586 h -0.827587 z m -1.65517,0 h 0.827585 v 0.827586 h -0.827585 z m -2.482757,0 h 0.827586 v 0.827586 h -0.827586 z m -2.482757,0 h 0.827586 v 0.827586 h -0.827586 z m -1.655171,0 h 0.827585 v 0.827586 h -0.827585 z m 21.517225,-0.827585 h 0.827586 v 0.827586 h -0.827586 z m -1.65517,0 h 0.827585 v 0.827586 h -0.827585 z m -0.827585,0 h 0.827585 v 0.827586 h -0.827585 z m -0.827586,0 h 0.827586 v 0.827586 h -0.827586 z m -2.482758,0 h 0.827587 v 0.827586 h -0.827587 z m -0.827585,0 h 0.827585 v 0.827586 h -0.827585 z m -0.827586,0 h 0.827585 v 0.827586 h -0.827585 z m -0.827585,0 h 0.827585 v 0.827586 h -0.827585 z m -0.827586,0 h 0.827585 v 0.827586 h -0.827585 z m -0.827585,0 h 0.827585 v 0.827586 h -0.827585 z m -0.827585,0 h 0.827585 v 0.827586 h -0.827585 z m -1.655172,0 h 0.827586 v 0.827586 h -0.827586 z m -0.827587,0 h 0.827587 v 0.827586 h -0.827587 z m -0.827585,0 h 0.827586 v 0.827586 h -0.827586 z m -0.827585,0 h 0.827585 v 0.827586 h -0.827585 z m -1.655171,0 h 0.827585 v 0.827586 h -0.827585 z m -1.655171,0 h 0.827585 v 0.827586 h -0.827585 z m -2.482757,0 h 0.827585 v 0.827586 h -0.827585 z m -0.827586,0 h 0.827585 v 0.827586 h -0.827585 z m -0.827586,0 h 0.827586 v 0.827586 h -0.827586 z m -0.827585,0 h 0.827585 v 0.827586 h -0.827585 z m 15.724126,-0.827585 h 0.827585 v 0.827585 h -0.827585 z m -2.482756,0 h 0.827585 v 0.827585 h -0.827585 z m -0.827585,0 h 0.827585 v 0.827585 h -0.827585 z m -2.482759,0 h 0.827587 v 0.827585 h -0.827587 z m -1.65517,0 h 0.827585 v 0.827585 h -0.827585 z m 8.275856,-0.827586 h 0.827585 v 0.827586 h -0.827585 z m -1.655171,0 h 0.827585 v 0.827586 h -0.827585 z m -1.655171,0 h 0.827585 v 0.827586 h -0.827585 z m -1.655172,0 h 0.827586 v 0.827586 H 59.22216 Z m -1.655172,0 h 0.827587 v 0.827586 h -0.827587 z m -1.65517,0 h 0.827585 v 0.827586 h -0.827585 z m -1.655171,0 h 0.827585 v 0.827586 h -0.827585 z m 9.931027,-0.827585 h 0.827585 v 0.827585 h -0.827585 z m -0.827586,0 h 0.827585 v 0.827585 h -0.827585 z m -0.827585,0 h 0.827585 v 0.827585 h -0.827585 z m -0.827586,0 h 0.827585 v 0.827585 h -0.827585 z m -0.827585,0 h 0.827585 v 0.827585 h -0.827585 z m -0.827585,0 h 0.827585 v 0.827585 h -0.827585 z m -1.655172,0 h 0.827586 v 0.827585 h -0.827586 z m -1.655172,0 h 0.827586 v 0.827585 h -0.827586 z m -0.827585,0 h 0.827585 v 0.827585 h -0.827585 z m 8.275856,-0.827587 h 0.827585 v 0.827586 h -0.827585 z m -0.827586,0 h 0.827585 v 0.827586 h -0.827585 z m -0.827585,0 h 0.827585 v 0.827586 h -0.827585 z m -0.827586,0 h 0.827585 v 0.827586 h -0.827585 z m -0.827585,0 h 0.827585 v 0.827586 h -0.827585 z m -1.655172,0 h 0.827586 v 0.827586 H 59.22216 Z m -1.655172,0 h 0.827587 v 0.827586 h -0.827587 z m -0.827585,0 h 0.827586 v 0.827586 h -0.827586 z m -2.482756,0 h 0.827585 v 0.827586 h -0.827585 z m 7.44827,-0.827585 h 0.827585 v 0.827585 h -0.827585 z m -1.65517,0 h 0.827585 v 0.827585 h -0.827585 z m -0.827587,0 h 0.827586 v 0.827585 H 59.22216 Z m -1.655172,0 h 0.827587 v 0.827585 h -0.827587 z m -1.65517,0 h 0.827585 v 0.827585 h -0.827585 z m -0.827586,0 h 0.827585 v 0.827585 h -0.827585 z m -0.827585,0 h 0.827585 v 0.827585 h -0.827585 z m 9.931027,-0.827586 h 0.827585 v 0.827586 h -0.827585 z m -3.310342,0 h 0.827585 v 0.827586 h -0.827585 z m -4.965514,0 h 0.827585 v 0.827586 h -0.827585 z m -0.827586,0 h 0.827585 v 0.827586 h -0.827585 z m -0.827585,0 h 0.827585 v 0.827586 h -0.827585 z m 9.931027,-0.827585 h 0.827585 v 0.827585 h -0.827585 z m -1.655171,0 h 0.827585 v 0.827585 h -0.827585 z m -1.655171,0 h 0.827585 v 0.827585 h -0.827585 z m -2.482757,0 h 0.827586 v 0.827585 h -0.827586 z m -0.827587,0 h 0.827587 v 0.827585 h -0.827587 z m -0.827585,0 h 0.827586 v 0.827585 h -0.827586 z m -0.827585,0 h 0.827585 v 0.827585 h -0.827585 z m -0.827586,0 h 0.827585 v 0.827585 h -0.827585 z m 9.103442,-0.827586 h 0.827585 v 0.827586 h -0.827585 z m -4.137927,0 h 0.827585 v 0.827586 h -0.827585 z m -0.827587,0 h 0.827586 V 27.24927 H 59.22216 Z m -0.827585,0 h 0.827586 v 0.827586 h -0.827586 z m -0.827587,0 h 0.827587 v 0.827586 h -0.827587 z m -1.65517,0 h 0.827585 v 0.827586 h -0.827585 z m -1.655171,0 h 0.827585 v 0.827586 h -0.827585 z" />
  </g>
</svg>
