<?xml version="1.0" encoding="UTF-8" standalone="no"?>
<!-- Created with Inkscape (http://www.inkscape.org/) -->

<svg
   width="24pt"
   height="24pt"
   viewBox="0 0 23.999999 23.999999"
   version="1.1"
   id="svg7092"
   inkscape:version="1.1.2 (0a00cf5339, 2022-02-04)"
   sodipodi:docname="qr_license_by40.svg"
   xmlns:inkscape="http://www.inkscape.org/namespaces/inkscape"
   xmlns:sodipodi="http://sodipodi.sourceforge.net/DTD/sodipodi-0.dtd"
   xmlns="http://www.w3.org/2000/svg"
   xmlns:svg="http://www.w3.org/2000/svg">
  <sodipodi:namedview
     id="namedview7094"
     pagecolor="#ffffff"
     bordercolor="#666666"
     borderopacity="1.0"
     inkscape:pageshadow="2"
     inkscape:pageopacity="0.0"
     inkscape:pagecheckerboard="0"
     inkscape:document-units="pt"
     showgrid="false"
     units="pt"
     fit-margin-top="0"
     fit-margin-left="0"
     fit-margin-right="0"
     fit-margin-bottom="0"
     inkscape:zoom="6.4907799"
     inkscape:cx="31.660294"
     inkscape:cy="37.745849"
     inkscape:window-width="1600"
     inkscape:window-height="827"
     inkscape:window-x="0"
     inkscape:window-y="0"
     inkscape:window-maximized="1"
     inkscape:current-layer="layer1" />
  <defs
     id="defs7089" />
  <g
     inkscape:label="Слой 1"
     inkscape:groupmode="layer"
     id="layer1"
     transform="translate(-73.462049,-63.316094)">
    <path
       id="polygon717"
       style="stroke-width:0.00827601"
       d="m 75.108956,84.005732 v 0.8276 0.827574 h 0.827585 0.827566 1.7e-5 0.827569 v -0.827574 -0.8276 -0.827577 h -0.827569 -1.7e-5 -0.827566 -0.827585 z m 3.318612,-2.482743 h -0.8276 -0.827576 -9e-6 -0.827574 -0.827583 -0.827585 -0.827592 v 0.827583 0.827587 0.827581 0.827592 0.827578 0.827582 0.827586 h 0.827592 0.827585 0.827583 0.827574 9e-6 0.827576 0.8276 0.827583 V 86.488492 85.66091 84.833332 84.00574 83.178159 82.350572 81.522989 Z m 0,1.65517 v 0.827581 0.827592 0.827578 0.827582 h -0.8276 -0.827576 -9e-6 -0.827574 -0.827583 -0.827585 V 85.66091 84.833332 84.00574 83.178159 82.350572 h 0.827585 0.827583 0.827574 9e-6 0.827576 0.8276 z M 93.315853,65.798836 v 0.827601 0.827574 h 0.827586 0.827565 v 0 h 0.827569 v -0.827574 -0.827601 -0.827577 h -0.827569 v 0 h -0.827565 -0.827586 z m 3.318613,-2.482742 h -0.8276 -0.827578 -5e-6 -0.827577 -0.827583 -0.827586 -0.82759 v 0.827583 0.827582 0.827586 0.827592 0.827574 0.827585 0.827583 h 0.82759 0.827586 0.827583 0.827577 5e-6 0.827578 0.8276 0.827583 v -0.827583 -0.827585 -0.827574 -0.827592 -0.827586 -0.827582 -0.827583 z m 0,1.655165 v 0.827586 0.827592 0.827574 0.827585 h -0.8276 -0.827578 -5e-6 -0.827577 -0.827583 -0.827586 v -0.827585 -0.827574 -0.827592 -0.827586 -0.827582 h 0.827586 0.827583 0.827577 5e-6 0.827578 0.8276 z m -21.52551,0.827577 v 0.827601 0.827574 h 0.827585 0.827566 1.7e-5 0.827569 v -0.827574 -0.827601 -0.827577 h -0.827569 -1.7e-5 -0.827566 -0.827585 z m 3.318612,-2.482742 h -0.8276 -0.827576 -9e-6 -0.827574 -0.827583 -0.827585 -0.827592 v 0.827583 0.827582 0.827586 0.827592 0.827574 0.827585 0.827583 h 0.827592 0.827585 0.827583 0.827574 9e-6 0.827576 0.8276 0.827583 v -0.827583 -0.827585 -0.827574 -0.827592 -0.827586 -0.827582 -0.827583 z m 0,1.655165 v 0.827586 0.827592 0.827574 0.827585 h -0.8276 -0.827576 -9e-6 -0.827574 -0.827583 -0.827585 v -0.827585 -0.827574 -0.827592 -0.827586 -0.827582 h 0.827585 0.827583 0.827574 9e-6 0.827576 0.8276 z m 16.551708,21.517232 h 0.827585 v 0.827585 h -0.827585 z m -0.827585,0 h 0.827585 v 0.827585 h -0.827585 z m -0.827586,0 h 0.827586 v 0.827585 h -0.827586 z m -1.655173,0 h 0.827587 v 0.827585 h -0.827587 z m -2.482756,0 h 0.827585 v 0.827585 h -0.827585 z m -1.655171,0 h 0.827585 v 0.827585 h -0.827585 z m -0.827585,0 h 0.827585 v 0.827585 H 86.70342 Z m -0.827586,0 h 0.827586 v 0.827585 h -0.827586 z m -0.827587,0 h 0.827586 v 0.827585 h -0.827586 z m -0.827585,0 h 0.827586 v 0.827585 h -0.827586 z m -0.827586,0 h 0.827586 v 0.827585 h -0.827586 z m -2.482757,0 h 0.827585 v 0.827585 h -0.827585 z m -0.827585,0 h 0.827585 v 0.827585 h -0.827585 z m 16.551712,-0.827585 h 0.827585 v 0.827585 h -0.827585 z m -1.65517,0 h 0.827585 v 0.827585 h -0.827585 z m -0.827585,0 h 0.827585 v 0.827585 h -0.827585 z m -4.137929,0 h 0.827585 v 0.827585 h -0.827585 z m -1.655171,0 h 0.827585 v 0.827585 h -0.827585 z m -0.827586,0 h 0.827585 v 0.827585 h -0.827585 z m -0.827585,0 h 0.827585 v 0.827585 H 86.70342 Z m -2.482758,0 h 0.827586 v 0.827585 h -0.827586 z m -0.827586,0 h 0.827586 v 0.827585 h -0.827586 z m -0.827585,0 h 0.827586 v 0.827585 h -0.827586 z m -1.655172,0 h 0.827585 v 0.827585 h -0.827585 z m -0.827585,0 h 0.827585 v 0.827585 h -0.827585 z m 15.724127,-0.827585 h 0.827585 v 0.827585 h -0.827585 z m -0.827585,0 h 0.827585 v 0.827585 h -0.827585 z m -2.482759,0 h 0.827587 v 0.827585 h -0.827587 z m -3.310341,0 h 0.827585 v 0.827585 h -0.827585 z m -0.827585,0 h 0.827585 v 0.827585 h -0.827585 z m -0.827586,0 h 0.827585 v 0.827585 h -0.827585 z m -3.310343,0 h 0.827586 v 0.827585 h -0.827586 z m -2.482756,0 h 0.827585 v 0.827585 h -0.827585 z m -0.827587,0 h 0.827585 v 0.827585 h -0.827585 z m -0.827585,0 h 0.827585 v 0.827585 h -0.827585 z m 12.413783,-0.827585 h 0.827587 v 0.827585 h -0.827587 z m -0.827585,0 h 0.827587 v 0.827585 h -0.827587 z m -0.827585,0 h 0.827586 v 0.827585 h -0.827586 z m -0.827585,0 h 0.827585 v 0.827585 h -0.827585 z m -3.310342,0 h 0.827585 v 0.827585 H 86.70342 Z m -0.827586,0 h 0.827586 v 0.827585 h -0.827586 z m -2.482758,0 h 0.827586 v 0.827585 h -0.827586 z m -1.65517,0 h 0.827585 v 0.827585 h -0.827585 z m -1.655172,0 h 0.827585 v 0.827585 H 80.082734 Z M 96.634446,83.17815 h 0.827585 v 0.827586 h -0.827585 z m -0.827585,0 h 0.827585 v 0.827586 h -0.827585 z m -0.827585,0 h 0.827585 v 0.827586 h -0.827585 z m -1.655171,0 h 0.827586 v 0.827586 h -0.827586 z m -0.827588,0 h 0.827587 v 0.827586 h -0.827587 z m -0.827585,0 h 0.827587 v 0.827586 h -0.827587 z m -0.827585,0 h 0.827586 v 0.827586 h -0.827586 z m -0.827585,0 h 0.827585 v 0.827586 h -0.827585 z m -2.482757,0 h 0.827585 v 0.827586 h -0.827585 z m -1.655171,0 h 0.827586 v 0.827586 h -0.827586 z m -0.827587,0 h 0.827586 v 0.827586 h -0.827586 z m -1.655171,0 h 0.827586 v 0.827586 h -0.827586 z m -3.310342,0 h 0.827585 v 0.827586 h -0.827585 z m 16.551712,-0.827588 h 0.827585 v 0.827587 h -0.827585 z m -0.827585,0 h 0.827585 v 0.827587 h -0.827585 z m -0.827585,0 h 0.827585 v 0.827587 h -0.827585 z m -1.655171,0 h 0.827586 v 0.827587 h -0.827586 z m -3.310343,0 h 0.827585 v 0.827587 h -0.827585 z m -0.827586,0 h 0.827585 v 0.827587 h -0.827585 z m -0.827585,0 h 0.827585 v 0.827587 h -0.827585 z m -1.655171,0 h 0.827585 v 0.827587 H 86.70342 Z m -1.655173,0 h 0.827586 v 0.827587 h -0.827586 z m -1.655171,0 h 0.827586 v 0.827587 h -0.827586 z m -1.65517,0 h 0.827585 v 0.827587 h -0.827585 z m -0.827587,0 h 0.827585 v 0.827587 h -0.827585 z m 14.068957,-0.827585 h 0.827585 v 0.827587 h -0.827585 z m -0.827585,0 h 0.827585 v 0.827587 h -0.827585 z m -0.827586,0 h 0.827586 v 0.827587 h -0.827586 z m -1.655173,0 h 0.827587 v 0.827587 h -0.827587 z m -1.65517,0 h 0.827585 v 0.827587 h -0.827585 z m -2.482757,0 h 0.827585 v 0.827587 h -0.827585 z m -3.310343,0 h 0.827586 v 0.827587 h -0.827586 z m -0.827586,0 h 0.827586 v 0.827587 h -0.827586 z m -3.310342,0 h 0.827585 v 0.827587 h -0.827585 z m 15.724127,-0.827585 h 0.827585 v 0.827586 h -0.827585 z m -2.482756,0 h 0.827586 v 0.827586 h -0.827586 z m -3.310343,0 h 0.827585 v 0.827586 h -0.827585 z m -0.827586,0 h 0.827585 v 0.827586 h -0.827585 z m -0.827585,0 h 0.827585 v 0.827586 h -0.827585 z m -2.482757,0 h 0.827586 v 0.827586 h -0.827586 z m -0.827587,0 h 0.827586 v 0.827586 h -0.827586 z m -1.655171,0 h 0.827586 v 0.827586 h -0.827586 z m -3.310342,0 h 0.827585 v 0.827586 h -0.827585 z m 15.724127,-0.827585 h 0.827585 v 0.827585 h -0.827585 z m -0.827585,0 h 0.827585 v 0.827585 h -0.827585 z m -0.827585,0 h 0.827585 v 0.827585 h -0.827585 z m -0.827586,0 h 0.827586 v 0.827585 h -0.827586 z m -0.827588,0 h 0.827587 v 0.827585 h -0.827587 z m -0.827585,0 h 0.827587 v 0.827585 h -0.827587 z m -0.827585,0 h 0.827586 v 0.827585 h -0.827586 z m -0.827585,0 h 0.827585 v 0.827585 h -0.827585 z m -1.655171,0 h 0.827585 v 0.827585 h -0.827585 z m -0.827586,0 h 0.827585 v 0.827585 h -0.827585 z m -0.827585,0 h 0.827585 v 0.827585 H 86.70342 Z m -0.827586,0 h 0.827586 v 0.827585 h -0.827586 z m -0.827587,0 h 0.827586 v 0.827585 h -0.827586 z m -0.827585,0 h 0.827586 v 0.827585 h -0.827586 z m -0.827586,0 h 0.827586 v 0.827585 h -0.827586 z m -0.827585,0 h 0.827586 v 0.827585 h -0.827586 z m -1.655172,0 h 0.827585 v 0.827585 h -0.827585 z m -0.827585,0 h 0.827585 v 0.827585 h -0.827585 z m -1.655171,0 h 0.827585 v 0.827585 h -0.827585 z m -0.827586,0 h 0.827586 v 0.827585 h -0.827586 z m -1.65517,0 h 0.827585 v 0.827585 h -0.827585 z m -2.482758,0 h 0.827585 v 0.827585 h -0.827585 z m 23.172397,-0.827586 h 0.827585 v 0.827585 h -0.827585 z m -0.827585,0 h 0.827585 v 0.827585 h -0.827585 z m -2.482756,0 h 0.827586 v 0.827585 h -0.827586 z m -0.827588,0 h 0.827587 v 0.827585 h -0.827587 z m -0.827585,0 h 0.827587 v 0.827585 h -0.827587 z m -0.827585,0 h 0.827586 v 0.827585 h -0.827586 z m -0.827585,0 h 0.827585 v 0.827585 h -0.827585 z m -0.827586,0 h 0.827585 v 0.827585 h -0.827585 z m -2.482756,0 h 0.827585 v 0.827585 H 86.70342 Z m -2.482758,0 h 0.827586 v 0.827585 h -0.827586 z m -1.655171,0 h 0.827586 v 0.827585 h -0.827586 z m -2.482757,0 h 0.827585 v 0.827585 h -0.827585 z m -0.827586,0 h 0.827586 v 0.827585 h -0.827586 z m -1.655171,0 h 0.827586 v 0.827585 h -0.827586 z m -0.827585,0 h 0.827585 v 0.827585 h -0.827585 z m -1.655172,0 h 0.827585 v 0.827585 H 75.11722 Z m -1.655171,0 h 0.827585 v 0.827585 h -0.827585 z m 23.172397,-0.827585 h 0.827585 v 0.827585 h -0.827585 z m -0.827585,0 h 0.827585 v 0.827585 h -0.827585 z m -0.827585,0 h 0.827585 v 0.827585 h -0.827585 z m -0.827585,0 h 0.827585 v 0.827585 h -0.827585 z m -6.620686,0 h 0.827585 v 0.827585 h -0.827585 z m -1.655171,0 h 0.827586 v 0.827585 h -0.827586 z m -1.655172,0 h 0.827586 v 0.827585 h -0.827586 z m -0.827586,0 h 0.827586 v 0.827585 h -0.827586 z m -0.827585,0 h 0.827586 v 0.827585 h -0.827586 z m -0.827585,0 h 0.827585 v 0.827585 h -0.827585 z m -3.310343,0 h 0.827585 v 0.827585 h -0.827585 z m -1.655171,0 h 0.827585 v 0.827585 h -0.827585 z m -1.655172,0 h 0.827585 v 0.827585 H 75.11722 Z m -1.655171,0 h 0.827585 v 0.827585 H 73.462049 Z M 96.634446,77.38505 h 0.827585 v 0.827585 h -0.827585 z m -2.482755,0 h 0.827585 v 0.827585 h -0.827585 z m -0.827586,0 h 0.827586 v 0.827585 h -0.827586 z m -2.482758,0 h 0.827586 v 0.827585 h -0.827586 z m -1.655171,0 h 0.827585 v 0.827585 h -0.827585 z m -4.137929,0 h 0.827586 v 0.827585 h -0.827586 z m -4.965513,0 h 0.827585 v 0.827585 h -0.827585 z m -2.482757,0 h 0.827586 v 0.827585 h -0.827586 z m -0.827585,0 h 0.827585 v 0.827585 h -0.827585 z m -0.827585,0 h 0.827585 v 0.827585 h -0.827585 z m -0.827587,0 h 0.827585 v 0.827585 H 75.11722 Z m -0.827586,0 h 0.827586 v 0.827585 h -0.827586 z m -0.827585,0 h 0.827585 v 0.827585 h -0.827585 z m 19.034468,-0.827585 h 0.827587 v 0.827585 h -0.827587 z m -2.482755,0 h 0.827585 v 0.827585 h -0.827585 z m -2.482757,0 h 0.827585 v 0.827585 h -0.827585 z m -0.827585,0 h 0.827585 V 77.38505 H 86.70342 Z m -0.827586,0 h 0.827586 v 0.827585 h -0.827586 z m -2.482758,0 h 0.827586 v 0.827585 h -0.827586 z m -2.482757,0 h 0.827585 v 0.827585 h -0.827585 z m -1.655171,0 h 0.827586 v 0.827585 h -0.827586 z m -0.827585,0 h 0.827585 v 0.827585 h -0.827585 z m -0.827586,0 h 0.827586 v 0.827585 h -0.827586 z m -3.310343,0 h 0.827586 v 0.827585 h -0.827586 z m 22.344812,-0.827586 h 0.827585 v 0.827586 h -0.827585 z m -0.827585,0 h 0.827585 v 0.827586 h -0.827585 z m -2.482756,0 h 0.827586 v 0.827586 h -0.827586 z m -0.827588,0 h 0.827587 v 0.827586 h -0.827587 z m -0.827585,0 h 0.827587 v 0.827586 h -0.827587 z m -1.65517,0 h 0.827585 v 0.827586 h -0.827585 z m -0.827586,0 h 0.827585 v 0.827586 h -0.827585 z m -0.827585,0 h 0.827585 v 0.827586 h -0.827585 z m -0.827586,0 h 0.827585 v 0.827586 h -0.827585 z m -0.827585,0 h 0.827585 v 0.827586 H 86.70342 Z m -1.655173,0 h 0.827586 v 0.827586 h -0.827586 z m -0.827585,0 h 0.827586 v 0.827586 h -0.827586 z m -0.827586,0 h 0.827586 v 0.827586 h -0.827586 z m -1.65517,0 h 0.827585 v 0.827586 h -0.827585 z m -1.655172,0 h 0.827585 v 0.827586 h -0.827585 z m -2.482757,0 h 0.827586 v 0.827586 h -0.827586 z m -0.827585,0 h 0.827585 v 0.827586 h -0.827585 z m -2.482758,0 h 0.827586 v 0.827586 h -0.827586 z m -0.827585,0 h 0.827585 v 0.827586 h -0.827585 z m 23.172397,-0.827587 h 0.827585 v 0.827586 h -0.827585 z m -0.827585,0 h 0.827585 v 0.827586 h -0.827585 z m -0.827585,0 h 0.827585 v 0.827586 h -0.827585 z m -0.827585,0 h 0.827585 v 0.827586 h -0.827585 z m -1.655174,0 h 0.827587 v 0.827586 h -0.827587 z m -3.310341,0 h 0.827585 v 0.827586 h -0.827585 z m -1.655171,0 h 0.827585 v 0.827586 h -0.827585 z m -1.655171,0 h 0.827586 v 0.827586 h -0.827586 z m -0.827587,0 h 0.827586 v 0.827586 h -0.827586 z m -0.827585,0 h 0.827586 v 0.827586 h -0.827586 z m -2.482756,0 h 0.827585 v 0.827586 h -0.827585 z m -3.310343,0 h 0.827585 v 0.827586 h -0.827585 z m -3.310343,0 h 0.827585 v 0.827586 H 75.11722 Z m -1.655171,0 h 0.827585 v 0.827586 h -0.827585 z m 22.344812,-0.827585 h 0.827585 v 0.827586 h -0.827585 z m -1.65517,0 h 0.827585 v 0.827586 h -0.827585 z m -0.827586,0 h 0.827586 v 0.827586 h -0.827586 z m -3.310343,0 h 0.827585 v 0.827586 h -0.827585 z m -0.827586,0 h 0.827585 v 0.827586 h -0.827585 z m -0.827585,0 h 0.827585 v 0.827586 h -0.827585 z m -1.655171,0 h 0.827585 v 0.827586 H 86.70342 Z m -0.827586,0 h 0.827586 v 0.827586 h -0.827586 z m -2.482758,0 h 0.827586 v 0.827586 h -0.827586 z m -1.65517,0 h 0.827585 v 0.827586 h -0.827585 z m -0.827587,0 h 0.827585 v 0.827586 h -0.827585 z m -0.827585,0 h 0.827585 v 0.827586 h -0.827585 z m -3.310342,0 h 0.827585 v 0.827586 h -0.827585 z m -0.827585,0 h 0.827585 v 0.827586 h -0.827585 z m -0.827587,0 h 0.827585 v 0.827586 H 75.11722 Z m -0.827586,0 h 0.827586 v 0.827586 h -0.827586 z m 16.551713,-0.827586 h 0.827586 v 0.827586 h -0.827586 z m -0.827585,0 h 0.827585 v 0.827586 h -0.827585 z m -2.482757,0 h 0.827585 v 0.827586 h -0.827585 z m -0.827585,0 h 0.827585 v 0.827586 H 86.70342 Z m -0.827586,0 h 0.827586 v 0.827586 h -0.827586 z m -1.655172,0 h 0.827586 v 0.827586 h -0.827586 z m -1.655171,0 h 0.827586 v 0.827586 h -0.827586 z m -1.655172,0 h 0.827585 v 0.827586 h -0.827585 z m -1.655171,0 h 0.827586 v 0.827586 h -0.827586 z m -0.827585,0 h 0.827585 v 0.827586 h -0.827585 z m -3.310343,0 h 0.827585 v 0.827586 H 75.11722 Z m 21.517226,-0.827585 h 0.827585 v 0.827586 h -0.827585 z m -2.482755,0 h 0.827585 v 0.827586 h -0.827585 z m -0.827586,0 h 0.827586 v 0.827586 h -0.827586 z m -0.827588,0 h 0.827587 v 0.827586 h -0.827587 z m -0.827585,0 h 0.827587 v 0.827586 h -0.827587 z m -0.827585,0 h 0.827586 v 0.827586 h -0.827586 z m -0.827585,0 h 0.827585 v 0.827586 h -0.827585 z m -0.827586,0 h 0.827585 v 0.827586 h -0.827585 z m -0.827585,0 h 0.827585 v 0.827586 h -0.827585 z m -0.827586,0 h 0.827585 v 0.827586 h -0.827585 z m -0.827585,0 h 0.827585 v 0.827586 H 86.70342 Z m -4.137929,0 h 0.827586 v 0.827586 h -0.827586 z m -0.827585,0 h 0.827585 v 0.827586 h -0.827585 z m -0.827587,0 h 0.827585 v 0.827586 h -0.827585 z m -0.827585,0 h 0.827585 v 0.827586 h -0.827585 z m -2.482757,0 h 0.827586 v 0.827586 h -0.827586 z m -2.482757,0 h 0.827585 v 0.827586 H 75.11722 Z m 19.862056,-0.827585 h 0.827585 v 0.827585 h -0.827585 z m -0.827585,0 h 0.827585 v 0.827585 h -0.827585 z m -4.965515,0 h 0.827585 v 0.827585 h -0.827585 z m -0.827585,0 h 0.827585 v 0.827585 h -0.827585 z m -0.827586,0 h 0.827585 v 0.827585 h -0.827585 z m -2.482758,0 h 0.827586 v 0.827585 h -0.827586 z m -0.827585,0 h 0.827586 v 0.827585 h -0.827586 z m -0.827586,0 h 0.827586 v 0.827585 h -0.827586 z m -0.827585,0 h 0.827586 v 0.827585 h -0.827586 z m -1.655172,0 h 0.827585 v 0.827585 h -0.827585 z m -1.655171,0 h 0.827586 v 0.827585 h -0.827586 z m -0.827585,0 h 0.827585 v 0.827585 h -0.827585 z m -2.482756,0 h 0.827585 v 0.827585 h -0.827585 z m -0.827587,0 h 0.827585 v 0.827585 H 75.11722 Z m -0.827586,0 h 0.827586 v 0.827585 h -0.827586 z m 21.517227,-0.827587 h 0.827585 v 0.827585 h -0.827585 z m -1.65517,0 h 0.827585 v 0.827585 h -0.827585 z m -0.827586,0 h 0.827586 v 0.827585 h -0.827586 z m -0.827588,0 h 0.827587 v 0.827585 h -0.827587 z m -2.482755,0 h 0.827585 v 0.827585 h -0.827585 z m -3.310342,0 h 0.827585 v 0.827585 H 86.70342 Z m -1.655173,0 h 0.827586 v 0.827585 h -0.827586 z m -4.137928,0 h 0.827585 v 0.827585 h -0.827585 z m -0.827585,0 h 0.827585 v 0.827585 h -0.827585 z m -0.827586,0 h 0.827586 v 0.827585 h -0.827586 z m -3.310341,0 h 0.827585 v 0.827585 h -0.827585 z m -1.655173,0 h 0.827586 v 0.827585 h -0.827586 z m -0.827585,0 h 0.827585 v 0.827585 h -0.827585 z m 22.344812,-0.827585 h 0.827585 v 0.827585 h -0.827585 z m -1.65517,0 h 0.827585 v 0.827585 h -0.827585 z m -1.655174,0 h 0.827587 v 0.827585 h -0.827587 z m -1.65517,0 h 0.827586 v 0.827585 h -0.827586 z m -0.827585,0 h 0.827585 v 0.827585 h -0.827585 z m -1.655171,0 h 0.827585 v 0.827585 h -0.827585 z m -0.827586,0 h 0.827585 v 0.827585 h -0.827585 z m -1.655171,0 h 0.827586 v 0.827585 h -0.827586 z m -0.827587,0 h 0.827586 v 0.827585 h -0.827586 z m -0.827585,0 h 0.827586 v 0.827585 h -0.827586 z m -0.827586,0 h 0.827586 v 0.827585 h -0.827586 z m -1.65517,0 h 0.827585 v 0.827585 h -0.827585 z m -0.827587,0 h 0.827585 v 0.827585 h -0.827585 z m -0.827585,0 h 0.827585 v 0.827585 h -0.827585 z m -0.827586,0 h 0.827586 v 0.827585 h -0.827586 z m -0.827585,0 h 0.827585 v 0.827585 h -0.827585 z m -1.655171,0 h 0.827585 v 0.827585 h -0.827585 z m -0.827585,0 h 0.827585 v 0.827585 h -0.827585 z m -0.827587,0 h 0.827585 v 0.827585 H 75.11722 Z m -0.827586,0 h 0.827586 v 0.827585 h -0.827586 z m -0.827585,0 h 0.827585 v 0.827585 h -0.827585 z m 16.551713,-0.827586 h 0.827585 v 0.827586 h -0.827585 z m -0.827586,0 h 0.827585 v 0.827586 h -0.827585 z m -2.482756,0 h 0.827585 v 0.827586 H 86.70342 Z m -2.482758,0 h 0.827586 v 0.827586 h -0.827586 z m -0.827586,0 h 0.827586 v 0.827586 h -0.827586 z m 6.620686,-0.827585 h 0.827585 v 0.827585 h -0.827585 z m -1.655171,0 h 0.827585 v 0.827585 h -0.827585 z m -1.655171,0 h 0.827585 v 0.827585 H 86.70342 Z m -1.655173,0 h 0.827586 v 0.827585 h -0.827586 z m -1.655171,0 h 0.827586 v 0.827585 h -0.827586 z m -1.65517,0 h 0.827585 v 0.827585 h -0.827585 z m -1.655172,0 h 0.827585 v 0.827585 h -0.827585 z m 9.103442,-0.827586 h 0.827585 v 0.827586 h -0.827585 z m -1.655171,0 h 0.827585 v 0.827586 h -0.827585 z m -0.827585,0 h 0.827585 v 0.827586 H 86.70342 Z m -0.827586,0 h 0.827586 v 0.827586 h -0.827586 z m -1.655172,0 h 0.827586 v 0.827586 h -0.827586 z m -2.482756,0 h 0.827585 v 0.827586 h -0.827585 z m -1.655172,0 h 0.827585 v 0.827586 h -0.827585 z m 9.931028,-0.827585 h 0.827585 v 0.827585 h -0.827585 z m -1.655171,0 h 0.827585 v 0.827585 h -0.827585 z m -3.310344,0 h 0.827586 v 0.827585 h -0.827586 z m -1.655171,0 h 0.827586 v 0.827585 h -0.827586 z m -1.65517,0 h 0.827585 v 0.827585 h -0.827585 z m 8.275856,-0.827585 h 0.827585 v 0.827585 h -0.827585 z m -2.482757,0 h 0.827585 v 0.827585 h -0.827585 z m -0.827585,0 h 0.827585 v 0.827585 H 86.70342 Z m -0.827586,0 h 0.827586 v 0.827585 h -0.827586 z m -1.655172,0 h 0.827586 v 0.827585 h -0.827586 z m -1.655171,0 h 0.827586 v 0.827585 h -0.827586 z m -1.655172,0 h 0.827585 v 0.827585 h -0.827585 z m -0.827585,0 h 0.827585 v 0.827585 h -0.827585 z m 9.931028,-0.827587 h 0.827585 v 0.827585 h -0.827585 z m -0.827586,0 h 0.827585 v 0.827585 h -0.827585 z m -0.827585,0 h 0.827585 v 0.827585 h -0.827585 z m -0.827586,0 h 0.827585 v 0.827585 h -0.827585 z m -0.827585,0 h 0.827585 V 65.79885 H 86.70342 Z m -1.655173,0 h 0.827586 v 0.827585 h -0.827586 z m -2.482756,0 h 0.827586 v 0.827585 h -0.827586 z m -0.827585,0 h 0.827585 v 0.827585 h -0.827585 z m -0.827587,0 h 0.827585 v 0.827585 h -0.827585 z m 8.275857,-0.827586 h 0.827585 v 0.827586 h -0.827585 z m -1.655171,0 h 0.827585 v 0.827586 h -0.827585 z m -1.655171,0 h 0.827586 v 0.827586 h -0.827586 z m -0.827587,0 h 0.827586 v 0.827586 h -0.827586 z m -0.827585,0 h 0.827586 v 0.827586 h -0.827586 z m -0.827586,0 h 0.827586 v 0.827586 h -0.827586 z m -0.827585,0 h 0.827586 v 0.827586 h -0.827586 z m -1.655172,0 h 0.827585 v 0.827586 h -0.827585 z m -0.827585,0 h 0.827585 v 0.827586 h -0.827585 z m 9.931028,-0.827585 h 0.827585 v 0.827585 h -0.827585 z m -0.827586,0 h 0.827585 v 0.827585 h -0.827585 z m -2.482756,0 h 0.827585 v 0.827585 H 86.70342 Z m -0.827586,0 h 0.827586 v 0.827585 h -0.827586 z m -0.827587,0 h 0.827586 v 0.827585 h -0.827586 z m -4.137928,0 h 0.827585 v 0.827585 h -0.827585 z" />
  </g>
</svg>
