<?xml version="1.0" encoding="UTF-8" standalone="no"?>
<!-- Created with Inkscape (http://www.inkscape.org/) -->

<svg
   width="48pt"
   height="43.861294pt"
   viewBox="0 0 47.999999 43.861292"
   version="1.1"
   id="svg5"
   inkscape:version="1.1.2 (0a00cf5339, 2022-02-04)"
   sodipodi:docname="tw.svg"
   xmlns:inkscape="http://www.inkscape.org/namespaces/inkscape"
   xmlns:sodipodi="http://sodipodi.sourceforge.net/DTD/sodipodi-0.dtd"
   xmlns="http://www.w3.org/2000/svg"
   xmlns:svg="http://www.w3.org/2000/svg">
  <sodipodi:namedview
     id="namedview7"
     pagecolor="#ffffff"
     bordercolor="#666666"
     borderopacity="1.0"
     inkscape:pageshadow="2"
     inkscape:pageopacity="0.0"
     inkscape:pagecheckerboard="0"
     inkscape:document-units="pt"
     showgrid="false"
     units="pt"
     fit-margin-top="0"
     fit-margin-left="0"
     fit-margin-right="0"
     fit-margin-bottom="0"
     inkscape:zoom="2.2948373"
     inkscape:cx="39.000587"
     inkscape:cy="128.98518"
     inkscape:window-width="1600"
     inkscape:window-height="827"
     inkscape:window-x="0"
     inkscape:window-y="0"
     inkscape:window-maximized="1"
     inkscape:current-layer="layer1" />
  <defs
     id="defs2" />
  <g
     inkscape:label="Слой 1"
     inkscape:groupmode="layer"
     id="layer1"
     transform="translate(-40.162643,-22.349019)">
    <path
       style="fill:#ffffff;stroke-width:0.0938613"
       d="m 47.461811,66.118455 c -2.310824,-0.299045 -4.490252,-1.685572 -5.888663,-3.746297 -1.051318,-1.549241 -1.585269,-3.74132 -1.359271,-5.580315 0.11908,-0.968958 0.466063,-2.178538 0.835963,-2.914145 0.323686,-0.643697 15.536937,-26.998718 15.956263,-27.642192 1.176346,-1.805151 3.00002,-3.133069 5.045475,-3.673885 1.075487,-0.284358 3.155859,-0.283276 4.223765,0.0021 2.00813,0.536807 3.775028,1.77725 4.899013,3.439326 0.469404,0.694129 15.641504,26.958408 16.102309,27.874559 1.152869,2.292091 1.181945,4.972202 0.07946,7.324842 -0.467676,0.998002 -0.974706,1.734503 -1.68874,2.453046 -1.378005,1.386703 -2.993318,2.194693 -4.92458,2.463308 -0.878916,0.122247 -32.336176,0.121829 -33.280995,-3.55e-4 z"
       id="path836-3" />
    <path
       style="fill:#000000;stroke-width:0.0938613"
       d="m 47.46181,66.118455 c -2.310823,-0.299045 -4.490251,-1.685572 -5.888662,-3.746297 -1.051318,-1.549241 -1.585271,-3.74132 -1.359271,-5.580315 0.119078,-0.968958 0.466063,-2.178538 0.835963,-2.914145 0.323685,-0.643697 15.536937,-26.998718 15.956262,-27.642191 1.176347,-1.805152 3.000021,-3.13307 5.045476,-3.673885 1.075487,-0.284359 3.155859,-0.283277 4.223765,0.0021 2.008126,0.536807 3.775025,1.77725 4.89901,3.439327 0.469407,0.694129 15.641507,26.958407 16.102312,27.874558 1.152869,2.292091 1.181945,4.972202 0.07946,7.324842 -0.467676,0.998002 -0.974706,1.734503 -1.68874,2.453046 -1.378005,1.386703 -2.993318,2.194693 -4.92458,2.463308 C 79.86389,66.241078 48.40663,66.24066 47.46181,66.118476 Z m 32.798884,-3.841959 c 3.01288,-0.421627 4.897492,-3.811334 3.62587,-6.521568 C 83.520627,54.975003 68.255089,28.546456 67.851849,27.994739 67.17554,27.069411 66.056911,26.416334 64.820491,26.224974 c -0.934551,-0.144636 -1.843965,0.0065 -2.741523,0.455487 -1.33624,0.668495 -0.908242,-0.0025 -9.577972,15.014207 -4.32359,7.488791 -7.965478,13.844032 -8.093081,14.122757 -1.000809,2.186052 0.01339,4.944752 2.216785,6.029807 0.387118,0.190636 0.93813,0.375682 1.253801,0.421069 0.803349,0.115496 31.559793,0.123283 32.382193,0.0082 z M 63.170327,57.876448 c -1.500128,-0.681319 -1.911041,-2.656943 -0.806833,-3.87917 0.522922,-0.578813 0.973797,-0.772256 1.799965,-0.772256 0.541372,0 0.792728,0.04699 1.088293,0.203483 0.454061,0.240397 0.945223,0.773412 1.138133,1.235104 0.192978,0.461862 0.187543,1.473277 -0.01039,1.936072 -0.504454,1.179408 -2.060467,1.798468 -3.209153,1.276767 z m 0.165446,-6.635943 c -0.3582,-0.178501 -0.555173,-0.35648 -0.735993,-0.665025 -0.243477,-0.415464 -0.249905,-0.473487 -0.464449,-4.191226 -0.119654,-2.073461 -0.281974,-4.74503 -0.360711,-5.936823 -0.159376,-2.412348 -0.112645,-2.858182 0.377151,-3.598316 0.45753,-0.691372 1.145025,-1.040863 2.041263,-1.037681 1.342981,0.0048 2.292411,0.936517 2.385611,2.341182 0.02238,0.337365 -0.06898,2.366255 -0.203039,4.508641 -0.134053,2.142389 -0.267951,4.592171 -0.297548,5.443962 -0.066,1.899359 -0.184765,2.391183 -0.687005,2.844929 -0.635333,0.573985 -1.29819,0.667628 -2.05528,0.290357 z"
       id="path836" />
  </g>
</svg>
