<?xml version="1.0" encoding="UTF-8"?>
<svg xmlns="http://www.w3.org/2000/svg" xmlns:xlink="http://www.w3.org/1999/xlink" width="1052pt" height="744pt" viewBox="0 0 1052 744" version="1.1">
<g id="surface1">
<path style=" stroke:none;fill-rule:nonzero;fill:rgb(0%,0%,0%);fill-opacity:1;" d="M 698.734375 39.1875 C 681.957031 41.800781 669.578125 56.238281 669.558594 73.214844 C 669.554688 92.261719 684.996094 107.699219 704.039062 107.699219 C 723.085938 107.699219 738.523438 92.257812 738.523438 73.214844 C 738.503906 63.339844 734.257812 53.945312 726.851562 47.414062 C 727.28125 48.867188 727.5 50.375 727.507812 51.886719 C 727.507812 61.109375 719.695312 68.589844 710.058594 68.589844 C 700.425781 68.589844 692.613281 61.109375 692.613281 51.886719 C 692.617188 47 694.851562 42.359375 698.734375 39.1875 Z M 534.214844 78.394531 C 506.746094 78.15625 479.648438 82.515625 456.699219 94.214844 C 440.542969 102.449219 428.121094 121.324219 416.792969 144.925781 C 392.707031 110.792969 365.820312 83.964844 326.847656 79.050781 L 288.105469 90.035156 C 334.214844 99.617188 369.082031 136.867188 401.496094 180.167969 C 377.570312 238.9375 353.027344 307.410156 299.800781 322.988281 C 309.847656 334.140625 316 347.199219 320.308594 361.164062 C 367.519531 336.460938 390.398438 259.691406 414.519531 198 C 435.078125 226.699219 455.125 256.664062 476.980469 282.175781 L 493.613281 259.675781 L 494.109375 259.566406 C 469.257812 230.417969 449.695312 195.175781 429.261719 163.511719 C 439.984375 141.320312 451.816406 124.097656 466.632812 116.792969 C 539.050781 81.09375 599.96875 119.722656 603.578125 119.722656 C 607.191406 119.722656 634.011719 96.285156 634.011719 96.285156 C 605.46875 86.605469 569.53125 78.703125 534.214844 78.394531 Z M 651.511719 104.679688 L 618.398438 131.550781 C 606.269531 193.789062 612.335938 241.476562 620.605469 300.113281 C 656.679688 266.660156 696.195312 243.109375 714.523438 188.585938 C 703.984375 230.074219 725.832031 285.796875 727.042969 324.082031 C 736.65625 303.9375 744.367188 293.316406 751.46875 285.714844 C 742.636719 234.683594 740.191406 172.460938 744.324219 122.664062 C 698.101562 158.269531 701.996094 209.871094 646.765625 234.957031 C 635.714844 194.519531 643.886719 149.785156 651.511719 104.679688 Z M 483.554688 142.050781 C 474.011719 148.601562 470.800781 155.699219 465.984375 162.160156 C 479.246094 191.25 502.421875 224.882812 526 250.007812 C 520.503906 256.792969 514.808594 263.484375 509.179688 270.378906 L 482.503906 309.039062 C 467.988281 336.328125 459.011719 371.457031 464.554688 424.996094 C 485.769531 398.625 486.285156 391.121094 496.824219 382.542969 C 490.761719 353.191406 496.125 331.527344 507.007812 312.710938 C 507.023438 312.726562 507.042969 312.742188 507.0625 312.757812 L 507 312.390625 L 524.070312 289.296875 L 524.527344 289.195312 C 524.425781 289.113281 524.316406 289.035156 524.210938 288.949219 C 550.976562 257.398438 587.496094 228.246094 597.578125 171.878906 C 586.382812 172.78125 575.1875 169.546875 563.992188 163.316406 C 561.988281 191.488281 552.867188 212.097656 540.859375 230.125 C 521.542969 207.324219 495.460938 163.898438 483.558594 142.050781 Z M 142.222656 258.703125 L 163.042969 296.910156 C 168.515625 301.414062 174.367188 304.542969 180.484375 307.011719 C 183.359375 341.429688 184.859375 377.683594 184.992188 414.769531 L 215.792969 383.398438 L 217.304688 318.402344 C 235.488281 324.730469 254.277344 335.480469 271.730469 363.851562 C 249.464844 370.601562 230.46875 390.003906 215.347656 408.441406 L 215.332031 408.476562 L 184.835938 442.671875 C 183.464844 535.148438 173.660156 631.25 155.179688 716.148438 C 172.140625 692.78125 189.777344 673.484375 209.246094 665.1875 L 214.238281 450.210938 L 272.90625 515.347656 C 261.414062 534.722656 260.082031 583.921875 235.765625 614.988281 C 268.941406 600.65625 278.511719 535.613281 312.09375 507.082031 L 234.386719 432.371094 C 241.789062 405.800781 274.515625 390.746094 304.570312 374.472656 C 286.539062 309.191406 200.003906 278.34375 142.222656 258.703125 Z M 429.5625 268.828125 L 403.070312 303.769531 C 422.15625 411.027344 386.964844 463.144531 407.933594 566.066406 C 461.53125 538.085938 482.03125 500.910156 514.746094 452.050781 C 504.40625 495.867188 508.285156 549.878906 513.277344 592.519531 L 542.242188 556.398438 C 523.714844 510.179688 536.304688 441.699219 539.535156 392.042969 C 488.582031 413.980469 487.027344 482.929688 430.511719 506.015625 C 421.144531 423.171875 450.308594 360.976562 429.5625 268.828125 Z M 819.273438 269.464844 C 783.878906 285.085938 747.925781 349.457031 721.539062 385.625 C 738.875 399.09375 768.753906 407.753906 773.605469 428.902344 C 751.089844 444.867188 731.9375 485.554688 717.285156 511.351562 C 815.535156 522.546875 815.085938 646.3125 903.734375 650.601562 C 832.730469 619.109375 844.234375 505.460938 759.527344 489.871094 C 772.699219 468.535156 779.523438 443.421875 816.101562 435.738281 C 808.371094 408.816406 780.234375 397.59375 760.035156 380.265625 C 776.523438 356.617188 821.691406 293.675781 862.199219 294.289062 Z M 692.714844 275.984375 L 662.914062 308.566406 L 666.351562 403.773438 C 647.894531 390.136719 626.570312 380.796875 604.964844 371.871094 L 605.519531 397.699219 C 629.117188 400.125 648.933594 415.109375 667.460938 434.429688 L 668.742188 469.890625 C 648.109375 447.5625 621.816406 436.554688 596.007812 424.578125 C 594.242188 415.078125 593.152344 406.175781 592.527344 397.644531 L 592.519531 397.636719 L 592.03125 366.542969 C 592.015625 366.539062 592.003906 366.535156 591.988281 366.527344 C 591.996094 366.234375 592.007812 365.941406 592.019531 365.648438 L 592.015625 365.441406 L 592.027344 365.421875 C 592.503906 350.101562 593.703125 335.125 594.15625 318.953125 L 570.9375 314.113281 C 559.679688 310.507812 549.355469 305.648438 539.777344 299.792969 L 522.59375 324.699219 C 536.808594 334.421875 552.082031 341.539062 568.847656 344.980469 C 564.539062 428.316406 570.605469 513.296875 575 591.804688 L 603.1875 561.203125 C 594.972656 527.515625 594.101562 495.167969 596.007812 459.796875 C 620.613281 467.734375 644.992188 477.703125 667.835938 501.5 C 663.132812 573.265625 673.878906 638.683594 677.769531 708.300781 C 688.347656 683.75 696.339844 654.015625 715.308594 646.242188 C 685.078125 554.199219 690.59375 372.847656 692.710938 275.984375 Z M 327.4375 394.566406 C 309.59375 400.503906 297.546875 417.1875 297.53125 435.996094 C 297.53125 460.128906 317.097656 479.691406 341.230469 479.691406 C 365.363281 479.691406 384.925781 460.128906 384.925781 435.996094 C 384.914062 421.390625 377.609375 407.761719 365.457031 399.664062 C 366.335938 401.949219 366.789062 404.359375 366.796875 406.789062 C 366.796875 418.300781 357.054688 427.628906 345.035156 427.628906 C 333.015625 427.628906 323.269531 418.300781 323.269531 406.789062 C 323.277344 402.398438 324.738281 398.121094 327.4375 394.566406 Z M 327.4375 394.566406 "/>
</g>
</svg>
