<?xml version="1.0" encoding="UTF-8"?>
<svg xmlns="http://www.w3.org/2000/svg" xmlns:xlink="http://www.w3.org/1999/xlink" width="744pt" height="744pt" viewBox="0 0 744 744" version="1.1">
<g id="surface1">
<path style=" stroke:none;fill-rule:nonzero;fill:rgb(89.019608%,85.882353%,85.882353%);fill-opacity:1;" d="M 369.644531 39.863281 C 323.035156 63.050781 291.605469 111.78125 243.75 132.273438 C 187.480469 156.367188 108.28125 123.28125 62.945312 164.414062 C 20.03125 203.355469 9.578125 274.242188 16.070312 331.828125 C 25.292969 413.609375 81.824219 485.082031 133.929688 548.789062 C 161.210938 582.152344 192.140625 618.21875 233.035156 631.828125 C 279.277344 647.210938 330.9375 615.835938 379.019531 623.789062 C 413.207031 629.445312 441.09375 658.070312 475.445312 662.628906 C 516.449219 668.070312 561.179688 665.398438 598.660156 647.898438 C 635.863281 630.527344 684.078125 604.351562 688.394531 563.523438 C 690.617188 542.464844 654.1875 532.375 652.230469 511.289062 C 648.800781 474.28125 685.429688 444.566406 697.769531 409.503906 C 710.636719 372.9375 733.53125 335.253906 727.230469 297.003906 C 719.847656 252.167969 665.777344 226.542969 652.230469 183.164062 C 640.519531 145.65625 673.730469 96.285156 649.554688 65.308594 C 609.105469 13.484375 525.109375 12.351562 459.375 13.078125 C 428.160156 13.421875 397.589844 25.957031 369.644531 39.863281 Z M 369.644531 39.863281 "/>
<path style=" stroke:none;fill-rule:evenodd;fill:rgb(100%,100%,100%);fill-opacity:1;" d="M 578.890625 405.601562 C 575.730469 404.925781 569.441406 402.542969 564.914062 400.304688 C 544.15625 390.042969 530.585938 366.847656 524.585938 331.355469 C 519.265625 299.917969 520.925781 265.203125 529.039062 238.050781 C 532.851562 225.296875 541.730469 207 548.578125 197.785156 C 559.003906 183.75 574.921875 168.820312 586.9375 165.753906 C 594.378906 163.855469 597.613281 165.136719 600.519531 171.136719 C 605.613281 181.660156 604.042969 217.097656 595.101562 245.042969 L 591.058594 252.554688 L 640.078125 252.445312 C 659.96875 255.128906 668.46875 263.761719 670.289062 275.675781 C 671.148438 281.28125 669.023438 290.296875 665.601562 297.320312 L 657.050781 310.128906 C 662.535156 306.488281 666.054688 300.265625 668.570312 292.996094 C 670.101562 288.578125 670.328125 288.351562 673.289062 288.363281 C 677.417969 288.371094 689.265625 294.292969 692.773438 297.992188 C 698.015625 303.519531 699.664062 308.613281 699.605469 319.105469 C 699.5625 326.714844 699.136719 329.589844 697.257812 335.023438 C 687.273438 363.902344 652.84375 395.058594 620.414062 405.550781 C 607.917969 409.59375 590.503906 408.089844 578.890625 405.601562 Z M 578.890625 405.601562 "/>
<path style=" stroke:none;fill-rule:evenodd;fill:rgb(100%,80%,0%);fill-opacity:1;" d="M 168.382812 463.386719 C 158.058594 451.492188 131 426.8125 115.273438 413.285156 L 103.128906 402.835938 L 106.355469 396.410156 C 114.621094 379.949219 126.335938 368.121094 145.710938 355.269531 C 151.214844 351.621094 159.320312 345.832031 163.726562 342.402344 L 173.589844 336.441406 L 174.277344 359.5625 L 173.851562 379.980469 L 168.453125 385.0625 C 158.378906 394.542969 157.210938 406.175781 161.699219 414.3125 C 165.292969 420.835938 166.652344 420.941406 177.917969 420.929688 C 189.140625 420.914062 195.804688 418.117188 200.222656 411.558594 C 205.667969 403.488281 198.980469 391.945312 189.449219 383.042969 L 186.203125 380.011719 L 187.4375 340.519531 C 187.515625 321.550781 187.9375 300.730469 188.375 294.253906 L 189.175781 282.476562 L 208.09375 306.507812 C 218.140625 319.273438 224.804688 327.601562 224.523438 328.914062 C 224.277344 330.085938 223.800781 334.003906 223.472656 337.617188 C 222.90625 343.785156 227.113281 342.136719 231.097656 346.121094 C 238.738281 353.761719 248.78125 354.707031 258.789062 350.164062 C 268.753906 345.640625 269.964844 338.027344 263.28125 324.660156 C 258.027344 314.144531 253.535156 314.324219 244.859375 315.351562 L 238.683594 316.082031 L 220.480469 297.269531 L 202.109375 275.066406 L 202.109375 268.890625 C 202.109375 261.582031 198.667969 257.0625 194.007812 252.15625 C 187.886719 245.714844 180.46875 243.402344 175.117188 246.265625 C 173.257812 247.257812 172.394531 242.597656 160.449219 229.035156 C 152.601562 220.121094 146.179688 212.304688 146.179688 211.664062 C 146.179688 210.59375 176.675781 175.820312 178.335938 175.082031 C 196.386719 192.597656 231.1875 226.921875 234.578125 236.652344 C 234.519531 241.046875 230.015625 242.917969 226.335938 246.292969 L 221.917969 250.339844 L 225.894531 252.398438 C 230.898438 254.984375 245.21875 253.296875 251.214844 251.640625 L 255.777344 250.378906 L 262.246094 261.304688 C 270.121094 274.605469 282.382812 293.644531 293.800781 302.902344 C 309.902344 315.953125 308.464844 313.933594 306.792969 321.144531 C 305.085938 328.488281 306.757812 333.714844 311.578125 336.121094 C 314.304688 337.476562 314.226562 337.628906 308.644531 341.636719 C 276.917969 364.421875 230.421875 410.210938 190.171875 458.308594 C 183.984375 465.703125 178.980469 475.152344 178.578125 475.109375 C 175.054688 470.617188 171.652344 467.226562 168.382812 463.386719 Z M 87.777344 380.898438 C 87.132812 379.4375 81.019531 370.84375 78.8125 369.460938 C 76.601562 368.078125 74.773438 366.542969 74.746094 366.050781 C 74.71875 365.554688 82.878906 355.210938 88.820312 344.140625 C 94.871094 332.871094 99.136719 323.570312 98.511719 323.007812 C 97.902344 322.453125 91.773438 320.765625 84.894531 319.253906 C 78.015625 317.742188 71.605469 316.246094 70.648438 315.929688 C 69.570312 315.570312 71.207031 313.835938 74.984375 311.335938 C 82.359375 306.449219 94.273438 294.738281 94.273438 292.378906 C 94.273438 289.585938 90.628906 289.015625 87.195312 291.265625 C 83.476562 293.703125 66.738281 294.851562 58.121094 293.257812 L 52.609375 292.242188 L 59.996094 286.667969 C 72.082031 277.546875 102.628906 251.574219 117.976562 237.363281 C 125.851562 230.070312 132.222656 221.230469 132.671875 221.230469 C 133.117188 221.230469 144.457031 230.859375 152.464844 239.390625 L 164.277344 255.359375 L 163.210938 259.582031 C 162.183594 262.039062 161.34375 266.375 161.34375 269.214844 C 161.34375 273.417969 162.109375 275.121094 165.441406 278.324219 C 167.691406 280.492188 171.167969 283.140625 172.398438 283.828125 C 174.359375 284.921875 174.726562 287.652344 175.367188 305.816406 L 176.097656 326.554688 L 168.097656 333.855469 C 164.554688 337.085938 152.277344 342.769531 141.957031 347.988281 C 118.011719 360.105469 106.433594 365.800781 96.597656 373.339844 C 88.980469 379.179688 88.90625 383.457031 87.777344 380.898438 Z M 87.777344 380.898438 "/>
<path style=" stroke:none;fill-rule:nonzero;fill:rgb(0%,0%,0%);fill-opacity:1;" d="M 180.738281 165.511719 L 176.652344 170.054688 C 166.1875 185.386719 154.332031 199.230469 139.179688 209.675781 L 137.652344 211.210938 L 139.058594 212.859375 C 149.902344 225.5 160.960938 237.882812 172.171875 250.066406 L 173.515625 251.53125 L 175.179688 250.433594 C 177.941406 248.617188 180.765625 247.71875 183.179688 247.957031 C 187.519531 248.382812 192.5 252.796875 195.5625 258.53125 C 198.628906 264.265625 199.59375 270.988281 197.648438 274.964844 L 196.925781 276.425781 L 198.058594 277.605469 C 211.171875 291.304688 224.429688 304.816406 237.753906 318.242188 L 239.015625 319.523438 L 240.578125 318.625 C 243.34375 317.046875 246.109375 316.328125 248.484375 316.625 C 253.304688 317.226562 261.175781 321.832031 261.765625 328.972656 C 263.945312 355.445312 223.933594 344.003906 231.0625 328.03125 L 231.949219 326.597656 L 230.871094 325.300781 C 216.378906 315 211.671875 295.734375 193.324219 280.796875 L 192.328125 279.644531 L 190.863281 280.101562 C 189.75 280.449219 188.546875 280.707031 187.28125 280.871094 L 185.289062 281.125 L 185.242188 283.125 C 184.394531 316.144531 183.460938 349.261719 184.367188 380.972656 L 184.414062 382.34375 L 185.617188 382.980469 C 220.675781 418.234375 143.628906 413.648438 175.234375 383.136719 L 176.433594 382.550781 L 176.542969 381.226562 C 177.925781 364.78125 178.519531 350.234375 178.515625 333.472656 L 178.460938 325.589844 L 178.371094 325.683594 C 178.261719 311.191406 181.484375 291.066406 180.785156 276.445312 L 180.710938 274.78125 L 179.113281 274.316406 C 173.964844 272.808594 169.847656 269.933594 168.429688 266.574219 C 166.710938 262.519531 164.933594 261.582031 168.957031 256.328125 L 170.152344 254.765625 L 168.820312 253.320312 C 158.109375 241.679688 146.722656 229.828125 134.390625 217.683594 L 132.753906 216.074219 L 131.117188 217.683594 C 108.75 248.480469 77.542969 272.351562 43.179688 292.933594 L 38.546875 296.332031 L 44.238281 297.128906 C 54.496094 298.5625 64.582031 299.804688 73.316406 299.578125 C 76.734375 299.488281 79.769531 298.929688 82.738281 298.289062 C 76.972656 304.308594 70.5 310.023438 59.90625 314.550781 L 53.324219 317.367188 C 67.324219 318.886719 81.742188 319.78125 92.335938 326.414062 C 89.816406 342.714844 77.773438 354.257812 70.023438 367.945312 L 72.472656 368.914062 C 77.984375 371.078125 81.074219 373.316406 82.730469 375.386719 C 84.386719 377.457031 84.792969 379.386719 84.75 381.691406 L 84.640625 387.496094 L 88.742188 383.394531 C 110.070312 362.09375 115.292969 368.667969 141.347656 353.164062 C 123.367188 362.164062 111.414062 378.097656 101.191406 402.734375 L 100.523438 404.332031 L 101.859375 405.429688 C 130.414062 427.195312 155.425781 451.285156 176.597656 478.304688 L 178.40625 480.460938 L 180.199219 478.292969 C 224 425.320312 269.097656 374.960938 321.6875 338.644531 L 326.183594 335.527344 L 320.828125 334.421875 C 317.089844 333.648438 314.765625 332.511719 313.40625 331.320312 C 312.046875 330.132812 311.507812 328.917969 311.324219 327.308594 C 310.953125 324.089844 312.667969 319.308594 314.429688 314.367188 L 315.023438 312.695312 L 313.578125 311.671875 C 292.726562 296.847656 273.054688 279.75 258.042969 248.769531 L 257.1875 246.976562 L 255.277344 247.542969 C 247.71875 249.78125 243 249.976562 234.058594 247.078125 C 238.910156 241.90625 237.632812 236.53125 236.390625 230.269531 L 236.328125 229.253906 L 235.550781 228.605469 C 218 213.914062 199.347656 186.804688 180.738281 165.511719 Z M 178.335938 175.082031 C 196.257812 195.609375 214.269531 216.582031 231.695312 231.355469 C 231.863281 234.527344 232.023438 237.554688 231.390625 240.148438 C 229.496094 245.535156 217.328125 249.160156 213 252.167969 C 223.273438 257.8125 245.042969 255.320312 254.78125 252.441406 C 269.746094 282.441406 289.257812 299.902344 309.46875 314.414062 C 307.871094 318.777344 306.152344 323.316406 306.671875 327.839844 C 306.960938 330.378906 308.121094 332.910156 310.328125 334.839844 C 311.601562 335.957031 313.929688 336.503906 315.855469 337.253906 C 260.21875 370.328125 215.273438 418.402344 178.308594 473.285156 C 156.734375 447.78125 132.316406 424.707031 106.226562 403.070312 C 115.679688 380.980469 126.777344 370.140625 138.839844 361.621094 C 149.878906 353.828125 161.851562 347.242188 173.589844 336.441406 C 173.496094 351.046875 173.09375 365.570312 171.917969 379.882812 C 166.363281 383.027344 161.472656 388.273438 158.425781 394.304688 C 155.132812 400.832031 153.769531 408.226562 156.945312 414.105469 C 160.730469 421.105469 169.769531 423.796875 178.515625 423.636719 C 187.265625 423.476562 196.289062 420.488281 200.371094 413.757812 C 203.703125 408.261719 203.054688 401.003906 200.527344 394.441406 C 198.210938 388.429688 194.101562 383.113281 189.054688 379.910156 C 188.214844 349.242188 189.078125 317.15625 189.90625 285.0625 C 190.160156 285.011719 190.414062 284.960938 190.664062 284.898438 C 203.429688 301.980469 208.605469 320.578125 223.890625 327.714844 C 221.121094 332.808594 222.089844 337.96875 224.042969 343.003906 C 226.859375 350.253906 235.230469 354.363281 243.730469 355.671875 C 252.230469 356.976562 261.433594 355.558594 266.125 349.320312 C 270.660156 343.285156 269.5 334.457031 266.007812 326.988281 C 262.511719 319.523438 256.488281 312.910156 249.070312 311.980469 C 246.042969 311.601562 243.089844 312.777344 240.230469 314.09375 C 227.433594 301.1875 214.699219 288.203125 202.109375 275.066406 C 204.046875 269.226562 202.894531 262.320312 199.6875 256.320312 C 196.136719 249.679688 190.472656 243.976562 183.636719 243.304688 C 180.527344 242.996094 177.582031 244.394531 174.734375 245.898438 C 164.335938 234.582031 158.394531 222.867188 148.324219 211.164062 C 161.34375 200.496094 169.292969 189.296875 178.335938 175.082031 Z M 132.652344 222.621094 C 143.902344 233.75 154.398438 244.652344 164.277344 255.359375 C 160.367188 261.167969 157.957031 268.03125 160.464844 273.960938 C 162.484375 278.734375 167.226562 281.730469 172.503906 283.601562 C 173.175781 298.007812 173.625 312.34375 173.71875 326.585938 C 147.144531 345.578125 113.515625 354.28125 88.167969 377.925781 C 87.734375 376.074219 87.777344 374.203125 86.386719 372.460938 C 84.433594 370.023438 80.671875 367.980469 76.386719 365.980469 C 87.328125 351.636719 101.496094 332.0625 127.65625 321.914062 L 76.960938 313.914062 C 93.511719 302.070312 93.359375 295.074219 109.003906 286.035156 C 94.472656 283.398438 65.757812 293.871094 52.609375 292.242188 C 84.453125 273.246094 110.707031 251.246094 132.652344 222.617188 Z M 132.652344 222.621094 "/>
<path style=" stroke:none;fill-rule:nonzero;fill:rgb(0%,0%,0%);fill-opacity:1;" d="M 593.003906 163.628906 C 585.203125 162.398438 576.546875 166.683594 568.601562 171.644531 C 534.171875 193.148438 518.484375 240.238281 516.65625 280.09375 C 515.644531 302.179688 517.105469 328.546875 523.894531 351.941406 C 530.683594 375.339844 542.886719 395.941406 563.535156 405.695312 C 587.066406 416.808594 615.105469 413.222656 639.910156 400.585938 C 664.714844 387.945312 686.449219 366.21875 697.574219 340.378906 C 697.605469 340.320312 697.625 340.257812 697.648438 340.195312 C 704.46875 319.925781 701.519531 305.410156 694.558594 296.507812 C 688.371094 288.589844 679.433594 285.863281 671.753906 286.554688 C 672.105469 284.640625 672.804688 283.199219 672.996094 281.070312 C 673 281.023438 673.007812 280.980469 673.007812 280.933594 C 673.4375 267.148438 666.183594 258.886719 656.464844 254.636719 C 646.746094 250.386719 634.617188 249.527344 623.933594 248.898438 C 615.914062 248.425781 605.691406 249.28125 595.335938 251.566406 C 595.550781 251.152344 595.742188 250.730469 595.957031 250.1875 C 596.441406 248.953125 597.015625 247.257812 597.65625 245.148438 C 598.941406 240.933594 600.496094 235.09375 601.980469 228.523438 C 604.953125 215.386719 607.65625 199.429688 607.117188 187.667969 C 606.765625 180.011719 605.359375 174.441406 602.929688 170.464844 C 600.503906 166.488281 596.90625 164.246094 593.003906 163.628906 Z M 592.273438 168.246094 C 594.992188 168.675781 597.117188 169.929688 598.9375 172.90625 C 600.753906 175.882812 602.109375 180.710938 602.4375 187.886719 C 602.929688 198.71875 600.339844 214.574219 597.417969 227.5 C 595.957031 233.964844 594.417969 239.714844 593.175781 243.789062 L 591.058594 252.554688 C 580.226562 255.421875 569.46875 260.015625 561.039062 267.140625 C 558.476562 269.132812 561.660156 272.90625 564.058594 270.714844 C 580.136719 257.117188 607.242188 252.601562 623.660156 253.566406 C 634.28125 254.191406 645.988281 255.167969 654.582031 258.921875 C 663.15625 262.671875 668.675781 268.574219 668.316406 280.722656 C 667.277344 292.058594 663.894531 299.429688 659.175781 304.496094 C 654.449219 309.578125 648.242188 312.453125 641.253906 314.332031 C 629.40625 317.515625 616.027344 318.21875 604.710938 321.960938 C 604.277344 321.699219 603.773438 321.585938 603.269531 321.632812 C 589.929688 322.789062 580.121094 314.261719 567.804688 313.214844 C 553.789062 312.023438 573.894531 329.765625 578.589844 331.101562 C 570.253906 336.804688 575.402344 374.980469 579.039062 368.984375 C 579.039062 368.984375 577.140625 355.523438 582.445312 347.671875 C 587.742188 339.839844 594.804688 331.148438 600.597656 327.8125 C 610.890625 322.488281 627.527344 322.871094 642.46875 318.855469 C 649.949219 316.84375 657.082031 313.617188 662.605469 307.6875 C 666.382812 303.628906 668.914062 297.765625 670.757812 290.949219 C 676.820312 289.894531 685.273438 292.230469 690.875 299.394531 C 696.710938 306.859375 699.675781 319.410156 693.242188 338.605469 C 683.570312 359.585938 667.140625 380.667969 637.789062 396.417969 C 526.878906 455.925781 506.6875 219.984375 571.085938 175.613281 C 578.699219 170.859375 586.835938 167.386719 592.273438 168.246094 Z M 592.273438 168.246094 "/>
<path style=" stroke:none;fill-rule:evenodd;fill:rgb(100%,100%,100%);fill-opacity:1;" d="M 604.023438 594.117188 C 597.371094 592.484375 590.933594 588.351562 585.136719 581.988281 C 579.019531 575.277344 576.734375 570.839844 571.210938 554.949219 C 566.695312 541.957031 567.125 536.582031 563.320312 536.582031 C 560.949219 536.582031 560.003906 537.152344 558.941406 539.238281 C 557.679688 541.714844 557.191406 547.425781 557.175781 560.019531 C 557.152344 578.621094 556.25 584.5 552.988281 587.363281 C 549.25 597.152344 538.984375 592.964844 529.515625 587.730469 C 521.566406 583.914062 513.9375 577.585938 511.089844 572.445312 L 509.761719 570.050781 L 509.617188 559.214844 C 509.472656 548.703125 509.664062 544.773438 511.585938 518.753906 C 513.113281 498.050781 512.488281 478.113281 509.945312 466.351562 C 508.105469 457.863281 508.242188 457.015625 511.980469 453.570312 C 516.59375 449.320312 528.335938 445.722656 535.785156 446.664062 C 546.890625 448.074219 551.796875 454.429688 555.929688 472.765625 L 559.449219 478.292969 L 558.957031 475.859375 L 564.207031 470.828125 C 579.945312 455.757812 597.039062 442.445312 604.011719 439.835938 C 615.074219 435.695312 632.726562 440.261719 637.472656 449.285156 C 638.5 451.242188 638.65625 452.0625 638.660156 455.519531 C 638.660156 459.230469 638.550781 459.726562 636.988281 462.929688 C 634.746094 467.515625 631.238281 470.546875 618.546875 480.738281 C 602.929688 493.28125 596.804688 499.5625 593.332031 506.59375 C 589.5625 514.230469 589.554688 520.429688 593.308594 528.671875 C 596.867188 536.476562 601.632812 541.851562 610.0625 547.574219 C 620.191406 554.441406 625.636719 559.589844 630.835938 565.566406 C 635.355469 570.761719 637.296875 574.714844 637.558594 579.246094 C 637.738281 582.308594 637.621094 583.046875 636.632812 585.207031 C 634.539062 589.78125 626.390625 592.859375 619.976562 594.371094 C 616.039062 595.300781 608.332031 595.175781 604.023438 594.117188 Z M 604.023438 594.117188 "/>
<path style=" stroke:none;fill-rule:nonzero;fill:rgb(0%,0%,0%);fill-opacity:1;" d="M 617.300781 433.511719 C 611.984375 432.8125 606.542969 433.378906 601.804688 435.429688 C 592.800781 439.332031 581.222656 448.785156 571.609375 457.3125 C 563.703125 464.324219 559.585938 468.53125 557.53125 470.582031 C 555.75 462.761719 553.210938 454.941406 548.191406 449.535156 C 541.195312 442 529.367188 441.316406 519.785156 444.058594 C 514.992188 445.429688 510.671875 447.671875 507.644531 450.738281 C 504.617188 453.808594 502.90625 458.011719 504.070312 462.339844 C 508.515625 478.847656 508.015625 498.753906 506.730469 517.984375 C 505.445312 537.214844 503.371094 555.703125 505.039062 569.890625 C 505.554688 574.246094 508.6875 578.417969 512.910156 582.402344 C 517.132812 586.386719 522.578125 590.085938 528.285156 592.675781 C 533.988281 595.265625 539.945312 596.800781 545.328125 596.066406 C 550.714844 595.332031 555.492188 591.878906 557.476562 585.609375 C 558.90625 581.09375 559 574.699219 559.03125 567.566406 C 559.0625 560.4375 558.945312 552.652344 559.535156 546.015625 C 559.667969 544.5 560.027344 543.4375 560.300781 542.925781 C 560.421875 543.019531 560.816406 543.175781 561.589844 544.34375 C 562.519531 545.753906 563.644531 548.058594 564.808594 551.363281 C 570.632812 567.921875 572.832031 577.546875 585.648438 589.585938 C 598.5 601.660156 616.699219 602.644531 628.496094 596.460938 C 634.394531 593.367188 638.804688 588.277344 639.628906 581.828125 C 640.449219 575.375 637.652344 567.988281 630.453125 560.367188 C 620.964844 550.324219 613.597656 546.207031 607.941406 542.25 C 602.28125 538.292969 598.246094 534.652344 594.054688 524.507812 C 591.773438 518.988281 592.398438 514.132812 594.859375 509.191406 C 597.320312 504.25 601.753906 499.367188 606.941406 494.710938 C 617.320312 485.402344 630.515625 477.285156 636.476562 468.78125 C 636.488281 468.757812 636.507812 468.742188 636.523438 468.71875 C 640.523438 462.558594 641.691406 456.640625 640.597656 451.507812 C 639.503906 446.375 636.230469 442.1875 632.015625 439.175781 C 627.800781 436.167969 622.617188 434.207031 617.300781 433.511719 Z M 614.484375 440.804688 C 619.101562 440.457031 625.8125 440.5 629.300781 442.988281 C 632.785156 445.480469 635.210938 448.703125 636.019531 452.484375 C 636.820312 456.253906 636.089844 460.757812 632.625 466.113281 C 627.804688 472.976562 614.609375 481.546875 603.816406 491.230469 C 598.417969 496.074219 593.566406 501.277344 590.664062 507.105469 C 587.761719 512.933594 586.9375 519.539062 589.734375 526.300781 C 594.199219 537.109375 599.300781 541.921875 605.261719 546.089844 C 611.222656 550.257812 617.953125 553.941406 627.050781 563.574219 C 633.640625 570.550781 635.582031 576.539062 634.984375 581.234375 C 634.386719 585.925781 631.226562 589.738281 626.320312 592.308594 C 585.648438 589.585938 582.648438 564.320312 572.125 539.988281 C 560.222656 512.46875 555.167969 533.902344 554.871094 545.605469 C 554.253906 552.609375 554.382812 560.488281 554.351562 567.550781 C 554.320312 574.613281 554.035156 580.953125 553.007812 584.203125 C 551.476562 589.042969 548.707031 590.878906 544.699219 591.421875 C 492.3125 572.222656 567.722656 499.457031 521.0625 448.554688 C 529.429688 446.160156 539.539062 447.085938 544.761719 452.714844 C 549.488281 457.804688 552.160156 466.75 553.804688 475.34375 C 553.804688 475.355469 553.804688 475.363281 553.804688 475.375 C 553.828125 475.550781 553.867188 475.726562 553.929688 475.894531 C 554.179688 477.253906 554.675781 478.613281 554.863281 479.933594 C 555.554688 484.847656 555.855469 489.378906 555.941406 492.640625 C 555.984375 494.269531 555.96875 495.59375 555.929688 496.460938 C 555.917969 496.792969 555.902344 496.976562 555.882812 497.144531 L 555.882812 497.15625 C 555.269531 498.710938 557.144531 501.71875 558.113281 500.355469 C 574.792969 476.839844 590.378906 442.632812 614.484375 440.808594 Z M 614.484375 440.804688 "/>
<path style=" stroke:none;fill-rule:evenodd;fill:rgb(100%,100%,100%);fill-opacity:1;" d="M 520.296875 635.882812 C 518.429688 635.546875 514.964844 634.648438 512.59375 633.886719 C 508.785156 632.667969 508.015625 632.238281 505.984375 630.207031 C 502.03125 626.253906 499.960938 621.140625 493.625 599.652344 C 489.027344 584.050781 484.863281 575.289062 479.117188 569.109375 C 475.644531 565.371094 471.96875 562.90625 467.296875 561.171875 L 465.816406 567.59375 C 463.691406 572.363281 463.246094 574.5625 463.25 580.246094 C 463.25 585.019531 463.507812 587.277344 464.757812 593.515625 C 465.992188 599.679688 466.265625 602.066406 466.285156 606.78125 C 466.308594 612.308594 466.257812 612.609375 465.058594 614.648438 C 462.65625 618.738281 456.589844 619.773438 450.292969 619.773438 C 437.445312 619.773438 424.671875 609.800781 419.136719 595.449219 C 416.632812 588.964844 412.902344 569.789062 411.171875 554.546875 C 406.773438 515.703125 411.761719 485.675781 425.304688 469.492188 C 431.429688 462.175781 442.167969 454.648438 454.074219 451.996094 C 460.121094 450.648438 472.359375 450.539062 478.566406 451.78125 C 486.839844 453.433594 495.761719 457.765625 501.796875 461.816406 C 505.285156 464.160156 510.710938 469.714844 512.550781 472.832031 C 518.472656 482.859375 516.621094 496.222656 509.324219 508.078125 L 503.203125 517.804688 L 504.742188 516.550781 L 506.949219 517.753906 C 511.441406 520.195312 519.164062 528.988281 522.785156 536.238281 C 527.378906 545.421875 530.996094 553.152344 537.640625 578.308594 C 539.472656 585.238281 541.988281 594.09375 543.230469 597.984375 C 545.996094 606.628906 546.75 610.375 546.75 615.46875 C 546.75 626.5625 539.75 634.09375 531.144531 635.917969 C 527.457031 636.699219 524.757812 636.691406 520.296875 635.886719 Z M 520.296875 635.882812 "/>
<path style=" stroke:none;fill-rule:nonzero;fill:rgb(0%,0%,0%);fill-opacity:1;" d="M 465.71875 448.070312 C 453.976562 448.019531 441.980469 450.925781 431.652344 457.417969 C 413.457031 468.867188 406.433594 492.398438 404.972656 517.746094 C 403.515625 543.089844 407.636719 570.574219 412.578125 590.882812 C 417.082031 609.402344 429.902344 620.339844 442.300781 623.722656 C 448.5 625.417969 454.644531 625.261719 459.660156 623.082031 C 464.671875 620.902344 468.476562 616.503906 469.484375 610.480469 C 470.71875 603.097656 468.046875 594.410156 466.632812 586.167969 C 465.339844 578.636719 465.480469 572.15625 468.824219 567.429688 C 471.46875 568.855469 473.96875 570.464844 476.011719 572.777344 C 481.035156 578.464844 484.460938 586.679688 487.261719 595.398438 C 490.0625 604.117188 492.238281 613.292969 495.113281 620.964844 C 497.988281 628.632812 501.59375 635.125 507.953125 637.515625 C 517.257812 641.011719 524.847656 642.011719 530.996094 641.015625 C 537.148438 640.023438 541.8125 636.921875 544.789062 632.671875 C 550.742188 624.171875 550.371094 611.6875 546.515625 600.828125 C 541.746094 587.390625 538.066406 568.683594 532.613281 551.902344 C 527.332031 535.640625 520.3125 521.046875 508.144531 514.828125 C 509.015625 513.777344 510.5 513.03125 511.21875 511.929688 C 518.964844 500.019531 520.613281 488.707031 517.734375 479.101562 C 514.855469 469.492188 507.617188 461.757812 498.285156 456.441406 C 488.953125 451.125 477.460938 448.117188 465.71875 448.070312 Z M 465.746094 452.832031 C 476.699219 452.882812 487.421875 455.640625 495.964844 460.507812 C 504.507812 465.375 510.800781 472.246094 513.257812 480.445312 C 515.710938 488.640625 514.484375 498.324219 507.296875 509.371094 C 501.90625 517.664062 490.367188 525.183594 477.4375 527.242188 C 464.507812 529.300781 450.3125 526.15625 438.785156 513.4375 C 428.65625 500.804688 438.164062 520.738281 439.527344 521.757812 C 429.105469 538.84375 436.574219 532.886719 440.253906 529.40625 C 440.253906 529.40625 443.59375 525.949219 448.792969 526.902344 C 448.898438 526.921875 449.003906 526.933594 449.113281 526.941406 C 458.59375 531.886719 468.75 533.367188 478.167969 531.867188 C 488.964844 530.148438 497.828125 524.636719 504.691406 518.074219 C 504.832031 518.179688 504.980469 518.269531 505.140625 518.339844 C 515.792969 523.164062 522.835938 536.953125 528.164062 553.347656 C 533.492188 569.738281 537.140625 588.398438 542.113281 602.402344 C 545.605469 612.242188 545.558594 623.414062 540.953125 629.996094 C 538.648438 633.285156 535.464844 634.332031 530.414062 635.152344 C 521.75 638.472656 510.46875 618.589844 508.101562 608.539062 C 498.902344 569.511719 486.863281 552.253906 454.386719 559.726562 C 451.273438 559.925781 451.574219 564.597656 454.6875 564.394531 C 458.644531 564.136719 461.714844 564.933594 464.695312 565.847656 C 460.953125 572.027344 460.757812 579.550781 462.027344 586.960938 C 463.5 595.5625 465.800781 604.140625 464.871094 609.703125 C 464.105469 614.277344 461.566406 617.144531 457.785156 618.789062 C 454.316406 587.722656 424.925781 588.222656 425.292969 546.074219 C 425.371094 536.667969 432.628906 517.75 429.625 503.488281 C 423.226562 473.082031 449.148438 449.636719 465.746094 452.832031 Z M 464.121094 470.996094 C 462.304688 467.726562 461.15625 472.34375 460.847656 473.230469 C 459.0625 483.589844 453.847656 498.316406 455.390625 507.816406 C 455.871094 510.902344 460.496094 510.179688 460.015625 507.097656 C 459.394531 503.160156 459.121094 499.921875 460.609375 495.828125 C 460.914062 496.300781 460.8125 497.085938 461.175781 497.507812 C 465.429688 502.472656 480.871094 503.390625 489.191406 503.144531 C 495.34375 501.664062 491.371094 500.726562 484.300781 498.578125 C 468.515625 493.78125 466.777344 475.785156 464.121094 470.996094 Z M 464.121094 470.996094 "/>
<path style=" stroke:none;fill-rule:evenodd;fill:rgb(100%,100%,100%);fill-opacity:1;" d="M 333.859375 579.570312 C 320.378906 577.3125 309.027344 569.984375 302.859375 559.554688 C 295.214844 546.632812 296.097656 529.429688 305.378906 510.632812 C 315.890625 489.339844 336.347656 470.558594 355.691406 465.296875 C 360.546875 463.976562 369.492188 463.617188 374.046875 464.558594 C 394.484375 468.789062 416.261719 489.488281 422.960938 511.519531 C 424.074219 515.179688 424.171875 516.117188 424.199219 523.238281 C 424.226562 530.035156 424.105469 531.398438 423.222656 534.460938 C 420.898438 542.488281 417.132812 549.027344 411.320312 555.117188 C 399.179688 567.839844 377.324219 576.328125 354.96875 579.59375 C 349.226562 580.433594 338.9375 580.421875 333.859375 579.570312 Z M 333.859375 579.570312 "/>
<path style=" stroke:none;fill-rule:nonzero;fill:rgb(0%,0%,0%);fill-opacity:1;" d="M 365.949219 460.691406 C 349.042969 460.5625 332.570312 469.628906 319.554688 482.609375 C 306.539062 495.59375 296.890625 512.554688 293.796875 528.914062 C 290.359375 547.113281 295.898438 562.460938 307.070312 572.429688 C 318.238281 582.402344 334.824219 587.03125 353.300781 584.777344 C 374.390625 582.207031 393.113281 574.726562 406.332031 563.410156 C 419.550781 552.089844 427.226562 536.769531 425.773438 519.179688 C 424.605469 505.054688 416.648438 490.636719 405.574219 479.59375 C 394.496094 468.550781 380.214844 460.804688 365.949219 460.691406 Z M 402.261719 482.902344 C 412.679688 493.289062 420.066406 506.945312 421.109375 519.5625 C 422.4375 535.601562 415.617188 549.296875 403.285156 559.855469 C 391.421875 568.925781 385.070312 573.125 362.683594 576.597656 C 256.367188 570.175781 331.269531 417.066406 402.261719 482.902344 Z M 376.542969 487.609375 C 375.253906 487.628906 374.222656 488.6875 374.238281 489.976562 C 374.210938 505.136719 369.179688 515.214844 360.839844 522.609375 C 352.5 530.003906 340.636719 534.632812 327.058594 537.917969 C 324.023438 538.648438 325.121094 543.199219 328.15625 542.46875 C 337.160156 540.289062 345.171875 537.078125 352.511719 533.183594 L 352.523438 533.183594 C 352.886719 533.238281 353.261719 533.207031 353.609375 533.089844 C 360.5625 530.953125 366.019531 533.035156 369.722656 536.636719 C 373.429688 540.242188 375.0625 545.453125 374.101562 549.152344 C 373.316406 552.171875 377.101562 553.050781 378.636719 550.328125 C 388.769531 543.5625 386.96875 487.328125 376.542969 487.609375 Z M 376.542969 487.609375 "/>
<path style=" stroke:none;fill-rule:evenodd;fill:rgb(100%,100%,100%);fill-opacity:1;" d="M 470.671875 425.332031 C 462.183594 422.566406 454.945312 415.640625 451.738281 407.230469 C 448.746094 399.375 448.699219 389.777344 451.488281 357.128906 C 453.625 332.125 453.984375 323.449219 453.992188 296.546875 C 454.007812 259.402344 452.816406 248.554688 445.550781 219.433594 C 442.386719 206.765625 442.273438 201.238281 445.050781 195.277344 C 448.476562 187.921875 454.140625 181.132812 463.929688 178.824219 C 477.539062 175.617188 497.410156 180.3125 506.5 188.292969 C 510.671875 191.957031 513.074219 196.6875 517.109375 209.203125 C 524.820312 233.125 528.625 256.921875 528.683594 293.324219 C 528.734375 326.917969 525.078125 351.652344 518.761719 388.320312 C 514.808594 411.265625 508.992188 419.824219 496.191406 425.847656 C 491.332031 428.132812 489.210938 428.589844 482.480469 428.796875 C 477.511719 428.949219 472.980469 426.085938 470.671875 425.332031 Z M 470.671875 425.332031 "/>
<path style=" stroke:none;fill-rule:nonzero;fill:rgb(0%,0%,0%);fill-opacity:1;" d="M 481.875 175.167969 C 477.078125 174.605469 472.179688 174.625 467.460938 175.257812 C 458.027344 176.523438 449.214844 180.300781 443.625 187.304688 C 438.035156 194.308594 436 204.421875 439.660156 217.265625 C 457.683594 280.5625 446.511719 338.367188 444 388.085938 C 443.289062 402.140625 447.078125 412.855469 453.46875 420.148438 C 459.859375 427.441406 468.746094 431.230469 477.875 431.882812 C 496.125 433.191406 515.769531 421.96875 519.824219 401.027344 C 531.410156 341.203125 540.210938 255.734375 514.828125 194.945312 C 511.652344 187.34375 504.355469 181.859375 495.695312 178.53125 C 491.367188 176.867188 486.671875 175.730469 481.875 175.167969 Z M 481.328125 179.828125 C 485.753906 180.347656 490.09375 181.386719 494.023438 182.898438 C 501.886719 185.921875 508.015625 190.792969 510.503906 196.746094 C 535.132812 255.726562 524.777344 340.359375 515.230469 400.140625 C 511.792969 421.652344 489.707031 426.558594 478.210938 427.214844 C 528.136719 391.664062 426.164062 310.636719 484.179688 239.5625 C 497.015625 223.839844 476.128906 181.449219 468.085938 179.890625 C 472.382812 179.316406 476.902344 179.308594 481.328125 179.828125 Z M 481.328125 179.828125 "/>
<path style=" stroke:none;fill-rule:evenodd;fill:rgb(100%,100%,100%);fill-opacity:1;" d="M 380.101562 427.96875 C 337.796875 423.183594 308.421875 403.910156 296.152344 372.886719 C 290.164062 357.742188 288.132812 343.902344 288.855469 323.195312 C 290.261719 283.128906 305.1875 247.722656 329.058594 227.84375 C 346.632812 213.207031 366.175781 205.328125 386.882812 201.050781 C 424.546875 193.273438 460.019531 211.558594 460.609375 239.582031 C 460.992188 245.554688 460.78125 248.421875 458.210938 253.914062 C 452.296875 264.933594 445.503906 269.121094 437.585938 277.417969 L 437.589844 277.804688 C 462 276.886719 474.171875 285.390625 484.710938 295.25 C 490.335938 300.507812 496.273438 311.328125 498.261719 321.113281 C 505.007812 354.308594 479.402344 404.304688 446.929688 420.636719 C 430.5 428.898438 401.550781 430.398438 380.101562 427.96875 Z M 380.101562 427.96875 "/>
<path style=" stroke:none;fill-rule:nonzero;fill:rgb(0%,0%,0%);fill-opacity:1;" d="M 399.847656 194.902344 C 362.75 194.949219 322.011719 217.25 303.121094 251 C 291.175781 272.34375 283.796875 299.421875 283.234375 325.984375 C 282.671875 352.546875 288.941406 378.652344 304.683594 397.777344 C 319.59375 415.886719 342.835938 426.859375 367.6875 431.367188 C 392.539062 435.878906 419.0625 433.953125 440.84375 425.910156 C 471.878906 414.457031 494.515625 380.5625 501.140625 348.570312 C 505.117188 329.371094 501.027344 305.175781 486.289062 291.542969 C 475.082031 281.175781 459.519531 278.367188 443.835938 277.996094 C 445.796875 276.144531 448.023438 274.261719 452.261719 269.09375 C 458.070312 262.011719 464.171875 253.035156 464.480469 244.261719 C 465.023438 228.867188 457.183594 216.601562 445.582031 208.332031 C 433.976562 200.0625 418.632812 195.550781 403.425781 194.96875 C 402.238281 194.925781 401.042969 194.902344 399.847656 194.902344 Z M 399.851562 199.578125 C 400.984375 199.578125 402.117188 199.597656 403.242188 199.640625 C 417.636719 200.1875 432.207031 204.535156 442.863281 212.132812 C 453.523438 219.734375 460.292969 230.347656 459.808594 244.097656 C 459.578125 250.660156 454.195312 259.363281 448.640625 266.132812 C 443.089844 272.902344 437.589844 277.804688 437.589844 277.804688 C 430.449219 277.9375 423.394531 278.375 416.824219 278.992188 C 405.796875 280.03125 391.671875 278.765625 378.976562 279.882812 C 372.628906 280.4375 366.601562 281.59375 361.425781 284.09375 C 356.25 286.59375 351.9375 290.539062 349.441406 296.3125 C 345.816406 304.714844 345.257812 315.925781 347.304688 326.449219 C 349.351562 336.972656 354.011719 346.902344 361.765625 352.234375 C 372.183594 359.398438 384.191406 360.484375 395.699219 358.484375 C 395.808594 358.496094 395.921875 358.5 396.03125 358.5 C 412.667969 358.304688 423.152344 376.234375 418.828125 388.035156 C 417.511719 391.066406 422.257812 392.804688 423.214844 389.640625 C 427.789062 377.164062 420.132812 361.183594 406.417969 355.738281 C 406.644531 355.660156 406.878906 355.589844 407.109375 355.511719 C 421.738281 350.496094 434.433594 341.792969 441.164062 335.667969 C 443.746094 333.589844 440.332031 329.839844 438.019531 332.214844 C 431.839844 337.835938 419.421875 346.34375 405.589844 351.089844 C 361.289062 364.984375 346.882812 286.824219 379.386719 284.539062 C 391.460938 283.476562 405.535156 284.757812 417.265625 283.652344 C 439.984375 281.515625 467.300781 280.359375 483.109375 294.980469 C 496.085938 306.984375 500.246094 329.84375 496.5625 347.617188 C 490.238281 378.160156 468.109375 410.851562 439.226562 421.511719 C 269.402344 463.601562 278.429688 211.265625 399.851562 199.578125 Z M 399.851562 199.578125 "/>
<path style=" stroke:none;fill-rule:evenodd;fill:rgb(100%,100%,100%);fill-opacity:1;" d="M 242.386719 583.164062 C 237.414062 581.769531 228.625 576.691406 223.679688 572.027344 C 215.765625 564.5625 208.996094 549.09375 207.3125 534.617188 C 206.507812 527.710938 206.988281 516.949219 208.398438 510.175781 C 212.558594 490.242188 223.984375 472.082031 238.421875 462.476562 C 245.527344 457.75 250.578125 456.042969 260.835938 454.917969 C 275.335938 453.320312 286.734375 449.496094 304.578125 445.191406 C 317.402344 442.101562 327.210938 440.324219 332.050781 440.214844 C 336.40625 440.113281 338.101562 441.078125 339.859375 444.65625 C 341.085938 447.152344 341.097656 447.257812 341.058594 455.359375 C 340.949219 477.445312 336.28125 491.75 328.582031 495.941406 C 326.347656 497.160156 321.269531 498.65625 317.792969 499.125 C 315.816406 499.390625 315.707031 499.347656 314.804688 497.886719 C 312.316406 493.863281 307.796875 490.085938 302.199219 489.136719 L 307.621094 492.683594 C 310.839844 494.160156 312.890625 496.015625 314.417969 498.820312 C 318.683594 506.652344 316 519.832031 309.816406 526.582031 C 304.300781 532.601562 297.167969 536.214844 287.699219 537.78125 C 284.320312 538.339844 281.945312 538.410156 275.539062 538.132812 C 260.511719 537.480469 259.894531 536.777344 256.628906 540.59375 C 253.097656 544.714844 253.621094 550.644531 255.960938 561.675781 C 257.082031 566.972656 257.359375 569.199219 257.203125 571.648438 C 256.878906 576.691406 254.472656 580.972656 250.933594 582.804688 C 249.089844 583.757812 245.097656 583.925781 242.386719 583.164062 Z M 242.386719 583.164062 "/>
<path style=" stroke:none;fill-rule:nonzero;fill:rgb(0%,0%,0%);fill-opacity:1;" d="M 330.042969 437.242188 C 304.910156 439.546875 295.328125 446.71875 256.675781 450.441406 C 235.980469 452.433594 217.199219 470.695312 207.921875 494.433594 C 198.648438 518.167969 198.929688 547.773438 217.164062 572.699219 C 217.21875 572.773438 217.277344 572.847656 217.335938 572.917969 C 222.847656 578.824219 230.910156 584.703125 238.972656 586.671875 C 243.003906 587.660156 247.140625 587.632812 250.761719 585.777344 C 254.382812 583.921875 257.230469 580.285156 258.851562 574.929688 C 260.242188 570.34375 259.523438 565.816406 258.613281 561.574219 C 257.703125 557.332031 256.589844 553.285156 256.601562 549.609375 C 256.617188 545.316406 257.742188 542.953125 259.164062 541.660156 C 260.585938 540.363281 262.574219 539.875 265.132812 540.1875 C 281.882812 542.226562 298.910156 541.058594 311.371094 528.671875 C 317.339844 522.734375 319.828125 514.582031 319.230469 507.0625 C 319.066406 505.007812 318.089844 503.21875 317.457031 501.296875 C 323.183594 500.625 328.25 499.578125 331.855469 497.4375 C 336.03125 494.957031 338.863281 491.457031 340.671875 487.375 C 344.292969 479.214844 344.234375 468.863281 344.925781 457.019531 L 344.925781 457.011719 C 345.332031 449.507812 343.820312 444.328125 340.882812 441.078125 C 337.949219 437.832031 333.792969 436.898438 330.042969 437.242188 Z M 330.472656 441.902344 C 333.214844 441.652344 335.613281 442.226562 337.410156 444.214844 C 339.207031 446.207031 340.609375 449.992188 340.246094 456.757812 C 339.546875 468.734375 339.382812 478.742188 336.394531 485.472656 C 334.902344 488.84375 332.804688 491.421875 329.457031 493.40625 C 326.40625 495.222656 321.832031 496.335938 316.105469 496.910156 C 314.238281 493.628906 311.625 490.847656 308.117188 489.113281 C 298.601562 484.402344 285.289062 487.460938 273.273438 491.488281 C 272.972656 491.375 272.652344 491.328125 272.332031 491.34375 C 263.988281 491.691406 257.105469 483.609375 251.824219 482.136719 C 242.644531 479.570312 252.4375 490.027344 256.476562 494.785156 C 247.585938 499.332031 233.851562 514.210938 242.410156 510.101562 C 242.410156 510.101562 258.59375 501.410156 271.0625 496.898438 C 283.53125 492.390625 298.195312 489.421875 306.042969 493.308594 C 311.070312 495.796875 314.078125 501.21875 314.570312 507.4375 C 315.0625 513.660156 312.972656 520.480469 308.070312 525.351562 C 297.011719 536.347656 281.871094 537.511719 265.699219 535.542969 C 262.214844 535.121094 258.644531 535.792969 256.007812 538.195312 C 253.375 540.59375 251.941406 544.46875 251.921875 549.601562 C 251.910156 554.179688 253.167969 558.511719 254.035156 562.554688 C 254.902344 566.59375 255.375 570.261719 254.375 573.574219 C 253.007812 578.078125 250.976562 580.410156 248.632812 581.609375 C 246.292969 582.808594 243.378906 582.929688 240.078125 582.121094 C 198.714844 539.957031 224.246094 460.234375 257.125 455.101562 C 296.273438 451.332031 306.125 444.136719 330.472656 441.902344 Z M 330.472656 441.902344 "/>
<path style=" stroke:none;fill-rule:evenodd;fill:rgb(100%,100%,100%);fill-opacity:1;" d="M 520.445312 159.902344 C 518.511719 158.59375 510.5 153.933594 506.851562 150.980469 C 503.203125 148.027344 497.632812 143.976562 494.472656 142.554688 C 489.539062 140.332031 489.15625 138.785156 482.324219 138.738281 C 469.863281 138.648438 465.351562 140.433594 442.578125 154.460938 C 433.59375 159.996094 431.851562 158.136719 436.90625 148.410156 C 445.105469 132.625 445.121094 132.589844 445.476562 126.480469 C 446.015625 117.226562 442.902344 111.691406 429.933594 98.839844 C 424.300781 93.261719 419.988281 88.402344 420.347656 88.042969 C 420.707031 87.679688 427.636719 87.175781 435.742188 86.917969 C 448.808594 86.5 450.917969 86.21875 454.28125 84.449219 C 460.832031 80.996094 464.875 75.894531 470.515625 63.957031 C 475.464844 43.042969 482.621094 39.269531 486.339844 42.761719 C 487.558594 43.90625 491.21875 50.238281 494.472656 56.839844 C 501.5625 71.203125 505.445312 77.539062 512.789062 79.722656 C 518.664062 81.464844 528.101562 79.921875 536.972656 78.222656 C 548.835938 75.953125 552.261719 78.480469 551.199219 82.710938 C 550.394531 85.921875 544.8125 91.792969 535.546875 99.183594 C 519.601562 111.898438 515.1875 124.019531 522.535156 145.476562 C 527.089844 158.78125 527.722656 162.277344 525.574219 162.277344 C 524.691406 162.277344 522.382812 161.210938 520.445312 159.902344 Z M 520.445312 159.902344 "/>
<path style=" stroke:none;fill-rule:nonzero;fill:rgb(0%,0%,0%);fill-opacity:1;" d="M 483.039062 38.4375 C 480.171875 38.160156 477.648438 39.929688 475.625 42.539062 C 473.601562 45.152344 471.738281 48.828125 469.738281 53.664062 C 463.9375 67.691406 459.546875 74.9375 454.511719 78.496094 C 449.476562 82.058594 443.222656 82.492188 432.59375 82.082031 C 427.824219 81.894531 424.125 81.921875 421.277344 82.316406 C 419.855469 82.515625 418.636719 82.804688 417.550781 83.316406 C 416.460938 83.824219 415.421875 84.65625 414.90625 85.882812 C 414.394531 87.109375 414.53125 88.449219 414.945312 89.585938 C 415.359375 90.71875 416.019531 91.78125 416.902344 92.929688 C 418.667969 95.230469 421.351562 97.878906 425 101.164062 C 434.164062 109.417969 438.898438 115.664062 440.335938 121.21875 C 441.773438 126.773438 440.25 132.121094 435.8125 139.5 C 432.828125 144.457031 430.726562 148.699219 429.570312 152.210938 C 428.414062 155.726562 427.875 158.730469 429.660156 161.167969 C 430.554688 162.390625 432.074219 163.082031 433.546875 163.199219 C 435.015625 163.316406 436.527344 163.015625 438.242188 162.429688 C 441.671875 161.265625 445.9375 158.890625 451.351562 155.136719 C 459.425781 149.535156 468.324219 144.957031 477.207031 143.722656 C 486.09375 142.488281 494.953125 144.398438 503.816406 152.15625 C 509.023438 156.71875 513.445312 160.144531 517.113281 162.332031 C 518.949219 163.421875 520.589844 164.214844 522.160156 164.660156 C 523.726562 165.105469 525.320312 165.246094 526.820312 164.578125 C 528.320312 163.914062 529.332031 162.421875 529.71875 160.867188 C 530.105469 159.316406 530.074219 157.597656 529.789062 155.558594 C 529.222656 151.476562 527.558594 146.050781 524.734375 138.90625 C 519.59375 125.878906 520.925781 119.0625 524.808594 113.550781 C 528.691406 108.035156 535.800781 103.8125 542.566406 97.726562 C 546.519531 94.175781 549.289062 90.925781 550.921875 87.902344 C 552.554688 84.882812 553.140625 81.828125 551.84375 79.257812 C 550.550781 76.683594 547.726562 75.355469 544.359375 74.960938 C 540.992188 74.5625 536.804688 74.976562 531.699219 76.203125 C 519.621094 79.105469 512.929688 77.378906 508.164062 73.542969 C 503.398438 69.707031 500.410156 63.234375 497.167969 56.09375 C 494.734375 50.726562 492.542969 46.628906 490.359375 43.683594 C 488.175781 40.738281 485.90625 38.714844 483.039062 38.4375 Z M 482.582031 43.089844 C 483.316406 43.160156 484.761719 44 486.59375 46.472656 C 488.425781 48.941406 490.542969 52.808594 492.910156 58.023438 C 496.140625 65.144531 499.257812 72.382812 505.230469 77.191406 C 511.203125 82 519.882812 83.855469 532.796875 80.753906 C 537.550781 79.613281 541.300781 79.316406 543.8125 79.613281 C 546.324219 79.910156 547.328125 80.679688 547.667969 81.359375 C 548.007812 82.039062 548.039062 83.390625 546.800781 85.683594 C 545.5625 87.972656 543.132812 90.925781 539.441406 94.246094 C 533.125 99.921875 525.703125 104.140625 520.980469 110.855469 C 516.253906 117.566406 514.910156 126.757812 520.382812 140.621094 C 523.136719 147.59375 524.683594 152.820312 525.15625 156.199219 C 525.390625 157.886719 525.339844 159.113281 525.183594 159.734375 C 525.027344 160.355469 524.976562 160.277344 524.917969 160.300781 C 524.859375 160.328125 524.398438 160.429688 523.4375 160.15625 C 522.476562 159.882812 521.125 159.269531 519.507812 158.308594 C 516.277344 156.382812 512 153.097656 506.90625 148.636719 C 494.242188 136.796875 472.90625 132.023438 458.375 141.285156 C 453.023438 144.695312 449.117188 147.082031 446.4375 147.992188 C 445.097656 148.449219 444.109375 148.570312 443.605469 148.53125 C 443.101562 148.492188 443.175781 148.453125 443.140625 148.402344 C 443.070312 148.308594 442.738281 146.628906 443.714844 143.667969 C 444.691406 140.707031 446.410156 136.53125 449.519531 131.90625 C 452.058594 126.503906 462.691406 123.195312 462.460938 119.261719 C 443.273438 97.890625 435.507812 94.136719 485.976562 108.898438 C 493.871094 84.085938 462.453125 67.65625 479.328125 45.410156 C 480.878906 43.40625 481.847656 43.019531 482.582031 43.089844 Z M 482.582031 43.089844 "/>
</g>
</svg>
