<?xml version="1.0" encoding="UTF-8"?>
<svg xmlns="http://www.w3.org/2000/svg" xmlns:xlink="http://www.w3.org/1999/xlink" width="1315pt" height="930pt" viewBox="0 0 1315 930" version="1.1">
<g id="surface1">
<path style=" stroke:none;fill-rule:nonzero;fill:rgb(70.19608%,70.19608%,70.19608%);fill-opacity:1;" d="M 81.730469 381.507812 C 189.742188 318.015625 188.300781 29.886719 299.671875 87.285156 C 325.125 100.402344 317.453125 135.222656 341.445312 150.851562 C 397.550781 187.398438 414.847656 20.085938 468.578125 60.039062 C 501.785156 84.734375 391.707031 151.691406 424.992188 176.277344 C 489.566406 223.980469 547.542969 -13.273438 615.691406 29.164062 C 651.875 51.695312 554.695312 130.996094 590.265625 154.484375 C 608.0625 166.234375 625.039062 106.558594 642.933594 118.160156 C 670.832031 136.242188 642.933594 196.253906 650.199219 190.808594 C 705.894531 149.035156 723.710938 76.683594 791.863281 90.917969 C 832.730469 99.449219 811.929688 197.523438 853.613281 199.886719 C 894.71875 202.21875 885.089844 99.820312 926.261719 99.996094 C 947.09375 100.085938 941.816406 149.226562 962.585938 150.851562 C 1009.960938 154.558594 1020.035156 27.769531 1062.476562 49.144531 C 1104.078125 70.09375 1003.210938 159.503906 1040.683594 187.175781 C 1092.738281 225.613281 1168.609375 56.738281 1215.035156 101.8125 C 1256.054688 141.636719 1143.230469 165.429688 1184.160156 205.335938 C 1214.988281 235.390625 1231.351562 169.96875 1260.441406 201.703125 C 1289.976562 233.925781 1162.9375 282.808594 1193.242188 314.308594 C 1209.019531 330.707031 1234.109375 269.195312 1253.175781 281.617188 C 1277.613281 297.53125 1239.261719 340.402344 1245.914062 368.792969 C 1253.65625 401.851562 1299.972656 422.050781 1298.582031 455.972656 C 1297.480469 482.832031 1251.390625 494.472656 1251.359375 521.355469 C 1251.332031 545.214844 1303.285156 557.882812 1293.132812 579.472656 C 1274.28125 619.558594 1211.789062 563.742188 1191.425781 603.085938 C 1163.078125 657.855469 1304.015625 706.875 1256.808594 746.5625 C 1211.820312 784.386719 1204.382812 666.496094 1156.917969 701.160156 C 1078.535156 758.40625 1319.726562 841.289062 1240.464844 897.308594 C 1169.457031 947.492188 1126.265625 677.992188 1049.761719 719.320312 C 1002.738281 744.722656 1124.082031 852.023438 1077.007812 877.332031 C 1027.210938 904.097656 1005.875 739.804688 953.503906 761.09375 C 927.683594 771.589844 975.453125 833.566406 949.871094 844.636719 C 913.234375 860.5 898.980469 767.152344 859.0625 766.542969 C 802.246094 765.675781 782.433594 883.609375 726.480469 873.699219 C 688.246094 866.925781 703.34375 786.203125 666.546875 773.808594 C 635.648438 763.398438 603.429688 827.332031 575.734375 810.132812 C 556.132812 797.957031 589.066406 754.527344 570.285156 741.117188 C 534.679688 715.683594 500.242188 713.34375 474.027344 748.378906 C 452.980469 776.511719 480.589844 869.578125 446.785156 879.144531 C 407.914062 890.152344 426.824219 767.960938 386.851562 773.808594 C 346.890625 779.652344 399.882812 888.898438 359.605469 891.859375 C 311.621094 895.386719 331.964844 790.347656 285.144531 779.253906 C 230.496094 766.308594 231.617188 895.636719 181.621094 870.066406 C 136.085938 846.777344 237.628906 749.792969 197.964844 717.503906 C 156.539062 683.78125 75.6875 810.546875 45.40625 766.542969 C 11.960938 717.941406 177.640625 683.472656 156.191406 628.511719 C 141.503906 590.863281 52.066406 647.570312 36.324219 610.347656 C 26.183594 586.367188 87.386719 572.199219 81.730469 546.78125 C 76.898438 525.085938 27.523438 535.96875 23.609375 514.089844 C 20.8125 498.449219 51.863281 493.441406 54.484375 477.765625 C 59.421875 448.273438 7.605469 420.546875 21.792969 394.222656 C 31.484375 376.242188 64.121094 391.855469 81.730469 381.507812 Z M 81.730469 381.507812 "/>
<path style=" stroke:none;fill-rule:nonzero;fill:rgb(100%,80.000001%,0%);fill-opacity:1;" d="M 682.597656 251.238281 C 680.136719 251.304688 677.644531 252.257812 675.609375 254.304688 L 573.75 356.167969 L 573.746094 443.089844 L 632.734375 384.105469 L 632.734375 660.050781 C 632.703125 669.28125 643.886719 673.914062 650.394531 667.363281 L 690.238281 627.519531 C 692.183594 625.582031 693.277344 622.949219 693.277344 620.207031 L 693.277344 443.089844 L 752.261719 384.105469 L 752.261719 416.710938 L 715.453125 453.519531 C 711.40625 457.554688 711.40625 464.109375 715.453125 468.148438 L 752.261719 504.957031 L 752.261719 739.730469 C 752.238281 748.96875 763.414062 753.597656 769.925781 747.046875 L 809.769531 707.203125 C 811.714844 705.265625 812.804688 702.636719 812.804688 699.886719 L 812.804688 261.621094 C 812.832031 252.382812 801.648438 247.753906 795.140625 254.304688 L 693.277344 356.167969 L 693.277344 261.621094 C 693.292969 255.269531 688.015625 251.097656 682.597656 251.238281 Z M 921.828125 370.796875 C 919.136719 370.835938 916.566406 371.929688 914.667969 373.832031 L 834.980469 453.519531 C 830.9375 457.554688 830.9375 464.109375 834.980469 468.148438 L 914.667969 547.832031 C 918.707031 551.878906 925.257812 551.878906 929.296875 547.832031 L 1008.980469 468.148438 C 1013.027344 464.109375 1013.027344 457.554688 1008.980469 453.519531 L 929.296875 373.832031 C 927.320312 371.851562 924.625 370.757812 921.828125 370.796875 Z M 921.828125 370.796875 "/>
<path style=" stroke:none;fill-rule:nonzero;fill:rgb(100%,100%,100%);fill-opacity:1;" d="M 563.085938 171.582031 C 560.449219 171.664062 557.945312 172.75 556.082031 174.617188 L 516.238281 214.460938 C 514.296875 216.402344 513.203125 219.035156 513.203125 221.777344 L 513.203125 435.855469 L 454.21875 376.871094 L 454.21875 341.304688 C 454.242188 332.066406 443.066406 327.4375 436.554688 333.988281 L 396.710938 373.832031 C 394.765625 375.773438 393.671875 378.402344 393.671875 381.148438 L 393.671875 540.519531 C 393.675781 543.261719 394.765625 545.894531 396.710938 547.832031 L 436.554688 587.675781 C 443.066406 594.226562 454.242188 589.601562 454.21875 580.363281 L 454.21875 463.789062 L 513.203125 522.777344 L 513.203125 660.050781 C 513.179688 669.28125 524.355469 673.914062 530.867188 667.363281 L 570.710938 627.519531 C 572.65625 625.582031 573.746094 622.949219 573.746094 620.207031 L 573.746094 443.089844 L 573.75 356.167969 L 573.75 181.933594 C 573.761719 176.089844 568.925781 171.402344 563.085938 171.582031 Z M 1041.351562 251.269531 C 1035.691406 251.347656 1031.152344 255.957031 1031.160156 261.617188 L 1031.160156 660.042969 C 1031.132812 669.28125 1042.3125 673.910156 1048.824219 667.359375 L 1248.039062 468.144531 C 1252.085938 464.109375 1252.085938 457.554688 1248.039062 453.515625 L 1048.824219 254.300781 C 1046.851562 252.324219 1044.148438 251.226562 1041.351562 251.269531 Z M 1091.703125 385.972656 L 1168.511719 460.832031 L 1091.703125 535.691406 L 1091.703125 504.957031 L 1128.511719 468.144531 C 1132.554688 464.109375 1132.554688 457.554688 1128.511719 453.515625 L 1091.703125 416.710938 Z M 1091.703125 385.972656 "/>
<path style=" stroke:none;fill-rule:nonzero;fill:rgb(16.470589%,83.137256%,100%);fill-opacity:1;" d="M 284.652344 251.269531 C 281.910156 251.269531 279.277344 252.359375 277.339844 254.304688 L 78.125 453.519531 C 74.078125 457.554688 74.078125 464.109375 78.125 468.148438 L 277.339844 667.363281 C 279.273438 669.304688 281.910156 670.394531 284.652344 670.394531 L 345.664062 670.394531 C 354.902344 670.425781 359.53125 659.242188 352.976562 652.734375 L 161.078125 460.835938 L 352.976562 268.9375 C 359.53125 262.421875 354.898438 251.246094 345.664062 251.269531 Z M 404.882812 251.269531 C 402.140625 251.269531 399.507812 252.359375 397.566406 254.304688 L 198.355469 453.519531 C 194.308594 457.554688 194.308594 464.109375 198.355469 468.148438 L 397.566406 667.363281 C 399.507812 669.304688 402.140625 670.394531 404.882812 670.394531 L 465.886719 670.394531 C 475.125 670.425781 479.761719 659.242188 473.207031 652.734375 L 281.308594 460.835938 L 473.207031 268.9375 C 479.761719 262.421875 475.125 251.246094 465.886719 251.269531 Z M 921.828125 251.269531 C 919.136719 251.308594 916.566406 252.402344 914.667969 254.304688 L 834.980469 333.988281 C 833.039062 335.933594 831.941406 338.558594 831.941406 341.304688 L 831.941406 400.757812 C 831.917969 409.996094 843.101562 414.625 849.609375 408.070312 L 921.980469 335.703125 L 994.351562 408.070312 C 1000.863281 414.625 1012.046875 409.996094 1012.015625 400.757812 L 1012.015625 341.304688 C 1012.015625 338.558594 1010.921875 335.929688 1008.980469 333.988281 L 929.296875 254.304688 C 927.320312 252.324219 924.625 251.230469 921.828125 251.269531 Z M 921.828125 251.269531 "/>
<path style=" stroke:none;fill-rule:nonzero;fill:rgb(100%,100%,100%);fill-opacity:1;" d="M 921.152344 430.546875 C 921.765625 430.542969 922.378906 430.550781 922.992188 430.566406 L 922.992188 430.5625 C 942.613281 431.113281 961.519531 441.757812 984.859375 460.671875 C 940.234375 496.921875 897.570312 494.773438 856.925781 460.996094 C 882.257812 440.234375 902.101562 430.625 921.152344 430.542969 Z M 921.152344 430.546875 "/>
<path style=" stroke:none;fill-rule:nonzero;fill:rgb(0%,80.000001%,100%);fill-opacity:1;" d="M 842.140625 512.425781 C 836.480469 512.503906 831.9375 517.113281 831.949219 522.773438 L 831.949219 580.359375 C 831.949219 583.105469 833.039062 585.738281 834.980469 587.675781 L 914.667969 667.359375 C 918.707031 671.40625 925.257812 671.40625 929.296875 667.359375 L 1008.984375 587.675781 C 1010.929688 585.734375 1012.015625 583.105469 1012.015625 580.359375 L 1012.015625 522.773438 C 1012.046875 513.535156 1000.863281 508.90625 994.355469 515.460938 L 921.984375 587.753906 L 849.609375 515.460938 C 847.636719 513.480469 844.9375 512.382812 842.140625 512.421875 Z M 842.140625 512.425781 "/>
<path style=" stroke:none;fill-rule:evenodd;fill:rgb(0%,0%,0%);fill-opacity:1;" d="M 563.976562 163.558594 L 562.117188 163.625 L 562.109375 163.625 C 558.113281 163.746094 554.320312 165.390625 551.507812 168.214844 L 511.675781 208.058594 C 508.738281 210.988281 507.085938 214.972656 507.085938 219.121094 L 507.085938 420.382812 L 458.714844 372.015625 L 458.714844 338.652344 C 458.730469 331.894531 454.449219 326.398438 449.058594 324.164062 C 443.65625 321.929688 436.738281 322.792969 431.96875 327.59375 L 392.144531 367.421875 C 389.203125 370.355469 387.546875 374.335938 387.546875 378.492188 L 387.546875 537.867188 C 387.546875 542.015625 389.199219 546.007812 392.136719 548.9375 L 431.988281 588.773438 C 436.753906 593.566406 443.660156 594.433594 449.058594 592.203125 C 454.449219 589.972656 458.730469 584.464844 458.714844 577.707031 L 458.714844 473.96875 L 507.085938 522.328125 L 507.085938 657.398438 C 507.070312 664.152344 511.351562 669.648438 516.742188 671.878906 C 522.132812 674.117188 529.046875 673.257812 533.8125 668.46875 L 573.652344 628.628906 C 576.589844 625.695312 578.242188 621.710938 578.242188 617.558594 L 578.242188 442.640625 L 626.609375 394.273438 L 626.609375 657.398438 C 626.597656 664.15625 630.878906 669.648438 636.269531 671.878906 C 641.664062 674.117188 648.574219 673.257812 653.339844 668.46875 L 693.183594 628.625 C 696.117188 625.6875 697.773438 621.710938 697.773438 617.554688 L 697.773438 442.636719 L 746.136719 394.273438 L 746.136719 411.855469 L 710.882812 447.109375 C 704.808594 453.179688 704.8125 463.1875 710.886719 469.257812 L 746.136719 504.507812 L 746.136719 737.085938 C 746.128906 743.835938 750.40625 749.335938 755.796875 751.566406 C 761.195312 753.804688 768.121094 752.933594 772.886719 748.132812 L 812.710938 708.3125 L 812.710938 708.300781 C 815.644531 705.371094 817.300781 701.382812 817.300781 697.230469 L 817.300781 258.960938 C 817.3125 252.203125 813.03125 246.710938 807.640625 244.476562 C 802.246094 242.242188 795.332031 243.109375 790.5625 247.910156 L 697.773438 340.699219 L 697.773438 258.960938 C 697.789062 252.203125 693.503906 246.710938 688.113281 244.476562 C 682.714844 242.242188 675.800781 243.109375 671.035156 247.910156 L 578.242188 340.699219 L 578.242188 179.28125 C 578.257812 171.402344 572.214844 165.125 564.648438 164.066406 Z M 562.4375 174.242188 L 562.445312 174.242188 C 565.351562 174.152344 567.632812 176.359375 567.628906 179.265625 L 567.628906 617.558594 C 567.628906 618.898438 567.09375 620.164062 566.148438 621.113281 L 550.953125 636.304688 L 550.953125 207.363281 L 534.375 223.941406 L 534.375 652.875 L 526.289062 660.960938 L 526.289062 660.972656 C 524.546875 662.726562 522.621094 662.816406 520.804688 662.066406 C 518.988281 661.320312 517.695312 659.886719 517.699219 657.414062 L 517.699219 517.925781 L 448.09375 448.316406 L 448.09375 577.726562 C 448.105469 580.199219 446.804688 581.625 444.992188 582.378906 C 443.179688 583.128906 441.253906 583.03125 439.511719 581.28125 L 405.160156 546.929688 L 405.160156 389.078125 L 500.019531 459.03125 L 407.257812 367.335938 L 439.511719 335.078125 C 441.253906 333.324219 443.179688 333.226562 444.992188 333.980469 C 446.804688 334.730469 448.105469 336.164062 448.09375 338.632812 L 448.09375 376.414062 L 517.699219 446.03125 L 517.699219 219.125 C 517.699219 217.789062 518.234375 216.519531 519.179688 215.570312 L 559.027344 175.722656 L 559.027344 175.710938 C 559.9375 174.800781 561.15625 174.28125 562.4375 174.242188 Z M 920.933594 243.300781 C 916.859375 243.363281 912.96875 245.019531 910.09375 247.90625 L 830.410156 327.582031 C 827.476562 330.511719 825.820312 334.5 825.820312 338.652344 L 825.820312 398.105469 C 825.804688 404.859375 830.085938 410.355469 835.476562 412.585938 C 840.875 414.824219 847.789062 413.964844 852.558594 409.175781 L 852.570312 409.164062 L 921.167969 340.5625 L 989.78125 409.175781 C 994.546875 413.964844 1001.464844 414.828125 1006.859375 412.597656 C 1012.25 410.367188 1016.527344 404.859375 1016.519531 398.105469 L 1016.519531 338.652344 C 1016.519531 334.5 1014.863281 330.511719 1011.925781 327.582031 L 1011.914062 327.574219 L 932.246094 247.898438 L 932.234375 247.890625 C 929.265625 244.921875 925.214844 243.28125 921.011719 243.320312 C 920.984375 243.320312 920.960938 243.300781 920.933594 243.300781 Z M 283.84375 243.300781 C 279.691406 243.300781 275.699219 244.960938 272.765625 247.90625 L 73.558594 447.109375 C 67.480469 453.179688 67.480469 463.1875 73.558594 469.257812 L 272.765625 668.457031 C 275.699219 671.402344 279.691406 673.054688 283.84375 673.054688 L 344.835938 673.054688 C 351.601562 673.070312 357.105469 668.792969 359.335938 663.398438 C 361.570312 658.007812 360.707031 651.09375 355.921875 646.328125 L 355.914062 646.308594 L 167.78125 458.179688 L 355.921875 270.039062 C 360.710938 265.273438 361.570312 258.363281 359.335938 252.96875 C 357.105469 247.578125 351.605469 243.292969 344.851562 243.300781 Z M 404.070312 243.300781 C 399.917969 243.300781 395.929688 244.960938 392.992188 247.90625 L 193.789062 447.109375 C 187.710938 453.179688 187.710938 463.1875 193.789062 469.257812 L 392.992188 668.460938 C 395.929688 671.402344 399.917969 673.054688 404.070312 673.054688 L 465.0625 673.054688 C 471.828125 673.070312 477.335938 668.792969 479.566406 663.398438 C 481.800781 658.007812 480.9375 651.09375 476.152344 646.328125 L 476.140625 646.308594 L 288.003906 458.179688 L 476.140625 270.050781 L 476.152344 270.039062 C 480.941406 265.273438 481.800781 258.363281 479.566406 252.96875 C 477.335938 247.578125 471.835938 243.289062 465.082031 243.300781 Z M 1040.464844 243.300781 L 1035.230469 243.378906 L 1035.230469 244.445312 C 1029.316406 246.695312 1025.023438 252.320312 1025.035156 258.976562 L 1025.035156 657.398438 C 1025.023438 664.15625 1029.300781 669.648438 1034.695312 671.878906 C 1040.085938 674.109375 1046.996094 673.246094 1051.765625 668.460938 L 1051.78125 668.457031 L 1250.988281 469.253906 L 1250.988281 469.242188 C 1257.058594 463.179688 1257.058594 453.171875 1250.988281 447.109375 L 1250.988281 447.097656 L 1051.777344 247.898438 L 1051.765625 247.890625 C 1048.773438 244.898438 1044.691406 243.238281 1040.464844 243.300781 Z M 681.976562 253.851562 C 682.675781 253.851562 683.367188 254.015625 684.054688 254.292969 C 685.863281 255.042969 687.15625 256.480469 687.152344 258.953125 L 687.152344 366.335938 L 798.09375 255.398438 C 799.839844 253.648438 801.761719 253.539062 803.578125 254.292969 C 805.390625 255.042969 806.6875 256.480469 806.679688 258.953125 L 806.679688 697.234375 C 806.679688 698.570312 806.152344 699.84375 805.203125 700.789062 L 765.355469 740.644531 L 765.347656 740.644531 C 763.601562 742.398438 761.679688 742.503906 759.863281 741.753906 C 758.050781 741 756.753906 739.566406 756.757812 737.09375 L 756.757812 500.101562 L 718.398438 461.734375 C 716.386719 459.726562 716.386719 456.632812 718.398438 454.625 L 756.757812 416.253906 L 756.757812 368.625 L 687.152344 438.238281 L 687.152344 617.558594 C 687.152344 618.890625 686.625 620.160156 685.671875 621.109375 L 645.824219 660.957031 L 645.820312 660.96875 C 644.078125 662.71875 642.148438 662.816406 640.335938 662.066406 C 638.519531 661.3125 637.226562 659.882812 637.230469 657.414062 L 637.230469 368.625 L 588.066406 417.792969 L 588.066406 345.898438 L 678.5625 255.394531 C 679.65625 254.300781 680.816406 253.851562 681.976562 253.847656 Z M 283.84375 253.929688 L 309.371094 253.929688 L 104.835938 458.46875 L 308.792969 662.425781 L 283.84375 662.425781 C 282.507812 662.425781 281.226562 661.898438 280.289062 660.957031 L 81.0625 461.734375 C 79.054688 459.726562 79.054688 456.632812 81.0625 454.625 L 280.289062 255.40625 L 280.289062 255.398438 C 281.230469 254.453125 282.503906 253.929688 283.84375 253.929688 Z M 331.859375 253.929688 L 344.867188 253.929688 C 347.34375 253.921875 348.769531 255.21875 349.523438 257.035156 C 350.273438 258.847656 350.175781 260.777344 348.421875 262.515625 L 348.414062 262.515625 L 152.753906 458.179688 L 348.414062 653.84375 L 348.421875 653.847656 C 350.175781 655.589844 350.273438 657.519531 349.523438 659.332031 C 348.769531 661.148438 347.335938 662.4375 344.863281 662.425781 L 331.285156 662.425781 L 127.324219 458.46875 Z M 404.070312 253.929688 L 465.097656 253.929688 C 467.570312 253.921875 469 255.21875 469.75 257.035156 C 470.503906 258.847656 470.40625 260.777344 468.652344 262.515625 L 468.640625 262.515625 L 272.984375 458.179688 L 468.640625 653.84375 L 468.652344 653.847656 C 470.40625 655.589844 470.503906 657.519531 469.75 659.332031 C 469 661.148438 467.5625 662.4375 465.085938 662.425781 L 404.070312 662.425781 C 402.734375 662.425781 401.464844 661.910156 400.515625 660.957031 L 400.507812 660.957031 L 201.292969 461.734375 C 199.28125 459.726562 199.28125 456.632812 201.292969 454.625 L 400.515625 255.40625 L 400.515625 255.398438 C 401.460938 254.453125 402.734375 253.929688 404.070312 253.929688 Z M 921.089844 253.929688 C 922.457031 253.910156 923.757812 254.445312 924.722656 255.410156 L 1004.410156 335.097656 L 1004.417969 335.097656 C 1005.367188 336.039062 1005.890625 337.3125 1005.890625 338.652344 L 1005.890625 398.121094 C 1005.898438 400.59375 1004.609375 402.023438 1002.792969 402.773438 C 1000.980469 403.523438 999.054688 403.429688 997.308594 401.675781 L 997.304688 401.664062 L 921.167969 325.542969 L 845.035156 401.664062 L 845.023438 401.675781 C 843.28125 403.429688 841.355469 403.523438 839.539062 402.773438 C 837.730469 402.023438 836.441406 400.59375 836.445312 398.121094 L 836.445312 338.652344 C 836.445312 337.3125 836.976562 336.046875 837.925781 335.097656 L 917.617188 255.410156 L 917.617188 255.398438 C 918.539062 254.472656 919.789062 253.949219 921.089844 253.929688 Z M 1040.621094 253.929688 C 1041.984375 253.910156 1043.285156 254.4375 1044.253906 255.398438 L 1044.253906 255.410156 L 1243.476562 454.625 C 1245.488281 456.632812 1245.488281 459.730469 1243.476562 461.734375 L 1044.253906 660.960938 L 1044.242188 660.972656 C 1042.5 662.726562 1040.574219 662.816406 1038.757812 662.070312 C 1036.941406 661.320312 1035.660156 659.882812 1035.664062 657.40625 L 1035.664062 258.953125 C 1035.660156 256.148438 1037.808594 253.96875 1040.621094 253.929688 Z M 1040.699219 258.964844 L 1040.699219 657.390625 L 1057.273438 640.816406 L 1057.273438 298.964844 L 1217.5 439.96875 L 1057.273438 275.542969 L 1056.648438 274.921875 Z M 800.972656 259.722656 L 784.398438 276.296875 L 784.398438 276.445312 L 710.550781 350.761719 L 784.398438 299.796875 L 784.398438 715.03125 L 800.972656 697.984375 Z M 406.007812 259.847656 L 206.792969 459.058594 L 406.007812 658.273438 L 428.496094 658.273438 L 229.28125 459.058594 L 428.496094 259.847656 Z M 681.507812 260.800781 L 664.9375 277.378906 L 602.699219 342.039062 L 664.9375 300.722656 L 664.9375 634.5625 L 681.507812 617.519531 Z M 920.546875 260.835938 L 840.859375 340.515625 L 840.859375 363.007812 L 920.546875 283.324219 L 1000.234375 363.007812 L 1000.234375 340.515625 Z M 920.9375 362.832031 C 916.859375 362.890625 912.96875 364.550781 910.09375 367.429688 L 830.410156 447.109375 C 824.339844 453.179688 824.339844 463.191406 830.421875 469.257812 L 910.09375 548.941406 C 916.164062 555.019531 926.175781 555.019531 932.246094 548.941406 L 1011.925781 469.257812 L 1011.925781 469.246094 C 1018 463.183594 1018 453.179688 1011.925781 447.113281 L 1011.925781 447.105469 L 932.246094 367.429688 C 929.257812 364.433594 925.167969 362.773438 920.933594 362.832031 Z M 1085.578125 370.726562 L 1085.578125 416.257812 L 1123.945312 454.625 C 1125.957031 456.628906 1125.957031 459.726562 1123.945312 461.734375 L 1085.578125 500.101562 L 1085.578125 545.632812 L 1175.308594 458.179688 Z M 921.089844 373.460938 C 922.457031 373.441406 923.757812 373.972656 924.722656 374.9375 L 1004.417969 454.625 C 1006.429688 456.628906 1006.429688 459.726562 1004.417969 461.734375 L 994.453125 471.699219 C 957.359375 502.226562 913.148438 524.707031 856.875 480.683594 L 837.925781 461.734375 C 835.914062 459.726562 835.914062 456.628906 837.925781 454.625 L 917.617188 374.9375 C 918.539062 374.007812 919.789062 373.480469 921.089844 373.460938 Z M 1096.207031 395.917969 L 1160.085938 458.179688 L 1096.207031 520.445312 L 1096.207031 504.507812 L 1131.453125 469.257812 L 1131.453125 469.246094 C 1137.53125 463.183594 1137.53125 453.179688 1131.453125 447.113281 L 1131.453125 447.105469 L 1096.207031 411.855469 Z M 916.871094 422.449219 L 916.871094 422.949219 C 915.96875 423.050781 915.070312 423.199219 914.179688 423.382812 C 895.347656 425.253906 875.992188 435.191406 852.75 454.238281 L 847.769531 458.320312 L 852.726562 462.425781 C 873.703125 479.863281 895.75 489.511719 918.53125 489.753906 C 941.308594 490 964.398438 480.828125 987.390625 462.148438 L 992.476562 458.015625 L 987.390625 453.902344 C 963.71875 434.710938 943.773438 423.199219 922.328125 422.597656 Z M 929.214844 435.066406 L 929.222656 435.066406 C 929.425781 435.0625 929.625 435.0625 929.824219 435.066406 C 934.710938 435.054688 938.695312 439.429688 938.742188 444.859375 C 938.742188 447.484375 937.804688 450.003906 936.132812 451.859375 C 934.457031 453.71875 932.191406 454.761719 929.824219 454.75 C 927.460938 454.761719 925.191406 453.71875 923.519531 451.863281 C 921.847656 450.003906 920.910156 447.484375 920.914062 444.859375 C 920.941406 439.683594 924.566406 435.410156 929.214844 435.066406 Z M 893.75 439.960938 C 892.535156 442.960938 891.910156 446.136719 891.910156 449.339844 C 891.953125 463.992188 904.707031 475.839844 920.394531 475.804688 C 936.054688 475.796875 948.75 463.960938 948.792969 449.339844 C 948.785156 446.1875 948.171875 443.054688 946.988281 440.101562 C 955.644531 444.351562 964.789062 450.453125 974.765625 458.121094 C 955.316406 472.445312 936.675781 479.328125 918.640625 479.132812 C 900.640625 478.941406 882.851562 471.734375 865.042969 458.289062 C 875.578125 450.121094 885.007812 444.082031 893.75 439.960938 Z M 841.253906 504.460938 L 836.015625 504.53125 L 836.015625 505.605469 C 830.101562 507.855469 825.8125 513.480469 825.820312 520.132812 L 825.820312 577.710938 C 825.820312 581.859375 827.476562 585.855469 830.421875 588.785156 L 910.097656 668.46875 C 916.167969 674.546875 926.171875 674.542969 932.234375 668.46875 L 1011.921875 588.785156 L 1011.921875 588.777344 C 1014.863281 585.84375 1016.519531 581.859375 1016.519531 577.710938 L 1016.519531 520.121094 C 1016.53125 513.367188 1012.25 507.871094 1006.855469 505.640625 C 1001.460938 503.402344 994.539062 504.261719 989.769531 509.0625 L 921.167969 577.597656 L 852.558594 509.050781 L 852.546875 509.042969 C 849.558594 506.054688 845.484375 504.402344 841.253906 504.460938 Z M 1000.722656 515.007812 C 1001.414062 515.007812 1002.113281 515.171875 1002.792969 515.453125 C 1004.609375 516.207031 1005.90625 517.632812 1005.898438 520.109375 L 1005.898438 534.109375 L 921.0625 618.949219 L 836.445312 534.335938 L 836.445312 520.113281 C 836.445312 517.304688 838.589844 515.117188 841.402344 515.078125 C 842.769531 515.0625 844.070312 515.59375 845.035156 516.558594 L 845.042969 516.558594 L 921.167969 592.609375 L 997.304688 516.558594 L 997.308594 516.546875 C 998.398438 515.453125 999.5625 515.003906 1000.722656 515.003906 Z M 1005.898438 556.605469 L 1005.898438 577.710938 C 1005.898438 579.042969 1005.371094 580.316406 1004.417969 581.265625 L 924.726562 660.953125 L 924.726562 660.960938 C 922.71875 662.96875 919.625 662.96875 917.617188 660.960938 L 917.617188 660.953125 L 837.929688 581.265625 L 837.917969 581.265625 C 836.972656 580.320312 836.449219 579.046875 836.449219 577.710938 L 836.449219 556.828125 L 921.0625 641.441406 Z M 1005.898438 556.605469 "/>
</g>
</svg>
