<?xml version="1.0" encoding="UTF-8"?>
<svg xmlns="http://www.w3.org/2000/svg" xmlns:xlink="http://www.w3.org/1999/xlink" width="1052pt" height="744pt" viewBox="0 0 1052 744" version="1.1">
<g id="surface1">
<path style=" stroke:none;fill-rule:nonzero;fill:rgb(0%,0%,0%);fill-opacity:1;" d="M 612.472656 37.867188 C 605.167969 37.867188 597.855469 38.382812 594.078125 39.414062 C 582.378906 42.605469 572.511719 49.210938 569.480469 55.882812 C 567.566406 60.09375 567.5625 66.425781 569.472656 70.628906 C 573.617188 79.753906 587.539062 87.214844 603.574219 88.90625 C 607.105469 89.277344 610.417969 89.632812 610.929688 89.691406 C 611.445312 89.753906 615.671875 89.410156 620.324219 88.933594 C 637.722656 87.152344 650.285156 80.667969 655.378906 70.847656 C 657.464844 66.820312 657.46875 59.726562 655.386719 55.640625 C 651.910156 48.824219 642.511719 42.613281 630.820312 39.402344 C 627.074219 38.375 619.777344 37.863281 612.472656 37.867188 Z M 533.671875 78.386719 C 520.226562 78.40625 506.761719 81.828125 497.898438 88.984375 C 492.136719 93.636719 489.554688 98.359375 489.554688 104.25 C 489.554688 116.605469 502.546875 126.585938 522.800781 129.792969 C 529.917969 130.921875 545.339844 130.132812 552.546875 128.269531 C 564.785156 125.109375 575.433594 117.628906 577.765625 110.550781 C 579.390625 105.636719 578.4375 98.507812 575.621094 94.5 C 568.214844 83.96875 550.960938 78.363281 533.671875 78.386719 Z M 738.925781 87.351562 C 738.648438 87.351562 679.867188 117.390625 608.296875 154.101562 L 478.167969 220.855469 L 478.148438 287.144531 L 478.144531 287.144531 L 478.125 353.433594 L 496.742188 343.894531 C 506.980469 338.648438 565.773438 308.464844 627.390625 276.816406 L 739.421875 219.273438 L 739.421875 153.308594 C 739.421875 117.03125 739.199219 87.351562 738.925781 87.351562 Z M 455.039062 119.472656 C 440.207031 119.542969 425.449219 123.679688 417.195312 132.082031 C 409.574219 139.839844 409.101562 149.925781 415.984375 157.765625 C 425.957031 169.125 450.835938 174.472656 471.960938 169.804688 C 481.246094 167.753906 488.015625 164.5625 493.375 159.71875 C 498.679688 154.925781 500.507812 150.539062 500.019531 143.800781 C 499.722656 139.679688 499.175781 138.296875 496.363281 134.585938 C 488.746094 124.523438 471.847656 119.386719 455.039062 119.472656 Z M 322.367188 147.21875 C 321.554688 146.875 321.347656 160.324219 321.347656 212.929688 L 321.347656 279.074219 L 391.367188 315.832031 C 429.875 336.050781 461.847656 352.625 462.410156 352.660156 C 463.226562 352.714844 463.394531 339.304688 463.226562 286.796875 L 463.019531 220.863281 L 393.203125 184.257812 C 354.804688 164.125 322.925781 147.457031 322.367188 147.21875 Z M 125.78125 413.085938 C 117.882812 413.085938 110.746094 414.410156 104.375 417.058594 C 98.054688 419.710938 93.191406 423.40625 89.777344 428.144531 C 86.414062 432.832031 84.730469 438.183594 84.730469 444.199219 C 84.730469 455.765625 91.050781 464.960938 103.6875 471.792969 C 108.328125 474.289062 114.617188 476.835938 122.570312 479.4375 C 130.519531 481.984375 136.023438 484.429688 139.082031 486.773438 C 142.140625 489.066406 143.667969 492.378906 143.667969 496.710938 C 143.667969 500.6875 142.140625 503.796875 139.082031 506.039062 C 136.023438 508.230469 131.769531 509.324219 126.316406 509.324219 C 111.636719 509.324219 104.300781 503.183594 104.300781 490.902344 L 81.292969 490.902344 C 81.292969 498.085938 83.125 504.40625 86.796875 509.859375 C 90.515625 515.3125 95.890625 519.621094 102.921875 522.777344 C 109.957031 525.886719 117.753906 527.441406 126.316406 527.441406 C 138.648438 527.441406 148.457031 524.714844 155.746094 519.261719 C 163.035156 513.757812 166.675781 506.191406 166.675781 496.558594 C 166.675781 487.894531 163.695312 480.660156 157.734375 474.847656 C 151.769531 469.039062 142.265625 464.175781 129.21875 460.25 C 122.136719 458.109375 116.761719 455.816406 113.089844 453.367188 C 109.472656 450.921875 107.664062 447.890625 107.664062 444.273438 C 107.664062 440.398438 109.21875 437.292969 112.324219 434.945312 C 115.433594 432.550781 119.792969 431.355469 125.398438 431.355469 C 131.207031 431.355469 135.71875 432.78125 138.925781 435.636719 C 142.136719 438.4375 143.742188 442.386719 143.742188 447.484375 L 166.675781 447.484375 C 166.675781 440.808594 164.945312 434.84375 161.480469 429.597656 C 158.066406 424.347656 153.246094 420.296875 147.03125 417.441406 C 140.8125 414.539062 133.730469 413.085938 125.78125 413.085938 Z M 315.355469 413.390625 C 308.375 414.136719 302.027344 416.273438 296.320312 419.8125 C 289.132812 424.246094 283.554688 430.640625 279.578125 439 C 275.65625 447.304688 273.691406 456.9375 273.691406 467.894531 L 273.691406 473.398438 C 273.746094 484.097656 275.757812 493.578125 279.730469 501.832031 C 283.707031 510.039062 289.3125 516.355469 296.550781 520.789062 C 302.210938 524.257812 308.480469 526.363281 315.355469 527.117188 L 315.355469 507.960938 C 310.316406 506.734375 306.265625 503.832031 303.199219 499.234375 C 299.023438 492.96875 296.929688 484.148438 296.929688 472.785156 L 296.929688 467.359375 C 296.980469 455.789062 299.097656 447.023438 303.277344 441.0625 C 306.347656 436.640625 310.378906 433.851562 315.355469 432.679688 Z M 326.820312 413.390625 L 326.820312 432.679688 C 331.839844 433.851562 335.894531 436.667969 338.972656 441.140625 C 343.152344 447.203125 345.242188 456.070312 345.242188 467.742188 L 345.242188 473.167969 C 345.191406 484.738281 343.101562 493.554688 338.972656 499.617188 C 335.90625 504.085938 331.855469 506.886719 326.820312 508.035156 L 326.820312 527.15625 C 333.894531 526.425781 340.289062 524.285156 346.007812 520.714844 C 353.242188 516.230469 358.796875 509.859375 362.671875 501.605469 C 366.542969 493.347656 368.480469 483.742188 368.480469 472.785156 L 368.480469 467.816406 C 368.480469 456.914062 366.492188 447.304688 362.519531 439 C 358.59375 430.640625 353.015625 424.246094 345.777344 419.8125 C 340.109375 416.277344 333.789062 414.140625 326.820312 413.390625 Z M 175.390625 414.613281 L 175.390625 433.1875 L 209.023438 433.1875 L 209.023438 525.910156 L 231.957031 525.910156 L 231.957031 433.1875 L 266.050781 433.1875 L 266.050781 414.613281 Z M 385.296875 414.613281 L 385.296875 525.910156 L 408.230469 525.910156 L 408.230469 452.683594 L 452.871094 525.910156 L 475.804688 525.910156 L 475.804688 414.613281 L 452.949219 414.613281 L 452.949219 487.996094 L 408.230469 414.613281 Z M 495.984375 414.613281 L 495.984375 525.910156 L 570.589844 525.910156 L 570.589844 507.488281 L 518.917969 507.488281 L 518.917969 477.679688 L 562.945312 477.679688 L 562.945312 459.714844 L 518.917969 459.714844 L 518.917969 433.1875 L 570.4375 433.1875 L 570.4375 414.613281 Z M 576.785156 414.613281 L 601.472656 525.910156 L 624.558594 525.910156 L 642.675781 451.460938 L 660.792969 525.910156 L 683.875 525.910156 L 708.570312 414.613281 L 685.710938 414.613281 L 670.730469 493.808594 L 652.460938 414.613281 L 633.046875 414.613281 L 614.699219 493.652344 L 599.640625 414.613281 Z M 750.980469 414.613281 L 788.21875 525.914062 L 812.605469 525.914062 L 770.945312 414.613281 Z M 823.152344 414.613281 L 823.152344 525.910156 L 894.78125 525.910156 L 894.78125 507.488281 L 846.085938 507.488281 L 846.085938 414.613281 Z M 907.851562 414.613281 L 907.851562 525.910156 L 979.476562 525.910156 L 979.476562 507.488281 L 930.78125 507.488281 L 930.78125 414.613281 Z M 744.003906 429.902344 L 708.261719 525.914062 L 732.648438 525.914062 L 740.292969 502.980469 L 768.457031 502.980469 L 762.242188 484.40625 L 746.484375 484.40625 L 754.332031 460.769531 Z M 318.949219 587.09375 L 318.949219 698.394531 L 341.878906 698.394531 L 341.878906 587.09375 Z M 353.347656 587.09375 L 353.347656 605.671875 L 362.898438 605.671875 C 368.558594 605.773438 372.992188 607.503906 376.199219 610.867188 C 379.410156 614.234375 381.015625 618.640625 381.015625 624.09375 C 381.015625 629.394531 379.410156 633.46875 376.199219 636.324219 C 373.042969 639.179688 368.429688 640.605469 362.367188 640.605469 L 353.347656 640.605469 L 353.347656 659.179688 L 361.984375 659.179688 C 375.183594 659.179688 385.503906 656.046875 392.941406 649.777344 C 400.433594 643.457031 404.179688 634.84375 404.179688 623.9375 C 404.179688 616.753906 402.472656 610.359375 399.058594 604.753906 C 395.644531 599.097656 390.75 594.738281 384.378906 591.679688 C 378.0625 588.625 370.722656 587.09375 362.367188 587.09375 Z M 419.851562 587.09375 L 419.851562 698.394531 L 442.78125 698.394531 L 442.78125 587.09375 Z M 454.246094 587.09375 L 454.246094 605.671875 L 461.203125 605.671875 C 467.371094 605.671875 471.933594 607.175781 474.886719 610.179688 C 477.894531 613.1875 479.398438 617.316406 479.398438 622.5625 C 479.398438 627.710938 477.816406 631.761719 474.65625 634.71875 C 471.496094 637.625 467.039062 639.074219 461.28125 639.074219 L 454.246094 639.074219 L 454.246094 657.652344 L 461.050781 657.652344 L 481.917969 698.394531 L 506.535156 698.394531 L 506.535156 697.324219 L 482.457031 651.839844 C 489.132812 648.835938 494.097656 644.808594 497.359375 639.761719 C 500.671875 634.667969 502.328125 628.324219 502.328125 620.730469 C 502.328125 610.027344 498.761719 601.746094 491.628906 595.886719 C 484.492188 590.023438 474.351562 587.09375 461.203125 587.09375 Z M 521.285156 587.09375 L 521.285156 698.394531 L 544.21875 698.394531 L 544.21875 587.09375 Z M 565.394531 587.09375 L 565.394531 698.394531 L 588.324219 698.394531 L 588.324219 587.09375 Z M 667.210938 587.09375 L 667.210938 698.394531 L 741.820312 698.394531 L 741.820312 679.972656 L 690.144531 679.972656 L 690.144531 650.160156 L 734.175781 650.160156 L 734.175781 632.195312 L 690.144531 632.195312 L 690.144531 605.671875 L 741.667969 605.671875 L 741.667969 587.09375 Z M 599.792969 587.097656 L 599.792969 605.675781 C 608.734375 605.707031 615.539062 608.636719 620.203125 614.460938 C 624.890625 620.269531 627.234375 628.832031 627.234375 640.144531 L 627.234375 646.03125 C 627.132812 656.9375 624.710938 665.320312 619.972656 671.179688 C 615.300781 676.957031 608.574219 679.878906 599.792969 679.964844 L 599.792969 698.394531 L 599.867188 698.394531 C 609.601562 698.34375 618.34375 696.101562 626.089844 691.667969 C 633.835938 687.234375 639.820312 680.988281 644.050781 672.9375 C 648.332031 664.886719 650.472656 655.6875 650.472656 645.34375 L 650.472656 640.222656 C 650.472656 629.878906 648.304688 620.652344 643.972656 612.550781 C 639.644531 604.394531 633.605469 598.128906 625.859375 593.746094 C 618.203125 589.335938 609.515625 587.121094 599.792969 587.097656 Z M 599.792969 587.097656 "/>
</g>
</svg>
