<?xml version="1.0" encoding="UTF-8" standalone="no"?>
<!-- Created with Inkscape (http://www.inkscape.org/) -->

<svg
   width="210mm"
   height="297mm"
   viewBox="0 0 210 297"
   version="1.1"
   id="svg26239"
   inkscape:export-filename="/home/thousandtowers/растровый.png"
   inkscape:export-xdpi="300"
   inkscape:export-ydpi="300"
   inkscape:version="1.1.2 (0a00cf5339, 2022-02-04)"
   sodipodi:docname="20230625_lesbian.svg"
   xmlns:inkscape="http://www.inkscape.org/namespaces/inkscape"
   xmlns:sodipodi="http://sodipodi.sourceforge.net/DTD/sodipodi-0.dtd"
   xmlns="http://www.w3.org/2000/svg"
   xmlns:svg="http://www.w3.org/2000/svg">
  <sodipodi:namedview
     id="namedview26241"
     pagecolor="#ffffff"
     bordercolor="#666666"
     borderopacity="1.0"
     inkscape:pageshadow="2"
     inkscape:pageopacity="0.0"
     inkscape:pagecheckerboard="0"
     inkscape:document-units="mm"
     showgrid="false"
     inkscape:zoom="0.22404952"
     inkscape:cx="328.05247"
     inkscape:cy="906.04969"
     inkscape:window-width="1366"
     inkscape:window-height="687"
     inkscape:window-x="0"
     inkscape:window-y="0"
     inkscape:window-maximized="1"
     inkscape:current-layer="layer1" />
  <defs
     id="defs26236">
    <filter
       style="color-interpolation-filters:sRGB"
       inkscape:label="Drop Shadow"
       id="filter27464"
       x="0"
       y="0"
       width="1.0256891"
       height="1.0836847">
      <feFlood
         flood-opacity="0.498039"
         flood-color="rgb(0,0,0)"
         result="flood"
         id="feFlood27454" />
      <feComposite
         in="flood"
         in2="SourceGraphic"
         operator="in"
         result="composite1"
         id="feComposite27456" />
      <feGaussianBlur
         in="composite1"
         stdDeviation="0"
         result="blur"
         id="feGaussianBlur27458" />
      <feOffset
         dx="3"
         dy="6"
         result="offset"
         id="feOffset27460" />
      <feComposite
         in="SourceGraphic"
         in2="offset"
         operator="over"
         result="composite2"
         id="feComposite27462" />
    </filter>
    <filter
       style="color-interpolation-filters:sRGB"
       inkscape:label="Drop Shadow"
       id="filter27884"
       x="0"
       y="0"
       width="1.0504134"
       height="1.0616566">
      <feFlood
         flood-opacity="0.498039"
         flood-color="rgb(0,0,0)"
         result="flood"
         id="feFlood27874" />
      <feComposite
         in="flood"
         in2="SourceGraphic"
         operator="in"
         result="composite1"
         id="feComposite27876" />
      <feGaussianBlur
         in="composite1"
         stdDeviation="0"
         result="blur"
         id="feGaussianBlur27878" />
      <feOffset
         dx="6"
         dy="6"
         result="offset"
         id="feOffset27880" />
      <feComposite
         in="offset"
         in2="SourceGraphic"
         operator="out"
         result="composite2"
         id="feComposite27882" />
    </filter>
    <filter
       style="color-interpolation-filters:sRGB"
       inkscape:label="Drop Shadow"
       id="filter28563"
       x="0"
       y="0"
       width="1.0413064"
       height="1.1034307">
      <feFlood
         flood-opacity="0.498039"
         flood-color="rgb(0,0,0)"
         result="flood"
         id="feFlood28553" />
      <feComposite
         in="flood"
         in2="SourceGraphic"
         operator="in"
         result="composite1"
         id="feComposite28555" />
      <feGaussianBlur
         in="composite1"
         stdDeviation="0"
         result="blur"
         id="feGaussianBlur28557" />
      <feOffset
         dx="3"
         dy="6"
         result="offset"
         id="feOffset28559" />
      <feComposite
         in="offset"
         in2="SourceGraphic"
         operator="out"
         result="composite2"
         id="feComposite28561" />
    </filter>
    <filter
       style="color-interpolation-filters:sRGB"
       inkscape:label="Drop Shadow"
       id="filter28575"
       x="0"
       y="0"
       width="1.0614116"
       height="1.0772642">
      <feFlood
         flood-opacity="0.498039"
         flood-color="rgb(0,0,0)"
         result="flood"
         id="feFlood28565" />
      <feComposite
         in="flood"
         in2="SourceGraphic"
         operator="in"
         result="composite1"
         id="feComposite28567" />
      <feGaussianBlur
         in="composite1"
         stdDeviation="0"
         result="blur"
         id="feGaussianBlur28569" />
      <feOffset
         dx="3"
         dy="6"
         result="offset"
         id="feOffset28571" />
      <feComposite
         in="offset"
         in2="SourceGraphic"
         operator="out"
         result="composite2"
         id="feComposite28573" />
    </filter>
  </defs>
  <g
     inkscape:label="Слой 1"
     inkscape:groupmode="layer"
     id="layer1">
    <path
       style="fill:#808080;stroke:#000000;stroke-width:0.5;stroke-miterlimit:4;stroke-dasharray:none;stroke-opacity:1"
       d="m 186.91715,202.35326 c -0.0573,0.0219 -2.74999,0.0301 -5.98367,0.0182 l -5.87943,-0.0216 -0.0215,-5.48331 -0.0215,-5.48329 h -7.63012 -7.63015 v -8.17282 -8.17281 h -2.53409 -2.53409 l -0.0565,-2.31426 c -0.0312,-1.27282 -0.0636,-2.61446 -0.072,-2.98137 l -0.0154,-0.66717 8.61065,-0.0213 8.61064,-0.0213 v 8.17319 8.17321 h 7.63075 7.63074 v 8.46732 c 0,6.69705 -0.0217,8.47566 -0.10424,8.50715 z m -15.21284,16.3284 c -0.0306,0.0306 -2.7326,0.0556 -6.00452,0.0556 h -5.94892 v -5.21224 -5.21225 h 6.00452 6.00452 v 5.15665 c 0,2.83615 -0.0251,5.18166 -0.0556,5.21227 z m -28.96773,-31.00947 c -0.0324,0.59628 -0.14596,1.67533 -0.25237,2.3979 l -0.19348,1.31376 -12.63204,-0.0211 -12.63204,-0.0211 -0.31206,-1.37603 c -1.4783,-6.51836 -4.94953,-14.34132 -8.38162,-18.88923 -4.44589,-5.89133 -11.886023,-12.05433 -18.426303,-15.26334 -4.33433,-2.12664 -9.37386,-3.59205 -14.59433,-4.24377 -2.2068,-0.27549 -3.40417,-0.34072 -6.2547,-0.34072 -5.29111,0 -9.32875,0.57187 -14.21903,2.01389 -0.71095,0.20964 -1.367703,0.39975 -1.459437,0.42247 -0.427473,0.10582 2.661397,-1.83864 4.440197,-2.79513 6.00701,-3.2301 12.65848,-5.10195 19.94529,-5.61307 1.79343,-0.1258 6.543,-0.0504 8.21826,0.13044 2.75906,0.29787 5.68177,0.83211 8.01015,1.4642 2.49154,0.67638 5.92422,1.93287 7.637033,2.79542 0.32701,0.16469 0.60615,0.28764 0.62033,0.27322 0.0416,-0.0423 -0.42683,-2.75691 -0.70242,-4.07091 -0.81654,-3.89328 -2.167593,-8.49916 -3.216843,-10.96658 -1.27574,-3.00005 -3.90077,-7.16537 -6.82407,-10.82825 -1.7198,-2.15488 -3.08964,-3.61925 -5.94787,-6.35834 l -0.42782,-0.40998 6.24868,-10.79979 c 3.43679,-5.93989 6.28104,-10.854782 6.32059,-10.921982 0.14163,-0.24065 2.997433,1.00121 5.507643,2.39503 0.61924,0.34383 1.15563,0.65211 1.19201,0.68505 0.0364,0.033 -1.54826,2.856172 -3.52143,6.273832 -1.973163,3.41763 -3.607663,6.26628 -3.632193,6.3303 -0.0282,0.0737 0.35771,0.48304 1.05363,1.11719 4.828863,4.40025 10.323883,12.06108 12.352643,17.22129 1.51048,3.842 3.16275,10.42486 3.69451,14.7194 0.41628,3.36189 0.24076,8.4223 -0.42893,12.36634 l -0.21643,1.27465 0.61168,0.55152 c 1.88652,1.70097 4.53142,4.55278 5.84321,6.30031 3.63161,4.83794 7.12613,12.67625 8.60643,19.30442 l 0.2755,1.23363 6.89126,0.0214 6.89125,0.0214 -0.013,0.60415 c -0.007,0.33228 -0.0395,1.092 -0.0719,1.68828 z M 128.37584,89.996308 c -2.34923,4.06979 -4.29342,7.39962 -4.32044,7.39962 -0.0992,0 -6.20018,-3.80365 -6.22531,-3.88115 -0.0144,-0.0441 0.61035,-1.18401 1.38812,-2.53315 l 1.41411,-2.45298 -1.31059,-0.75889 c -0.72082,-0.4174 -3.90724,-2.25727 -7.08091,-4.08861 -3.17365,-1.83134 -5.74796,-3.36585 -5.72068,-3.41 0.0273,-0.0441 1.74707,-3.01953 3.82173,-6.61192 2.608,-4.51594 3.74289,-6.55392 3.67747,-6.60385 -0.052,-0.0397 -1.90471,-1.11393 -4.11707,-2.38714 -3.8413,-2.21065 -4.01814,-2.32298 -3.92679,-2.49441 0.0525,-0.0987 0.9191,-1.60561 1.92555,-3.34858 1.00644,-1.74299 2.21058,-3.83583 2.67586,-4.65079 0.58583,-1.02611 0.88588,-1.47487 0.9758,-1.45944 0.15414,0.0265 14.58548,8.34199 14.5879,8.40573 9.6e-4,0.024 -1.70742,3.00417 -3.79629,6.62238 -2.08888,3.61822 -3.76827,6.6061 -3.73199,6.63972 0.0363,0.0337 3.20898,1.87405 7.05041,4.08981 3.84144,2.21575 6.98442,4.05011 6.98442,4.07634 0,0.0263 -1.92207,3.37752 -4.2713,7.44731 z M 127.10348,209.3625 c -1.72628,4.89813 -4.32486,10.0188 -6.683,13.16926 -2.29663,3.06827 -7.15003,7.88626 -10.8616,10.78229 -3.16481,2.46942 -8.02263,5.04929 -12.188273,6.47281 -0.76514,0.26149 -0.84408,0.27561 -0.62548,0.1119 3.867093,-2.89614 9.200963,-8.10809 11.701723,-11.43424 1.98506,-2.64026 4.56662,-7.58483 6.14535,-11.77046 0.88029,-2.33395 1.73279,-5.16209 2.17446,-7.21378 0.12342,-0.57335 0.24967,-1.07089 0.28057,-1.10564 0.0309,-0.0347 2.38612,-0.0535 5.23385,-0.0417 l 5.17768,0.0215 z M 96.682577,186.51813 c -3.98495,3.31997 -8.84971,6.09236 -13.97943,7.96679 -0.61356,0.2242 -1.12892,0.39431 -1.14522,0.37802 -0.0163,-0.0163 0.20426,-0.19278 0.49013,-0.3922 3.66235,-2.5547 7.64341,-6.45038 10.52696,-10.30118 0.5152,-0.68803 1.19168,-1.63594 1.50332,-2.10647 0.31162,-0.47054 0.5743,-0.84581 0.58374,-0.83396 0.69785,0.87658 2.79192,4.32165 2.79192,4.59313 0,0.0293 -0.34714,0.3424 -0.77142,0.69587 z M 94.706747,67.079448 c -1.50964,2.61336 -2.7809,4.7636 -2.82503,4.7783 -0.12998,0.0434 -7.72939,-4.38186 -7.72939,-4.50088 0,-0.0973 0.9596,-1.7819 4.38471,-7.69766 0.58424,-1.0091 1.11266,-1.84485 1.17424,-1.85726 0.13101,-0.0264 7.67716,4.31905 7.71484,4.44253 0.014,0.0459 -1.20972,2.2216 -2.71937,4.83497 z M 87.884297,225.2256 c -3.56198,2.70784 -8.16118,4.85764 -12.15497,5.68163 -4.04864,0.83528 -10.65353,0.74078 -14.40258,-0.2061 -6.95162,-1.75572 -13.558421,-6.2036 -17.956832,-12.08897 -3.161756,-4.23068 -5.191014,-9.00613 -5.74656,-13.52339 -0.142958,-1.16241 -0.331352,-4.27607 -0.262869,-4.34455 0.02521,-0.0252 0.571425,0.12889 1.213873,0.34238 3.286542,1.09217 7.133327,1.83119 11.360102,2.18241 l 0.641698,0.0533 0.22655,0.68133 c 0.346161,1.04108 0.968366,2.51328 1.567653,3.70921 3.540885,7.06623 9.692565,12.71775 17.062555,15.67532 3.93217,1.57797 7.10521,2.09096 12.36509,1.99908 2.57113,-0.0449 4.22842,-0.19029 5.81963,-0.51056 0.50214,-0.10108 0.91298,-0.17446 0.91298,-0.16311 0,0.0114 -0.29084,0.24175 -0.64632,0.512 z M 72.841647,104.9461 c -1.24323,2.15425 -2.27116,3.92874 -2.28429,3.94334 -0.0132,0.0146 -0.50607,-0.12853 -1.09539,-0.31807 -5.22107,-1.67924 -11.71168,-2.59375 -17.583925,-2.47752 -3.31852,0.0657 -5.257851,0.31928 -8.423001,1.10141 -1.639936,0.40525 -4.108752,1.13567 -5.206311,1.54035 -0.383069,0.14124 -0.711483,0.24181 -0.729804,0.22349 -0.0498,-0.0498 1.879923,-1.2876 2.975551,-1.90865 5.791915,-3.28307 13.63146,-6.00551 19.51469,-6.77686 3.51095,-0.460327 8.16573,-0.325267 13.12478,0.38081 0.95767,0.13636 1.79227,0.27649 1.85467,0.31142 0.0855,0.048 -0.44301,1.02767 -2.14697,3.98028 z m 0.20132,75.0332 c -1.72435,1.27783 -3.02162,2.06369 -5.02904,3.04653 -4.31487,2.11256 -8.45677,3.19073 -13.18824,3.43303 -1.257868,0.0645 -3.666173,0.004 -4.907451,-0.12427 -1.855166,-0.19086 -4.465624,-0.77369 -5.962822,-1.33128 -3.122292,-1.16282 -7.863278,-3.83795 -10.674698,-6.02326 -2.065622,-1.60559 -3.916226,-3.63035 -5.623236,-6.15237 -2.923699,-4.31964 -4.695405,-9.19971 -5.358983,-14.7611 -0.06977,-0.58483 -0.108303,-1.88471 -0.106281,-3.58604 0.0031,-2.26239 0.03074,-2.87182 0.184422,-4.003 0.221556,-1.63105 0.517828,-3.11566 0.900153,-4.51068 1.033478,-3.77084 4.003141,-9.01982 7.21234,-12.74805 3.099485,-3.60076 8.528462,-7.01217 13.841569,-8.69762 1.64017,-0.52032 1.623085,-0.52262 0.828062,0.1115 -2.701603,2.15486 -5.870749,6.4338 -8.08548,10.91696 -0.986415,1.99673 -1.359961,2.93631 -1.78734,4.49567 -1.924355,7.02143 -1.385439,14.71273 1.507372,21.51287 1.86791,4.3909 4.869222,8.50964 8.080083,11.0884 0.808277,0.64916 3.268841,2.36572 3.769291,2.62957 0.164935,0.087 0.267351,0.0317 0.994186,-0.53648 2.403638,-1.8789 5.636213,-3.66681 8.651653,-4.78516 1.02689,-0.38086 2.88678,-0.95055 2.93754,-0.89979 0.0184,0.0184 -0.36973,0.3732 -0.86269,0.78828 -1.74217,1.46693 -3.52813,3.35735 -4.96779,5.25839 -0.57601,0.76059 -1.891324,2.70813 -1.891324,2.80042 0,0.12259 2.753154,1.20997 3.828714,1.51218 2.75168,0.77316 5.5359,1.09763 8.74999,1.01967 2.58362,-0.0627 4.63679,-0.31928 6.76243,-0.84523 0.47737,-0.11812 0.88199,-0.20069 0.89919,-0.18351 0.0172,0.0172 -0.29855,0.27566 -0.70162,0.57437 z"
       id="path29592" />
  </g>
</svg>
