<?xml version="1.0" encoding="UTF-8" standalone="no"?>
<!-- Created with Inkscape (http://www.inkscape.org/) -->

<svg
   width="210mm"
   height="297mm"
   viewBox="0 0 210 297"
   version="1.1"
   id="svg1285"
   inkscape:version="1.1.2 (0a00cf5339, 2022-02-04)"
   sodipodi:docname="equality-et-lgbtqp.svg"
   xmlns:inkscape="http://www.inkscape.org/namespaces/inkscape"
   xmlns:sodipodi="http://sodipodi.sourceforge.net/DTD/sodipodi-0.dtd"
   xmlns="http://www.w3.org/2000/svg"
   xmlns:svg="http://www.w3.org/2000/svg">
  <sodipodi:namedview
     id="namedview1287"
     pagecolor="#ffffff"
     bordercolor="#666666"
     borderopacity="1.0"
     inkscape:pageshadow="2"
     inkscape:pageopacity="0.0"
     inkscape:pagecheckerboard="0"
     inkscape:document-units="mm"
     showgrid="false"
     inkscape:zoom="0.22404952"
     inkscape:cx="1372.4644"
     inkscape:cy="490.96288"
     inkscape:window-width="1366"
     inkscape:window-height="687"
     inkscape:window-x="0"
     inkscape:window-y="0"
     inkscape:window-maximized="1"
     inkscape:current-layer="layer1" />
  <defs
     id="defs1282">
    <rect
       x="338.04034"
       y="436.6752"
       width="597.20935"
       height="362.76846"
       id="rect19608" />
    <rect
       x="-201.77011"
       y="272.3212"
       width="187.29858"
       height="174.60657"
       id="rect11221" />
  </defs>
  <g
     inkscape:label="Слой 1"
     inkscape:groupmode="layer"
     id="layer1">
    <g
       id="g23830"
       transform="rotate(-90,149.52996,147.47004)">
      <path
         id="path18241"
         style="fill:#808080;stroke:#000000;stroke-width:0.5;stroke-linecap:round;stroke-linejoin:round;stroke-miterlimit:4;stroke-dasharray:none;stroke-opacity:1;paint-order:markers fill stroke"
         d="m 234.42082,26.290901 c -0.64399,-0.0019 -1.30405,0.07448 -1.96939,0.234093 -2.21652,0.531741 -4.87256,3.058255 -5.43429,5.169194 -0.99412,3.735784 0.90791,7.761187 4.38475,9.280054 1.33596,0.583657 4.47077,0.555654 5.92935,-0.05271 4.09386,-1.707491 5.79391,-6.553263 3.70778,-10.568863 -1.33633,-2.572274 -3.82755,-4.05339 -6.6182,-4.061767 z m 24.00112,0 c -0.64399,-0.0019 -1.30353,0.07448 -1.96887,0.234093 -2.21652,0.531741 -4.87256,3.058255 -5.43429,5.169194 -0.99412,3.735784 0.9079,7.761187 4.38474,9.280054 1.33595,0.583657 4.47077,0.555654 5.92935,-0.05271 4.09387,-1.707491 5.79392,-6.553263 3.70779,-10.568863 -1.33631,-2.572274 -3.82807,-4.05339 -6.61872,-4.061767 z m -219.993278,5.16e-4 c -1.579055,0.01508 -3.173077,0.552572 -4.590937,1.634009 -4.925856,3.757078 -3.403552,11.756204 2.551266,13.404865 7.254637,2.008542 12.815668,-6.532705 7.952486,-12.21424 -1.613646,-1.885183 -3.748926,-2.845295 -5.912815,-2.824634 z m 24.800551,0 c -1.579054,0.01508 -3.173592,0.552572 -4.591449,1.634009 -4.925862,3.757078 -3.403039,11.756204 2.551782,13.404865 7.254634,2.008542 12.815667,-6.532705 7.952486,-12.21424 -1.613649,-1.885183 -3.748929,-2.845295 -5.912819,-2.824634 z m 73.044627,0 c -1.57905,0.01508 -3.17359,0.552572 -4.59145,1.634009 -4.92586,3.757078 -3.40302,11.756204 2.55179,13.404865 7.25464,2.008542 12.81566,-6.532705 7.95248,-12.21424 -1.61364,-1.885183 -3.74893,-2.845295 -5.91282,-2.824634 z m 25.23567,0.02997 c -0.64399,-0.0019 -1.30405,0.07448 -1.96939,0.234096 -2.21653,0.531733 -4.87256,3.058252 -5.43429,5.169193 -0.99412,3.735782 0.9079,7.760669 4.38475,9.279536 1.33596,0.583657 4.47129,0.55617 5.92987,-0.05219 4.09385,-1.707494 5.79392,-6.553263 3.70778,-10.568866 -1.33633,-2.572271 -3.82807,-4.05339 -6.61872,-4.061767 z M 87.542458,42.019655 v 7.097242 h 24.740602 v -7.097242 z m 98.019332,0 v 7.097758 H 210.3024 V 42.019655 Z M 38.442613,46.633846 c -14.378249,0 -14.60996,0.02155 -14.60996,1.350822 0,0.772972 12.804062,27.989199 13.643612,29.000812 0.425855,0.513112 1.217641,0.590918 1.860867,0.182936 0.232524,-0.147487 1.416884,-2.371066 2.631882,-4.9413 1.215009,-2.570226 4.272775,-9.033187 6.794415,-14.362433 0.791687,-1.673151 1.501199,-3.183392 2.152841,-4.574397 3.718181,8.167185 10.745298,22.953853 11.360547,23.695194 0.425857,0.513112 1.217641,0.590918 1.86087,0.182936 0.232521,-0.147487 1.41688,-2.371066 2.631879,-4.9413 1.215011,-2.570226 4.272259,-9.033187 6.793902,-14.362433 2.521643,-5.329256 4.584732,-9.769517 4.584732,-9.867098 0,-0.09759 -0.241163,-0.444267 -0.536401,-0.770496 -0.504042,-0.55699 -1.380606,-0.593243 -14.368632,-0.593243 -6.517658,0 -10.122672,0.0047 -12.122774,0.133323 -1.665634,-0.120509 -5.108239,-0.133323 -12.67778,-0.133323 z m 97.845187,0 c -14.37826,0 -14.61048,0.02155 -14.61048,1.350822 0,0.772972 12.80406,27.989199 13.64361,29.000812 0.42585,0.513112 1.21817,0.590918 1.86139,0.182936 0.23253,-0.147487 1.41688,-2.371066 2.63188,-4.9413 1.21501,-2.570226 4.27225,-9.033187 6.7939,-14.362433 2.52164,-5.329256 4.58473,-9.769517 4.58473,-9.867098 0,-0.09759 -0.24167,-0.444267 -0.53692,-0.770496 -0.50403,-0.55699 -1.38009,-0.593243 -14.36811,-0.593243 z m 98.03122,0.01654 c -0.29591,0.002 -0.58281,0.06058 -0.75137,0.166915 -0.26972,0.170127 -2.66177,4.898676 -5.31596,10.507885 -2.65418,5.609219 -5.48915,11.585104 -6.29987,13.27981 -2.50016,5.226148 -2.56337,5.432314 -1.89188,6.174298 0.55567,0.61399 1.07059,0.637173 14.1702,0.637173 5.27268,0 9.17858,-0.04428 11.56208,-0.126093 1.63832,0.118168 5.01651,0.126093 12.43955,0.126093 8.75013,0 13.81701,-0.119777 14.22084,-0.3359 0.34507,-0.184663 0.62736,-0.626223 0.62736,-0.981334 0,-0.607787 -1.52001,-3.962913 -7.1913,-15.872933 -1.31667,-2.765039 -3.2659,-6.892131 -4.33152,-9.171017 -1.54164,-3.296906 -2.09651,-4.184806 -2.71714,-4.345469 -0.42898,-0.111077 -1.00103,-0.06264 -1.27073,0.107487 -0.26972,0.170127 -2.66176,4.898676 -5.31595,10.507885 -2.42743,5.130011 -4.83668,10.208231 -5.87975,12.396142 -1.07814,-2.315144 -2.51899,-5.363046 -4.48655,-9.495028 -1.31665,-2.765039 -3.26589,-6.892131 -4.33151,-9.171017 -1.54164,-3.296906 -2.09651,-4.184806 -2.71715,-4.345469 -0.16087,-0.04165 -0.3418,-0.06063 -0.51935,-0.05943 z m -72.91131,0.02997 c -0.29592,0.002 -0.58229,0.0611 -0.75086,0.167431 -0.26971,0.170127 -2.66229,4.898676 -5.31647,10.507885 -2.65419,5.609222 -5.48864,11.585104 -6.29936,13.27981 -2.50016,5.226148 -2.56336,5.431801 -1.89187,6.173782 v 5.19e-4 c 0.55567,0.613989 1.07058,0.637169 14.17019,0.637169 8.75014,0 13.81701,-0.119774 14.22084,-0.335896 0.34505,-0.184666 0.62735,-0.626224 0.62735,-0.981334 0,-0.607788 -1.52,-3.963432 -7.19129,-15.873452 -1.31666,-2.765039 -3.2659,-6.891615 -4.33152,-9.170498 -1.54164,-3.29691 -2.09702,-4.184809 -2.71766,-4.345472 -0.16087,-0.04165 -0.3418,-0.06114 -0.51935,-0.05994 z m -73.865252,9.5343 v 7.09724 h 24.740602 v -7.097242 z m 98.019332,0 v 7.097242 h 24.74061 v -7.097242 z" />
      <path
         id="path23200"
         style="font-weight:bold;font-size:40px;line-height:1.25;font-family:Roboto;-inkscape-font-specification:'Roboto Bold';white-space:pre;fill:#808080;stroke:#000000;stroke-width:0.5;stroke-linecap:round;stroke-linejoin:round;stroke-miterlimit:4;stroke-dasharray:none;stroke-opacity:1;paint-order:markers fill stroke"
         d="M 273.08065,162.29607 H 261.003 v 13.68354 h -9.16697 v -13.68354 h -12.14458 v -8.73205 h 12.14458 v -13.04787 h 9.16697 v 13.04787 h 12.07765 z m -46.77164,18.56813 -12.54604,-19.93983 h -5.75444 v 19.93983 h -10.0703 v -48.71209 h 10.0703 v 19.50491 h 4.58348 l 11.91037,-19.50491 h 12.24494 l -15.02179,23.0178 16.59422,25.69429 z m -73.80418,-40.58225 v -8.12984 h 39.6455 v 8.12984 h -14.88797 v 40.58225 h -10.03684 v -40.58225 z m -39.17711,-8.1298 v 48.71227 h 10.13736 v -8.09666 -14.98824 -8.09666 -9.40097 h 5.11907 16.66048 v -8.12974 z m 15.25643,17.53071 v 8.09666 h 2.91042 c 2.83261,0 4.94027,0.70273 6.32313,2.10789 1.38284,1.38285 2.07429,3.10017 2.07429,5.15214 0,2.11889 -0.69145,3.93673 -2.07429,5.45341 -1.38286,1.51667 -3.49052,2.2748 -6.32313,2.2748 h -2.91042 v 8.09666 h 2.91042 c 5.70984,0 10.21497,-1.46137 13.51597,-4.3832 3.30101,-2.92183 4.95163,-6.71345 4.95163,-11.37501 0,-4.61693 -1.61729,-8.31932 -4.85138,-11.10733 -3.23409,-2.8103 -7.63867,-4.2491 -13.2147,-4.31602 z m -21.37888,-17.53075 v 8.12984 H 85.358437 V 180.8642 H 75.288142 v -48.71209 z m -73.402701,0 H 66.422276 V 180.8642 H 56.385435 V 140.28195 H 43.404474 l -0.869855,17.79864 q -0.802946,12.78024 -4.483122,17.73174 -3.680176,4.95151 -11.408539,5.05187 h -2.810305 v -8.09637 l 1.371698,-0.13378 q 3.847446,-0.36803 5.520247,-4.08166 1.706273,-3.71363 2.208116,-13.38244 z" />
      <path
         style="fill:#808080;stroke:#000000;stroke-width:0.5;stroke-linecap:round;stroke-linejoin:round;stroke-miterlimit:4;stroke-dasharray:0.5, 1;stroke-dashoffset:0;stroke-opacity:1;paint-order:markers fill stroke"
         d="M 0,105.25497 H 297"
         id="path23423" />
    </g>
  </g>
</svg>
