<?xml version="1.0" encoding="UTF-8" standalone="no"?>
<!-- Created with Inkscape (http://www.inkscape.org/) -->

<svg
   width="210mm"
   height="297mm"
   viewBox="0 0 210 297"
   version="1.1"
   id="svg23691"
   inkscape:version="1.1.2 (0a00cf5339, 2022-02-04)"
   sodipodi:docname="2man.svg"
   xmlns:inkscape="http://www.inkscape.org/namespaces/inkscape"
   xmlns:sodipodi="http://sodipodi.sourceforge.net/DTD/sodipodi-0.dtd"
   xmlns="http://www.w3.org/2000/svg"
   xmlns:svg="http://www.w3.org/2000/svg">
  <sodipodi:namedview
     id="namedview23693"
     pagecolor="#ffffff"
     bordercolor="#666666"
     borderopacity="1.0"
     inkscape:pageshadow="2"
     inkscape:pageopacity="0.0"
     inkscape:pagecheckerboard="0"
     inkscape:document-units="mm"
     showgrid="false"
     inkscape:zoom="0.44809905"
     inkscape:cx="351.48479"
     inkscape:cy="544.52247"
     inkscape:window-width="1366"
     inkscape:window-height="687"
     inkscape:window-x="0"
     inkscape:window-y="0"
     inkscape:window-maximized="1"
     inkscape:current-layer="layer1" />
  <defs
     id="defs23688" />
  <g
     inkscape:label="Слой 1"
     inkscape:groupmode="layer"
     id="layer1">
    <path
       id="path1863"
       style="fill:#808080;stroke:#000000;stroke-width:0.5;stroke-linecap:round;stroke-linejoin:round;stroke-miterlimit:4;stroke-dasharray:none;stroke-dashoffset:0;stroke-opacity:1;paint-order:markers fill stroke"
       d="m 103.69426,73.716739 c -3.11558,-2.56568 -4.180565,-3.46183 -5.909035,-4.972147 C 89.93093,61.881505 87.312087,58.205268 86.891326,53.452181 c -0.200716,-2.26742 0.137276,-4.17949 1.062653,-6.011457 2.20269,-4.360687 7.035709,-6.066187 11.978237,-5.318767 1.939884,0.29336 4.091394,1.826947 5.829524,3.700277 l 0.60251,0.64938 0.95004,-0.95712 c 1.93966,-1.95411 3.63793,-2.971707 5.7596,-3.451117 4.80275,-1.08522 9.54882,1.08821 11.72962,5.371477 0.92252,1.811897 1.27736,3.844157 1.06043,6.073407 -0.51702,5.313077 -3.6378,9.249974 -14.53254,18.332928 -2.62906,2.19183 -4.90635,4.057347 -4.95346,4.057767 -0.0184,1.9e-4 -1.22601,-0.981827 -2.68368,-2.182217 z m 42.86252,4.351847 c -2.03873,0.0927 -3.53898,0.472122 -5.27762,1.334987 -2.55139,1.26622 -4.56049,3.279881 -5.83459,5.848298 -0.84912,1.711731 -1.23928,3.125441 -1.3814,5.003103 -0.2849,3.76386 1.04579,7.321997 3.75034,10.026536 2.03325,2.03325 4.22319,3.15663 7.24738,3.71719 0.92741,0.1719 3.57718,0.10808 4.59377,-0.11051 3.46906,-0.74595 6.39071,-2.69354 8.2862,-5.52384 2.65354,-3.962225 2.88808,-9.091321 0.61312,-13.405998 -0.52319,-0.992248 -0.86225,-1.492011 -1.64044,-2.417562 -2.49038,-2.961939 -6.40429,-4.651904 -10.35676,-4.472204 z m -81.835968,0.02299 c -4.6713,0.144765 -9.093514,2.783939 -11.29345,7.261971 -2.428051,4.942383 -1.532224,10.74779 2.282296,14.791383 2.152635,2.2819 5.205226,3.73542 8.329074,3.96605 4.346349,0.32088 8.450223,-1.4232 11.264716,-4.787822 0.786396,-0.940095 1.72757,-2.596477 2.157196,-3.796312 1.547268,-4.321058 0.503649,-9.620605 -2.573163,-13.066064 -1.152561,-1.290657 -2.349247,-2.215543 -3.827696,-2.959072 -2.040797,-1.026341 -4.215654,-1.475934 -6.338973,-1.410134 z m 99.343978,31.513434 c -1.02103,-0.003 -2.078,0.003 -3.11195,0.0191 l -0.17312,0.003 -14.31282,38.46328 -13.7976,-38.44002 c -0.8792,3e-5 -1.869,0.002 -2.97967,0.008 -1.37689,0.007 -1.72627,0.0172 -2.50682,0.0248 v 22.40431 c 0.003,0.0176 0.0126,0.0335 0.015,0.0512 0.0173,0.12923 0.0372,22.44942 0.0548,42.73848 h 39.63996 c 0.003,-29.18229 0.0126,-41.31399 0.0889,-42.53177 h -0.0202 v -22.70937 c -0.89023,-0.0172 -1.87543,-0.0284 -2.89646,-0.031 z m -24.26764,-1.51634 c -0.12495,0.004 -0.22967,0.0448 -0.35088,0.10749 -0.50729,0.26231 -0.51035,0.28178 -0.53537,3.72691 -0.0254,3.49382 -0.005,3.66731 0.44029,3.96771 v 5.3e-4 c 0.3343,0.2253 0.73356,0.22213 1.1684,-0.009 0.18881,-0.10041 0.8583,-0.52008 1.48776,-0.93277 1.39152,-0.91228 2.40588,-1.53208 2.61897,-1.60041 l 0.001,-5.3e-4 1.83762,-1.25057 -1.8588,-1.26711 -2.14561,-1.34462 c -1.73135,-1.08492 -2.28856,-1.40923 -2.6634,-1.39785 z m 6.66781,4.00958 1.78181,1.21491 c 0.16563,0.0484 0.6126,0.3252 2.38486,1.46244 1.82866,1.17342 2.04886,1.2883 2.47014,1.2883 0.39788,0 0.65117,-0.16044 0.7953,-0.5054 0.1582,-0.37866 0.15636,-6.58894 -0.002,-6.96805 -0.16328,-0.39078 -0.42923,-0.5324 -0.8971,-0.47697 -0.4593,0.0544 -0.50573,0.08 -2.84686,1.56838 l -1.82056,1.15704 z m -88.614746,-4.00873 c -0.12495,0.004 -0.229674,0.0448 -0.350883,0.10749 -0.507288,0.26231 -0.510347,0.28178 -0.535366,3.72691 -0.02538,3.49382 -0.0055,3.66731 0.440283,3.96771 v 5.2e-4 c 0.334301,0.2253 0.733565,0.22213 1.168403,-0.009 0.188806,-0.10041 0.8583,-0.52009 1.487765,-0.93277 1.391512,-0.91228 2.405877,-1.53208 2.618962,-1.60041 l 0.001,-5.2e-4 1.837616,-1.25057 -1.858801,-1.26711 -2.145607,-1.34462 c -1.731357,-1.08492 -2.288558,-1.40923 -2.663404,-1.39785 z m 6.667812,4.00958 1.781802,1.21491 c 0.165632,0.0484 0.612608,0.3252 2.384867,1.46244 1.828657,1.17342 2.048856,1.2883 2.470134,1.2883 0.39788,0 0.651171,-0.16044 0.7953,-0.5054 0.158203,-0.37866 0.156364,-6.58894 -0.0021,-6.96805 -0.163277,-0.39078 -0.429234,-0.5324 -0.897104,-0.47697 -0.459293,0.0544 -0.505727,0.08 -2.846853,1.56838 l -1.820561,1.15704 z m 17.59944,-2.49338 c -1.021035,-0.003 -2.078003,0.003 -3.111952,0.0191 l -0.173117,0.003 -14.312821,38.46328 -13.797608,-38.44003 c -0.879199,3e-5 -1.868992,0.002 -2.979663,0.008 -1.376889,0.007 -1.726277,0.0172 -2.506824,0.0248 v 22.40432 c 0.003,0.0176 0.01261,0.0335 0.01499,0.0512 0.01725,0.12923 0.03718,22.44941 0.05478,42.73847 H 84.9452 c 0.0032,-29.18229 0.01258,-41.31399 0.08889,-42.53177 H 85.01394 V 109.6374 c -0.89023,-0.0172 -1.87543,-0.0284 -2.896465,-0.031 z m 40.739774,0.13652 c -1.29838,0.13191 -2.08806,0.37934 -3.23756,0.93626 -2.19625,1.06407 -3.91659,2.74655 -4.98896,4.87933 -0.57877,1.1511 -0.92576,2.33216 -2.33578,7.95687 -0.42763,1.70586 -1.1162,4.41539 -1.53037,6.0207 -0.41418,1.60533 -1.24356,4.83386 -1.8429,7.17489 -1.98215,7.74232 -2.67742,10.35365 -2.75706,10.35365 -0.0986,0 -0.72158,-2.08077 -1.3089,-4.37141 -0.92733,-3.61672 -1.69559,-6.60682 -2.33534,-9.08808 -0.3154,-1.22323 -0.77818,-3.01799 -1.02821,-3.98815 -0.25002,-0.97016 -0.66659,-2.57476 -0.92609,-3.56601 -0.25948,-0.99124 -0.640025,-2.45823 -0.845196,-3.25966 -1.498016,-5.85122 -1.552882,-6.03174 -2.226597,-7.31148 -0.547428,-1.03984 -1.155832,-1.85845 -2.031654,-2.73407 -1.50032,-1.49996 -3.246937,-2.4506 -5.367352,-2.92106 -0.106737,-0.0237 -0.448726,-0.0422 -0.701087,-0.0628 v 22.40036 c 0.31086,0.88175 0.876358,2.85951 2.467071,8.49882 0.535415,1.89813 1.536234,5.43556 2.224386,7.86095 0.688142,2.42538 1.481254,5.22086 1.762006,6.2121 0.280752,0.99125 1.389054,4.89074 2.463092,8.66592 1.074037,3.77516 2.060011,7.24357 2.190791,7.70755 0.27935,0.99101 0.49486,1.50763 0.83989,2.01088 1.09014,1.59004 2.78633,2.46987 4.76749,2.47414 2.10341,0.004 4.08754,-1.19341 5.06809,-3.05941 0.27619,-0.52558 0.52266,-1.33842 1.73592,-5.72011 0.38543,-1.39196 0.89076,-3.20409 1.12281,-4.02662 0.85304,-3.02377 1.42883,-5.05495 1.79338,-6.32703 0.20549,-0.71708 0.51073,-1.80418 0.67855,-2.4158 0.16782,-0.61162 0.54551,-1.95748 0.83901,-2.9909 0.59785,-2.10508 1.97405,-6.98512 2.11962,-7.5157 0.45075,-1.64285 1.97102,-6.92009 2.61781,-9.08807 0.37085,-1.24309 0.59846,-1.92955 0.77314,-2.39767 z m -82.002174,0.0119 c -0.237421,0.025 -0.421784,0.0563 -0.622848,0.10167 -3.502725,0.79099 -6.042648,2.73063 -7.586874,5.79393 -0.728278,1.44468 -0.799637,1.75257 -3.399793,14.65699 -0.815914,4.04934 -1.794435,8.88097 -2.174436,10.73692 -0.380001,1.85594 -1.160644,5.66949 -1.73504,8.47451 -0.574395,2.805 -1.368972,6.68715 -1.765539,8.62745 -0.396574,1.94032 -1.073168,5.20208 -1.503407,7.24782 -0.750727,3.56973 -0.782213,3.75938 -0.789056,4.71622 -0.0083,1.16472 0.148059,1.80827 0.644064,2.6461 1.176281,1.9869 3.306134,3.0737 5.541517,2.82779 2.395599,-0.26354 4.313082,-1.87539 4.881981,-4.10354 0.21548,-0.84394 1.143679,-5.09938 2.08028,-9.53808 0.298171,-1.41305 0.886418,-4.19116 1.307579,-6.17364 0.970222,-4.56697 1.240367,-5.84001 1.911859,-9.01116 2.082478,-9.83453 2.811594,-13.31094 3.217669,-14.63667 h -0.008 z m 130.463944,10e-4 v 22.31061 c 0.24115,0.72667 0.59564,2.36965 1.67315,7.48211 1.13899,5.40402 2.60954,12.29919 3.72117,17.44765 0.35518,1.64504 1.20123,5.59199 1.88002,8.77112 0.67882,3.17913 1.30177,5.96023 1.38406,6.18028 0.60721,1.62292 2.11661,2.98869 3.82902,3.46433 0.69112,0.1916 2.29569,0.19229 2.9909,8.6e-4 1.59698,-0.43966 2.92018,-1.51482 3.61198,-2.9352 0.37229,-0.76436 0.52654,-1.45892 0.52825,-2.37911 0.002,-0.73423 0.0267,-0.59545 -1.2342,-6.73725 -0.29442,-1.43415 -0.77307,-3.78114 -1.06401,-5.21529 -0.51664,-2.54668 -1.8093,-8.89493 -2.6545,-13.03778 -0.23235,-1.13888 -0.64353,-3.15764 -0.91371,-4.48634 -0.27018,-1.32869 -0.73577,-3.60622 -1.03484,-5.06146 -0.29909,-1.45523 -0.64316,-3.14667 -0.76475,-3.75829 -0.12159,-0.61161 -0.51545,-2.544 -0.87481,-4.2945 -0.35936,-1.75049 -0.89395,-4.35624 -1.18823,-5.79039 -0.92527,-4.50924 -1.02913,-4.88252 -1.73504,-6.23509 -0.57353,-1.09895 -1.15999,-1.88271 -2.0732,-2.7712 -1.50198,-1.46133 -3.19159,-2.36042 -5.36603,-2.85563 -0.19582,-0.0446 -0.4178,-0.0747 -0.71523,-0.0995 z M 45.310914,179.56377 c 0.0038,5.00264 0.0098,4.50722 0.01281,9.94919 0.03097,56.32754 0.03327,57.0678 0.181681,57.74919 0.187139,0.85915 0.520635,1.72473 0.9283,2.41093 0.402227,0.67704 1.3367,1.67171 2.112992,2.2487 1.100791,0.81818 2.800675,1.53182 4.14553,1.74079 v 8.5e-4 c 0.625421,0.0972 2.181392,0.0411 2.837508,-0.10212 1.637113,-0.35749 3.195934,-1.20694 4.432859,-2.41535 1.221041,-1.1929 1.905901,-2.5171 2.246491,-4.34356 0.119196,-0.63916 0.129436,-3.24067 0.137478,-35.16318 l 0.0084,-32.07546 z m 22.568776,0 0.03758,32.34379 c 0.03672,31.86946 0.05034,34.78281 0.165768,35.24009 0.428827,1.6989 1.186146,3.04221 2.337108,4.14554 2.31091,2.21523 5.619442,2.93265 8.804721,1.9092 3.165388,-1.01707 5.323842,-3.65628 5.640976,-6.89816 0.04316,-0.4412 0.07218,-23.07547 0.07338,-57.38229 1.88e-4,-5.33687 0.0037,-4.97906 0.004,-9.35817 z m 59.37461,0 0.003,9.66539 c 0.0186,53.19429 0.0288,57.1523 0.14897,57.68598 0.40832,1.81348 1.10797,3.12021 2.28804,4.27372 0.6196,0.60566 0.94387,0.85512 1.63823,1.25984 5.02158,2.92686 11.1478,0.48021 12.68104,-5.06455 l 0.20335,-0.73556 0.0385,-34.74146 0.0358,-32.34336 z m 22.53385,0 c 0.044,2.64096 0.0669,10.84066 0.0677,31.98308 8.5e-4,21.08403 0.0291,34.21293 0.0747,34.64157 0.34112,3.20688 2.22646,5.65074 5.30148,6.87119 2.34706,0.93155 4.94768,0.81502 7.12228,-0.31872 2.18662,-1.14001 3.74015,-3.16743 4.3449,-5.67015 0.13333,-0.55191 0.14062,-2.89021 0.17903,-57.78765 0.003,-4.94384 0.008,-5.5586 0.011,-9.71932 z" />
  </g>
</svg>
