<?xml version="1.0" encoding="UTF-8"?>
<svg xmlns="http://www.w3.org/2000/svg" width="1052pt" height="744pt" viewBox="0 0 1052 744" version="1.1">
<path style="fill:rgb(0%,0%,0%);" d="M 841.496094 54.40625 C 822.742188 55.875 807.183594 63.40625 794.855469 77.089844 C 781.046875 92.335938 774.140625 113.246094 774.140625 139.828125 L 774.140625 147.609375 C 774.140625 174.191406 781.085938 195.105469 794.972656 210.351562 C 807.320312 223.902344 822.839844 231.398438 841.496094 232.902344 L 841.496094 202.984375 C 832.761719 201.417969 825.738281 196.882812 820.476562 189.277344 C 813.851562 179.617188 810.539062 165.730469 810.539062 147.609375 L 810.539062 138.988281 C 810.621094 120.949219 813.929688 107.261719 820.476562 97.921875 C 825.710938 90.390625 832.738281 85.921875 841.496094 84.414062 Z M 855.804688 54.433594 L 855.804688 84.507812 C 864.324219 86.121094 871.203125 90.601562 876.390625 98.042969 C 883.015625 107.539062 886.328125 121.390625 886.328125 139.589844 L 886.328125 148.210938 C 886.25 166.167969 882.9375 179.898438 876.390625 189.398438 C 871.28125 196.902344 864.402344 201.394531 855.804688 202.96875 L 855.804688 232.898438 C 874.410156 231.378906 889.824219 223.886719 902.011719 210.351562 C 915.820312 195.105469 922.726562 174.191406 922.726562 147.609375 L 922.726562 139.828125 C 922.726562 113.246094 915.78125 92.335938 901.894531 77.089844 C 889.6875 63.539062 874.3125 56.003906 855.804688 54.433594 Z M 147.585938 56.496094 L 147.585938 230.824219 L 183.625 230.824219 L 183.625 85.589844 L 253.429688 85.589844 L 253.429688 230.824219 L 289.46875 230.824219 L 289.46875 56.496094 Z M 320.835938 56.496094 L 320.835938 230.824219 L 356.875 230.824219 L 356.875 56.496094 Z M 371.1875 56.496094 L 371.1875 85.589844 L 388.964844 85.589844 C 399.261719 85.589844 406.683594 88.503906 411.234375 94.332031 C 415.785156 100.078125 418.058594 106.742188 418.058594 114.324219 C 418.058594 121.90625 415.785156 128.136719 411.234375 133.003906 C 406.683594 137.875 399.261719 140.308594 388.964844 140.308594 L 371.1875 140.308594 L 371.1875 169.28125 L 388.964844 169.28125 C 409.558594 169.28125 425.601562 164.292969 437.097656 154.316406 C 448.671875 144.339844 454.457031 130.929688 454.457031 114.085938 C 454.457031 97.40625 448.671875 83.632812 437.097656 72.777344 C 425.601562 61.921875 409.558594 56.496094 388.964844 56.496094 Z M 509.402344 56.496094 L 524.539062 101.277344 L 524.859375 100.316406 L 546.652344 165.808594 L 546.347656 165.808594 L 556.183594 194.90625 L 556.347656 194.90625 L 568.324219 230.824219 L 606.636719 230.824219 L 541.382812 56.496094 Z M 622.917969 56.496094 L 622.917969 230.824219 L 658.957031 230.824219 L 658.957031 56.496094 Z M 673.269531 56.496094 L 673.269531 85.589844 L 685.300781 85.589844 C 703.5 85.910156 712.597656 93.332031 712.597656 107.859375 C 712.597656 122.226562 703.101562 129.410156 684.101562 129.410156 L 673.269531 129.410156 L 673.269531 154.792969 L 692.84375 154.792969 C 708.648438 155.351562 716.550781 163.453125 716.550781 179.101562 C 716.550781 185.644531 714.355469 191.074219 709.964844 195.382812 C 705.574219 199.695312 698.789062 201.847656 689.609375 201.847656 L 673.269531 201.847656 L 673.269531 230.824219 L 690.6875 230.824219 C 710.480469 230.664062 725.730469 226.273438 736.425781 217.652344 C 747.121094 208.953125 752.46875 196.222656 752.46875 179.457031 C 752.46875 171.078125 750.234375 163.214844 745.765625 155.871094 C 741.292969 148.527344 733.949219 143.578125 723.734375 141.023438 C 732.355469 137.59375 738.660156 132.5625 742.652344 125.9375 C 746.640625 119.3125 748.636719 112.050781 748.636719 104.148438 C 748.636719 87.863281 742.929688 75.851562 731.515625 68.109375 C 720.101562 60.367188 704.296875 56.496094 684.101562 56.496094 Z M 500.863281 75.921875 L 443.203125 230.824219 L 481.277344 230.824219 L 493.25 194.90625 L 541.078125 194.90625 L 531.242188 165.808594 L 502.949219 165.808594 L 517.023438 123.738281 Z M 209.136719 287.511719 L 208.023438 288.925781 C 206.917969 290.332031 206.910156 290.574219 206.910156 339.945312 L 206.910156 389.550781 L 208.230469 390.867188 C 209.535156 392.175781 209.628906 392.1875 219.804688 392.1875 C 229.800781 392.1875 231.769531 391.910156 232.804688 390.363281 C 233.019531 390.039062 233.203125 376.847656 233.207031 361.054688 L 233.210938 332.335938 L 255.757812 354.878906 L 278.304688 377.417969 L 265.332031 390.398438 C 253.824219 401.914062 252.359375 403.570312 252.359375 405.085938 C 252.359375 406.574219 253.367188 407.800781 260.132812 414.523438 C 265.78125 420.132812 268.261719 422.25 269.191406 422.25 C 270.148438 422.25 273.8125 418.914062 283.65625 409.101562 L 296.84375 395.953125 L 307.359375 406.550781 L 317.878906 417.148438 L 313.707031 423.265625 C 304.519531 436.742188 298.769531 451.613281 296.253906 468.40625 C 295.132812 475.886719 295.144531 490.421875 296.28125 498.386719 C 297.789062 508.96875 301.019531 519.046875 305.445312 528.515625 L 328.132812 515.414062 C 325.589844 509.605469 323.632812 503.546875 322.496094 497.398438 C 321.214844 490.429688 321.21875 475.90625 322.507812 469.214844 C 325.871094 451.789062 332.953125 438.386719 345.371094 425.964844 C 357.371094 413.960938 369.976562 407.042969 386.640625 403.320312 C 389.5625 402.667969 392.367188 402.429688 396.160156 402.304688 L 396.160156 376.1875 C 393.40625 376.304688 390.117188 376.3125 388.351562 376.558594 C 370.886719 378.996094 352.488281 386.539062 338.664062 396.933594 L 336.484375 398.570312 L 325.914062 387.992188 L 315.347656 377.414062 L 328.496094 364.273438 C 338.648438 354.125 341.648438 350.824219 341.648438 349.789062 C 341.648438 347.875 326.414062 332.601562 324.503906 332.601562 C 323.492188 332.601562 320.074219 335.695312 309.992188 345.746094 L 296.8125 358.894531 L 274.273438 336.355469 L 251.738281 313.8125 L 280.488281 313.8125 C 308.679688 313.8125 309.261719 313.792969 310.414062 312.71875 C 311.546875 311.660156 311.585938 311.25 311.585938 300.640625 C 311.585938 290.375 311.519531 289.589844 310.515625 288.585938 C 309.457031 287.53125 308.726562 287.511719 259.289062 287.511719 Z M 546.398438 287.511719 C 496.964844 287.511719 496.230469 287.527344 495.171875 288.585938 C 494.171875 289.589844 494.101562 290.375 494.101562 300.664062 C 494.101562 310.949219 494.171875 311.738281 495.171875 312.742188 C 496.21875 313.789062 496.964844 313.8125 525.097656 313.8125 L 553.949219 313.8125 L 511.574219 356.191406 L 469.203125 398.566406 L 466.753906 396.777344 C 452.082031 386.042969 434.886719 379.007812 417.339844 376.558594 C 415.785156 376.34375 412.820312 376.347656 410.46875 376.234375 L 410.46875 402.320312 C 413.773438 402.464844 416.328125 402.714844 419.042969 403.320312 C 444.496094 409.003906 464.957031 424.9375 476.105469 447.746094 C 481.777344 459.351562 484.105469 469.644531 484.117188 483.171875 C 484.128906 493.941406 483.273438 499.417969 480.101562 508.914062 C 479.589844 510.445312 478.941406 511.855469 478.359375 513.324219 L 501.21875 526.523438 C 507.375 512.648438 510.277344 499.140625 510.28125 483.171875 C 510.289062 460.683594 503.996094 440.542969 491.144531 421.925781 L 487.773438 417.035156 L 530.125 374.6875 L 572.476562 332.335938 L 572.480469 361.054688 C 572.484375 376.847656 572.667969 390.039062 572.882812 390.363281 C 573.917969 391.910156 575.890625 392.1875 585.882812 392.1875 C 596.058594 392.1875 596.152344 392.175781 597.460938 390.867188 L 598.777344 389.550781 L 598.777344 339.945312 C 598.777344 290.574219 598.773438 290.332031 597.664062 288.925781 L 596.550781 287.511719 Z M 640.144531 287.511719 L 640.144531 363.480469 L 655.953125 363.480469 L 655.953125 300.191406 L 689.917969 300.191406 L 689.917969 287.511719 Z M 707.449219 287.511719 L 707.449219 363.480469 L 723.15625 363.480469 L 723.15625 287.511719 Z M 771 287.511719 L 771 363.480469 L 786.652344 363.480469 L 786.652344 287.511719 Z M 794.21875 287.511719 L 794.21875 300.191406 L 817.175781 300.191406 L 817.175781 363.480469 L 832.828125 363.480469 L 832.828125 300.191406 L 856.046875 300.191406 L 856.046875 287.511719 Z M 865.699219 287.511719 L 865.699219 363.480469 L 881.402344 363.480469 L 881.402344 287.511719 Z M 661.671875 314.851562 L 661.671875 327.476562 L 668.476562 327.476562 C 672.890625 327.476562 676.179688 328.570312 678.335938 330.761719 C 680.492188 332.921875 681.570312 335.597656 681.570312 338.800781 C 681.570312 342.101562 680.492188 344.9375 678.335938 347.304688 C 676.179688 349.667969 672.890625 350.851562 668.476562 350.851562 L 661.671875 350.851562 L 661.671875 363.480469 L 668.476562 363.480469 C 677.378906 363.480469 684.40625 361.199219 689.554688 356.644531 C 694.703125 352.085938 697.277344 346.171875 697.277344 338.902344 C 697.277344 331.703125 694.753906 325.929688 689.710938 321.582031 C 684.667969 317.199219 677.796875 314.957031 669.101562 314.851562 Z M 728.875 314.851562 L 728.875 327.476562 L 735.675781 327.476562 C 740.09375 327.476562 743.382812 328.570312 745.539062 330.761719 C 747.695312 332.921875 748.773438 335.597656 748.773438 338.800781 C 748.773438 342.101562 747.695312 344.9375 745.539062 347.304688 C 743.382812 349.667969 740.09375 350.851562 735.675781 350.851562 L 728.875 350.851562 L 728.875 363.480469 L 735.675781 363.480469 C 744.582031 363.480469 751.609375 361.199219 756.757812 356.644531 C 761.902344 352.085938 764.480469 346.171875 764.480469 338.902344 C 764.480469 331.703125 761.957031 325.929688 756.914062 321.582031 C 751.871094 317.199219 745 314.957031 736.304688 314.851562 Z M 887.121094 314.851562 L 887.121094 327.476562 L 893.925781 327.476562 C 898.34375 327.476562 901.628906 328.570312 903.785156 330.761719 C 905.941406 332.921875 907.023438 335.597656 907.023438 338.800781 C 907.023438 342.101562 905.941406 344.9375 903.785156 347.304688 C 901.628906 349.667969 898.34375 350.851562 893.925781 350.851562 L 887.121094 350.851562 L 887.121094 363.480469 L 893.925781 363.480469 C 902.832031 363.480469 909.855469 361.199219 915.003906 356.644531 C 920.152344 352.085938 922.726562 346.171875 922.726562 338.902344 C 922.726562 331.703125 920.203125 325.929688 915.160156 321.582031 C 910.117188 317.199219 903.25 314.957031 894.550781 314.851562 Z M 828.929688 408.0625 C 828.929688 416.824219 832.042969 423.980469 838.261719 429.53125 C 844.546875 435.082031 853.039062 437.855469 863.742188 437.855469 C 874.375 437.855469 882.800781 435.082031 889.019531 429.53125 C 895.242188 423.980469 898.351562 416.824219 898.351562 408.0625 L 877.683594 408.0625 C 877.683594 411.539062 876.613281 414.617188 874.472656 417.292969 C 872.402344 419.964844 868.824219 421.304688 863.742188 421.304688 C 858.589844 421.304688 854.945312 419.964844 852.804688 417.292969 C 850.664062 414.617188 849.597656 411.539062 849.597656 408.0625 Z M 208.277344 444.476562 C 189.886719 444.476562 175.175781 450.832031 164.140625 463.535156 C 153.105469 476.175781 147.585938 493.296875 147.585938 514.898438 L 147.585938 524.429688 C 147.585938 546.03125 152.972656 563.152344 163.738281 575.792969 C 174.507812 588.363281 189.253906 594.648438 207.976562 594.648438 C 225.902344 594.648438 239.910156 589.9375 250.011719 580.507812 C 260.175781 571.011719 265.757812 558.839844 266.761719 543.992188 L 236.667969 543.992188 C 235.933594 552.683594 233.324219 559.207031 228.84375 563.554688 C 224.429688 567.832031 217.476562 569.972656 207.976562 569.972656 C 197.277344 569.972656 189.621094 566.160156 185.003906 558.539062 C 180.457031 550.914062 178.183594 539.542969 178.183594 524.429688 L 178.183594 512.390625 C 178.71875 483.566406 188.75 469.15625 208.277344 469.15625 C 218.242188 469.15625 225.300781 471.496094 229.445312 476.179688 C 233.660156 480.792969 236.101562 487.445312 236.769531 496.140625 L 266.863281 496.140625 C 265.457031 481.160156 259.90625 468.820312 250.210938 459.125 C 240.511719 449.359375 226.535156 444.476562 208.277344 444.476562 Z M 725.601562 444.789062 L 725.601562 469.945312 C 733.410156 471.042969 739.726562 474.746094 744.363281 481.394531 C 749.914062 489.351562 752.691406 500.957031 752.691406 516.203125 L 752.691406 523.425781 C 752.625 538.472656 749.847656 549.976562 744.363281 557.9375 C 739.804688 564.636719 733.480469 568.34375 725.601562 569.402344 L 725.601562 594.449219 C 741.863281 593.464844 755.296875 587.191406 765.832031 575.492188 C 777.402344 562.71875 783.1875 545.195312 783.1875 522.925781 L 783.1875 516.402344 C 783.1875 494.132812 777.367188 476.613281 765.730469 463.839844 C 755.175781 452.125 741.777344 445.816406 725.601562 444.789062 Z M 716.113281 444.792969 C 699.96875 445.832031 686.589844 452.140625 676.050781 463.839844 C 664.480469 476.613281 658.695312 494.132812 658.695312 516.402344 L 658.695312 522.925781 C 658.695312 545.195312 664.511719 562.71875 676.148438 575.492188 C 686.707031 587.082031 700.050781 593.355469 716.113281 594.429688 L 716.113281 569.351562 C 708.367188 568.203125 702.105469 564.472656 697.515625 557.835938 C 691.964844 549.742188 689.191406 538.105469 689.191406 522.925781 L 689.191406 515.703125 C 689.257812 500.589844 692.03125 489.117188 697.515625 481.292969 C 702.082031 474.722656 708.347656 471.050781 716.113281 469.949219 Z M 534.101562 446.582031 L 534.101562 592.644531 L 564.496094 592.644531 L 564.496094 470.960938 L 629.804688 470.960938 L 629.804688 446.582031 Z M 803.953125 446.582031 L 803.953125 592.644531 L 834.148438 592.644531 L 892.53125 495.539062 L 892.53125 592.644531 L 922.726562 592.644531 L 922.726562 446.582031 L 892.53125 446.582031 L 834.148438 543.6875 L 834.148438 446.582031 Z M 573.984375 499.148438 L 573.984375 523.425781 L 588.574219 523.425781 C 597.066406 523.425781 603.386719 525.535156 607.53125 529.746094 C 611.679688 533.894531 613.753906 539.042969 613.753906 545.195312 C 613.753906 551.546875 611.679688 557 607.53125 561.546875 C 603.386719 566.09375 597.066406 568.367188 588.574219 568.367188 L 573.984375 568.367188 L 573.984375 592.644531 L 588.574219 592.644531 C 605.695312 592.644531 619.203125 588.265625 629.101562 579.503906 C 639 570.742188 643.949219 559.371094 643.949219 545.394531 C 643.949219 531.550781 639.101562 520.449219 629.402344 512.089844 C 619.707031 503.664062 606.496094 499.351562 589.777344 499.148438 Z M 472.015625 526.183594 C 468.882812 531.21875 465.183594 535.910156 460.816406 540.332031 C 448.320312 552.980469 432.765625 561.082031 416 563.675781 C 391.765625 567.421875 369.042969 561.101562 350.128906 545.347656 C 344.347656 540.535156 339.238281 534.589844 334.9375 528.011719 L 312.363281 541.042969 C 323.8125 558.910156 340.296875 573.453125 360.316406 582.074219 C 369.234375 585.914062 373.933594 587.230469 388.753906 590.054688 L 389.960938 590.285156 L 389.960938 633.210938 L 368.339844 633.210938 C 349.636719 633.210938 346.558594 633.324219 345.527344 634.046875 C 344.355469 634.867188 344.332031 635.105469 344.332031 646.363281 C 344.332031 657.617188 344.355469 657.859375 345.527344 658.679688 C 346.558594 659.402344 349.636719 659.511719 368.339844 659.511719 L 389.960938 659.511719 L 389.960938 703.472656 L 391.152344 704.304688 L 391.15625 704.304688 C 392.984375 705.585938 413.328125 705.539062 414.75 704.253906 C 415.671875 703.417969 415.730469 702 415.730469 681.441406 L 415.730469 659.511719 L 437.351562 659.511719 C 456.050781 659.511719 459.136719 659.402344 460.167969 658.679688 C 461.339844 657.859375 461.359375 657.617188 461.359375 646.363281 C 461.359375 635.105469 461.335938 634.867188 460.167969 634.046875 C 459.136719 633.324219 456.050781 633.210938 437.351562 633.210938 L 415.730469 633.210938 L 415.730469 590.285156 L 416.941406 590.039062 C 417.605469 589.902344 419.839844 589.503906 421.90625 589.148438 C 451.628906 584.066406 478.589844 565.269531 494.597656 539.222656 Z M 472.015625 526.183594 "/>
</svg>
