<?xml version="1.0" encoding="UTF-8" standalone="no"?>
<!-- Created with Inkscape (http://www.inkscape.org/) -->

<svg
   width="210mm"
   height="297mm"
   viewBox="0 0 210 297"
   version="1.1"
   id="svg5"
   inkscape:version="1.1.2 (0a00cf5339, 2022-02-04)"
   sodipodi:docname="20230717_lgbt_lines.svg"
   xmlns:inkscape="http://www.inkscape.org/namespaces/inkscape"
   xmlns:sodipodi="http://sodipodi.sourceforge.net/DTD/sodipodi-0.dtd"
   xmlns="http://www.w3.org/2000/svg"
   xmlns:svg="http://www.w3.org/2000/svg">
  <sodipodi:namedview
     id="namedview7"
     pagecolor="#ffffff"
     bordercolor="#666666"
     borderopacity="1.0"
     inkscape:pageshadow="2"
     inkscape:pageopacity="0.0"
     inkscape:pagecheckerboard="0"
     inkscape:document-units="mm"
     showgrid="false"
     inkscape:zoom="0.31685387"
     inkscape:cx="1361.8265"
     inkscape:cy="445.00008"
     inkscape:window-width="1366"
     inkscape:window-height="687"
     inkscape:window-x="0"
     inkscape:window-y="0"
     inkscape:window-maximized="1"
     inkscape:current-layer="layer1" />
  <defs
     id="defs2" />
  <g
     inkscape:label="Слой 1"
     inkscape:groupmode="layer"
     id="layer1">
    <path
       id="path66"
       style="color:#000000;fill:#000000;stroke-width:0.888666;stroke-linecap:round;stroke-linejoin:round;-inkscape-stroke:none;paint-order:markers fill stroke"
       d="m 18.622545,20.723916 c -0.736131,-8.2e-5 -1.332976,0.596558 -1.333148,1.332689 v 42.706677 c 1.72e-4,0.736131 0.597017,1.332772 1.333148,1.332689 h 42.704379 42.706216 42.70484 42.70438 c 0.11658,1.65e-4 0.23268,-0.01496 0.34535,-0.045 0.58272,-0.156232 0.98787,-0.684375 0.9878,-1.287683 V 22.056605 c -1.7e-4,-0.736131 -0.59702,-1.332771 -1.33315,-1.332689 H 146.73798 104.03314 61.326924 Z m 15.568859,2.66584 H 59.993773 V 63.430131 H 48.425737 V 38.768032 c 0.912806,-0.490532 1.482535,-1.442672 1.483318,-2.47893 1.7e-4,-1.555637 -1.260829,-2.816841 -2.816466,-2.816923 -1.555634,8.4e-5 -2.816634,1.26129 -2.816465,2.816923 7.06e-4,1.036258 0.570514,1.988398 1.483317,2.47893 V 63.430131 H 19.955234 V 37.596534 h 11.570332 v 10.225244 c -1.061457,0.48213 -1.743345,1.53997 -1.74416,2.705791 -1.82e-4,1.642634 1.331346,2.97437 2.973981,2.974444 1.642815,1.8e-4 2.974623,-1.33163 2.974442,-2.974444 -1.25e-4,-1.083526 -0.589505,-2.081253 -1.538425,-2.6043 z m 28.468669,0 H 102.70045 V 49.193962 H 78.208266 c -0.510777,-1.052406 -1.577774,-1.720639 -2.747582,-1.72074 -1.686857,2.4e-5 -3.054322,1.367489 -3.054346,3.054347 2.2e-5,1.68686 1.367485,3.054325 3.054346,3.054349 1.170182,-9.8e-5 2.237452,-0.668747 2.74804,-1.72166 H 102.70045 V 63.430131 H 62.660073 V 37.625925 h 24.434319 c 0.508445,1.028177 1.556011,1.679036 2.703035,1.679409 1.665919,6.6e-5 3.016502,-1.350312 3.01669,-3.016232 6.5e-5,-1.666098 -1.350591,-3.016754 -3.01669,-3.016689 -1.1501,4.71e-4 -2.199879,0.654816 -2.70671,1.687216 H 62.660073 Z m 42.706217,0 h 40.03853 v 11.569873 h -24.56519 c -0.50454,-1.015223 -1.54041,-1.657237 -2.67411,-1.657366 -1.64948,7.9e-5 -2.98656,1.337361 -2.98637,2.986839 7e-5,1.649301 1.33708,2.986303 2.98637,2.986383 1.12996,-7.05e-4 2.16275,-0.639147 2.66861,-1.64956 h 24.57069 v 25.804206 h -40.03853 z m 42.70438,0 h 40.039 v 40.040375 h -11.5685 V 39.29018 c 1.18651,-0.526866 1.95167,-1.702847 1.95266,-3.001078 1.8e-4,-1.815101 -1.47116,-3.286651 -3.28627,-3.286718 -1.81509,6.7e-5 -3.28644,1.471615 -3.28626,3.286718 9e-4,1.298721 0.76684,2.475016 1.95403,3.001537 V 63.430131 H 162.305 V 39.177668 c 1.09733,-0.544567 1.79166,-1.663541 1.79238,-2.888566 1.2e-4,-1.782282 -1.44473,-3.227133 -3.22702,-3.227019 -1.7821,1.38e-4 -3.22667,1.444919 -3.22655,3.227019 8.8e-4,1.305669 0.78851,2.482129 1.99535,2.98041 v 24.160619 h -11.56849 z m -15.56795,24.049942 c -1.18851,9.4e-5 -2.27147,0.682308 -2.78477,1.754264 h -8.88062 c -0.50548,-1.01268 -1.53997,-1.652616 -2.67181,-1.652774 -1.64944,-1.15e-4 -2.9867,1.336927 -2.98684,2.986381 -1.2e-4,1.649635 1.3372,2.986956 2.98684,2.986841 1.13214,-4.7e-4 2.16671,-0.640936 2.67181,-1.654152 h 8.88016 c 0.5131,1.072464 1.59636,1.755097 2.78523,1.755184 1.7054,1.1e-5 3.08789,-1.382482 3.08787,-3.087873 2e-5,-1.705389 -1.38248,-3.087883 -3.08787,-3.087871 z"
       sodipodi:nodetypes="ccccccccccccccccccccccccccccccccsccccccccccccccccccccccccccccccccccccccccccccccscccccccccsccccsc" />
  </g>
</svg>
