<?xml version="1.0" encoding="UTF-8" standalone="no"?>
<!-- Created with Inkscape (http://www.inkscape.org/) -->

<svg
   width="210mm"
   height="297mm"
   viewBox="0 0 210 297"
   version="1.1"
   id="svg2602"
   inkscape:version="1.1.2 (0a00cf5339, 2022-02-04)"
   sodipodi:docname="tg-et-pan.svg"
   xmlns:inkscape="http://www.inkscape.org/namespaces/inkscape"
   xmlns:sodipodi="http://sodipodi.sourceforge.net/DTD/sodipodi-0.dtd"
   xmlns="http://www.w3.org/2000/svg"
   xmlns:svg="http://www.w3.org/2000/svg">
  <sodipodi:namedview
     id="namedview2604"
     pagecolor="#ffffff"
     bordercolor="#666666"
     borderopacity="1.0"
     inkscape:pageshadow="2"
     inkscape:pageopacity="0.0"
     inkscape:pagecheckerboard="0"
     inkscape:document-units="mm"
     showgrid="false"
     objecttolerance="1"
     gridtolerance="1"
     guidetolerance="1"
     inkscape:zoom="0.31685387"
     inkscape:cx="1219.8052"
     inkscape:cy="549.14905"
     inkscape:window-width="1366"
     inkscape:window-height="687"
     inkscape:window-x="0"
     inkscape:window-y="0"
     inkscape:window-maximized="1"
     inkscape:current-layer="layer1" />
  <defs
     id="defs2599" />
  <g
     inkscape:label="Слой 1"
     inkscape:groupmode="layer"
     id="layer1">
    <path
       id="path2654"
       style="fill:#808080;stroke:#000000;stroke-width:0.453038;stroke-linecap:round;stroke-linejoin:round;stroke-miterlimit:4;stroke-dasharray:none;stroke-opacity:1;paint-order:markers fill stroke"
       d="m 37.665751,273.36548 15.668677,-0.0731 15.668106,-0.0725 0.07708,-5.1283 0.07652,-5.12829 h -6.750552 c -3.712755,0 -6.750549,-0.0965 -6.750549,-0.21413 0,-0.11767 2.086498,-2.29729 4.63665,-4.84393 l 4.636647,-4.63037 4.710312,4.70403 4.71031,4.7046 3.645936,-3.6545 3.645937,-3.65393 -4.705172,-4.71088 -4.705171,-4.71145 2.20812,-2.19499 2.207546,-2.19442 2.209831,1.44239 c 9.947205,6.49359 22.337201,7.25127 33.200621,2.62324 l -5.22423,-9.04832 C 98.898106,239.37646 89.720822,238.3901 82.983857,233.32583 77.32394,229.07119 73.707722,222.90865 72.806643,216.3541 H 62.434137 c 0.107549,1.27872 0.269658,2.48702 0.491645,3.5403 0.994105,4.71692 2.741887,8.9723 5.131721,12.4944 0.597231,0.8802 1.086071,1.66648 1.086071,1.74731 0,0.0808 -0.97184,1.10592 -2.159583,2.27835 l -2.159581,2.1316 -4.724587,-4.7183 -4.724584,-4.71831 -3.654503,3.64594 -3.653931,3.64594 4.686329,4.6926 c 4.247306,4.25284 4.649037,4.73744 4.286046,5.17684 -0.220293,0.26665 -2.297231,2.38287 -4.615521,4.70231 l -4.215241,4.21695 -0.07537,-6.62264 c -0.05604,-4.93075 -0.163634,-6.65676 -0.421407,-6.75512 -0.190429,-0.0727 -2.495747,-0.11726 -5.123156,-0.0988 l -4.777119,0.0337 -0.07252,15.80915 z m 5.7e-4,-121.40372 0.07252,15.80857 0.07252,15.80916 4.777119,0.0337 c 2.627404,0.0186 4.935103,-0.0267 5.128294,-0.10043 0.267355,-0.102 0.351175,-1.72153 0.351175,-6.7774 v -6.64321 l 10.561506,10.56152 10.562079,10.5615 -1.25281,1.94259 c -2.548478,3.9523 -4.007376,7.52131 -5.018083,12.27452 -0.206008,0.9687 -0.359903,2.0766 -0.466518,3.25137 h 10.547805 c 1.777607,-9.91687 8.553252,-17.7824 17.933326,-20.64225 2.29189,-0.69875 2.926415,-0.7685 7.151407,-0.78115 4.336899,-0.013 6.129719,0.20058 8.716589,1.24767 l 5.11174,-8.85474 c -2.38696,-1.00193 -4.90748,-1.77522 -7.55056,-2.30577 -3.41085,-0.68469 -10.305156,-0.67741 -13.526249,0.0137 -4.549813,0.9762 -8.186504,2.48212 -11.992475,4.9667 l -2.205263,1.43953 -10.492419,-10.48957 c -5.770935,-5.7694 -10.492988,-10.58529 -10.492988,-10.70197 0,-0.11669 3.037795,-0.21242 6.75055,-0.21242 h 6.750551 l -0.07652,-5.12829 -0.07652,-5.1283 -15.668676,-0.0725 z M 113.479,192.29033 c 1.75924,1.37213 3.33083,2.96988 4.70346,4.79369 1.80664,2.40047 4.07042,6.99177 4.77198,9.67816 0.46037,1.76284 0.83769,8.70938 0.5419,9.97565 -1.42827,6.11407 -3.68266,10.47317 -7.23534,13.99103 -0.83029,0.82216 -1.71296,1.57699 -2.63923,2.26408 l 5.15513,8.92954 c 1.21534,-0.83805 2.39663,-1.75202 3.53515,-2.74544 5.54526,-4.83855 9.68225,-11.94715 10.94695,-18.81098 l 0.33175,-1.80155 h 7.67904 7.67901 v 8.57038 8.57095 h 5.19853 5.19853 v -8.57095 -8.57038 h 8.57095 8.57095 v -5.19453 -5.19454 l -8.50072,-0.0742 -8.50014,-0.0742 -0.0743,-8.50073 -0.0748,-8.50015 h -5.19453 -5.19396 v 8.57039 8.57096 h -7.55169 -7.55167 l -0.47453,-2.59926 c -1.30028,-7.12195 -4.65218,-13.20382 -10.22119,-18.54606 -1.41156,-1.35407 -2.91734,-2.57867 -4.50531,-3.67962 z" />
    <path
       style="fill:none;stroke:#000000;stroke-width:0.50000001;stroke-linecap:round;stroke-linejoin:miter;stroke-miterlimit:4;stroke-dasharray:0.50000001,1.00000003;stroke-dashoffset:0;stroke-opacity:1;paint-order:markers fill stroke"
       d="m 0.25,127.63256 h 210"
       id="path5756" />
    <path
       id="path379"
       style="fill:#808080;stroke:#000000;stroke-width:0.5;stroke-linecap:round;stroke-linejoin:round;stroke-miterlimit:4;stroke-dasharray:none;stroke-opacity:1;paint-order:markers fill stroke"
       d="m 37.68926,99.26553 h 5.839915 5.839921 v -7.14622 -7.14622 h 22.975478 22.975471 v 7.14622 7.14622 h 5.839915 5.83997 v -7.14622 -7.14622 h 4.22625 10.68091 v 7.14622 7.14622 h 5.83992 5.83992 v -7.14622 -7.14622 h 11.87135 8.79739 l -5.83841,5.83993 -5.83873,5.84022 4.11041,4.11038 4.1104,4.1104 12.83245,-12.83155 v -3.1e-4 c 7.05785,-7.05746 12.83246,-12.8664 12.83246,-12.90869 0,-0.0422 -5.79139,-5.86875 -12.86998,-12.94773 l -12.87028,-12.87087 -4.03476,4.03267 -4.03504,4.18691 c -0.0587,0.0609 2.61048,2.76514 5.80089,5.95638 l 5.80059,5.80213 h -8.79739 -11.87135 v -7.22307 -7.22308 h -5.83992 -5.83992 v 7.22308 7.22307 h -10.66469 -4.21036 l -0.0628,-7.68413 H 95.319353 c 3.1e-5,0.0577 5.98e-4,0.11242 5.98e-4,0.1702 v 7.51422 H 72.335268 49.350487 l 0.05195,-7.68442 H 37.707893 c -0.01149,3.18545 -0.01858,7.03696 -0.01858,12.67459 z m 0.06813,-40.32596 h 11.714352 c 0.08907,-4.17921 0.311598,-5.01046 1.101891,-7.33412 1.357715,-3.99197 3.779631,-7.5648 6.882984,-10.15322 3.543639,-2.95565 7.283826,-4.64262 11.583786,-5.19967 v -11.7768 c -0.710463,0.0567 -1.392315,0.12782 -1.997863,0.22362 -5.918102,0.93618 -11.445277,3.3476 -16.213469,7.07328 -1.595425,1.2466 -4.924281,4.66163 -6.167697,6.32739 -3.775252,5.0575 -6.122575,10.95782 -6.7389,16.93894 -0.07767,0.75388 -0.129748,1.83205 -0.165084,3.90058 z M 75.709672,36.24506 c 2.482522,0.32483 4.699564,1.05842 7.175925,2.33043 5.411632,2.77975 9.531967,7.66518 11.329548,13.43277 0.601174,1.92893 0.753004,2.67534 0.948506,4.6651 0.03222,0.32775 0.06065,1.20225 0.08562,2.26621 h 11.649569 c -0.0823,-4.65119 -0.26261,-5.57183 -0.96534,-8.35526 -3.4283,-13.57946 -14.553614,-23.74247 -28.334554,-25.88374 -0.577927,-0.0897 -1.222179,-0.15692 -1.889199,-0.2125 z" />
  </g>
</svg>
