<?xml version="1.0" encoding="UTF-8" standalone="no"?>
<!-- Created with Inkscape (http://www.inkscape.org/) -->

<svg
   width="210mm"
   height="297mm"
   viewBox="0 0 210 297"
   version="1.1"
   id="svg5"
   inkscape:version="1.1.2 (0a00cf5339, 2022-02-04)"
   sodipodi:docname="2fem.svg"
   xmlns:inkscape="http://www.inkscape.org/namespaces/inkscape"
   xmlns:sodipodi="http://sodipodi.sourceforge.net/DTD/sodipodi-0.dtd"
   xmlns="http://www.w3.org/2000/svg"
   xmlns:svg="http://www.w3.org/2000/svg">
  <sodipodi:namedview
     id="namedview7"
     pagecolor="#ffffff"
     bordercolor="#666666"
     borderopacity="1.0"
     inkscape:pageshadow="2"
     inkscape:pageopacity="0.0"
     inkscape:pagecheckerboard="0"
     inkscape:document-units="mm"
     showgrid="false"
     inkscape:zoom="0.31685388"
     inkscape:cx="351.89722"
     inkscape:cy="602.80152"
     inkscape:window-width="1366"
     inkscape:window-height="687"
     inkscape:window-x="0"
     inkscape:window-y="0"
     inkscape:window-maximized="1"
     inkscape:current-layer="layer1" />
  <defs
     id="defs2">
    <rect
       x="173.28859"
       y="665.11651"
       width="161.32438"
       height="59.037864"
       id="rect16091" />
  </defs>
  <g
     inkscape:label="Слой 1"
     inkscape:groupmode="layer"
     id="layer1">
    <path
       id="path1863"
       style="fill:#808080;stroke:#000000;stroke-width:0.5;stroke-linecap:round;stroke-linejoin:round;stroke-miterlimit:4;stroke-dasharray:none;stroke-dashoffset:0;stroke-opacity:1;paint-order:markers fill stroke"
       d="M 102.07922,78.605455 C 98.963646,76.039775 97.898658,75.143625 96.170188,73.633298 88.315893,66.770211 85.69705,63.093974 85.276289,58.340884 c -0.200716,-2.267417 0.137276,-4.179487 1.062653,-6.011464 2.20269,-4.36069 7.035709,-6.066187 11.978237,-5.318767 1.939881,0.29336 4.091391,1.826947 5.829521,3.700277 l 0.60251,0.64938 0.95004,-0.95712 c 1.93966,-1.95411 3.63793,-2.97171 5.7596,-3.451117 4.80275,-1.08522 9.54882,1.088207 11.72962,5.371477 0.92252,1.811907 1.27736,3.844167 1.06043,6.073414 -0.51702,5.313077 -3.6378,9.249977 -14.53254,18.332941 -2.62906,2.19183 -4.90635,4.057347 -4.95346,4.057767 -0.0184,1.9e-4 -1.22601,-0.98183 -2.68368,-2.182217 z m -37.037779,4.016761 c -0.671064,0.0078 -1.349916,0.06261 -2.033515,0.166573 -6.880292,1.046273 -11.82926,6.782436 -11.835035,13.718085 -0.0058,6.975706 4.654194,12.692206 11.374126,13.953316 5.50705,1.03347 11.522042,-1.54652 14.443478,-6.19544 C 79.9271,99.591746 79.86358,93.349868 76.834086,88.911984 74.048702,84.831718 69.738891,82.567454 65.041441,82.622216 Z m 80.746089,0.0096 c -1.78344,0 -3.59596,0.544986 -5.36677,1.382736 -2.05434,0.971892 -4.43624,3.087769 -5.64975,5.01868 -2.90492,4.621318 -2.90716,10.628864 -0.006,15.245298 1.92097,3.05668 5.54179,5.47785 9.2385,6.17812 h 6.2e-4 c 8.62516,1.63387 16.56653,-4.97982 16.56653,-13.796886 0,-8.445949 -7.05492,-14.027948 -14.78318,-14.027948 z m 6.05095,32.697624 c -1.67132,0 -3.72582,0.0144 -6.28202,0.0376 -9.82108,0.089 -11.70116,0.14336 -13.15629,0.55347 v 19.49022 h -0.0639 c 0.0175,0.0199 0.0513,0.0386 0.0513,0.0598 0,0.16827 -3.97929,14.30224 -8.8433,31.40884 -4.86402,17.1066 -8.93713,31.48085 -9.05104,31.94319 l -0.20719,0.84063 h 17.17433 13.46016 3.3625 13.14434 12.6846 4.80555 l -0.20835,-0.84063 c -0.2816,-1.13521 -18.20777,-62.71408 -18.4102,-63.24159 -0.0219,-0.0568 -0.008,-0.0987 0.002,-0.14209 h -0.0222 V 115.9044 c -0.18032,-0.0492 -0.35917,-0.12173 -0.53971,-0.16359 -1.32095,-0.30634 -2.88662,-0.41136 -7.90057,-0.41136 z m -86.846002,0.11878 c -10.967448,0 -12.478741,0.0354 -14.065534,0.51404 v 19.50637 h -0.0035 c -3.342073,12.46857 -5.940675,21.23503 -8.835763,31.41084 -4.864014,17.10659 -9.973436,31.48085 -10.08734,31.94318 l 0.829693,0.84063 h 8.587161 0.02808 8.559097 13.460162 3.362507 13.144329 17.490153 l -0.208966,-0.84063 c -0.281721,-1.13332 -18.212351,-62.728 -18.41197,-63.24815 -0.01618,-0.0422 7.4e-4,-0.0715 0.0035,-0.10625 h -0.02149 v -19.58134 c -6.050685,-0.53055 -9.244441,-0.43815 -13.830119,-0.43869 z m 62.172482,1.49019 c -4.32489,2.13244 -7.99864,6.05915 -9.78659,10.58427 -0.81198,2.05501 -12.38326,27.26867 -12.65895,27.58362 -0.10833,0.12384 -2.66845,-6.19026 -5.688564,-14.03151 -3.020108,-7.84126 -5.972379,-15.09385 -6.560826,-16.11639 -1.389567,-2.41465 -4.83527,-5.84251 -7.341131,-7.30354 -0.408699,-0.23829 -0.761365,-0.43967 -1.105713,-0.62927 v 18.14273 h 0.04055 l 6.848013,17.95703 c 8.122227,21.29905 8.179847,21.43424 9.594941,22.51362 3.3091,2.52395 7.31229,1.25797 9.28333,-2.93623 0.49789,-1.05946 4.61077,-9.93866 9.14001,-19.73143 l 8.23489,-17.80539 z m -81.46012,0.0341 c -3.489328,1.71 -6.670623,4.67254 -8.63253,8.14537 -0.612454,1.08408 -3.017351,8.57904 -7.092192,22.10225 -3.391044,11.25391 -6.285803,21.09656 -6.433051,21.87299 -0.792905,4.18092 2.187164,7.61291 6.31366,7.2707 1.933219,-0.16031 3.551288,-1.28137 4.573273,-3.16905 0.35597,-0.65748 3.038333,-9.48189 5.960809,-19.60964 l 5.310031,-18.40122 z m 119.80477,0.13136 v 18.06749 l 5.3148,18.41377 c 2.92328,10.12775 5.65338,19.0512 6.06648,19.82994 1.63874,3.08905 4.70934,3.97433 7.95431,2.2926 1.63353,-0.84658 2.64106,-2.68993 2.76071,-5.05031 0.0956,-1.88716 -0.30312,-3.36403 -6.03304,-22.34824 -3.37455,-11.1803 -6.54218,-21.15319 -7.03907,-22.16195 -1.88527,-3.8275 -5.26613,-7.14239 -9.02419,-9.0433 z m -116.540418,87.1439 0.07164,22.31002 0.0818,25.31788 0.860342,1.29975 c 0.587915,0.88834 1.362116,1.53852 2.44545,2.0544 1.268338,0.60402 1.951695,0.73351 3.419212,0.64778 3.398819,-0.1986 5.566226,-1.98539 6.244419,-5.14764 0.21733,-1.01354 0.327745,-9.60179 0.327745,-25.50894 v -20.97325 z m 18.379151,0 v 21.1261 c 0,15.83243 0.111258,24.65312 0.323597,25.64327 1.212327,5.65292 9.290077,6.73832 11.969955,1.60841 l 0.850777,-1.6293 v -24.87847 -21.87001 z m 63.491697,0 0.0716,22.31002 0.0818,25.31788 0.86274,1.30334 c 2.33614,3.52982 8.44743,3.67864 10.91978,0.26568 0.47271,-0.6526 1.00667,-1.87433 1.18691,-2.71473 0.21733,-1.01354 0.32775,-9.60179 0.32775,-25.50894 v -20.97325 z m 18.37914,0 v 21.1261 c 0,15.83243 0.11127,24.65298 0.3236,25.64327 1.21234,5.65293 9.28949,6.73832 11.96939,1.60841 l 0.85135,-1.6293 v -24.87788 -21.8706 z"
       sodipodi:nodetypes="scsssscsssssssccsscsccscsccsccsccccssccccccccccccccssccccccccccccccsscccccscssscccccsccccssssscccccccsccccccccsssscccsscccccccccssscccscccccc" />
    <text
       xml:space="preserve"
       transform="scale(0.26458333)"
       id="text16089"
       style="fill:black;fill-opacity:1;line-height:1.25;stroke:none;font-family:sans-serif;font-style:normal;font-weight:normal;font-size:40px;white-space:pre;shape-inside:url(#rect16091)" />
  </g>
</svg>
