<?xml version="1.0" encoding="UTF-8" standalone="no"?>
<!-- Created with Inkscape (http://www.inkscape.org/) -->

<svg
   width="210mm"
   height="297mm"
   viewBox="0 0 210 297"
   version="1.1"
   id="svg29928"
   inkscape:version="1.1.2 (0a00cf5339, 2022-02-04)"
   sodipodi:docname="20230626_TransphobiaKills.svg"
   xmlns:inkscape="http://www.inkscape.org/namespaces/inkscape"
   xmlns:sodipodi="http://sodipodi.sourceforge.net/DTD/sodipodi-0.dtd"
   xmlns="http://www.w3.org/2000/svg"
   xmlns:svg="http://www.w3.org/2000/svg">
  <sodipodi:namedview
     id="namedview29930"
     pagecolor="#ffffff"
     bordercolor="#666666"
     borderopacity="1.0"
     inkscape:pageshadow="2"
     inkscape:pageopacity="0.0"
     inkscape:pagecheckerboard="0"
     inkscape:document-units="mm"
     showgrid="false"
     inkscape:zoom="0.31685387"
     inkscape:cx="216.18798"
     inkscape:cy="416.59582"
     inkscape:window-width="1366"
     inkscape:window-height="687"
     inkscape:window-x="0"
     inkscape:window-y="0"
     inkscape:window-maximized="1"
     inkscape:current-layer="layer1" />
  <defs
     id="defs29925" />
  <g
     inkscape:label="Слой 1"
     inkscape:groupmode="layer"
     id="layer1">
    <path
       id="path29772"
       style="font-weight:bold;font-size:40px;line-height:1.25;font-family:Roboto;-inkscape-font-specification:'Roboto Bold';white-space:pre;stroke-width:0.5;fill:#808080;stroke-miterlimit:4;stroke-dasharray:none;stroke:#000000;stroke-opacity:1;stroke-linejoin:round;stroke-linecap:round;paint-order:markers fill stroke"
       d="m 63.701029,139.70623 h 3.34553 4.38423 12.34292 4.38423 3.29282 v -5.08857 h -3.29282 -4.38423 -12.34292 -4.38423 -3.34553 z m 0.7152,22.88491 h 4.3403 c 0.11281,-1.32152 0.50857,-2.29185 1.19528,-2.90008 0.80995,-0.73953 1.97818,-1.16781 3.50418,-1.28519 v -5.28237 c -2.62942,0.24651 -4.7952,1.22074 -6.49728,2.92282 -1.5641,1.55339 -2.40585,3.73996 -2.54248,6.54482 z m 0.0243,2.0004 c 0.24481,2.68116 1.34246,4.86864 3.29282,6.56239 2.21857,1.93684 5.22343,2.90525 9.01496,2.90525 h 1.67276 c 3.79153,0 6.79639,-0.94508 9.01496,-2.83497 1.94654,-1.66699 3.03223,-3.87889 3.26182,-6.63267 h -4.38216 c -0.22586,1.29404 -0.85743,2.26426 -1.9079,2.90008 -1.33818,0.79822 -3.33382,1.19734 -5.98672,1.19734 h -2.11305 c -4.43892,-0.0824 -6.92967,-1.44873 -7.47396,-4.09742 z m 0.009,-53.52749 c 0.21207,2.76658 1.31944,5.06196 3.33623,6.87917 2.24205,2.03075 5.3174,3.04633 9.22631,3.04633 h 1.14463 c 3.90891,0 6.98427,-1.0214 9.22632,-3.0639 1.99791,-1.82009 3.10008,-4.10938 3.31763,-6.8616 h -4.39716 c -0.22694,1.29361 -0.89523,2.33381 -2.01952,3.11144 -1.42035,0.97429 -3.46264,1.46141 -6.12728,1.46141 h -1.26762 c -2.6529,-0.0117 -4.66603,-0.49886 -6.03943,-1.46141 -1.1135,-0.77379 -1.77169,-1.81422 -1.99006,-3.11144 z m 5.3e-4,-1.99987 h 4.41317 c 0.22307,-1.29143 0.8858,-2.33151 2.00401,-3.11144 1.39688,-0.97429 3.43334,-1.46141 6.10971,-1.46141 h 1.26762 c 2.64116,0.0118 4.66013,0.49886 6.057,1.46141 1.1279,0.76773 1.79251,1.808 2.00969,3.11144 h 4.39198 c -0.20764,-2.77328 -1.30972,-5.06919 -3.3202,-6.87969 -2.24205,-2.03075 -5.31741,-3.046315 -9.22632,-3.046315 h -1.14464 c -3.90891,0 -6.98426,1.021395 -9.2263,3.063885 -2.0127,1.81353 -3.12042,4.10309 -3.33572,6.86212 z m 0.30697,158.01619 h 4.27881 v -7.74733 h 21.35839 v -5.28236 h -21.35839 v -7.83518 h -4.27881 z m 0,-23.87606 h 25.6372 v -5.29993 h -9.05064 -4.26072 -8.04706 -4.27881 z m 0,-7.29981 h 4.27881 v -2.7187 c 0,-1.51426 0.4288,-2.60616 1.28571,-3.27525 0.84517,-0.66909 1.82523,-1.00356 2.94039,-1.00356 1.11515,0 2.03056,0.33447 2.7466,1.00356 0.71605,0.66909 1.07435,1.76099 1.07435,3.27525 v 2.7187 h 4.26073 v -2.7187 c 0,-3.02852 -0.73359,-5.38778 -2.2009,-7.07812 -1.46731,-1.70208 -3.43911,-2.55333 -5.91592,-2.55333 -2.45334,0 -4.47865,0.85125 -6.07508,2.55333 -1.59643,1.69034 -2.39469,4.0496 -2.39469,7.07812 z m 0,-20.45767 6.55567,-2.20865 -0.1111,-0.0372 9.63146,-3.20445 v 0.0341 l 4.2788,-1.44126 v -0.0191 l 5.28237,-1.76062 v -5.63479 l -25.63723,9.59632 z m 0,-16.66668 h 25.6372 v -5.29993 h -10.98744 v -10.30015 h 10.98744 v -5.28237 h -25.6372 v 5.28237 h 10.38903 v 10.30015 h -10.38903 z m 0,-103.409705 h 25.6372 v -5.33507 h -4.26124 -7.88841 -4.26072 -2.64584 -2.30218 v -11.46287 h -4.27881 z m 0,-22.467359 h 25.6372 v -5.29994 L 73.350079,57.355195 h 17.04444 v -5.29994 h -25.6372 v 5.29994 l 17.04444,10.24795 h -17.04444 z m 0,-33.648601 c 0,2.92289 0.66945,5.23549 2.00763,6.93757 1.33818,1.69034 3.30415,2.53524 5.89835,2.53524 3.06373,0 5.32917,-1.32036 6.79649,-3.96151 l 10.9347,5.51129 v -5.74022 l -9.24439,-4.61315 v -2.29651 h -3.99666 v 1.80351 c -0.0587,2.67637 -1.4204,4.01475 -4.08503,4.01475 -2.68811,0 -4.03231,-1.39721 -4.03231,-4.19097 v -1.62729 h -4.27881 z m 0,-3.62716 h 4.27881 8.11733 3.99666 9.2444 v -5.31751 h -25.6372 z m 2.40686,106.079305 c 0.30058,2.31285 1.22827,4.29698 2.80552,5.94072 1.94858,2.01902 4.54265,3.02876 7.78247,3.02876 3.1459,0 5.66417,-1.00391 7.55406,-3.01119 1.53995,-1.64515 2.44539,-3.63508 2.73833,-5.95829 h -4.47156 c -0.23508,0.93403 -0.6761,1.74209 -1.33067,2.41949 -1.02124,1.03299 -2.5181,1.54926 -4.49016,1.54926 -2.07771,0 -3.65038,-0.51627 -4.71858,-1.54926 -0.6892,-0.66648 -1.1528,-1.47449 -1.39733,-2.41949 z m 0.001,-9.08885 h 4.47053 c 0.24438,-0.92858 0.70812,-1.72494 1.39785,-2.38435 1.05646,-1.02125 2.61746,-1.53169 4.68343,-1.53169 1.96032,0 3.46301,0.51044 4.50774,1.53169 0.667,0.65942 1.11554,1.45575 1.35185,2.38435 h 4.46795 c -0.29443,-2.30819 -1.20571,-4.28629 -2.7559,-5.92315 -1.90164,-1.99554 -4.42573,-2.99362 -7.57164,-2.99362 -3.22808,0 -5.80465,0.99173 -7.72976,2.97553 -1.58429,1.6326 -2.51772,3.61698 -2.82205,5.94124 z m 0.2589,84.04086 22.97069,8.5509 v -5.59914 l -5.28236,-1.76113 v -7.14995 l -4.27881,1.44177 v 4.28191 l -6.37739,-2.1332 z m 6.56032,-128.623664 h 4.26072 v -2.2257 c 0,-1.49079 0.36998,-2.60019 1.1095,-3.32796 0.72779,-0.72779 1.63152,-1.09141 2.71146,-1.09141 1.11516,0 2.07189,0.36362 2.87011,1.09141 0.79821,0.72777 1.19735,1.83717 1.19735,3.32796 v 2.2257 h 4.26123 v -2.2257 c 0,-3.00505 -0.76909,-5.37597 -2.30683,-7.11326 -1.53774,-1.7373 -3.53338,-2.60605 -5.98672,-2.60605 -2.42986,0 -4.37833,0.85074 -5.84564,2.55282 -1.47904,1.70207 -2.23596,4.02051 -2.27118,6.95513 z m 7.87033,70.388464 c 1.526,0.12912 2.6709,0.58709 3.4339,1.37356 0.61324,0.63242 0.97151,1.56729 1.08417,2.79414 h 4.34443 c -0.14169,-2.73087 -0.95445,-4.90477 -2.45308,-6.50968 -1.66685,-1.78424 -3.80348,-2.76431 -6.40942,-2.94039 z M 110.51,267.08059 l 27.12098,-13.32507 1.56738,0.60119 c 1.1148,0.40063 1.99415,0.90558 2.63864,1.51524 0.62707,0.59223 0.94089,1.65484 0.94089,3.18768 0,1.06253 -0.0346,1.73268 -0.10429,2.01138 l 6.32245,-0.0521 0.10506,-2.76977 c 0,-3.08309 -0.81878,-5.37349 -2.45613,-6.87149 -1.63734,-1.51542 -3.5447,-2.73456 -5.72203,-3.65775 L 110.5101,234.83878 v 8.49179 l 18.00192,6.89757 -18.00192,8.41358 z m 0,-36.26533 h 38.04206 v -7.91667 h -6.32322 -11.70477 -6.32322 -4.98588 -2.35568 V 205.88893 H 110.51 Z m 0,-33.33914 h 38.04206 v -7.86453 l -25.2921,-15.20686 h 25.2921 V 166.5402 H 110.51 v 7.86453 l 25.29134,15.20686 H 110.51 Z m 0,-37.7292 h 38.04206 v -7.86453 h -6.32322 -10.26775 -5.53952 -9.56228 -6.34929 z m 0,-10.83213 h 6.34929 v -2.7805 c 0.0697,-3.97145 1.68917,-5.95668 4.85936,-5.95668 3.13535,0 4.70292,2.07253 4.70292,6.21816 v 2.51902 h 5.53952 v -4.4261 c 0.12193,-3.4489 1.89005,-5.17376 5.30411,-5.17376 1.42832,0 2.61208,0.479 3.55269,1.43703 0.9406,0.95802 1.41095,2.43907 1.41095,4.4422 v 3.72063 h 6.32322 v -3.95604 c -0.0348,-4.31982 -0.99284,-7.64686 -2.87405,-9.98096 -1.89863,-2.33409 -4.67669,-3.50131 -8.33459,-3.50131 -1.82896,0 -3.54516,0.48765 -5.14768,1.46309 -1.60251,0.97545 -2.68244,2.57839 -3.23983,4.80798 -0.749,-1.88121 -1.84622,-3.25765 -3.29197,-4.12857 -1.44573,-0.87094 -3.03061,-1.3059 -4.75506,-1.3059 -3.55339,0 -6.17492,1.2451 -7.86453,3.73596 -1.68961,2.49086 -2.53435,5.93982 -2.53435,10.34673 z m 0,-34.6159 9.72791,-3.2774 -0.16487,-0.0552 14.29127,-4.75507 v 0.0506 l 6.3493,-2.13867 v -0.0284 l 7.83845,-2.61333 V 93.120756 L 110.51,107.36064 Z m 0,-24.731554 h 38.04206 v -25.52675 h -6.32322 v 17.66222 h -10.16346 v -15.02359 h -6.13995 v 15.02359 h -9.06614 V 64.118796 H 110.51 Z m 0,-28.29652 h 6.34929 V 49.774615 h 31.69277 v -7.83846 H 116.85939 V 30.309596 h -6.34929 z m 3.9568,54.826264 34.08526,12.68861 v -8.30851 l -7.83845,-2.61334 v -10.60975 l -6.3493,2.13943 v 6.35389 l -9.46258,-3.16544 z m 9.73405,103.83313 h 6.32322 v -3.3027 c 0,-2.21216 0.54822,-3.85838 1.6456,-4.93833 1.07996,-1.07996 2.42178,-1.61953 4.02428,-1.61953 1.65477,0 3.0737,0.53957 4.25817,1.61953 1.18446,1.07995 1.77672,2.72617 1.77672,4.93833 v 3.3027 h 6.32322 v -3.3027 c 0,-4.45916 -1.14049,-7.97735 -3.42233,-10.55531 -2.28184,-2.57795 -5.24314,-3.86708 -8.88363,-3.86708 -3.60565,0 -6.49773,1.2624 -8.67507,3.7881 -2.19476,2.5257 -3.31795,5.96601 -3.37018,10.32066 z" />
  </g>
</svg>
