<?xml version="1.0" encoding="UTF-8" standalone="no"?>
<!-- Created with Inkscape (http://www.inkscape.org/) -->

<svg
   width="210mm"
   height="297mm"
   viewBox="0 0 210 297"
   version="1.1"
   id="svg5"
   inkscape:version="1.1.2 (0a00cf5339, 2022-02-04)"
   sodipodi:docname="20230626_HomophobiaKills.svg"
   xmlns:inkscape="http://www.inkscape.org/namespaces/inkscape"
   xmlns:sodipodi="http://sodipodi.sourceforge.net/DTD/sodipodi-0.dtd"
   xmlns="http://www.w3.org/2000/svg"
   xmlns:svg="http://www.w3.org/2000/svg">
  <sodipodi:namedview
     id="namedview7"
     pagecolor="#ffffff"
     bordercolor="#666666"
     borderopacity="1.0"
     inkscape:pageshadow="2"
     inkscape:pageopacity="0.0"
     inkscape:pagecheckerboard="0"
     inkscape:document-units="mm"
     showgrid="false"
     inkscape:zoom="0.22404952"
     inkscape:cx="167.37371"
     inkscape:cy="415.0868"
     inkscape:window-width="1366"
     inkscape:window-height="687"
     inkscape:window-x="0"
     inkscape:window-y="0"
     inkscape:window-maximized="1"
     inkscape:current-layer="layer1" />
  <defs
     id="defs2">
    <rect
       x="114.48541"
       y="141.50804"
       width="955.25201"
       height="564.99854"
       id="rect21463" />
    <rect
       x="107.3115"
       y="89.892677"
       width="914.38159"
       height="623.08203"
       id="rect14621" />
    <rect
       x="74.161484"
       y="66.844536"
       width="981.84772"
       height="638.19"
       id="rect2277" />
  </defs>
  <g
     inkscape:label="Слой 1"
     inkscape:groupmode="layer"
     id="layer1">
    <path
       id="path29810"
       style="font-weight:bold;font-size:40px;line-height:1.25;font-family:Roboto;-inkscape-font-specification:'Roboto Bold';white-space:pre;fill:#808080;stroke:#000000;stroke-width:0.5;stroke-linecap:round;stroke-linejoin:round;stroke-miterlimit:4;stroke-dasharray:none;stroke-opacity:1;paint-order:markers fill stroke"
       d="m 112.35751,267.33173 27.12098,-13.32508 1.56738,0.60119 c 1.1148,0.40063 1.99415,0.90558 2.63864,1.51524 0.62707,0.59223 0.94089,1.65485 0.94089,3.18768 0,1.06253 -0.0346,1.73268 -0.10429,2.01138 l 6.32245,-0.0521 0.10506,-2.76977 c 0,-3.08309 -0.81878,-5.37349 -2.45613,-6.87149 -1.63734,-1.51542 -3.5447,-2.73456 -5.72203,-3.65774 l -30.41295,-12.88109 v 8.49179 l 18.00192,6.89757 -18.00192,8.41358 z m 0,-36.26534 h 38.04206 v -7.91667 h -6.32322 -11.70477 -6.32322 -4.98588 -2.35568 v -17.00966 h -6.34929 z m 0,-33.33914 h 38.04206 v -7.86453 l -25.2921,-15.20686 h 25.2921 v -7.86453 h -38.04206 v 7.86453 l 25.29134,15.20686 h -25.29134 z m 0,-37.7292 h 38.04206 v -7.86453 h -6.32322 -10.26775 -5.53952 -9.56228 -6.34929 z m 0,-10.83213 h 6.34929 v -2.7805 c 0.0697,-3.97144 1.68917,-5.95667 4.85936,-5.95667 3.13535,0 4.70292,2.07253 4.70292,6.21815 v 2.51902 h 5.53952 v -4.4261 c 0.12193,-3.44889 1.89005,-5.17375 5.30411,-5.17375 1.42832,0 2.61208,0.479 3.55269,1.43703 0.9406,0.95802 1.41095,2.43907 1.41095,4.44219 v 3.72063 h 6.32322 v -3.95604 c -0.0348,-4.31981 -0.99284,-7.64685 -2.87405,-9.98095 -1.89863,-2.33409 -4.67669,-3.50131 -8.33459,-3.50131 -1.82896,0 -3.54516,0.48765 -5.14768,1.46309 -1.60251,0.97545 -2.68244,2.57839 -3.23983,4.80798 -0.749,-1.88121 -1.84622,-3.25765 -3.29197,-4.12857 -1.44573,-0.87094 -3.03061,-1.3059 -4.75506,-1.3059 -3.55339,0 -6.17492,1.2451 -7.86453,3.73596 -1.68961,2.49086 -2.53435,5.93982 -2.53435,10.34672 z m 0,-34.61589 9.72791,-3.2774 -0.16487,-0.0552 14.29127,-4.75507 v 0.0506 l 6.3493,-2.13867 v -0.0284 l 7.83845,-2.61333 v -8.360672 l -38.04206,14.239892 z m 0,-24.731562 h 38.04206 v -25.52675 h -6.32322 v 17.66222 h -10.16346 v -15.02359 h -6.13995 v 15.02359 h -9.06614 v -17.58401 h -6.34929 z m 0,-28.29652 h 6.34929 V 50.025749 h 31.69277 v -7.83846 H 118.7068 v -11.62656 h -6.34929 z m 3.9568,54.826272 34.08526,12.68861 v -8.30851 l -7.83845,-2.61334 v -10.60975 l -6.3493,2.13943 v 6.35389 l -9.46258,-3.16544 z m 9.73405,103.83313 h 6.32322 v -3.30271 c 0,-2.21216 0.54822,-3.85838 1.6456,-4.93833 1.07996,-1.07996 2.42178,-1.61953 4.02428,-1.61953 1.65477,0 3.0737,0.53957 4.25817,1.61953 1.18446,1.07995 1.77672,2.72617 1.77672,4.93833 v 3.30271 h 6.32322 v -3.30271 c 0,-4.45916 -1.14049,-7.97735 -3.42233,-10.55531 -2.28184,-2.57795 -5.24314,-3.86708 -8.88363,-3.86708 -3.60565,0 -6.49773,1.2624 -8.67507,3.7881 -2.19476,2.5257 -3.31795,5.96601 -3.37018,10.32066 z M 63.383965,148.49081 h 3.60649 4.72621 13.30569 4.72619 3.54967 v -5.48549 h -3.54967 -4.72619 -13.30569 -4.72621 -3.60649 z m 0.8072,88.60912 c 0.22853,2.98257 1.42225,5.45726 3.59646,7.41632 2.41694,2.18916 5.73218,3.28394 9.94598,3.28394 h 1.23392 c 4.21381,0 7.52904,-1.10107 9.94597,-3.30288 2.15389,-1.96218 3.34143,-4.43024 3.57585,-7.39738 h -4.74013 c -0.24459,1.39465 -0.96442,2.51579 -2.17648,3.35414 -1.53114,1.05029 -3.73273,1.5754 -6.60521,1.5754 h -1.36706 c -2.85982,-0.0127 -5.02998,-0.53777 -6.51051,-1.5754 -1.20051,-0.83425 -1.90942,-1.95549 -2.14473,-3.35414 z m 0,-60.89141 c 0.22853,2.98258 1.42225,5.45726 3.59646,7.41632 2.41694,2.18916 5.73218,3.28394 9.94598,3.28394 h 1.23392 c 4.21381,0 7.52904,-1.10107 9.94597,-3.30288 2.15389,-1.96218 3.34143,-4.43024 3.57585,-7.39738 h -4.74013 c -0.24459,1.39465 -0.96442,2.51579 -2.17648,3.35414 -1.53114,1.05029 -3.73273,1.5754 -6.60521,1.5754 h -1.36706 c -2.85982,-0.0127 -5.02998,-0.53776 -6.51051,-1.5754 -1.20051,-0.83425 -1.90942,-1.95549 -2.14473,-3.35414 z m 0,-58.59458 c 0.22862,2.98237 1.42236,5.45736 3.59646,7.41631 2.41694,2.18916 5.73218,3.28339 9.94598,3.28339 h 1.23392 c 4.21381,0 7.52904,-1.10052 9.94597,-3.30233 2.15389,-1.96218 3.34143,-4.43023 3.57585,-7.39737 h -4.74013 c -0.24465,1.3945 -0.96452,2.51586 -2.17648,3.35414 -1.53114,1.05029 -3.73273,1.5754 -6.60521,1.5754 h -1.36706 c -2.85982,-0.0127 -5.02998,-0.53777 -6.51051,-1.5754 -1.20051,-0.83425 -1.90942,-1.95549 -2.14473,-3.35414 z m 5.7e-4,117.33012 h 4.75685 c 0.24053,-1.39203 0.95498,-2.51342 2.16033,-3.35413 1.50583,-1.05029 3.7017,-1.5754 6.58683,-1.5754 h 1.3665 c 2.84717,0.0127 5.02361,0.53776 6.52945,1.5754 1.21578,0.82755 1.93171,1.94916 2.16589,3.35413 h 4.73456 c -0.22394,-2.98934 -1.41146,-5.46416 -3.57864,-7.41575 -2.41693,-2.18916 -5.73216,-3.28394 -9.94596,-3.28394 h -1.23392 c -4.21381,0 -7.52905,1.10107 -9.94598,3.30288 -2.16958,1.95488 -3.36372,4.42278 -3.59591,7.39681 z m 0,-60.89141 h 4.75685 c 0.24053,-1.39203 0.95498,-2.51342 2.16033,-3.35413 1.50583,-1.05029 3.7017,-1.5754 6.58683,-1.5754 h 1.3665 c 2.84717,0.0126 5.02361,0.53776 6.52945,1.5754 1.21578,0.82755 1.93171,1.94916 2.16589,3.35413 h 4.73456 c -0.22386,-2.98955 -1.41135,-5.46406 -3.57864,-7.41575 -2.41693,-2.18916 -5.73216,-3.28394 -9.94596,-3.28394 h -1.23392 c -4.21381,0 -7.52905,1.10107 -9.94598,3.30288 -2.16958,1.95488 -3.36372,4.42278 -3.59591,7.39681 z m 0,-58.59458 h 4.75685 c 0.24047,-1.39218 0.95488,-2.51336 2.16033,-3.35413 1.50583,-1.05029 3.7017,-1.57541 6.58683,-1.57541 h 1.3665 c 2.84717,0.0127 5.02361,0.53777 6.52945,1.57541 1.21586,0.82761 1.93176,1.94902 2.16589,3.35413 h 4.73456 c -0.22386,-2.98955 -1.41135,-5.46462 -3.57864,-7.41631 -2.41693,-2.18916 -5.73216,-3.28339 -9.94596,-3.28339 h -1.23392 c -4.21381,0 -7.52905,1.10052 -9.94598,3.30233 -2.16958,1.95487 -3.36372,4.42333 -3.59591,7.39737 z m 0.33091,151.87365 h 27.63637 v -5.71334 h -23.02381 v -12.39487 h -4.61256 z m 0,-47.20635 h 27.63637 v -5.71334 h -7.55445 l -12.98314,0.56933 20.53759,-7.44027 V 203.631 l -20.53759,-7.44083 12.98314,0.56933 h 7.55445 v -5.71334 h -27.63639 v 7.45977 l 20.04404,7.07984 -20.04404,7.08039 z m 0,-119.42917 h 27.63637 v -5.751222 h -4.59307 -8.5037 -4.59363 -4.19253 -1.14088 v -12.35699 h -4.61256 z m 0,-24.219862 h 27.63637 v -5.71334 l -18.37337,-11.04675 h 18.37337 v -5.71334 h -27.63637 v 5.71334 l 18.37393,11.04675 h -18.37393 z m 0,-36.272679 c 0,3.15086 0.7211,5.6433 2.16367,7.47814 1.44256,1.82219 3.56243,2.73356 6.35898,2.73356 3.30272,0 5.74486,-1.42391 7.32662,-4.27108 l 11.7871,5.94118 v -6.18796 l -9.96491,-4.97299 v -2.47508 h -4.3084 v 1.94363 c -0.0633,2.88514 -1.53119,4.3279 -4.40368,4.3279 -2.89778,0 -4.34684,-1.50563 -4.34684,-4.5173 v -1.75423 h -4.61256 z m 0,-3.91066 h 4.61256 8.7505 4.3084 9.96491 v -5.73227 h -27.63637 z m 2.59428,114.353681 c 0.32399,2.49337 1.32403,4.63264 3.02435,6.40467 2.10058,2.1765 4.89699,3.26444 8.38952,3.26444 3.39129,0 6.10543,-1.08165 8.14272,-3.2455 1.66014,-1.77354 2.63618,-3.91908 2.95193,-6.42361 h -4.81978 c -0.25341,1.00692 -0.72882,1.87795 -1.43446,2.60822 -1.10091,1.11356 -2.71452,1.67066 -4.84041,1.67066 -2.23977,0 -3.93566,-0.5571 -5.08719,-1.67066 -0.74296,-0.71847 -1.24216,-1.5895 -1.50577,-2.60822 z m 0.001,-9.79723 h 4.81924 c 0.2634,-1.00124 0.76267,-1.85936 1.50633,-2.57033 1.13886,-1.10091 2.82219,-1.65172 5.0493,-1.65172 2.11324,0 3.73314,0.55081 4.85935,1.65172 0.71915,0.71097 1.20203,1.56908 1.45675,2.57033 h 4.81644 c -0.31735,-2.48836 -1.29968,-4.62112 -2.97087,-6.38573 -2.04995,-2.1512 -4.77037,-3.22712 -8.16167,-3.22712 -3.47987,0 -6.25742,1.06964 -8.33269,3.20818 -1.70794,1.76002 -2.71415,3.89897 -3.04218,6.40467 z m 7.35058,-48.060342 h 4.59362 v -2.399879 c 0,-1.60706 0.39883,-2.80243 1.19604,-3.58699 0.78456,-0.78455 1.75879,-1.17709 2.92296,-1.17709 1.20214,0 2.2335,0.39254 3.09398,1.17709 0.86047,0.78456 1.29073,1.97993 1.29073,3.58699 v 2.39988 h 4.59307 v -2.39988 c 0,-3.23944 -0.82853,-5.7953 -2.48622,-7.6681 -1.65768,-1.87281 -3.80898,-2.80932 -6.45368,-2.80932 -2.61939,0 -4.71984,0.91765 -6.30161,2.7525 -1.59441,1.83484 -2.41092,4.33412 -2.44889,7.497639 z" />
  </g>
</svg>
