<?xml version="1.0" encoding="UTF-8" standalone="no"?>
<!-- Created with Inkscape (http://www.inkscape.org/) -->

<svg
   width="148mm"
   height="210mm"
   viewBox="0 0 148 210"
   version="1.1"
   id="svg8"
   inkscape:version="1.1.2 (0a00cf5339, 2022-02-04)"
   sodipodi:docname="pic_NamelessCreatingUniverse.svg"
   xmlns:inkscape="http://www.inkscape.org/namespaces/inkscape"
   xmlns:sodipodi="http://sodipodi.sourceforge.net/DTD/sodipodi-0.dtd"
   xmlns="http://www.w3.org/2000/svg"
   xmlns:svg="http://www.w3.org/2000/svg"
   xmlns:rdf="http://www.w3.org/1999/02/22-rdf-syntax-ns#"
   xmlns:cc="http://creativecommons.org/ns#"
   xmlns:dc="http://purl.org/dc/elements/1.1/">
  <defs
     id="defs2" />
  <sodipodi:namedview
     id="base"
     pagecolor="#ffffff"
     bordercolor="#666666"
     borderopacity="1.0"
     inkscape:pageopacity="0.0"
     inkscape:pageshadow="2"
     inkscape:zoom="0.7"
     inkscape:cx="80"
     inkscape:cy="342.85714"
     inkscape:document-units="mm"
     inkscape:current-layer="layer1"
     showgrid="false"
     objecttolerance="1"
     gridtolerance="1"
     guidetolerance="1"
     inkscape:window-width="1920"
     inkscape:window-height="999"
     inkscape:window-x="0"
     inkscape:window-y="0"
     inkscape:window-maximized="1"
     inkscape:pagecheckerboard="0" />
  <metadata
     id="metadata5">
    <rdf:RDF>
      <cc:Work
         rdf:about="">
        <dc:format>image/svg+xml</dc:format>
        <dc:type
           rdf:resource="http://purl.org/dc/dcmitype/StillImage" />
      </cc:Work>
    </rdf:RDF>
  </metadata>
  <g
     inkscape:label="Layer 1"
     inkscape:groupmode="layer"
     id="layer1">
    <rect
       style="opacity:1;fill:#ffffff;fill-rule:evenodd;stroke-width:1.02155;stroke-linecap:round;stroke-linejoin:round;paint-order:markers fill stroke;stop-color:#000000;fill-opacity:0.99121648"
       id="rect937"
       width="148"
       height="210"
       x="0"
       y="0" />
    <path
       id="path870"
       style="fill:#483e37;stroke:none;stroke-width:0.121143px;stroke-linecap:butt;stroke-linejoin:miter;stroke-opacity:1"
       d="m 118.22005,114.94125 c 0,0 5.82454,8.71572 7.83189,13.52224 0.44808,1.07291 0.557,2.25994 0.9178,3.36527 0.56813,1.74048 0.86242,3.89666 1.59086,5.26205 0.26225,0.49157 0.48565,0.31581 0.4283,-0.24475 -0.145,-1.41738 -0.55349,-2.43283 -0.78013,-3.83946 -0.12881,-0.79945 0.33057,-0.53364 0.42831,-0.30593 0.99074,2.30837 1.71879,4.84223 3.10522,6.65405 0.24108,0.31505 1.33341,0.71476 0.85661,-0.42831 -0.90552,-2.17091 -2.14078,-4.12182 -2.84517,-6.33282 -0.24249,-0.76114 0.35727,-0.32985 0.48949,-0.12237 1.79955,2.82392 2.97724,5.38374 4.5584,7.7401 0.29709,0.44274 1.21493,-0.0773 0.81072,-0.71893 -1.60277,-2.54417 -3.18165,-4.57853 -4.65018,-7.55656 -0.54003,-1.09512 0.2271,-0.73843 0.36712,-0.55067 1.20988,1.62244 2.92918,4.85931 4.5737,6.3787 0.60922,0.56286 0.8765,-0.25876 0.55068,-0.61187 -1.85926,-2.01493 -3.09243,-4.48062 -4.8495,-6.90205 -0.12632,-0.17408 0.27097,-0.254 0.73424,0.0306 0.87382,0.53677 0.90558,0.65138 1.85135,1.11991 0.36552,0.18108 1.45761,0.33421 1.22373,0 -0.87473,-1.24999 -3.29907,-2.26343 -4.52781,-3.54883 -0.87388,-0.91418 -2.06862,-1.46752 -2.99813,-2.32509 -3.51214,-3.24025 -9.6675,-10.58528 -9.6675,-10.58528 z m -13.85842,9.50358 c -0.25776,1.41066 -0.60843,2.68596 0.52533,5.2646 2.47459,5.62822 5.405,10.41983 5.9907,16.19225 0.60098,5.92303 0.22495,1.46587 0.30593,2.20272 0.16541,1.50516 0.0864,3.03983 0.36712,4.52781 0.25238,1.33799 0.47123,0.64195 0.55068,0 0.19043,-1.53845 0.059,-2.64288 -0.0153,-4.19128 -0.0226,-0.47015 0.3886,-0.64432 0.42831,0 0.13857,2.24922 0.67192,3.57307 1.05546,5.72095 0.096,0.53748 0.86882,0.64936 0.79542,0.0612 -0.24929,-1.99762 -0.8219,-3.50874 -1.10135,-5.84332 -0.0836,-0.6984 0.13238,-0.52175 0.36711,0.12237 0.9251,2.53854 1.83922,4.73313 2.68172,7.08126 0.28323,0.78939 0.95573,0.33958 0.86711,-0.13658 -0.46332,-2.48942 -2.01795,-4.81301 -2.92166,-7.63303 -0.29457,-0.91919 0.3374,-0.80279 0.55068,-0.42831 1.0881,1.91058 1.50008,3.87344 2.67691,5.73625 0.29879,0.47294 1.33077,0.84924 0.85662,-0.18356 -1.11626,-2.43146 -1.94687,-3.87975 -2.72371,-6.60317 -0.15406,-0.54009 -0.15266,-0.98574 0.21198,-0.75588 0.90065,0.56777 0.68826,1.23133 1.59393,1.79107 0.40502,0.25031 1.69454,0.62447 1.40729,0.24474 -1.2604,-1.66619 -3.56115,-5.22839 -4.34425,-6.11866 -0.51211,-0.58219 -1.09615,-1.82975 -2.2639,-4.03832 -2.91371,-5.51064 -5.01352,-12.25425 -7.08902,-18.10111 -0.007,1.52832 -0.48053,3.51186 -0.77312,5.08802 z m -11.91164,1.90248 c 0,0 2.595665,13.12763 1.884382,19.82075 -0.160628,1.51147 0.08312,2.78707 -0.130063,4.29202 -0.218087,1.53952 -0.795173,3.10421 -0.826023,4.6196 -0.0119,0.58593 0.689916,1.00188 0.795431,0.0612 0.155475,-1.3861 0.57315,-2.25811 0.826016,-3.59471 0.121627,-0.64287 0.378266,-0.34807 0.428307,0.12238 0.264995,2.49144 -0.08389,4.58465 0.214158,6.89878 0.127874,0.9929 0.706089,0.45837 0.734233,0 0.145985,-2.3776 -0.0136,-4.24403 0.04589,-7.00586 0.0068,-0.2986 0.265219,-0.84858 0.428308,-0.18357 0.762357,3.10863 0.826159,5.98478 1.422586,9.02503 0.237325,1.20975 0.96404,-0.0533 0.917798,-0.55068 -0.284001,-3.05523 -0.958961,-5.64797 -1.376698,-8.7038 -0.111789,-0.81778 0.426486,-0.81993 0.565978,-0.19885 0.809918,3.60612 1.122269,5.84339 1.728517,8.2296 0.22616,0.89018 1.00959,0.52416 0.91779,-0.30593 -0.32176,-2.90954 -1.233741,-5.8347 -1.446831,-9.29231 -0.02407,-0.3897 0.0078,-1.16543 0.345485,-0.55874 0.591556,1.06287 1.137976,2.22899 2.080336,2.99814 0.36101,0.29465 1.41874,0.99704 1.28492,0.55069 -0.4207,-1.40328 -2.13074,-2.99087 -2.50865,-4.71138 -0.29832,-1.35817 -2.453349,-3.58201 -2.936946,-4.65018 -2.644489,-5.84115 -5.394928,-16.86216 -5.394928,-16.86216 z m -33.51635,7.32334 c 1.019536,1.4648 2.427167,2.20886 4.586141,1.55756 -0.212818,0.0532 -6.295472,10.90959 -7.355131,16.48414 -0.290151,1.52641 -0.532604,3.20172 -0.822044,4.58615 -0.335078,1.60271 -0.04511,3.30932 -0.47592,4.88899 -0.180215,0.66079 -0.717062,0.52485 -0.648982,-0.30285 0.124373,-1.51211 -0.0077,-2.26342 0.239046,-3.88032 0.105084,-0.68853 -0.426133,-0.79719 -0.496015,-0.16302 -0.248169,2.25209 -0.918805,3.77075 -1.331633,5.94964 -0.113251,0.59774 -0.99213,0.53059 -0.791,-0.17568 0.661733,-2.32371 0.783329,-3.15529 1.356076,-5.68698 0.178748,-0.7901 -0.379083,-0.38159 -0.475921,-0.0865 -1.113714,3.39353 -1.371708,4.24001 -2.870367,7.89352 -0.41942,1.02247 -1.07136,0.0905 -0.908576,-0.34614 1.083505,-2.9065 1.693629,-4.72845 2.926306,-7.58584 0.397673,-0.92182 -0.214166,-0.83563 -0.508688,-0.17787 -0.938834,2.09672 -1.8205,3.68285 -3.326193,6.20616 -0.287778,0.48228 -1.184156,0.4654 -0.822044,-0.34613 1.042154,-2.33553 2.68426,-4.71939 3.677566,-7.22533 0.274892,-0.6935 -0.105256,-0.70711 -0.605716,-0.34612 -0.889618,0.64171 -1.587977,1.55463 -2.552664,2.07674 -0.551621,0.29855 -0.969237,0.27251 -0.778778,-0.12979 0.573243,-1.21084 2.46726,-1.9045 3.6343,-3.50451 0.757288,-1.03824 2.087226,-1.59313 2.768991,-2.68246 3.164726,-5.05661 5.581246,-17.00333 5.581246,-17.00333 z m -8.233022,-5.60487 c 0,0 -2.443909,2.97517 -3.793572,4.34425 -0.760429,0.77137 -1.574657,1.49099 -2.41687,2.17213 -1.4306,1.15698 -3.27128,1.84418 -4.466625,3.24289 -0.468286,0.54795 -0.258494,1.03453 0.520087,0.55068 0.980641,-0.60943 1.78854,-1.37054 2.753398,-1.89679 0.423104,-0.23077 0.510283,0.0114 0.233612,0.57077 -1.163645,2.35267 -3.043567,4.00805 -4.180149,6.37392 -0.236784,0.49287 -0.05898,0.85391 0.428306,0.33652 1.693532,-1.79814 2.71738,-3.66688 4.219066,-5.64428 0.334513,-0.44048 1.106994,-0.48778 0.662555,0.31118 -1.508401,2.71164 -2.836866,4.35191 -4.4048,7.36647 -0.602015,1.15745 0.433097,1.09986 0.933546,0.1993 1.509119,-2.71563 2.785313,-4.25958 4.102579,-7.01445 0.297073,-0.62129 0.762679,-0.50257 0.437267,0.23579 -1.084924,2.46169 -1.458388,3.36811 -2.401389,5.64735 -0.29809,0.72049 0.279272,1.07203 0.84919,-0.007 1.166956,-2.21027 1.593188,-3.63158 2.557166,-5.68013 0.327732,-0.69646 0.555564,-0.43568 0.153867,0.71542 -0.436721,1.25147 -0.488889,1.70209 -0.929198,3.56484 -0.217981,0.92219 0.534981,0.98417 0.758947,0.0701 0.445683,-1.81888 1.369857,-3.8424 1.841485,-5.7911 0.370329,-1.53015 0.488433,-3.11248 0.826019,-4.65018 0.370747,-1.68875 1.315513,-5.01731 1.315513,-5.01731 z M 40.37275,113.37914 c -0.373812,-0.34506 -11.984081,10.31429 -18.604156,12.84985 -2.338851,1.23106 -6.241576,1.45834 -8.177176,2.3796 -0.491444,0.24841 -0.817999,0.9922 0.129797,0.82204 2.279352,-0.49483 2.803364,-0.62425 4.11022,-0.86531 0.639244,-0.11791 1.010094,0.053 0.323405,0.60527 -1.897882,1.5264 -4.162374,3.12826 -6.164243,4.50006 -0.650604,0.44583 -0.134168,1.35922 0.605717,0.90858 2.246866,-1.3685 3.208246,-2.59519 5.338223,-3.78352 1.298158,-0.72425 0.260795,0.3162 0.0249,0.57227 -1.044332,1.13361 -4.721302,3.36403 -6.358224,5.41778 -0.493043,0.6186 0.01678,1.39295 0.778779,0.77878 2.42848,-1.95734 4.517765,-3.4995 6.697825,-5.48376 0.623578,-0.56758 0.650335,-0.0261 0.195332,0.57032 -1.385545,1.81623 -2.75909,2.41465 -4.037636,4.30773 -0.403673,0.5977 -0.262926,1.49491 0.735513,0.69224 1.76386,-1.418 3.383575,-3.4651 4.474266,-4.78762 0.410184,-0.49737 0.734536,-0.13423 0.346124,0.43266 -0.764722,1.11611 -1.768298,2.35893 -2.440788,3.53292 -0.618514,1.07977 0.430819,0.80793 0.865309,0.25959 1.507344,-1.90229 2.139813,-2.81414 3.44984,-4.61186 1.456578,-1.99883 3.310482,-5.28682 5.133745,-6.95795 4.256659,-3.90146 12.689792,-12.04254 12.573233,-12.13967 z m 62.66146,12.01907 c -1.77426,-5.93745 -0.79109,-6.62776 -0.44139,-11.8721 3.51062,5.35444 -0.0144,6.70331 0.44139,11.8721 z M 99.170535,106.7507 c 4.236145,5.62986 0.07337,7.31151 1.302375,12.27012 -3.753897,-5.47739 -0.1483,-6.56643 -1.302375,-12.27012 z m -39.536671,19.72423 c -2.240521,4.08247 3.940298,11.50811 7.220022,2.32509 -2.179418,2.75606 -6.467171,3.87946 -7.220022,-2.32509 z m -6.332814,-3.27349 c 1.918433,-4.41474 3.06417,-9.72298 4.16069,-11.1069 0.782738,-0.9879 3.883445,0.15168 2.425195,2.38013 -1.587806,2.42642 -4.634591,5.56057 -6.585885,8.72677 z m 62.16561,-12.35969 c 1.15805,-1.0639 2.46658,-0.15556 2.01916,1.28492 -0.25503,0.82107 -1.71298,1.51364 -2.38628,0.97898 -0.59869,-0.47541 -0.19586,-1.74669 0.36712,-2.2639 z m -2.69222,-3.97713 c 1.13659,-0.72129 2.2449,0.20245 1.77442,1.3461 -0.29496,0.717 -1.21622,1.71748 -1.89679,1.34611 -0.78857,-0.4303 -0.63612,-2.21087 0.12237,-2.69221 z m -21.476494,14.37885 c 0.742174,-0.23595 1.862593,0.90227 1.652032,1.65204 -0.18725,0.66675 -1.51307,0.96226 -2.019156,0.4895 -0.529254,-0.49441 -0.323098,-1.9221 0.367124,-2.14154 z m -27.77873,4.77256 c -0.720788,0.005 -1.314557,1.35619 -0.9178,1.95797 0.336982,0.51112 1.519054,0.46283 1.835599,-0.0612 0.363175,-0.60122 -0.215423,-1.90112 -0.917799,-1.89679 z M 51.28189,124.7923 c -0.438295,0.30944 -0.23615,1.35295 0.244746,1.59085 0.458119,0.22663 1.347489,-0.22313 1.346107,-0.73424 -0.0016,-0.60227 -1.098846,-1.20398 -1.590853,-0.85661 z m -9.300367,-14.56242 c -0.578576,0.43566 -0.317936,1.90649 0.36712,2.14154 0.600834,0.20614 1.499143,-0.65639 1.407292,-1.28493 -0.09497,-0.64988 -1.249733,-1.25168 -1.774412,-0.85661 z m 4.466624,-4.03831 c -0.723392,0.25799 -1.041076,1.8009 -0.428306,2.2639 0.58219,0.43989 1.872425,-0.25432 1.957971,-0.97899 0.07807,-0.66131 -0.902452,-1.5086 -1.529665,-1.28491 z M 88.605733,36.132879 c 0.309638,-0.176062 0.96986,0.07223 0.97899,0.428307 0.01054,0.410318 -0.766294,0.787746 -1.101364,0.550679 -0.268468,-0.189945 -0.163511,-0.81643 0.122374,-0.978986 z m -1.46848,4.650184 c -0.08467,-0.627893 1.022423,-1.320013 1.590848,-1.040173 0.477159,0.23491 0.539812,1.261296 0.122375,1.590852 -0.470817,0.371692 -1.633059,0.04379 -1.713223,-0.550679 z m -0.978983,4.160691 c -0.0242,-0.808545 1.2931,-1.702732 2.019156,-1.346106 0.789088,0.387586 0.930185,2.166881 0.183558,2.631022 -0.721915,0.448777 -2.177255,-0.435269 -2.202714,-1.284916 z M 80.78271,99.53419 c -1.058257,-2.20064 -2.461081,-4.548945 -4.32655,-7.095541 -0.08063,0.423284 4.04458,2.568853 5.581247,-0.692248 2.013847,-3.954157 -3.677211,-3.361421 -3.354609,-1.488943 0.277231,0.927996 1.571684,0.626047 2.402765,0.493842 -0.945672,2.223612 -4.531964,1.298954 -3.850627,-0.822046 1.890092,-5.883849 8.630712,-1.675833 6.706153,2.422867 -0.905345,1.813845 -3.757213,2.252281 -3.158379,7.182069 z M 75.083487,54.244123 c -11.37355,3.590861 -15.696208,10.989915 -16.030895,20.681079 -0.161135,4.665814 1.250842,9.278969 3.671198,12.84919 0.36623,0.54022 0.38045,1.427671 0,1.957972 -3.802975,5.30089 -13.903279,14.964986 -13.461059,15.296656 0.548882,0.20111 12.167546,-10.903096 16.15327,-12.359701 0.89584,-0.327381 1.480699,-0.03848 1.468479,1.101358 -0.07477,6.974243 -8.592045,16.312803 -8.688501,16.153273 2.116037,-0.17737 3.291764,0.78707 3.793571,2.56984 0.613199,-5.20305 5.382574,-14.055124 8.810874,-16.887515 0.864541,-0.714261 1.345999,-0.581322 1.10136,0.611872 -1.901111,9.272283 -7.109823,27.859693 -6.975276,27.901093 0.01516,0.003 6.732276,-18.6422 10.279353,-26.799736 0.625809,-1.439221 1.187294,-0.550722 1.835598,0.367117 5.410673,7.660199 5.458893,13.090869 2.447463,17.744119 -4.757229,7.35087 -6.90742,22.50308 -6.60815,22.51668 0.102578,-0.0288 1.671788,-6.50863 2.957955,-8.80218 0.734247,-1.30934 2.201599,-1.84965 3.016065,0.0568 2.761079,6.4631 4.095587,11.63085 -0.681003,18.42513 -1.881227,2.67588 -2.287699,6.65856 -2.233687,9.41044 0.106419,5.4221 3.181704,16.88751 3.181704,16.88751 0,0 -1.754999,-14.3307 -0.194055,-21.21384 0.468423,-2.06558 2.007157,-2.25724 3.110016,-0.61801 1.814911,2.69757 3.569821,8.37079 3.569821,8.37079 0.122524,0 -1.540379,-8.86082 -3.05933,-13.46106 -0.506772,-1.53478 0.456228,-2.85011 0.813345,-4.42643 0.708448,-3.1271 0.798878,-8.60333 -1.302843,-13.56243 -1.812177,-4.27594 -1.718546,-9.24102 0.367124,-13.46106 3.973974,-8.04073 -0.05221,-11.35139 0.580336,-17.384455 0.217665,-2.075928 1.313577,-2.062916 1.622378,-0.849157 1.885544,7.411192 6.508822,22.416372 6.608157,22.394302 0.05323,0.0129 -2.723838,-15.39807 -3.059329,-23.373292 -0.07644,-1.8171 -0.175985,-2.06603 1.346106,-0.489491 4.478435,4.638633 6.48305,14.096733 7.982054,16.981063 -0.258814,-4.18358 1.009031,-5.59548 0.158854,-8.91664 -0.91234,-3.66751 -3.061648,-7.026854 -3.894578,-10.456808 -0.09479,-3.30977 2.337476,-0.721766 3.212323,-0.191029 6.211455,3.768246 11.135255,11.393697 12.488215,14.698367 0.25605,-3.39138 1.46898,-4.51633 3.6712,-4.16069 -2.56266,-1.74613 -10.5715,-8.404379 -13.09393,-15.419029 -0.511282,-1.421811 -0.0183,-2.241043 0.48949,-3.059329 9.15865,-14.757655 -3.787215,-27.233827 -7.954265,-28.512937 10.262995,12.011188 10.073435,27.266298 -3.304078,32.551279 l 6.608157,-6.975274 -8.810871,3.732386 9.300362,-13.399872 -11.074776,10.891218 6.608157,-21.84362 -7.89308,16.214453 2.814588,-28.512968 -6.363408,29.308392 -4.772559,-20.069213 1.774413,24.841772 -11.441899,-17.927682 9.05562,21.23176 c -3.592649,-2.52399 -7.441978,-5.415608 -10.707659,-8.076637 2.85722,4.691715 6.09515,7.785776 9.728676,12.788006 C 60.470799,86.426498 56.078345,65.096347 75.083521,54.244117 Z"
       inkscape:connector-curvature="0"
       sodipodi:nodetypes="cscscccccccccssssccscccccssccscccccccccccccscscccccccsccccccsccssccsccccccccsccscssccccccccccsscsscccsccccccscccssccscsscscccccccsccsccsccsccsscscccccccccccccscccccccscccccccccccccccsccccccsccsccscccccccccsccccssccsccccccsscsccsccsccccssscssccccscccccccccccccccccccccc" />
    <flowRoot
       xml:space="preserve"
       id="flowRoot881"
       style="font-style:normal;font-weight:normal;font-size:40px;line-height:0;font-family:sans-serif;letter-spacing:0px;word-spacing:0px;fill:#000000;fill-opacity:1;stroke:none"><flowRegion
         id="flowRegion883"><rect
           id="rect885"
           width="359.61432"
           height="183.84776"
           x="56.568542"
           y="853.81909" /></flowRegion><flowPara
         id="flowPara887" /></flowRoot>
  </g>
</svg>
