<?xml version="1.0" encoding="UTF-8" standalone="no"?>
<!-- Created with Inkscape (http://www.inkscape.org/) -->

<svg
   width="148mm"
   height="210mm"
   viewBox="0 0 148 210"
   version="1.1"
   id="svg8"
   inkscape:version="1.1.2 (0a00cf5339, 2022-02-04)"
   sodipodi:docname="pic_OldSilvaSpirits.svg"
   xmlns:inkscape="http://www.inkscape.org/namespaces/inkscape"
   xmlns:sodipodi="http://sodipodi.sourceforge.net/DTD/sodipodi-0.dtd"
   xmlns="http://www.w3.org/2000/svg"
   xmlns:svg="http://www.w3.org/2000/svg"
   xmlns:rdf="http://www.w3.org/1999/02/22-rdf-syntax-ns#"
   xmlns:cc="http://creativecommons.org/ns#"
   xmlns:dc="http://purl.org/dc/elements/1.1/">
  <defs
     id="defs2" />
  <sodipodi:namedview
     id="base"
     pagecolor="#ffffff"
     bordercolor="#666666"
     borderopacity="1.0"
     inkscape:pageopacity="0.0"
     inkscape:pageshadow="2"
     inkscape:zoom="1.0969089"
     inkscape:cx="279.42157"
     inkscape:cy="38.289416"
     inkscape:document-units="mm"
     inkscape:current-layer="layer1"
     showgrid="false"
     inkscape:window-width="1600"
     inkscape:window-height="827"
     inkscape:window-x="0"
     inkscape:window-y="0"
     inkscape:window-maximized="1"
     objecttolerance="1"
     guidetolerance="1"
     inkscape:pagecheckerboard="0">
    <inkscape:grid
       type="xygrid"
       id="grid815" />
  </sodipodi:namedview>
  <metadata
     id="metadata5">
    <rdf:RDF>
      <cc:Work
         rdf:about="">
        <dc:format>image/svg+xml</dc:format>
        <dc:type
           rdf:resource="http://purl.org/dc/dcmitype/StillImage" />
      </cc:Work>
    </rdf:RDF>
  </metadata>
  <g
     inkscape:label="Layer 1"
     inkscape:groupmode="layer"
     id="layer1">
    <rect
       style="fill:#ffffff;fill-rule:evenodd;stroke:none;stroke-width:0.361389;stroke-linecap:round;stroke-linejoin:round;paint-order:markers fill stroke;stop-color:#000000"
       id="rect1535"
       width="148"
       height="210"
       x="0"
       y="0" />
    <path
       id="path838"
       style="fill:#241c1c;fill-rule:evenodd;stroke:#000000;stroke-width:0.3;stroke-linecap:butt;stroke-linejoin:miter;stroke-miterlimit:4;stroke-dasharray:none;stroke-opacity:1"
       d="m 56.308766,86.09344 c 1.866208,-1.09387 3.795167,1.261674 1.975202,2.91578 -4.629034,4.207177 -17.199859,5.871054 -24.290306,2.586578 -0.556442,-0.257755 -1.569494,-0.472842 -2.421969,-0.423262 -1.634233,0.09504 -2.453679,0.782341 -4.985036,-0.376226 -0.754369,-0.345261 0.0125,-1.26839 0.470286,-0.940571 0.923318,0.661166 2.223762,0.684347 3.339029,0.470285 0.653643,-0.12546 0.396618,-0.462347 0.235143,-0.681917 -0.688387,-0.936075 -2.389333,-1.265207 -3.480119,-1.95169 -0.762188,-0.479678 -0.14711,-0.992687 0.376232,-0.940572 1.409452,0.140346 2.533352,1.270954 3.762292,1.975203 0.590765,0.338538 1.004467,-0.01953 0.658399,-0.564346 -0.65908,-1.037546 -1.728244,-2.021719 -2.351428,-3.292006 -0.348788,-0.710957 -0.04847,-1.092219 0.470285,-0.77597 1.445011,0.880883 2.181615,3.11443 3.480119,4.538262 0.521791,0.57215 1.244141,0.967468 1.975203,1.222751 9.483172,3.311485 16.017963,-0.967146 20.786668,-3.762299 z M 29.861017,77.603608 c -0.679367,-0.583116 -3.09984,0.773244 -1.330171,2.527332 3.013858,2.987305 13.43579,7.726268 22.745932,2.660336 1.013016,-0.551209 1.750652,-0.663758 2.527325,-0.665086 1.796579,-0.0028 4.285564,-0.234468 5.453698,-1.064134 0.987875,-0.701643 0.214371,-1.183357 -0.665086,-0.798105 -1.163905,0.509862 -2.624012,0.943191 -3.724478,0.931123 -0.909234,-0.01 -0.582413,-0.478132 -0.266037,-0.665086 0.609661,-0.360258 2.072353,-1.195137 3.059399,-2.128276 0.577341,-0.545808 0.06498,-0.894342 -0.532067,-0.798104 -1.049004,0.16909 -1.948797,1.587484 -3.591467,2.261294 -0.763058,0.312997 -0.373535,-0.406298 -0.266037,-0.798104 0.290357,-1.05829 0.887325,-1.874898 1.729228,-2.527325 0.908595,-0.704115 0.251152,-1.019528 -0.524003,-0.860575 -1.164735,0.238831 -2.306702,2.741654 -2.715438,4.234418 -0.168275,0.614572 -0.358861,0.73378 -1.150123,1.14874 -8.475495,4.444777 -20.164349,-2.955189 -20.750675,-3.458448 z M 45.823072,66.829216 c 2.887317,5.862201 9.22456,4.647655 11.57249,-0.399051 l 8.912147,-0.665085 c 0.741359,3.380132 2.414362,5.030078 4.389564,6.118792 -2.664622,0.325353 -4.417241,-1.942712 -6.384815,-4.057024 l -5.852761,-0.06652 -0.665086,1.197153 c 1.571349,0.421001 3.223544,0.441077 4.389571,2.128268 1.179037,1.706032 2.736167,2.708069 4.256545,3.724492 0.0163,0.146808 -3.489447,-0.71371 -5.320687,-2.92638 -1.131522,-1.367213 -4.655594,-1.464385 -4.655594,-1.330179 -5.721773,3.608614 -9.590614,0.821033 -10.641374,-3.724478 z m -5.387197,-0.731594 c -0.895922,5.481085 -10.679806,7.167399 -12.304078,0.465561 L 19.751711,66.6962 c 0.371722,3.697148 -1.585371,5.065492 -3.059393,6.916899 1.801328,-1.126302 3.856345,-1.883193 4.988148,-5.52022 h 4.72211 l 1.064135,1.995256 c 0.04777,-0.143294 -3.198585,0.1995 -4.256552,2.394313 -0.741915,1.539141 -2.77859,3.170213 -2.793363,3.125909 0.0576,-0.0288 2.895438,-1.621568 3.32543,-2.394314 1.394047,-2.505267 6.450242,-1.770602 6.118791,-1.596201 7.696126,2.733975 10.490036,-1.450849 10.574858,-5.52022 z m 5.919264,-3.391936 -0.133011,-2.394309 c 7.452988,0.415172 14.716494,0.07241 21.814808,-0.931119 -0.937923,0.633042 -1.79686,1.329269 -1.862246,2.660342 -6.296192,-0.554117 -13.204497,0.422051 -19.819551,0.665086 z M 18.288527,60.577412 c 7.227266,0.44339 14.454525,0.44339 21.68179,0 l 0.133019,2.261291 -20.418135,0.133016 c -0.474247,-1.806306 -1.093568,-1.926306 -1.396674,-2.394307 z"
       inkscape:connector-curvature="0" />
    <path
       id="path831"
       style="fill:#241c1c;fill-rule:evenodd;stroke:#000000;stroke-width:0.3;stroke-linecap:butt;stroke-linejoin:miter;stroke-miterlimit:4;stroke-dasharray:none;stroke-opacity:1"
       d="m 101.74161,134.38713 c 2.50546,1.47621 5.01091,1.70235 7.51636,0.13072 -1.65802,1.65165 -3.53938,2.89095 -4.11766,6.53597 -0.10228,-1.6798 -0.0771,-3.29251 -3.3987,-6.66669 z m -3.921578,-1.76471 c 1.685591,0.40863 4.297588,-1.65031 5.032698,-1.96079 0.85739,-0.36212 1.87981,0.93696 2.81047,0.94772 0.99212,0.0114 1.7272,-1.03243 2.71241,-0.91504 0.40767,0.0485 3.44058,1.90034 4.80395,1.4706 0,0 -0.9271,0.44494 -1.40244,0.52295 -1.08933,0.17878 -2.10223,-0.70916 -3.43418,-0.81708 -1.04076,-0.0843 -1.70094,1.23907 -2.74511,1.24184 -1.11282,0.003 -1.40537,-1.04695 -2.51635,-1.11111 -1.38333,-0.0799 -2.8095,1.2613 -4.183018,1.07843 -0.329645,-0.0439 -1.07843,-0.45752 -1.07843,-0.45752 z m 5.817008,-14.96736 c -0.7427,7.02925 -13.151799,6.16091 -12.549057,-1.37256 0.134016,-1.67501 4.008709,-0.26146 6.013092,-0.39215 -2.08896,-0.43063 -4.276756,-1.05893 -6.209171,-1.17648 -1.530276,5.48335 -8.143799,1.16603 -8.562114,0.91504 0.440274,0.76047 3.708158,3.01061 6.197276,2.81443 0.550479,-0.0434 0.160703,0.59454 -0.0196,0.71613 -1.426374,0.96179 -5.248122,0.97853 -5.262635,0.9139 0.211968,0.27252 4.658643,0.91475 5.877727,0.12279 0.476123,-0.30931 0.715066,0.53036 0.556576,0.90765 -0.490959,1.1687 -3.413462,2.62041 -3.558479,2.49898 0.117944,0.24768 3.363243,-0.4243 4.474042,-1.5486 0.256814,-0.25994 0.885442,0.0563 1.051175,0.18001 4.659085,3.47707 12.020078,2.84006 11.991178,-4.57914 z m 6.07845,-0.13072 c 2.75442,8.95224 14.28565,4.6154 10.78434,-1.83007 -1.54358,0.41619 -3.02629,0.46707 -4.50981,0.52288 1.74168,-0.38567 3.57958,-0.59817 5.03269,-1.50328 1.49291,4.68181 10.10628,0.45752 10.26147,0.45752 0.08,0.048 -3.83237,3.26247 -8.05104,2.73333 -0.44045,-0.0552 -0.32541,0.62778 0.008,0.91695 1.78046,1.54496 5.89201,0.54787 5.88633,0.53274 0.0121,0.009 -3.80029,1.89004 -6.5692,0.98677 -0.34509,-0.11257 -0.77261,0.32615 -0.32063,0.97538 0.96833,1.39092 3.74968,1.26363 3.75257,1.24047 0.19315,0.12291 -2.95802,1.25474 -4.7059,0.0653 -0.4686,-0.31887 -1.03372,-0.27288 -1.63398,0.13072 -5.71071,3.83976 -10.29544,-1.57269 -9.93468,-5.22874 z m -5.49021,-3.59478 -0.13072,-0.9804 c -8.232864,-3.30006 -14.509239,-5.15086 -18.039268,-4.96734 -0.451797,1.14897 -1.077903,2.47225 -1.699352,3.79087 8.404441,-2.84369 13.747888,0.4346 19.86934,2.15687 z m 5.75165,0.26144 v -0.9804 c 5.66783,-2.42171 11.54609,-4.36997 17.90855,-5.22878 1.19986,1.22502 1.70029,1.94419 1.69935,2.67975 -6.99247,-0.99191 -13.29485,1.29411 -19.6079,3.52943 z"
       inkscape:connector-curvature="0" />
    <path
       id="path843"
       style="fill:#241c1c;fill-rule:evenodd;stroke:#000000;stroke-width:0.3;stroke-linecap:butt;stroke-linejoin:miter;stroke-miterlimit:4;stroke-dasharray:none;stroke-opacity:1"
       d="m 88.94152,45.771796 c 0.179613,0.17962 5.041654,-1.392101 6.732042,-3.529425 1.131255,-1.43035 3.244857,-0.234201 2.777789,0.457515 -0.199268,-0.462734 -1.835946,-0.472857 -1.535952,0.882358 0.26511,1.197652 2.177231,0.994907 3.398701,0.882358 0.80501,-0.07417 0.76723,-0.592423 0.84968,-1.045758 0.26503,-1.457479 0.32229,-3.33414 0.98039,-4.117654 0.98716,-1.175279 5.58668,-1.241711 6.79741,-0.196079 0.57506,0.496649 0.049,2.807376 0.19607,3.921575 0.0858,0.649801 0.0167,1.006589 0.68628,1.01308 1.37044,0.01328 1.92652,-0.09256 2.84314,0.03266 0.91831,0.125468 1.48553,-0.83629 1.04576,-1.437915 -0.87313,-1.19447 -1.9852,-0.143183 -1.63399,0.392157 -0.16713,0.143429 -0.64166,-0.556295 0.1634,-1.40523 0.50381,-0.531273 1.62728,-0.08573 2.25491,0.326801 4.39415,2.888194 4.37928,2.145887 7.2876,3.071903 -0.0442,0.113722 -8.94219,-0.0642 -13.3007,0.359479 -0.7831,0.07613 -0.8698,-0.510945 -0.81699,-0.947723 0.22917,-1.895297 -0.40021,-3.424484 -2.18954,-3.431375 -1.75258,-0.007 -2.96522,1.442349 -2.94119,3.529418 0.008,0.677569 -0.12217,1.125053 -0.71896,1.111116 -3.977746,-0.09291 -12.729555,0.364796 -12.87585,0.130721 z m 3.333339,-13.398735 c 3.597206,2.349862 6.051418,6.184318 13.660171,0.784315 6.64971,5.720024 9.84591,1.455351 12.35298,-0.588236 -0.73937,1.942264 -6.15846,8.94453 -12.35298,1.633994 -6.625964,6.084442 -11.471293,1.075901 -13.660171,-1.830073 z M 102.99384,19.235772 c 0.32073,3.188162 -2.72212,8.857801 -9.607866,6.162953 -0.33263,-0.130181 -0.80902,0.01651 -1.241837,0.438372 -1.222231,1.19126 -1.596145,4.404555 -1.503266,4.444455 -0.259595,0 -0.860939,-3.641756 0.484588,-5.920658 0.29795,-0.504636 -0.478048,-1.545427 -0.942109,-1.791781 -1.417798,-0.752667 -3.570597,-0.174963 -4.379098,1.111108 -0.575655,0.915693 -0.266114,2.841582 1.045758,2.418312 1.449113,-0.467553 0.584029,-1.96079 0.130715,-1.96079 0.160316,-0.213753 2.03253,0.699839 0.915037,2.352948 -0.772451,1.142684 -2.785495,0.805234 -3.283163,-0.703778 -0.820442,-2.487737 0.772261,-4.173485 2.44074,-5.097371 0.994021,-0.550422 3.65289,-0.538733 3.65289,-0.538733 3.316079,5.983002 9.588181,6.052757 12.287611,-0.915037 z m 6.60133,-0.06533 c 0.77962,4.36715 9.58532,7.935536 11.96082,0.653593 0,0 2.6173,-0.486161 3.92158,-0.310454 1.70937,0.230275 3.81591,1.51558 3.52942,3.513073 -0.15612,1.088602 -1.72717,2.253283 -2.71242,1.764719 -1.96751,-0.975648 -0.55351,-2.842128 -0.22876,-2.679753 -0.22345,0.238372 -0.71368,1.905108 0.58823,1.69935 1.24687,-0.197056 1.41993,-1.438155 0.0327,-2.336602 -0.99713,-0.645795 -2.75467,-0.368778 -4.08498,-0.14706 0.10187,0.03182 -1.81363,2.272824 -1.43791,2.549026 1.94675,1.431168 2.70849,3.95099 1.37255,4.836615 0.24759,-0.141476 0.91786,-2.902532 -2.81047,-3.725497 -0.39099,-0.0863 -0.74766,0.04173 -1.04575,0.130715 -3.97847,1.187318 -8.79444,-0.443178 -9.08499,-5.947725 z M 122.27495,12.1116 c -0.12805,0.871463 -0.23394,1.742918 0.0653,2.614381 -4.31374,-0.445664 -8.62748,-0.160562 -12.94122,-0.130714 0.19307,-0.591243 0.0855,-1.483148 -0.0653,-2.41831 2.18302,1.738149 4.3967,2.066354 6.66669,-0.196079 1.8896,1.699233 3.94967,2.000597 6.27453,0.130722 z m -32.089072,3.455736 c 4.508133,-0.440712 8.873182,-0.63103 13.032982,-0.462165 -0.0615,-0.770427 0.0807,-1.744492 0.18487,-2.680539 -2.40957,2.191301 -4.696457,1.622066 -6.932443,-0.09243 -1.734208,2.626231 -3.952764,2.454072 -6.470276,0.554595 0.106978,0.8595 0.393499,1.584337 0.184867,2.680539 z"
       inkscape:connector-curvature="0" />
    <path
       id="path853"
       style="fill:#241c1c;fill-rule:evenodd;stroke:#000000;stroke-width:0.3;stroke-linecap:butt;stroke-linejoin:miter;stroke-miterlimit:4;stroke-dasharray:none;stroke-opacity:1"
       d="m 101.10022,88.810781 c 3.31993,-0.752219 6.67481,-1.173817 10.16757,-0.369727 -2.18334,-1.82059 -5.12894,-3.752802 -10.16757,0.369727 z m 9.15081,-17.284885 c 2.50818,7.934008 12.75606,4.034138 12.66326,0 0.90606,8.873293 -13.969,8.680558 -12.66326,0 z m -19.780555,-0.18486 c 0.01096,9.486923 12.478105,10.039222 13.032985,0.09243 -3.31522,7.261721 -10.666834,6.91946 -13.032985,-0.09243 z m 20.473805,-6.146762 c -0.73301,0.0595 -1.04344,1.805529 0.13865,1.848653 3.49949,0.127659 7.73327,0.04447 11.0919,0.04622 1.1139,5.9e-4 0.9869,-2.083705 -0.18487,-1.941084 -2.82942,0.344383 -7.57115,-0.235691 -11.04568,0.04622 z m -19.641912,0.18486 c -0.722028,0.0049 -0.787905,2.04495 0.04622,2.033521 4.407182,-0.06041 8.227097,-0.252746 11.369202,-0.323512 1.4806,-0.03337 1.16279,-2.249936 -0.13865,-2.079736 -3.269788,0.427624 -8.765402,0.352194 -11.276767,0.369727 z"
       inkscape:connector-curvature="0" />
    <path
       id="path881"
       style="fill:#241c1c;fill-rule:evenodd;stroke:#000000;stroke-width:0.3;stroke-linecap:butt;stroke-linejoin:miter;stroke-miterlimit:4;stroke-dasharray:none;stroke-opacity:1"
       d="m 97.772785,189.90861 c 0,0 -0.855608,-0.008 -1.160134,-0.26144 -0.277445,-0.23122 -0.408588,-0.63593 -0.424836,-0.99673 -0.0673,-1.49453 -0.0477,-3.1861 0.17974,-4.73858 0.07659,-0.52274 0.66798,-0.91871 1.176472,-1.06209 0.485298,-0.13684 1.107168,-0.0539 1.486934,0.27778 0.613602,0.53591 0.666413,1.51193 0.767976,2.32026 0.117072,0.93178 -0.11434,1.87493 -0.196079,2.81047 -0.09837,1.12594 -1.550064,2.8109 -1.579364,2.79693 0.06807,0.0577 1.040286,-2.0985 0.704937,-3.62001 -0.172181,-0.78123 0.0808,-1.94006 0.192117,-2.73225 0.08796,-0.62599 -0.330165,-1.2437 -0.918999,-1.31397 -0.641328,-0.0765 -1.078338,0.5338 -1.094776,1.12746 -0.03428,1.23838 -0.03063,2.60145 -0.130721,3.85622 -0.02592,0.32528 0.07922,0.68992 0.473854,0.75163 0.31044,0.0485 0.522879,0.78432 0.522879,0.78432 z m -1.797388,-0.0654 c -1.662788,0.51695 -3.579152,-1.60246 -0.751636,-2.48366 l 0.06533,-0.58824 c -2.198024,0.70792 -1.529953,-1.33927 -0.06533,-1.53595 -2.456967,-0.20157 -1.309906,-1.93846 0.3268,-1.79739 l 0.228757,-0.75163 c 0,0 -1.669855,0.19166 -2.483667,0.39215 -0.415093,0.10226 -0.809786,0.60663 -0.784315,1.27452 0.05662,1.48511 -0.0529,3.14393 0.06533,4.70589 0.03442,0.45498 0.324777,0.89579 0.718957,0.91504 0.769353,0.0376 2.287588,0.3268 2.287588,0.3268 z m -2.254909,1.69936 c 1.597094,0.63447 3.119425,0.82113 4.542497,0.0654 0.351597,0.85917 0.792794,1.56902 1.40523,1.99346 -3.635118,-2.60906 -3.567358,1.01865 -3.790861,4.5425 -0.63051,-1.71736 0.929894,-8.29767 -3.202617,-4.01962 0.707282,-0.80079 0.840933,-1.6972 1.045751,-2.58174 z m 23.170002,-11.27454 c 0.94713,0.23646 1.2153,2.08707 0.22876,2.71242 -1.21007,0.76704 -3.901,0.31511 -1.40523,-0.39216 -2.88484,-0.52183 -1.26925,-1.18479 0.19608,-1.50327 -1.61665,-0.39518 -1.70599,-1.48769 0.98039,-0.81699 z m -2.15687,-3.39871 c 0.13072,-0.22488 1.99347,-0.42665 1.99347,-0.13072 l -0.0327,2.74511 c 2.92933,1.82112 1.34212,4.13078 -0.35948,4.7059 0.1107,0 -0.082,0.98514 -0.45753,1.53595 -0.41519,0.60901 0.23928,1.36791 0.35948,1.63399 0.66071,1.46252 0.0365,3.1248 -0.45751,4.01962 -0.72412,1.31173 -0.7805,4.56281 -0.75164,4.57518 0,0 -0.57695,-4.26175 0.3268,-6.07845 0.53208,-1.06957 -0.0464,-1.68242 -0.45752,-2.28759 -0.76321,-1.12342 -0.17262,-3.60875 -0.13071,-3.59478 -1.33025,-0.71547 -2.47493,-2.81669 0.098,-4.7059 z m -19.869338,0.817 c 0.770666,-1.06859 2.263135,-0.87558 2.843145,-0.13072 1.046082,1.34342 0.201903,3.45933 -0.784315,1.1438 -0.376415,2.70092 -1.448396,1.86038 -1.339872,-0.0653 -0.476966,1.31166 -2.140331,1.02309 -0.718958,-0.94775 z m 1.470594,-1.33988 c -3.288079,-0.0803 -3.11358,4.95424 0.130715,4.80394 3.042441,-0.14094 3.174701,-4.7232 -0.130715,-4.80394 z m 6.013084,2.94119 c 0.0663,0.45771 0.17418,0.92373 0.0327,1.33987 2.20252,0.0998 4.44285,0.0316 6.73205,0 -0.20281,-0.46841 -0.11291,-0.93682 -0.0653,-1.40523 -2.27742,1.32822 -4.50911,1.30781 -6.69939,0.0653 z M 90.992982,168.40524 c 0.764084,-0.37556 1.964862,-0.49398 2.988942,-0.52288 -0.169273,2.83303 5.122543,4.02916 5.032698,-0.0327 1.122768,0.0319 2.270668,0.28254 3.222108,0.48579 0.25902,3.49738 -8.057639,8.03905 -11.243748,0.0698 z m 11.845178,-0.55556 c -4.161234,-1.01584 -8.322462,-1.04285 -12.483697,0.0327 1.197286,8.86855 12.444457,7.23859 12.483697,-0.0327 z m 6.95848,0.24394 c 0.64968,-0.56146 1.8046,-0.76369 3.00887,-0.83218 0.19101,3.04517 4.95378,3.68265 5.09805,-0.098 1.44989,0.0424 2.28125,0.29742 3.13727,0.58823 0.46868,4.24555 -9.38291,7.43475 -11.24419,0.34198 z m -0.74931,-0.44001 c 4.22659,-1.48935 8.45318,-1.42309 12.67977,-0.3268 0.42055,7.72792 -11.67074,8.70257 -12.67977,0.3268 z m -5.81701,-4.96734 c -5.688822,0.0805 -11.353358,0.0154 -17.124233,0.58824 -0.187059,-0.72197 -0.05992,-1.54866 0,-2.35295 5.580557,0.69687 11.305947,0.88679 17.058863,0.98039 z m 6.07845,-0.39216 0.3268,1.17648 c 6.02599,-0.84642 11.92524,-0.86902 17.77782,-0.58824 -0.0328,-0.93898 -0.006,-1.88987 -0.45751,-2.74511 -5.73391,0.96639 -11.18448,2.40502 -17.64711,2.15687 z"
       inkscape:connector-curvature="0"
       sodipodi:nodetypes="ccccscsscccccccccccccccccccccccccccsccccccccccccccccscccscsccccccccccccccccccccccccccccccccc" />
    <path
       id="path874"
       style="color:#000000;clip-rule:nonzero;display:inline;overflow:visible;visibility:visible;isolation:auto;mix-blend-mode:normal;color-interpolation:sRGB;color-interpolation-filters:linearRGB;solid-color:#000000;solid-opacity:1;fill:#241c1c;fill-opacity:1;fill-rule:evenodd;stroke:#000000;stroke-width:0.3;stroke-linecap:round;stroke-linejoin:round;stroke-miterlimit:4;stroke-dasharray:none;stroke-dashoffset:0;stroke-opacity:1;paint-order:normal;color-rendering:auto;image-rendering:auto;shape-rendering:auto;text-rendering:auto;enable-background:accumulate"
       d="m 54.13649,28.991085 c 0,0.505332 -0.569388,0.885031 -1.050069,0.885031 -0.480681,0 -0.87035,-0.409652 -0.87035,-0.914984 0,-0.505331 0.389669,-0.914983 0.87035,-0.914983 0.480681,0 1.050069,0.439605 1.050069,0.944936 z M 35.076869,28.737968 c 0,0.43138 -0.401763,0.613074 -0.825717,0.781083 -0.619769,0.245608 -0.874115,-0.277105 -0.825716,-0.781083 0.04123,-0.429405 0.369685,-0.781084 0.825716,-0.781084 0.456031,0 0.825717,0.349703 0.825717,0.781084 z m -3.340575,8.718241 c -0.478661,2.23861 1.456899,3.646297 2.628777,4.891639 0.841695,-1.451287 1.721839,-1.871506 1.868309,-3.654009 0.898865,3.043497 -1.13028,2.806407 -1.746944,7.445467 0.330578,-3.509368 -4.429822,-5.535138 -2.750142,-8.683097 z m -0.749452,-4.725686 c 0.469246,2.081505 2.059045,3.286524 3.047237,4.488978 1.127853,-1.56051 3.024751,-1.799863 2.824024,-4.309804 1.639477,3.19172 -2.61759,4.477672 -2.781749,7.124874 -0.07279,-2.570842 -3.655318,-4.499822 -3.089512,-7.304048 z m 0.220947,-4.799494 c -0.740558,2.430852 2.022926,3.528906 2.86194,4.903575 1.236085,-1.530781 3.714618,-3.879235 3.979868,-5.858519 1.197316,2.927101 -3.484161,5.354903 -4.050133,8.458082 0.426367,-2.426887 -4.772675,-4.657908 -2.791675,-7.503138 z m 18.97764,10.464168 c 0.852629,2.721996 2.538946,3.996654 2.495768,5.23618 0.33582,-2.080867 3.337857,-2.167771 3.192359,-4.96601 1.130012,3.454131 -3.289714,5.381798 -3.904991,8.715214 0.866696,-3.459101 -2.205365,-5.42756 -1.783136,-8.985384 z m -0.603446,-5.089342 c 0.06823,2.334153 2.136394,3.322843 3.365404,4.538512 1.3082,-1.524274 3.975991,-2.704367 3.828614,-5.193923 1.520048,3.033982 -2.890629,4.705375 -3.650457,7.961187 -0.386281,-2.562465 -4.747948,-4.30049 -3.543561,-7.305776 z M 49.216694,27.83216 c -0.584896,3.214161 2.770927,4.101956 3.703686,5.731893 1.110887,-1.755044 4.695965,-4.028939 4.119907,-6.523577 2.426577,3.405603 -3.24361,5.656822 -4.048643,8.844511 -0.497547,-2.654691 -5.269813,-3.690149 -3.77495,-8.052827 z m -4.72219,6.953621 c 0,0.517656 -0.45961,0.9373 -1.026566,0.9373 -0.566958,0 -1.026567,-0.419644 -1.026567,-0.9373 0,-0.517656 0.459609,-0.7255 1.026567,-0.7255 0.566956,0 1.026566,0.207844 1.026566,0.7255 z m 1.16047,0 c 0,1.158565 -0.979168,2.097767 -2.187034,2.097767 -1.207865,0 -2.187033,-0.939202 -2.187033,-2.097767 0,-1.158564 0.979168,-2.097766 2.187033,-2.097766 1.207865,0 2.187034,0.939201 2.187034,2.097766 z m 0.803395,-14.952164 c 2.488119,5.115632 10.556805,6.888738 12.408065,0.08927 0,0 4.139651,0.194982 6.1594,-0.178534 0.646941,-0.11964 1.509576,0.09455 1.249734,1.0712 -0.640032,2.405649 -1.997539,11.256018 -1.785334,11.202967 -0.167658,0.10669 9.83e-4,-7.9008 0.848032,-10.354933 0.247859,-0.718136 -0.268891,-1.023409 -1.338999,-0.892668 -1.080442,0.132004 -2.920016,-0.126588 -4.106266,0.267801 -0.645116,0.214479 -0.892666,1.919235 -0.892666,1.919235 1.402041,0.576965 3.963349,-0.162178 3.392132,1.0712 -1.424558,3.07592 -1.941273,12.190155 -1.874599,12.229531 -0.04621,0 -0.434051,-9.357665 0.624865,-11.133041 0.506813,-0.84972 0.250242,-0.935919 -0.734429,-0.952953 -0.900437,-0.01558 -2.573167,-0.214308 -2.791604,0.124262 -4.773581,3.797672 -11.206984,0.243715 -11.158331,-4.463334 z M 40.464601,19.48056 c 0.11982,4.550182 -8.630486,8.40615 -11.899491,0.908357 0,0 -4.149407,0.778109 -6.084429,0.194225 -1.112046,-0.335554 -1.437434,0.249413 -0.911497,1.418156 1.056857,2.348552 2.346841,10.396765 2.239513,10.38335 0,0 -0.246295,-7.292848 -0.967812,-9.304305 -0.60008,-1.672916 0.306164,-1.402794 1.590412,-1.228638 1.051992,0.14266 2.322783,-0.02298 3.225455,-0.0094 0.539035,0.0081 0.999194,1.2717 0.999194,1.2717 0,0 -1.21501,0.73911 -1.816715,0.545015 -0.736558,-0.237595 -0.854413,0.315856 -0.635852,1.180867 0.623233,2.466606 1.565306,10.88844 1.565306,10.88844 0,0 -0.04794,-7.869839 -0.656947,-10.070919 -0.181,-0.654172 -0.327823,-1.205235 0.785962,-1.153151 0.520369,0.02433 0.952557,-0.233701 1.394097,-0.118549 0.398504,0.103928 0.651863,0.505399 0.999194,0.726686 7.175169,4.57135 10.981185,-3.46229 10.17361,-5.631819 z m 18.16716,-3.270088 c -0.02695,-0.179372 -0.03724,-0.182754 -0.04473,-0.267948 -3.636754,-1.145426 -8.127169,-2.32126 -11.763924,-4.001335 -0.152966,0.63585 -0.517592,1.271701 0,1.907551 3.763226,1.306222 7.822205,1.725183 11.808654,2.361732 z m -29.884979,0.454177 c 0.032,-0.212804 0.03887,-0.33054 0.0726,-0.452406 3.815871,-1.184371 9.195145,-2.624357 12.826085,-4.271054 0.377081,0.614017 0.18392,1.076992 0.18167,1.453371 -4.229618,1.546778 -8.613178,2.554764 -13.080355,3.270089 z"
       inkscape:connector-curvature="0"
       sodipodi:nodetypes="ssssssssssccccccccccccccccccccccccccccccssssssssssccssccsscscscccccsscssccsscscssccccccccccccc" />
    <path
       id="path853-3"
       style="fill:#241c1c;fill-rule:evenodd;stroke:#000000;stroke-width:0.3;stroke-linecap:butt;stroke-linejoin:miter;stroke-miterlimit:4;stroke-dasharray:none;stroke-opacity:1"
       d="m 47.880431,106.89178 c -0.733014,0.0595 -1.04344,1.80553 0.138645,1.84866 3.403649,-0.59115 7.592877,-1.0085 11.091907,0.0462 1.113897,6e-4 0.949569,-1.61484 -0.184868,-1.94108 -2.350781,-0.67605 -4.926696,-1.43592 -11.045684,0.0462 z m -20.399365,-0.3201 c -0.639924,0.33443 -0.787905,2.04495 0.04622,2.03352 4.473656,-1.45644 8.279276,-1.34853 11.369197,-0.32351 1.480605,-0.0334 1.087141,-1.61052 -0.138645,-2.07974 -3.541255,-1.35556 -8.596516,-1.03103 -11.276774,0.36973 z m 16.609108,27.90503 a 0.69433169,0.72589216 0 0 1 -0.69433,0.72589 0.69433169,0.72589216 0 0 1 -0.694329,-0.72589 0.69433169,0.72589216 0 0 1 0.694329,-0.72589 0.69433169,0.72589216 0 0 1 0.69433,0.72589 z m -2.430167,-0.94682 c -0.824124,-1.041 1.306744,-4.06375 3.976627,-3.34541 2.261927,0.60857 3.47693,2.94265 2.935127,5.58621 -0.634613,3.09642 -4.231686,3.98463 -5.68089,6.24899 -0.302642,0.47287 -0.378733,1.64115 -0.378733,1.64115 0,0 0.415697,-1.25314 0.852138,-1.70428 1.430792,-1.47897 3.399666,-2.40187 4.891882,-3.78726 1.559203,-1.44757 2.002317,-4.3982 1.073056,-6.3121 -0.909607,-1.87343 -3.363314,-3.36212 -5.42841,-3.09293 -1.785165,0.2327 -3.543875,2.01327 -3.850381,3.78725 -0.259174,1.50005 0.631712,3.36994 2.082995,3.85039 1.159361,0.38381 2.640169,0.10351 3.282291,-1.1993 0.454136,-0.92141 0.120887,-2.07712 -0.946816,-2.7142 -1.649181,-0.98404 -3.027605,0.74037 -2.808886,1.04149 z m 10.383415,-17.57921 c -3.14727,1.73441 -0.165676,7.16205 3.345415,4.86032 2.813038,-1.84411 0.516845,-6.98873 -3.345415,-4.86032 z m -2.940542,5.46538 c -3.457795,-6.26855 5.788226,-10.79804 9.278798,-5.93337 3.918744,5.4614 -5.610342,12.58384 -9.278798,5.93337 z m 11.90373,3.24532 c 0.525633,-0.0657 0.367761,-6.89238 -1.767385,-9.72064 -2.832314,-3.75173 -8.972763,-3.32971 -10.97541,0.61273 -3.244239,6.38667 3.412247,12.11477 9.018654,8.1611 1.989511,-1.40301 3.896118,0.50732 3.724141,0.94681 z m -25.532466,-8.14261 c -3.4452,-1.83956 -6.2749,3.92441 -2.082996,5.96494 2.709369,1.31886 6.76305,-3.46603 2.082996,-5.96494 z m -4.765642,-0.8837 c -6.644874,4.55146 1.821264,13.27068 6.817076,8.14262 4.994378,-5.1266 -0.599336,-12.40151 -6.817076,-8.14262 z m -4.292231,11.10931 c -0.209074,-0.38485 0.697477,-4.47587 0.536528,-6.37523 -0.467806,-5.52061 7.395211,-9.34412 11.330231,-5.55465 6.114191,5.88802 -2.241604,13.36496 -5.90723,11.05702 -3.137394,-1.97536 -6.000616,0.36135 -5.959529,0.87286 z"
       inkscape:connector-curvature="0" />
    <path
       id="path1630-6-7"
       style="color:#000000;clip-rule:nonzero;display:inline;overflow:visible;visibility:visible;isolation:auto;mix-blend-mode:normal;color-interpolation:sRGB;color-interpolation-filters:linearRGB;solid-color:#000000;solid-opacity:1;fill:#241c1c;fill-opacity:1;fill-rule:evenodd;stroke:#000000;stroke-width:0.3;stroke-linecap:round;stroke-linejoin:round;stroke-miterlimit:4;stroke-dasharray:none;stroke-dashoffset:0;stroke-opacity:1;paint-order:normal;color-rendering:auto;image-rendering:auto;shape-rendering:auto;text-rendering:auto;enable-background:accumulate"
       d="m 40.81779,161.65815 c -6.032919,-0.47396 -12.570772,-1.27205 -19.101521,-2.06553 1.410664,-0.81873 -0.224462,-2.05176 -0.812417,-3.14235 2.124279,0.15904 7.943052,4.14991 5.934681,0.0227 2.878421,0.6173 9.243616,5.73604 7.841241,0.74695 2.048901,2.00512 4.182975,2.97663 6.370632,3.29786 z m 6.900494,-0.12924 0.08802,-1.00609 c 3.600244,0.16751 4.811233,-1.43987 6.448395,-2.73067 0.333425,3.97355 4.633815,-0.55114 7.081939,-1.28127 -1.071764,3.77419 3.39638,-0.32203 5.403026,-0.92124 -0.534119,1.19833 -1.518221,2.48369 -0.936886,3.46631 -5.678432,1.39124 -11.631006,1.58903 -18.08449,2.47299 z M 29.055291,194.0908 c 1e-6,0.43576 -0.395643,0.78902 -0.883695,0.78902 -0.488051,0 -0.883695,-0.35326 -0.883694,-0.78902 -10e-7,-0.43576 0.395643,-0.78901 0.883694,-0.78901 0.488052,0 0.883696,0.35325 0.883695,0.78901 z m 35.56872,1.26242 c 10e-7,0.45319 -0.353252,0.82057 -0.789013,0.82057 -0.435761,0 -0.789015,-0.36738 -0.789014,-0.82057 -10e-7,-0.4532 0.353253,-0.82058 0.789014,-0.82058 0.435761,0 0.789014,0.36738 0.789013,0.82058 z m -18.431348,-2.52483 c 0,0.41833 -0.367383,0.75745 -0.820573,0.75745 -0.45319,0 -0.820574,-0.33912 -0.820574,-0.75745 0,-0.41833 0.367384,-0.75745 0.820574,-0.75745 0.45319,0 0.820573,0.33912 0.820573,0.75745 z m 16.727079,5.23904 c -1.825368,0.17508 -1.28561,-2.62675 -2.840448,-4.29224 1.616222,0.0369 2.77788,-2.477 4.544715,-1.00992 -2.058993,-0.0851 -2.186913,0.91598 -3.02981,1.5149 0.218261,1.34842 0.08416,2.83235 1.325543,3.78726 z M 49.15935,188.6624 c -0.620889,-0.44179 -0.114914,-1.27841 0.504969,-0.94683 3.377483,1.80665 5.448442,2.96105 8.079497,4.41848 0.906034,0.50188 3.590897,-1.86087 3.913505,-0.94681 -1.008437,0.24625 -1.860525,1.76817 -2.840448,1.95675 0.510132,0.9681 0.801263,2.87584 1.70427,3.91352 -1.449354,0 -1.977157,-3.13271 -3.029813,-3.8504 -2.359603,-1.60877 -6.894495,-3.52187 -8.33198,-4.54471 z m -20.29342,8.45821 c 2.230489,-0.1502 1.761422,-3.26552 2.840447,-4.29223 -1.052715,0.20306 -2.004379,-2.36404 -4.229111,-1.70426 1.666118,0.12709 2.11208,1.38719 3.02981,2.20922 -0.485326,1.28711 -0.363794,2.81698 -1.641146,3.78727 z m 2.808887,-1.00993 c 0.965978,0.44655 1.138697,-2.61562 2.10914,-3.18985 1.72919,-1.02321 5.727691,-2.60704 8.432077,-4.06907 0.630731,-0.34099 -0.01055,-1.04974 -0.504969,-0.82058 -2.029325,0.94056 -5.255801,2.66424 -7.953252,3.47167 -1.027297,0.3075 -3.092823,-2.46462 -3.976628,-1.38868 1.654238,0.33908 2.048515,2.41464 3.27978,2.27937 -0.699644,0.32221 -0.541017,2.28517 -1.386148,3.71714 z m 6.56459,-3.72415 c 0.261448,-0.19608 3.84637,3.49027 5.428412,4.79721 0.975429,0.80581 2.936422,0.68391 3.787263,-0.2525 1.558422,-1.71515 4.824176,-5.23412 4.923442,-5.11279 -0.652509,-0.60991 -1.43334,-1.0915 -2.587963,-1.19929 -0.797242,0.81619 -1.749318,1.07498 -2.96669,0.3787 3.16157,5.51161 -5.627372,6.6404 -2.966689,0.18938 -1.157064,0.52381 -2.272515,0.46506 -3.345417,-0.18938 -0.783933,0.30401 -1.570324,0.59327 -2.272358,1.38867 z m 13.255422,-8.45822 c -1.775939,-1.15515 -0.509066,-3.61932 1.388664,-2.52484 1.925874,1.11071 -0.02899,3.40924 -1.388664,2.52484 z m -13.571027,-1.95675 c 2.249595,-0.82549 3.503871,1.87087 1.578026,2.90357 -2.035466,1.09148 -3.504819,-2.19654 -1.578026,-2.90357 z m -4.229111,-3.47166 c 4.799578,0.31646 8.518741,-1.34784 11.29867,-4.73408 3.121755,3.28441 6.788397,4.75252 10.919943,4.67096 -0.124183,-0.0249 0.557841,5.71218 0.378726,8.58447 -0.04689,0.75189 -1.325541,1.83051 -1.325541,1.83051 0.162076,0.0735 0.21462,-4.75951 -0.126244,-7.57453 -0.0814,-0.67223 -0.679084,-1.14914 -1.26242,-1.26242 -1.426452,-0.27702 -5.024559,-1.54983 -5.112806,-1.70427 -2.150575,3.51828 -5.020724,1.87545 -6.943318,0.12624 0.198198,0.22651 -2.918107,1.70214 -4.923442,1.95675 -0.663313,0.0842 -1.082101,0.77587 -1.26242,1.51491 -0.566063,2.32003 0.07284,6.99429 0.378725,6.94332 0,0 -1.950049,-0.82611 -2.019873,-1.70427 -0.217761,-2.73873 0.253804,-8.67931 0,-8.64759 z m 14.517844,-12.18237 c 0.757453,-0.41316 1.514906,-0.50621 2.272358,-0.56809 0.659008,4.43998 6.437359,4.69229 6.627712,0 0.793936,-0.12489 1.534296,-0.0355 2.209237,0.31561 -0.589326,8.74861 -10.473092,5.64288 -11.109307,0.25248 z m -1.1993,-0.50496 c 3.798991,-0.93118 7.85273,-1.5227 13.06606,-0.56809 0.04676,9.51683 -11.052671,8.65349 -13.06606,0.56809 z m -17.863261,0.8837 c 0.824486,-0.34434 1.555077,-0.40698 2.261529,-0.39722 0.163402,3.74069 6.156522,4.99531 6.575421,-0.17087 0.935001,-0.14766 1.80734,-0.0631 2.587963,0.37872 0.08866,7.61985 -10.439426,7.98839 -11.424913,0.18937 z m 12.308608,-0.94683 c -0.901102,11.3311 -12.885223,8.0061 -13.192303,0.50498 4.305916,-1.03775 8.650879,-1.70455 13.192303,-0.50498 z"
       inkscape:connector-curvature="0" />
  </g>
</svg>
