<?xml version="1.0" encoding="UTF-8" standalone="no"?>
<!-- Created with Inkscape (http://www.inkscape.org/) -->

<svg
   width="148mm"
   height="210mm"
   viewBox="0 0 148 210"
   version="1.1"
   id="svg5"
   inkscape:version="1.1.2 (0a00cf5339, 2022-02-04)"
   sodipodi:docname="cover_back.svg"
   xmlns:inkscape="http://www.inkscape.org/namespaces/inkscape"
   xmlns:sodipodi="http://sodipodi.sourceforge.net/DTD/sodipodi-0.dtd"
   xmlns="http://www.w3.org/2000/svg"
   xmlns:svg="http://www.w3.org/2000/svg"
   xmlns:rdf="http://www.w3.org/1999/02/22-rdf-syntax-ns#"
   xmlns:cc="http://creativecommons.org/ns#"
   xmlns:dc="http://purl.org/dc/elements/1.1/">
  <title
     id="title829">ffog_back_cover</title>
  <sodipodi:namedview
     id="namedview7"
     pagecolor="#ffffff"
     bordercolor="#666666"
     borderopacity="1.0"
     inkscape:pageshadow="2"
     inkscape:pageopacity="0.0"
     inkscape:pagecheckerboard="0"
     inkscape:document-units="mm"
     showgrid="false"
     inkscape:zoom="0.40567375"
     inkscape:cx="-23.417833"
     inkscape:cy="399.33567"
     inkscape:window-width="1600"
     inkscape:window-height="827"
     inkscape:window-x="0"
     inkscape:window-y="0"
     inkscape:window-maximized="1"
     inkscape:current-layer="layer1"
     objecttolerance="10000"
     gridtolerance="10"
     guidetolerance="1" />
  <defs
     id="defs2" />
  <g
     inkscape:label="Слой 1"
     inkscape:groupmode="layer"
     id="layer1">
    <path
       id="rect1673"
       style="fill:#916f6f;fill-rule:evenodd;stroke-width:3.89039;stroke-linecap:round;stroke-linejoin:round;stop-color:#000000"
       d="M 5.0830076e-6,0 H 148.00001 V 210 H 5.0830076e-6 Z" />
    <path
       id="rect846-3-6-0-7-5-6-4-3-9-29"
       style="fill:#e3dbdb;fill-rule:evenodd;stroke-width:0.251863;stroke-linecap:square;stop-color:#000000"
       d="M 0 0 L 0 47.494141 L 65.962891 47.494141 L 65.962891 0 L 0 0 z M 69.921875 0 L 69.921875 47.494141 L 135.88477 47.494141 L 135.88477 0 L 69.921875 0 z M 139.8418 0 L 139.8418 47.494141 L 205.80664 47.494141 L 205.80664 0 L 139.8418 0 z M 209.76367 0 L 209.76367 47.494141 L 275.72656 47.494141 L 275.72656 0 L 209.76367 0 z M 279.68555 0 L 279.68555 47.494141 L 345.64844 47.494141 L 345.64844 0 L 279.68555 0 z M 349.60547 0 L 349.60547 47.494141 L 415.57031 47.494141 L 415.57031 0 L 349.60547 0 z M 419.52734 0 L 419.52734 47.494141 L 485.49023 47.494141 L 485.49023 0 L 419.52734 0 z M 489.44922 0 L 489.44922 47.494141 L 555.41211 47.494141 L 555.41211 0 L 489.44922 0 z M 0 51.451172 L 0 65.962891 L 65.962891 65.962891 L 65.962891 51.451172 L 0 51.451172 z M 69.921875 51.451172 L 69.921875 65.962891 L 135.88477 65.962891 L 135.88477 51.451172 L 69.921875 51.451172 z M 139.8418 51.451172 L 139.8418 65.962891 L 205.80664 65.962891 L 205.80664 51.451172 L 139.8418 51.451172 z M 209.76367 51.451172 L 209.76367 65.962891 L 275.72656 65.962891 L 275.72656 51.451172 L 209.76367 51.451172 z M 279.68555 51.451172 L 279.68555 65.962891 L 345.64844 65.962891 L 345.64844 51.451172 L 279.68555 51.451172 z M 349.60547 51.451172 L 349.60547 65.962891 L 415.57031 65.962891 L 415.57031 51.451172 L 349.60547 51.451172 z M 419.52734 51.451172 L 419.52734 65.962891 L 485.49023 65.962891 L 485.49023 51.451172 L 419.52734 51.451172 z M 489.44922 51.451172 L 489.44922 65.962891 L 555.41211 65.962891 L 555.41211 51.451172 L 489.44922 51.451172 z M 0 69.921875 L 0 117.41406 L 65.962891 117.41406 L 65.962891 69.921875 L 0 69.921875 z M 69.921875 69.921875 L 69.921875 117.41406 L 135.88477 117.41406 L 135.88477 69.921875 L 69.921875 69.921875 z M 139.8418 69.921875 L 139.8418 117.41406 L 205.80664 117.41406 L 205.80664 69.921875 L 139.8418 69.921875 z M 209.76367 69.921875 L 209.76367 117.41406 L 275.72656 117.41406 L 275.72656 69.921875 L 209.76367 69.921875 z M 279.68555 69.921875 L 279.68555 117.41406 L 345.64844 117.41406 L 345.64844 69.921875 L 279.68555 69.921875 z M 349.60547 69.921875 L 349.60547 117.41406 L 415.57031 117.41406 L 415.57031 69.921875 L 349.60547 69.921875 z M 419.52734 69.921875 L 419.52734 117.41406 L 485.49023 117.41406 L 485.49023 69.921875 L 419.52734 69.921875 z M 489.44922 69.921875 L 489.44922 117.41406 L 555.41211 117.41406 L 555.41211 69.921875 L 489.44922 69.921875 z M 0 121.37305 L 0 135.88477 L 65.962891 135.88477 L 65.962891 121.37305 L 0 121.37305 z M 69.921875 121.37305 L 69.921875 135.88477 L 135.88477 135.88477 L 135.88477 121.37305 L 69.921875 121.37305 z M 139.8418 121.37305 L 139.8418 135.88477 L 205.80664 135.88477 L 205.80664 121.37305 L 139.8418 121.37305 z M 209.76367 121.37305 L 209.76367 135.88477 L 275.72656 135.88477 L 275.72656 121.37305 L 209.76367 121.37305 z M 279.68555 121.37305 L 279.68555 135.88477 L 345.64844 135.88477 L 345.64844 121.37305 L 279.68555 121.37305 z M 349.60547 121.37305 L 349.60547 135.88477 L 415.57031 135.88477 L 415.57031 121.37305 L 349.60547 121.37305 z M 419.52734 121.37305 L 419.52734 135.88477 L 485.49023 135.88477 L 485.49023 121.37305 L 419.52734 121.37305 z M 489.44922 121.37305 L 489.44922 135.88477 L 555.41211 135.88477 L 555.41211 121.37305 L 489.44922 121.37305 z M 0 139.8418 L 0 187.33594 L 65.962891 187.33594 L 65.962891 139.8418 L 0 139.8418 z M 69.921875 139.8418 L 69.921875 187.33594 L 135.88477 187.33594 L 135.88477 139.8418 L 69.921875 139.8418 z M 139.8418 139.8418 L 139.8418 187.33594 L 205.80664 187.33594 L 205.80664 139.8418 L 139.8418 139.8418 z M 209.76367 139.8418 L 209.76367 187.33594 L 275.72656 187.33594 L 275.72656 139.8418 L 209.76367 139.8418 z M 279.68555 139.8418 L 279.68555 187.33594 L 345.64844 187.33594 L 345.64844 139.8418 L 279.68555 139.8418 z M 349.60547 139.8418 L 349.60547 187.33594 L 415.57031 187.33594 L 415.57031 139.8418 L 349.60547 139.8418 z M 419.52734 139.8418 L 419.52734 187.33594 L 485.49023 187.33594 L 485.49023 139.8418 L 419.52734 139.8418 z M 489.44922 139.8418 L 489.44922 187.33594 L 555.41211 187.33594 L 555.41211 139.8418 L 489.44922 139.8418 z M 0 191.29492 L 0 205.80664 L 65.962891 205.80664 L 65.962891 191.29492 L 0 191.29492 z M 69.921875 191.29492 L 69.921875 205.80664 L 135.88477 205.80664 L 135.88477 191.29492 L 69.921875 191.29492 z M 139.8418 191.29492 L 139.8418 205.80664 L 205.80664 205.80664 L 205.80664 191.29492 L 139.8418 191.29492 z M 209.76367 191.29492 L 209.76367 205.80664 L 275.72656 205.80664 L 275.72656 191.29492 L 209.76367 191.29492 z M 279.68555 191.29492 L 279.68555 205.80664 L 345.64844 205.80664 L 345.64844 191.29492 L 279.68555 191.29492 z M 349.60547 191.29492 L 349.60547 205.80664 L 415.57031 205.80664 L 415.57031 191.29492 L 349.60547 191.29492 z M 419.52734 191.29492 L 419.52734 205.80664 L 485.49023 205.80664 L 485.49023 191.29492 L 419.52734 191.29492 z M 489.44922 191.29492 L 489.44922 205.80664 L 555.41211 205.80664 L 555.41211 191.29492 L 489.44922 191.29492 z M 0 209.76367 L 0 257.25781 L 65.962891 257.25781 L 65.962891 209.76367 L 0 209.76367 z M 69.921875 209.76367 L 69.921875 257.25781 L 135.88477 257.25781 L 135.88477 209.76367 L 69.921875 209.76367 z M 139.8418 209.76367 L 139.8418 257.25781 L 205.80664 257.25781 L 205.80664 209.76367 L 139.8418 209.76367 z M 209.76367 209.76367 L 209.76367 257.25781 L 275.72656 257.25781 L 275.72656 209.76367 L 209.76367 209.76367 z M 279.68555 209.76367 L 279.68555 257.25781 L 345.64844 257.25781 L 345.64844 209.76367 L 279.68555 209.76367 z M 349.60547 209.76367 L 349.60547 257.25781 L 415.57031 257.25781 L 415.57031 209.76367 L 349.60547 209.76367 z M 419.52734 209.76367 L 419.52734 257.25781 L 485.49023 257.25781 L 485.49023 209.76367 L 419.52734 209.76367 z M 489.44922 209.76367 L 489.44922 257.25781 L 555.41211 257.25781 L 555.41211 209.76367 L 489.44922 209.76367 z M 0 261.21484 L 0 275.72656 L 65.962891 275.72656 L 65.962891 261.21484 L 0 261.21484 z M 69.921875 261.21484 L 69.921875 275.72656 L 135.88477 275.72656 L 135.88477 261.21484 L 69.921875 261.21484 z M 139.8418 261.21484 L 139.8418 275.72656 L 205.80664 275.72656 L 205.80664 261.21484 L 139.8418 261.21484 z M 209.76367 261.21484 L 209.76367 275.72656 L 275.72656 275.72656 L 275.72656 261.21484 L 209.76367 261.21484 z M 279.68555 261.21484 L 279.68555 275.72656 L 345.64844 275.72656 L 345.64844 261.21484 L 279.68555 261.21484 z M 349.60547 261.21484 L 349.60547 275.72656 L 415.57031 275.72656 L 415.57031 261.21484 L 349.60547 261.21484 z M 419.52734 261.21484 L 419.52734 275.72656 L 485.49023 275.72656 L 485.49023 261.21484 L 419.52734 261.21484 z M 489.44922 261.21484 L 489.44922 275.72656 L 555.41211 275.72656 L 555.41211 261.21484 L 489.44922 261.21484 z M 0 279.68555 L 0 327.17773 L 65.962891 327.17773 L 65.962891 279.68555 L 0 279.68555 z M 69.921875 279.68555 L 69.921875 327.17773 L 135.88477 327.17773 L 135.88477 279.68555 L 69.921875 279.68555 z M 139.8418 279.68555 L 139.8418 327.17773 L 205.80664 327.17773 L 205.80664 279.68555 L 139.8418 279.68555 z M 209.76367 279.68555 L 209.76367 327.17773 L 275.72656 327.17773 L 275.72656 279.68555 L 209.76367 279.68555 z M 279.68555 279.68555 L 279.68555 327.17773 L 345.64844 327.17773 L 345.64844 279.68555 L 279.68555 279.68555 z M 349.60547 279.68555 L 349.60547 327.17773 L 415.57031 327.17773 L 415.57031 279.68555 L 349.60547 279.68555 z M 419.52734 279.68555 L 419.52734 327.17773 L 485.49023 327.17773 L 485.49023 279.68555 L 419.52734 279.68555 z M 489.44922 279.68555 L 489.44922 327.17773 L 555.41211 327.17773 L 555.41211 279.68555 L 489.44922 279.68555 z M 0 331.13672 L 0 345.64844 L 65.962891 345.64844 L 65.962891 331.13672 L 0 331.13672 z M 69.921875 331.13672 L 69.921875 345.64844 L 135.88477 345.64844 L 135.88477 331.13672 L 69.921875 331.13672 z M 139.8418 331.13672 L 139.8418 345.64844 L 205.80664 345.64844 L 205.80664 331.13672 L 139.8418 331.13672 z M 209.76367 331.13672 L 209.76367 345.64844 L 275.72656 345.64844 L 275.72656 331.13672 L 209.76367 331.13672 z M 279.68555 331.13672 L 279.68555 345.64844 L 345.64844 345.64844 L 345.64844 331.13672 L 279.68555 331.13672 z M 349.60547 331.13672 L 349.60547 345.64844 L 415.57031 345.64844 L 415.57031 331.13672 L 349.60547 331.13672 z M 419.52734 331.13672 L 419.52734 345.64844 L 485.49023 345.64844 L 485.49023 331.13672 L 419.52734 331.13672 z M 489.44922 331.13672 L 489.44922 345.64844 L 555.41211 345.64844 L 555.41211 331.13672 L 489.44922 331.13672 z M 0 349.60547 L 0 397.09961 L 65.962891 397.09961 L 65.962891 349.60547 L 0 349.60547 z M 69.921875 349.60547 L 69.921875 397.09961 L 135.88477 397.09961 L 135.88477 349.60547 L 69.921875 349.60547 z M 139.8418 349.60547 L 139.8418 397.09961 L 205.80664 397.09961 L 205.80664 349.60547 L 139.8418 349.60547 z M 209.76367 349.60547 L 209.76367 397.09961 L 275.72656 397.09961 L 275.72656 349.60547 L 209.76367 349.60547 z M 279.68555 349.60547 L 279.68555 397.09961 L 345.64844 397.09961 L 345.64844 349.60547 L 279.68555 349.60547 z M 349.60547 349.60547 L 349.60547 397.09961 L 415.57031 397.09961 L 415.57031 349.60547 L 349.60547 349.60547 z M 419.52734 349.60547 L 419.52734 397.09961 L 485.49023 397.09961 L 485.49023 349.60547 L 419.52734 349.60547 z M 489.44922 349.60547 L 489.44922 397.09961 L 555.41211 397.09961 L 555.41211 349.60547 L 489.44922 349.60547 z M 0 401.05859 L 0 415.57031 L 65.962891 415.57031 L 65.962891 401.05859 L 0 401.05859 z M 69.921875 401.05859 L 69.921875 415.57031 L 135.88477 415.57031 L 135.88477 401.05859 L 69.921875 401.05859 z M 139.8418 401.05859 L 139.8418 415.57031 L 205.80664 415.57031 L 205.80664 401.05859 L 139.8418 401.05859 z M 209.76367 401.05859 L 209.76367 415.57031 L 275.72656 415.57031 L 275.72656 401.05859 L 209.76367 401.05859 z M 279.68555 401.05859 L 279.68555 415.57031 L 345.64844 415.57031 L 345.64844 401.05859 L 279.68555 401.05859 z M 349.60547 401.05859 L 349.60547 415.57031 L 415.57031 415.57031 L 415.57031 401.05859 L 349.60547 401.05859 z M 419.52734 401.05859 L 419.52734 415.57031 L 485.49023 415.57031 L 485.49023 401.05859 L 419.52734 401.05859 z M 489.44922 401.05859 L 489.44922 415.57031 L 555.41211 415.57031 L 555.41211 401.05859 L 489.44922 401.05859 z M 0 419.52734 L 0 467.02148 L 65.962891 467.02148 L 65.962891 419.52734 L 0 419.52734 z M 69.921875 419.52734 L 69.921875 467.02148 L 135.88477 467.02148 L 135.88477 419.52734 L 69.921875 419.52734 z M 139.8418 419.52734 L 139.8418 467.02148 L 205.80664 467.02148 L 205.80664 419.52734 L 139.8418 419.52734 z M 209.76367 419.52734 L 209.76367 467.02148 L 275.72656 467.02148 L 275.72656 419.52734 L 209.76367 419.52734 z M 279.68555 419.52734 L 279.68555 467.02148 L 345.64844 467.02148 L 345.64844 419.52734 L 279.68555 419.52734 z M 349.60547 419.52734 L 349.60547 467.02148 L 415.57031 467.02148 L 415.57031 419.52734 L 349.60547 419.52734 z M 419.52734 419.52734 L 419.52734 467.02148 L 485.49023 467.02148 L 485.49023 419.52734 L 419.52734 419.52734 z M 489.44922 419.52734 L 489.44922 467.02148 L 555.41211 467.02148 L 555.41211 419.52734 L 489.44922 419.52734 z M 0 470.97852 L 0 485.49023 L 65.962891 485.49023 L 65.962891 470.97852 L 0 470.97852 z M 69.921875 470.97852 L 69.921875 485.49023 L 135.88477 485.49023 L 135.88477 470.97852 L 69.921875 470.97852 z M 139.8418 470.97852 L 139.8418 485.49023 L 205.80664 485.49023 L 205.80664 470.97852 L 139.8418 470.97852 z M 209.76367 470.97852 L 209.76367 485.49023 L 275.72656 485.49023 L 275.72656 470.97852 L 209.76367 470.97852 z M 279.68555 470.97852 L 279.68555 485.49023 L 345.64844 485.49023 L 345.64844 470.97852 L 279.68555 470.97852 z M 349.60547 470.97852 L 349.60547 485.49023 L 415.57031 485.49023 L 415.57031 470.97852 L 349.60547 470.97852 z M 419.52734 470.97852 L 419.52734 485.49023 L 485.49023 485.49023 L 485.49023 470.97852 L 419.52734 470.97852 z M 489.44922 470.97852 L 489.44922 485.49023 L 555.41211 485.49023 L 555.41211 470.97852 L 489.44922 470.97852 z M 0 489.44922 L 0 536.94141 L 65.962891 536.94141 L 65.962891 489.44922 L 0 489.44922 z M 69.921875 489.44922 L 69.921875 536.94141 L 135.88477 536.94141 L 135.88477 489.44922 L 69.921875 489.44922 z M 139.8418 489.44922 L 139.8418 536.94141 L 205.80664 536.94141 L 205.80664 489.44922 L 139.8418 489.44922 z M 209.76367 489.44922 L 209.76367 536.94141 L 275.72656 536.94141 L 275.72656 489.44922 L 209.76367 489.44922 z M 279.68555 489.44922 L 279.68555 536.94141 L 345.64844 536.94141 L 345.64844 489.44922 L 279.68555 489.44922 z M 349.60547 489.44922 L 349.60547 536.94141 L 415.57031 536.94141 L 415.57031 489.44922 L 349.60547 489.44922 z M 419.52734 489.44922 L 419.52734 536.94141 L 485.49023 536.94141 L 485.49023 489.44922 L 419.52734 489.44922 z M 489.44922 489.44922 L 489.44922 536.94141 L 555.41211 536.94141 L 555.41211 489.44922 L 489.44922 489.44922 z M 0 540.90039 L 0 555.41211 L 65.962891 555.41211 L 65.962891 540.90039 L 0 540.90039 z M 69.921875 540.90039 L 69.921875 555.41211 L 135.88477 555.41211 L 135.88477 540.90039 L 69.921875 540.90039 z M 139.8418 540.90039 L 139.8418 555.41211 L 205.80664 555.41211 L 205.80664 540.90039 L 139.8418 540.90039 z M 209.76367 540.90039 L 209.76367 555.41211 L 275.72656 555.41211 L 275.72656 540.90039 L 209.76367 540.90039 z M 279.68555 540.90039 L 279.68555 555.41211 L 345.64844 555.41211 L 345.64844 540.90039 L 279.68555 540.90039 z M 349.60547 540.90039 L 349.60547 555.41211 L 415.57031 555.41211 L 415.57031 540.90039 L 349.60547 540.90039 z M 419.52734 540.90039 L 419.52734 555.41211 L 485.49023 555.41211 L 485.49023 540.90039 L 419.52734 540.90039 z M 489.44922 540.90039 L 489.44922 555.41211 L 555.41211 555.41211 L 555.41211 540.90039 L 489.44922 540.90039 z M 0 559.36914 L 0 606.86328 L 65.962891 606.86328 L 65.962891 559.36914 L 0 559.36914 z M 69.921875 559.36914 L 69.921875 606.86328 L 135.88477 606.86328 L 135.88477 559.36914 L 69.921875 559.36914 z M 139.8418 559.36914 L 139.8418 606.86328 L 205.80664 606.86328 L 205.80664 559.36914 L 139.8418 559.36914 z M 209.76367 559.36914 L 209.76367 606.86328 L 275.72656 606.86328 L 275.72656 559.36914 L 209.76367 559.36914 z M 279.68555 559.36914 L 279.68555 606.86328 L 345.64844 606.86328 L 345.64844 559.36914 L 279.68555 559.36914 z M 349.60547 559.36914 L 349.60547 606.86328 L 415.57031 606.86328 L 415.57031 559.36914 L 349.60547 559.36914 z M 419.52734 559.36914 L 419.52734 606.86328 L 485.49023 606.86328 L 485.49023 559.36914 L 419.52734 559.36914 z M 489.44922 559.36914 L 489.44922 606.86328 L 555.41211 606.86328 L 555.41211 559.36914 L 489.44922 559.36914 z M 0 610.82227 L 0 625.33398 L 65.962891 625.33398 L 65.962891 610.82227 L 0 610.82227 z M 69.921875 610.82227 L 69.921875 625.33398 L 135.88477 625.33398 L 135.88477 610.82227 L 69.921875 610.82227 z M 139.8418 610.82227 L 139.8418 625.33398 L 205.80664 625.33398 L 205.80664 610.82227 L 139.8418 610.82227 z M 209.76367 610.82227 L 209.76367 625.33398 L 275.72656 625.33398 L 275.72656 610.82227 L 209.76367 610.82227 z M 279.68555 610.82227 L 279.68555 625.33398 L 345.64844 625.33398 L 345.64844 610.82227 L 279.68555 610.82227 z M 349.60547 610.82227 L 349.60547 625.33398 L 415.57031 625.33398 L 415.57031 610.82227 L 349.60547 610.82227 z M 419.52734 610.82227 L 419.52734 625.33398 L 485.49023 625.33398 L 485.49023 610.82227 L 419.52734 610.82227 z M 489.44922 610.82227 L 489.44922 625.33398 L 555.41211 625.33398 L 555.41211 610.82227 L 489.44922 610.82227 z M 0 629.29102 L 0 676.78516 L 65.962891 676.78516 L 65.962891 629.29102 L 0 629.29102 z M 69.921875 629.29102 L 69.921875 676.78516 L 135.88477 676.78516 L 135.88477 629.29102 L 69.921875 629.29102 z M 139.8418 629.29102 L 139.8418 676.78516 L 205.80664 676.78516 L 205.80664 629.29102 L 139.8418 629.29102 z M 209.76367 629.29102 L 209.76367 676.78516 L 275.72656 676.78516 L 275.72656 629.29102 L 209.76367 629.29102 z M 279.68555 629.29102 L 279.68555 676.78516 L 345.64844 676.78516 L 345.64844 629.29102 L 279.68555 629.29102 z M 349.60547 629.29102 L 349.60547 676.78516 L 415.57031 676.78516 L 415.57031 629.29102 L 349.60547 629.29102 z M 419.52734 629.29102 L 419.52734 676.78516 L 485.49023 676.78516 L 485.49023 629.29102 L 419.52734 629.29102 z M 489.44922 629.29102 L 489.44922 676.78516 L 555.41211 676.78516 L 555.41211 629.29102 L 489.44922 629.29102 z M 0 680.74219 L 0 695.25391 L 65.962891 695.25391 L 65.962891 680.74219 L 0 680.74219 z M 69.921875 680.74219 L 69.921875 695.25391 L 135.88477 695.25391 L 135.88477 680.74219 L 69.921875 680.74219 z M 139.8418 680.74219 L 139.8418 695.25391 L 205.80664 695.25391 L 205.80664 680.74219 L 139.8418 680.74219 z M 209.76367 680.74219 L 209.76367 695.25391 L 275.72656 695.25391 L 275.72656 680.74219 L 209.76367 680.74219 z M 279.68555 680.74219 L 279.68555 695.25391 L 345.64844 695.25391 L 345.64844 680.74219 L 279.68555 680.74219 z M 349.60547 680.74219 L 349.60547 695.25391 L 415.57031 695.25391 L 415.57031 680.74219 L 349.60547 680.74219 z M 419.52734 680.74219 L 419.52734 695.25391 L 485.49023 695.25391 L 485.49023 680.74219 L 419.52734 680.74219 z M 489.44922 680.74219 L 489.44922 695.25391 L 555.41211 695.25391 L 555.41211 680.74219 L 489.44922 680.74219 z M 0 699.21289 L 0 746.70508 L 65.962891 746.70508 L 65.962891 699.21289 L 0 699.21289 z M 69.921875 699.21289 L 69.921875 746.70508 L 135.88477 746.70508 L 135.88477 699.21289 L 69.921875 699.21289 z M 139.8418 699.21289 L 139.8418 746.70508 L 205.80664 746.70508 L 205.80664 699.21289 L 139.8418 699.21289 z M 209.76367 699.21289 L 209.76367 746.70508 L 275.72656 746.70508 L 275.72656 699.21289 L 209.76367 699.21289 z M 279.68555 699.21289 L 279.68555 746.70508 L 345.64844 746.70508 L 345.64844 699.21289 L 279.68555 699.21289 z M 349.60547 699.21289 L 349.60547 746.70508 L 415.57031 746.70508 L 415.57031 699.21289 L 349.60547 699.21289 z M 419.52734 699.21289 L 419.52734 746.70508 L 485.49023 746.70508 L 485.49023 699.21289 L 419.52734 699.21289 z M 489.44922 699.21289 L 489.44922 746.70508 L 555.41211 746.70508 L 555.41211 699.21289 L 489.44922 699.21289 z M 0 750.66406 L 0 765.17578 L 65.962891 765.17578 L 65.962891 750.66406 L 0 750.66406 z M 69.921875 750.66406 L 69.921875 765.17578 L 135.88477 765.17578 L 135.88477 750.66406 L 69.921875 750.66406 z M 139.8418 750.66406 L 139.8418 765.17578 L 205.80664 765.17578 L 205.80664 750.66406 L 139.8418 750.66406 z M 209.76367 750.66406 L 209.76367 765.17578 L 275.72656 765.17578 L 275.72656 750.66406 L 209.76367 750.66406 z M 279.68555 750.66406 L 279.68555 765.17578 L 345.64844 765.17578 L 345.64844 750.66406 L 279.68555 750.66406 z M 349.60547 750.66406 L 349.60547 765.17578 L 415.57031 765.17578 L 415.57031 750.66406 L 349.60547 750.66406 z M 419.52734 750.66406 L 419.52734 765.17578 L 485.49023 765.17578 L 485.49023 750.66406 L 419.52734 750.66406 z M 489.44922 750.66406 L 489.44922 765.17578 L 555.41211 765.17578 L 555.41211 750.66406 L 489.44922 750.66406 z M 0 769.13281 L 0 793.70117 L 65.962891 793.70117 L 65.962891 769.13281 L 0 769.13281 z M 69.921875 769.13281 L 69.921875 793.70117 L 135.88477 793.70117 L 135.88477 769.13281 L 69.921875 769.13281 z M 139.8418 769.13281 L 139.8418 793.70117 L 205.80664 793.70117 L 205.80664 769.13281 L 139.8418 769.13281 z M 209.76367 769.13281 L 209.76367 793.70117 L 275.72656 793.70117 L 275.72656 769.13281 L 209.76367 769.13281 z M 279.68555 769.13281 L 279.68555 793.70117 L 345.64844 793.70117 L 345.64844 769.13281 L 279.68555 769.13281 z M 349.60547 769.13281 L 349.60547 793.70117 L 415.57031 793.70117 L 415.57031 769.13281 L 349.60547 769.13281 z M 419.52734 769.13281 L 419.52734 793.70117 L 485.49023 793.70117 L 485.49023 769.13281 L 419.52734 769.13281 z M 489.44922 769.13281 L 489.44922 793.70117 L 555.41211 793.70117 L 555.41211 769.13281 L 489.44922 769.13281 z "
       transform="scale(0.26458333)" />
  </g>
  <metadata
     id="metadata823">
    <rdf:RDF>
      <cc:Work
         rdf:about="">
        <dc:date>2023/02/25</dc:date>
        <dc:creator>
          <cc:Agent>
            <dc:title>Emil Viesná [regnveig]</dc:title>
          </cc:Agent>
        </dc:creator>
        <dc:contributor>
          <cc:Agent>
            <dc:title>Emil Viesná, Anna Lazarenko</dc:title>
          </cc:Agent>
        </dc:contributor>
        <dc:description>Back cover for book &quot;Flowers for the Old Woman&quot; by Emil Viesná</dc:description>
        <dc:title>ffog_back_cover</dc:title>
        <cc:license
           rdf:resource="http://creativecommons.org/licenses/by/4.0/" />
      </cc:Work>
      <cc:License
         rdf:about="http://creativecommons.org/licenses/by/4.0/">
        <cc:permits
           rdf:resource="http://creativecommons.org/ns#Reproduction" />
        <cc:permits
           rdf:resource="http://creativecommons.org/ns#Distribution" />
        <cc:requires
           rdf:resource="http://creativecommons.org/ns#Notice" />
        <cc:requires
           rdf:resource="http://creativecommons.org/ns#Attribution" />
        <cc:permits
           rdf:resource="http://creativecommons.org/ns#DerivativeWorks" />
      </cc:License>
    </rdf:RDF>
  </metadata>
</svg>
