<?xml version="1.0" encoding="UTF-8" standalone="no"?>
<!-- Created with Inkscape (http://www.inkscape.org/) -->

<svg
   width="148mm"
   height="210mm"
   viewBox="0 0 148 210"
   version="1.1"
   id="svg5"
   inkscape:version="1.1.2 (0a00cf5339, 2022-02-04)"
   sodipodi:docname="cover_front_en.svg"
   xmlns:inkscape="http://www.inkscape.org/namespaces/inkscape"
   xmlns:sodipodi="http://sodipodi.sourceforge.net/DTD/sodipodi-0.dtd"
   xmlns="http://www.w3.org/2000/svg"
   xmlns:svg="http://www.w3.org/2000/svg"
   xmlns:rdf="http://www.w3.org/1999/02/22-rdf-syntax-ns#"
   xmlns:cc="http://creativecommons.org/ns#"
   xmlns:dc="http://purl.org/dc/elements/1.1/">
  <title
     id="title2359">ffog_front_cover_en</title>
  <sodipodi:namedview
     id="namedview7"
     pagecolor="#ffffff"
     bordercolor="#666666"
     borderopacity="1.0"
     inkscape:pageshadow="2"
     inkscape:pageopacity="0.0"
     inkscape:pagecheckerboard="0"
     inkscape:document-units="mm"
     showgrid="false"
     inkscape:zoom="0.5737093"
     inkscape:cx="283.24449"
     inkscape:cy="416.58729"
     inkscape:window-width="1600"
     inkscape:window-height="827"
     inkscape:window-x="0"
     inkscape:window-y="0"
     inkscape:window-maximized="1"
     inkscape:current-layer="layer1"
     objecttolerance="1"
     gridtolerance="10"
     guidetolerance="1" />
  <defs
     id="defs2">
    <rect
       x="-125.20465"
       y="919.32284"
       width="471.10757"
       height="266.12043"
       id="rect10668" />
    <rect
       x="95.913127"
       y="111.09737"
       width="286.78711"
       height="103.42757"
       id="rect2300" />
  </defs>
  <g
     inkscape:label="Слой 1"
     inkscape:groupmode="layer"
     id="layer1">
    <path
       id="rect1673"
       style="fill:#916f6f;fill-rule:evenodd;stroke-width:3.89039;stroke-linecap:round;stroke-linejoin:round;stop-color:#000000"
       d="M 1.0000001e-5,0 H 148.00001 V 210 H 1.0000001e-5 Z" />
    <path
       id="rect846-3-6-0-7-5-6-4-3-9-29"
       style="fill:#e3dbdb;fill-rule:evenodd;stroke-width:0.0666388;stroke-linecap:square;stop-color:#000000"
       d="M 0,0 V 12.566158 H 17.45268 V 0 Z M 18.50016,0 V 12.566158 H 35.95284 V 0 Z m 18.49965,0 v 12.566158 h 17.4532 V 0 Z M 55.49997,0 V 12.566158 H 72.95265 V 0 Z M 74.00013,0 V 12.566158 H 91.45282 V 0 Z m 18.49965,0 v 12.566158 h 17.4532 V 0 Z m 18.50016,0 v 12.566158 h 17.45268 V 0 Z m 18.50016,0 v 12.566158 h 17.45269 V 0 Z M 0,13.613122 v 3.839559 h 17.45268 v -3.839559 z m 18.50016,0 v 3.839559 h 17.45268 v -3.839559 z m 18.49965,0 v 3.839559 h 17.4532 v -3.839559 z m 18.50016,0 v 3.839559 h 17.45268 v -3.839559 z m 18.50016,0 v 3.839559 h 17.45269 v -3.839559 z m 18.49965,0 v 3.839559 h 17.4532 v -3.839559 z m 18.50016,0 v 3.839559 h 17.45268 v -3.839559 z m 18.50016,0 v 3.839559 h 17.45269 V 13.613122 Z M 0,18.500163 v 12.56564 h 17.45268 v -12.56564 z m 18.50016,0 v 12.56564 h 17.45268 v -12.56564 z m 18.49965,0 v 12.56564 h 17.4532 v -12.56564 z m 18.50016,0 v 12.56564 h 17.45268 v -12.56564 z m 18.50016,0 v 12.56564 h 17.45269 v -12.56564 z m 18.49965,0 v 12.56564 h 17.4532 v -12.56564 z m 18.50016,0 v 12.56564 h 17.45268 v -12.56564 z m 18.50016,0 v 12.56564 h 17.45269 V 18.500163 Z M 0,32.113286 v 3.839559 h 17.45268 v -3.839559 z m 18.50016,0 v 3.839559 h 17.45268 v -3.839559 z m 18.49965,0 v 3.839559 h 17.4532 v -3.839559 z m 18.50016,0 v 3.839559 h 17.45268 v -3.839559 z m 18.50016,0 v 3.839559 h 17.45269 v -3.839559 z m 18.49965,0 v 3.839559 h 17.4532 v -3.839559 z m 18.50016,0 v 3.839559 h 17.45268 v -3.839559 z m 18.50016,0 v 3.839559 h 17.45269 V 32.113286 Z M 0,36.999809 V 49.565967 H 17.45268 V 36.999809 Z m 18.50016,0 V 49.565967 H 35.95284 V 36.999809 Z m 18.49965,0 v 12.566158 h 17.4532 V 36.999809 Z m 18.50016,0 V 49.565967 H 72.95265 V 36.999809 Z m 18.50016,0 V 49.565967 H 91.45282 V 36.999809 Z m 18.49965,0 v 12.566158 h 17.4532 V 36.999809 Z m 18.50016,0 v 12.566158 h 17.45268 V 36.999809 Z m 18.50016,0 v 12.566158 h 17.45269 V 36.999809 Z M 0,50.613447 v 3.839559 h 17.45268 v -3.839559 z m 18.50016,0 v 3.839559 h 17.45268 v -3.839559 z m 18.49965,0 v 3.839559 h 17.4532 v -3.839559 z m 18.50016,0 v 3.839559 h 17.45268 v -3.839559 z m 18.50016,0 v 3.839559 h 17.45269 v -3.839559 z m 18.49965,0 v 3.839559 h 17.4532 v -3.839559 z m 18.50016,0 v 3.839559 h 17.45268 v -3.839559 z m 18.50016,0 v 3.839559 h 17.45269 V 50.613447 Z M 0,55.49997 V 68.066128 H 17.45268 V 55.49997 Z m 18.50016,0 V 68.066128 H 35.95284 V 55.49997 Z m 18.49965,0 v 12.566158 h 17.4532 V 55.49997 Z m 18.50016,0 V 68.066128 H 72.95265 V 55.49997 Z m 18.50016,0 V 68.066128 H 91.45282 V 55.49997 Z m 18.49965,0 v 12.566158 h 17.4532 V 55.49997 Z m 18.50016,0 v 12.566158 h 17.45268 V 55.49997 Z m 18.50016,0 v 12.566158 h 17.45269 V 55.49997 Z M 0,69.113092 v 3.839559 h 17.45268 v -3.839559 z m 18.50016,0 v 3.839559 h 17.45268 v -3.839559 z m 18.49965,0 v 3.839559 h 17.4532 v -3.839559 z m 18.50016,0 v 3.839559 h 17.45268 v -3.839559 z m 18.50016,0 v 3.839559 h 17.45269 v -3.839559 z m 18.49965,0 v 3.839559 h 17.4532 v -3.839559 z m 18.50016,0 v 3.839559 h 17.45268 v -3.839559 z m 18.50016,0 v 3.839559 h 17.45269 V 69.113092 Z M 0,74.000134 V 86.565773 H 17.45268 V 74.000134 Z m 18.50016,0 V 86.565773 H 35.95284 V 74.000134 Z m 18.49965,0 v 12.565639 h 17.4532 V 74.000134 Z m 18.50016,0 V 86.565773 H 72.95265 V 74.000134 Z m 18.50016,0 V 86.565773 H 91.45282 V 74.000134 Z m 18.49965,0 v 12.565639 h 17.4532 V 74.000134 Z m 18.50016,0 v 12.565639 h 17.45268 V 74.000134 Z m 18.50016,0 v 12.565639 h 17.45269 V 74.000134 Z M 0,87.613256 v 3.839559 h 17.45268 v -3.839559 z m 18.50016,0 v 3.839559 h 17.45268 v -3.839559 z m 18.49965,0 v 3.839559 h 17.4532 v -3.839559 z m 18.50016,0 v 3.839559 h 17.45268 v -3.839559 z m 18.50016,0 v 3.839559 h 17.45269 v -3.839559 z m 18.49965,0 v 3.839559 h 17.4532 v -3.839559 z m 18.50016,0 v 3.839559 h 17.45268 v -3.839559 z m 18.50016,0 v 3.839559 h 17.45269 V 87.613256 Z M 0,92.499779 V 105.06594 H 17.45268 V 92.499779 Z m 18.50016,0 V 105.06594 H 35.95284 V 92.499779 Z m 18.49965,0 v 12.566161 h 17.4532 V 92.499779 Z m 18.50016,0 V 105.06594 H 72.95265 V 92.499779 Z m 18.50016,0 V 105.06594 H 91.45282 V 92.499779 Z m 18.49965,0 v 12.566161 h 17.4532 V 92.499779 Z m 18.50016,0 v 12.566161 h 17.45268 V 92.499779 Z m 18.50016,0 v 12.566161 h 17.45269 V 92.499779 Z M 0,106.11342 v 3.83956 h 17.45268 v -3.83956 z m 18.50016,0 v 3.83956 h 17.45268 v -3.83956 z m 18.49965,0 v 3.83956 h 17.4532 v -3.83956 z m 18.50016,0 v 3.83956 h 17.45268 v -3.83956 z m 18.50016,0 v 3.83956 h 17.45269 v -3.83956 z m 18.49965,0 v 3.83956 h 17.4532 v -3.83956 z m 18.50016,0 v 3.83956 h 17.45268 v -3.83956 z m 18.50016,0 v 3.83956 h 17.45269 v -3.83956 z M 0,110.99994 v 12.56616 h 17.45268 v -12.56616 z m 18.50016,0 v 12.56616 h 17.45268 v -12.56616 z m 18.49965,0 v 12.56616 h 17.4532 v -12.56616 z m 18.50016,0 v 12.56616 h 17.45268 v -12.56616 z m 18.50016,0 v 12.56616 h 17.45269 v -12.56616 z m 18.49965,0 v 12.56616 h 17.4532 v -12.56616 z m 18.50016,0 v 12.56616 h 17.45268 v -12.56616 z m 18.50016,0 v 12.56616 h 17.45269 V 110.99994 Z M 0,124.61307 v 3.83955 h 17.45268 v -3.83955 z m 18.50016,0 v 3.83955 h 17.45268 v -3.83955 z m 18.49965,0 v 3.83955 h 17.4532 v -3.83955 z m 18.50016,0 v 3.83955 h 17.45268 v -3.83955 z m 18.50016,0 v 3.83955 h 17.45269 v -3.83955 z m 18.49965,0 v 3.83955 h 17.4532 v -3.83955 z m 18.50016,0 v 3.83955 h 17.45268 v -3.83955 z m 18.50016,0 v 3.83955 h 17.45269 v -3.83955 z M 0,129.5001 v 12.56565 H 17.45268 V 129.5001 Z m 18.50016,0 v 12.56565 H 35.95284 V 129.5001 Z m 18.49965,0 v 12.56565 h 17.4532 V 129.5001 Z m 18.50016,0 v 12.56565 H 72.95265 V 129.5001 Z m 18.50016,0 v 12.56565 H 91.45282 V 129.5001 Z m 18.49965,0 v 12.56565 h 17.4532 V 129.5001 Z m 18.50016,0 v 12.56565 h 17.45268 V 129.5001 Z m 18.50016,0 v 12.56565 h 17.45269 V 129.5001 Z M 0,143.11323 v 3.83956 h 17.45268 v -3.83956 z m 18.50016,0 v 3.83956 h 17.45268 v -3.83956 z m 18.49965,0 v 3.83956 h 17.4532 v -3.83956 z m 18.50016,0 v 3.83956 h 17.45268 v -3.83956 z m 18.50016,0 v 3.83956 h 17.45269 v -3.83956 z m 18.49965,0 v 3.83956 h 17.4532 v -3.83956 z m 18.50016,0 v 3.83956 h 17.45268 v -3.83956 z m 18.50016,0 v 3.83956 h 17.45269 v -3.83956 z M 0,147.99975 v 12.56616 h 17.45268 v -12.56616 z m 18.50016,0 v 12.56616 h 17.45268 v -12.56616 z m 18.49965,0 v 12.56616 h 17.4532 v -12.56616 z m 18.50016,0 v 12.56616 h 17.45268 v -12.56616 z m 18.50016,0 v 12.56616 h 17.45269 v -12.56616 z m 18.49965,0 v 12.56616 h 17.4532 v -12.56616 z m 18.50016,0 v 12.56616 h 17.45268 v -12.56616 z m 18.50016,0 v 12.56616 h 17.45269 V 147.99975 Z M 0,161.61339 v 3.83956 h 17.45268 v -3.83956 z m 18.50016,0 v 3.83956 h 17.45268 v -3.83956 z m 18.49965,0 v 3.83956 h 17.4532 v -3.83956 z m 18.50016,0 v 3.83956 h 17.45268 v -3.83956 z m 18.50016,0 v 3.83956 h 17.45269 v -3.83956 z m 18.49965,0 v 3.83956 h 17.4532 v -3.83956 z m 18.50016,0 v 3.83956 h 17.45268 v -3.83956 z m 18.50016,0 v 3.83956 h 17.45269 v -3.83956 z M 0,166.49991 v 12.56616 h 17.45268 v -12.56616 z m 18.50016,0 v 12.56616 h 17.45268 v -12.56616 z m 18.49965,0 v 12.56616 h 17.4532 v -12.56616 z m 18.50016,0 v 12.56616 h 17.45268 v -12.56616 z m 18.50016,0 v 12.56616 h 17.45269 v -12.56616 z m 18.49965,0 v 12.56616 h 17.4532 v -12.56616 z m 18.50016,0 v 12.56616 h 17.45268 v -12.56616 z m 18.50016,0 v 12.56616 h 17.45269 V 166.49991 Z M 0,180.11304 v 3.83955 h 17.45268 v -3.83955 z m 18.50016,0 v 3.83955 h 17.45268 v -3.83955 z m 18.49965,0 v 3.83955 h 17.4532 v -3.83955 z m 18.50016,0 v 3.83955 h 17.45268 v -3.83955 z m 18.50016,0 v 3.83955 h 17.45269 v -3.83955 z m 18.49965,0 v 3.83955 h 17.4532 v -3.83955 z m 18.50016,0 v 3.83955 h 17.45268 v -3.83955 z m 18.50016,0 v 3.83955 h 17.45269 v -3.83955 z M 0,185.00007 v 12.56564 h 17.45268 v -12.56564 z m 18.50016,0 v 12.56564 h 17.45268 v -12.56564 z m 18.49965,0 v 12.56564 h 17.4532 v -12.56564 z m 18.50016,0 v 12.56564 h 17.45268 v -12.56564 z m 18.50016,0 v 12.56564 h 17.45269 v -12.56564 z m 18.49965,0 v 12.56564 h 17.4532 v -12.56564 z m 18.50016,0 v 12.56564 h 17.45268 v -12.56564 z m 18.50016,0 v 12.56564 h 17.45269 V 185.00007 Z M 0,198.61319 v 3.83956 h 17.45268 v -3.83956 z m 18.50016,0 v 3.83956 h 17.45268 v -3.83956 z m 18.49965,0 v 3.83956 h 17.4532 v -3.83956 z m 18.50016,0 v 3.83956 h 17.45268 v -3.83956 z m 18.50016,0 v 3.83956 h 17.45269 v -3.83956 z m 18.49965,0 v 3.83956 h 17.4532 v -3.83956 z m 18.50016,0 v 3.83956 h 17.45268 v -3.83956 z m 18.50016,0 v 3.83956 h 17.45269 v -3.83956 z M 0,203.49972 v 6.50037 h 17.45268 v -6.50037 z m 18.50016,0 v 6.50037 h 17.45268 v -6.50037 z m 18.49965,0 v 6.50037 h 17.4532 v -6.50037 z m 18.50016,0 v 6.50037 h 17.45268 v -6.50037 z m 18.50016,0 v 6.50037 h 17.45269 v -6.50037 z m 18.49965,0 v 6.50037 h 17.4532 v -6.50037 z m 18.50016,0 v 6.50037 h 17.45268 v -6.50037 z m 18.50016,0 v 6.50037 h 17.45269 v -6.50037 z" />
    <rect
       style="fill:#1a1a1a;fill-opacity:1;fill-rule:evenodd;stroke-width:0.190514;stroke-linecap:square;stop-color:#000000"
       id="rect5938-3"
       width="64.647446"
       height="77.839592"
       x="37.000008"
       y="50.61319" />
    <path
       style="fill:#483737;stroke:none;stroke-width:0.125302px;stroke-linecap:butt;stroke-linejoin:miter;stroke-opacity:1"
       d="m 77.41717,115.81952 2.37805,8.38548 8.75668,0.0863 2.34316,-8.54177 z"
       id="path64251-6" />
    <path
       id="path29383-6-2-6-4-7-7"
       style="fill:#6c5353;fill-opacity:1;stroke:none;stroke-width:0.082584px;stroke-linecap:butt;stroke-linejoin:miter;stroke-opacity:1"
       d="m 44.41685,58.547269 v 1.047201 16.100828 1.047199 H 67.30161 V 75.695298 59.59447 58.547269 h -1.04696 -20.7906 z m 1.0472,1.047201 h 20.7906 v 16.100828 h -20.7906 z" />
    <path
       style="fill:#c8b7b7;stroke:none;stroke-width:0.125302px;stroke-linecap:butt;stroke-linejoin:miter;stroke-opacity:1"
       d="m 101.64746,50.613191 -7.84415,7.934157 v 61.259562 l 7.84415,8.64586 z"
       id="path17284-5" />
    <path
       style="fill:#241c1c;fill-opacity:1;stroke:none;stroke-width:0.125302px;stroke-linecap:butt;stroke-linejoin:miter;stroke-opacity:1"
       d="m 37.00001,128.45277 7.41694,-8.64586 V 58.547348 h 49.38636 l 7.84415,-7.934157 H 37.00001 Z"
       id="path17450-3" />
    <path
       style="fill:#241c1c;stroke:none;stroke-width:0.117236px;stroke-linecap:butt;stroke-linejoin:miter;stroke-opacity:1"
       d="m 77.41717,115.81952 13.45859,0.0166 -0.17184,0.65522 -13.10259,0.009 z"
       id="path66507-5-5"
       sodipodi:nodetypes="ccccc" />
    <path
       style="opacity:0.2;fill:#000000;fill-opacity:1;stroke:none;stroke-width:0.264583px;stroke-linecap:butt;stroke-linejoin:miter;stroke-opacity:1"
       d="m 36.14539,129.61769 3.8652,5.02137 66.0885,0.19031 -3.80339,-5.44821 z"
       id="path4144-6" />
    <path
       style="fill:#999999;stroke:none;stroke-width:0.125302px;stroke-linecap:butt;stroke-linejoin:miter;stroke-opacity:1"
       d="m 35.95283,129.49997 -0.0136,2.01362 66.34632,0.0205 0.0101,-2.15295 z"
       id="path16829-2"
       sodipodi:nodetypes="ccccc" />
    <path
       style="fill:#808080;stroke:none;stroke-width:0.125302px;stroke-linecap:butt;stroke-linejoin:miter;stroke-opacity:1"
       d="m 35.25053,130.70892 0.67521,2.06648 66.34632,0.0205 0.70411,-2.13045 z"
       id="path16829-8-9"
       sodipodi:nodetypes="ccccc" />
    <path
       style="opacity:0.5;fill:#e3dbdb;stroke:none;stroke-width:0.125302px;stroke-linecap:butt;stroke-linejoin:miter;stroke-opacity:1"
       d="m 61.63862,80.870005 -3.92111,10.657068 c -0.75079,-1.530511 -3.53392,-2.288352 -4.60785,-2.237494 -1.88645,0.269748 -3.7421,1.248004 -5.60109,2.149578 -0.79641,-1.71095 -1.70257,-3.444272 -3.62873,-5.297207 l 0.53711,-5.001468 z"
       id="path19971-1"
       sodipodi:nodetypes="ccccccc" />
    <path
       style="opacity:0.5;fill:#e3dbdb;stroke:none;stroke-width:0.125302px;stroke-linecap:butt;stroke-linejoin:miter;stroke-opacity:1"
       d="m 61.63421,97.159244 c 1.93474,-0.965905 3.80925,-1.969436 6.11927,-3.107583 L 67.3017,81.140482 61.63862,80.870005 c -0.54676,5.228968 -2.87031,7.144818 -3.92111,10.657068 1.66934,1.159027 3.33279,2.329671 3.9167,5.632171 z"
       id="path20291-2"
       sodipodi:nodetypes="cccccc" />
    <path
       style="opacity:0.5;fill:#e3dbdb;stroke:none;stroke-width:0.125302px;stroke-linecap:butt;stroke-linejoin:miter;stroke-opacity:1"
       d="m 43.77159,102.61226 0.29579,-16.456178 c 3.20569,1.396022 2.74814,3.651673 3.44119,5.283075 l 0.67168,1.067147 c -1.49392,3.526415 -1.44241,6.98685 -2.71064,10.289286 z"
       id="path20459-7"
       sodipodi:nodetypes="cccccc" />
    <path
       style="opacity:0.5;fill:#e3dbdb;stroke:none;stroke-width:0.125302px;stroke-linecap:butt;stroke-linejoin:miter;stroke-opacity:1"
       d="m 67.75348,94.051661 c -2.23126,0.165607 -4.19619,1.541492 -6.11927,3.107583 l -3.00603,1.223695 c 0.0729,1.596963 0.58764,3.119661 0.36643,4.508241 0.10175,1.65857 0.183,3.30984 -0.61151,4.64966 l 2.37564,2.52231 0.98866,0.53051 0.22294,0.70875 3.48596,2.61027 c 0.98695,0.64848 1.60692,1.37339 2.36292,2.06996 z"
       id="path20817-0"
       sodipodi:nodetypes="ccccccccccc" />
    <path
       style="opacity:0.5;fill:#e3dbdb;stroke:none;stroke-width:0.125302px;stroke-linecap:butt;stroke-linejoin:miter;stroke-opacity:1"
       d="m 43.9354,102.29273 0.48155,17.51418 1.63324,0.40224 0.28631,-1.53609 1.42552,-3.26413 -2.34178,-6.04875 c -0.0422,-1.15365 -0.17058,-2.35752 -0.3958,-3.61781 0.25452,-0.93915 0.7436,-1.78301 0.44517,-2.94678 -0.5174,-0.26757 -0.96753,-0.44459 -1.53421,-0.50286 z"
       id="path21061-9"
       sodipodi:nodetypes="ccccccccc" />
    <path
       style="opacity:0.5;fill:#e3dbdb;stroke:none;stroke-width:0.125302px;stroke-linecap:butt;stroke-linejoin:miter;stroke-opacity:1"
       d="m 67.81922,115.98264 -0.51752,3.82427 -14.12303,0.6239 -0.44086,-13.97291 c 0.18164,0.0585 0.34997,0.16057 0.47851,0.39255 0.65367,-0.76688 1.38867,-1.40365 2.28368,-1.78444 l 2.8831,2.47483 c 0.92957,0.76524 2.22075,1.31058 2.37564,2.52231 0.55316,0.50339 1.32218,0.71185 0.98866,0.53051 0.41919,0.32147 0.27746,0.61731 0.22294,0.70875 1.47769,0.5378 2.66545,1.30478 3.48596,2.61027 z"
       id="path21063-3"
       sodipodi:nodetypes="cccccccccccc" />
    <path
       style="opacity:0.5;fill:#e3dbdb;stroke:none;stroke-width:0.125302px;stroke-linecap:butt;stroke-linejoin:miter;stroke-opacity:1"
       d="m 45.78733,120.00172 7.8848,0.37503 c 0.0414,-4.60574 0.18149,-8.7506 -0.93432,-13.91885 -0.49655,0.13887 -1.04036,0.14132 -1.60096,0.0953 -0.19904,0.80786 -0.45695,1.60766 -0.82511,2.39235 -0.31443,1.37227 -0.86644,2.57498 -1.47529,3.73712 -0.49854,0.3366 -0.74463,1.70198 -1.07443,2.72623 -0.55334,1.04629 -1.41813,1.91758 -1.69899,3.10944 -0.18443,0.5869 -0.19056,0.97998 -0.2757,1.48335 z"
       id="path21065-6"
       sodipodi:nodetypes="ccccccccc" />
    <path
       style="opacity:0.5;fill:#e3dbdb;stroke:none;stroke-width:0.125302px;stroke-linecap:butt;stroke-linejoin:miter;stroke-opacity:1"
       d="m 45.46961,102.79559 6.30165,-0.70967 c 0.072,-0.40348 0.3031,-0.76177 0.71395,-1.06902 -0.7575,-2.152868 -1.78041,-3.73523 -2.67879,-5.585257 l -1.62617,-2.925339 c -1.3572,2.37308 -2.69952,6.076349 -2.71064,10.289286 z"
       id="path21067-0"
       sodipodi:nodetypes="cccccc" />
    <path
       style="opacity:0.5;fill:#e3dbdb;stroke:none;stroke-width:0.125302px;stroke-linecap:butt;stroke-linejoin:miter;stroke-opacity:1"
       d="m 53.10966,89.289579 c 0.12883,0.366615 -0.0191,0.874802 -0.18017,1.572352 0.39229,1.656596 0.40713,2.81173 0.4793,3.870548 -1.03189,0.469836 -2.18269,0.765892 -3.52531,0.781624 -0.25881,-1.034735 -1.03839,-2.015298 -1.70323,-3.007799 -0.84174,-0.374585 -0.61157,-0.716431 -0.67168,-1.067147 1.63235,-1.377572 3.27629,-2.692786 5.60109,-2.149578 z"
       id="path21311-6"
       sodipodi:nodetypes="ccccccc" />
    <path
       style="opacity:0.4;fill:#e3dbdb;stroke:none;stroke-width:0.125302px;stroke-linecap:butt;stroke-linejoin:miter;stroke-opacity:1"
       d="m 45.46961,102.79559 c 0.92218,-0.21684 1.84931,-0.4552 2.69676,-0.3468 l 0.181,0.89074 0.0166,0.90328 0.25693,0.51228 0.17413,1.34143 c -0.63205,0.78155 -1.47473,1.47877 -2.38079,2.15061 -0.40901,-0.97952 -0.90971,-1.71468 -1.38981,-2.50476 0.15449,-0.95884 0.32777,-1.89305 0.44516,-2.94678 z"
       id="path21685-2"
       sodipodi:nodetypes="ccccccccc" />
    <path
       style="opacity:0.5;fill:#e3dbdb;stroke:none;stroke-width:0.125302px;stroke-linecap:butt;stroke-linejoin:miter;stroke-opacity:1"
       d="m 46.41427,108.24713 c -0.24755,0.4589 -0.63921,0.76666 -0.99403,1.11305 -0.42473,-1.13497 -0.45351,-2.36428 -0.3958,-3.61781 0.43068,0.85089 0.79762,1.73298 1.38983,2.50476 z"
       id="path21687-6"
       sodipodi:nodetypes="cccc" />
    <path
       style="opacity:0.5;fill:#e3dbdb;stroke:none;stroke-width:0.125302px;stroke-linecap:butt;stroke-linejoin:miter;stroke-opacity:1"
       d="m 48.79506,106.09652 c 0.73903,0.84217 1.35917,1.74921 1.46015,2.93956 l -1.46603,3.70559 -2.37491,-4.49454 c 0.90196,-0.9853 1.71438,-1.74879 2.38079,-2.15061 z"
       id="path21689-1"
       sodipodi:nodetypes="ccccc" />
    <path
       style="opacity:0.5;fill:#e3dbdb;stroke:none;stroke-width:0.125302px;stroke-linecap:butt;stroke-linejoin:miter;stroke-opacity:1"
       d="m 45.42024,109.36018 c 0.25966,-0.46346 0.50487,-0.94554 0.99403,-1.11305 1.12072,1.42846 2.0046,2.89905 2.37491,4.49454 l -1.02716,2.66726 c -0.61814,-2.03065 -1.19659,-4.06686 -2.34178,-6.04875 z"
       id="path21691-8"
       sodipodi:nodetypes="ccccc" />
    <path
       style="opacity:0.5;fill:#e3dbdb;stroke:none;stroke-width:0.125302px;stroke-linecap:butt;stroke-linejoin:miter;stroke-opacity:1"
       d="m 57.71751,91.527073 c 0.0178,-0.183518 -0.43662,0.47048 -0.0881,0.905381 l -1.43986,2.507212 0.19332,0.327525 -0.27476,0.09624 c -0.88572,-0.28441 -1.78017,-0.522845 -2.69937,-0.630949 0.29212,-1.275714 0.12686,-2.408206 -0.4793,-3.870548 -0.0348,-0.501354 -0.0645,-1.003944 0.18017,-1.572352 1.54565,-0.136335 3.05915,-0.317371 4.60785,2.237494 z"
       id="path21783-7"
       sodipodi:nodetypes="ccccccccc" />
    <path
       style="opacity:0.6;fill:#e3dbdb;stroke:none;stroke-width:0.125302px;stroke-linecap:butt;stroke-linejoin:miter;stroke-opacity:1"
       d="m 56.38292,95.267191 c 0.57013,1.305971 1.12281,2.440168 1.6232,3.059855 l 0.62206,0.05589 c 1.18072,-0.534609 2.38454,-1.085599 3.00603,-1.223695 0.82907,-3.265689 -2.37394,-4.531442 -3.9167,-5.632171 -0.62139,0.326468 -0.41626,0.587796 -0.0881,0.905381 -0.24782,1.316214 -0.83217,1.931023 -1.43986,2.507212 0.0217,0.128384 0.0117,0.289056 0.19332,0.327525 z"
       id="path22331-9"
       sodipodi:nodetypes="cccccccc" />
    <path
       style="opacity:0.6;fill:#e3dbdb;stroke:none;stroke-width:0.125302px;stroke-linecap:butt;stroke-linejoin:miter;stroke-opacity:1"
       d="m 58.62818,98.382939 c -1.77349,0.963058 -3.41021,2.065251 -5.02431,3.190441 0.1936,0.29893 -0.0114,0.45767 -0.0932,0.65973 1.99244,-0.0835 4.15513,0.13388 5.48398,0.65807 0.96534,-1.51444 0.16602,-2.958646 -0.36643,-4.508241 z"
       id="path22613-2"
       sodipodi:nodetypes="ccccc" />
    <path
       style="opacity:0.5;fill:#e3dbdb;stroke:none;stroke-width:0.125302px;stroke-linecap:butt;stroke-linejoin:miter;stroke-opacity:1"
       d="m 58.3831,107.54084 c -0.7519,-1.05752 -1.76983,-1.81918 -2.8831,-2.47483 -0.64864,-0.8321 -1.2954,-1.64971 -1.98938,-2.8329 1.81831,-0.45524 3.98187,-1.03444 5.48399,0.65807 0.99244,1.47471 -0.30508,3.09567 -0.61151,4.64966 z"
       id="path23009-0"
       sodipodi:nodetypes="ccccc" />
    <path
       style="opacity:0.5;fill:#e3dbdb;stroke:none;stroke-width:0.114234px;stroke-linecap:butt;stroke-linejoin:miter;stroke-opacity:1"
       d="m 72.69285,81.572188 1.84595,-1.593323 c 1.20239,-2.269306 2.00534,-4.737489 3.69137,-6.765995 -0.78137,-0.264849 -1.58198,-0.484286 -2.42935,-0.593316 h -0.95467 c -0.80762,-0.198665 -1.49333,-1.577516 -2.22209,-2.53962 z"
       id="path27007-2"
       sodipodi:nodetypes="ccccccc" />
    <path
       style="opacity:0.5;fill:#e3dbdb;stroke:none;stroke-width:0.114234px;stroke-linecap:butt;stroke-linejoin:miter;stroke-opacity:1"
       d="m 73.07755,65.071996 c 2.47828,-1.508203 4.13279,-4.025477 5.69062,-6.66117 l -5.06436,0.12105 z"
       id="path27009-3"
       sodipodi:nodetypes="cccc" />
    <path
       style="opacity:0.5;fill:#e3dbdb;stroke:none;stroke-width:0.114234px;stroke-linecap:butt;stroke-linejoin:miter;stroke-opacity:1"
       d="m 78.76817,58.410826 4.85572,8.926893 3.30459,-1.760432 c -1.13055,-2.499606 -0.45411,-4.786321 -0.17144,-7.205116 z"
       id="path27142-7"
       sodipodi:nodetypes="ccccc" />
    <path
       style="opacity:0.4;fill:#e3dbdb;stroke:none;stroke-width:0.114234px;stroke-linecap:butt;stroke-linejoin:miter;stroke-opacity:1"
       d="m 86.92848,65.577287 c -0.35605,0.389395 1.5837,0.06771 2.31516,-0.09652 l 0.63093,0.486263 c 1.38562,-2.331267 1.50555,-4.717279 4.22149,-6.991006 L 93.85488,58.531874 86.44523,58.3424 c -0.92948,2.331107 0.31859,4.744147 0.48325,7.234885 z"
       id="path27538-5"
       sodipodi:nodetypes="ccccccc" />
    <path
       style="opacity:0.5;fill:#e3dbdb;stroke:none;stroke-width:0.114234px;stroke-linecap:butt;stroke-linejoin:miter;stroke-opacity:1"
       d="m 94.13711,58.607859 c -2.30609,1.192568 -3.33587,4.468259 -4.26254,7.359173 l -1.78797,4.958187 0.48881,0.147685 c 0.0642,-0.281463 0.4727,-0.666075 0.91838,-1.061822 0.72457,-0.505838 1.4371,-0.922745 2.21823,-1.846661 0.83631,-1.158822 1.75512,-2.051971 2.67513,-2.941278 z"
       id="path28048-9"
       sodipodi:nodetypes="cccccccc" />
    <path
       style="opacity:0.5;fill:#e3dbdb;stroke:none;stroke-width:0.114234px;stroke-linecap:butt;stroke-linejoin:miter;stroke-opacity:1"
       d="m 88.57541,71.072904 0.0825,0.310674 c 0,0 1.0422,0.0048 1.09259,0.0048 0.0504,0 0.92899,0.243844 0.92899,0.243844 l 1.92336,0.303883 c 0.60911,0.476954 1.15359,1.122849 1.67529,1.407994 l 0.0914,-8.357561 c -0.91934,0.688849 -1.87046,1.093205 -2.65753,3.177903 -0.72407,0.382311 -1.47081,1.109361 -2.21823,1.846666 z"
       id="path28140-2"
       sodipodi:nodetypes="ccsccccccc" />
    <path
       style="opacity:0.5;fill:#e3dbdb;stroke:none;stroke-width:0.114234px;stroke-linecap:butt;stroke-linejoin:miter;stroke-opacity:1"
       d="m 92.60289,71.936098 c -0.33474,1.029781 -0.56741,2.110188 -1.07986,3.051832 0.17449,0.549631 0.27714,1.13891 0.83216,1.478542 0.44008,0.935534 1.22308,1.256791 1.95728,1.665473 l -0.0755,-5.189087 c -0.50615,-0.402703 -1.02464,-0.783925 -1.63406,-1.00676 z"
       id="path28142-2"
       sodipodi:nodetypes="cccccc" />
    <path
       id="rect6264-8-1-8"
       style="fill:#6c5353;fill-opacity:1;fill-rule:evenodd;stroke-width:0.139324;stroke-linecap:square;stop-color:#000000"
       d="M 40.01884,54.149243 V 124.20502 H 98.20142 V 54.149243 Z m 4.39811,4.398105 H 67.3017 V 76.742384 H 44.41695 Z m 27.28286,0 H 93.80332 V 119.80692 H 71.69981 Z M 44.41695,81.140486 H 67.3017 V 119.80692 H 44.41695 Z"
       sodipodi:nodetypes="cccccccccccccccccccc" />
    <path
       id="path57933-9"
       style="fill:#483737;stroke:none;stroke-width:0.151533px;stroke-linecap:butt;stroke-linejoin:miter;stroke-opacity:1"
       d="m 43.36989,80.093351 0.007,40.760609 1.04035,-1.04695 V 81.140557 H 67.302 l 1.0472,-1.047206 z"
       sodipodi:nodetypes="ccccccc" />
    <path
       id="path29383-7"
       style="fill:#483737;stroke:none;stroke-width:0.151533px;stroke-linecap:butt;stroke-linejoin:miter;stroke-opacity:1"
       d="M 43.36989,57.500067 V 77.789456 L 44.41685,76.75963 V 58.547269 h 22.89112 l 1.04084,-1.047202 z"
       sodipodi:nodetypes="ccccccc" />
    <path
       id="path57929-3"
       style="fill:#483737;stroke:none;stroke-width:0.138894px;stroke-linecap:butt;stroke-linejoin:miter;stroke-opacity:1"
       d="m 94.83601,57.500067 -22.08915,0.06804 0.001,63.296633 1.04598,-1.05161 V 58.53185 h 20.0608 z" />
    <path
       style="fill:#0b280b;stroke:none;stroke-width:0.125302px;stroke-linecap:butt;stroke-linejoin:miter;stroke-opacity:1"
       d="m 81.8442,114.31315 c 0.32695,-3.7928 0.39845,-7.60548 1.87936,-11.30843 -0.7481,3.90792 -0.96302,7.67129 -0.81549,11.33637 z"
       id="path111736-6"
       sodipodi:nodetypes="cccc" />
    <path
       style="fill:#005500;stroke:none;stroke-width:0.125302px;stroke-linecap:butt;stroke-linejoin:miter;stroke-opacity:1"
       d="m 81.50406,114.29734 c -1.92115,-3.57684 -4.32545,-1.15228 -6.22722,1.00064 2.06146,-4.0669 5.83353,-4.91779 7.10518,-1.02232 z"
       id="path108868-1"
       sodipodi:nodetypes="cccc" />
    <path
       style="fill:#0b280b;stroke:none;stroke-width:0.125302px;stroke-linecap:butt;stroke-linejoin:miter;stroke-opacity:1"
       d="m 83.932,114.3804 -0.92071,0.009 c -0.63192,-0.59293 0.0375,-5.11772 -3.86105,-3.90843 3.10972,-2.21924 3.76227,1.33303 4.78176,3.899 z"
       id="path112022-2"
       sodipodi:nodetypes="cccc" />
    <path
       style="fill:#005500;stroke:none;stroke-width:0.125302px;stroke-linecap:butt;stroke-linejoin:miter;stroke-opacity:1"
       d="m 81.53528,114.28756 c -0.11052,-5.45853 -1.75557,-9.76593 -7.74407,-5.64858 1.87685,-1.92562 8.20267,-5.7799 8.90792,5.69123 z"
       id="path109074-9"
       sodipodi:nodetypes="cccc" />
    <path
       style="fill:#005500;stroke:none;stroke-width:0.125302px;stroke-linecap:butt;stroke-linejoin:miter;stroke-opacity:1"
       d="m 86.92942,114.3757 c -0.0492,-2.09701 1.51504,-5.01271 3.8612,-1.92495 -1.50111,-2.95402 -4.12901,-2.22057 -4.88948,1.89734 z"
       id="path109546-3"
       sodipodi:nodetypes="cccc" />
    <path
       style="fill:#005500;stroke:none;stroke-width:0.125302px;stroke-linecap:butt;stroke-linejoin:miter;stroke-opacity:1"
       d="m 85.86933,114.37544 -1.15436,-0.12226 c 0.88688,-3.95168 3.19192,-9.23431 6.33924,-7.06285 -3.67912,-1.41732 -4.75946,4.50315 -5.18488,7.18511 z"
       id="path109942-1"
       sodipodi:nodetypes="cccc" />
    <path
       style="fill:#217821;stroke:none;stroke-width:0.125302px;stroke-linecap:butt;stroke-linejoin:miter;stroke-opacity:1"
       d="m 85.32106,114.37038 c 1.73221,-4.35317 3.98211,-6.37868 6.96178,-5.12297 -2.30485,-0.25846 -4.44927,0.58122 -6.06284,5.05474 z"
       id="path110452-9"
       sodipodi:nodetypes="cccc" />
    <path
       style="fill:#005500;stroke:none;stroke-width:0.125302px;stroke-linecap:butt;stroke-linejoin:miter;stroke-opacity:1"
       d="m 84.61734,114.35079 -1.15303,-0.0341 c -0.085,-3.03168 -0.3855,-13.36951 3.86679,-11.50499 -3.73961,-1.38763 -3.05734,8.58213 -2.71376,11.53908 z"
       id="path111172-4"
       sodipodi:nodetypes="cccc" />
    <path
       style="fill:#005500;stroke:none;stroke-width:0.125302px;stroke-linecap:butt;stroke-linejoin:miter;stroke-opacity:1"
       d="m 82.18725,114.36253 1.31861,-0.0595 c -0.49849,-5.28146 1.00096,-12.83614 -4.73954,-12.15328 4.10382,-0.14218 4.19548,5.18589 3.42093,12.21281 z"
       id="path111530-7"
       sodipodi:nodetypes="cccc" />
    <path
       style="fill:#005500;stroke:none;stroke-width:0.125302px;stroke-linecap:butt;stroke-linejoin:miter;stroke-opacity:1"
       d="m 83.84146,114.3512 c -1.61566,-3.98613 -1.45396,-9.72174 -7.30004,-9.54381 5.19151,-1.22026 6.58171,4.52325 8.36877,9.53974 z"
       id="path112266-8"
       sodipodi:nodetypes="cccc" />
    <path
       style="fill:#217821;stroke:none;stroke-width:0.125302px;stroke-linecap:butt;stroke-linejoin:miter;stroke-opacity:1"
       d="m 84.53107,114.31056 c -0.23741,-5.43053 0.66235,-12.62283 4.8096,-10.17161 -4.02518,-1.19542 -3.9246,5.7773 -3.73796,10.2457 z"
       id="path110700-4"
       sodipodi:nodetypes="cccc" />
    <path
       style="fill:#217821;stroke:none;stroke-width:0.125302px;stroke-linecap:butt;stroke-linejoin:miter;stroke-opacity:1"
       d="m 83.33435,114.33637 0.91213,-0.007 c 0.23883,-3.31896 0.0831,-7.37779 2.78565,-6.07661 -2.7178,-2.24649 -3.69371,1.85922 -3.69778,6.08352 z"
       id="path112472-5"
       sodipodi:nodetypes="cccc" />
    <path
       style="fill:#483737;stroke:none;stroke-width:0.125302px;stroke-linecap:butt;stroke-linejoin:miter;stroke-opacity:1"
       d="m 76.55903,115.81284 15.42719,0.0167 c -0.0617,-0.96329 0.52677,-1.7877 -0.49647,-1.78505 l -14.4438,0.0374 c -0.8701,-0.11917 -0.47713,0.95626 -0.48692,1.73097 z"
       id="path64286-0"
       sodipodi:nodetypes="cccccc" />
    <path
       style="opacity:0.2;fill:#000000;fill-opacity:1;stroke:none;stroke-width:0.264583px;stroke-linecap:butt;stroke-linejoin:miter;stroke-opacity:1"
       d="m 82.49173,114.0923 0.002,1.7151 1.10236,0.70178 0.12919,4.39586 -5.21294,-1.01114 -0.91116,-3.39356 -0.0592,-0.72054 -0.98313,0.0331 -0.16746,-1.66381 z"
       id="path3897-3"
       sodipodi:nodetypes="cccccccccc" />
    <path
       id="path29383-6-6"
       style="fill:#916f6f;stroke:none;stroke-width:0.151533px;stroke-linecap:butt;stroke-linejoin:miter;stroke-opacity:1"
       d="m 94.83601,57.500067 -1.03277,1.047202 v 61.259741 l -20.00918,0.006 -1.04598,1.0516 22.10236,-0.0108 z"
       sodipodi:nodetypes="ccccccc" />
    <path
       id="path29383-6-2-1"
       style="fill:#916f6f;stroke:none;stroke-width:0.138904px;stroke-linecap:butt;stroke-linejoin:miter;stroke-opacity:1"
       d="m 68.34881,80.093351 -1.0472,1.047206 V 119.80701 H 44.41685 l -1.04035,1.04695 h 24.97231 z"
       sodipodi:nodetypes="ccccccc" />
    <path
       style="fill:#483737;stroke:none;stroke-width:0.162596px;stroke-linecap:butt;stroke-linejoin:miter;stroke-opacity:1"
       d="m 70.65264,53.809083 1.04717,5e-6 v 70.531222 h -1.04717 z"
       id="path29383-29-0" />
    <path
       id="path29383-6-7-6"
       style="fill:#916f6f;stroke:none;stroke-width:0.151533px;stroke-linecap:butt;stroke-linejoin:miter;stroke-opacity:1"
       d="m 68.34881,57.500067 -1.0472,1.047202 V 76.742497 H 44.41685 l -1.04696,1.046959 h 24.97892 z"
       sodipodi:nodetypes="ccccccc" />
    <path
       style="fill:#ac9393;fill-opacity:1;stroke:none;stroke-width:0.170812px;stroke-linecap:butt;stroke-linejoin:miter;stroke-opacity:1"
       d="m 101.64746,50.613191 1.04716,5e-6 v 77.839584 h -1.04716 z"
       id="path29383-2-3" />
    <path
       style="fill:#b3b3b3;stroke:none;stroke-width:0.125302px;stroke-linecap:butt;stroke-linejoin:miter;stroke-opacity:1"
       d="m 40.01884,124.20503 -4.06601,5.29494 66.34287,-0.11881 -4.09428,-5.17613 z"
       id="path16612-2" />
    <path
       id="path29383-6-2-6-6-0"
       style="fill:#916f6f;stroke:none;stroke-width:0.0882538px;stroke-linecap:butt;stroke-linejoin:miter;stroke-opacity:1"
       d="m 66.24339,59.59447 -1.0472,1.05063 v 14.002993 h -18.6891 l -1.04304,1.047205 h 20.77934 z"
       sodipodi:nodetypes="ccccccc" />
    <path
       id="path29383-6-2-6-6-7-6"
       style="fill:#483737;fill-opacity:1;stroke:none;stroke-width:0.0882538px;stroke-linecap:butt;stroke-linejoin:miter;stroke-opacity:1"
       d="M 45.46405,59.59447 V 75.695305 L 46.51125,74.6481 V 60.642162 l 18.68494,0.003 1.0472,-1.050629 z"
       sodipodi:nodetypes="ccccccc" />
    <path
       style="fill:#6c5353;fill-opacity:1;stroke:none;stroke-width:0.158874px;stroke-linecap:butt;stroke-linejoin:miter;stroke-opacity:1"
       d="m 71.69981,54.811511 h 1.04716 v 67.339519 h -1.04716 z"
       id="path29383-6-2-6-6-7-4-1-0-1" />
    <path
       style="opacity:0.2;fill:#000000;fill-opacity:1;stroke:none;stroke-width:0.264583px;stroke-linecap:butt;stroke-linejoin:miter;stroke-opacity:1"
       d="m 36.94702,127.96478 7.91221,-3.82161 0.0208,-3.34752 1.71623,-1.07627 0.14027,-2.58585 -0.22949,-5.29333 -0.12753,-3.63493 0.35224,-5.59 -0.11237,-5.385107 -0.19643,-8.405763 0.11138,-7.698083 -1.41656,-1.064746 0.009,-2.320662 1.43556,-1.054023 0.0222,-1.01663 1.56805,-0.989875 -1.64543,-0.03229 -7.8e-4,-13.965149 1.82224,-0.07345 -1.15655,-0.986936 -0.0516,-0.975851 -1.84901,-0.503406 0.0716,-2.250711 25.34042,-0.07679 0.99619,0.620409 26.56983,-0.04525 3.406,-5.762826 -64.65542,-0.01494 z"
       id="path1447-5"
       sodipodi:nodetypes="ccccccccccccccccccccccccccccc" />
    <text
       xml:space="preserve"
       transform="matrix(0.36079226,0,0,0.36079226,52.040557,-185.29427)"
       id="text10666"
       style="font-style:normal;font-weight:normal;font-size:40px;line-height:49.1973px;font-family:sans-serif;white-space:pre;shape-inside:url(#rect10668);fill:#241c1c;fill-opacity:1;stroke:none"><tspan
         x="-125.20508"
         y="957.15845"
         id="tspan38716"><tspan
           style="font-family:'Red Banner';-inkscape-font-specification:'Red Banner'"
           id="tspan38714">Flowers
</tspan></tspan><tspan
         x="-125.20508"
         y="1008.5631"
         id="tspan38720"><tspan
           style="font-family:'Red Banner';-inkscape-font-specification:'Red Banner'"
           id="tspan38718">for the
</tspan></tspan><tspan
         x="-125.20508"
         y="1059.9678"
         id="tspan38724"><tspan
           style="font-family:'Red Banner';-inkscape-font-specification:'Red Banner'"
           id="tspan38722">Old Woman</tspan></tspan></text>
    <text
       xml:space="preserve"
       transform="matrix(0.24505515,0,0,0.24505515,20.860018,-8.4432851)"
       id="text2298"
       style="font-style:normal;font-weight:normal;font-size:40px;line-height:1.25;font-family:sans-serif;white-space:pre;shape-inside:url(#rect2300);fill:#4b3a3a;fill-opacity:1;stroke:none"><tspan
         x="95.914062"
         y="149.33519"
         id="tspan38728"><tspan
           style="font-family:'Red Banner';-inkscape-font-specification:'Red Banner'"
           id="tspan38726">E.Viesna</tspan></tspan></text>
    <path
       style="fill:#483737;fill-opacity:1;stroke:none;stroke-width:0.357187px;stroke-linecap:butt;stroke-linejoin:miter;stroke-opacity:1"
       d="m 97.220562,20.324262 0.09153,-3.103737 2.13201,-0.254517 c -0.669429,1.336424 -1.348668,2.643193 -2.223486,3.358253 z"
       id="path14005" />
  </g>
  <metadata
     id="metadata2357">
    <rdf:RDF>
      <cc:Work
         rdf:about="">
        <dc:title>ffog_front_cover_en</dc:title>
        <dc:date>2023/02/25</dc:date>
        <dc:creator>
          <cc:Agent>
            <dc:title>Emil Viesná [regnveig]</dc:title>
          </cc:Agent>
        </dc:creator>
        <dc:description>English front cover for book &quot;Flowers for the Old Woman&quot; by Emil Viesná</dc:description>
        <dc:contributor>
          <cc:Agent>
            <dc:title>Emil Viesná, Anna Lazarenko</dc:title>
          </cc:Agent>
        </dc:contributor>
        <cc:license
           rdf:resource="http://creativecommons.org/licenses/by/4.0/" />
      </cc:Work>
      <cc:License
         rdf:about="http://creativecommons.org/licenses/by/4.0/">
        <cc:permits
           rdf:resource="http://creativecommons.org/ns#Reproduction" />
        <cc:permits
           rdf:resource="http://creativecommons.org/ns#Distribution" />
        <cc:requires
           rdf:resource="http://creativecommons.org/ns#Notice" />
        <cc:requires
           rdf:resource="http://creativecommons.org/ns#Attribution" />
        <cc:permits
           rdf:resource="http://creativecommons.org/ns#DerivativeWorks" />
      </cc:License>
    </rdf:RDF>
  </metadata>
</svg>
