<?xml version="1.0" encoding="UTF-8" standalone="no"?>
<!-- Created with Inkscape (http://www.inkscape.org/) -->

<svg
   width="148mm"
   height="210mm"
   viewBox="0 0 148 210"
   version="1.1"
   id="svg5"
   inkscape:version="1.1.2 (0a00cf5339, 2022-02-04)"
   sodipodi:docname="cover_front_ru.svg"
   xmlns:inkscape="http://www.inkscape.org/namespaces/inkscape"
   xmlns:sodipodi="http://sodipodi.sourceforge.net/DTD/sodipodi-0.dtd"
   xmlns="http://www.w3.org/2000/svg"
   xmlns:svg="http://www.w3.org/2000/svg"
   xmlns:rdf="http://www.w3.org/1999/02/22-rdf-syntax-ns#"
   xmlns:cc="http://creativecommons.org/ns#"
   xmlns:dc="http://purl.org/dc/elements/1.1/">
  <title
     id="title891">ffog_front_cover_ru</title>
  <sodipodi:namedview
     id="namedview7"
     pagecolor="#ffffff"
     bordercolor="#666666"
     borderopacity="1.0"
     inkscape:pageshadow="2"
     inkscape:pageopacity="0.0"
     inkscape:pagecheckerboard="0"
     inkscape:document-units="mm"
     showgrid="false"
     inkscape:zoom="1.1474186"
     inkscape:cx="221.80223"
     inkscape:cy="513.32617"
     inkscape:window-width="1600"
     inkscape:window-height="827"
     inkscape:window-x="0"
     inkscape:window-y="0"
     inkscape:window-maximized="1"
     inkscape:current-layer="layer1"
     objecttolerance="1"
     gridtolerance="10"
     guidetolerance="1" />
  <defs
     id="defs2">
    <rect
       x="-49.124765"
       y="829.91201"
       width="530.94404"
       height="367.32961"
       id="rect11880" />
    <rect
       x="-160.57537"
       y="95.268515"
       width="257.60778"
       height="208.82536"
       id="rect2169" />
  </defs>
  <g
     inkscape:label="Слой 1"
     inkscape:groupmode="layer"
     id="layer1">
    <path
       id="rect1673"
       style="fill:#916f6f;fill-rule:evenodd;stroke-width:3.89039;stroke-linecap:round;stroke-linejoin:round;stop-color:#000000"
       d="m 1e-5,0 h 148 v 210 h -148 z" />
    <path
       id="rect846-3-6-0-7-5-6-4-3-9-29"
       style="fill:#e3dbdb;fill-rule:evenodd;stroke-width:0.0666388;stroke-linecap:square;stop-color:#000000"
       d="M 0,0 V 12.566158 H 17.45268 V 0 Z M 18.50016,0 V 12.566158 H 35.95284 V 0 Z m 18.49965,0 v 12.566158 h 17.4532 V 0 Z M 55.49997,0 V 12.566158 H 72.95265 V 0 Z M 74.00013,0 V 12.566158 H 91.45282 V 0 Z m 18.49965,0 v 12.566158 h 17.4532 V 0 Z m 18.50016,0 v 12.566158 h 17.45268 V 0 Z m 18.50016,0 v 12.566158 h 17.45269 V 0 Z M 0,13.613122 v 3.839559 h 17.45268 v -3.839559 z m 18.50016,0 v 3.839559 h 17.45268 v -3.839559 z m 18.49965,0 v 3.839559 h 17.4532 v -3.839559 z m 18.50016,0 v 3.839559 h 17.45268 v -3.839559 z m 18.50016,0 v 3.839559 h 17.45269 v -3.839559 z m 18.49965,0 v 3.839559 h 17.4532 v -3.839559 z m 18.50016,0 v 3.839559 h 17.45268 v -3.839559 z m 18.50016,0 v 3.839559 h 17.45269 V 13.613122 Z M 0,18.500163 v 12.56564 h 17.45268 v -12.56564 z m 18.50016,0 v 12.56564 h 17.45268 v -12.56564 z m 18.49965,0 v 12.56564 h 17.4532 v -12.56564 z m 18.50016,0 v 12.56564 h 17.45268 v -12.56564 z m 18.50016,0 v 12.56564 h 17.45269 v -12.56564 z m 18.49965,0 v 12.56564 h 17.4532 v -12.56564 z m 18.50016,0 v 12.56564 h 17.45268 v -12.56564 z m 18.50016,0 v 12.56564 h 17.45269 V 18.500163 Z M 0,32.113286 v 3.839559 h 17.45268 v -3.839559 z m 18.50016,0 v 3.839559 h 17.45268 v -3.839559 z m 18.49965,0 v 3.839559 h 17.4532 v -3.839559 z m 18.50016,0 v 3.839559 h 17.45268 v -3.839559 z m 18.50016,0 v 3.839559 h 17.45269 v -3.839559 z m 18.49965,0 v 3.839559 h 17.4532 v -3.839559 z m 18.50016,0 v 3.839559 h 17.45268 v -3.839559 z m 18.50016,0 v 3.839559 h 17.45269 V 32.113286 Z M 0,36.999809 V 49.565967 H 17.45268 V 36.999809 Z m 18.50016,0 V 49.565967 H 35.95284 V 36.999809 Z m 18.49965,0 v 12.566158 h 17.4532 V 36.999809 Z m 18.50016,0 V 49.565967 H 72.95265 V 36.999809 Z m 18.50016,0 V 49.565967 H 91.45282 V 36.999809 Z m 18.49965,0 v 12.566158 h 17.4532 V 36.999809 Z m 18.50016,0 v 12.566158 h 17.45268 V 36.999809 Z m 18.50016,0 v 12.566158 h 17.45269 V 36.999809 Z M 0,50.613447 v 3.839559 h 17.45268 v -3.839559 z m 18.50016,0 v 3.839559 h 17.45268 v -3.839559 z m 18.49965,0 v 3.839559 h 17.4532 v -3.839559 z m 18.50016,0 v 3.839559 h 17.45268 v -3.839559 z m 18.50016,0 v 3.839559 h 17.45269 v -3.839559 z m 18.49965,0 v 3.839559 h 17.4532 v -3.839559 z m 18.50016,0 v 3.839559 h 17.45268 v -3.839559 z m 18.50016,0 v 3.839559 h 17.45269 V 50.613447 Z M 0,55.49997 V 68.066128 H 17.45268 V 55.49997 Z m 18.50016,0 V 68.066128 H 35.95284 V 55.49997 Z m 18.49965,0 v 12.566158 h 17.4532 V 55.49997 Z m 18.50016,0 V 68.066128 H 72.95265 V 55.49997 Z m 18.50016,0 V 68.066128 H 91.45282 V 55.49997 Z m 18.49965,0 v 12.566158 h 17.4532 V 55.49997 Z m 18.50016,0 v 12.566158 h 17.45268 V 55.49997 Z m 18.50016,0 v 12.566158 h 17.45269 V 55.49997 Z M 0,69.113092 v 3.839559 h 17.45268 v -3.839559 z m 18.50016,0 v 3.839559 h 17.45268 v -3.839559 z m 18.49965,0 v 3.839559 h 17.4532 v -3.839559 z m 18.50016,0 v 3.839559 h 17.45268 v -3.839559 z m 18.50016,0 v 3.839559 h 17.45269 v -3.839559 z m 18.49965,0 v 3.839559 h 17.4532 v -3.839559 z m 18.50016,0 v 3.839559 h 17.45268 v -3.839559 z m 18.50016,0 v 3.839559 h 17.45269 V 69.113092 Z M 0,74.000134 V 86.565773 H 17.45268 V 74.000134 Z m 18.50016,0 V 86.565773 H 35.95284 V 74.000134 Z m 18.49965,0 v 12.565639 h 17.4532 V 74.000134 Z m 18.50016,0 V 86.565773 H 72.95265 V 74.000134 Z m 18.50016,0 V 86.565773 H 91.45282 V 74.000134 Z m 18.49965,0 v 12.565639 h 17.4532 V 74.000134 Z m 18.50016,0 v 12.565639 h 17.45268 V 74.000134 Z m 18.50016,0 v 12.565639 h 17.45269 V 74.000134 Z M 0,87.613256 v 3.839559 h 17.45268 v -3.839559 z m 18.50016,0 v 3.839559 h 17.45268 v -3.839559 z m 18.49965,0 v 3.839559 h 17.4532 v -3.839559 z m 18.50016,0 v 3.839559 h 17.45268 v -3.839559 z m 18.50016,0 v 3.839559 h 17.45269 v -3.839559 z m 18.49965,0 v 3.839559 h 17.4532 v -3.839559 z m 18.50016,0 v 3.839559 h 17.45268 v -3.839559 z m 18.50016,0 v 3.839559 h 17.45269 V 87.613256 Z M 0,92.499779 V 105.06594 H 17.45268 V 92.499779 Z m 18.50016,0 V 105.06594 H 35.95284 V 92.499779 Z m 18.49965,0 v 12.566161 h 17.4532 V 92.499779 Z m 18.50016,0 V 105.06594 H 72.95265 V 92.499779 Z m 18.50016,0 V 105.06594 H 91.45282 V 92.499779 Z m 18.49965,0 v 12.566161 h 17.4532 V 92.499779 Z m 18.50016,0 v 12.566161 h 17.45268 V 92.499779 Z m 18.50016,0 v 12.566161 h 17.45269 V 92.499779 Z M 0,106.11342 v 3.83956 h 17.45268 v -3.83956 z m 18.50016,0 v 3.83956 h 17.45268 v -3.83956 z m 18.49965,0 v 3.83956 h 17.4532 v -3.83956 z m 18.50016,0 v 3.83956 h 17.45268 v -3.83956 z m 18.50016,0 v 3.83956 h 17.45269 v -3.83956 z m 18.49965,0 v 3.83956 h 17.4532 v -3.83956 z m 18.50016,0 v 3.83956 h 17.45268 v -3.83956 z m 18.50016,0 v 3.83956 h 17.45269 v -3.83956 z M 0,110.99994 v 12.56616 h 17.45268 v -12.56616 z m 18.50016,0 v 12.56616 h 17.45268 v -12.56616 z m 18.49965,0 v 12.56616 h 17.4532 v -12.56616 z m 18.50016,0 v 12.56616 h 17.45268 v -12.56616 z m 18.50016,0 v 12.56616 h 17.45269 v -12.56616 z m 18.49965,0 v 12.56616 h 17.4532 v -12.56616 z m 18.50016,0 v 12.56616 h 17.45268 v -12.56616 z m 18.50016,0 v 12.56616 h 17.45269 V 110.99994 Z M 0,124.61307 v 3.83955 h 17.45268 v -3.83955 z m 18.50016,0 v 3.83955 h 17.45268 v -3.83955 z m 18.49965,0 v 3.83955 h 17.4532 v -3.83955 z m 18.50016,0 v 3.83955 h 17.45268 v -3.83955 z m 18.50016,0 v 3.83955 h 17.45269 v -3.83955 z m 18.49965,0 v 3.83955 h 17.4532 v -3.83955 z m 18.50016,0 v 3.83955 h 17.45268 v -3.83955 z m 18.50016,0 v 3.83955 h 17.45269 v -3.83955 z M 0,129.5001 v 12.56565 H 17.45268 V 129.5001 Z m 18.50016,0 v 12.56565 H 35.95284 V 129.5001 Z m 18.49965,0 v 12.56565 h 17.4532 V 129.5001 Z m 18.50016,0 v 12.56565 H 72.95265 V 129.5001 Z m 18.50016,0 v 12.56565 H 91.45282 V 129.5001 Z m 18.49965,0 v 12.56565 h 17.4532 V 129.5001 Z m 18.50016,0 v 12.56565 h 17.45268 V 129.5001 Z m 18.50016,0 v 12.56565 h 17.45269 V 129.5001 Z M 0,143.11323 v 3.83956 h 17.45268 v -3.83956 z m 18.50016,0 v 3.83956 h 17.45268 v -3.83956 z m 18.49965,0 v 3.83956 h 17.4532 v -3.83956 z m 18.50016,0 v 3.83956 h 17.45268 v -3.83956 z m 18.50016,0 v 3.83956 h 17.45269 v -3.83956 z m 18.49965,0 v 3.83956 h 17.4532 v -3.83956 z m 18.50016,0 v 3.83956 h 17.45268 v -3.83956 z m 18.50016,0 v 3.83956 h 17.45269 v -3.83956 z M 0,147.99975 v 12.56616 h 17.45268 v -12.56616 z m 18.50016,0 v 12.56616 h 17.45268 v -12.56616 z m 18.49965,0 v 12.56616 h 17.4532 v -12.56616 z m 18.50016,0 v 12.56616 h 17.45268 v -12.56616 z m 18.50016,0 v 12.56616 h 17.45269 v -12.56616 z m 18.49965,0 v 12.56616 h 17.4532 v -12.56616 z m 18.50016,0 v 12.56616 h 17.45268 v -12.56616 z m 18.50016,0 v 12.56616 h 17.45269 V 147.99975 Z M 0,161.61339 v 3.83956 h 17.45268 v -3.83956 z m 18.50016,0 v 3.83956 h 17.45268 v -3.83956 z m 18.49965,0 v 3.83956 h 17.4532 v -3.83956 z m 18.50016,0 v 3.83956 h 17.45268 v -3.83956 z m 18.50016,0 v 3.83956 h 17.45269 v -3.83956 z m 18.49965,0 v 3.83956 h 17.4532 v -3.83956 z m 18.50016,0 v 3.83956 h 17.45268 v -3.83956 z m 18.50016,0 v 3.83956 h 17.45269 v -3.83956 z M 0,166.49991 v 12.56616 h 17.45268 v -12.56616 z m 18.50016,0 v 12.56616 h 17.45268 v -12.56616 z m 18.49965,0 v 12.56616 h 17.4532 v -12.56616 z m 18.50016,0 v 12.56616 h 17.45268 v -12.56616 z m 18.50016,0 v 12.56616 h 17.45269 v -12.56616 z m 18.49965,0 v 12.56616 h 17.4532 v -12.56616 z m 18.50016,0 v 12.56616 h 17.45268 v -12.56616 z m 18.50016,0 v 12.56616 h 17.45269 V 166.49991 Z M 0,180.11304 v 3.83955 h 17.45268 v -3.83955 z m 18.50016,0 v 3.83955 h 17.45268 v -3.83955 z m 18.49965,0 v 3.83955 h 17.4532 v -3.83955 z m 18.50016,0 v 3.83955 h 17.45268 v -3.83955 z m 18.50016,0 v 3.83955 h 17.45269 v -3.83955 z m 18.49965,0 v 3.83955 h 17.4532 v -3.83955 z m 18.50016,0 v 3.83955 h 17.45268 v -3.83955 z m 18.50016,0 v 3.83955 h 17.45269 v -3.83955 z M 0,185.00007 v 12.56564 h 17.45268 v -12.56564 z m 18.50016,0 v 12.56564 h 17.45268 v -12.56564 z m 18.49965,0 v 12.56564 h 17.4532 v -12.56564 z m 18.50016,0 v 12.56564 h 17.45268 v -12.56564 z m 18.50016,0 v 12.56564 h 17.45269 v -12.56564 z m 18.49965,0 v 12.56564 h 17.4532 v -12.56564 z m 18.50016,0 v 12.56564 h 17.45268 v -12.56564 z m 18.50016,0 v 12.56564 h 17.45269 V 185.00007 Z M 0,198.61319 v 3.83956 h 17.45268 v -3.83956 z m 18.50016,0 v 3.83956 h 17.45268 v -3.83956 z m 18.49965,0 v 3.83956 h 17.4532 v -3.83956 z m 18.50016,0 v 3.83956 h 17.45268 v -3.83956 z m 18.50016,0 v 3.83956 h 17.45269 v -3.83956 z m 18.49965,0 v 3.83956 h 17.4532 v -3.83956 z m 18.50016,0 v 3.83956 h 17.45268 v -3.83956 z m 18.50016,0 v 3.83956 h 17.45269 v -3.83956 z M 0,203.49972 v 6.50037 h 17.45268 v -6.50037 z m 18.50016,0 v 6.50037 h 17.45268 v -6.50037 z m 18.49965,0 v 6.50037 h 17.4532 v -6.50037 z m 18.50016,0 v 6.50037 h 17.45268 v -6.50037 z m 18.50016,0 v 6.50037 h 17.45269 v -6.50037 z m 18.49965,0 v 6.50037 h 17.4532 v -6.50037 z m 18.50016,0 v 6.50037 h 17.45268 v -6.50037 z m 18.50016,0 v 6.50037 h 17.45269 v -6.50037 z" />
    <rect
       style="fill:#1a1a1a;fill-opacity:1;fill-rule:evenodd;stroke-width:0.190514;stroke-linecap:square;stop-color:#000000"
       id="rect5938"
       width="64.647446"
       height="77.839592"
       x="37.000008"
       y="50.61319" />
    <path
       style="fill:#483737;stroke:none;stroke-width:0.125302px;stroke-linecap:butt;stroke-linejoin:miter;stroke-opacity:1"
       d="m 77.417166,115.81952 2.378056,8.38548 8.756674,0.0863 2.343164,-8.54177 z"
       id="path64251" />
    <path
       id="path29383-6-2-6-4-7"
       style="fill:#6c5353;fill-opacity:1;stroke:none;stroke-width:0.082584px;stroke-linecap:butt;stroke-linejoin:miter;stroke-opacity:1"
       d="m 44.416849,58.547269 v 1.047201 16.100828 1.047199 H 67.301607 V 75.695298 59.59447 58.547269 H 66.25465 45.464051 Z m 1.047202,1.047201 H 66.25465 V 75.695298 H 45.464051 Z" />
    <path
       style="fill:#c8b7b7;stroke:none;stroke-width:0.125302px;stroke-linecap:butt;stroke-linejoin:miter;stroke-opacity:1"
       d="m 101.64746,50.613191 -7.84415,7.934157 v 61.259562 l 7.84415,8.64586 z"
       id="path17284" />
    <path
       style="fill:#241c1c;fill-opacity:1;stroke:none;stroke-width:0.125302px;stroke-linecap:butt;stroke-linejoin:miter;stroke-opacity:1"
       d="m 37.000008,128.45277 7.416938,-8.64586 V 58.547348 H 93.80331 l 7.84415,-7.934157 H 37.000008 Z"
       id="path17450" />
    <path
       style="fill:#241c1c;stroke:none;stroke-width:0.117236px;stroke-linecap:butt;stroke-linejoin:miter;stroke-opacity:1"
       d="m 77.417166,115.81952 13.458591,0.0166 -0.171835,0.65522 -13.102588,0.009 z"
       id="path66507-5"
       sodipodi:nodetypes="ccccc" />
    <path
       style="fill:#000000;stroke:none;stroke-width:0.264583px;stroke-linecap:butt;stroke-linejoin:miter;stroke-opacity:1;fill-opacity:1;opacity:0.2"
       d="m 36.14539,129.61769 3.865197,5.02137 66.088503,0.19031 -3.80339,-5.44821 z"
       id="path4144" />
    <path
       style="fill:#999999;stroke:none;stroke-width:0.125302px;stroke-linecap:butt;stroke-linejoin:miter;stroke-opacity:1"
       d="m 35.952831,129.49997 -0.01355,2.01362 66.346319,0.0205 0.0101,-2.15295 z"
       id="path16829"
       sodipodi:nodetypes="ccccc" />
    <path
       style="fill:#808080;stroke:none;stroke-width:0.125302px;stroke-linecap:butt;stroke-linejoin:miter;stroke-opacity:1"
       d="m 35.250532,130.70892 0.67521,2.06648 66.346318,0.0205 0.70411,-2.13045 z"
       id="path16829-8"
       sodipodi:nodetypes="ccccc" />
    <path
       style="opacity:0.5;fill:#e3dbdb;stroke:none;stroke-width:0.125302px;stroke-linecap:butt;stroke-linejoin:miter;stroke-opacity:1"
       d="m 61.638617,80.870005 -3.921103,10.657068 c -0.750794,-1.530511 -3.533925,-2.288352 -4.607855,-2.237494 -1.886445,0.269748 -3.742103,1.248004 -5.601089,2.149578 -0.79641,-1.71095 -1.702573,-3.444272 -3.628733,-5.297207 l 0.537109,-5.001468 z"
       id="path19971"
       sodipodi:nodetypes="ccccccc" />
    <path
       style="opacity:0.5;fill:#e3dbdb;stroke:none;stroke-width:0.125302px;stroke-linecap:butt;stroke-linejoin:miter;stroke-opacity:1"
       d="m 61.634213,97.159244 c 1.934732,-0.965905 3.809243,-1.969436 6.11927,-3.107583 L 67.301704,81.140482 61.638617,80.870005 c -0.546756,5.228968 -2.870308,7.144818 -3.921103,10.657068 1.669336,1.159027 3.33279,2.329671 3.916699,5.632171 z"
       id="path20291"
       sodipodi:nodetypes="cccccc" />
    <path
       style="opacity:0.5;fill:#e3dbdb;stroke:none;stroke-width:0.125302px;stroke-linecap:butt;stroke-linejoin:miter;stroke-opacity:1"
       d="m 43.771591,102.61226 0.29579,-16.456178 c 3.205685,1.396022 2.748134,3.651673 3.441189,5.283075 l 0.671677,1.067147 c -1.493916,3.526415 -1.442405,6.98685 -2.710635,10.289286 z"
       id="path20459"
       sodipodi:nodetypes="cccccc" />
    <path
       style="opacity:0.5;fill:#e3dbdb;stroke:none;stroke-width:0.125302px;stroke-linecap:butt;stroke-linejoin:miter;stroke-opacity:1"
       d="m 67.753483,94.051661 c -2.231261,0.165607 -4.196193,1.541492 -6.11927,3.107583 l -3.006037,1.223695 c 0.07294,1.596963 0.587645,3.119661 0.366434,4.508241 0.101749,1.65857 0.182997,3.30984 -0.611509,4.64966 l 2.375642,2.52231 0.988661,0.53051 0.222939,0.70875 3.485956,2.61027 c 0.986946,0.64848 1.606923,1.37339 2.362917,2.06996 z"
       id="path20817"
       sodipodi:nodetypes="ccccccccccc" />
    <path
       style="opacity:0.5;fill:#e3dbdb;stroke:none;stroke-width:0.125302px;stroke-linecap:butt;stroke-linejoin:miter;stroke-opacity:1"
       d="m 43.935403,102.29273 0.481543,17.51418 1.63324,0.40224 0.286309,-1.53609 1.425522,-3.26413 -2.341781,-6.04875 c -0.0422,-1.15365 -0.170575,-2.35752 -0.395792,-3.61781 0.254513,-0.93915 0.743596,-1.78301 0.445168,-2.94678 -0.517399,-0.26757 -0.967534,-0.44459 -1.534209,-0.50286 z"
       id="path21061"
       sodipodi:nodetypes="ccccccccc" />
    <path
       style="opacity:0.5;fill:#e3dbdb;stroke:none;stroke-width:0.125302px;stroke-linecap:butt;stroke-linejoin:miter;stroke-opacity:1"
       d="m 67.819216,115.98264 -0.517512,3.82427 -14.123034,0.6239 -0.440863,-13.97291 c 0.181647,0.0585 0.349973,0.16057 0.478513,0.39255 0.653672,-0.76688 1.388672,-1.40365 2.283677,-1.78444 l 2.883104,2.47483 c 0.929572,0.76524 2.220748,1.31058 2.375642,2.52231 0.553159,0.50339 1.322172,0.71185 0.988661,0.53051 0.419182,0.32147 0.277458,0.61731 0.222939,0.70875 1.477691,0.5378 2.665451,1.30478 3.485956,2.61027 z"
       id="path21063"
       sodipodi:nodetypes="cccccccccccc" />
    <path
       style="opacity:0.5;fill:#e3dbdb;stroke:none;stroke-width:0.125302px;stroke-linecap:butt;stroke-linejoin:miter;stroke-opacity:1"
       d="m 45.787329,120.00172 7.884805,0.37503 c 0.04139,-4.60574 0.181481,-8.7506 -0.934327,-13.91885 -0.496551,0.13887 -1.040361,0.14132 -1.600955,0.0953 -0.199042,0.80786 -0.456951,1.60766 -0.825109,2.39235 -0.314435,1.37227 -0.866443,2.57498 -1.47529,3.73712 -0.498546,0.3366 -0.744633,1.70198 -1.074436,2.72623 -0.553334,1.04629 -1.418129,1.91758 -1.698992,3.10944 -0.184427,0.5869 -0.190556,0.97998 -0.275696,1.48335 z"
       id="path21065"
       sodipodi:nodetypes="ccccccccc" />
    <path
       style="opacity:0.5;fill:#e3dbdb;stroke:none;stroke-width:0.125302px;stroke-linecap:butt;stroke-linejoin:miter;stroke-opacity:1"
       d="m 45.469612,102.79559 6.301646,-0.70967 c 0.07196,-0.40348 0.303103,-0.76177 0.71395,-1.06902 -0.757496,-2.152868 -1.780406,-3.73523 -2.678787,-5.585257 l -1.626174,-2.925339 c -1.357198,2.37308 -2.69952,6.076349 -2.710635,10.289286 z"
       id="path21067"
       sodipodi:nodetypes="cccccc" />
    <path
       style="opacity:0.5;fill:#e3dbdb;stroke:none;stroke-width:0.125302px;stroke-linecap:butt;stroke-linejoin:miter;stroke-opacity:1"
       d="m 53.109659,89.289579 c 0.128829,0.366615 -0.01913,0.874802 -0.180169,1.572352 0.392292,1.656596 0.407129,2.81173 0.479298,3.870548 -1.031884,0.469836 -2.182685,0.765892 -3.525311,0.781624 -0.258803,-1.034735 -1.038386,-2.015298 -1.70323,-3.007799 -0.841741,-0.374585 -0.611566,-0.716431 -0.671677,-1.067147 1.632354,-1.377572 3.276291,-2.692786 5.601089,-2.149578 z"
       id="path21311"
       sodipodi:nodetypes="ccccccc" />
    <path
       style="opacity:0.4;fill:#e3dbdb;stroke:none;stroke-width:0.125302px;stroke-linecap:butt;stroke-linejoin:miter;stroke-opacity:1"
       d="m 45.469612,102.79559 c 0.922179,-0.21684 1.849307,-0.4552 2.696754,-0.3468 l 0.180999,0.89074 0.01662,0.90328 0.256937,0.51228 0.174132,1.34143 c -0.632058,0.78155 -1.474737,1.47877 -2.38079,2.15061 -0.40901,-0.97952 -0.909719,-1.71468 -1.389818,-2.50476 0.154492,-0.95884 0.327771,-1.89305 0.445163,-2.94678 z"
       id="path21685"
       sodipodi:nodetypes="ccccccccc" />
    <path
       style="opacity:0.5;fill:#e3dbdb;stroke:none;stroke-width:0.125302px;stroke-linecap:butt;stroke-linejoin:miter;stroke-opacity:1"
       d="m 46.414267,108.24713 c -0.247551,0.4589 -0.639209,0.76666 -0.994031,1.11305 -0.424728,-1.13497 -0.453507,-2.36428 -0.395792,-3.61781 0.430671,0.85089 0.797617,1.73298 1.389823,2.50476 z"
       id="path21687"
       sodipodi:nodetypes="cccc" />
    <path
       style="opacity:0.5;fill:#e3dbdb;stroke:none;stroke-width:0.125302px;stroke-linecap:butt;stroke-linejoin:miter;stroke-opacity:1"
       d="m 48.795057,106.09652 c 0.739035,0.84217 1.359168,1.74921 1.460154,2.93956 l -1.466027,3.70559 -2.374917,-4.49454 c 0.901962,-0.9853 1.714378,-1.74879 2.38079,-2.15061 z"
       id="path21689"
       sodipodi:nodetypes="ccccc" />
    <path
       style="opacity:0.5;fill:#e3dbdb;stroke:none;stroke-width:0.125302px;stroke-linecap:butt;stroke-linejoin:miter;stroke-opacity:1"
       d="m 45.420236,109.36018 c 0.259661,-0.46346 0.504877,-0.94554 0.994031,-1.11305 1.120719,1.42846 2.004604,2.89905 2.374917,4.49454 l -1.027167,2.66726 c -0.618139,-2.03065 -1.196583,-4.06686 -2.341781,-6.04875 z"
       id="path21691"
       sodipodi:nodetypes="ccccc" />
    <path
       style="opacity:0.5;fill:#e3dbdb;stroke:none;stroke-width:0.125302px;stroke-linecap:butt;stroke-linejoin:miter;stroke-opacity:1"
       d="m 57.717514,91.527073 c 0.01785,-0.183518 -0.436624,0.47048 -0.08805,0.905381 l -1.439867,2.507212 0.193321,0.327525 -0.274758,0.09624 c -0.885723,-0.28441 -1.780173,-0.522845 -2.699374,-0.630949 0.29212,-1.275714 0.126859,-2.408206 -0.479298,-3.870548 -0.03481,-0.501354 -0.0645,-1.003944 0.180169,-1.572352 1.545651,-0.136335 3.059155,-0.317371 4.607855,2.237494 z"
       id="path21783"
       sodipodi:nodetypes="ccccccccc" />
    <path
       style="opacity:0.6;fill:#e3dbdb;stroke:none;stroke-width:0.125302px;stroke-linecap:butt;stroke-linejoin:miter;stroke-opacity:1"
       d="m 56.38292,95.267191 c 0.570132,1.305971 1.122808,2.440168 1.623195,3.059855 l 0.622061,0.05589 c 1.180722,-0.534609 2.384545,-1.085599 3.006037,-1.223695 0.829063,-3.265689 -2.373947,-4.531442 -3.916699,-5.632171 -0.621392,0.326468 -0.41626,0.587796 -0.08805,0.905381 -0.247821,1.316214 -0.83217,1.931023 -1.439867,2.507212 0.02174,0.128384 0.0117,0.289056 0.193321,0.327525 z"
       id="path22331"
       sodipodi:nodetypes="cccccccc" />
    <path
       style="opacity:0.6;fill:#e3dbdb;stroke:none;stroke-width:0.125302px;stroke-linecap:butt;stroke-linejoin:miter;stroke-opacity:1"
       d="m 58.628176,98.382939 c -1.773487,0.963058 -3.410203,2.065251 -5.024309,3.190441 0.1936,0.29893 -0.01141,0.45767 -0.09324,0.65973 1.992442,-0.0835 4.155128,0.13388 5.483987,0.65807 0.965332,-1.51444 0.166014,-2.958646 -0.366434,-4.508241 z"
       id="path22613"
       sodipodi:nodetypes="ccccc" />
    <path
       style="opacity:0.5;fill:#e3dbdb;stroke:none;stroke-width:0.125302px;stroke-linecap:butt;stroke-linejoin:miter;stroke-opacity:1"
       d="m 58.383101,107.54084 c -0.751902,-1.05752 -1.769835,-1.81918 -2.883104,-2.47483 -0.648633,-0.8321 -1.295396,-1.64971 -1.989374,-2.8329 1.818306,-0.45524 3.981868,-1.03444 5.483987,0.65807 0.992435,1.47471 -0.305082,3.09567 -0.611509,4.64966 z"
       id="path23009"
       sodipodi:nodetypes="ccccc" />
    <path
       style="opacity:0.5;fill:#e3dbdb;stroke:none;stroke-width:0.114234px;stroke-linecap:butt;stroke-linejoin:miter;stroke-opacity:1"
       d="m 72.692849,81.572188 1.845953,-1.593323 c 1.202391,-2.269306 2.005334,-4.737489 3.691367,-6.765995 -0.781369,-0.264849 -1.581977,-0.484286 -2.429351,-0.593316 h -0.954665 c -0.80762,-0.198665 -1.49333,-1.577516 -2.22209,-2.53962 z"
       id="path27007"
       sodipodi:nodetypes="ccccccc" />
    <path
       style="opacity:0.5;fill:#e3dbdb;stroke:none;stroke-width:0.114234px;stroke-linecap:butt;stroke-linejoin:miter;stroke-opacity:1"
       d="m 73.077552,65.071996 c 2.478277,-1.508203 4.132788,-4.025477 5.690621,-6.66117 l -5.064367,0.12105 z"
       id="path27009"
       sodipodi:nodetypes="cccc" />
    <path
       style="opacity:0.5;fill:#e3dbdb;stroke:none;stroke-width:0.114234px;stroke-linecap:butt;stroke-linejoin:miter;stroke-opacity:1"
       d="m 78.768173,58.410826 4.855716,8.926893 3.304591,-1.760432 c -1.130554,-2.499606 -0.454113,-4.786321 -0.171439,-7.205116 z"
       id="path27142"
       sodipodi:nodetypes="ccccc" />
    <path
       style="opacity:0.4;fill:#e3dbdb;stroke:none;stroke-width:0.114234px;stroke-linecap:butt;stroke-linejoin:miter;stroke-opacity:1"
       d="m 86.92848,65.577287 c -0.356047,0.389395 1.583695,0.06771 2.315163,-0.09652 l 0.630929,0.486263 c 1.385621,-2.331267 1.505544,-4.717279 4.221492,-6.991006 L 93.854879,58.531874 86.445227,58.3424 c -0.929475,2.331107 0.318595,4.744147 0.483253,7.234885 z"
       id="path27538"
       sodipodi:nodetypes="ccccccc" />
    <path
       style="opacity:0.5;fill:#e3dbdb;stroke:none;stroke-width:0.114234px;stroke-linecap:butt;stroke-linejoin:miter;stroke-opacity:1"
       d="m 94.137112,58.607859 c -2.306089,1.192568 -3.335868,4.468259 -4.26254,7.359173 l -1.787969,4.958187 0.488807,0.147685 c 0.0642,-0.281463 0.472701,-0.666075 0.91838,-1.061822 0.724566,-0.505838 1.437099,-0.922745 2.21823,-1.846661 0.836306,-1.158822 1.755122,-2.051971 2.675134,-2.941278 z"
       id="path28048"
       sodipodi:nodetypes="cccccccc" />
    <path
       style="opacity:0.5;fill:#e3dbdb;stroke:none;stroke-width:0.114234px;stroke-linecap:butt;stroke-linejoin:miter;stroke-opacity:1"
       d="m 88.57541,71.072904 0.08254,0.310674 c 0,0 1.042202,0.0048 1.092591,0.0048 0.05039,0 0.928985,0.243844 0.928985,0.243844 l 1.923361,0.303883 c 0.609113,0.476954 1.153597,1.122849 1.675295,1.407994 l 0.09137,-8.357561 c -0.91934,0.688849 -1.870464,1.093205 -2.657536,3.177903 -0.724062,0.382311 -1.470809,1.109361 -2.21823,1.846666 z"
       id="path28140"
       sodipodi:nodetypes="ccsccccccc" />
    <path
       style="opacity:0.5;fill:#e3dbdb;stroke:none;stroke-width:0.114234px;stroke-linecap:butt;stroke-linejoin:miter;stroke-opacity:1"
       d="m 92.602889,71.936098 c -0.334744,1.029781 -0.56741,2.110188 -1.079859,3.051832 0.174488,0.549631 0.277136,1.13891 0.83216,1.478542 0.440075,0.935534 1.223075,1.256791 1.957276,1.665473 l -0.07552,-5.189087 c -0.506151,-0.402703 -1.024636,-0.783925 -1.634059,-1.00676 z"
       id="path28142"
       sodipodi:nodetypes="cccccc" />
    <path
       id="rect6264-8-1"
       style="fill:#6c5353;fill-opacity:1;fill-rule:evenodd;stroke-width:0.139324;stroke-linecap:square;stop-color:#000000"
       d="M 40.018842,54.149243 V 124.20502 H 98.201419 V 54.149243 Z m 4.398104,4.398105 H 67.301703 V 76.742384 H 44.416946 Z m 27.28286,0 H 93.803317 V 119.80692 H 71.699806 Z M 44.416946,81.140486 H 67.301703 V 119.80692 H 44.416946 Z"
       sodipodi:nodetypes="cccccccccccccccccccc" />
    <path
       id="path57933"
       style="fill:#483737;stroke:none;stroke-width:0.151533px;stroke-linecap:butt;stroke-linejoin:miter;stroke-opacity:1"
       d="m 43.369891,80.093351 0.0066,40.760609 1.040351,-1.04695 V 81.140557 H 67.3016 l 1.047202,-1.047206 z"
       sodipodi:nodetypes="ccccccc" />
    <path
       id="path29383"
       style="fill:#483737;stroke:none;stroke-width:0.151533px;stroke-linecap:butt;stroke-linejoin:miter;stroke-opacity:1"
       d="M 43.369891,57.500067 V 77.789456 L 44.416849,76.75963 V 58.547269 H 67.30797 l 1.040839,-1.047202 z"
       sodipodi:nodetypes="ccccccc" />
    <path
       id="path57929"
       style="fill:#483737;stroke:none;stroke-width:0.138894px;stroke-linecap:butt;stroke-linejoin:miter;stroke-opacity:1"
       d="m 94.836005,57.500067 -22.089142,0.06804 0.0014,63.296633 1.045979,-1.05161 V 58.53185 h 20.060801 z" />
    <path
       style="fill:#0b280b;stroke:none;stroke-width:0.125302px;stroke-linecap:butt;stroke-linejoin:miter;stroke-opacity:1"
       d="m 81.844199,114.31315 c 0.326952,-3.7928 0.398448,-7.60548 1.879365,-11.30843 -0.748109,3.90792 -0.963026,7.67129 -0.81549,11.33637 z"
       id="path111736"
       sodipodi:nodetypes="cccc" />
    <path
       style="fill:#005500;stroke:none;stroke-width:0.125302px;stroke-linecap:butt;stroke-linejoin:miter;stroke-opacity:1"
       d="m 81.504057,114.29734 c -1.921144,-3.57684 -4.325443,-1.15228 -6.227218,1.00064 2.061458,-4.0669 5.833534,-4.91779 7.105179,-1.02232 z"
       id="path108868"
       sodipodi:nodetypes="cccc" />
    <path
       style="fill:#0b280b;stroke:none;stroke-width:0.125302px;stroke-linecap:butt;stroke-linejoin:miter;stroke-opacity:1"
       d="m 83.931997,114.3804 -0.920706,0.009 c -0.63192,-0.59293 0.03746,-5.11772 -3.861048,-3.90843 3.109719,-2.21924 3.762268,1.33303 4.781754,3.899 z"
       id="path112022"
       sodipodi:nodetypes="cccc" />
    <path
       style="fill:#005500;stroke:none;stroke-width:0.125302px;stroke-linecap:butt;stroke-linejoin:miter;stroke-opacity:1"
       d="m 81.535281,114.28756 c -0.11052,-5.45853 -1.755571,-9.76593 -7.74407,-5.64858 1.876845,-1.92562 8.202673,-5.7799 8.907918,5.69123 z"
       id="path109074"
       sodipodi:nodetypes="cccc" />
    <path
       style="fill:#005500;stroke:none;stroke-width:0.125302px;stroke-linecap:butt;stroke-linejoin:miter;stroke-opacity:1"
       d="m 86.92942,114.3757 c -0.04919,-2.09701 1.515038,-5.01271 3.861199,-1.92495 -1.50111,-2.95402 -4.129005,-2.22057 -4.889475,1.89734 z"
       id="path109546"
       sodipodi:nodetypes="cccc" />
    <path
       style="fill:#005500;stroke:none;stroke-width:0.125302px;stroke-linecap:butt;stroke-linejoin:miter;stroke-opacity:1"
       d="m 85.869334,114.37544 -1.154368,-0.12226 c 0.886888,-3.95168 3.191924,-9.23431 6.33924,-7.06285 -3.679112,-1.41732 -4.759458,4.50315 -5.184872,7.18511 z"
       id="path109942"
       sodipodi:nodetypes="cccc" />
    <path
       style="fill:#217821;stroke:none;stroke-width:0.125302px;stroke-linecap:butt;stroke-linejoin:miter;stroke-opacity:1"
       d="m 85.321058,114.37038 c 1.732208,-4.35317 3.982109,-6.37868 6.961778,-5.12297 -2.304847,-0.25846 -4.449266,0.58122 -6.062833,5.05474 z"
       id="path110452"
       sodipodi:nodetypes="cccc" />
    <path
       style="fill:#005500;stroke:none;stroke-width:0.125302px;stroke-linecap:butt;stroke-linejoin:miter;stroke-opacity:1"
       d="m 84.617342,114.35079 -1.153036,-0.0341 c -0.085,-3.03168 -0.385492,-13.36951 3.866792,-11.50499 -3.739607,-1.38763 -3.05734,8.58213 -2.713756,11.53908 z"
       id="path111172"
       sodipodi:nodetypes="cccc" />
    <path
       style="fill:#005500;stroke:none;stroke-width:0.125302px;stroke-linecap:butt;stroke-linejoin:miter;stroke-opacity:1"
       d="m 82.187248,114.36253 1.318615,-0.0595 c -0.498489,-5.28146 1.000954,-12.83614 -4.739539,-12.15328 4.103811,-0.14218 4.195473,5.18589 3.420924,12.21281 z"
       id="path111530"
       sodipodi:nodetypes="cccc" />
    <path
       style="fill:#005500;stroke:none;stroke-width:0.125302px;stroke-linecap:butt;stroke-linejoin:miter;stroke-opacity:1"
       d="m 83.841458,114.3512 c -1.615661,-3.98613 -1.453961,-9.72174 -7.30004,-9.54381 5.191512,-1.22026 6.581714,4.52325 8.368773,9.53974 z"
       id="path112266"
       sodipodi:nodetypes="cccc" />
    <path
       style="fill:#217821;stroke:none;stroke-width:0.125302px;stroke-linecap:butt;stroke-linejoin:miter;stroke-opacity:1"
       d="m 84.531074,114.31056 c -0.237416,-5.43053 0.662344,-12.62283 4.809592,-10.17161 -4.025178,-1.19542 -3.924598,5.7773 -3.737955,10.2457 z"
       id="path110700"
       sodipodi:nodetypes="cccc" />
    <path
       style="fill:#217821;stroke:none;stroke-width:0.125302px;stroke-linecap:butt;stroke-linejoin:miter;stroke-opacity:1"
       d="m 83.33435,114.33637 0.91213,-0.007 c 0.238832,-3.31896 0.08312,-7.37779 2.78565,-6.07661 -2.717805,-2.24649 -3.693712,1.85922 -3.69778,6.08352 z"
       id="path112472"
       sodipodi:nodetypes="cccc" />
    <path
       style="fill:#483737;stroke:none;stroke-width:0.125302px;stroke-linecap:butt;stroke-linejoin:miter;stroke-opacity:1"
       d="m 76.559033,115.81284 15.427189,0.0167 c -0.06174,-0.96329 0.526767,-1.7877 -0.496476,-1.78505 l -14.4438,0.0374 c -0.870099,-0.11917 -0.477131,0.95626 -0.486913,1.73097 z"
       id="path64286"
       sodipodi:nodetypes="cccccc" />
    <path
       style="opacity:0.2;fill:#000000;fill-opacity:1;stroke:none;stroke-width:0.264583px;stroke-linecap:butt;stroke-linejoin:miter;stroke-opacity:1"
       d="m 82.491728,114.0923 0.0022,1.7151 1.102357,0.70178 0.129199,4.39586 -5.212944,-1.01114 -0.911161,-3.39356 -0.05917,-0.72054 -0.983131,0.0331 -0.167457,-1.66381 z"
       id="path3897"
       sodipodi:nodetypes="cccccccccc" />
    <path
       id="path29383-6"
       style="fill:#916f6f;stroke:none;stroke-width:0.151533px;stroke-linecap:butt;stroke-linejoin:miter;stroke-opacity:1"
       d="m 94.836005,57.500067 -1.032766,1.047202 v 61.259741 l -20.009177,0.006 -1.045979,1.0516 22.102355,-0.0108 z"
       sodipodi:nodetypes="ccccccc" />
    <path
       id="path29383-6-2"
       style="fill:#916f6f;stroke:none;stroke-width:0.138904px;stroke-linecap:butt;stroke-linejoin:miter;stroke-opacity:1"
       d="m 68.348809,80.093351 -1.047202,1.047206 V 119.80701 H 44.416849 l -1.04035,1.04695 h 24.97231 z"
       sodipodi:nodetypes="ccccccc" />
    <path
       style="fill:#483737;stroke:none;stroke-width:0.162596px;stroke-linecap:butt;stroke-linejoin:miter;stroke-opacity:1"
       d="m 70.652642,53.809083 1.047164,5e-6 v 70.531222 h -1.047164 z"
       id="path29383-29" />
    <path
       id="path29383-6-7"
       style="fill:#916f6f;stroke:none;stroke-width:0.151533px;stroke-linecap:butt;stroke-linejoin:miter;stroke-opacity:1"
       d="m 68.348809,57.500067 -1.047202,1.047202 V 76.742497 H 44.416849 l -1.046958,1.046959 h 24.978918 z"
       sodipodi:nodetypes="ccccccc" />
    <path
       style="fill:#ac9393;fill-opacity:1;stroke:none;stroke-width:0.170812px;stroke-linecap:butt;stroke-linejoin:miter;stroke-opacity:1"
       d="m 101.64746,50.613191 1.04716,5e-6 v 77.839584 h -1.04716 z"
       id="path29383-2" />
    <path
       style="fill:#b3b3b3;stroke:none;stroke-width:0.125302px;stroke-linecap:butt;stroke-linejoin:miter;stroke-opacity:1"
       d="m 40.018842,124.20503 -4.066011,5.29494 66.342869,-0.11881 -4.094281,-5.17613 z"
       id="path16612" />
    <path
       id="path29383-6-2-6-6"
       style="fill:#916f6f;stroke:none;stroke-width:0.0882538px;stroke-linecap:butt;stroke-linejoin:miter;stroke-opacity:1"
       d="M 66.243391,59.59447 65.196189,60.6451 V 74.648093 H 46.507093 l -1.043042,1.047205 h 20.77934 z"
       sodipodi:nodetypes="ccccccc" />
    <path
       id="path29383-6-2-6-6-7"
       style="fill:#483737;fill-opacity:1;stroke:none;stroke-width:0.0882538px;stroke-linecap:butt;stroke-linejoin:miter;stroke-opacity:1"
       d="M 45.464051,59.59447 V 75.695305 L 46.511253,74.6481 V 60.642162 l 18.684936,0.003 1.047202,-1.050629 z"
       sodipodi:nodetypes="ccccccc" />
    <path
       style="fill:#6c5353;fill-opacity:1;stroke:none;stroke-width:0.158874px;stroke-linecap:butt;stroke-linejoin:miter;stroke-opacity:1"
       d="m 71.699806,54.811511 h 1.047163 v 67.339519 h -1.047163 z"
       id="path29383-6-2-6-6-7-4-1-0" />
    <text
       xml:space="preserve"
       transform="matrix(0.27250439,0,0,0.27250439,87.770956,-7.4609456)"
       id="text2167"
       style="font-style:normal;font-weight:normal;font-size:40px;line-height:1.25;font-family:sans-serif;white-space:pre;shape-inside:url(#rect2169);fill:#483737;fill-opacity:1;stroke:none"><tspan
         x="-160.57617"
         y="133.50511"
         id="tspan23897"><tspan
           style="font-family:'Red Banner';-inkscape-font-specification:'Red Banner'"
           id="tspan23895">Э.Весна</tspan></tspan></text>
    <text
       xml:space="preserve"
       transform="matrix(0.3845339,0,0,0.3845339,25.809753,-173.08373)"
       id="text11878"
       style="font-style:normal;font-weight:normal;font-size:40px;line-height:46.1598px;font-family:sans-serif;white-space:pre;shape-inside:url(#rect11880);fill:#241c1c;fill-opacity:1;stroke:none"><tspan
         x="-49.125"
         y="866.22954"
         id="tspan23901"><tspan
           style="font-family:'Red Banner';-inkscape-font-specification:'Red Banner'"
           id="tspan23899">Цветы
</tspan></tspan><tspan
         x="-49.125"
         y="914.59673"
         id="tspan23905"><tspan
           style="font-family:'Red Banner';-inkscape-font-specification:'Red Banner'"
           id="tspan23903">для
</tspan></tspan><tspan
         x="-49.125"
         y="962.96392"
         id="tspan23909"><tspan
           style="font-family:'Red Banner';-inkscape-font-specification:'Red Banner'"
           id="tspan23907">бабушки</tspan></tspan></text>
    <path
       style="opacity:0.2;fill:#000000;fill-opacity:1;stroke:none;stroke-width:0.264583px;stroke-linecap:butt;stroke-linejoin:miter;stroke-opacity:1"
       d="m 36.947019,127.96478 7.912206,-3.82161 0.02085,-3.34752 1.716239,-1.07627 0.140268,-2.58585 -0.229488,-5.29333 -0.127532,-3.63493 0.352233,-5.59 -0.112363,-5.385107 -0.19643,-8.405763 0.111382,-7.698083 -1.416568,-1.064746 0.0089,-2.320662 1.435561,-1.054023 0.02219,-1.01663 1.568051,-0.989875 -1.645425,-0.03229 -7.82e-4,-13.965149 1.822238,-0.07345 -1.156549,-0.986936 -0.0516,-0.975851 -1.849013,-0.503406 0.07156,-2.250711 25.34042,-0.07679 0.996194,0.620409 26.56983,-0.04525 3.405999,-5.762826 -64.655424,-0.01494 z"
       id="path1447"
       sodipodi:nodetypes="ccccccccccccccccccccccccccccc" />
  </g>
  <metadata
     id="metadata889">
    <rdf:RDF>
      <cc:License
         rdf:about="http://creativecommons.org/licenses/by/4.0/">
        <cc:permits
           rdf:resource="http://creativecommons.org/ns#Reproduction" />
        <cc:permits
           rdf:resource="http://creativecommons.org/ns#Distribution" />
        <cc:requires
           rdf:resource="http://creativecommons.org/ns#Notice" />
        <cc:requires
           rdf:resource="http://creativecommons.org/ns#Attribution" />
        <cc:permits
           rdf:resource="http://creativecommons.org/ns#DerivativeWorks" />
      </cc:License>
      <cc:Work
         rdf:about="">
        <cc:license
           rdf:resource="http://creativecommons.org/licenses/by/4.0/" />
        <dc:title>ffog_front_cover_ru</dc:title>
        <dc:date>2023/02/25</dc:date>
        <dc:creator>
          <cc:Agent>
            <dc:title>Emil Viesná [regnveig]</dc:title>
          </cc:Agent>
        </dc:creator>
        <dc:contributor>
          <cc:Agent>
            <dc:title>Emil Viesná, Anna Lazarenko</dc:title>
          </cc:Agent>
        </dc:contributor>
        <dc:description>Russian front cover for book &quot;Flowers for the Old Woman&quot; by Emil Viesná</dc:description>
      </cc:Work>
    </rdf:RDF>
  </metadata>
</svg>
