<?xml version="1.0" encoding="UTF-8" standalone="no"?>
<!-- Created with Inkscape (http://www.inkscape.org/) -->

<svg
   width="148mm"
   height="210mm"
   viewBox="0 0 524.40945 744.09449"
   id="svg2"
   version="1.1"
   inkscape:version="1.1.2 (0a00cf5339, 2022-02-04)"
   sodipodi:docname="pic_MitchoeOldBook.svg"
   xmlns:inkscape="http://www.inkscape.org/namespaces/inkscape"
   xmlns:sodipodi="http://sodipodi.sourceforge.net/DTD/sodipodi-0.dtd"
   xmlns="http://www.w3.org/2000/svg"
   xmlns:svg="http://www.w3.org/2000/svg"
   xmlns:rdf="http://www.w3.org/1999/02/22-rdf-syntax-ns#"
   xmlns:cc="http://creativecommons.org/ns#"
   xmlns:dc="http://purl.org/dc/elements/1.1/">
  <defs
     id="defs4" />
  <sodipodi:namedview
     id="base"
     pagecolor="#ffffff"
     bordercolor="#666666"
     borderopacity="1.0"
     inkscape:pageopacity="0.0"
     inkscape:pageshadow="2"
     inkscape:zoom="0.54952775"
     inkscape:cx="74.609518"
     inkscape:cy="314.81577"
     inkscape:document-units="px"
     inkscape:current-layer="layer1"
     showgrid="false"
     inkscape:window-width="1600"
     inkscape:window-height="827"
     inkscape:window-x="0"
     inkscape:window-y="0"
     inkscape:window-maximized="1"
     objecttolerance="1"
     guidetolerance="1"
     inkscape:pagecheckerboard="0" />
  <metadata
     id="metadata7">
    <rdf:RDF>
      <cc:Work
         rdf:about="">
        <dc:format>image/svg+xml</dc:format>
        <dc:type
           rdf:resource="http://purl.org/dc/dcmitype/StillImage" />
      </cc:Work>
    </rdf:RDF>
  </metadata>
  <g
     inkscape:label="Layer 1"
     inkscape:groupmode="layer"
     id="layer1">
    <rect
       style="fill:#ffffff;fill-rule:evenodd;stroke-width:9.0767;stroke-linecap:round;paint-order:markers stroke fill;stop-color:#000000"
       id="rect845"
       width="524.40948"
       height="744.09448"
       x="0"
       y="-1.1368684e-13" />
    <path
       style="opacity:1;fill:#53676c;stroke:none;stroke-width:0.793429;stroke-miterlimit:4;stroke-dasharray:none;stroke-opacity:1"
       d="m 308.76534,590.18947 c -4.44888,-9.91932 -33.09383,-18.64396 -23.09836,-19.77494 1.90113,-0.21511 5.29584,0.62973 10.66798,-1.43636 8.89825,-14.13496 -40.88656,-39.81212 -23.18563,-37.4238 21.57478,15.24822 28.76158,10.49939 12.46458,-9.75017 -10.52478,-16.8496 -30.73843,-27.97861 -39.67803,-44.00204 19.37069,12.57931 36.20238,29.34737 54.62865,43.58009 9.14537,6.52659 20.11524,16.00675 30.86949,18.3314 4.87056,1.05283 8.09453,-0.36354 6.75239,2.83043 0.59807,3.11344 1.86499,6.56294 5.43574,10.65976 1.94501,2.23157 -0.48129,6.00062 -2.38197,8.59201 -6.46608,8.81589 -16.46294,19.69356 -20.15282,27.88976 -2.1957,7.83495 -9.02249,6.09129 -12.32202,0.50386 z m 11.54742,-21.64328 c 2.22136,-5.31974 4.00999,-8.60682 5.40166,-10.2262 3.80735,-4.43034 -12.72963,-12.13207 -11.03189,-8.12537 1.6941,3.99812 -2.04895,4.64843 -2.84507,8.59928 2.83345,1.16346 6.06365,15.27953 8.4753,9.75229 z m -198.39785,11.93162 c 13.25637,-24.86935 18.87064,-53.12088 31.02826,-78.15786 -2.14718,18.36261 -9.21766,42.05849 -11.36462,62.1814 -8.40757,2.7322 -12.93518,12.86152 -19.66364,15.97646 z m 251.95514,-13.5018 c -8.85176,-1.59127 -28.42156,-8.11598 -22.337,-11.52276 2.084,-1.16683 4.10889,-4.08896 6.49103,-9.19197 3.40486,-13.72443 7.071,-21.93187 6.63155,-2.03732 6.93666,19.14749 35.56559,19.71944 50.46937,9.66625 10.78775,-5.78991 11.66128,-23.2363 5.65527,-22.91122 -8.2092,0.44435 -2.21088,-3.34042 -1.48529,-3.06785 20.91203,-12.92934 -34.0418,-4.72254 -3.13396,-11.93169 11.98806,-2.59632 30.13806,-14.86732 21.98223,-20.48526 -5.34827,-3.68402 -3.99853,-5.72376 -9.47392,-7.68066 -9.45317,-3.63178 -7.00173,-7.81538 0.19228,-5.96494 1.57672,0.40556 3.65279,0.3914 5.01484,1.62647 7.26559,6.58796 14.32942,7.39945 14.18103,-0.50433 -1.0137,-17.88423 10.83672,4.41125 3.48164,14.71159 -1.76997,2.47872 -3.39006,4.71217 -7.03599,4.69284 -17.35454,15.31972 -2.62013,47.00505 -26.20371,59.05046 -13.35557,7.75706 -29.64596,5.36553 -44.42937,5.55039 z M 117.8474,524.54508 c -24.178967,-2.4292 -5.18504,-51.54161 7.43386,-26.2706 5.89168,11.79887 -4.29316,8.44565 -7.63958,2.84644 -16.68495,13.45082 20.94304,21.34513 13.28691,-2.02613 -4.31836,-20.04057 16.52871,-24.54782 25.6516,-34.52063 -20.15414,-13.03276 4.44285,-44.09574 13.89777,-34.59304 -30.93999,8.97369 10.10147,34.87838 -9.17876,47.56873 -22.21494,-1.75222 -19.38827,27.28101 -26.81454,40.70116 -2.99603,5.41418 -10.61017,6.8996 -16.63726,6.29407 z m 114.33603,-6.03762 c -15.71414,-11.85482 11.78342,-29.22593 -2.85371,-43.61972 0.72643,-11.64111 24.59538,-38.34718 11.25183,-11.93098 -7.62624,15.09766 12.01428,28.78713 -4.95485,43.48699 3.50817,18.6951 12.68722,-15.42685 11.85343,6.87285 -0.20676,5.52966 -11.0415,8.401 -15.2967,5.19086 z m 63.74974,-3.42868 c 1.1103,-1.60396 0.5447,1.64607 0,0 z m 94.89056,-3.46141 c -2.13198,-5.25089 1.74818,-8.3956 5.98661,-14.46084 5.50763,-7.88149 11.20895,-20.93664 12.03822,-30.40568 0.41015,-4.68372 2.23558,-2.83718 3.02043,-3.67871 2.67112,15.36027 13.87978,11.01669 23.80236,2.92971 5.99795,-4.88832 12.52235,-5.9948 18.87544,-4.22658 -0.71043,-27.95895 7.23327,-13.62494 4.36965,4.49421 -8.11604,16.81473 -33.63642,8.65437 -49.00939,11.47667 -4.50035,10.3455 -7.31358,30.41014 -19.08332,33.87122 z M 200.93001,493.84119 c -8.00251,-10.90065 0.78887,-12.17324 4.80486,-7.99941 -9.94573,-15.58773 -4.71928,-35.13396 17.21898,-32.14482 20.16788,-12.49788 -3.79963,12.23011 -13.57496,8.99239 -1.93165,10.38492 15.64506,32.34307 -8.44888,31.15184 z m 112.54529,-0.85342 c 3.05916,-21.67429 -7.83298,-45.53508 3.78621,-65.44427 7.47708,-20.2992 58.84088,-13.43812 31.66022,7.97462 -26.59616,1.40459 -32.59357,28.88534 -31.98896,50.70601 -1.34836,1.66008 -0.53195,7.87675 -3.45747,6.76364 z m 33.18093,-64.82662 c 5.547,-15.61241 -16.04477,7.01115 0,0 z m -5.92299,61.40505 c 21.67518,-39.0764 31.69769,-86.56559 21.35731,-130.67691 11.69482,7.27627 16.64501,25.82998 30.87196,31.52967 -9.32576,35.75368 -29.41225,67.53185 -50.19358,97.61454 z m 13.50756,-1.68949 c 15.81335,-21.29762 27.11269,-45.8456 37.55394,-70.39008 6.52776,-8.81255 25.94188,-29.27871 26.9317,-29.24173 -2.41733,23.74393 -9.187,46.81553 -26.77704,63.90199 -11.03945,13.24869 -25.03814,26.36974 -37.7086,35.72982 z m -88.47452,-10.54528 c -19.23794,-3.64792 -15.0523,-46.91433 -8.52543,-15.32473 3.5413,17.13962 32.19453,0.92243 16.25475,-2.033 -9.69397,11.94588 -5.41958,-17.5395 7.8401,-4.69766 10.79347,10.45334 -1.73269,24.67913 -15.56942,22.05539 z M 97.788222,430.10313 c -17.92685,2.2567 -13.874629,28.30623 -2.846714,39.3876 -21.686106,-6.39977 -22.529672,-44.80506 2.899537,-49.41255 26.152415,-4.73853 36.179745,21.17539 21.950365,38.42632 19.74015,10.58623 10.75557,-25.75406 13.25026,-37.33782 2.30494,-10.70269 24.29587,-21.42527 9.22496,-5.25117 -13.50931,14.49818 14.8748,51.69356 -16.93554,55.66421 -46.290234,6.00844 24.88859,-48.07685 -27.542868,-41.47659 z m 286.169188,39.56424 c 17.70648,-15.5395 34.19631,-33.80338 41.58475,-56.59484 7.15683,-8.0782 13.10641,-7.73895 10.46172,-6.248 -5.98735,3.37537 -11.88364,26.9488 4.88445,22.92712 4.10632,-2.81691 10.38447,-4.35064 14.16662,-8.69532 5.03149,-5.77984 17.09121,4.66513 4.02414,11.08823 -3.40745,2.17266 -6.59486,6.33106 -6.77616,10.26789 -0.36866,8.00645 -3.71766,9.78056 -10.53271,-1.14909 -23.49462,-11.9355 -37.84828,21.10289 -56.79971,29.07397 l -0.81187,0.0305 z M 98.57989,449.67239 c -17.578103,-15.30969 23.31399,-12.3153 3.19354,0.45225 z m 142.42254,-7.25727 c -23.10435,-9.24938 6.71003,-39.17449 22.70432,-24.09403 15.60314,14.71166 -9.5194,29.37235 -22.70432,24.09403 z m 12.61369,-7.49197 c -2.69218,-5.82717 -0.18009,-9.80203 -1.89405,-9.54279 -2.92464,0.44236 -7.88185,4.60283 -8.13371,5.95151 3.51022,-0.92501 7.5133,4.19233 10.02776,3.59128 z m 206.23214,3.20033 c 6.08499,-5.03856 11.70801,-11.26142 12.14138,-18.55903 0.17697,-2.98059 -0.20638,-6.63443 1.91477,-8.63315 2.85137,-2.68684 1.5662,-6.30292 0.077,-9.75805 -4.19051,-23.2603 -18.93552,-7.19871 -24.83009,-8.08269 12.08017,-7.51994 12.91063,-23.06547 -2.20752,-9.71052 -10.02641,7.99814 -25.41946,16.08723 -7.83823,1.82906 7.28693,-4.46117 9.39973,-9.79603 12.49062,-13.13816 3.87799,-4.19312 1.63853,-8.28187 -0.17824,-12.22805 -3.07059,-6.66978 -6.14014,-13.63718 -4.22089,-19.55654 3.62861,7.86632 7.04554,15.98891 12.536,22.63029 6.2009,7.5007 10.94249,15.18186 13.8161,23.41861 2.11788,6.07061 5.63184,11.56936 7.66268,17.77992 2.2882,3.91277 3.04141,7.52929 4.87124,10.34902 2.51011,3.86805 -0.59131,7.99681 -2.1113,9.46663 -6.15037,5.94748 -15.51576,11.70128 -24.12355,14.19266 z m -262.92915,-3.5729 c -16.02834,-8.59897 -29.60372,-22.60304 -43.93496,-33.5955 -12.23591,-12.98347 -7.97061,-34.43896 -18.01606,-49.32748 -9.43633,-23.3583 12.58365,-42.97343 11.52804,-66.27619 -7.64334,-15.53254 3.24794,-32.23011 14.04719,-13.45303 13.24995,16.14168 31.27176,27.98989 43.46269,45.28004 -14.53537,-1.88189 -28.10245,-29.37288 -47.56463,-27.56269 -5.01248,20.89398 -32.3472,42.62255 -13.39477,63.62021 12.38963,18.12294 -1.95802,49.30031 28.02308,55.38404 9.82708,5.44869 28.91039,31.10705 36.77741,15.92503 -17.24216,-6.86602 -30.91936,-21.03534 -38.63129,-37.62102 10.50329,7.96682 35.59288,31.77423 48.35166,18.14537 7.04194,17.27749 0.42636,33.4553 -20.64836,29.48122 z M 70.931879,415.20663 c -17.437871,-5.26044 5.570277,-27.4938 -1.905025,-7.72533 18.69284,7.64972 13.315483,-13.67472 -1.528042,-18.34631 -23.470181,-7.38658 -3.804197,-53.26194 17.775582,-39.47868 7.872439,5.02822 -1.07785,20.55097 15.145886,11.91484 22.70011,-12.0836 2.20452,49.77178 18.66761,35.90528 -3.92253,-12.5096 6.64504,-18.25598 -4.10056,-32.57104 -7.72538,-10.2916 21.26418,-18.0787 8.42414,-2.53446 3.47244,10.64415 13.08284,18.16711 3.84138,29.78902 14.29791,31.28814 -31.755787,23.02332 -22.10788,-6.52619 5.01949,-15.37362 -7.752295,-19.98867 -14.86187,-9.34482 -7.619925,11.40791 -9.672113,-33.67965 -21.473721,-13.96744 -14.472971,24.17418 39.060521,21.69665 16.930873,46.82969 -4.019476,4.56499 -9.265444,7.72756 -14.808373,6.05544 z m 171.263001,-4.14445 c -10.23179,-4.01169 -7.10953,-33.29118 -3.5352,-30.72844 5.78951,4.151 2.24292,-1.7807 1.71493,-2.48949 -7.408,-4.17143 -7.9904,-27.94913 6.86838,-27.82558 30.93508,-10.68958 28.38868,26.13401 23.25565,45.06791 -3.98162,14.33847 -14.07686,19.13376 -28.30376,15.9756 z m 5.33726,-2.58059 c 7.16853,-14.45686 10.39604,-44.63194 0.90436,-53.89805 -1.49278,17.6299 0.36626,37.58213 -0.90436,53.89805 z m 13.65402,-2.09883 c 1.51247,-7.08066 -2.80792,-14.87913 1.805,-13.84528 1.0097,0.22629 0.45518,-3.96702 -0.24012,-3.12657 -2.24669,2.71571 -1.04957,-5.24408 -1.06743,-11.50871 -0.34509,-4.49878 1.59634,-5.02162 3.9078,-4.37324 0.86628,0.24298 0.78618,-2.09486 0.0998,-2.81525 -3.60468,-3.78304 -2.70859,-8.41353 -5.08378,-13.83928 -1.23918,14.23542 -7.47285,39.77433 0.57876,49.50833 z m 135.54446,-6.78498 c 2.7827,-2.72108 2.54363,-5.90107 4.19492,-7.38824 8.41744,-7.58093 -26.24604,-15.72038 -17.10816,-19.9102 15.33781,7.04777 33.79332,4.83099 37.83828,-10.49199 -0.43344,14.67088 -11.23411,33.31185 -24.92504,37.79043 z M 162.69944,396.4365 c -14.26243,-13.171 0.61284,-37.08487 -14.16264,-51.15459 -10.07386,-18.67743 13.82218,-49.08362 33.03648,-32.3663 10.68066,4.01028 26.91058,21.34863 5.31633,17.51056 -10.95265,10.67224 -20.67325,3.1549 -10.17706,-9.52369 -30.45253,1.84164 -9.8007,31.15053 -13.59036,48.51975 -7.87003,5.35921 8.36743,32.55795 -0.42275,27.01427 z m 39.80645,0.11333 c -17.1434,-9.73984 -41.13308,-16.29952 -29.65253,-42.12556 6.42717,-12.77138 40.3481,-31.00364 30.31344,-2.24759 -7.55216,5.13995 -31.63096,19.24816 -8.36342,12.52957 9.33682,-1.10203 24.35077,-18.99803 11.08324,0.88884 -10.97935,7.86495 6.88229,33.82266 -3.38073,30.95474 z m 94.73098,-16.34718 c -30.81632,-10.61605 23.60105,-38.87839 -0.64467,-56.31729 -24.85214,-17.63451 16.3299,0.14378 13.22659,15.1155 -0.68297,11.27355 -25.68484,39.61964 -3.70348,35.68758 9.86341,-1.76438 -1.58716,8.02602 -8.87844,5.51421 z m -80.09194,-11.03494 c 18.21624,-7.24067 -11.6109,-26.31098 -10.23902,-38.58597 1.0829,-9.6894 18.37201,-17.54431 9.89775,-28.65639 -6.77628,-15.67603 14.08794,10.49328 1.93676,22.15337 -13.24219,12.70698 27.64336,40.14117 -0.93616,55.01734 -9.84511,5.12457 -3.32785,-31.12495 -0.65933,-9.92835 z m 186.84874,1.57999 c -10.13271,0.65956 -20.01947,-6.75472 -28.57978,-14.73099 -9.35984,-8.72125 -23.27327,-5.11659 -27.09766,-0.78215 7.29078,-7.5599 17.92853,-9.81212 25.50009,-6.62322 4.43808,1.86918 8.52004,7.91213 9.01602,6.77735 1.81946,-4.16295 2.8825,-2.35124 4.14543,-3.46775 -0.39247,10.38653 6.64024,12.53932 6.63897,9.16076 0,-6.74137 0.83814,-16.85278 5.41112,1.95222 3.51164,-0.86516 4.67157,2.05972 4.76263,0.33323 0.0694,-1.31731 1.97971,-7.40462 -1.16746,-11.34921 -2.89571,-3.62933 -13.85133,-1.74886 -18.66562,-2.46721 -10.77434,-2.24889 -32.86804,-16.34901 -9.39565,-6.02941 16.67929,7.9705 45.59488,-6.13161 54.30305,10.8592 -21.1667,-9.72284 -21.01443,14.82657 -16.58096,15.8114 l -8.29018,0.55581 z M 50.545861,354.33879 c -18.759281,-4.60466 -15.793505,-44.45187 5.321208,-32.41814 22.776292,12.98069 8.039799,-37.19416 32.884907,-19.9053 -0.484019,9.92174 1.700478,31.57794 8.212303,9.99976 6.764561,-25.87722 33.259451,-3.84289 16.133341,12.60232 -14.008916,13.45195 1.12346,20.73131 10.00519,12.61753 -5.73796,21.72307 -38.062865,7.98372 -19.70609,-8.98356 8.54131,-7.89479 6.57355,-28.52985 -0.12297,-10.05748 -3.38046,29.03487 -27.721486,8.39115 -24.04497,-7.75022 0.09002,14.21002 -5.910246,23.19813 -24.332877,19.21112 -16.993988,-3.67783 -4.150294,19.63192 -4.350042,24.68397 z M 235.59941,345.3624 c -19.24144,-1.99598 0.60381,-26.76711 13.67636,-22.30071 15.94121,-10.9183 56.75803,13.08245 26.42575,19.97276 -12.23141,2.77849 -26.55282,3.73347 -40.10211,2.32795 z m 2.76382,-8.35831 c 5.01798,-4.4039 -6.95541,-1.26226 0,0 z m 21.35826,-0.46211 c 12.40476,-10.12046 -25.19104,-0.11876 -2.69043,0.53593 z m 17.15309,-1.85893 c 2.64962,-8.79636 -10.23836,3.04068 0,0 z m 53.84056,3.86086 c 0.56246,-5.48562 9.10151,-5.91057 12.28556,-7.2537 1.84725,-0.77924 -5.07798,-0.43786 -3.72389,-7.34415 7.3122,-2.41284 16.71175,-1.51798 15.3503,-3.50617 -1.07177,-1.56515 -5.69038,-4.23206 -0.88977,-6.54095 20.68532,-1.13887 49.9082,-8.03927 62.83077,12.59205 2.27029,5.68402 2.88922,11.84662 0.41001,10.84688 -3.21794,-1.29766 -9.5832,-2.99631 -16.66718,-2.41328 -7.08532,0.58315 -14.16692,1.93013 -20.01829,0.53952 -2.14691,-0.50779 8.28237,0.50978 17.50542,-2.64125 8.64308,-2.95285 16.22044,-1.34549 17.06874,-0.94759 2.09511,0.9827 -0.57705,-5.32222 -6.16537,-10.14237 -12.47853,-5.37337 -25.73146,-5.22725 -35.34895,2.08612 -8.98955,6.83587 -17.86656,17.40749 -31.39965,15.20325 -3.74733,-0.0494 -7.51748,0.10143 -11.2377,-0.47836 z m 114.58912,-3.92555 c -18.21285,-24.64205 -52.11828,-41.08258 -82.37904,-29.3243 -9.57943,-9.6682 16.13388,-12.98338 26.85264,-15.26265 2.14885,-0.45694 -2.12437,-2.20326 -4.73211,-4.17006 8.88269,-4.87102 27.26676,6.05496 29.10667,7.40164 1.98538,1.4531 0.99213,-2.23323 1.13283,-6.01174 8.78954,3.62104 16.64016,9.59526 18.99807,17.13554 0.64849,2.07355 4.7563,-1.01452 6.02378,0.41398 2.66275,3.00099 2.84966,10.00731 2.69597,14.8894 2.24088,-2.48611 3.86216,-5.96087 1.60277,-10.54018 -4.07832,-8.26614 2.38151,-18.80627 -1.91059,-26.59097 -4.33136,-7.85599 -12.49518,-14.5891 -20.00349,-19.90791 -12.00083,-10.34837 9.92953,-0.28666 17.69222,7.57999 1.92627,1.9521 0.041,-7.41228 -2.09891,-11.30308 -0.2496,-16.42885 -15.85157,-36.67197 -15.95167,-47.26541 19.80614,24.15135 25.1836,55.84753 30.22666,85.87496 1.06932,5.22027 2.8319,7.23191 4.03593,8.63337 2.55042,2.96857 0.57347,9.56586 -3.17882,11.60654 -4.8425,2.6336 -6.85558,13.25437 -6.59142,17.29661 0.14219,2.17489 -1.47977,-2.20808 -1.52149,-0.45573 z M 274.1182,312.26705 c -12.21522,-19.93047 16.64722,-36.78465 24.11904,-11.73321 27.43924,13.38626 -21.48337,-34.44255 8.59074,-33.41895 8.85757,0.30148 35.7453,5.65223 16.13935,-5.16343 -18.80201,-10.37217 -11.71772,-40.52752 13.44364,-26.92944 14.37241,7.76734 -6.55699,-31.93996 18.58154,-35.82879 19.4559,-3.00975 17.194,21.8537 28.95572,21.80254 13.87541,-0.0604 2.58941,-41.29363 31.04092,-33.39644 14.24075,3.95276 24.97939,19.64264 19.19341,31.81239 -0.91712,-22.54936 -40.76135,-37.3155 -36.34001,-2.15776 2.76381,21.97736 -32.2492,8.96349 -32.23664,-9.0395 -32.44061,-6.99577 0.40483,59.41496 -19.72592,39.40072 -10.55747,-10.49638 -38.16437,-6.1429 -19.5704,6.1666 24.64487,16.31529 17.82815,35.87916 -12.40029,24.9577 -23.144,-8.36187 21.28918,30.96837 -4.64152,34.57049 -18.67882,2.59474 -25.99008,-39.19979 -35.14958,-1.04292 z m -12.37138,-0.81476 c -14.45259,-17.29609 -0.91334,-33.40242 10.92182,-44.51287 -1.36333,-27.28236 -42.10521,6.16945 -39.90327,-25.0847 -0.1031,-23.07556 25.99102,-31.73096 43.64244,-22.53651 6.39529,-7.8801 -19.91915,-30.17804 6.94881,-40.62702 5.77691,-2.24664 44.57775,-8.97326 25.30816,-29.46282 -18.46216,1.0548 -24.41585,-16.70481 -26.13445,-29.27563 -25.05792,8.99767 -43.27272,-39.63721 -12.26152,-38.79626 14.79848,0.4013 21.85502,14.72597 36.21165,0.26023 12.10909,-12.20111 17.25368,31.67473 40.7542,24.43115 -15.8853,11.37629 -30.58456,-1.84332 -37.92936,-15.73216 -10.46438,6.27617 -18.54961,6.56892 -33.71968,-0.22747 -28.11293,-12.59494 -12.42263,33.83709 13.89506,21.64594 11.46892,-5.31275 -5.3257,30.28992 22.354,29.03929 18.11239,-0.81835 10.85716,37.95145 -5.98212,40.96406 -21.95368,3.92759 -28.33499,12.26739 -18.80508,34.07542 12.44493,28.47869 -43.30114,-5.97745 -46.72043,23.49125 1.77043,24.36713 35.47716,-7.53683 41.43379,22.41012 5.49655,27.63387 -30.91791,15.57054 -20.86026,41.42336 0.62604,-0.67094 4.61517,12.84261 0.84624,8.51462 z m -25.09583,-1.80324 c -7.24779,-12.67444 -2.30049,-53.37708 -22.63222,-25.32444 -22.28285,17.2666 -43.15818,-17.29441 -18.03709,-30.10518 -11.56277,9.57577 -40.08404,-8.7058 -19.39713,-22.27606 18.31544,-3.07851 16.23165,-13.71483 0.17745,-17.0105 -1.66074,-9.64743 -17.38931,-29.0703 -12.25148,-6.98611 12.2707,26.5205 -24.06316,46.98286 -38.90442,21.05859 -24.23804,-5.72588 4.26125,12.95393 11.81594,16.89871 13.81446,17.88769 -21.99435,33.95254 -22.21222,12.08081 15.92577,18.43394 26.36132,-14.04568 0.0872,-13.50479 -24.818576,-15.56176 14.0529,-39.30902 23.29837,-13.22011 23.79595,11.55026 21.93423,-21.3203 14.19801,-34.41508 4.31687,-24.28236 31.09885,-0.827 30.06509,13.4976 20.91659,0.46587 22.15881,26.29511 0.36681,25.31239 -17.07671,11.89857 9.94493,15.96431 18.24198,8.0826 23.87544,8.64632 -29.64722,28.78045 1.26682,36.68046 13.2829,-0.44468 22.46766,-31.2927 35.73199,-9.06225 4.06195,11.87931 -5.78805,30.77616 -1.81507,38.29336 z m -188.635953,-0.0961 c -24.391879,-11.04907 -0.697762,-34.60116 10.312559,-44.36264 -4.978842,-31.39336 39.112469,-15.75529 17.891841,7.01493 -13.005868,13.95558 17.541328,20.68193 14.139917,-0.43729 -3.732214,-23.17315 25.774946,3.5505 12.605036,3.10136 -10.019903,-15.72113 -3.20576,28.61018 -26.104702,17.63369 -22.208466,-10.64552 4.896804,-33.49385 -7.255551,-39.76562 -9.459048,9.21499 -4.881701,27.72474 -22.342544,32.56837 -8.240981,24.24581 19.799239,12.12223 9.793287,3.08592 17.804317,3.67999 2.672366,26.4667 -9.039843,21.16128 z m 70.068613,-11.40111 c -27.142818,-14.33858 16.86663,-36.12723 15.13255,-9.44572 1.23466,8.1994 -8.64339,10.55878 -15.13255,9.44572 z m 5.42953,-7.48741 c 8.37932,-18.69049 -13.66905,-2.64524 0,0 z m 167.35841,-32.11675 c -17.77656,-14.77027 13.80508,-27.85675 9.22169,-42.50798 -5.42776,-17.35033 12.9089,-30.36818 23.20926,-22.26293 -5.93147,-22.93251 18.66227,-29.47334 34.97918,-22.88956 -1.78017,-12.08934 -41.0862,-17.05388 -19.68718,-39.21395 15.0915,-15.62823 40.40039,-19.81026 57.06946,-6.2876 13.87504,11.25603 12.79784,32.92256 -1.74959,41.9499 3.88239,14.46593 -21.20715,28.28806 -7.38442,10.89404 -4.59997,-18.51362 22.58982,-26.75866 1.89126,-47.24791 -9.75254,-9.65392 -30.96444,-2.25613 -33.41421,-1.49099 -16.17881,5.05308 -18.84896,11.66333 2.23209,24.70312 17.75966,10.98532 10.53783,33.86245 -13.29139,25.1446 -20.23465,-7.40279 -12.66281,10.2305 -11.51552,22.36815 1.2372,13.08892 -4.65825,9.63579 -14.77002,1.31646 -18.71634,-15.39862 -2.76007,24.84699 -19.10719,33.94318 -20.25361,11.26992 9.05341,31.11477 -7.68342,21.58147 z m -78.06715,-14.72525 c -15.20676,-9.61221 5.08667,-24.94729 5.09333,-12.19871 0.61098,-13.5091 -14.83316,-47.57734 13.12376,-39.21054 16.68872,4.99451 -12.27567,-18.3986 0.62334,-31.35399 22.14773,-22.24455 -29.1648,7.75158 -25.59593,-18.41052 4.08073,-29.91439 -38.66002,-1.6015 -35.56039,-28.56681 0.72711,-6.32551 21.8463,-21.70412 3.92251,-14.43123 -4.76206,16.12727 -28.72545,26.98089 -38.23044,17.75839 27.69327,12.80271 24.03077,-31.43015 48.15631,-27.38978 22.84164,3.82535 -9.56133,18.25138 -6.67209,25.68601 5.70828,14.6886 36.21258,-5.20133 34.92754,25.24083 -0.64585,15.30001 53.19446,-7.09359 34.62288,15.93344 -18.4634,22.89289 19.59897,53.38055 -10.51598,46.16347 -32.76415,-7.85196 -3.07783,23.01411 -11.20538,34.54758 -2.69496,3.8243 -8.1355,9.11042 -12.68946,6.23186 z m -160.007315,-3.5442 c -16.853287,-17.83876 9.489371,-32.50716 26.350901,-17.5064 25.221494,22.43814 1.274641,-31.48761 23.567914,-33.46505 7.57679,-0.67207 11.03317,24.91041 17.84405,6.9687 10.26276,-8.74414 -2.26715,24.59521 -13.9251,7.20937 -12.605671,-18.79919 2.67713,21.12641 -11.461547,30.84584 -17.715525,12.17829 -37.284272,-28.42265 -38.404085,-0.67107 16.750815,-4.39384 4.391559,15.47137 -3.972133,6.61861 z m 393.182485,-5.55405 c 17.10891,-6.79003 14.34246,-21.73087 2.64678,-35.90089 -7.43433,-9.00714 -24.74828,-20.23348 -2.41113,-11.551 26.89213,-0.29929 32.11844,45.95588 4.60462,47.45366 l -4.84027,-0.001 z M 137.14993,220.83142 c -18.58563,-15.07786 23.40774,-23.49937 11.96766,-1.78952 -2.16043,4.09984 -8.81188,4.34969 -11.96766,1.78952 z m 6.1934,-5.86687 c -0.0233,-16.48331 -9.7366,5.39842 0,0 z m -75.687898,-7.37704 c -18.121977,-4.10642 7.871484,-30.15521 -0.881066,-6.91676 23.437161,2.27649 -4.271785,-29.29939 11.788935,-24.2777 14.725805,4.60431 8.859463,35.67373 -10.907869,31.19446 z m 125.620298,-7.23722 c -22.16405,-5.9318 10.59217,-49.69732 -16.32164,-38.14586 -18.0096,7.72975 -21.65282,-8.1523 -19.38153,-19.09729 -13.72206,19.59596 -41.56488,13.18878 -45.88526,-6.8747 -26.980942,-5.7924 2.69814,-40.03979 19.90386,-46.07482 20.00272,-7.01611 34.00521,18.13781 10.54453,21.49472 18.14899,-13.59139 -8.08183,-17.31486 -19.32445,-7.15174 -11.12244,10.05449 -26.699073,31.5603 -1.60749,21.95076 8.35954,5.4782 -7.04085,27.42081 14.45923,20.89293 10.37876,-3.15122 37.68453,-28.17523 30.45685,-1.47215 -6.40508,23.66397 17.0396,-2.58092 27.75514,4.95452 15.00892,10.55464 -12.00093,53.64522 11.25802,41.63079 7.99938,-4.13208 9.63681,-25.36957 7.58571,-4.56333 -2.67419,8.04643 -10.17018,14.93786 -19.44297,12.45617 z m -64.12689,-15.44402 c -10.0924,-7.67943 -0.41505,-24.42398 -22.14009,-12.73206 -12.422624,6.68558 -16.043944,-30.52222 -29.060143,-7.92237 -2.348125,4.07702 -3.180405,-0.68183 -5.790656,9.96746 -19.299479,-6.89465 22.789311,-42.74229 26.983831,-21.31591 5.061508,25.85511 28.809458,-10.89404 31.778958,16.71933 2.56695,23.87005 12.84608,-28.83979 24.5195,-0.53604 0.18969,14.08162 -9.00584,-8.87197 -10.71752,8.1892 -0.9021,8.99177 -10.27196,11.66468 -15.57388,7.63039 z m 128.12658,-2.17321 c -26.51425,-11.76355 22.79332,-33.03382 14.84636,-5.93667 -1.65628,5.6475 -8.54082,8.73424 -14.84636,5.93667 z m 5.03807,-8.46171 c 3.5604,-13.93688 -11.79833,6.05582 0,0 z m 149.2191,7.50838 c 2.72104,-3.95023 -4.00809,-6.35432 5.29326,-11.02088 0.94272,-15.25114 -7.34806,16.2578 -12.00441,-2.43391 -0.3379,-24.96029 32.23906,-9.71263 22.21608,9.9645 -4.7283,-4.01594 -10.01126,6.41527 -15.50493,3.49029 z M 283.10099,163.952 c 5.58093,-15.7523 -35.12448,0.32377 -31.23792,-36.49534 -14.77819,-5.87448 -33.32444,3.31474 -42.51678,-17.92672 -10.90861,-25.20739 27.16594,-50.345669 39.00244,-24.63359 11.2003,24.33008 -34.21659,11.26485 -19.94688,7.49052 16.00395,14.91592 12.02189,-22.96321 -6.30112,-9.54173 -20.3298,14.89145 1.47182,42.68211 23.55346,35.72238 25.93019,-8.17273 3.39909,33.8343 29.7332,27.56495 10.4783,-2.67879 22.19907,18.74853 7.7136,17.81953 z m -24.90654,-39.32612 c -0.57544,-0.67693 1.34478,1.58196 0,0 z m 114.7318,29.35117 c -24.82379,-14.19348 17.77873,-29.26138 14.67022,-5.95616 -2.76016,4.85173 -9.17477,9.53381 -14.67022,5.95616 z m 4.82142,-4.89694 c 8.98199,-15.79722 -12.5275,0.32622 0,0 z m -65.83056,-17.15558 c -21.91408,-7.54251 11.32257,-33.72233 15.30857,-9.4318 1.01891,8.2615 -9.30087,10.41455 -15.30857,9.4318 z m 5.64894,-8.7698 c 6.7556,-11.85184 -10.80588,0.16057 0,0 z"
       id="path4147"
       inkscape:connector-curvature="0"
       sodipodi:nodetypes="cscccccscsscccsscccccccscccsccscsscscccsscccccssscscsscccsscsccccccccccccccccccccccccccsscssscscsscsccscscscccccccssscscccssccccsscsscssccccccccccccccscssscsccssssscsccccccccsscsscccsccccccccccccccccsccsscscssccscsscscsscccccccsccscsccscscssccccccccscsccsscsscsccccscscsscsscscccssscccsssssscscsssscccccsccssccssssscsccccccccccccccccccccscsscscccsccccccsccssccssssssscscssssccsssssssssscsscscsccccsssccscssssccscscsssscsssscsscssssscccccccccsscssccsscccccccccc" />
  </g>
</svg>
