<?xml version="1.0" encoding="UTF-8" standalone="no"?>
<!-- Created with Inkscape (http://www.inkscape.org/) -->

<svg
   width="148mm"
   height="210mm"
   viewBox="0 0 148 210"
   version="1.1"
   id="svg5"
   inkscape:version="1.1.2 (0a00cf5339, 2022-02-04)"
   sodipodi:docname="pic_EagleArcana.svg"
   xmlns:inkscape="http://www.inkscape.org/namespaces/inkscape"
   xmlns:sodipodi="http://sodipodi.sourceforge.net/DTD/sodipodi-0.dtd"
   xmlns="http://www.w3.org/2000/svg"
   xmlns:svg="http://www.w3.org/2000/svg">
  <sodipodi:namedview
     id="namedview7"
     pagecolor="#ffffff"
     bordercolor="#666666"
     borderopacity="1.0"
     inkscape:pageshadow="2"
     inkscape:pageopacity="0.0"
     inkscape:pagecheckerboard="0"
     inkscape:document-units="mm"
     showgrid="false"
     objecttolerance="1"
     inkscape:zoom="0.40567374"
     inkscape:cx="437.54373"
     inkscape:cy="549.70283"
     inkscape:window-width="1600"
     inkscape:window-height="827"
     inkscape:window-x="0"
     inkscape:window-y="0"
     inkscape:window-maximized="1"
     inkscape:current-layer="layer1" />
  <defs
     id="defs2">
    <rect
       x="333.05127"
       y="412.32632"
       width="695.56146"
       height="773.41016"
       id="rect8705" />
  </defs>
  <g
     inkscape:label="Слой 1"
     inkscape:groupmode="layer"
     id="layer1">
    <rect
       style="fill:#ffffff;fill-rule:evenodd;stroke-width:2.06134;stroke-linecap:round;paint-order:markers stroke fill;stop-color:#000000"
       id="rect2897"
       width="148"
       height="210"
       x="0"
       y="0" />
    <g
       id="g2873"
       transform="matrix(1.3044111,0,0,1.3044111,-61.857413,32.751833)">
      <path
         id="path4187"
         style="fill:#a793ac;fill-rule:evenodd;stroke:none;stroke-width:1.13386;stroke-linecap:square;stroke-linejoin:miter;stroke-miterlimit:4;stroke-dasharray:none;stop-color:#000000"
         d="M 393.64648,49.419922 A 159.91843,159.91843 0 0 0 233.72852,209.33984 159.91843,159.91843 0 0 0 393.64648,369.25781 159.91843,159.91843 0 0 0 477.91016,345.25586 l -0.85157,-4.36914 3.19336,2.88672 A 159.91843,159.91843 0 0 0 553.56445,209.33984 159.91843,159.91843 0 0 0 393.64648,49.419922 Z"
         transform="scale(0.26458333)" />
      <path
         style="opacity:0.25;fill:#e2dbe3;stroke:none;stroke-width:0.264583px;stroke-linecap:butt;stroke-linejoin:miter;stroke-opacity:1"
         d="m 63.269248,54.768879 32.37845,40.336802 -4.30204,-0.847214 -28.53052,-35.771632 c 0,0 1.12003,-2.14344 0.45411,-3.717956 z"
         id="path6670" />
      <path
         style="opacity:0.25;fill:#453748;fill-opacity:1;stroke:none;stroke-width:0.264583px;stroke-linecap:butt;stroke-linejoin:miter;stroke-opacity:1"
         d="m 77.655848,24.614999 53.014872,61.886586 1.1016,-0.74299 -53.579002,-61.944514 3.16525,-2.307764 53.159882,61.186559 3.04831,-3.783242 -52.530992,-59.607557 z"
         id="path6192" />
      <path
         id="path3872"
         style="fill:#e2dbe3;fill-rule:evenodd;stroke:none;stroke-width:0.705556;stroke-linecap:square;stroke-linejoin:miter;stroke-miterlimit:4;stroke-dasharray:none;stroke-opacity:1"
         d="M 104.065,13.971714 A 41.465515,41.465515 0 0 0 67.274481,36.489203 l 1.43609,0.06149 a 40.196164,40.196164 0 0 1 35.285189,-21.155814 40.196164,40.196164 0 0 1 17.64749,4.150651 l 0.24133,-1.538407 A 41.465515,41.465515 0 0 0 104.065,13.971714 Z m 19.16886,4.708757 -0.68988,1.357023 a 40.196164,40.196164 0 0 1 21.64777,35.553384 40.196164,40.196164 0 0 1 -36.52232,39.932964 l 0.46612,1.112076 A 41.465515,41.465515 0 0 0 145.53069,55.437399 41.465515,41.465515 0 0 0 123.23386,18.680471 Z m -17.61908,0.886251 -0.19947,4.610571 -2.08205,-2.408122 -7.022825,6.377389 1.956469,2.683557 -4.191473,3.107304 -0.546738,0.406178 0.811321,1.093472 0.546219,-0.405662 4.183208,-3.101101 4.471039,6.133475 0.29973,-11.367264 -4.479833,3.321761 -1.229381,-1.685687 5.084964,-4.616771 2.11356,2.444296 -0.51883,12.000817 6.69417,-6.943246 -4.79144,-5.539196 0.11007,-2.54248 3.49333,4.178556 0.43718,0.522449 1.04438,-0.87385 -0.43615,-0.522965 z m 1.01389,8.094597 3.03289,3.506245 -3.33468,3.458702 z m -4.22403,1.795754 -0.12041,4.571298 -2.12132,-2.909382 z m -35.401976,7.583 a 41.465515,41.465515 0 0 0 -4.403349,18.397326 41.465515,41.465515 0 0 0 41.465685,41.465168 41.465515,41.465515 0 0 0 3.68556,-0.241329 l -0.24804,-1.124995 a 40.196164,40.196164 0 0 1 -3.50676,0.250632 40.196164,40.196164 0 0 1 -40.196518,-40.195997 40.196164,40.196164 0 0 1 4.492231,-18.273302 z m 7.232115,7.296714 -2.041218,21.512381 4.732528,-0.126608 -1.024744,-8.144206 2.748153,0.07803 -0.785482,-4.432803 -2.524911,-0.112138 z m 35.232471,0 -2.04121,21.512381 4.73252,-0.126608 -1.02474,-8.144206 1.94148,0.0553 -0.77256,-4.445209 -1.73116,-0.077 z m -11.176573,0.02585 -2.04122,21.512382 4.732523,-0.126606 z m 35.232473,0 -2.04122,21.512382 4.73253,-0.126619 z m -48.181554,0.131776 c -1.724213,0.0026 -3.527433,0.222726 -3.527433,0.222726 l 0.114205,3.395658 c 0,0 1.912281,0.09423 2.847372,0.28267 1.810218,0.364797 2.584415,1.166447 2.835484,2.443779 0.1848,0.940175 0.342238,1.961173 0.439766,3.004984 l -0.06511,-0.171567 -5.530411,-0.245462 0.875398,4.362524 4.718058,0.133843 c -0.11507,0.986231 -0.329224,1.921703 -0.676445,2.750219 -0.4558,1.08762 -1.807051,1.643459 -2.941423,1.965772 -1.093628,0.310737 -3.408576,-0.120922 -3.408576,-0.120922 l 0.160713,3.081464 c 0,0 4.381423,0.534683 6.429581,-0.09715 2.520122,-0.777433 3.258092,-2.798197 3.588411,-4.710306 0.622771,-3.605059 0.38026,-7.230314 0.20619,-11.058758 -0.113929,-2.50585 -1.909397,-4.607224 -3.940328,-5.066874 -0.574329,-0.129984 -1.341718,-0.173744 -2.125451,-0.172598 z m 35.232474,0 c -1.72421,0.0026 -3.52743,0.222726 -3.52743,0.222726 l 0.1142,3.395658 c 0,0 1.91228,0.09423 2.84737,0.28267 1.81021,0.364797 2.58442,1.166447 2.83549,2.443779 0.1848,0.940175 0.34224,1.961173 0.43976,3.004984 l -0.0651,-0.171567 -6.64145,-0.294555 0.88108,4.380095 5.82342,0.165365 c -0.11506,0.986231 -0.32923,1.921703 -0.67645,2.750219 -0.4558,1.08762 -1.80705,1.643459 -2.94142,1.965772 -1.09363,0.310737 -3.40858,-0.120922 -3.40858,-0.120922 l 0.16072,3.081464 c 0,0 4.38142,0.534683 6.42958,-0.09715 2.52012,-0.777433 3.25861,-2.798197 3.58893,-4.710306 0.62277,-3.605059 0.37974,-7.230314 0.20567,-11.058758 -0.11393,-2.50585 -1.9094,-4.607224 -3.94033,-5.066874 -0.57433,-0.129984 -1.34172,-0.173744 -2.12545,-0.172598 z m -7.04763,8.748302 0.80822,4.426604 1.29811,0.03669 -0.81029,-4.405932 z m -34.247006,0.04341 0.885216,4.413168 1.658813,0.04754 -0.776179,-4.382162 z m 56.978436,16.045016 -64.352662,0.411345 1.619022,1.66398 61.06759,-0.42478 z m -3.78375,4.169256 -56.415163,0.411343 1.619541,1.663983 53.130092,-0.424265 z m -10.44277,4.868437 -6.88072,0.02273 -2.72852,4.763019 5.83737,0.02326 z m -29.223027,0.09612 -7.76025,0.02532 4.828645,4.575432 5.701462,0.02273 z m 2.971911,0.02739 8.444966,13.661183 7.61297,-13.487551 z m 4.919596,2.199867 6.5841,0.0279 -3.34037,5.940724 z" />
    </g>
  </g>
</svg>
